G04*
G04 #@! TF.GenerationSoftware,Altium Limited,Altium Designer,21.0.8 (223)*
G04*
G04 Layer_Color=16711935*
%FSLAX25Y25*%
%MOIN*%
G70*
G04*
G04 #@! TF.SameCoordinates,D9C85E8D-87DC-48F8-A205-D673694C3913*
G04*
G04*
G04 #@! TF.FilePolarity,Negative*
G04*
G01*
G75*
%ADD89C,0.06899*%
%ADD90R,0.06899X0.06899*%
%ADD91C,0.09655*%
%ADD92R,0.09655X0.09655*%
%ADD93C,0.07293*%
%ADD94R,0.07293X0.07293*%
%ADD95O,0.04537X0.08868*%
%ADD96O,0.04537X0.06899*%
%ADD97C,0.03159*%
%ADD98C,0.00600*%
%ADD99C,0.10443*%
%ADD100R,0.07293X0.07293*%
D89*
X83500Y218091D02*
D03*
X93500D02*
D03*
X103500D02*
D03*
X143500Y228091D02*
D03*
Y218091D02*
D03*
X133500D02*
D03*
Y228091D02*
D03*
X123500D02*
D03*
Y218091D02*
D03*
X83500Y228091D02*
D03*
X93500D02*
D03*
X103500D02*
D03*
X113500D02*
D03*
Y218091D02*
D03*
X153500D02*
D03*
D90*
Y228091D02*
D03*
D91*
X148000Y-909D02*
D03*
D92*
X128000D02*
D03*
D93*
X173500Y94500D02*
D03*
Y44500D02*
D03*
Y54500D02*
D03*
Y64500D02*
D03*
Y74500D02*
D03*
Y84500D02*
D03*
X153500Y94500D02*
D03*
Y44500D02*
D03*
Y54500D02*
D03*
Y64500D02*
D03*
Y74500D02*
D03*
Y84500D02*
D03*
X163500Y94500D02*
D03*
Y44500D02*
D03*
Y54500D02*
D03*
Y64500D02*
D03*
Y74500D02*
D03*
Y84500D02*
D03*
X-1500Y194091D02*
D03*
Y184091D02*
D03*
Y174091D02*
D03*
X23500Y210591D02*
D03*
X33500D02*
D03*
X43500D02*
D03*
X163000Y202091D02*
D03*
Y162091D02*
D03*
Y172091D02*
D03*
Y182091D02*
D03*
Y192091D02*
D03*
X138000Y202091D02*
D03*
Y162091D02*
D03*
Y172091D02*
D03*
Y182091D02*
D03*
Y192091D02*
D03*
X113000Y202091D02*
D03*
Y162091D02*
D03*
Y172091D02*
D03*
Y182091D02*
D03*
Y192091D02*
D03*
X88000Y202091D02*
D03*
Y162091D02*
D03*
Y172091D02*
D03*
Y182091D02*
D03*
Y192091D02*
D03*
D94*
X173500Y34500D02*
D03*
X153500D02*
D03*
X163500D02*
D03*
X-1500Y204091D02*
D03*
D95*
X15972Y12417D02*
D03*
X50027D02*
D03*
D96*
X15972Y-3331D02*
D03*
X50027D02*
D03*
D97*
X44378Y10449D02*
D03*
X21622D02*
D03*
D98*
X0Y223091D02*
D03*
X167220D02*
D03*
X0Y0D02*
D03*
X167220D02*
D03*
D99*
X84996Y-409D02*
D03*
X66492D02*
D03*
X103500D02*
D03*
D100*
X53500Y210591D02*
D03*
X163000Y152091D02*
D03*
X138000D02*
D03*
X113000D02*
D03*
X88000D02*
D03*
M02*
