M48
;Layer_Color=9474304
;FILE_FORMAT=2:5
INCH,TZ
;TYPE=PLATED
T1F00S00C0.01000
T2F00S00C0.01300
T3F00S00C0.01500
T5F00S00C0.02559
T6F00S00C0.03543
T7F00S00C0.04724
T8F00S00C0.06693
T9F00S00C0.12598
%
T01
X-8000Y-4500
X-9500Y1000
Y5500
X-6350Y19500
X-4500Y43850
Y45950
X3500Y44850
X3181Y58862
Y61681
X6000
Y64500
X8819
Y61681
Y58862
X6000
X3181Y64500
X-3500Y71091
X500Y78000
X6500
X-7688Y61667
X-7700Y59567
X-7500Y53091
X30500Y30500
X32000Y21591
X36000
X28000Y20650
X29500Y-1000
X33500
X37000
X39000Y-4500
Y-9500
X35500Y-9000
X31000Y-9500
X27500
X24500
X25000Y-4500
Y-1000
X30000Y-5000
X34000
X17000Y4000
X13000Y3500
X12000Y-9500
X4500Y-9000
X-3500Y-8500
X42000Y-8000
X45500Y-9500
X45000Y-5000
X44500Y-1000
X41000Y-500
Y4000
X45500
X49500Y19500
X63500Y12500
X67000
Y8500
X63500
X103500Y12000
X107500
X111500
X115500
Y16500
Y20500
X111500
Y16500
X107500
X103500
Y20500
X107500
X104000Y35500
Y38500
Y41500
Y44500
Y47500
Y50500
X112500Y49500
Y46500
Y43500
Y40500
Y37500
X146000Y15000
X147000Y11500
X146000Y7000
X151072Y6504
X152500Y11000
X156000
Y15000
X151000
X161500
Y11000
X163000Y7500
X157000Y5500
X155000Y2000
X158000Y0
X154500Y-3500
X152500Y-8500
X149000Y-9000
X146000Y-8000
X158000Y-7000
X162000Y-9000
X168000Y-8500
X173000Y-7000
X175500Y-3000
X176500Y2000
X173500Y7500
X172000Y11500
X171500Y15000
X175500Y14500
X167000Y15500
Y11500
X173500Y113500
X156000Y114602
Y117161
Y112043
Y127398
Y129957
Y132516
X166369Y128975
X168500Y128091
X163000Y139591
X164000Y141591
X171000Y182500
X175500Y183000
Y188500
Y192000
Y196500
Y200500
X174500Y205500
Y210000
X177000Y211000
Y215500
Y220000
X176500Y225500
X174500Y228500
X171500Y231000
X167000Y232000
X162000
X166500Y212500
X172000Y213500
X170000Y209000
X171000Y203000
Y196500
Y192000
Y187500
X145500
Y183000
Y192000
Y196500
Y201500
X149500Y204000
X125500Y203000
X121500Y201000
Y196500
Y192000
Y187500
Y183500
X94500Y187500
Y192000
Y196500
Y201000
X98000Y203000
X78000Y205500
X73500Y207291
X71500Y201500
X67500
X68850Y199500
X65500
X74000
X73500Y185000
Y176000
X67894
X66950Y178000
X69500Y172000
X71500Y170000
X76500Y164500
X83000Y160000
X95500Y157500
X95000Y170000
X107000Y159000
X108951Y145466
X112500Y147000
X112000Y128000
X114500Y128131
X114000Y115000
X119500
X123500
X127000Y112500
X138000Y114500
X101000Y114531
Y111972
Y117091
X100300Y120500
Y124500
X101000Y127327
Y129886
X100913Y132358
X83000Y112500
X72000Y111500
Y114500
X58000Y120091
X54500Y130500
X49500Y134319
X43768Y132500
X40500Y123591
X44000Y146000
X54561Y147997
X56500Y147191
X57500Y145000
X59500Y144000
X58485Y141741
X61417Y142007
X63500Y131000
X46125Y157410
X43000Y160591
X41000Y167091
X45500Y174591
X47000Y176091
X51686Y172426
X54000Y171809
X55500Y179591
X55700Y182891
X56310Y184900
X53000Y184091
X52000Y180091
X51000Y187591
X48833Y189257
X47000Y187591
X45000Y189091
X41000Y184591
X59500Y193000
X55000Y200091
X53000Y201091
X64500Y213950
X74000Y220500
Y227500
X70000Y232000
X66000
X62000
X57500
X53000
X48500
X44000
X40000
Y224000
X44000
X40000Y95000
X34000Y106591
Y110091
X37000Y121591
X29500Y125500
X29475Y128615
X21500Y130741
X18800
X22000Y133000
X11500Y133500
X13350Y141500
X15150Y144091
X16650Y142606
X27000Y142091
X29000Y144091
X31000Y146091
X29538Y139962
X30000Y158591
X33500Y158091
X32850Y168091
X30500Y170591
X30000Y176091
X28515Y177576
X24500Y180500
X32500Y184000
X30000Y190000
X27500Y191500
X31000Y201000
X36500Y201394
X28000Y208500
X28500Y212750
X30500Y224000
X26500
X22000
X18000
X13500
X9000Y227091
X11500Y232000
X6000
X0
X-5000Y230500
X-8000Y228000
X-9500Y224000
Y219000
X4000Y208500
X11500Y209000
X17500
X19500Y196500
X14745Y188356
X10850Y188500
X12500Y190500
X10500Y178091
X8500Y174591
X7000Y171591
Y157500
X2874Y161000
X-5000Y169000
X-8000Y152500
Y148500
Y144000
Y140000
X-6000Y135000
X-7000Y128591
X-3000Y119500
X1500Y121000
X6500Y114500
X3000Y111000
X10000
X12000Y119591
X23500Y119000
X6000Y101500
Y96000
X-500
X0Y101000
X-6500Y111091
X500Y84000
X6000
X9000Y148500
X20400Y156091
X22500
X39000Y168091
X35500Y224000
Y232000
X31500
X27500
X23000
X18000
X6000Y201091
X-6000Y190500
T02
X35000Y66500
X37500
Y69000
Y71500
X35000
Y69000
X40000
Y71500
X42500
X45000
Y69000
X42500
Y66500
X40000
X45000
X127395Y47588
X81000Y92500
T03
X28491Y10039
X32095
X35491
X24500Y49000
Y52000
Y55000
T05
X21622Y10449
X44378
T06
X153500Y34500
Y44500
Y54500
Y64500
Y74500
X163500
X173500
Y64500
Y54500
Y44500
Y34500
X163500
Y44500
Y54500
Y64500
Y84500
X173500
Y94500
X163500
X153500
Y84500
X163000Y152091
Y162091
Y172091
Y182091
Y192091
Y202091
X138000
Y192091
Y182091
Y172091
Y162091
Y152091
X113000
Y162091
Y172091
Y182091
Y192091
Y202091
X113500Y218091
X103500
X93500
X83500
Y228091
X93500
X103500
X113500
X123500
X133500
X143500
X153500
Y218091
X143500
X133500
X123500
X88000Y202091
Y192091
Y182091
Y172091
Y162091
Y152091
X53500Y210591
X43500
X33500
X23500
X-1500Y204091
Y194091
Y184091
Y174091
T07
X128000Y-909
X148000
T08
X66492Y-409
X84996
X103500
T09
X0Y0
X167220
Y223091
X0
M30
