G04*
G04 #@! TF.GenerationSoftware,Altium Limited,Altium Designer,21.0.8 (223)*
G04*
G04 Layer_Color=255*
%FSLAX25Y25*%
%MOIN*%
G70*
G04*
G04 #@! TF.SameCoordinates,D9C85E8D-87DC-48F8-A205-D673694C3913*
G04*
G04*
G04 #@! TF.FilePolarity,Positive*
G04*
G01*
G75*
%ADD104C,0.06299*%
%ADD105R,0.06299X0.06299*%
%ADD106C,0.09055*%
%ADD107R,0.09055X0.09055*%
%ADD108C,0.06693*%
%ADD109R,0.06693X0.06693*%
%ADD110O,0.03937X0.08268*%
%ADD111O,0.03937X0.06299*%
%ADD112C,0.02559*%
%ADD113C,0.09843*%
%ADD114R,0.06693X0.06693*%
D104*
X83500Y218091D02*
D03*
X93500D02*
D03*
X103500D02*
D03*
X143500Y228091D02*
D03*
Y218091D02*
D03*
X133500D02*
D03*
Y228091D02*
D03*
X123500D02*
D03*
Y218091D02*
D03*
X83500Y228091D02*
D03*
X93500D02*
D03*
X103500D02*
D03*
X113500D02*
D03*
Y218091D02*
D03*
X153500D02*
D03*
D105*
Y228091D02*
D03*
D106*
X148000Y-909D02*
D03*
D107*
X128000D02*
D03*
D108*
X173500Y94500D02*
D03*
Y44500D02*
D03*
Y54500D02*
D03*
Y64500D02*
D03*
Y74500D02*
D03*
Y84500D02*
D03*
X153500Y94500D02*
D03*
Y44500D02*
D03*
Y54500D02*
D03*
Y64500D02*
D03*
Y74500D02*
D03*
Y84500D02*
D03*
X163500Y94500D02*
D03*
Y44500D02*
D03*
Y54500D02*
D03*
Y64500D02*
D03*
Y74500D02*
D03*
Y84500D02*
D03*
X-1500Y194091D02*
D03*
Y184091D02*
D03*
Y174091D02*
D03*
X23500Y210591D02*
D03*
X33500D02*
D03*
X43500D02*
D03*
X163000Y202091D02*
D03*
Y162091D02*
D03*
Y172091D02*
D03*
Y182091D02*
D03*
Y192091D02*
D03*
X138000Y202091D02*
D03*
Y162091D02*
D03*
Y172091D02*
D03*
Y182091D02*
D03*
Y192091D02*
D03*
X113000Y202091D02*
D03*
Y162091D02*
D03*
Y172091D02*
D03*
Y182091D02*
D03*
Y192091D02*
D03*
X88000Y202091D02*
D03*
Y162091D02*
D03*
Y172091D02*
D03*
Y182091D02*
D03*
Y192091D02*
D03*
D109*
X173500Y34500D02*
D03*
X153500D02*
D03*
X163500D02*
D03*
X-1500Y204091D02*
D03*
D110*
X15972Y12417D02*
D03*
X50027D02*
D03*
D111*
X15972Y-3331D02*
D03*
X50027D02*
D03*
D112*
X44378Y10449D02*
D03*
X21622D02*
D03*
D113*
X84996Y-409D02*
D03*
X66492D02*
D03*
X103500D02*
D03*
D114*
X53500Y210591D02*
D03*
X163000Y152091D02*
D03*
X138000D02*
D03*
X113000D02*
D03*
X88000D02*
D03*
M02*
