G04*
G04 #@! TF.GenerationSoftware,Altium Limited,Altium Designer,21.0.8 (223)*
G04*
G04 Layer_Physical_Order=1*
G04 Layer_Color=255*
%FSLAX25Y25*%
%MOIN*%
G70*
G04*
G04 #@! TF.SameCoordinates,D9C85E8D-87DC-48F8-A205-D673694C3913*
G04*
G04*
G04 #@! TF.FilePolarity,Positive*
G04*
G01*
G75*
%ADD12C,0.01000*%
%ADD16C,0.00700*%
%ADD22R,0.01968X0.01575*%
%ADD23R,0.02362X0.05118*%
G04:AMPARAMS|DCode=24|XSize=39.37mil|YSize=31.5mil|CornerRadius=0mil|HoleSize=0mil|Usage=FLASHONLY|Rotation=90.000|XOffset=0mil|YOffset=0mil|HoleType=Round|Shape=Octagon|*
%AMOCTAGOND24*
4,1,8,0.00787,0.01968,-0.00787,0.01968,-0.01575,0.01181,-0.01575,-0.01181,-0.00787,-0.01968,0.00787,-0.01968,0.01575,-0.01181,0.01575,0.01181,0.00787,0.01968,0.0*
%
%ADD24OCTAGOND24*%

%ADD25R,0.03150X0.03937*%
%ADD26R,0.03500X0.03500*%
%ADD27R,0.01575X0.01968*%
%ADD28R,0.03000X0.03000*%
%ADD29R,0.03000X0.03000*%
%ADD30R,0.05500X0.06200*%
%ADD31R,0.11811X0.13780*%
%ADD32R,0.08661X0.06890*%
%ADD33R,0.03500X0.05000*%
%ADD34R,0.01800X0.03950*%
%ADD35R,0.05000X0.03500*%
%ADD36R,0.02362X0.01181*%
%ADD37R,0.02362X0.01575*%
%ADD38R,0.12598X0.08268*%
%ADD39R,0.03543X0.08268*%
G04:AMPARAMS|DCode=40|XSize=59.06mil|YSize=11.81mil|CornerRadius=2.95mil|HoleSize=0mil|Usage=FLASHONLY|Rotation=90.000|XOffset=0mil|YOffset=0mil|HoleType=Round|Shape=RoundedRectangle|*
%AMROUNDEDRECTD40*
21,1,0.05906,0.00591,0,0,90.0*
21,1,0.05315,0.01181,0,0,90.0*
1,1,0.00591,0.00295,0.02657*
1,1,0.00591,0.00295,-0.02657*
1,1,0.00591,-0.00295,-0.02657*
1,1,0.00591,-0.00295,0.02657*
%
%ADD40ROUNDEDRECTD40*%
%ADD41R,0.11024X0.10630*%
G04:AMPARAMS|DCode=42|XSize=12mil|YSize=38mil|CornerRadius=3mil|HoleSize=0mil|Usage=FLASHONLY|Rotation=270.000|XOffset=0mil|YOffset=0mil|HoleType=Round|Shape=RoundedRectangle|*
%AMROUNDEDRECTD42*
21,1,0.01200,0.03200,0,0,270.0*
21,1,0.00600,0.03800,0,0,270.0*
1,1,0.00600,-0.01600,-0.00300*
1,1,0.00600,-0.01600,0.00300*
1,1,0.00600,0.01600,0.00300*
1,1,0.00600,0.01600,-0.00300*
%
%ADD42ROUNDEDRECTD42*%
G04:AMPARAMS|DCode=43|XSize=12mil|YSize=38mil|CornerRadius=3mil|HoleSize=0mil|Usage=FLASHONLY|Rotation=0.000|XOffset=0mil|YOffset=0mil|HoleType=Round|Shape=RoundedRectangle|*
%AMROUNDEDRECTD43*
21,1,0.01200,0.03200,0,0,0.0*
21,1,0.00600,0.03800,0,0,0.0*
1,1,0.00600,0.00300,-0.01600*
1,1,0.00600,-0.00300,-0.01600*
1,1,0.00600,-0.00300,0.01600*
1,1,0.00600,0.00300,0.01600*
%
%ADD43ROUNDEDRECTD43*%
G04:AMPARAMS|DCode=44|XSize=20mil|YSize=20mil|CornerRadius=5mil|HoleSize=0mil|Usage=FLASHONLY|Rotation=90.000|XOffset=0mil|YOffset=0mil|HoleType=Round|Shape=RoundedRectangle|*
%AMROUNDEDRECTD44*
21,1,0.02000,0.01000,0,0,90.0*
21,1,0.01000,0.02000,0,0,90.0*
1,1,0.01000,0.00500,0.00500*
1,1,0.01000,0.00500,-0.00500*
1,1,0.01000,-0.00500,-0.00500*
1,1,0.01000,-0.00500,0.00500*
%
%ADD44ROUNDEDRECTD44*%
%ADD45O,0.00984X0.02756*%
%ADD46O,0.02756X0.00984*%
%ADD47R,0.10630X0.11024*%
%ADD48R,0.03937X0.02756*%
G04:AMPARAMS|DCode=49|XSize=39.37mil|YSize=31.5mil|CornerRadius=0mil|HoleSize=0mil|Usage=FLASHONLY|Rotation=0.000|XOffset=0mil|YOffset=0mil|HoleType=Round|Shape=Octagon|*
%AMOCTAGOND49*
4,1,8,0.01968,-0.00787,0.01968,0.00787,0.01181,0.01575,-0.01181,0.01575,-0.01968,0.00787,-0.01968,-0.00787,-0.01181,-0.01575,0.01181,-0.01575,0.01968,-0.00787,0.0*
%
%ADD49OCTAGOND49*%

%ADD50R,0.03937X0.03150*%
%ADD51R,0.05118X0.04724*%
%ADD52O,0.07480X0.01575*%
%ADD53R,0.07480X0.01575*%
%ADD54O,0.07087X0.01181*%
%ADD55O,0.01181X0.07087*%
%ADD101C,0.03000*%
%ADD102C,0.05000*%
%ADD103C,0.04000*%
%ADD104C,0.06299*%
%ADD105R,0.06299X0.06299*%
%ADD106C,0.09055*%
%ADD107R,0.09055X0.09055*%
%ADD108C,0.06693*%
%ADD109R,0.06693X0.06693*%
%ADD110O,0.03937X0.08268*%
%ADD111O,0.03937X0.06299*%
%ADD112C,0.02559*%
%ADD113C,0.09843*%
%ADD114R,0.06693X0.06693*%
%ADD115C,0.01600*%
%ADD116C,0.02100*%
%ADD117C,0.02000*%
G36*
X167220Y235065D02*
Y235065D01*
X167710Y235039D01*
X169096Y234930D01*
X170925Y234491D01*
X172662Y233771D01*
X174266Y232788D01*
X175697Y231567D01*
X176918Y230136D01*
X177901Y228533D01*
X178621Y226795D01*
X179060Y224966D01*
X179203Y223152D01*
X179194Y223091D01*
Y116730D01*
X178694Y116523D01*
X176684Y118533D01*
X176023Y118975D01*
X175243Y119130D01*
X173845D01*
X173041Y119933D01*
Y125748D01*
X173942Y126649D01*
X174384Y127310D01*
X174539Y128091D01*
Y132756D01*
Y136890D01*
Y152591D01*
X174384Y153371D01*
X173942Y154033D01*
X166750Y161224D01*
X166847Y161584D01*
Y162597D01*
X166584Y163575D01*
X166078Y164452D01*
X165362Y165168D01*
X164485Y165675D01*
X163506Y165937D01*
X162494D01*
X161515Y165675D01*
X160638Y165168D01*
X159922Y164452D01*
X159416Y163575D01*
X159153Y162597D01*
Y161584D01*
X159416Y160606D01*
X159922Y159729D01*
X160638Y159013D01*
X161515Y158506D01*
X162494Y158244D01*
X163506D01*
X163866Y158341D01*
X165808Y156399D01*
X165616Y155937D01*
X159153D01*
Y151849D01*
X154374Y147069D01*
X153913Y147315D01*
X154049Y148000D01*
Y197035D01*
X156556Y199542D01*
X160109D01*
X160638Y199013D01*
X161515Y198506D01*
X162494Y198244D01*
X163506D01*
X164485Y198506D01*
X165362Y199013D01*
X166078Y199729D01*
X166584Y200606D01*
X166847Y201584D01*
Y202597D01*
X166584Y203575D01*
X166078Y204452D01*
X165362Y205169D01*
X164485Y205675D01*
X163506Y205937D01*
X162494D01*
X161515Y205675D01*
X160638Y205169D01*
X160109Y204640D01*
X155500D01*
X154525Y204446D01*
X153698Y203893D01*
X149698Y199893D01*
X149145Y199066D01*
X148951Y198091D01*
Y149056D01*
X139698Y139802D01*
X139145Y138976D01*
X138951Y138000D01*
Y122662D01*
X138058Y121769D01*
X137861Y121830D01*
X137590Y122008D01*
X137491Y126059D01*
X137410Y126242D01*
X137334Y126427D01*
X137326Y126430D01*
X137323Y126438D01*
X137136Y126510D01*
X136952Y126587D01*
X129286Y126624D01*
X129279Y126635D01*
X129038Y126796D01*
X128878Y126955D01*
X128768Y127121D01*
X128709Y127160D01*
X128679Y127224D01*
X128024Y127810D01*
X127549Y128285D01*
Y130700D01*
X128049Y131008D01*
X128168Y130959D01*
X136000D01*
X136383Y131117D01*
X136541Y131500D01*
Y131928D01*
X136599Y132013D01*
X136698Y132516D01*
X136599Y133018D01*
X136541Y133104D01*
Y133787D01*
X136673D01*
Y136362D01*
X136391D01*
X136383Y136383D01*
X136237Y136443D01*
X136106Y136531D01*
X133942Y136963D01*
X133242Y139764D01*
Y147345D01*
X134092Y148195D01*
X136653D01*
X136900Y148244D01*
X141847D01*
Y155937D01*
X134153D01*
Y153293D01*
X133036D01*
X132061Y153099D01*
X131234Y152547D01*
X128890Y150203D01*
X128338Y149376D01*
X128144Y148401D01*
Y141198D01*
X128049Y141114D01*
X127549Y141341D01*
Y157535D01*
X131302Y161288D01*
X131855Y162115D01*
X132049Y163091D01*
Y198692D01*
X132899Y199542D01*
X135109D01*
X135638Y199013D01*
X136515Y198506D01*
X137494Y198244D01*
X138506D01*
X139485Y198506D01*
X140362Y199013D01*
X141078Y199729D01*
X141584Y200606D01*
X141847Y201584D01*
Y202597D01*
X141584Y203575D01*
X141078Y204452D01*
X140362Y205169D01*
X139485Y205675D01*
X138506Y205937D01*
X137494D01*
X136515Y205675D01*
X135638Y205169D01*
X135109Y204640D01*
X131843D01*
X130868Y204446D01*
X130041Y203893D01*
X127698Y201550D01*
X127145Y200723D01*
X126951Y199747D01*
Y164146D01*
X123198Y160393D01*
X122645Y159566D01*
X122451Y158591D01*
Y127229D01*
X122645Y126253D01*
X123198Y125426D01*
X126316Y122308D01*
X126428Y122233D01*
X126513Y122130D01*
X127564Y121279D01*
X127947Y121077D01*
X127973Y120577D01*
X127698Y120393D01*
X127145Y119566D01*
X126951Y118591D01*
X127145Y117615D01*
X127698Y116788D01*
X128524Y116236D01*
X128559Y116229D01*
X128978Y115949D01*
X129480Y115849D01*
X135386D01*
X135888Y115949D01*
X136314Y116233D01*
X136454Y116443D01*
X138886D01*
X139862Y116637D01*
X140688Y117190D01*
X142792Y119294D01*
X143305Y119100D01*
X143345Y118783D01*
X135359Y110797D01*
X129480D01*
X128978Y110697D01*
X128635Y110467D01*
X128524Y110446D01*
X127698Y109893D01*
X127145Y109066D01*
X126951Y108091D01*
X127145Y107115D01*
X127698Y106288D01*
X128524Y105736D01*
X129500Y105542D01*
X132433D01*
X132670Y105589D01*
X136305D01*
X137280Y105783D01*
X138107Y106335D01*
X147474Y115702D01*
X147974Y115495D01*
Y113773D01*
X147360Y113159D01*
X147360Y113159D01*
X137318Y103116D01*
X118003D01*
X117467Y103653D01*
Y105000D01*
X117364Y105784D01*
X117062Y106513D01*
X117041Y106540D01*
X117041Y112591D01*
X116883Y112973D01*
X116500Y113132D01*
X112500D01*
X112418Y113098D01*
X112329Y113104D01*
X112234Y113022D01*
X112117Y112973D01*
X112083Y112891D01*
X112016Y112833D01*
X111721Y112243D01*
X111197Y112314D01*
X111165Y112475D01*
X110881Y112901D01*
X110805Y112951D01*
Y113553D01*
X110881Y113603D01*
X111165Y114029D01*
X111265Y114531D01*
X111165Y115034D01*
X110881Y115460D01*
X110805Y115510D01*
Y116112D01*
X110881Y116162D01*
X111165Y116588D01*
X111265Y117091D01*
X111165Y117593D01*
X110881Y118019D01*
X110455Y118303D01*
X109953Y118403D01*
X104047D01*
X103545Y118303D01*
X103119Y118019D01*
X103078Y117957D01*
X101972D01*
X101736Y118193D01*
X101259Y118391D01*
X100741D01*
X100264Y118193D01*
X100026Y117955D01*
X99526Y118136D01*
Y126281D01*
X100026Y126462D01*
X100264Y126225D01*
X100741Y126027D01*
X101259D01*
X101736Y126225D01*
X101972Y126460D01*
X102486D01*
X102617Y125973D01*
X102459Y125591D01*
Y121091D01*
X102617Y120708D01*
X103000Y120549D01*
X111900D01*
X115719Y119085D01*
X115820Y119088D01*
X115912Y119049D01*
X118500D01*
X118883Y119208D01*
X119041Y119591D01*
Y123429D01*
X119379Y123767D01*
X119821Y124428D01*
X119976Y125209D01*
Y130591D01*
Y132756D01*
Y136740D01*
X120442Y137205D01*
X120884Y137867D01*
X121039Y138647D01*
Y155687D01*
X120884Y156467D01*
X120442Y157129D01*
X116665Y160906D01*
X116847Y161584D01*
Y162597D01*
X116584Y163575D01*
X116078Y164452D01*
X115362Y165168D01*
X114485Y165675D01*
X113506Y165937D01*
X112494D01*
X111515Y165675D01*
X110638Y165168D01*
X109922Y164452D01*
X109416Y163575D01*
X109153Y162597D01*
Y161584D01*
X109416Y160606D01*
X109922Y159729D01*
X110638Y159013D01*
X111515Y158506D01*
X112494Y158244D01*
X113506D01*
X113548Y158255D01*
X115404Y156399D01*
X115213Y155937D01*
X109153D01*
Y153540D01*
X106854D01*
X105879Y153346D01*
X105052Y152793D01*
X103549Y151290D01*
X103049Y151497D01*
Y198692D01*
X103899Y199542D01*
X110109D01*
X110638Y199013D01*
X111515Y198506D01*
X112494Y198244D01*
X113506D01*
X114485Y198506D01*
X115362Y199013D01*
X116078Y199729D01*
X116584Y200606D01*
X116847Y201584D01*
Y202597D01*
X116584Y203575D01*
X116078Y204452D01*
X115362Y205169D01*
X114746Y205524D01*
X114880Y206024D01*
X125891D01*
X126223Y206090D01*
X126504Y206278D01*
X130459Y210233D01*
X144100D01*
X144432Y210299D01*
X144713Y210487D01*
X148741Y214515D01*
X148929Y214797D01*
X148995Y215128D01*
Y222360D01*
X151076Y224441D01*
X156633D01*
Y222449D01*
X155395Y221211D01*
X154909Y221491D01*
X153981Y221740D01*
X153019D01*
X152091Y221491D01*
X151259Y221011D01*
X150580Y220332D01*
X150099Y219499D01*
X149850Y218571D01*
Y217610D01*
X150099Y216682D01*
X150580Y215850D01*
X151259Y215170D01*
X152091Y214690D01*
X153019Y214441D01*
X153981D01*
X154909Y214690D01*
X155741Y215170D01*
X156420Y215850D01*
X156901Y216682D01*
X157150Y217610D01*
Y218571D01*
X156901Y219499D01*
X156620Y219985D01*
X158112Y221477D01*
X158300Y221759D01*
X158366Y222090D01*
Y231592D01*
X158300Y231924D01*
X158112Y232205D01*
X156205Y234113D01*
X155923Y234301D01*
X155592Y234367D01*
X79410D01*
X79078Y234301D01*
X78797Y234113D01*
X76201Y231517D01*
X72650D01*
X72318Y231451D01*
X72037Y231263D01*
X69387Y228613D01*
X69199Y228332D01*
X69133Y228000D01*
Y226367D01*
X52475D01*
X52143Y226301D01*
X51862Y226113D01*
X41149Y215400D01*
X41149Y215400D01*
X38691Y212942D01*
X38503Y212661D01*
X38437Y212329D01*
Y207162D01*
X32751Y201477D01*
X32161Y201594D01*
X32102Y201736D01*
X31867Y201972D01*
Y206170D01*
X32558Y206861D01*
X32994Y206744D01*
X34006D01*
X34985Y207006D01*
X35862Y207513D01*
X36578Y208229D01*
X37084Y209106D01*
X37346Y210084D01*
Y211097D01*
X37084Y212075D01*
X36578Y212952D01*
X35862Y213668D01*
X34985Y214175D01*
X34006Y214437D01*
X32994D01*
X32015Y214175D01*
X31138Y213668D01*
X30422Y212952D01*
X29916Y212075D01*
X29654Y211097D01*
Y210084D01*
X29916Y209106D01*
X30422Y208229D01*
X30948Y207703D01*
X30387Y207141D01*
X30199Y206860D01*
X30133Y206529D01*
Y201972D01*
X29898Y201736D01*
X29700Y201259D01*
Y200741D01*
X29898Y200264D01*
X30264Y199898D01*
X30393Y199375D01*
X30197Y199159D01*
X30129Y199129D01*
X29818Y199184D01*
X29599Y199330D01*
X29173Y199415D01*
X28748Y199330D01*
X28387Y199089D01*
X28146Y198729D01*
X28061Y198303D01*
Y192398D01*
X28146Y191972D01*
X28387Y191611D01*
X28399Y191604D01*
Y190978D01*
X28465Y190647D01*
X28652Y190366D01*
X28717Y190301D01*
X28700Y190259D01*
Y189741D01*
X28710Y189717D01*
X28376Y189217D01*
X27606D01*
X26222Y190600D01*
X26339Y191190D01*
X26383Y191208D01*
X26541Y191591D01*
Y201704D01*
X26613Y201810D01*
X26768Y202591D01*
X26613Y203371D01*
X26541Y203478D01*
Y204091D01*
X26383Y204473D01*
X26000Y204632D01*
X24000D01*
X23996Y204630D01*
X11460D01*
X10680Y204475D01*
X10018Y204033D01*
X7693Y201707D01*
X7103Y201825D01*
X7102Y201827D01*
X6867Y202062D01*
Y212232D01*
X9613Y214978D01*
X9801Y215259D01*
X9867Y215591D01*
Y226119D01*
X10102Y226354D01*
X10300Y226832D01*
Y227349D01*
X10102Y227827D01*
X9736Y228193D01*
X9259Y228391D01*
X8741D01*
X8264Y228193D01*
X7898Y227827D01*
X7700Y227349D01*
Y226832D01*
X7898Y226354D01*
X8133Y226119D01*
Y215950D01*
X5387Y213203D01*
X5199Y212922D01*
X5133Y212591D01*
Y202062D01*
X4898Y201827D01*
X4700Y201349D01*
Y200832D01*
X4898Y200354D01*
X5264Y199988D01*
X5266Y199987D01*
X5383Y199398D01*
X2687Y196701D01*
X2245Y196040D01*
X2089Y195259D01*
Y186566D01*
X1589Y186433D01*
X1578Y186452D01*
X862Y187169D01*
X-15Y187675D01*
X-994Y187937D01*
X-2006D01*
X-2985Y187675D01*
X-3862Y187169D01*
X-4578Y186452D01*
X-5084Y185575D01*
X-5347Y184597D01*
Y183584D01*
X-5084Y182606D01*
X-4578Y181729D01*
X-3862Y181013D01*
X-2985Y180506D01*
X-2006Y180244D01*
X-994D01*
X-15Y180506D01*
X862Y181013D01*
X1578Y181729D01*
X1589Y181749D01*
X2089Y181615D01*
Y176567D01*
X1589Y176433D01*
X1578Y176452D01*
X862Y177169D01*
X-15Y177675D01*
X-994Y177937D01*
X-2006D01*
X-2985Y177675D01*
X-3862Y177169D01*
X-4578Y176452D01*
X-5084Y175575D01*
X-5347Y174597D01*
Y173584D01*
X-5084Y172606D01*
X-4578Y171729D01*
X-3862Y171013D01*
X-2985Y170506D01*
X-2006Y170244D01*
X-1376D01*
X-1169Y169744D01*
X-4033Y166881D01*
X-4475Y166219D01*
X-4630Y165439D01*
Y151091D01*
Y145591D01*
Y140091D01*
Y138837D01*
X-4630Y138837D01*
X-4630Y138837D01*
X-4558Y138479D01*
X-4475Y138057D01*
X-4474Y138057D01*
X-4474Y138057D01*
X-4267Y137746D01*
X-4033Y137395D01*
X-4033Y137395D01*
X-4032Y137395D01*
X-2286Y135649D01*
X-1957Y135429D01*
X-1624Y135207D01*
X-1624Y135207D01*
X-1624Y135207D01*
X-1251Y135132D01*
X-844Y135051D01*
X-516D01*
Y132106D01*
X2059D01*
Y132724D01*
X4039D01*
Y132106D01*
X4460D01*
Y129780D01*
X4526Y129448D01*
X4714Y129167D01*
X8820Y125061D01*
X8629Y124599D01*
X-2496D01*
Y125610D01*
X-7283D01*
Y126838D01*
X-6831Y127291D01*
X-6741D01*
X-6264Y127489D01*
X-5898Y127854D01*
X-5700Y128332D01*
Y128849D01*
X-5898Y129327D01*
X-6264Y129693D01*
X-6741Y129891D01*
X-7259D01*
X-7736Y129693D01*
X-8102Y129327D01*
X-8300Y128849D01*
Y128332D01*
X-8283Y128290D01*
X-8763Y127810D01*
X-8951Y127529D01*
X-9017Y127197D01*
Y90233D01*
X-8951Y89901D01*
X-8763Y89620D01*
X-8353Y89210D01*
X-8072Y89022D01*
X-7740Y88956D01*
X-7433D01*
Y87945D01*
X-2496D01*
Y88956D01*
X9496D01*
Y87945D01*
X14433D01*
Y91701D01*
X9496D01*
Y90690D01*
X-2496D01*
Y91701D01*
X-7283D01*
Y104945D01*
X-2496D01*
Y105956D01*
X9496D01*
Y104945D01*
X14344D01*
X14558Y104624D01*
X19116Y100066D01*
X18590Y99540D01*
X18148Y98879D01*
X17992Y98098D01*
Y91013D01*
X17961Y90853D01*
Y74500D01*
X18116Y73720D01*
X18558Y73058D01*
X24058Y67558D01*
X24058Y67558D01*
X24720Y67116D01*
X25500Y66961D01*
X33201D01*
Y64087D01*
X37961D01*
Y50913D01*
X37728D01*
Y41646D01*
X38006D01*
Y38098D01*
X34046D01*
X33849Y38059D01*
X33697D01*
X33500Y38098D01*
X33303Y38059D01*
X31500D01*
Y38039D01*
X20998D01*
X20217Y37884D01*
X19556Y37442D01*
X19539Y37425D01*
X17559D01*
Y35327D01*
X17356Y35023D01*
X17201Y34243D01*
Y28275D01*
X16638Y27713D01*
X13678D01*
X13471Y28212D01*
X15604Y30345D01*
X15751Y30565D01*
X16113Y30927D01*
X16301Y31208D01*
X16367Y31540D01*
Y39575D01*
X17181D01*
Y45693D01*
X13819D01*
Y39575D01*
X14633D01*
Y38368D01*
X14133Y38160D01*
X12367Y39927D01*
Y43591D01*
X12301Y43922D01*
X12113Y44203D01*
X9203Y47113D01*
X8922Y47301D01*
X8591Y47367D01*
X6295D01*
X6087Y47867D01*
X8063Y49842D01*
X8246Y50116D01*
X8269D01*
X8581Y50178D01*
X8953Y50315D01*
X9325Y50178D01*
X9637Y50116D01*
X10237D01*
X10549Y50178D01*
X10814Y50354D01*
X10909Y50372D01*
X11192Y50176D01*
X11347Y50142D01*
X11491Y50079D01*
X13059Y50052D01*
X13218Y50115D01*
X13384Y50154D01*
X13406Y50189D01*
X13445Y50204D01*
X13513Y50361D01*
X13603Y50506D01*
X13976Y52785D01*
X14321Y53008D01*
X22699D01*
X23033Y52508D01*
X22950Y52308D01*
Y51692D01*
X23186Y51122D01*
X23502Y50806D01*
X23577Y50500D01*
X23502Y50194D01*
X23186Y49878D01*
X22950Y49308D01*
Y48692D01*
X23186Y48122D01*
X23622Y47686D01*
X24192Y47450D01*
X24808D01*
X25378Y47686D01*
X25814Y48122D01*
X26050Y48692D01*
Y49308D01*
X25814Y49878D01*
X25498Y50194D01*
X25423Y50500D01*
X25498Y50806D01*
X25814Y51122D01*
X26050Y51692D01*
Y52308D01*
X25967Y52508D01*
X25972Y52587D01*
X26238Y53107D01*
X26383Y53167D01*
X26541Y53549D01*
Y56590D01*
X26383Y56973D01*
X26000Y57132D01*
X22985D01*
Y59642D01*
X20016D01*
Y58611D01*
X17778D01*
X17504Y59100D01*
X17506Y59111D01*
X17566Y59413D01*
Y60013D01*
X17504Y60325D01*
X17327Y60589D01*
Y60804D01*
X17504Y61069D01*
X17566Y61381D01*
Y61981D01*
X17504Y62293D01*
X17366Y62665D01*
X17504Y63038D01*
X17566Y63350D01*
Y63950D01*
X17504Y64262D01*
X17327Y64526D01*
Y64741D01*
X17504Y65006D01*
X17566Y65318D01*
Y65918D01*
X17504Y66230D01*
X17366Y66602D01*
X17504Y66975D01*
X17566Y67287D01*
Y67887D01*
X17504Y68199D01*
X17327Y68463D01*
X17062Y68640D01*
X16750Y68702D01*
X13550D01*
X13380Y68669D01*
X13268Y68735D01*
X13054Y68949D01*
X12988Y69061D01*
X13021Y69231D01*
Y72431D01*
X12959Y72743D01*
X12782Y73008D01*
X12518Y73185D01*
X12206Y73247D01*
X11606D01*
X11293Y73185D01*
X11029Y73008D01*
X10814D01*
X10549Y73185D01*
X10237Y73247D01*
X9637D01*
X9325Y73185D01*
X8953Y73048D01*
X8581Y73185D01*
X8269Y73247D01*
X7669D01*
X7356Y73185D01*
X7092Y73008D01*
X6877D01*
X6612Y73185D01*
X6300Y73247D01*
X5700D01*
X5388Y73185D01*
X5016Y73048D01*
X4644Y73185D01*
X4332Y73247D01*
X3732D01*
X3419Y73185D01*
X3155Y73008D01*
X2940D01*
X2675Y73185D01*
X2363Y73247D01*
X1763D01*
X1451Y73185D01*
X1079Y73048D01*
X707Y73185D01*
X395Y73247D01*
X-205D01*
X-518Y73185D01*
X-782Y73008D01*
X-959Y72743D01*
X-1021Y72431D01*
Y69231D01*
X-987Y69061D01*
X-1054Y68949D01*
X-1267Y68735D01*
X-1380Y68669D01*
X-1550Y68702D01*
X-4750D01*
X-5062Y68640D01*
X-5327Y68463D01*
X-5504Y68199D01*
X-5566Y67887D01*
Y67287D01*
X-5504Y66975D01*
X-5366Y66602D01*
X-5504Y66230D01*
X-5566Y65918D01*
Y65318D01*
X-5556Y65271D01*
X-5951Y64863D01*
X-5960Y64859D01*
X-6133Y64904D01*
Y70224D01*
X-4472D01*
X-4236Y69989D01*
X-3759Y69791D01*
X-3241D01*
X-2764Y69989D01*
X-2398Y70354D01*
X-2200Y70832D01*
Y71349D01*
X-2398Y71827D01*
X-2764Y72193D01*
X-3241Y72391D01*
X-3759D01*
X-4236Y72193D01*
X-4472Y71957D01*
X-6500D01*
X-6832Y71891D01*
X-7113Y71703D01*
X-7613Y71203D01*
X-7801Y70922D01*
X-7867Y70591D01*
Y64091D01*
X-7801Y63759D01*
X-7613Y63478D01*
X-7602Y63467D01*
X-7809Y62967D01*
X-7947D01*
X-8425Y62769D01*
X-8791Y62404D01*
X-8988Y61926D01*
Y61409D01*
X-8791Y60931D01*
X-8483Y60623D01*
X-8802Y60304D01*
X-9000Y59826D01*
Y59309D01*
X-8802Y58831D01*
X-8436Y58465D01*
X-7959Y58267D01*
X-7441D01*
X-6964Y58465D01*
X-6598Y58831D01*
X-6592Y58846D01*
X-5778D01*
X-5504Y58356D01*
X-5506Y58346D01*
X-5566Y58044D01*
Y57444D01*
X-5506Y57142D01*
X-5504Y57132D01*
X-5778Y56642D01*
X-6815D01*
X-7147Y56576D01*
X-7428Y56388D01*
X-8113Y55703D01*
X-8301Y55422D01*
X-8367Y55090D01*
Y54062D01*
X-8602Y53827D01*
X-8800Y53349D01*
Y52832D01*
X-8602Y52354D01*
X-8236Y51989D01*
X-7759Y51790D01*
X-7241D01*
X-6764Y51989D01*
X-6398Y52354D01*
X-6200Y52832D01*
Y53349D01*
X-6398Y53827D01*
X-6633Y54062D01*
Y54732D01*
X-6456Y54909D01*
X-5333D01*
X-5327Y54899D01*
X-5062Y54722D01*
X-4750Y54660D01*
X-1550D01*
X-1380Y54694D01*
X-1268Y54627D01*
X-1054Y54413D01*
X-987Y54301D01*
X-1021Y54131D01*
Y50931D01*
X-959Y50619D01*
X-924Y50567D01*
X-1183Y50067D01*
X-7587D01*
X-7919Y50001D01*
X-8200Y49813D01*
X-10813Y47200D01*
X-11001Y46919D01*
X-11067Y46587D01*
Y12913D01*
X-11001Y12581D01*
X-10813Y12300D01*
X-8200Y9687D01*
X-7919Y9499D01*
X-7587Y9433D01*
X11887D01*
X12219Y9499D01*
X12500Y9687D01*
X13613Y10800D01*
X13801Y11081D01*
X13867Y11413D01*
Y16531D01*
X14269Y16933D01*
X14630D01*
X14962Y16999D01*
X15243Y17187D01*
X19489Y21433D01*
X26376D01*
X26710Y20933D01*
X26700Y20909D01*
Y20431D01*
X26680Y20364D01*
X26572Y20213D01*
X26329Y19980D01*
X25815D01*
X25505Y19918D01*
X25497Y19914D01*
X25387Y19875D01*
X24883Y19973D01*
X24500Y20132D01*
X22500D01*
X22117Y19973D01*
X21959Y19590D01*
Y19543D01*
X21916Y19480D01*
X21855Y19169D01*
Y13854D01*
X21916Y13544D01*
X22012Y13400D01*
X22016Y13349D01*
X22391Y12597D01*
X22028Y12207D01*
X21976Y12228D01*
X21268D01*
X20614Y11957D01*
X20113Y11457D01*
X19842Y10803D01*
Y10095D01*
X20113Y9441D01*
X20614Y8940D01*
X21268Y8669D01*
X21976D01*
X22630Y8940D01*
X23074Y9384D01*
X23358Y9363D01*
X23604Y9278D01*
X23616Y9220D01*
X23823Y8910D01*
X23987Y8419D01*
X24069Y8324D01*
X24117Y8208D01*
X24200Y8174D01*
X24258Y8106D01*
X24384Y8098D01*
X24500Y8049D01*
X25055D01*
X25500Y7961D01*
X39500D01*
X39945Y8049D01*
X41000D01*
X41082Y8083D01*
X41171Y8077D01*
X41266Y8160D01*
X41383Y8208D01*
X41417Y8290D01*
X41484Y8348D01*
X42193Y9766D01*
X42742Y9747D01*
X42869Y9441D01*
X43370Y8940D01*
X44024Y8669D01*
X44732D01*
X45386Y8940D01*
X45886Y9441D01*
X46157Y10095D01*
Y10803D01*
X45886Y11457D01*
X45386Y11957D01*
X44732Y12228D01*
X44024D01*
X43972Y12207D01*
X43609Y12597D01*
X43984Y13349D01*
X43988Y13401D01*
X44084Y13544D01*
X44145Y13854D01*
Y19169D01*
X44084Y19480D01*
X44041Y19543D01*
Y21959D01*
X45000D01*
X45383Y22117D01*
X45541Y22500D01*
Y27000D01*
X45383Y27383D01*
X45000Y27541D01*
X41500D01*
X41117Y27383D01*
X40959Y27000D01*
Y26750D01*
X40750D01*
Y22250D01*
X40959D01*
X40959Y20940D01*
X40642Y20789D01*
X40459Y20767D01*
X35113Y26113D01*
X34832Y26301D01*
X34500Y26367D01*
X29461D01*
Y27484D01*
X26886D01*
Y24516D01*
X26448Y24367D01*
X19713D01*
X19522Y24829D01*
X20682Y25989D01*
X21124Y26650D01*
X21279Y27431D01*
Y33398D01*
X21842Y33961D01*
X33442D01*
X33891Y34050D01*
X34046Y34020D01*
X40046D01*
X40243Y34059D01*
X41500D01*
Y34636D01*
X41930Y35278D01*
X42085Y36059D01*
X42085Y36060D01*
Y41646D01*
X42272D01*
Y50913D01*
X42039D01*
Y64087D01*
X46799D01*
Y73354D01*
X33201D01*
Y71039D01*
X26345D01*
X22039Y75345D01*
Y90725D01*
X22071Y90885D01*
Y96606D01*
X22192Y96719D01*
X22571Y96932D01*
X23225Y96802D01*
X57251D01*
X58031Y96957D01*
X58693Y97399D01*
X61445Y100152D01*
X61950Y100051D01*
X66743D01*
X67523Y100207D01*
X68185Y100649D01*
X69942Y102406D01*
X70384Y103068D01*
X70539Y103848D01*
Y121090D01*
X70539Y121090D01*
X70436Y121609D01*
X70384Y121871D01*
X70384Y121871D01*
X70384Y121871D01*
X69942Y122532D01*
X65942Y126532D01*
X65942Y126532D01*
X65280Y126974D01*
X65280Y126974D01*
X64853Y127059D01*
X64500Y127130D01*
X61342D01*
X61024Y127516D01*
X61039Y127591D01*
X61039Y127591D01*
Y135814D01*
X61083Y135823D01*
X62743D01*
X63523Y135978D01*
X64184Y136420D01*
X65451Y137686D01*
X65951Y137479D01*
Y128591D01*
X66145Y127615D01*
X66698Y126788D01*
X71249Y122237D01*
X72076Y121684D01*
X73051Y121490D01*
X73845D01*
X73985Y121280D01*
X74061Y121230D01*
Y120628D01*
X73985Y120578D01*
X73701Y120152D01*
X73629Y119790D01*
X73145Y119066D01*
X72951Y118091D01*
X73145Y117115D01*
X73698Y116288D01*
X74524Y115736D01*
X75500Y115542D01*
X84657D01*
X85632Y115736D01*
X86459Y116288D01*
X88451Y118280D01*
X88951Y118073D01*
Y117389D01*
X82202Y110640D01*
X81253D01*
X80819Y110726D01*
X74914D01*
X74411Y110626D01*
X73985Y110342D01*
X73701Y109916D01*
X73696Y109890D01*
X73145Y109066D01*
X72951Y108091D01*
X73145Y107115D01*
X73698Y106288D01*
X73780Y106233D01*
X73985Y105926D01*
X74411Y105642D01*
X74914Y105542D01*
X75499D01*
X75500Y105542D01*
X83258D01*
X84233Y105736D01*
X85060Y106288D01*
X92740Y113968D01*
X93188Y113885D01*
X93286Y113807D01*
X93283Y113533D01*
X83315Y103116D01*
X81500D01*
X80928Y103041D01*
X79000D01*
X78617Y102883D01*
X78578Y102788D01*
X78447Y102809D01*
X78394Y102770D01*
X78328Y102765D01*
X60950Y93903D01*
X49500D01*
X48717Y93800D01*
X47987Y93498D01*
X47360Y93017D01*
X47347Y93000D01*
X46559D01*
Y91520D01*
X46474Y90877D01*
X46559Y90234D01*
Y89000D01*
X47159D01*
X47360Y88738D01*
X47987Y88257D01*
X48717Y87954D01*
X49500Y87851D01*
X54959D01*
Y51000D01*
X55117Y50617D01*
X64959Y40776D01*
Y36009D01*
X64459Y35802D01*
X63185Y37077D01*
X62523Y37519D01*
X61743Y37674D01*
X60844D01*
X60037Y38480D01*
X57963D01*
X57521Y38039D01*
X53772D01*
X52087Y39724D01*
X52087Y51000D01*
X51928Y51383D01*
X51545Y51541D01*
X47045Y51541D01*
X46663Y51383D01*
X46504Y51000D01*
X46504Y40224D01*
X44339Y38059D01*
X43500D01*
Y34059D01*
X43959D01*
Y34000D01*
X44117Y33617D01*
X44500Y33459D01*
X54045D01*
X54428Y33617D01*
X54570Y33961D01*
X57545D01*
X57963Y33543D01*
X60037D01*
X60089Y33595D01*
X60898D01*
X61461Y33033D01*
Y27732D01*
X61075Y27457D01*
X60961Y27457D01*
X56925D01*
Y26539D01*
X52250D01*
Y26750D01*
X47750D01*
Y22250D01*
X52250D01*
Y22461D01*
X58906D01*
X59202Y22520D01*
X60961D01*
X61075Y22520D01*
X61461Y22244D01*
Y21602D01*
X60748Y20890D01*
X60720Y20884D01*
X60058Y20442D01*
X54058Y14442D01*
X53616Y13780D01*
X53461Y13000D01*
Y-8743D01*
X53616Y-9523D01*
X54058Y-10185D01*
X55348Y-11474D01*
X55141Y-11974D01*
X0D01*
X-61Y-11982D01*
X-1875Y-11839D01*
X-3704Y-11400D01*
X-5442Y-10680D01*
X-7046Y-9698D01*
X-8476Y-8476D01*
X-9698Y-7046D01*
X-10680Y-5442D01*
X-11400Y-3704D01*
X-11839Y-1875D01*
X-11982Y-61D01*
X-11974Y0D01*
Y223091D01*
X-11982Y223152D01*
X-11839Y224966D01*
X-11400Y226795D01*
X-10680Y228533D01*
X-9698Y230136D01*
X-8476Y231567D01*
X-7046Y232788D01*
X-5442Y233771D01*
X-3704Y234491D01*
X-1875Y234930D01*
X-489Y235039D01*
X0Y235065D01*
X491Y235065D01*
X166721D01*
X167220Y235065D01*
D02*
G37*
G36*
X111254Y205524D02*
X110638Y205169D01*
X110109Y204640D01*
X102843D01*
X101868Y204446D01*
X101041Y203893D01*
X98698Y201550D01*
X98145Y200723D01*
X97951Y199747D01*
Y152056D01*
X85198Y139302D01*
X84645Y138476D01*
X84451Y137500D01*
Y121490D01*
X83601Y120640D01*
X82146D01*
X81966Y120825D01*
X81747Y121280D01*
X82020Y121689D01*
X82169Y121788D01*
X82721Y122615D01*
X82915Y123591D01*
X82721Y124566D01*
X82169Y125393D01*
X81773Y125657D01*
X81747Y125696D01*
X81321Y125980D01*
X80819Y126080D01*
X80664D01*
X80366Y126140D01*
X78774D01*
X78393Y126394D01*
X77417Y126588D01*
X74107D01*
X71049Y129646D01*
Y134073D01*
X71549Y134280D01*
X73541Y132288D01*
X73646Y132218D01*
X73701Y131943D01*
X73985Y131517D01*
X74411Y131232D01*
X74914Y131132D01*
X80819D01*
X81321Y131232D01*
X81747Y131517D01*
X82032Y131943D01*
X82132Y132445D01*
X82080Y132704D01*
X82355Y133115D01*
X82549Y134091D01*
X82355Y135066D01*
X82106Y135438D01*
Y136291D01*
X81206D01*
X80976Y136446D01*
X80000Y136640D01*
X76399D01*
X75549Y137490D01*
Y146535D01*
X78556Y149542D01*
X84153D01*
Y148244D01*
X91847D01*
Y155937D01*
X84153D01*
Y154640D01*
X77500D01*
X76525Y154446D01*
X75698Y153893D01*
X71929Y150125D01*
X71387Y150289D01*
X71373Y150359D01*
X82302Y161288D01*
X82855Y162115D01*
X83049Y163091D01*
Y195504D01*
X86221Y198676D01*
X86515Y198506D01*
X87494Y198244D01*
X88506D01*
X89485Y198506D01*
X90362Y199013D01*
X91078Y199729D01*
X91584Y200606D01*
X91847Y201584D01*
Y202597D01*
X91584Y203575D01*
X91078Y204452D01*
X90362Y205169D01*
X89746Y205524D01*
X89880Y206024D01*
X111120D01*
X111254Y205524D01*
D02*
G37*
G36*
X23459Y192971D02*
X20345D01*
X17803Y195513D01*
X17522Y195701D01*
X17191Y195767D01*
X10006D01*
X9674Y195701D01*
X9393Y195513D01*
X6668Y192788D01*
X6168Y192995D01*
Y194415D01*
X12305Y200552D01*
X23459D01*
Y192971D01*
D02*
G37*
G36*
X26000Y191591D02*
X25232D01*
X24105Y192717D01*
X24000Y192787D01*
Y204091D01*
X26000D01*
Y191591D01*
D02*
G37*
G36*
X65058Y192149D02*
X65720Y191707D01*
X66500Y191551D01*
X67689D01*
Y189722D01*
X58500D01*
X58117Y189564D01*
X57959Y189181D01*
Y188822D01*
X57870Y188689D01*
X57786Y188264D01*
X57870Y187838D01*
X57968Y187692D01*
X57961Y187669D01*
X58047Y187508D01*
X58117Y187339D01*
X58143Y187329D01*
X58157Y187304D01*
X58543Y186987D01*
X58570Y186978D01*
X58586Y186955D01*
X58765Y186919D01*
X58780Y186915D01*
X58898Y186866D01*
X64750D01*
X65017Y186813D01*
X65140Y186731D01*
X65294Y186700D01*
X65440Y186640D01*
X68436D01*
X68948Y186297D01*
X69729Y186142D01*
X70509Y186297D01*
X71021Y186640D01*
X71500D01*
X71883Y186798D01*
X72041Y187181D01*
Y189181D01*
X71883Y189564D01*
X71768Y189611D01*
Y190989D01*
X72331Y191551D01*
X73698D01*
X74261Y190989D01*
Y170735D01*
X73300Y169774D01*
X72800Y169982D01*
Y170259D01*
X72602Y170736D01*
X72236Y171102D01*
X71759Y171300D01*
X71241D01*
X71141Y171258D01*
X70758Y171641D01*
X70800Y171741D01*
Y172259D01*
X70602Y172736D01*
X70236Y173102D01*
X70157Y173135D01*
X69801Y173502D01*
X69867Y173833D01*
Y174650D01*
X69801Y174982D01*
X69613Y175263D01*
X69176Y175699D01*
X69194Y175741D01*
Y176259D01*
X68996Y176736D01*
X68630Y177102D01*
X68542Y177139D01*
X68250Y177741D01*
Y178259D01*
X68052Y178736D01*
X67765Y179023D01*
X67849Y179396D01*
X67919Y179523D01*
X68539D01*
Y179016D01*
X71114D01*
Y181984D01*
X68539D01*
Y181256D01*
X65949D01*
X65713Y181756D01*
X65830Y181933D01*
X65915Y182358D01*
X65830Y182784D01*
X65589Y183144D01*
Y183541D01*
X65830Y183901D01*
X65915Y184327D01*
X65830Y184752D01*
X65589Y185113D01*
X65229Y185354D01*
X64803Y185439D01*
X58898D01*
X58472Y185354D01*
X58232Y185194D01*
X57595D01*
X57412Y185636D01*
X57046Y186002D01*
X56568Y186200D01*
X56051D01*
X55573Y186002D01*
X55208Y185636D01*
X55010Y185159D01*
Y184642D01*
X55041Y184566D01*
X55002Y184277D01*
X54800Y184148D01*
X54377Y184318D01*
X54276Y184407D01*
X54102Y184827D01*
X53736Y185193D01*
X53259Y185391D01*
X52741D01*
X52264Y185193D01*
X52028Y184957D01*
X45859D01*
X43819Y186997D01*
Y187725D01*
X44064Y187870D01*
X44319Y187965D01*
X44741Y187791D01*
X45259D01*
X45700Y187432D01*
Y187332D01*
X45898Y186854D01*
X46264Y186488D01*
X46741Y186291D01*
X47259D01*
X47736Y186488D01*
X48102Y186854D01*
X48300Y187332D01*
Y187530D01*
X48542Y187906D01*
X48762Y187957D01*
X49092D01*
X49238Y188018D01*
X49336Y187982D01*
X49700Y187668D01*
Y187332D01*
X49898Y186854D01*
X50264Y186488D01*
X50741Y186291D01*
X51259D01*
X51736Y186488D01*
X52102Y186854D01*
X52300Y187332D01*
Y187849D01*
X52102Y188327D01*
X51780Y188649D01*
Y191163D01*
X52280Y191430D01*
X52370Y191370D01*
X52795Y191286D01*
X53221Y191370D01*
X53439Y191517D01*
X53780Y191577D01*
X54119Y191517D01*
X54338Y191370D01*
X54764Y191286D01*
X55189Y191370D01*
X55550Y191611D01*
X55791Y191972D01*
X55876Y192398D01*
Y198303D01*
X55791Y198729D01*
X55736Y198988D01*
X56102Y199354D01*
X56300Y199832D01*
Y200200D01*
X56750Y200442D01*
X56762Y200445D01*
X65058Y192149D01*
D02*
G37*
G36*
X71500Y187181D02*
X65440D01*
X65229Y187322D01*
X64803Y187407D01*
X58898D01*
X58886Y187405D01*
X58500Y187722D01*
Y189181D01*
X71500D01*
Y187181D01*
D02*
G37*
G36*
X40126Y191264D02*
Y185555D01*
X39898Y185327D01*
X39700Y184849D01*
Y184332D01*
X39898Y183854D01*
X40264Y183489D01*
X40741Y183291D01*
X41259D01*
X41736Y183489D01*
X42102Y183854D01*
X42300Y184332D01*
Y184849D01*
X42102Y185327D01*
X42047Y185382D01*
X42081Y185577D01*
X42617Y185748D01*
X44887Y183478D01*
X45168Y183290D01*
X45500Y183224D01*
X51657D01*
X51740Y183107D01*
X51484Y182607D01*
X30209D01*
X28703Y184113D01*
X28422Y184301D01*
X28091Y184367D01*
X24325D01*
X22169Y186523D01*
X22130Y186721D01*
X21896Y187071D01*
X22017Y187551D01*
X22557Y187620D01*
X24991Y185187D01*
X25272Y184999D01*
X25603Y184933D01*
X32487D01*
X32818Y184999D01*
X33100Y185187D01*
X39243Y191331D01*
X39441Y191370D01*
X39625Y191493D01*
X40126Y191264D01*
D02*
G37*
G36*
X23354Y182887D02*
X23635Y182699D01*
X23966Y182633D01*
X27732D01*
X28858Y181507D01*
X28793Y181215D01*
X28667Y180991D01*
X28415Y180941D01*
X28134Y180753D01*
X24700Y177320D01*
X22248D01*
X22012Y177820D01*
X22130Y177996D01*
X22214Y178421D01*
X22130Y178847D01*
X21889Y179207D01*
Y179604D01*
X22130Y179964D01*
X22214Y180390D01*
X22130Y180815D01*
X21983Y181034D01*
X21924Y181374D01*
X21983Y181714D01*
X22130Y181933D01*
X22214Y182358D01*
X22130Y182784D01*
X21896Y183134D01*
X22017Y183614D01*
X22557Y183684D01*
X23354Y182887D01*
D02*
G37*
G36*
X55627Y171649D02*
X57752D01*
X57988Y171149D01*
X57870Y170973D01*
X57786Y170547D01*
X57870Y170122D01*
X58017Y169903D01*
X58077Y169563D01*
X58017Y169223D01*
X57870Y169004D01*
X57786Y168579D01*
X57870Y168153D01*
X58111Y167793D01*
Y167396D01*
X57870Y167036D01*
X57786Y166610D01*
X57870Y166185D01*
X58017Y165966D01*
X58077Y165626D01*
X58017Y165286D01*
X57870Y165067D01*
X57786Y164642D01*
X57870Y164216D01*
X58111Y163856D01*
X58151Y163519D01*
X58102Y163466D01*
X58086Y163421D01*
X57870Y163099D01*
X57786Y162673D01*
X57870Y162248D01*
X57968Y162101D01*
X57961Y162079D01*
X58047Y161918D01*
X58117Y161749D01*
X58143Y161738D01*
X58157Y161713D01*
X58543Y161396D01*
X58570Y161388D01*
X58586Y161364D01*
X58765Y161329D01*
X58780Y161325D01*
X58898Y161275D01*
X64750D01*
X65017Y161222D01*
X65140Y161141D01*
X65295Y161110D01*
X65440Y161049D01*
X68189D01*
Y159321D01*
X63058Y154189D01*
X62616Y153528D01*
X62461Y152747D01*
Y143455D01*
X61961Y143189D01*
X61675Y143307D01*
X61158D01*
X60680Y143109D01*
X60315Y142744D01*
X60166Y142385D01*
X59728Y142323D01*
X59645Y142335D01*
X59587Y142477D01*
X59221Y142843D01*
X58743Y143041D01*
X58226D01*
X57748Y142843D01*
X57566Y142660D01*
X53904Y146321D01*
X54188Y146745D01*
X54303Y146697D01*
X54820D01*
X55227Y146866D01*
X55398Y146454D01*
X55764Y146089D01*
X56241Y145891D01*
X56759D01*
X57236Y146089D01*
X57602Y146454D01*
X57800Y146932D01*
Y147449D01*
X57602Y147927D01*
X57367Y148162D01*
Y157732D01*
X57505Y157870D01*
X58232D01*
X58472Y157709D01*
X58898Y157624D01*
X64803D01*
X65229Y157709D01*
X65589Y157950D01*
X65830Y158311D01*
X65915Y158736D01*
X65830Y159162D01*
X65589Y159522D01*
X65229Y159764D01*
X64803Y159848D01*
X58898D01*
X58472Y159764D01*
X58232Y159603D01*
X57146D01*
X56814Y159537D01*
X56533Y159349D01*
X55887Y158703D01*
X55699Y158422D01*
X55633Y158091D01*
Y155934D01*
X55247Y155669D01*
X55133Y155641D01*
X54764Y155714D01*
X54338Y155630D01*
X54119Y155483D01*
X53780Y155423D01*
X53439Y155483D01*
X53221Y155630D01*
X52795Y155714D01*
X52370Y155630D01*
X52151Y155483D01*
X51811Y155423D01*
X51471Y155483D01*
X51252Y155630D01*
X50827Y155714D01*
X50401Y155630D01*
X50157Y155619D01*
X49804Y155973D01*
X49804Y155973D01*
X49804Y155973D01*
X49614Y156052D01*
X49422Y156132D01*
X49421Y156132D01*
X49421Y156132D01*
X48000D01*
X47617Y155973D01*
X47459Y155591D01*
Y154611D01*
X47462Y154605D01*
X47460Y154602D01*
Y148697D01*
X47462Y148695D01*
X47459Y148688D01*
Y144924D01*
X47528Y144756D01*
X47564Y144637D01*
X47455Y144487D01*
X47187Y144288D01*
X47168Y144301D01*
X46836Y144367D01*
X42534D01*
X39826Y147075D01*
X39894Y147644D01*
X40210Y147839D01*
X40340Y147816D01*
X40559Y147670D01*
X40984Y147585D01*
X41410Y147670D01*
X41629Y147816D01*
X41969Y147876D01*
X42308Y147816D01*
X42527Y147670D01*
X42953Y147585D01*
X43378Y147670D01*
X43597Y147816D01*
X43937Y147876D01*
X44277Y147816D01*
X44496Y147670D01*
X44921Y147585D01*
X45347Y147670D01*
X45707Y147911D01*
X45948Y148271D01*
X46033Y148697D01*
Y154602D01*
X45948Y155028D01*
X45788Y155268D01*
Y155884D01*
X46013Y156109D01*
X46384D01*
X46862Y156307D01*
X47227Y156673D01*
X47425Y157151D01*
Y157668D01*
X47227Y158146D01*
X46862Y158512D01*
X46384Y158710D01*
X45867D01*
X45389Y158512D01*
X45023Y158146D01*
X44825Y157668D01*
Y157373D01*
X44343Y156890D01*
X44196Y156905D01*
X43843Y157059D01*
Y159595D01*
X44102Y159854D01*
X44300Y160332D01*
Y160849D01*
X44102Y161327D01*
X43736Y161693D01*
X43259Y161891D01*
X42741D01*
X42351Y161729D01*
X42028Y161861D01*
X41851Y161987D01*
Y166103D01*
X42102Y166354D01*
X42300Y166832D01*
Y167349D01*
X42102Y167827D01*
X41736Y168193D01*
X41259Y168391D01*
X40741D01*
X40159Y168690D01*
X40102Y168827D01*
X39736Y169193D01*
X39259Y169391D01*
X39299Y169874D01*
X52688D01*
X53019Y169940D01*
X53300Y170128D01*
X53699Y170527D01*
X53741Y170510D01*
X54259D01*
X54736Y170707D01*
X55102Y171073D01*
X55300Y171551D01*
X55460Y171682D01*
X55627Y171649D01*
D02*
G37*
G36*
X38194Y170128D02*
X38475Y169940D01*
X38736Y169888D01*
X38741Y169391D01*
X38264Y169193D01*
X37898Y168827D01*
X37700Y168349D01*
Y167832D01*
X37898Y167354D01*
X38149Y167103D01*
Y155748D01*
X37649Y155512D01*
X37473Y155630D01*
X37047Y155714D01*
X36622Y155630D01*
X36403Y155483D01*
X36063Y155423D01*
X35723Y155483D01*
X35504Y155630D01*
X35079Y155714D01*
X34653Y155630D01*
X34434Y155483D01*
X34095Y155423D01*
X33755Y155483D01*
X33536Y155630D01*
X33110Y155714D01*
X32685Y155630D01*
X32466Y155483D01*
X32126Y155423D01*
X31786Y155483D01*
X31567Y155630D01*
X31142Y155714D01*
X30716Y155630D01*
X30497Y155483D01*
X30158Y155423D01*
X29818Y155483D01*
X29599Y155630D01*
X29173Y155714D01*
X28748Y155630D01*
X28529Y155483D01*
X28189Y155423D01*
X27849Y155483D01*
X27630Y155630D01*
X27205Y155714D01*
X27194Y155712D01*
X26695Y156123D01*
X26699Y159236D01*
X26699Y159236D01*
X26699Y159236D01*
X26618Y159431D01*
X26541Y159619D01*
X26540Y159619D01*
X26540Y159619D01*
X26522Y159638D01*
X26383Y159973D01*
X26000Y160132D01*
X25804D01*
X25804Y160132D01*
X25804Y160132D01*
X9500D01*
X9117Y159973D01*
X8959Y159591D01*
Y157591D01*
X9117Y157208D01*
X9500Y157049D01*
X18867D01*
X19183Y156549D01*
X19100Y156349D01*
Y155832D01*
X19298Y155354D01*
X19533Y155119D01*
Y149849D01*
X15074Y145391D01*
X14891D01*
X14717Y145318D01*
X14217Y145649D01*
Y154078D01*
X14151Y154409D01*
X13963Y154690D01*
X12700Y155953D01*
X12419Y156141D01*
X12087Y156207D01*
X5367D01*
Y160198D01*
X5390Y160317D01*
Y161683D01*
X5382Y161724D01*
X5613Y162224D01*
X7370D01*
X7702Y162290D01*
X7983Y162478D01*
X10611Y165106D01*
X11961D01*
Y165744D01*
X14051D01*
X14287Y165244D01*
X14170Y165067D01*
X14085Y164642D01*
X14170Y164216D01*
X14411Y163856D01*
Y163459D01*
X14170Y163099D01*
X14085Y162673D01*
X14170Y162248D01*
X14411Y161887D01*
X14771Y161646D01*
X15197Y161561D01*
X21102D01*
X21528Y161646D01*
X21768Y161806D01*
X25558D01*
X28700Y158665D01*
Y158332D01*
X28898Y157854D01*
X29264Y157489D01*
X29741Y157291D01*
X30259D01*
X30736Y157489D01*
X31102Y157854D01*
X31300Y158332D01*
Y158358D01*
X31800Y158565D01*
X32200Y158165D01*
Y157832D01*
X32398Y157354D01*
X32764Y156989D01*
X33241Y156791D01*
X33759D01*
X34236Y156989D01*
X34602Y157354D01*
X34800Y157832D01*
Y158349D01*
X34602Y158827D01*
X34236Y159193D01*
X33759Y159391D01*
X33426D01*
X27562Y165255D01*
X27280Y165443D01*
X26949Y165508D01*
X22248D01*
X22012Y166008D01*
X22130Y166185D01*
X22214Y166610D01*
X22130Y167036D01*
X22012Y167212D01*
X22248Y167712D01*
X31600D01*
X31748Y167354D01*
X32114Y166989D01*
X32591Y166791D01*
X33109D01*
X33586Y166989D01*
X33952Y167354D01*
X34150Y167832D01*
Y168349D01*
X33952Y168827D01*
X33586Y169193D01*
X33109Y169391D01*
X32591D01*
X32494Y169350D01*
X32450Y169379D01*
X32118Y169446D01*
X31901D01*
X31776Y169615D01*
X31640Y169946D01*
X31800Y170332D01*
Y170849D01*
X31728Y171024D01*
X32058Y171524D01*
X36798D01*
X38194Y170128D01*
D02*
G37*
G36*
X71500Y161591D02*
X65440D01*
X65229Y161732D01*
X64803Y161817D01*
X58898D01*
X58886Y161814D01*
X58500Y162132D01*
Y163099D01*
X58898Y163530D01*
X64803D01*
X65108Y163591D01*
X71500D01*
Y161591D01*
D02*
G37*
G36*
X77951Y167951D02*
Y164146D01*
X72768Y158963D01*
X72268Y159170D01*
Y162975D01*
X77451Y168158D01*
X77951Y167951D01*
D02*
G37*
G36*
X9386Y166332D02*
X7011Y163957D01*
X4910D01*
X4578Y163891D01*
X4297Y163703D01*
X3887Y163293D01*
X3699Y163012D01*
X3633Y162680D01*
Y161707D01*
X3657Y161589D01*
Y160412D01*
X3633Y160293D01*
Y155799D01*
X3520Y155706D01*
X3160Y155565D01*
X2090Y156635D01*
Y163102D01*
X6546Y167558D01*
X9386D01*
Y166332D01*
D02*
G37*
G36*
X11133Y146457D02*
X10030D01*
X10025Y146481D01*
X9804Y146812D01*
X9473Y147033D01*
X9083Y147110D01*
X8083D01*
X7867Y147067D01*
X7367Y147370D01*
Y152083D01*
X7301Y152414D01*
X7113Y152696D01*
X6996Y152812D01*
X7188Y153274D01*
X11133D01*
Y146457D01*
D02*
G37*
G36*
X49775Y155237D02*
X49774Y154901D01*
X49715Y154602D01*
Y148697D01*
X49766Y148438D01*
X49766Y148228D01*
X49960Y147868D01*
Y146476D01*
X50026Y146144D01*
X50214Y145863D01*
X51669Y144408D01*
X51569Y143918D01*
X49500Y143091D01*
X48000Y144924D01*
Y148688D01*
X48002Y148697D01*
Y154602D01*
X48000Y154611D01*
Y155591D01*
X49421D01*
X49775Y155237D01*
D02*
G37*
G36*
X26000Y159395D02*
X26158Y159237D01*
X26152Y154900D01*
X26093Y154602D01*
Y148697D01*
X26144Y148439D01*
X26144Y148228D01*
X25500Y143091D01*
X22068Y142661D01*
X21795Y143081D01*
X23000Y145084D01*
X24378Y148091D01*
Y157591D01*
X9500D01*
Y159591D01*
X26000D01*
Y159395D01*
D02*
G37*
G36*
X22799Y135723D02*
Y131987D01*
X22299Y131780D01*
X22236Y131843D01*
X21759Y132041D01*
X21241D01*
X20764Y131843D01*
X20430Y131509D01*
X20150Y131492D01*
X19870Y131509D01*
X19536Y131843D01*
X19059Y132041D01*
X18541D01*
X18539Y132040D01*
X18039Y132374D01*
Y135051D01*
X18986D01*
X19766Y135207D01*
X20428Y135649D01*
X20602Y135823D01*
X21500D01*
X22281Y135978D01*
X22299Y135990D01*
X22799Y135723D01*
D02*
G37*
G36*
X13961Y125610D02*
X10722D01*
X6193Y130139D01*
Y132106D01*
X6614D01*
Y132173D01*
X7114Y132324D01*
X7231Y132149D01*
X7893Y131707D01*
X8673Y131551D01*
X9454Y131707D01*
X10115Y132149D01*
X10557Y132810D01*
X10713Y133591D01*
Y135051D01*
X13961D01*
Y125610D01*
D02*
G37*
G36*
X133500Y136500D02*
X136000Y136000D01*
Y131500D01*
X128168D01*
Y136041D01*
X128193D01*
X128500Y140500D01*
X132500D01*
X133500Y136500D01*
D02*
G37*
G36*
X50984Y136575D02*
X51133Y136136D01*
Y134968D01*
X50721Y134556D01*
X50533Y134274D01*
X50467Y133943D01*
Y132605D01*
X48829Y130966D01*
X48367Y131157D01*
Y135658D01*
X48301Y135989D01*
X48244Y136075D01*
X48489Y136575D01*
X50984D01*
D02*
G37*
G36*
X36887Y142478D02*
X37168Y142290D01*
X37500Y142224D01*
X39314D01*
X40709Y140830D01*
Y136331D01*
X45601D01*
X46633Y135299D01*
Y130468D01*
X46320Y130154D01*
X38559D01*
Y135362D01*
X33375D01*
X33291Y135379D01*
X33078D01*
X32995Y135362D01*
X32441D01*
Y135213D01*
X31118D01*
Y135634D01*
X28367D01*
Y139898D01*
X29214Y140745D01*
X31634D01*
X31966Y140811D01*
X32247Y140999D01*
X33723Y142475D01*
X33911Y142756D01*
X33977Y143088D01*
Y144731D01*
X34430Y144887D01*
X34477Y144888D01*
X36887Y142478D01*
D02*
G37*
G36*
X165567Y134161D02*
X154071D01*
X152000Y132090D01*
Y128661D01*
X148549D01*
Y134035D01*
X151676Y137161D01*
X165567D01*
Y134161D01*
D02*
G37*
G36*
X111000Y134091D02*
X99500D01*
X99000Y133590D01*
Y128591D01*
X94049D01*
Y129218D01*
X94500Y135000D01*
X94645Y135177D01*
X96559Y137091D01*
X111000Y137091D01*
Y134091D01*
D02*
G37*
G36*
X53720Y135978D02*
X54500Y135823D01*
X55584D01*
X56193Y135701D01*
X56519D01*
X56961Y135260D01*
Y128435D01*
X55655Y127130D01*
X51000D01*
X50220Y126974D01*
X49707Y126632D01*
X49500D01*
X49362Y126575D01*
X48894D01*
Y123606D01*
X48991D01*
X49100Y122045D01*
X48985Y121925D01*
X48623Y121704D01*
X48362Y121756D01*
X47975Y121679D01*
X47647Y121459D01*
X47109D01*
X46781Y121679D01*
X46394Y121756D01*
X46007Y121679D01*
X45678Y121459D01*
X45140D01*
X44812Y121679D01*
X44425Y121756D01*
X44038Y121679D01*
X43710Y121459D01*
X43172D01*
X42844Y121679D01*
X42457Y121756D01*
X42070Y121679D01*
X41741Y121459D01*
X41522Y121131D01*
X41445Y120744D01*
Y118972D01*
X41522Y118585D01*
X41741Y118257D01*
X41973Y118102D01*
X41891Y117606D01*
X41890Y117602D01*
X39594D01*
Y105579D01*
X41890D01*
X41893Y105572D01*
X41973Y105079D01*
X41741Y104924D01*
X41522Y104596D01*
X41445Y104209D01*
Y102437D01*
X41522Y102050D01*
X41741Y101722D01*
X42070Y101502D01*
X42457Y101425D01*
X42844Y101502D01*
X43172Y101722D01*
X43710D01*
X44038Y101502D01*
X44425Y101425D01*
X44812Y101502D01*
X45140Y101722D01*
X45678D01*
X46007Y101502D01*
X46394Y101425D01*
X46781Y101502D01*
X47109Y101722D01*
X47647D01*
X47975Y101502D01*
X48362Y101425D01*
X48749Y101502D01*
X49077Y101722D01*
X49615D01*
X49944Y101502D01*
X50331Y101425D01*
X50718Y101502D01*
X51046Y101722D01*
X51265Y102050D01*
X51342Y102437D01*
Y104209D01*
X51265Y104596D01*
X51046Y104924D01*
X50814Y105079D01*
X50895Y105572D01*
X50898Y105579D01*
X51224D01*
Y117602D01*
X50898D01*
X50896Y117606D01*
X50890Y117645D01*
X50878Y118140D01*
X51261Y118298D01*
X51419Y118681D01*
Y123051D01*
X63655D01*
X66461Y120246D01*
Y104693D01*
X65898Y104130D01*
X62795D01*
X62232Y104693D01*
Y106295D01*
X62077Y107076D01*
X61634Y107737D01*
X60973Y108179D01*
X60312Y108311D01*
X60362Y108811D01*
X61578D01*
Y111779D01*
X59003D01*
Y111418D01*
X56684D01*
X56532Y111918D01*
X56597Y111962D01*
X58064Y113429D01*
X58905D01*
Y112811D01*
X61480D01*
Y115780D01*
X58905D01*
Y115162D01*
X57705D01*
X57373Y115096D01*
X57092Y114908D01*
X55625Y113442D01*
X55052D01*
X54950Y113509D01*
X54563Y113586D01*
X52791D01*
X52404Y113509D01*
X52076Y113290D01*
X51857Y112962D01*
X51780Y112575D01*
X51857Y112188D01*
X52076Y111860D01*
Y111321D01*
X51857Y110993D01*
X51780Y110606D01*
X51857Y110219D01*
X52020Y109974D01*
X52117Y109473D01*
X52054Y109319D01*
X51857Y109025D01*
X51780Y108638D01*
X51857Y108251D01*
X51959Y108098D01*
Y108091D01*
X52117Y107708D01*
X51971Y107227D01*
X51857Y107056D01*
X51780Y106669D01*
X51857Y106282D01*
X52076Y105954D01*
X52404Y105735D01*
X52791Y105658D01*
X54563D01*
X54950Y105735D01*
X55278Y105954D01*
X55433Y106185D01*
X55813Y106254D01*
X55999Y106238D01*
X56058Y106149D01*
X57353Y104853D01*
X58015Y104411D01*
X58153Y104384D01*
Y102628D01*
X56406Y100880D01*
X26351D01*
X26160Y101342D01*
X29171Y104353D01*
X29288Y104529D01*
X29788Y104377D01*
Y104311D01*
X32363D01*
Y104928D01*
X32961D01*
X33293Y104994D01*
X33574Y105182D01*
X33700Y105308D01*
X33741Y105291D01*
X34259D01*
X34736Y105489D01*
X35011Y105763D01*
X35826D01*
X35869Y105735D01*
X36256Y105658D01*
X38028D01*
X38415Y105735D01*
X38743Y105954D01*
X38962Y106282D01*
X39039Y106669D01*
X38962Y107056D01*
X38743Y107385D01*
Y107922D01*
X38962Y108251D01*
X39039Y108638D01*
X38962Y109025D01*
X38743Y109353D01*
Y109891D01*
X38962Y110219D01*
X39039Y110606D01*
X38962Y110993D01*
X38743Y111321D01*
Y111860D01*
X38962Y112188D01*
X39039Y112575D01*
X38962Y112962D01*
X38743Y113290D01*
Y113828D01*
X38962Y114156D01*
X39039Y114543D01*
X38962Y114930D01*
X38743Y115259D01*
Y115796D01*
X38962Y116125D01*
X39039Y116512D01*
X38962Y116899D01*
X38743Y117227D01*
X38415Y117446D01*
X38028Y117523D01*
X36256D01*
X35869Y117446D01*
X35541Y117227D01*
X35321Y116899D01*
X35244Y116512D01*
X35321Y116125D01*
X35449Y115933D01*
X35274Y115487D01*
X35228Y115433D01*
X32559D01*
Y116075D01*
X29984D01*
Y113106D01*
X32559D01*
Y113700D01*
X35259D01*
X35377Y113528D01*
X35481Y113200D01*
X35321Y112962D01*
X35244Y112575D01*
X35321Y112188D01*
X35541Y111860D01*
Y111321D01*
X35450Y111186D01*
X34923Y111077D01*
X34834Y111095D01*
X34736Y111193D01*
X34259Y111391D01*
X33741D01*
X33264Y111193D01*
X33079Y111008D01*
X32363D01*
Y111677D01*
X29788D01*
Y111611D01*
X29288Y111459D01*
X29171Y111635D01*
X28509Y112077D01*
X27729Y112232D01*
X26948Y112077D01*
X26287Y111635D01*
X25845Y110973D01*
X25689Y110193D01*
Y106640D01*
X22000Y102950D01*
X18039Y106911D01*
Y129107D01*
X18539Y129441D01*
X18541Y129441D01*
X18874D01*
X27337Y120978D01*
X27618Y120790D01*
X27950Y120724D01*
X36028D01*
X36264Y120489D01*
X36741Y120291D01*
X37259D01*
X37736Y120489D01*
X38102Y120854D01*
X38300Y121332D01*
Y121849D01*
X38145Y122224D01*
X38293Y122572D01*
X38412Y122724D01*
X39528D01*
X39764Y122488D01*
X40241Y122291D01*
X40759D01*
X41236Y122488D01*
X41602Y122854D01*
X41800Y123332D01*
Y123849D01*
X41602Y124327D01*
X41236Y124693D01*
X40759Y124891D01*
X40241D01*
X39764Y124693D01*
X39528Y124457D01*
X29009D01*
X24092Y129374D01*
X24299Y129874D01*
X28188D01*
X28395Y129374D01*
X28373Y129352D01*
X28175Y128874D01*
Y128357D01*
X28373Y127879D01*
X28739Y127513D01*
X29217Y127315D01*
X29550D01*
X30387Y126478D01*
X30668Y126290D01*
X31000Y126224D01*
X44482D01*
X44813Y126290D01*
X45094Y126478D01*
X45838Y127221D01*
X47176D01*
X47508Y127287D01*
X47789Y127475D01*
X51947Y131633D01*
X52135Y131914D01*
X52201Y132246D01*
Y133584D01*
X52613Y133996D01*
X52801Y134277D01*
X52867Y134609D01*
Y135947D01*
X53367Y136214D01*
X53720Y135978D01*
D02*
G37*
G36*
X128318Y126820D02*
X128552Y126469D01*
X128978Y126185D01*
X129042Y126172D01*
X129140Y126084D01*
X136950Y126046D01*
X137052Y121899D01*
X136703Y121541D01*
X132835D01*
X132506Y121476D01*
X128488Y121448D01*
X124500Y125000D01*
X126769Y127723D01*
X127268Y127760D01*
X128318Y126820D01*
D02*
G37*
G36*
X172500Y119661D02*
X168500D01*
X166567Y121161D01*
X157567D01*
Y125661D01*
X166067D01*
X167067Y126661D01*
X172500D01*
Y119661D01*
D02*
G37*
G36*
X118500Y119591D02*
X115912D01*
X112000Y121091D01*
X103000D01*
Y125591D01*
X111500D01*
X112500Y126591D01*
X118500D01*
Y119591D01*
D02*
G37*
G36*
X50878Y121181D02*
Y118681D01*
X49878D01*
X49500Y124091D01*
Y126091D01*
X50878D01*
Y121181D01*
D02*
G37*
G36*
X9496Y121854D02*
X11133D01*
Y120562D01*
X10898Y120327D01*
X10700Y119849D01*
Y119332D01*
X10898Y118854D01*
X11264Y118489D01*
X11741Y118291D01*
X12259D01*
X12736Y118489D01*
X13102Y118854D01*
X13300Y119332D01*
Y119849D01*
X13102Y120327D01*
X12867Y120562D01*
Y121854D01*
X13961D01*
Y108701D01*
X9496D01*
Y107690D01*
X-2496D01*
Y108701D01*
X-5633D01*
Y110119D01*
X-5398Y110354D01*
X-5200Y110832D01*
Y111349D01*
X-5398Y111827D01*
X-5764Y112193D01*
X-6241Y112391D01*
X-6759D01*
X-6783Y112380D01*
X-7283Y112714D01*
Y121854D01*
X-2496D01*
Y122866D01*
X9496D01*
Y121854D01*
D02*
G37*
G36*
X59000Y108091D02*
X57000Y106091D01*
X55000Y108091D01*
X52500D01*
Y109091D01*
X58000D01*
X59000Y108091D01*
D02*
G37*
G36*
X154524Y133454D02*
X154775Y132955D01*
X154700Y132774D01*
Y132257D01*
X154898Y131779D01*
X155132Y131545D01*
X155216Y131236D01*
X155132Y130927D01*
X154898Y130693D01*
X154700Y130215D01*
Y129698D01*
X154898Y129220D01*
X155132Y128986D01*
X155216Y128677D01*
X155132Y128368D01*
X154898Y128134D01*
X154700Y127656D01*
Y127139D01*
X154898Y126661D01*
X155264Y126295D01*
X155741Y126098D01*
X156259D01*
X156613Y126244D01*
X156714Y126215D01*
X157026Y125661D01*
Y121161D01*
X157184Y120779D01*
X157567Y120620D01*
X166382D01*
X167297Y119910D01*
X170546Y116660D01*
X170616Y116310D01*
X171058Y115649D01*
X171720Y115207D01*
X172500Y115051D01*
X174398D01*
X175681Y113768D01*
Y103602D01*
X175118Y103039D01*
X171608D01*
Y112661D01*
X171450Y113044D01*
X171067Y113203D01*
X167067D01*
X166988Y113170D01*
X166902Y113177D01*
X166804Y113093D01*
X166684Y113044D01*
X166651Y112965D01*
X166586Y112909D01*
X166286Y112327D01*
X165761Y112401D01*
X165732Y112546D01*
X165448Y112971D01*
X165372Y113022D01*
Y113623D01*
X165448Y113674D01*
X165732Y114100D01*
X165832Y114602D01*
X165732Y115105D01*
X165448Y115531D01*
X165372Y115581D01*
Y116183D01*
X165448Y116233D01*
X165732Y116659D01*
X165832Y117161D01*
X165732Y117664D01*
X165448Y118090D01*
X165022Y118374D01*
X164520Y118474D01*
X158614D01*
X158112Y118374D01*
X157686Y118090D01*
X157645Y118028D01*
X156972D01*
X156736Y118263D01*
X156259Y118461D01*
X155741D01*
X155264Y118263D01*
X154898Y117898D01*
X154700Y117420D01*
Y116903D01*
X154898Y116425D01*
X155132Y116191D01*
X155216Y115882D01*
X155132Y115573D01*
X154898Y115339D01*
X154700Y114861D01*
Y114344D01*
X154898Y113866D01*
X155132Y113632D01*
X155216Y113323D01*
X155132Y113014D01*
X154898Y112780D01*
X154700Y112302D01*
Y111888D01*
X154478Y111571D01*
X154321Y111420D01*
X154321D01*
X154213Y111506D01*
X153943Y111888D01*
X154026Y112520D01*
Y131091D01*
X153923Y131874D01*
X153621Y132604D01*
X153472Y132797D01*
X154128Y133453D01*
X154414Y133480D01*
X154524Y133454D01*
D02*
G37*
G36*
X94225Y113173D02*
X96000Y110591D01*
X111500D01*
X112500Y112591D01*
X116500D01*
X116500Y102500D01*
X136000D01*
D01*
X138000D01*
Y103000D01*
X145591Y110591D01*
X166000D01*
X167067Y112661D01*
X171067D01*
Y103039D01*
X155611D01*
X154831Y102884D01*
X154256Y102500D01*
X151500D01*
X142500Y93500D01*
X138000D01*
X95986Y93500D01*
X95969Y86904D01*
X92035Y86887D01*
X92001Y93500D01*
X82121Y93500D01*
X81850Y93772D01*
X81298Y94000D01*
X80702D01*
X80150Y93772D01*
X79879Y93500D01*
X79000D01*
X73558Y90959D01*
X72500D01*
Y90465D01*
X69602Y89112D01*
X70000Y57341D01*
X71500Y55841D01*
X83500D01*
X89000Y61341D01*
Y63041D01*
X89061D01*
Y67841D01*
X91234Y67841D01*
X91245Y65182D01*
X91234Y60841D01*
X92108Y60341D01*
X92108Y55063D01*
X90500Y54021D01*
X90500Y35485D01*
D01*
Y20841D01*
X90500Y-6500D01*
X73120Y-6500D01*
Y18000D01*
X65500D01*
Y20560D01*
X65539Y20757D01*
Y31341D01*
Y33877D01*
X65500Y34074D01*
Y41000D01*
X55500Y51000D01*
Y90517D01*
X78574Y102283D01*
X79000Y102021D01*
Y102500D01*
X83474D01*
X93726Y113214D01*
X94225Y113173D01*
D02*
G37*
G36*
X109000Y86841D02*
X98500D01*
Y90841D01*
X109000D01*
Y86841D01*
D02*
G37*
G36*
X153224Y101497D02*
X152412Y100685D01*
X151970Y100023D01*
X151815Y99243D01*
Y97969D01*
X151138Y97578D01*
X150422Y96862D01*
X149916Y95985D01*
X149653Y95006D01*
Y93994D01*
X149916Y93015D01*
X150422Y92138D01*
X151138Y91422D01*
X151461Y91236D01*
Y87764D01*
X151138Y87578D01*
X150422Y86862D01*
X149916Y85985D01*
X149653Y85006D01*
Y83994D01*
X149916Y83015D01*
X150422Y82138D01*
X151138Y81422D01*
X151461Y81236D01*
Y80541D01*
X121500Y80541D01*
X121117Y80383D01*
X120959Y80000D01*
X120959Y30000D01*
X121117Y29617D01*
X121500Y29459D01*
X138000Y29459D01*
X138383Y29617D01*
X138541Y30000D01*
X138541Y42459D01*
X147436Y42459D01*
X147436Y30000D01*
X147594Y29617D01*
X147977Y29459D01*
X158500Y29459D01*
X158883Y29617D01*
X159041Y30000D01*
X159041Y80000D01*
X158883Y80383D01*
X158500Y80541D01*
X155539D01*
Y81236D01*
X155862Y81422D01*
X156578Y82138D01*
X157084Y83015D01*
X157346Y83994D01*
Y85006D01*
X157084Y85985D01*
X156578Y86862D01*
X155862Y87578D01*
X155539Y87764D01*
Y91236D01*
X155862Y91422D01*
X156578Y92138D01*
X157084Y93015D01*
X157346Y93994D01*
Y95006D01*
X157084Y95985D01*
X156578Y96862D01*
X155893Y97547D01*
Y98398D01*
X156456Y98961D01*
X175963D01*
X176743Y99116D01*
X177405Y99558D01*
X178694Y100848D01*
X179194Y100640D01*
Y0D01*
X179203Y-61D01*
X179060Y-1875D01*
X178621Y-3704D01*
X177901Y-5442D01*
X176918Y-7046D01*
X175697Y-8476D01*
X174266Y-9698D01*
X172662Y-10680D01*
X170925Y-11400D01*
X169096Y-11839D01*
X167710Y-11948D01*
X167220Y-11974D01*
X167220Y-11974D01*
X167220Y-11974D01*
X139359D01*
X139152Y-11474D01*
X140442Y-10185D01*
X140884Y-9523D01*
X141039Y-8743D01*
Y17655D01*
X144442Y21058D01*
X144884Y21720D01*
X145039Y22500D01*
Y35021D01*
X145075Y35057D01*
Y37919D01*
X144037Y38957D01*
X141963D01*
X140925Y37919D01*
Y35057D01*
X140961Y35021D01*
Y23345D01*
X137558Y19942D01*
X137116Y19280D01*
X136961Y18500D01*
Y-7898D01*
X136398Y-8461D01*
X58102D01*
X57539Y-7898D01*
Y12155D01*
X62494Y17110D01*
X62523Y17116D01*
X63185Y17558D01*
X64459Y18832D01*
X64959Y18625D01*
Y18000D01*
X65117Y17617D01*
X65500Y17459D01*
X72579D01*
Y-6500D01*
X72737Y-6883D01*
X73120Y-7041D01*
X90500Y-7041D01*
X90883Y-6883D01*
X91041Y-6500D01*
X91041Y20841D01*
Y35485D01*
X91041Y53727D01*
X92402Y54609D01*
X92436Y54658D01*
X92491Y54680D01*
X92550Y54823D01*
X92637Y54950D01*
X92627Y55008D01*
X92649Y55063D01*
X92649Y60341D01*
X92621Y60410D01*
X92630Y60483D01*
X92545Y60594D01*
X92491Y60724D01*
X92422Y60752D01*
X92377Y60811D01*
X91776Y61155D01*
X91780Y62653D01*
X92000Y62800D01*
X93500D01*
X93883Y62958D01*
X93917Y63041D01*
X94179D01*
Y67722D01*
X94257Y67800D01*
X96776D01*
X98959Y65617D01*
X98959Y58841D01*
X99117Y58458D01*
X99500Y58300D01*
X113000Y58300D01*
X113383Y58458D01*
X113541Y58841D01*
X113541Y76841D01*
X113523Y76884D01*
X113534Y76930D01*
X113446Y77071D01*
X113383Y77224D01*
X113339Y77242D01*
X113315Y77281D01*
X110041Y79619D01*
X110041Y85841D01*
X109883Y86224D01*
X109825Y86247D01*
X109502Y86402D01*
X109541Y86841D01*
Y90841D01*
X109383Y91224D01*
X109000Y91382D01*
X98500D01*
X98117Y91224D01*
X97959Y90841D01*
Y86841D01*
X98009Y86720D01*
X98117Y86224D01*
X97959Y85841D01*
X97959Y83065D01*
X96375Y81481D01*
X96000Y81813D01*
Y85782D01*
X92000D01*
Y81782D01*
X92980D01*
Y81203D01*
X92059Y80281D01*
X91838Y79950D01*
X91760Y79560D01*
Y78641D01*
X91240D01*
Y79295D01*
X91163Y79685D01*
X90941Y80016D01*
X89640Y81318D01*
X89500Y81782D01*
X89500D01*
X89500Y81782D01*
Y85782D01*
X85500D01*
Y81782D01*
X87129D01*
Y81367D01*
X87206Y80977D01*
X87427Y80647D01*
X88933Y79141D01*
X88726Y78641D01*
X86261D01*
Y75864D01*
X86242Y75766D01*
Y74525D01*
X84656Y72939D01*
X83000D01*
Y73782D01*
X79000D01*
Y69782D01*
X83000D01*
Y70899D01*
X85078D01*
X85468Y70977D01*
X85799Y71198D01*
X87982Y73382D01*
X88189Y73691D01*
X88701D01*
X88908Y73191D01*
X82617Y66900D01*
X79000D01*
Y62900D01*
X83000D01*
Y64400D01*
X83083Y64455D01*
X83071Y64467D01*
X83071Y64470D01*
X85497Y66896D01*
X85959Y66705D01*
X85959Y64565D01*
X83276Y61882D01*
X72000Y61882D01*
X71617Y61724D01*
X71459Y61341D01*
Y57841D01*
X71617Y57458D01*
X72000Y57300D01*
X82500D01*
X82883Y57458D01*
X87997Y62572D01*
X88459Y62381D01*
Y61565D01*
X83276Y56382D01*
X71724D01*
X70538Y57568D01*
X70147Y88769D01*
X72078Y89671D01*
X72500Y89402D01*
Y86959D01*
X76500D01*
Y87940D01*
X79000D01*
Y86900D01*
X83000D01*
Y90900D01*
X82025D01*
X82022Y91400D01*
X82272Y91650D01*
X82500Y92202D01*
Y92459D01*
X82934Y92959D01*
X91463Y92959D01*
X91494Y86885D01*
X91494Y86885D01*
X91494Y86884D01*
Y86884D01*
X91559Y86728D01*
X91654Y86503D01*
X91654Y86502D01*
X91654Y86502D01*
X91877Y86411D01*
X92037Y86346D01*
X92038D01*
X92038Y86346D01*
X92038Y86346D01*
X95972Y86363D01*
X96161Y86442D01*
X96351Y86520D01*
X96352Y86522D01*
X96354Y86523D01*
X96431Y86713D01*
X96510Y86903D01*
X96526Y92959D01*
X138000Y92959D01*
X142500D01*
X142883Y93117D01*
X142883Y93117D01*
X151724Y101959D01*
X153033D01*
X153224Y101497D01*
D02*
G37*
G36*
X102500Y81341D02*
X100000Y78841D01*
X98000D01*
X96500Y77341D01*
X96500Y74195D01*
X96146Y73841D01*
X94500D01*
Y78841D01*
X98500Y82841D01*
X98500Y85841D01*
X102500Y85841D01*
Y81341D01*
D02*
G37*
G36*
X109500Y85841D02*
X109500Y79341D01*
X113000Y76841D01*
X113000Y58841D01*
X99500Y58841D01*
X99500Y65841D01*
X97000Y68341D01*
X94033D01*
X93500Y67808D01*
X93500Y63341D01*
X92000D01*
X92000Y70341D01*
X93500Y71841D01*
X97533Y71841D01*
X104500Y79921D01*
X104500Y85841D01*
X109500Y85841D01*
D02*
G37*
G36*
X11293Y68478D02*
X11606Y68415D01*
X12206D01*
X12375Y68449D01*
X12488Y68382D01*
X12701Y68169D01*
X12768Y68056D01*
X12734Y67887D01*
Y67287D01*
X12796Y66975D01*
X12934Y66602D01*
X12796Y66230D01*
X12734Y65918D01*
Y65318D01*
X12796Y65006D01*
X12973Y64741D01*
Y64526D01*
X12796Y64262D01*
X12734Y63950D01*
Y63350D01*
X12796Y63038D01*
X12934Y62665D01*
X12796Y62293D01*
X12734Y61981D01*
Y61381D01*
X12796Y61069D01*
X12973Y60804D01*
Y60589D01*
X12796Y60325D01*
X12734Y60013D01*
Y59413D01*
X12796Y59101D01*
X12934Y58728D01*
X12796Y58356D01*
X12734Y58044D01*
Y57444D01*
X12796Y57132D01*
X12764Y57046D01*
X12675Y57024D01*
X10675Y55524D01*
X10655Y55489D01*
X10617Y55473D01*
X10552Y55315D01*
X10464Y55167D01*
X10033Y54947D01*
X9637D01*
X9325Y54885D01*
X8953Y54748D01*
X8581Y54885D01*
X8269Y54947D01*
X7669D01*
X7356Y54885D01*
X7092Y54708D01*
X6877D01*
X6612Y54885D01*
X6300Y54947D01*
X5700D01*
X5388Y54885D01*
X5123Y54708D01*
X4946Y54443D01*
X4884Y54131D01*
Y51341D01*
X4869Y51326D01*
X4681Y51044D01*
X4640Y50839D01*
X3868Y50067D01*
X3340D01*
X3082Y50567D01*
X3117Y50619D01*
X3179Y50931D01*
Y54131D01*
X3117Y54443D01*
X2940Y54708D01*
X2675Y54885D01*
X2363Y54947D01*
X1763D01*
X1451Y54885D01*
X1079Y54748D01*
X707Y54885D01*
X395Y54947D01*
X-205D01*
X-375Y54913D01*
X-488Y54980D01*
X-701Y55193D01*
X-768Y55306D01*
X-734Y55476D01*
Y56076D01*
X-796Y56388D01*
X-973Y56652D01*
Y56867D01*
X-796Y57132D01*
X-734Y57444D01*
Y58044D01*
X-796Y58356D01*
X-934Y58728D01*
X-796Y59101D01*
X-734Y59413D01*
Y60013D01*
X-796Y60325D01*
X-973Y60589D01*
Y60804D01*
X-796Y61069D01*
X-734Y61381D01*
Y61981D01*
X-796Y62293D01*
X-934Y62665D01*
X-796Y63038D01*
X-734Y63350D01*
Y63950D01*
X-796Y64262D01*
X-973Y64526D01*
Y64741D01*
X-796Y65006D01*
X-734Y65318D01*
Y65918D01*
X-796Y66230D01*
X-934Y66602D01*
X-796Y66975D01*
X-734Y67287D01*
Y67887D01*
X-768Y68056D01*
X-701Y68169D01*
X-488Y68382D01*
X-375Y68449D01*
X-205Y68415D01*
X395D01*
X707Y68478D01*
X1079Y68615D01*
X1451Y68478D01*
X1763Y68415D01*
X2363D01*
X2675Y68478D01*
X2940Y68654D01*
X3155D01*
X3419Y68478D01*
X3732Y68415D01*
X4332D01*
X4644Y68478D01*
X5016Y68615D01*
X5388Y68478D01*
X5700Y68415D01*
X6300D01*
X6612Y68478D01*
X6877Y68654D01*
X7092D01*
X7356Y68478D01*
X7669Y68415D01*
X8269D01*
X8581Y68478D01*
X8953Y68615D01*
X9325Y68478D01*
X9637Y68415D01*
X10237D01*
X10549Y68478D01*
X10814Y68654D01*
X11029D01*
X11293Y68478D01*
D02*
G37*
G36*
X88500Y63841D02*
X82500Y57841D01*
X72000D01*
Y61341D01*
X83500Y61341D01*
X86500Y64341D01*
X86500Y67841D01*
X88500D01*
Y63841D01*
D02*
G37*
G36*
X26000Y53549D02*
X14162D01*
X13481Y53110D01*
X13069Y50594D01*
X11501Y50620D01*
X11053Y50931D01*
Y54131D01*
X11000Y54396D01*
Y55090D01*
X13000Y56590D01*
X26000D01*
Y53549D01*
D02*
G37*
G36*
X51545Y39500D02*
X54045Y37000D01*
Y34000D01*
X44500D01*
Y37455D01*
X47045Y40000D01*
X47045Y51000D01*
X51545Y51000D01*
X51545Y39500D01*
D02*
G37*
G36*
X158500Y80000D02*
X158500Y30000D01*
X147977Y30000D01*
X147977Y43000D01*
X138000Y43000D01*
X138000Y30000D01*
X121500Y30000D01*
X121500Y80000D01*
X158500Y80000D01*
D02*
G37*
G36*
X45000Y22500D02*
X43500D01*
Y15590D01*
Y13590D01*
X42500Y11591D01*
X41000Y8591D01*
X37245D01*
X37141Y9114D01*
X37000Y9325D01*
Y11591D01*
X39955Y12181D01*
X41500Y13340D01*
Y19590D01*
D01*
X41500Y27000D01*
X45000D01*
Y22500D01*
D02*
G37*
G36*
X24500Y13590D02*
X25000Y12591D01*
X26500Y11591D01*
X30500D01*
Y8591D01*
X24500D01*
X23500Y11591D01*
X22500Y13590D01*
Y19590D01*
X24500D01*
Y13590D01*
D02*
G37*
%LPC*%
G36*
X167890Y229890D02*
X166551D01*
X165237Y229628D01*
X164000Y229116D01*
X162886Y228372D01*
X161939Y227425D01*
X161195Y226311D01*
X160682Y225074D01*
X160421Y223760D01*
Y222421D01*
X160682Y221107D01*
X161195Y219870D01*
X161939Y218756D01*
X162886Y217809D01*
X164000Y217065D01*
X165237Y216553D01*
X166551Y216291D01*
X167890D01*
X169204Y216553D01*
X170441Y217065D01*
X171555Y217809D01*
X172502Y218756D01*
X173246Y219870D01*
X173758Y221107D01*
X174020Y222421D01*
Y223760D01*
X173758Y225074D01*
X173246Y226311D01*
X172502Y227425D01*
X171555Y228372D01*
X170441Y229116D01*
X169204Y229628D01*
X167890Y229890D01*
D02*
G37*
G36*
X670D02*
X-670D01*
X-1983Y229628D01*
X-3221Y229116D01*
X-4334Y228372D01*
X-5281Y227425D01*
X-6025Y226311D01*
X-6538Y225074D01*
X-6799Y223760D01*
Y222421D01*
X-6538Y221107D01*
X-6025Y219870D01*
X-5281Y218756D01*
X-4334Y217809D01*
X-3221Y217065D01*
X-1983Y216553D01*
X-670Y216291D01*
X670D01*
X1983Y216553D01*
X3221Y217065D01*
X4334Y217809D01*
X5281Y218756D01*
X6025Y219870D01*
X6538Y221107D01*
X6799Y222421D01*
Y223760D01*
X6538Y225074D01*
X6025Y226311D01*
X5281Y227425D01*
X4334Y228372D01*
X3221Y229116D01*
X1983Y229628D01*
X670Y229890D01*
D02*
G37*
G36*
X2347Y207937D02*
X-5347D01*
Y200244D01*
X2347D01*
Y207937D01*
D02*
G37*
G36*
X163506Y185937D02*
X162494D01*
X161515Y185675D01*
X160638Y185169D01*
X159922Y184452D01*
X159416Y183575D01*
X159153Y182597D01*
Y181584D01*
X159416Y180606D01*
X159922Y179729D01*
X160638Y179013D01*
X161515Y178506D01*
X162494Y178244D01*
X163506D01*
X164485Y178506D01*
X165362Y179013D01*
X166078Y179729D01*
X166584Y180606D01*
X166847Y181584D01*
Y182597D01*
X166584Y183575D01*
X166078Y184452D01*
X165362Y185169D01*
X164485Y185675D01*
X163506Y185937D01*
D02*
G37*
G36*
X138506D02*
X137494D01*
X136515Y185675D01*
X135638Y185169D01*
X134922Y184452D01*
X134416Y183575D01*
X134153Y182597D01*
Y181584D01*
X134416Y180606D01*
X134922Y179729D01*
X135638Y179013D01*
X136515Y178506D01*
X137494Y178244D01*
X138506D01*
X139485Y178506D01*
X140362Y179013D01*
X141078Y179729D01*
X141584Y180606D01*
X141847Y181584D01*
Y182597D01*
X141584Y183575D01*
X141078Y184452D01*
X140362Y185169D01*
X139485Y185675D01*
X138506Y185937D01*
D02*
G37*
G36*
X113506D02*
X112494D01*
X111515Y185675D01*
X110638Y185169D01*
X109922Y184452D01*
X109416Y183575D01*
X109153Y182597D01*
Y181584D01*
X109416Y180606D01*
X109922Y179729D01*
X110638Y179013D01*
X111515Y178506D01*
X112494Y178244D01*
X113506D01*
X114485Y178506D01*
X115362Y179013D01*
X116078Y179729D01*
X116584Y180606D01*
X116847Y181584D01*
Y182597D01*
X116584Y183575D01*
X116078Y184452D01*
X115362Y185169D01*
X114485Y185675D01*
X113506Y185937D01*
D02*
G37*
G36*
X163506Y175937D02*
X162494D01*
X161515Y175675D01*
X160638Y175169D01*
X159922Y174452D01*
X159416Y173575D01*
X159153Y172597D01*
Y171584D01*
X159416Y170606D01*
X159922Y169729D01*
X160638Y169013D01*
X161515Y168506D01*
X162494Y168244D01*
X163506D01*
X164485Y168506D01*
X165362Y169013D01*
X166078Y169729D01*
X166584Y170606D01*
X166847Y171584D01*
Y172597D01*
X166584Y173575D01*
X166078Y174452D01*
X165362Y175169D01*
X164485Y175675D01*
X163506Y175937D01*
D02*
G37*
G36*
X138506D02*
X137494D01*
X136515Y175675D01*
X135638Y175169D01*
X134922Y174452D01*
X134416Y173575D01*
X134153Y172597D01*
Y171584D01*
X134416Y170606D01*
X134922Y169729D01*
X135638Y169013D01*
X136515Y168506D01*
X137494Y168244D01*
X138506D01*
X139485Y168506D01*
X140362Y169013D01*
X141078Y169729D01*
X141584Y170606D01*
X141847Y171584D01*
Y172597D01*
X141584Y173575D01*
X141078Y174452D01*
X140362Y175169D01*
X139485Y175675D01*
X138506Y175937D01*
D02*
G37*
G36*
X113506D02*
X112494D01*
X111515Y175675D01*
X110638Y175169D01*
X109922Y174452D01*
X109416Y173575D01*
X109153Y172597D01*
Y171584D01*
X109416Y170606D01*
X109922Y169729D01*
X110638Y169013D01*
X111515Y168506D01*
X112494Y168244D01*
X113506D01*
X114485Y168506D01*
X115362Y169013D01*
X116078Y169729D01*
X116584Y170606D01*
X116847Y171584D01*
Y172597D01*
X116584Y173575D01*
X116078Y174452D01*
X115362Y175169D01*
X114485Y175675D01*
X113506Y175937D01*
D02*
G37*
G36*
X138506Y165937D02*
X137494D01*
X136515Y165675D01*
X135638Y165168D01*
X134922Y164452D01*
X134416Y163575D01*
X134153Y162597D01*
Y161584D01*
X134416Y160606D01*
X134922Y159729D01*
X135638Y159013D01*
X136515Y158506D01*
X137494Y158244D01*
X138506D01*
X139485Y158506D01*
X140362Y159013D01*
X141078Y159729D01*
X141584Y160606D01*
X141847Y161584D01*
Y162597D01*
X141584Y163575D01*
X141078Y164452D01*
X140362Y165168D01*
X139485Y165675D01*
X138506Y165937D01*
D02*
G37*
G36*
X40259Y96300D02*
X39741D01*
X39264Y96102D01*
X38898Y95736D01*
X38700Y95259D01*
Y94741D01*
X38898Y94264D01*
X38961Y94200D01*
Y93451D01*
X34559D01*
X34177Y93292D01*
X34018Y92910D01*
X34018Y82847D01*
X34018Y82847D01*
X34018Y82846D01*
X34097Y82656D01*
X34177Y82465D01*
X34177Y82464D01*
X34177Y82464D01*
X34532Y82111D01*
X34532Y82111D01*
X34532Y82110D01*
X34727Y82031D01*
X34915Y81953D01*
X34915Y81953D01*
X34916Y81953D01*
X38625Y81966D01*
X38814Y82045D01*
X39004Y82123D01*
X39005Y82125D01*
X39007Y82126D01*
X39085Y82316D01*
X39165Y82505D01*
X39193Y88283D01*
X45009Y88376D01*
X45195Y88456D01*
X45383Y88534D01*
X45384Y88538D01*
X45389Y88540D01*
X45463Y88729D01*
X45541Y88917D01*
Y92910D01*
X45383Y93292D01*
X45000Y93451D01*
X40943D01*
X40827Y93702D01*
X40789Y93951D01*
X41102Y94264D01*
X41300Y94741D01*
Y95259D01*
X41102Y95736D01*
X40736Y96102D01*
X40259Y96300D01*
D02*
G37*
G36*
X29461Y31984D02*
X26886D01*
Y29016D01*
X29461D01*
Y29023D01*
X29495Y29066D01*
X29961Y29316D01*
X30241Y29200D01*
X30759D01*
X31236Y29398D01*
X31602Y29764D01*
X31800Y30241D01*
Y30759D01*
X31602Y31236D01*
X31236Y31602D01*
X30759Y31800D01*
X30241D01*
X29961Y31684D01*
X29495Y31934D01*
X29461Y31977D01*
Y31984D01*
D02*
G37*
G36*
X670Y6799D02*
X-670D01*
X-1983Y6538D01*
X-3221Y6025D01*
X-4334Y5281D01*
X-5281Y4334D01*
X-6025Y3221D01*
X-6538Y1983D01*
X-6799Y670D01*
Y-670D01*
X-6538Y-1983D01*
X-6025Y-3221D01*
X-5281Y-4334D01*
X-4334Y-5281D01*
X-3221Y-6025D01*
X-1983Y-6538D01*
X-670Y-6799D01*
X670D01*
X1983Y-6538D01*
X3221Y-6025D01*
X4334Y-5281D01*
X5281Y-4334D01*
X6025Y-3221D01*
X6538Y-1983D01*
X6799Y-670D01*
Y670D01*
X6538Y1983D01*
X6025Y3221D01*
X5281Y4334D01*
X4334Y5281D01*
X3221Y6025D01*
X1983Y6538D01*
X670Y6799D01*
D02*
G37*
%LPD*%
G36*
X45000Y88917D02*
X38654Y88815D01*
X38623Y82507D01*
X34914Y82494D01*
X34559Y82847D01*
X34559Y92910D01*
X45000D01*
Y88917D01*
D02*
G37*
%LPC*%
G36*
X88506Y185937D02*
X87494D01*
X86515Y185675D01*
X85638Y185169D01*
X84922Y184452D01*
X84416Y183575D01*
X84153Y182597D01*
Y181584D01*
X84416Y180606D01*
X84922Y179729D01*
X85638Y179013D01*
X86515Y178506D01*
X87494Y178244D01*
X88506D01*
X89485Y178506D01*
X90362Y179013D01*
X91078Y179729D01*
X91584Y180606D01*
X91847Y181584D01*
Y182597D01*
X91584Y183575D01*
X91078Y184452D01*
X90362Y185169D01*
X89485Y185675D01*
X88506Y185937D01*
D02*
G37*
G36*
Y175937D02*
X87494D01*
X86515Y175675D01*
X85638Y175169D01*
X84922Y174452D01*
X84416Y173575D01*
X84153Y172597D01*
Y171584D01*
X84416Y170606D01*
X84922Y169729D01*
X85638Y169013D01*
X86515Y168506D01*
X87494Y168244D01*
X88506D01*
X89485Y168506D01*
X90362Y169013D01*
X91078Y169729D01*
X91584Y170606D01*
X91847Y171584D01*
Y172597D01*
X91584Y173575D01*
X91078Y174452D01*
X90362Y175169D01*
X89485Y175675D01*
X88506Y175937D01*
D02*
G37*
G36*
Y165937D02*
X87494D01*
X86515Y165675D01*
X85638Y165168D01*
X84922Y164452D01*
X84416Y163575D01*
X84153Y162597D01*
Y161584D01*
X84416Y160606D01*
X84922Y159729D01*
X85638Y159013D01*
X86515Y158506D01*
X87494Y158244D01*
X88506D01*
X89485Y158506D01*
X90362Y159013D01*
X91078Y159729D01*
X91584Y160606D01*
X91847Y161584D01*
Y162597D01*
X91584Y163575D01*
X91078Y164452D01*
X90362Y165168D01*
X89485Y165675D01*
X88506Y165937D01*
D02*
G37*
G36*
X58259Y121391D02*
X57741D01*
X57264Y121193D01*
X56898Y120827D01*
X56700Y120349D01*
Y119832D01*
X56898Y119354D01*
X57133Y119119D01*
Y118949D01*
X55562Y117378D01*
X55052D01*
X54950Y117446D01*
X54563Y117523D01*
X52791D01*
X52404Y117446D01*
X52076Y117227D01*
X51857Y116899D01*
X51780Y116512D01*
X51857Y116125D01*
X52076Y115796D01*
X52404Y115577D01*
X52791Y115500D01*
X54563D01*
X54950Y115577D01*
X55052Y115645D01*
X55921D01*
X56253Y115711D01*
X56534Y115899D01*
X58613Y117978D01*
X58801Y118259D01*
X58867Y118591D01*
Y119119D01*
X59102Y119354D01*
X59300Y119832D01*
Y120349D01*
X59102Y120827D01*
X58736Y121193D01*
X58259Y121391D01*
D02*
G37*
G36*
X164006Y98347D02*
X162994D01*
X162015Y98084D01*
X161138Y97578D01*
X160422Y96862D01*
X159916Y95985D01*
X159653Y95006D01*
Y93994D01*
X159916Y93015D01*
X160422Y92138D01*
X161138Y91422D01*
X162015Y90916D01*
X162994Y90654D01*
X164006D01*
X164985Y90916D01*
X165862Y91422D01*
X166578Y92138D01*
X167084Y93015D01*
X167347Y93994D01*
Y95006D01*
X167084Y95985D01*
X166578Y96862D01*
X165862Y97578D01*
X164985Y98084D01*
X164006Y98347D01*
D02*
G37*
G36*
Y88346D02*
X162994D01*
X162015Y88084D01*
X161138Y87578D01*
X160422Y86862D01*
X159916Y85985D01*
X159653Y85006D01*
Y83994D01*
X159916Y83015D01*
X160422Y82138D01*
X161138Y81422D01*
X162015Y80916D01*
X162994Y80654D01*
X164006D01*
X164985Y80916D01*
X165862Y81422D01*
X166578Y82138D01*
X167084Y83015D01*
X167347Y83994D01*
Y85006D01*
X167084Y85985D01*
X166578Y86862D01*
X165862Y87578D01*
X164985Y88084D01*
X164006Y88346D01*
D02*
G37*
G36*
X76500Y85841D02*
X72500D01*
Y81841D01*
X73480D01*
Y78900D01*
X72500D01*
Y74900D01*
X76500D01*
Y75880D01*
X79000D01*
Y74900D01*
X83000D01*
Y78900D01*
X82020D01*
Y81782D01*
X83000D01*
Y85782D01*
X79000D01*
Y84802D01*
X76500D01*
Y85841D01*
D02*
G37*
G36*
X164006Y78347D02*
X162994D01*
X162015Y78084D01*
X161138Y77578D01*
X160422Y76862D01*
X159916Y75985D01*
X159653Y75006D01*
Y73994D01*
X159916Y73015D01*
X160422Y72138D01*
X161138Y71422D01*
X162015Y70916D01*
X162994Y70653D01*
X164006D01*
X164985Y70916D01*
X165862Y71422D01*
X166578Y72138D01*
X167084Y73015D01*
X167347Y73994D01*
Y75006D01*
X167084Y75985D01*
X166578Y76862D01*
X165862Y77578D01*
X164985Y78084D01*
X164006Y78347D01*
D02*
G37*
G36*
Y68347D02*
X162994D01*
X162015Y68084D01*
X161138Y67578D01*
X160422Y66862D01*
X159916Y65985D01*
X159653Y65006D01*
Y63994D01*
X159916Y63015D01*
X160422Y62138D01*
X161138Y61422D01*
X162015Y60916D01*
X162994Y60654D01*
X164006D01*
X164985Y60916D01*
X165862Y61422D01*
X166578Y62138D01*
X167084Y63015D01*
X167347Y63994D01*
Y65006D01*
X167084Y65985D01*
X166578Y66862D01*
X165862Y67578D01*
X164985Y68084D01*
X164006Y68347D01*
D02*
G37*
G36*
Y58346D02*
X162994D01*
X162015Y58084D01*
X161138Y57578D01*
X160422Y56862D01*
X159916Y55985D01*
X159653Y55006D01*
Y53994D01*
X159916Y53015D01*
X160422Y52138D01*
X161138Y51422D01*
X162015Y50916D01*
X162994Y50654D01*
X164006D01*
X164985Y50916D01*
X165862Y51422D01*
X166578Y52138D01*
X167084Y53015D01*
X167347Y53994D01*
Y55006D01*
X167084Y55985D01*
X166578Y56862D01*
X165862Y57578D01*
X164985Y58084D01*
X164006Y58346D01*
D02*
G37*
G36*
Y48346D02*
X162994D01*
X162015Y48084D01*
X161138Y47578D01*
X160422Y46862D01*
X159916Y45985D01*
X159653Y45006D01*
Y43994D01*
X159916Y43015D01*
X160422Y42138D01*
X161138Y41422D01*
X162015Y40916D01*
X162994Y40654D01*
X164006D01*
X164985Y40916D01*
X165862Y41422D01*
X166578Y42138D01*
X167084Y43015D01*
X167347Y43994D01*
Y45006D01*
X167084Y45985D01*
X166578Y46862D01*
X165862Y47578D01*
X164985Y48084D01*
X164006Y48346D01*
D02*
G37*
G36*
X167347Y38346D02*
X159653D01*
Y30654D01*
X167347D01*
Y38346D01*
D02*
G37*
G36*
X67206Y5012D02*
X65778D01*
X64400Y4642D01*
X63164Y3929D01*
X62154Y2919D01*
X61440Y1683D01*
X61071Y304D01*
Y-1123D01*
X61440Y-2502D01*
X62154Y-3738D01*
X63164Y-4747D01*
X64400Y-5461D01*
X65778Y-5831D01*
X67206D01*
X68585Y-5461D01*
X69821Y-4747D01*
X70830Y-3738D01*
X71544Y-2502D01*
X71913Y-1123D01*
Y304D01*
X71544Y1683D01*
X70830Y2919D01*
X69821Y3929D01*
X68585Y4642D01*
X67206Y5012D01*
D02*
G37*
G36*
X167890Y6799D02*
X166551D01*
X165237Y6538D01*
X164000Y6025D01*
X162886Y5281D01*
X161939Y4334D01*
X161195Y3221D01*
X160682Y1983D01*
X160421Y670D01*
Y-670D01*
X160682Y-1983D01*
X161195Y-3221D01*
X161939Y-4334D01*
X162886Y-5281D01*
X164000Y-6025D01*
X165237Y-6538D01*
X166551Y-6799D01*
X167890D01*
X169204Y-6538D01*
X170441Y-6025D01*
X171555Y-5281D01*
X172502Y-4334D01*
X173246Y-3221D01*
X173758Y-1983D01*
X174020Y-670D01*
Y670D01*
X173758Y1983D01*
X173246Y3221D01*
X172502Y4334D01*
X171555Y5281D01*
X170441Y6025D01*
X169204Y6538D01*
X167890Y6799D01*
D02*
G37*
G36*
X134000Y7041D02*
X97000D01*
X96617Y6883D01*
X96459Y6500D01*
Y-7000D01*
X96617Y-7383D01*
X97000Y-7541D01*
X134000D01*
X134383Y-7383D01*
X134541Y-7000D01*
Y6500D01*
X134383Y6883D01*
X134000Y7041D01*
D02*
G37*
%LPD*%
G36*
Y-7000D02*
X97000D01*
Y6500D01*
X134000D01*
Y-7000D01*
D02*
G37*
D12*
X82276Y65124D02*
G03*
X82350Y65191I-632J775D01*
G01*
X81000Y88959D02*
Y92500D01*
Y88400D02*
Y88959D01*
X81000Y71782D02*
X81138Y71919D01*
X85078D01*
X81000Y76900D02*
X81000Y76900D01*
X80999D02*
X81000Y76900D01*
X74500Y76900D02*
X80999D01*
X81000D02*
Y83782D01*
X81000Y83782D02*
X81000Y83782D01*
X74500Y83841D02*
X74559Y83782D01*
X81000D01*
X74500Y76900D02*
Y83841D01*
Y88959D02*
X80941D01*
X81000Y88900D01*
X82000Y65124D02*
X82276D01*
X81000Y64900D02*
X82000Y65124D01*
X82350Y65191D02*
X90220Y73062D01*
X92779Y79560D02*
X94000Y80780D01*
Y83782D01*
X92779Y76166D02*
Y79560D01*
X87500Y83782D02*
X88148Y83134D01*
X90220Y73062D02*
Y76166D01*
X88148Y81367D02*
X90220Y79295D01*
X88148Y81367D02*
Y83134D01*
X90220Y76166D02*
Y79295D01*
X87261Y75766D02*
X87661Y76166D01*
X85078Y71919D02*
X87261Y74102D01*
Y75766D01*
D16*
X113409Y134724D02*
G03*
X112457Y135118I-952J-956D01*
G01*
X-5620Y15620D02*
X-3392D01*
X-3012Y16000D01*
X-6350Y16350D02*
X-5620Y15620D01*
X-6350Y16350D02*
Y19500D01*
X8012Y16500D02*
X8154Y16643D01*
X9970D01*
X10500Y17173D01*
Y20500D01*
X33744Y16271D02*
X33984Y16512D01*
X33500Y23500D02*
X33984Y23016D01*
Y16512D02*
Y23016D01*
X33744Y13091D02*
Y16271D01*
X33334Y12681D02*
X33744Y13091D01*
X30081D02*
Y16478D01*
X30492Y12681D02*
X33334D01*
X18633Y23500D02*
X33500D01*
X30081Y13091D02*
X30492Y12681D01*
X30047Y16512D02*
X30081Y16478D01*
X35976Y21567D02*
X36000Y21591D01*
X32000D02*
X32008Y21583D01*
X35953Y16512D02*
X35976Y16536D01*
X32008Y16520D02*
Y21583D01*
X35976Y16536D02*
Y21567D01*
X19130Y22300D02*
X31047D01*
X31756Y21591D01*
X32000D01*
X4227Y49200D02*
X5482Y50455D01*
Y50713D01*
X6000Y51231D01*
Y52531D01*
X-7090Y48000D02*
X4995D01*
X7450Y50455D02*
Y50713D01*
X4995Y48000D02*
X7450Y50455D01*
X-7587Y49200D02*
X4227D01*
X7969Y51231D02*
Y52531D01*
X7450Y50713D02*
X7969Y51231D01*
X-9000Y46090D02*
X-7090Y48000D01*
X-9000Y13410D02*
Y46090D01*
X-10200Y12913D02*
Y46587D01*
X-7587Y49200D01*
X-3706Y46500D02*
X8591D01*
X11500Y43591D01*
X-4500Y40881D02*
Y43850D01*
X-4256Y45950D02*
X-3706Y46500D01*
X-4500Y45950D02*
X-4256D01*
X-9000Y13410D02*
X-7090Y11500D01*
X-10200Y12913D02*
X-7587Y10300D01*
X11887D01*
X-7090Y11500D02*
X11390D01*
X11800Y11910D01*
X11887Y10300D02*
X13000Y11413D01*
X11800Y11910D02*
Y17387D01*
X13000Y11413D02*
Y16890D01*
X13910Y17800D01*
X11800Y17387D02*
X13413Y19000D01*
X14133D01*
X13910Y17800D02*
X14630D01*
X19130Y22300D01*
X14133Y19000D02*
X18633Y23500D01*
X28039Y16551D02*
Y20611D01*
X28000Y20650D02*
X28039Y20611D01*
Y16551D02*
X28079Y16512D01*
X3500Y34366D02*
Y44850D01*
Y32197D02*
Y34366D01*
X-4500Y40881D02*
X-1709Y38090D01*
X28611Y25500D02*
X34500D01*
X28173Y25937D02*
Y26000D01*
Y25937D02*
X28611Y25500D01*
X34500D02*
X39890Y20110D01*
Y16512D02*
Y20110D01*
X-3197Y22327D02*
X-3000D01*
X-3634Y22764D02*
X-3197Y22327D01*
X-5000Y24327D02*
X-3634Y22961D01*
X-5000Y24327D02*
Y29337D01*
X-3634Y22764D02*
Y22961D01*
X3500Y24327D02*
Y27130D01*
X2134Y22961D02*
X3500Y24327D01*
Y27130D02*
X7120Y30750D01*
X7834Y24534D02*
Y26331D01*
X9854Y28350D01*
X6634Y22764D02*
Y23334D01*
X7336Y24036D02*
X7336D01*
X6634Y23334D02*
X7336Y24036D01*
X7336D02*
X7834Y24534D01*
X6435Y22565D02*
X6634Y22764D01*
X6047Y27979D02*
X7617Y29550D01*
X6047Y25912D02*
Y27979D01*
X353Y20500D02*
X10500D01*
X-500Y21353D02*
X353Y20500D01*
X10500D02*
Y22327D01*
X-500Y21353D02*
Y42134D01*
X1697Y22327D02*
X2134Y22764D01*
Y22961D01*
X1500Y22327D02*
X1697D01*
X7617Y29550D02*
X11886D01*
X7120Y30750D02*
X9522D01*
X11760Y32988D01*
X11886Y29550D02*
X13791Y31455D01*
X9854Y28350D02*
X12383D01*
X14991Y30958D01*
Y31031D02*
X15500Y31540D01*
Y42634D01*
X14991Y30958D02*
Y31031D01*
X13791Y31455D02*
Y37277D01*
X11760Y32988D02*
Y34366D01*
X1500Y25673D02*
Y27697D01*
X3740Y29937D02*
Y34366D01*
X1500Y27697D02*
X3740Y29937D01*
X11500Y39568D02*
X13791Y37277D01*
X11500Y39568D02*
Y43591D01*
X-500Y42134D02*
X0Y42634D01*
X-1709Y29046D02*
Y38090D01*
X-3740Y30579D02*
Y34366D01*
X64500Y213950D02*
X67450D01*
X74000Y227500D02*
X76783D01*
X81373Y232090D01*
X72650Y230650D02*
X76560D01*
X70000Y228000D02*
X72650Y230650D01*
X70000Y225910D02*
Y228000D01*
X52475Y225500D02*
X69590D01*
X70000Y225910D01*
X41762Y214787D02*
X52475Y225500D01*
X130109Y214700D02*
X133500Y218091D01*
X128412Y214700D02*
X130109D01*
X124203Y210491D02*
X128412Y214700D01*
X76560Y230650D02*
X79410Y233500D01*
X81373Y232090D02*
X85157D01*
X89156Y228091D01*
X93500D01*
X131985Y218091D02*
X133500D01*
X67450Y213950D02*
X74000Y220500D01*
X65500Y208500D02*
X71091Y214091D01*
X88904D01*
X65500Y199500D02*
Y208500D01*
X88904Y214091D02*
X92904Y218091D01*
X93500D01*
X125891Y206891D02*
X130100Y211100D01*
X73103Y212891D02*
X115391D01*
X69500Y206090D02*
X75100Y211691D01*
X79757Y208091D02*
X125197D01*
X115391Y212891D02*
X118491Y215991D01*
X79263Y207596D02*
X79757Y208091D01*
X125197D02*
X129406Y212300D01*
X81724Y206891D02*
X125891D01*
X124700Y209291D02*
X128909Y213500D01*
X78413Y203580D02*
X81724Y206891D01*
X123691Y211691D02*
X127891Y215891D01*
X73500Y207291D02*
X76700Y210491D01*
X124203D01*
X78624Y209291D02*
X124700D01*
X75100Y211691D02*
X123691D01*
X67500Y207288D02*
X73103Y212891D01*
X72431Y203098D02*
X78624Y209291D01*
X67500Y201500D02*
Y207288D01*
X130100Y211100D02*
X144100D01*
X148128Y215128D01*
Y222719D01*
X150700Y225291D01*
Y225291D02*
X153500Y228091D01*
X150700Y225291D02*
Y225291D01*
X137709Y212300D02*
X143500Y218091D01*
X136499Y213500D02*
X138500Y215501D01*
X128909Y213500D02*
X136499D01*
X129406Y212300D02*
X137709D01*
X138500Y215501D02*
Y223091D01*
X143500Y228091D01*
X127891Y215891D02*
Y222481D01*
X133500Y228091D01*
X118491Y215991D02*
Y222491D01*
X123500Y227500D01*
Y228091D01*
X54300Y222891D02*
X107391D01*
X112591Y228091D02*
X113500D01*
X107391Y222891D02*
X112591Y228091D01*
X99500Y224091D02*
X103500Y228091D01*
X155592Y233500D02*
X157500Y231592D01*
X79410Y233500D02*
X155592D01*
X157500Y222090D02*
Y231592D01*
X153500Y218091D02*
X157500Y222090D01*
X53803Y224091D02*
X99500D01*
X48897Y217487D02*
X54300Y222891D01*
X47697Y217984D02*
X53803Y224091D01*
X156000Y112043D02*
X161567D01*
X6500Y142122D02*
Y152083D01*
Y142122D02*
X8532Y140091D01*
X5642Y152941D02*
X6500Y152083D01*
X2559Y152941D02*
X5642D01*
X8583Y145591D02*
X11590D01*
Y154141D02*
X12000Y153730D01*
Y146001D02*
Y153730D01*
X4910Y155341D02*
X12087D01*
X11590Y145591D02*
X12000Y146001D01*
X3359Y154141D02*
X11590D01*
X12087Y155341D02*
X13350Y154078D01*
Y141500D02*
Y154078D01*
X51334Y132246D02*
Y133943D01*
X45479Y128088D02*
X47176D01*
X52000Y134609D02*
Y138336D01*
X31136Y129288D02*
X46679D01*
X51334Y133943D02*
X52000Y134609D01*
X44482Y127091D02*
X45479Y128088D01*
X47500Y130109D02*
Y135658D01*
X47176Y128088D02*
X51334Y132246D01*
X31000Y127091D02*
X44482D01*
X46679Y129288D02*
X47500Y130109D01*
X1224Y156276D02*
X3359Y154141D01*
X4524Y160317D02*
Y161683D01*
X4500Y161707D02*
X4524Y161683D01*
X4500Y160293D02*
X4524Y160317D01*
X4910Y163091D02*
X7370D01*
X4500Y155751D02*
Y160293D01*
Y161707D02*
Y162680D01*
X4910Y163091D01*
X4500Y155751D02*
X4910Y155341D01*
X39828Y91410D02*
Y94828D01*
X40000Y95000D01*
X36618Y91000D02*
X39418D01*
X39828Y91410D01*
X58000Y118591D02*
Y120091D01*
X55921Y116512D02*
X58000Y118591D01*
X114063Y130591D02*
X114500Y130153D01*
Y128131D02*
Y130153D01*
X111969Y135606D02*
Y138031D01*
X113409Y134724D02*
X113664Y134724D01*
X114000D01*
X111969Y128031D02*
X112000Y128000D01*
X111969Y128031D02*
Y131730D01*
X114000Y130591D02*
X114063D01*
X108951Y145466D02*
X111000Y143417D01*
X111969Y131730D02*
X112754Y132516D01*
X113759D02*
X114000Y132756D01*
X112754Y132516D02*
X113759D01*
X111000Y139000D02*
X111969Y138031D01*
X111000Y139000D02*
Y143417D01*
X111969Y135606D02*
X112457Y135118D01*
X42327Y92122D02*
X43477Y90972D01*
X28173Y30500D02*
X28173Y30500D01*
X30500D01*
X30500Y30500D01*
X28173Y30500D02*
X28611Y30938D01*
X-6815Y55776D02*
X-3150D01*
X-7000Y64091D02*
Y70591D01*
X-7555Y59713D02*
X-3150D01*
X-7000Y64091D02*
X-6559Y63650D01*
X-6500Y71091D02*
X-3500D01*
X-7500Y55090D02*
X-6815Y55776D01*
X-7688Y61667D02*
X-7675Y61681D01*
X-3150D01*
Y59713D02*
X-2150D01*
X-7500Y53091D02*
Y55090D01*
X-7000Y70591D02*
X-6500Y71091D01*
X-7700Y59567D02*
X-7555Y59713D01*
X-6559Y63650D02*
X-3150D01*
Y61681D02*
X-2150D01*
X112500Y146756D02*
Y147000D01*
X113169Y137327D02*
Y146088D01*
X112500Y146756D02*
X113169Y146088D01*
X50559Y177941D02*
X56183D01*
X45669Y178941D02*
X49559D01*
X50559Y177941D01*
X49259Y176741D02*
X54796D01*
X48259Y177741D02*
X49259Y176741D01*
X46167Y177741D02*
X48259D01*
X29265Y190978D02*
Y195258D01*
X30000Y190000D02*
Y190243D01*
X29265Y190978D02*
X30000Y190243D01*
X31100Y188350D02*
X35079Y192329D01*
X23492Y192104D02*
X27247Y188350D01*
X31100D01*
X29173Y195350D02*
X29265Y195258D01*
X33500Y209029D02*
Y210591D01*
X31000Y201000D02*
Y206529D01*
X33500Y209029D01*
X31382Y198882D02*
X39303Y206803D01*
X31382Y198674D02*
Y198882D01*
X31142Y198433D02*
X31382Y198674D01*
X31142Y195350D02*
Y198433D01*
X36500Y201394D02*
X36672Y201566D01*
X39303Y206803D02*
Y212329D01*
X36672Y202475D02*
X43500Y209303D01*
Y210591D01*
X36672Y201566D02*
Y202475D01*
X31718Y187000D02*
X37047Y192329D01*
X26899Y187000D02*
X31718D01*
X22995Y190904D02*
X26899Y187000D01*
X21699Y189704D02*
X25603Y185800D01*
X32487D01*
X39016Y192329D01*
X23966Y183500D02*
X28091D01*
X21171Y186295D02*
X23966Y183500D01*
X18150Y186295D02*
X21171D01*
X28091Y183500D02*
X29850Y181741D01*
X10850Y183010D02*
X11410Y182450D01*
X10850Y183010D02*
Y188500D01*
X12500Y185383D02*
X13556Y184327D01*
X12500Y185383D02*
Y190500D01*
X8000Y190091D02*
Y191197D01*
X10503Y193700D01*
X11609D01*
X6800Y191694D02*
X10006Y194900D01*
X6800Y190588D02*
Y191694D01*
X9200Y190700D02*
X11000Y192500D01*
X15110D01*
X9200Y179891D02*
Y190700D01*
X10006Y194900D02*
X11112D01*
X11609Y193700D02*
X15607D01*
X15110Y192500D02*
X17905Y189704D01*
X15607Y193700D02*
X18403Y190904D01*
X17191Y194900D02*
X19986Y192104D01*
X11112Y194900D02*
X17191D01*
X14837Y188264D02*
X18150D01*
X11410Y182450D02*
X18058D01*
X14745Y188356D02*
X14837Y188264D01*
X13556Y184327D02*
X18150D01*
X18058Y182450D02*
X18150Y182358D01*
X46836Y143500D02*
X52000Y138336D01*
X37500Y143091D02*
X39673D01*
X37047Y148628D02*
X42175Y143500D01*
X46836D01*
X39673Y143091D02*
X43571Y139193D01*
X43965D01*
X52795Y146205D02*
Y151650D01*
X57260Y141741D02*
X58485D01*
X50827Y146476D02*
X53000Y144303D01*
X52795Y146205D02*
X57260Y141741D01*
X50827Y146476D02*
Y151650D01*
X53000Y144257D02*
Y144303D01*
Y144257D02*
X57167Y140091D01*
X56500Y147191D02*
Y158091D01*
X54672Y151558D02*
X54764Y151650D01*
X54561Y147997D02*
X54672Y148108D01*
Y151558D01*
X66244Y174207D02*
Y177050D01*
X69000Y173833D02*
Y174650D01*
X66244Y174207D02*
X66650Y173801D01*
X67894Y175757D02*
X69000Y174650D01*
X67894Y175757D02*
Y176000D01*
X66650Y170957D02*
Y173801D01*
X66244Y177050D02*
X66950Y177757D01*
X69022Y199672D02*
Y200689D01*
X69500Y201167D02*
Y206090D01*
X69022Y200689D02*
X69500Y201167D01*
X68850Y199500D02*
X69022Y199672D01*
X71500Y201500D02*
X71672Y201672D01*
X72431Y203098D02*
Y203098D01*
X71672Y202339D02*
X72431Y203098D01*
X71672Y201672D02*
Y202339D01*
X79263Y206853D02*
Y207596D01*
X78000Y205500D02*
Y205591D01*
X74000Y199500D02*
X78080Y203580D01*
X78000Y205591D02*
X79263Y206853D01*
X78080Y203580D02*
X78413D01*
X66950Y177757D02*
Y178000D01*
X67732Y164992D02*
X71328Y168588D01*
Y169828D01*
X68003Y166960D02*
X69500Y168457D01*
X62200Y164992D02*
X67732D01*
X62200Y166960D02*
X68003D01*
X69500Y168457D02*
Y172000D01*
X57167Y140091D02*
X59500D01*
X71328Y169828D02*
X71500Y170000D01*
X67440Y168579D02*
X67850Y168989D01*
Y172683D01*
X66240Y170547D02*
X66650Y170957D01*
X61850Y170547D02*
X66240D01*
X67850Y172683D02*
X69000Y173833D01*
X61850Y168579D02*
X67440D01*
X31634Y141612D02*
X33110Y143088D01*
X26036Y134382D02*
X27500D01*
X27817D01*
X28855Y141612D02*
X31634D01*
X27817Y134382D02*
X29598D01*
X27500Y134699D02*
Y140257D01*
Y134699D02*
X27817Y134382D01*
X27500Y140257D02*
X28855Y141612D01*
X35079Y145512D02*
X37500Y143091D01*
X35079Y145512D02*
Y151650D01*
X28650Y123591D02*
X40500D01*
X21500Y130741D02*
X28650Y123591D01*
X29475Y128615D02*
X31000Y127091D01*
X20400Y149491D02*
Y156091D01*
X22500Y148621D02*
Y156091D01*
X24Y155476D02*
X2559Y152941D01*
X1224Y156276D02*
Y163461D01*
X24Y155476D02*
Y163958D01*
X11965Y122974D02*
X12048D01*
X-4964Y123732D02*
X11374D01*
X11965D01*
X5327Y129780D02*
Y133591D01*
Y129780D02*
X11374Y123732D01*
X15150Y144241D02*
X20400Y149491D01*
X15150Y144091D02*
Y144241D01*
X-7000Y128347D02*
Y128591D01*
X772Y133590D02*
X5327D01*
X771Y133590D02*
X772Y133590D01*
X5327D02*
X5327Y133591D01*
X-4590Y29748D02*
X-4571D01*
X-5000Y29337D02*
X-4590Y29748D01*
X-4571D02*
X-3740Y30579D01*
X-3000Y27755D02*
X-1709Y29046D01*
X-3000Y25673D02*
Y27755D01*
X-8150Y90233D02*
Y127197D01*
X-4964Y89823D02*
X11965D01*
X-7740D02*
X-4964D01*
X-8150Y127197D02*
X-7000Y128347D01*
X10673Y166610D02*
X18150D01*
X7370Y163091D02*
X10673Y166394D01*
Y166590D01*
X-6500Y107851D02*
Y111091D01*
X31126Y110142D02*
X33949D01*
X34172Y109918D01*
X34000Y106591D02*
X34039Y106630D01*
X33757Y106591D02*
X34000D01*
X31075Y105795D02*
X32961D01*
X33757Y106591D01*
X34039Y106630D02*
X37102D01*
X37142Y106669D01*
X34975Y109918D02*
X36256Y108638D01*
X34172Y109918D02*
X34975D01*
X36256Y108638D02*
X37142D01*
X31075Y110193D02*
X31126Y110142D01*
X27950Y121591D02*
X37000D01*
X25917Y162673D02*
X30000Y158591D01*
X18150Y162673D02*
X25917D01*
X18150Y164642D02*
X26949D01*
X33500Y158091D01*
X31000Y146091D02*
X31071Y146161D01*
X29087Y144177D02*
Y151563D01*
X29000Y144091D02*
X29087Y144177D01*
X31071Y146161D02*
Y151579D01*
X27113Y142203D02*
Y151558D01*
X29087Y151563D02*
X29173Y151650D01*
X23666Y131151D02*
X24076Y130741D01*
X29683D01*
X31136Y129288D01*
X23666Y131151D02*
Y136126D01*
X18800Y130741D02*
X27950Y121591D01*
X16650Y142606D02*
Y142771D01*
X22500Y148621D01*
X24Y163958D02*
X5690Y169625D01*
X1224Y163461D02*
X6187Y168425D01*
X8532Y140091D02*
X8583D01*
X69716Y180390D02*
X69827Y180500D01*
X61850Y180390D02*
X69716D01*
X53677Y116512D02*
X55921D01*
X28515Y177576D02*
X29361Y178421D01*
X45150D01*
X51950Y180141D02*
X52000Y180091D01*
X28747Y180141D02*
X51950D01*
X25059Y176453D02*
X28747Y180141D01*
X18150Y176453D02*
X25059D01*
X18193Y174441D02*
X36804D01*
X18150Y174484D02*
X18193Y174441D01*
X36804D02*
X38304Y172941D01*
X30000Y176091D02*
X30362Y176453D01*
X45150Y178421D02*
X45669Y178941D01*
X47550Y175541D02*
X54299D01*
X47000Y176091D02*
X47550Y175541D01*
X44879Y176453D02*
X46167Y177741D01*
X45750Y174341D02*
X53802D01*
X45500Y174591D02*
X45750Y174341D01*
X54299Y175541D02*
X55356Y174484D01*
X53802Y174341D02*
X55627Y172516D01*
X54796Y176741D02*
X55084Y176453D01*
X56183Y177941D02*
X56664Y178421D01*
X61850D01*
X30362Y176453D02*
X44879D01*
X55084D02*
X61850D01*
X53350Y181741D02*
X55500Y179591D01*
X55700Y182891D02*
X55944D01*
X29850Y181741D02*
X53350D01*
X55944Y182891D02*
X56476Y182358D01*
X56310Y184807D02*
Y184900D01*
X45500Y184091D02*
X53000D01*
X51442Y172426D02*
X51686D01*
X50928Y172941D02*
X51442Y172426D01*
X38304Y172941D02*
X50928D01*
X38807Y170741D02*
X52688D01*
X53756Y171809D02*
X54000D01*
X52688Y170741D02*
X53756Y171809D01*
X37157Y172391D02*
X38807Y170741D01*
X21535Y172424D02*
X21568Y172391D01*
X18150Y172516D02*
X18242Y172424D01*
X21568Y172391D02*
X37157D01*
X18242Y172424D02*
X21535D01*
X56310Y184807D02*
X56790Y184327D01*
X56500Y158091D02*
X57146Y158736D01*
X61850D01*
X59500Y140091D02*
X61417Y142007D01*
X168500Y130528D02*
X168563Y130591D01*
X168500Y128091D02*
Y130528D01*
X168322Y132515D02*
X168563Y132756D01*
X167317Y132515D02*
X168322D01*
X166369Y128975D02*
Y131567D01*
X167317Y132515D01*
X55627Y172516D02*
X61850D01*
X55356Y174484D02*
X61850D01*
X40984Y159908D02*
Y167075D01*
X41000Y167091D01*
X42976Y151673D02*
Y160567D01*
X43000Y160591D01*
X40984Y151650D02*
Y159908D01*
X39000Y168091D02*
X39016Y168075D01*
Y151650D02*
Y168075D01*
X32607Y168091D02*
X32850D01*
X18150Y168579D02*
X32118D01*
X32607Y168091D01*
X18150Y170547D02*
X18171Y170569D01*
X30478D02*
X30500Y170591D01*
X18171Y170569D02*
X30478D01*
X163000Y139591D02*
X164500D01*
X166532Y135750D02*
Y137559D01*
X164500Y139591D02*
X166532Y137559D01*
Y135750D02*
X167317Y134965D01*
X168322D02*
X168563Y134724D01*
X167317Y134965D02*
X168322D01*
X164000Y141591D02*
X164197D01*
X167732Y137327D02*
Y138056D01*
X168169Y136890D02*
X168563D01*
X167732Y137327D02*
X168169Y136890D01*
X164197Y141591D02*
X167732Y138056D01*
X46088Y157410D02*
X46125D01*
X156000Y129957D02*
X161567D01*
X156000Y127398D02*
X161567D01*
X156000Y132516D02*
X161567D01*
X44921Y156243D02*
X46088Y157410D01*
X44921Y151650D02*
Y156243D01*
X46945Y187646D02*
X47000Y187591D01*
X46945Y187646D02*
Y195295D01*
X46890Y195350D02*
X46945Y195295D01*
X44921Y195350D02*
X44961Y195311D01*
Y189130D02*
X45000Y189091D01*
X44961Y189130D02*
Y195311D01*
X42953Y186638D02*
X45500Y184091D01*
X42953Y186638D02*
Y195350D01*
X40992Y184599D02*
X41000Y184591D01*
X40992Y184599D02*
Y195343D01*
X113606Y136890D02*
X114000D01*
X113169Y137327D02*
X113606Y136890D01*
X100957Y132402D02*
X106957D01*
X101000Y129886D02*
X107000D01*
X106957Y132402D02*
X107000Y132445D01*
X100913Y132358D02*
X100957Y132402D01*
X42953Y151650D02*
X42976Y151673D01*
X48833Y189257D02*
X48858Y189282D01*
Y195350D01*
X101000Y111972D02*
X107000D01*
X101000Y114531D02*
X107000D01*
X101000Y117091D02*
X107000D01*
X101000Y127327D02*
X107000D01*
X40984Y195350D02*
X40992Y195343D01*
X50827Y195350D02*
X50913Y195264D01*
Y187677D02*
Y195264D01*
Y187677D02*
X51000Y187591D01*
X156000Y117161D02*
X161567D01*
X156000Y114602D02*
X161567D01*
X53732Y110552D02*
X60034D01*
X53677Y110606D02*
X53732Y110552D01*
X60034D02*
X60291Y110295D01*
X57705Y114295D02*
X60193D01*
X55984Y112575D02*
X57705Y114295D01*
X53677Y112575D02*
X55984D01*
X31295Y114567D02*
X37118D01*
X37142Y114543D01*
X31272Y114590D02*
X31295Y114567D01*
X12000Y119591D02*
Y122927D01*
X12048Y122974D01*
X23666Y136126D02*
X25303Y137764D01*
X37047Y148628D02*
Y151650D01*
X45295Y137862D02*
X49500D01*
X45295D02*
X47500Y135658D01*
X43965Y139193D02*
X45295Y137862D01*
X25303Y137764D02*
X25500D01*
X33351Y134346D02*
Y134453D01*
Y134240D02*
Y134346D01*
X35091Y132500D02*
X35303D01*
X33351Y134346D02*
X33457D01*
X29634D02*
X33351D01*
X26000Y134417D02*
X26036Y134382D01*
X33351Y134240D02*
X35091Y132500D01*
X33291Y134512D02*
X33351Y134453D01*
X33078Y134512D02*
X33291D01*
X33457Y134346D02*
X35303Y132500D01*
X35500D01*
X33110Y143088D02*
Y151650D01*
X29598Y134382D02*
X29634Y134346D01*
X756Y151091D02*
X4583D01*
X756Y145591D02*
X4583D01*
X756Y140091D02*
X4583D01*
X6187Y168425D02*
X10831D01*
X6800Y171791D02*
X7000Y171591D01*
X5690Y169625D02*
X10334D01*
X6800Y171791D02*
Y190588D01*
X10334Y169625D02*
X11300Y170591D01*
X10831Y168425D02*
X12500Y170094D01*
Y175793D01*
X14600Y177893D01*
X8000Y175091D02*
Y190091D01*
Y175091D02*
X8500Y174591D01*
X11300Y176290D02*
X13756Y178746D01*
X10500Y178091D02*
Y178591D01*
X9200Y179891D02*
X10500Y178591D01*
X13756Y178746D02*
Y179018D01*
X14600Y179862D01*
X17621D01*
X11300Y170591D02*
Y176290D01*
X17621Y179862D02*
X18150Y180390D01*
X14600Y177893D02*
X17622D01*
X18150Y178421D01*
X-8150Y90233D02*
X-7740Y89823D01*
X-5472Y106823D02*
X11965D01*
X-6500Y107851D02*
X-5472Y106823D01*
X19986Y192104D02*
X23492D01*
X35079Y192329D02*
Y195350D01*
X18403Y190904D02*
X22995D01*
X39016Y192329D02*
Y195350D01*
X37047Y192329D02*
Y195350D01*
X17905Y189704D02*
X21699D01*
X20693Y57744D02*
X21303Y58354D01*
X21500D01*
X15150Y57744D02*
X20693D01*
X34482Y199744D02*
X37503D01*
X33110Y198372D02*
X34482Y199744D01*
X33110Y195350D02*
Y198372D01*
X37503Y199744D02*
X44154Y206394D01*
X45238D01*
X47697Y208852D02*
Y217984D01*
X45238Y206394D02*
X47697Y208852D01*
X39303Y212329D02*
X41762Y214787D01*
X41762D01*
X27000Y142091D02*
X27113Y142203D01*
Y151558D02*
X27205Y151650D01*
X31071Y151579D02*
X31142Y151650D01*
X9000Y215591D02*
Y227091D01*
X6000Y212591D02*
X9000Y215591D01*
X6000Y201091D02*
Y212591D01*
X56476Y182358D02*
X61850D01*
X56790Y184327D02*
X61850D01*
X54856Y199946D02*
X55000Y200091D01*
X54764Y195350D02*
X54856Y195442D01*
Y199946D01*
X52887Y195442D02*
Y200978D01*
X52795Y195350D02*
X52887Y195442D01*
Y200978D02*
X53000Y201091D01*
X61850Y164642D02*
X62200Y164992D01*
X61850Y166610D02*
X62200Y166960D01*
X39256Y198715D02*
X48897Y208355D01*
X39016Y198433D02*
X39256Y198674D01*
X39016Y195350D02*
Y198433D01*
X39256Y198674D02*
Y198715D01*
X48897Y208355D02*
Y217487D01*
D22*
X6000Y22327D02*
D03*
Y25673D02*
D03*
X29634Y134346D02*
D03*
X29634Y137889D02*
D03*
X25500Y134417D02*
D03*
Y137764D02*
D03*
X21500Y134319D02*
D03*
X21500Y137862D02*
D03*
X49500Y137862D02*
D03*
X49500Y134319D02*
D03*
X54500Y134319D02*
D03*
X54500Y137862D02*
D03*
X21500Y55008D02*
D03*
Y58354D02*
D03*
X10500Y22327D02*
D03*
Y25673D02*
D03*
X1500Y22327D02*
D03*
Y25673D02*
D03*
X-3000Y22327D02*
D03*
Y25673D02*
D03*
D23*
X-3740Y34366D02*
D03*
X3740D02*
D03*
X0Y42634D02*
D03*
X15500D02*
D03*
X19240Y34366D02*
D03*
X11760D02*
D03*
D24*
X59000Y36012D02*
D03*
X143000Y36488D02*
D03*
D25*
X59000Y24988D02*
D03*
X143000Y47512D02*
D03*
D26*
X43000Y24500D02*
D03*
X50000D02*
D03*
D27*
X10673Y166590D02*
D03*
X7327D02*
D03*
X10771Y158590D02*
D03*
X7228Y158591D02*
D03*
X24827Y26000D02*
D03*
X28173D02*
D03*
X5327Y133591D02*
D03*
X8673D02*
D03*
X-2772D02*
D03*
X771Y133590D02*
D03*
X756Y140091D02*
D03*
X-2591D02*
D03*
X756Y145591D02*
D03*
X-2591D02*
D03*
X756Y151091D02*
D03*
X-2591D02*
D03*
X50181Y125090D02*
D03*
X46638Y125091D02*
D03*
X63736Y106295D02*
D03*
X60193Y106295D02*
D03*
X60291Y110295D02*
D03*
X63637D02*
D03*
X63736Y114295D02*
D03*
X60193Y114295D02*
D03*
X27729Y105795D02*
D03*
X31075D02*
D03*
X27729Y110193D02*
D03*
X31075D02*
D03*
X31272Y114590D02*
D03*
X27729Y114591D02*
D03*
X24827Y30500D02*
D03*
X28173D02*
D03*
X174771Y121500D02*
D03*
X171228Y121500D02*
D03*
X171229Y124500D02*
D03*
X174772Y124500D02*
D03*
X120772D02*
D03*
X117229Y124500D02*
D03*
X120771Y121500D02*
D03*
X117228Y121500D02*
D03*
X73772Y162500D02*
D03*
X70229Y162500D02*
D03*
X73173Y180500D02*
D03*
X69827D02*
D03*
X73272Y188181D02*
D03*
X69729Y188181D02*
D03*
X28272Y202590D02*
D03*
X24729Y202591D02*
D03*
D28*
X90441Y58341D02*
D03*
X95559D02*
D03*
X36618Y91000D02*
D03*
X31500D02*
D03*
X48559Y91000D02*
D03*
X43440D02*
D03*
X36559Y84500D02*
D03*
X31440D02*
D03*
X168941Y110500D02*
D03*
X174059D02*
D03*
X168941Y106000D02*
D03*
X174059D02*
D03*
X114441Y105000D02*
D03*
X119559D02*
D03*
X114441Y109500D02*
D03*
X119559D02*
D03*
D29*
X107000Y83782D02*
D03*
Y88900D02*
D03*
X87500D02*
D03*
Y83782D02*
D03*
X94000Y83782D02*
D03*
Y88900D02*
D03*
X100500Y88900D02*
D03*
Y83782D02*
D03*
X81000Y76900D02*
D03*
Y71782D02*
D03*
X81000Y83782D02*
D03*
Y88900D02*
D03*
X74500Y88959D02*
D03*
Y83841D02*
D03*
X74500Y76900D02*
D03*
Y71782D02*
D03*
Y64900D02*
D03*
Y59782D02*
D03*
X81000Y64900D02*
D03*
Y59782D02*
D03*
X51546Y30941D02*
D03*
Y36059D02*
D03*
X39500Y30941D02*
D03*
Y36059D02*
D03*
X33500Y30941D02*
D03*
Y36059D02*
D03*
X45500Y30941D02*
D03*
Y36059D02*
D03*
D30*
X86291Y38841D02*
D03*
X97512D02*
D03*
X86291Y49341D02*
D03*
X97512D02*
D03*
D31*
X106000Y66341D02*
D03*
X131000D02*
D03*
D32*
X103555Y27000D02*
D03*
X85445D02*
D03*
D33*
X116260Y47341D02*
D03*
X123740D02*
D03*
X116260Y38841D02*
D03*
X123740D02*
D03*
D34*
X87661Y76166D02*
D03*
X90220D02*
D03*
X92779D02*
D03*
X95339D02*
D03*
Y65516D02*
D03*
X92779D02*
D03*
X90220D02*
D03*
X87661D02*
D03*
D35*
X143500Y84741D02*
D03*
Y77260D02*
D03*
D36*
X114000Y134724D02*
D03*
Y132756D02*
D03*
X117937D02*
D03*
Y134724D02*
D03*
X168563D02*
D03*
Y132756D02*
D03*
X172500D02*
D03*
Y134724D02*
D03*
D37*
X114000Y136890D02*
D03*
Y130591D02*
D03*
X117937D02*
D03*
Y136890D02*
D03*
X168563D02*
D03*
Y130591D02*
D03*
X172500D02*
D03*
Y136890D02*
D03*
D38*
X40000Y68721D02*
D03*
D39*
X49055Y46279D02*
D03*
X40000D02*
D03*
X30945D02*
D03*
D40*
X19811Y16512D02*
D03*
X20992D02*
D03*
X22961D02*
D03*
X24142D02*
D03*
X26110D02*
D03*
X28079D02*
D03*
X30047D02*
D03*
X35953D02*
D03*
X37921D02*
D03*
X39890D02*
D03*
X41858D02*
D03*
X43039D02*
D03*
X45008D02*
D03*
X46189D02*
D03*
X32016D02*
D03*
X33984D02*
D03*
D41*
X6000Y61681D02*
D03*
D42*
X-3150Y55776D02*
D03*
Y57744D02*
D03*
Y59713D02*
D03*
Y61681D02*
D03*
Y63650D02*
D03*
Y65618D02*
D03*
Y67587D02*
D03*
X15150D02*
D03*
Y65618D02*
D03*
Y63650D02*
D03*
Y61681D02*
D03*
Y59713D02*
D03*
Y57744D02*
D03*
Y55776D02*
D03*
D43*
X95Y70831D02*
D03*
X2063D02*
D03*
X4032D02*
D03*
X6000D02*
D03*
X7969D02*
D03*
X9937D02*
D03*
X11906D02*
D03*
Y52531D02*
D03*
X9937D02*
D03*
X7969D02*
D03*
X6000D02*
D03*
X4032D02*
D03*
X2063D02*
D03*
X95D02*
D03*
D44*
X4583Y151091D02*
D03*
X8583D02*
D03*
X4583Y145591D02*
D03*
X8583D02*
D03*
X4583Y140091D02*
D03*
X8583D02*
D03*
D45*
X40488Y103323D02*
D03*
X42457D02*
D03*
X44425D02*
D03*
X46394D02*
D03*
X48362D02*
D03*
X50331D02*
D03*
Y119858D02*
D03*
X48362D02*
D03*
X46394D02*
D03*
X44425D02*
D03*
X42457D02*
D03*
X40488D02*
D03*
D46*
X53677Y106669D02*
D03*
Y108638D02*
D03*
Y110606D02*
D03*
Y112575D02*
D03*
Y114543D02*
D03*
Y116512D02*
D03*
X37142D02*
D03*
Y114543D02*
D03*
Y112575D02*
D03*
Y110606D02*
D03*
Y108638D02*
D03*
Y106669D02*
D03*
D47*
X45409Y111591D02*
D03*
D48*
X11965Y81358D02*
D03*
X-4964D02*
D03*
X11965Y89823D02*
D03*
X-4964D02*
D03*
X11965Y98358D02*
D03*
X-4964D02*
D03*
X11965Y106823D02*
D03*
X-4964D02*
D03*
X11965Y115268D02*
D03*
X-4964D02*
D03*
X11965Y123732D02*
D03*
X-4964D02*
D03*
D49*
X8012Y16000D02*
D03*
D50*
X-3012D02*
D03*
D51*
X43768Y139193D02*
D03*
X35500D02*
D03*
Y132500D02*
D03*
X43768D02*
D03*
D52*
X161567Y119720D02*
D03*
Y122280D02*
D03*
Y124839D02*
D03*
Y135075D02*
D03*
X132433Y112043D02*
D03*
Y114602D02*
D03*
Y117161D02*
D03*
Y119720D02*
D03*
Y122280D02*
D03*
Y124839D02*
D03*
Y127398D02*
D03*
Y129957D02*
D03*
Y132516D02*
D03*
Y109484D02*
D03*
Y106925D02*
D03*
X161567Y109484D02*
D03*
Y106925D02*
D03*
Y132516D02*
D03*
Y117161D02*
D03*
Y114602D02*
D03*
Y112043D02*
D03*
Y127398D02*
D03*
Y129957D02*
D03*
X107000Y119650D02*
D03*
Y122209D02*
D03*
Y124768D02*
D03*
Y135004D02*
D03*
X77866Y111972D02*
D03*
Y114531D02*
D03*
Y117091D02*
D03*
Y119650D02*
D03*
Y122209D02*
D03*
Y124768D02*
D03*
Y127327D02*
D03*
Y129886D02*
D03*
Y132445D02*
D03*
Y109413D02*
D03*
Y106854D02*
D03*
X107000Y109413D02*
D03*
Y106854D02*
D03*
Y132445D02*
D03*
Y117091D02*
D03*
Y114531D02*
D03*
Y111972D02*
D03*
Y127327D02*
D03*
Y129886D02*
D03*
D53*
X132433Y135075D02*
D03*
X77866Y135004D02*
D03*
D54*
X61850Y186295D02*
D03*
Y184327D02*
D03*
Y178421D02*
D03*
Y180390D02*
D03*
Y182358D02*
D03*
Y188264D02*
D03*
Y168579D02*
D03*
Y164642D02*
D03*
Y166610D02*
D03*
Y170547D02*
D03*
Y158736D02*
D03*
Y160705D02*
D03*
Y162673D02*
D03*
Y172516D02*
D03*
Y174484D02*
D03*
Y176453D02*
D03*
X18150Y188264D02*
D03*
Y186295D02*
D03*
Y184327D02*
D03*
Y182358D02*
D03*
Y180390D02*
D03*
Y178421D02*
D03*
Y176453D02*
D03*
Y174484D02*
D03*
Y172516D02*
D03*
Y170547D02*
D03*
Y168579D02*
D03*
Y166610D02*
D03*
Y164642D02*
D03*
Y162673D02*
D03*
Y160705D02*
D03*
Y158736D02*
D03*
D55*
X25236Y151650D02*
D03*
X27205D02*
D03*
X29173D02*
D03*
X31142D02*
D03*
X33110D02*
D03*
X35079D02*
D03*
X37047D02*
D03*
X39016D02*
D03*
X40984D02*
D03*
X42953D02*
D03*
X44921D02*
D03*
X46890D02*
D03*
X48858D02*
D03*
X50827D02*
D03*
X52795D02*
D03*
X54764D02*
D03*
Y195350D02*
D03*
X52795D02*
D03*
X50827D02*
D03*
X48858D02*
D03*
X46890D02*
D03*
X44921D02*
D03*
X42953D02*
D03*
X40984D02*
D03*
X39016D02*
D03*
X37047D02*
D03*
X35079D02*
D03*
X33110D02*
D03*
X31142D02*
D03*
X29173D02*
D03*
X27205D02*
D03*
X25236D02*
D03*
D101*
X25500Y10000D02*
X39500D01*
X19240Y34243D02*
X20998Y36000D01*
X10500Y25673D02*
X17483D01*
X19240Y27431D02*
Y34243D01*
X17483Y25673D02*
X19240Y27431D01*
X20998Y36000D02*
X33442D01*
X33500Y36059D01*
X59000Y35709D02*
X59075Y35635D01*
X61743D02*
X63500Y33877D01*
X59000Y35709D02*
Y36012D01*
X63500Y20757D02*
Y33877D01*
X59075Y35635D02*
X61743D01*
X59000Y36000D02*
Y36012D01*
X51604Y36000D02*
X59000D01*
X46493D02*
X51546D01*
X61743Y19000D02*
X63500Y20757D01*
X61500Y19000D02*
X61743D01*
X55500Y13000D02*
X61500Y19000D01*
X58906Y24500D02*
X59000Y24595D01*
X50000Y24500D02*
X58906D01*
X59000Y24595D02*
Y24988D01*
X139000Y18500D02*
X143000Y22500D01*
Y36488D01*
X169500Y125091D02*
X172500Y128091D01*
X168000Y122091D02*
X172500Y117591D01*
X153500Y74500D02*
Y84500D01*
Y64500D02*
Y74500D01*
Y84500D02*
Y94500D01*
Y44500D02*
Y54500D01*
Y64500D01*
Y34500D02*
Y44500D01*
X139000Y-8743D02*
Y18500D01*
X153500Y94500D02*
X153854Y94854D01*
X155611Y101000D02*
X175963D01*
X153854Y94854D02*
Y99243D01*
X155611Y101000D01*
X175963D02*
X177720Y102757D01*
Y114613D01*
X40000Y66500D02*
Y68721D01*
Y46279D02*
Y66500D01*
X35000Y69000D02*
X35311D01*
X25500D02*
X35000D01*
X35311D02*
X36713Y67598D01*
X40045Y36059D02*
Y46279D01*
X39500Y36059D02*
X40046D01*
X34046D02*
X39500D01*
X137243Y-10500D02*
X139000Y-8743D01*
X57257Y-10500D02*
X137243D01*
X55500Y-8743D02*
Y13000D01*
Y-8743D02*
X57257Y-10500D01*
X117937Y134724D02*
Y136890D01*
Y130591D02*
Y132756D01*
Y134724D01*
X60193Y103848D02*
X61950Y102091D01*
X40000Y68721D02*
X40220Y68500D01*
X40045Y36059D02*
X40046Y36059D01*
X51546D02*
X51604Y36000D01*
X117937Y125209D02*
Y130591D01*
Y136890D02*
Y137584D01*
X57364Y137741D02*
X60473D01*
X56193D02*
X57364D01*
X20000Y74500D02*
X25500Y69000D01*
X71486Y193591D02*
X74543D01*
X66500D02*
X71486D01*
X20000Y74500D02*
Y90853D01*
X50520Y143460D02*
X50750Y143230D01*
Y142910D02*
Y143230D01*
X117229Y124500D02*
X117937Y125209D01*
X23225Y98841D02*
X57251D01*
X22000Y100066D02*
X23225Y98841D01*
X20032Y90885D02*
Y98098D01*
X22000Y100066D01*
X20000Y90853D02*
X20032Y90885D01*
X16000Y137091D02*
X16960D01*
X9000D02*
X16000D01*
X117937Y137584D02*
X119000Y138647D01*
Y155687D01*
X113000Y161687D02*
X119000Y155687D01*
X70229Y162500D02*
Y163819D01*
X76300Y169891D02*
Y191833D01*
X70229Y163819D02*
X76300Y169891D01*
X70229Y158476D02*
Y162500D01*
X172500Y136890D02*
Y152591D01*
X163000Y162091D02*
X172500Y152591D01*
X113000Y161687D02*
Y162091D01*
X175243Y117091D02*
X177720Y114613D01*
X172500Y117091D02*
X175243D01*
X172500D02*
Y117591D01*
X16000Y106066D02*
Y137091D01*
Y106066D02*
X22000Y100066D01*
X8673Y133591D02*
Y136764D01*
X57364Y137741D02*
X59000Y136104D01*
X54500Y137862D02*
X56072D01*
X60473Y137741D02*
X60595Y137862D01*
X62743D01*
X56072D02*
X56193Y137741D01*
X59000Y127591D02*
Y136104D01*
X54500Y137862D02*
Y139159D01*
X50750Y142910D02*
X54500Y139159D01*
X21500Y137862D02*
Y140591D01*
X19757Y137862D02*
X21500D01*
Y140591D02*
X24000Y143091D01*
X18986Y137091D02*
X19757Y137862D01*
X17014Y137091D02*
X18986D01*
X4129Y172158D02*
Y195259D01*
X-2591Y165439D02*
X4129Y172158D01*
X-2591Y151091D02*
Y165439D01*
X4129Y195259D02*
X11460Y202591D01*
X24729D01*
X74543Y193591D02*
X76300Y191833D01*
X69729Y191833D02*
X71486Y193591D01*
X69729Y188181D02*
Y191833D01*
X55028Y205062D02*
X66500Y193591D01*
X53500Y210591D02*
X55028Y209062D01*
Y205062D02*
Y209062D01*
X-2591Y138837D02*
Y140091D01*
Y145591D01*
X-844Y137091D02*
X9000D01*
X-2591Y138837D02*
X-844Y137091D01*
X8673Y136764D02*
X9000Y137091D01*
X-2591Y145591D02*
Y151091D01*
X60193Y103848D02*
Y106295D01*
Y101783D02*
Y103848D01*
X57251Y98841D02*
X60193Y101783D01*
X61950Y102091D02*
X66743D01*
X68500Y103848D01*
Y121090D01*
X64500Y125090D02*
X68500Y121090D01*
X56500Y125090D02*
X64500D01*
X62743Y137862D02*
X64500Y139619D01*
Y152747D01*
X70229Y158476D01*
X51000Y125090D02*
X56500D01*
X59000Y127591D01*
X22000Y100066D02*
X27729Y105795D01*
Y110193D01*
X57500Y107591D02*
X58795Y106295D01*
X60193D01*
X167000Y124591D02*
X167360D01*
X172500Y128091D02*
Y130591D01*
X169000Y125091D02*
X169500D01*
X172500Y134724D02*
Y136890D01*
Y132756D02*
Y134724D01*
Y130591D02*
Y132756D01*
D102*
X81500Y100091D02*
X116750D01*
X149500Y111020D02*
X152429Y108091D01*
X166500D01*
X107000D02*
X111000D01*
X149500Y111020D02*
X151000Y112520D01*
Y131091D01*
X49500Y90877D02*
X63500D01*
X116750Y100091D02*
X138571D01*
X114250Y102591D02*
X116750Y100091D01*
X138571D02*
X149500Y111020D01*
X96500Y111098D02*
Y130621D01*
X99426Y108172D02*
X106918D01*
X107000Y108091D01*
X96500Y111098D02*
X99426Y108172D01*
X114441Y103019D02*
Y105000D01*
D103*
X141500Y138000D02*
X151500Y148000D01*
X141500Y121606D02*
Y138000D01*
X151500Y148000D02*
Y198091D01*
X161653Y150744D02*
X163000Y152091D01*
X146000Y117833D02*
Y135090D01*
X161653Y150744D02*
Y150744D01*
X146000Y135090D02*
X161653Y150744D01*
X129500Y118591D02*
X132433D01*
X136305Y108138D02*
X146000Y117833D01*
X132433Y118591D02*
X132835Y118992D01*
X138886D01*
X141500Y121606D01*
X132480Y108138D02*
X136305D01*
X132433Y108091D02*
X132480Y108138D01*
X129500Y108091D02*
X132433D01*
X75500Y118091D02*
X77866D01*
X84657D01*
X87000Y137500D02*
X100500Y151000D01*
X91500Y116333D02*
Y135636D01*
X106854Y150990D01*
X87000Y120434D02*
Y137500D01*
X100500Y151000D02*
Y199747D01*
X106854Y150990D02*
X111900D01*
X113000Y152091D01*
X77866Y108091D02*
X83258D01*
X75500D02*
X77866D01*
X84657Y118091D02*
X87000Y120434D01*
X83258Y108091D02*
X91500Y116333D01*
X125000Y127229D02*
X128119Y124110D01*
X129169Y123258D01*
X125000Y158591D02*
X129500Y163091D01*
X125000Y127229D02*
Y158591D01*
X136653Y150744D02*
X138000Y152091D01*
X130693Y148401D02*
X133036Y150744D01*
X130693Y136287D02*
Y148401D01*
X133036Y150744D02*
X136653D01*
X102843Y202091D02*
X113000D01*
X100500Y199747D02*
X102843Y202091D01*
X77866Y123591D02*
X80366D01*
X77866D02*
X80366D01*
X77866D02*
X80366D01*
X77866D02*
X80366D01*
X77866D02*
X80366D01*
X75343Y134091D02*
X80000D01*
X75343D02*
X80000D01*
X75343D02*
X80000D01*
X75343D02*
X80000D01*
X75343D02*
X80000D01*
X85970Y202030D02*
X87939D01*
X80500Y163091D02*
Y196560D01*
X87939Y202030D02*
X88000Y202091D01*
X80500Y196560D02*
X85970Y202030D01*
X68500Y151091D02*
X80500Y163091D01*
X131843Y202091D02*
X138000D01*
X129500Y199747D02*
X131843Y202091D01*
X129500Y163091D02*
Y199747D01*
X77500Y152091D02*
X88000D01*
X73000Y147591D02*
X77500Y152091D01*
X73000Y136434D02*
Y147591D01*
X77417Y124039D02*
X77866Y123591D01*
X68500Y128591D02*
Y151091D01*
X73051Y124039D02*
X77417D01*
X68500Y128591D02*
X73051Y124039D01*
X73000Y136434D02*
X75343Y134091D01*
X151500Y198091D02*
X155500Y202091D01*
X163000D01*
D104*
X83500Y218091D02*
D03*
X93500D02*
D03*
X103500D02*
D03*
X143500Y228091D02*
D03*
Y218091D02*
D03*
X133500D02*
D03*
Y228091D02*
D03*
X123500D02*
D03*
Y218091D02*
D03*
X83500Y228091D02*
D03*
X93500D02*
D03*
X103500D02*
D03*
X113500D02*
D03*
Y218091D02*
D03*
X153500D02*
D03*
D105*
Y228091D02*
D03*
D106*
X148000Y-909D02*
D03*
D107*
X128000D02*
D03*
D108*
X173500Y94500D02*
D03*
Y44500D02*
D03*
Y54500D02*
D03*
Y64500D02*
D03*
Y74500D02*
D03*
Y84500D02*
D03*
X153500Y94500D02*
D03*
Y44500D02*
D03*
Y54500D02*
D03*
Y64500D02*
D03*
Y74500D02*
D03*
Y84500D02*
D03*
X163500Y94500D02*
D03*
Y44500D02*
D03*
Y54500D02*
D03*
Y64500D02*
D03*
Y74500D02*
D03*
Y84500D02*
D03*
X-1500Y194091D02*
D03*
Y184091D02*
D03*
Y174091D02*
D03*
X23500Y210591D02*
D03*
X33500D02*
D03*
X43500D02*
D03*
X163000Y202091D02*
D03*
Y162091D02*
D03*
Y172091D02*
D03*
Y182091D02*
D03*
Y192091D02*
D03*
X138000Y202091D02*
D03*
Y162091D02*
D03*
Y172091D02*
D03*
Y182091D02*
D03*
Y192091D02*
D03*
X113000Y202091D02*
D03*
Y162091D02*
D03*
Y172091D02*
D03*
Y182091D02*
D03*
Y192091D02*
D03*
X88000Y202091D02*
D03*
Y162091D02*
D03*
Y172091D02*
D03*
Y182091D02*
D03*
Y192091D02*
D03*
D109*
X173500Y34500D02*
D03*
X153500D02*
D03*
X163500D02*
D03*
X-1500Y204091D02*
D03*
D110*
X15972Y12417D02*
D03*
X50027D02*
D03*
D111*
X15972Y-3331D02*
D03*
X50027D02*
D03*
D112*
X44378Y10449D02*
D03*
X21622D02*
D03*
D113*
X84996Y-409D02*
D03*
X66492D02*
D03*
X103500D02*
D03*
D114*
X53500Y210591D02*
D03*
X163000Y152091D02*
D03*
X138000D02*
D03*
X113000D02*
D03*
X88000D02*
D03*
D115*
X-6350Y19500D02*
D03*
X36000Y21591D02*
D03*
X32000D02*
D03*
X-4500Y45950D02*
D03*
Y43850D02*
D03*
X28000Y20650D02*
D03*
X3500Y44850D02*
D03*
X13000Y3500D02*
D03*
X25000Y-1000D02*
D03*
X64500Y213950D02*
D03*
X74000Y227500D02*
D03*
Y220500D02*
D03*
X28500Y212750D02*
D03*
X162000Y232000D02*
D03*
X44000Y224000D02*
D03*
X40000D02*
D03*
X35500D02*
D03*
X111500Y20500D02*
D03*
X115500D02*
D03*
X103500Y16500D02*
D03*
X67000Y12500D02*
D03*
X63500D02*
D03*
X107500Y16500D02*
D03*
X103500Y12000D02*
D03*
X156000Y112043D02*
D03*
X49500Y134319D02*
D03*
X9000Y148500D02*
D03*
X6500Y114500D02*
D03*
X1500Y121000D02*
D03*
X6500Y78000D02*
D03*
X500D02*
D03*
X6000Y84000D02*
D03*
X500D02*
D03*
X6000Y96000D02*
D03*
X-500D02*
D03*
X6000Y101500D02*
D03*
X0Y101000D02*
D03*
X17000Y4000D02*
D03*
X-9500Y5500D02*
D03*
Y1000D02*
D03*
X-8000Y-4500D02*
D03*
X-3500Y-8500D02*
D03*
X4500Y-9000D02*
D03*
X12000Y-9500D02*
D03*
X45500Y4000D02*
D03*
X41000D02*
D03*
X42000Y-8000D02*
D03*
X27500Y-9500D02*
D03*
X35500Y-9000D02*
D03*
X45500Y-9500D02*
D03*
X39000D02*
D03*
X31000D02*
D03*
X24500D02*
D03*
X45000Y-5000D02*
D03*
X39000Y-4500D02*
D03*
X34000Y-5000D02*
D03*
X30000D02*
D03*
X25000Y-4500D02*
D03*
X44500Y-1000D02*
D03*
X41000Y-500D02*
D03*
X37000Y-1000D02*
D03*
X33500D02*
D03*
X29500D02*
D03*
X67000Y8500D02*
D03*
X63500D02*
D03*
X115500Y12000D02*
D03*
X111500D02*
D03*
X107500D02*
D03*
X115500Y16500D02*
D03*
X111500D02*
D03*
X107500Y20500D02*
D03*
X103500D02*
D03*
X112500Y37500D02*
D03*
Y40500D02*
D03*
Y43500D02*
D03*
Y46500D02*
D03*
Y49500D02*
D03*
X104000Y35500D02*
D03*
Y38500D02*
D03*
Y41500D02*
D03*
Y44500D02*
D03*
Y47500D02*
D03*
Y50500D02*
D03*
X149000Y-9000D02*
D03*
X146000Y-8000D02*
D03*
X154500Y-3500D02*
D03*
X152500Y-8500D02*
D03*
X155000Y2000D02*
D03*
X158000Y0D02*
D03*
Y-7000D02*
D03*
X162000Y-9000D02*
D03*
X168000Y-8500D02*
D03*
X173000Y-7000D02*
D03*
X175500Y-3000D02*
D03*
X176500Y2000D02*
D03*
X175500Y14500D02*
D03*
X173500Y7500D02*
D03*
X163000D02*
D03*
X157000Y5500D02*
D03*
X151072Y6504D02*
D03*
X146000Y7000D02*
D03*
X147000Y11500D02*
D03*
X152500Y11000D02*
D03*
X156000D02*
D03*
X161500D02*
D03*
X167000Y11500D02*
D03*
X172000D02*
D03*
X171500Y15000D02*
D03*
X167000Y15500D02*
D03*
X161500Y15000D02*
D03*
X156000D02*
D03*
X151000D02*
D03*
X146000D02*
D03*
X44000Y146000D02*
D03*
X175500Y183000D02*
D03*
Y188500D02*
D03*
Y192000D02*
D03*
Y196500D02*
D03*
X121500Y183500D02*
D03*
X145500Y183000D02*
D03*
X171000Y182500D02*
D03*
X175500Y200500D02*
D03*
X174500Y210000D02*
D03*
X177000Y211000D02*
D03*
X170000Y209000D02*
D03*
X166500Y212500D02*
D03*
X172000Y213500D02*
D03*
X177000Y215500D02*
D03*
Y220000D02*
D03*
X176500Y225500D02*
D03*
X174500Y228500D02*
D03*
X171500Y231000D02*
D03*
X167000Y232000D02*
D03*
X174500Y205500D02*
D03*
X171000Y203000D02*
D03*
X149500Y204000D02*
D03*
X98000Y203000D02*
D03*
X125500D02*
D03*
X145500Y201500D02*
D03*
X121500Y201000D02*
D03*
X94500D02*
D03*
X66000Y232000D02*
D03*
X62000D02*
D03*
X57500D02*
D03*
X53000D02*
D03*
X48500D02*
D03*
X44000D02*
D03*
X40000D02*
D03*
X30500Y224000D02*
D03*
X26500D02*
D03*
X22000D02*
D03*
X18000D02*
D03*
X13500D02*
D03*
X35500Y232000D02*
D03*
X31500D02*
D03*
X27500D02*
D03*
X23000D02*
D03*
X11500D02*
D03*
X6000D02*
D03*
X0D02*
D03*
X-5000Y230500D02*
D03*
X-8000Y228000D02*
D03*
X-9500Y224000D02*
D03*
Y219000D02*
D03*
X-6000Y190500D02*
D03*
X-5000Y169000D02*
D03*
X-8000Y152500D02*
D03*
Y148500D02*
D03*
Y144000D02*
D03*
Y140000D02*
D03*
X123500Y115000D02*
D03*
X119500D02*
D03*
X40000Y95000D02*
D03*
X58000Y120091D02*
D03*
X112000Y128000D02*
D03*
X114500Y128131D02*
D03*
X108951Y145466D02*
D03*
X30500Y30500D02*
D03*
X-7688Y61667D02*
D03*
X6000Y64500D02*
D03*
X-7500Y53091D02*
D03*
X3181Y61681D02*
D03*
X8819D02*
D03*
X3181Y58862D02*
D03*
X8819Y64500D02*
D03*
X6000Y58862D02*
D03*
X8819D02*
D03*
X6000Y61681D02*
D03*
X-7700Y59567D02*
D03*
X-3500Y71091D02*
D03*
X3181Y64500D02*
D03*
X112500Y147000D02*
D03*
X31000Y201000D02*
D03*
X30000Y190000D02*
D03*
X17500Y209000D02*
D03*
X11500D02*
D03*
X4000Y208500D02*
D03*
X28000D02*
D03*
X27500Y191500D02*
D03*
X36500Y201394D02*
D03*
X19500Y196500D02*
D03*
X24500Y180500D02*
D03*
X10850Y188500D02*
D03*
X12500Y190500D02*
D03*
X14745Y188356D02*
D03*
X58485Y141741D02*
D03*
X173500Y113500D02*
D03*
X49500Y19500D02*
D03*
X121500Y196500D02*
D03*
X95500Y157500D02*
D03*
X11500Y133500D02*
D03*
X171000Y192000D02*
D03*
X145500Y187500D02*
D03*
Y192000D02*
D03*
X59500Y193000D02*
D03*
X171000Y196500D02*
D03*
X145500D02*
D03*
X70000Y232000D02*
D03*
X-6000Y135000D02*
D03*
X-3000Y119500D02*
D03*
X3000Y111000D02*
D03*
X23500Y119000D02*
D03*
X29500Y125500D02*
D03*
X63500Y131000D02*
D03*
X94500Y196500D02*
D03*
X10000Y111000D02*
D03*
X54500Y130500D02*
D03*
X95000Y170000D02*
D03*
X43768Y132500D02*
D03*
X57500Y145000D02*
D03*
X7000Y157500D02*
D03*
X121500Y192000D02*
D03*
X73500Y185000D02*
D03*
Y176000D02*
D03*
X29538Y139962D02*
D03*
X22000Y133000D02*
D03*
X2874Y161000D02*
D03*
X76500Y164500D02*
D03*
X107000Y159000D02*
D03*
X83000Y160000D02*
D03*
X121500Y187500D02*
D03*
X18000Y232000D02*
D03*
X138000Y114500D02*
D03*
X114000Y115000D02*
D03*
X127000Y112500D02*
D03*
X72000Y114500D02*
D03*
X171000Y187500D02*
D03*
X72000Y111500D02*
D03*
X94500Y192000D02*
D03*
X83000Y112500D02*
D03*
X94500Y187500D02*
D03*
X59500Y144000D02*
D03*
X100300Y120500D02*
D03*
Y124500D02*
D03*
X41000Y184591D02*
D03*
X164000Y141591D02*
D03*
X163000Y139591D02*
D03*
X168500Y128091D02*
D03*
X51686Y172426D02*
D03*
X48833Y189257D02*
D03*
X61417Y142007D02*
D03*
X101000Y117091D02*
D03*
X51000Y187591D02*
D03*
X6000Y201091D02*
D03*
X33500Y158091D02*
D03*
X10500Y178091D02*
D03*
X156000Y114602D02*
D03*
X166369Y128975D02*
D03*
X-7000Y128591D02*
D03*
X45000Y189091D02*
D03*
X30000Y158591D02*
D03*
X156000Y117161D02*
D03*
X53000Y201091D02*
D03*
X8500Y174591D02*
D03*
X67500Y201500D02*
D03*
X-6500Y111091D02*
D03*
X78000Y205500D02*
D03*
X37000Y121591D02*
D03*
X101000Y127327D02*
D03*
Y129886D02*
D03*
X68850Y199500D02*
D03*
X101000Y114531D02*
D03*
Y111972D02*
D03*
X53000Y184091D02*
D03*
X7000Y171591D02*
D03*
X31000Y146091D02*
D03*
X29000Y144091D02*
D03*
X27000Y142091D02*
D03*
X43000Y160591D02*
D03*
X47000Y176091D02*
D03*
X9000Y227091D02*
D03*
X45500Y174591D02*
D03*
X55000Y200091D02*
D03*
X12000Y119591D02*
D03*
X52000Y180091D02*
D03*
X100913Y132358D02*
D03*
X54000Y171809D02*
D03*
X30000Y176091D02*
D03*
X28515Y177576D02*
D03*
X32500Y184000D02*
D03*
X15150Y144091D02*
D03*
X13350Y141500D02*
D03*
X69500Y172000D02*
D03*
X71500Y170000D02*
D03*
X21500Y130741D02*
D03*
X74000Y199500D02*
D03*
X29475Y128615D02*
D03*
X65500Y199500D02*
D03*
X55700Y182891D02*
D03*
X40500Y123591D02*
D03*
X46125Y157410D02*
D03*
X34000Y106591D02*
D03*
X56310Y184900D02*
D03*
X71500Y201500D02*
D03*
X54561Y147997D02*
D03*
X56500Y147191D02*
D03*
X66950Y178000D02*
D03*
X73500Y207291D02*
D03*
X67894Y176000D02*
D03*
X18800Y130741D02*
D03*
X156000Y127398D02*
D03*
Y129957D02*
D03*
Y132516D02*
D03*
X39000Y168091D02*
D03*
X30500Y170591D02*
D03*
X41000Y167091D02*
D03*
X16650Y142606D02*
D03*
X55500Y179591D02*
D03*
X22500Y156091D02*
D03*
X32850Y168091D02*
D03*
X47000Y187591D02*
D03*
X20400Y156091D02*
D03*
X34000Y110091D02*
D03*
D116*
X35491Y10039D02*
D03*
X32095D02*
D03*
X28491D02*
D03*
X24500Y49000D02*
D03*
Y52000D02*
D03*
Y55000D02*
D03*
D117*
X127395Y47588D02*
D03*
X81000Y92500D02*
D03*
X45000Y69000D02*
D03*
X35000Y71500D02*
D03*
X42500D02*
D03*
X35000Y66500D02*
D03*
X37500Y71500D02*
D03*
X40000D02*
D03*
X37500Y66500D02*
D03*
X40000Y69000D02*
D03*
X35000D02*
D03*
X37500D02*
D03*
X45000Y71500D02*
D03*
X42500Y69000D02*
D03*
X40000Y66500D02*
D03*
X42500D02*
D03*
X45000D02*
D03*
M02*
