G04*
G04 #@! TF.GenerationSoftware,Altium Limited,Altium Designer,21.0.8 (223)*
G04*
G04 Layer_Color=128*
%FSLAX25Y25*%
%MOIN*%
G70*
G04*
G04 #@! TF.SameCoordinates,A549570C-46D9-4B88-8448-2E2A44270287*
G04*
G04*
G04 #@! TF.FilePolarity,Positive*
G04*
G01*
G75*
%ADD10C,0.00000*%
%ADD11C,0.00236*%
%ADD12C,0.00591*%
%ADD13C,0.00394*%
%ADD14C,0.00100*%
%ADD15C,0.00200*%
%ADD16C,0.00300*%
%ADD17C,0.00197*%
%ADD18C,0.00158*%
%ADD19C,0.00600*%
G36*
X4083Y152291D02*
Y152191D01*
X4007Y152007D01*
X3866Y151867D01*
X3682Y151791D01*
X3083D01*
Y152791D01*
X4083D01*
Y152291D01*
D02*
G37*
G36*
Y146791D02*
Y146691D01*
X4007Y146507D01*
X3866Y146367D01*
X3682Y146291D01*
X3083D01*
Y147291D01*
X4083D01*
Y146791D01*
D02*
G37*
G36*
Y141291D02*
Y141191D01*
X4007Y141007D01*
X3866Y140867D01*
X3682Y140791D01*
X3083D01*
Y141791D01*
X4083D01*
Y141291D01*
D02*
G37*
G36*
X11768Y113201D02*
X-4767D01*
Y125799D01*
X11768D01*
Y113201D01*
D02*
G37*
G36*
Y96292D02*
X-4767D01*
Y108890D01*
X11768D01*
Y96292D01*
D02*
G37*
G36*
Y79291D02*
X-4767D01*
Y91890D01*
X11768D01*
Y79291D01*
D02*
G37*
G36*
X99900Y61041D02*
X83100D01*
Y80641D01*
X99900D01*
Y61041D01*
D02*
G37*
D10*
X-3850Y51831D02*
X15850D01*
X-3850D02*
Y71531D01*
X15850D01*
Y51831D02*
Y71531D01*
X-505D02*
X695D01*
X-505D02*
X695D01*
X1463D02*
X2663D01*
X1463D02*
X2663D01*
X3432D02*
X4632D01*
X3432D02*
X4632D01*
X5400D02*
X6600D01*
X5400D02*
X6600D01*
X7369D02*
X8569D01*
X7369D02*
X8569D01*
X9337D02*
X10537D01*
X9337D02*
X10537D01*
X11306D02*
X12506D01*
X11306D02*
X12506D01*
X15850Y66987D02*
Y68187D01*
Y66987D02*
Y68187D01*
Y65018D02*
Y66218D01*
Y65018D02*
Y66218D01*
Y63050D02*
Y64250D01*
Y63050D02*
Y64250D01*
Y61081D02*
Y62281D01*
Y61081D02*
Y62281D01*
Y59113D02*
Y60313D01*
Y59113D02*
Y60313D01*
Y57144D02*
Y58344D01*
Y57144D02*
Y58344D01*
Y55176D02*
Y56376D01*
Y55176D02*
Y56376D01*
X11306Y51831D02*
X12506D01*
X11306D02*
X12506D01*
X9337D02*
X10537D01*
X9337D02*
X10537D01*
X7369D02*
X8569D01*
X7369D02*
X8569D01*
X5400D02*
X6600D01*
X5400D02*
X6600D01*
X3432D02*
X4632D01*
X3432D02*
X4632D01*
X1463D02*
X2663D01*
X1463D02*
X2663D01*
X-505D02*
X695D01*
X-505D02*
X695D01*
X-3850Y55176D02*
Y56376D01*
Y55176D02*
Y56376D01*
Y57144D02*
Y58344D01*
Y57144D02*
Y58344D01*
Y59113D02*
Y60313D01*
Y59113D02*
Y60313D01*
Y61081D02*
Y62281D01*
Y61081D02*
Y62281D01*
Y63050D02*
Y64250D01*
Y63050D02*
Y64250D01*
Y65018D02*
Y66218D01*
Y65018D02*
Y66218D01*
Y66987D02*
Y68187D01*
Y66987D02*
Y68187D01*
X85600Y69641D02*
G03*
X85600Y72041I0J1200D01*
G01*
D11*
X-4650Y79291D02*
G03*
X-4650Y79291I-118J0D01*
G01*
Y96291D02*
G03*
X-4650Y96291I-118J0D01*
G01*
Y113200D02*
G03*
X-4650Y113200I-118J0D01*
G01*
D12*
X142050Y133500D02*
G03*
X142050Y133500I-2550J0D01*
G01*
X87483Y133429D02*
G03*
X87483Y133429I-2550J0D01*
G01*
X135780Y104661D02*
Y137339D01*
X158220D01*
Y104661D02*
Y137339D01*
X135780Y104661D02*
X158220D01*
X81213Y104591D02*
Y137268D01*
X103654D01*
Y104591D02*
Y137268D01*
X81213Y104591D02*
X103654D01*
D13*
X25827Y157358D02*
G03*
X25827Y157358I-1969J0D01*
G01*
X53189Y50216D02*
Y64784D01*
X26811Y50216D02*
Y64784D01*
X53189D01*
X26811Y50216D02*
X53189D01*
X21484Y33335D02*
Y38846D01*
X9516Y33335D02*
Y38846D01*
X21484D01*
X9516Y33335D02*
X21484D01*
X5984D02*
Y38846D01*
X-5984Y33335D02*
Y38846D01*
X5984D01*
X-5984Y33335D02*
X5984D01*
X20315Y153815D02*
X59685D01*
X20315Y193185D02*
X59685D01*
X20315Y153815D02*
Y193185D01*
X59685Y153815D02*
Y193185D01*
X38031Y57500D02*
X41969D01*
X40000Y55531D02*
Y59468D01*
X53583Y41752D02*
Y73248D01*
X26417Y41752D02*
Y73248D01*
X53583D01*
X26417Y41752D02*
X53583D01*
X33795Y99976D02*
X57024D01*
X33795Y123205D02*
X57024D01*
X33795Y99976D02*
Y123205D01*
X57024Y99976D02*
Y123205D01*
X45409Y109622D02*
Y113559D01*
X43441Y111591D02*
X47378D01*
X13531Y36091D02*
X17469D01*
X15500Y34122D02*
Y38059D01*
X-1969Y36091D02*
X1969D01*
X0Y34122D02*
Y38059D01*
X127500Y104000D02*
Y138000D01*
Y104000D02*
X166500D01*
Y138000D01*
X127500D02*
X166500D01*
X72933Y103929D02*
Y137929D01*
Y103929D02*
X111933D01*
Y137929D01*
X72933D02*
X111933D01*
X40000Y171532D02*
Y175469D01*
X38031Y173500D02*
X41969D01*
D14*
X85600Y67491D02*
X97400D01*
X85600D02*
Y74191D01*
X97400D01*
Y67491D02*
Y74191D01*
X86861D02*
Y76741D01*
X88461D01*
Y74191D02*
Y76741D01*
X86861Y74191D02*
X88461D01*
X89420D02*
Y76741D01*
X91021D01*
Y74191D02*
Y76741D01*
X89420Y74191D02*
X91021D01*
X91979D02*
Y76741D01*
X93580D01*
Y74191D02*
Y76741D01*
X91979Y74191D02*
X93580D01*
X94539D02*
Y76741D01*
X96139D01*
Y74191D02*
Y76741D01*
X94539Y74191D02*
X96139D01*
Y64941D02*
Y67491D01*
X94539Y64941D02*
X96139D01*
X94539D02*
Y67491D01*
X96139D01*
X93580Y64941D02*
Y67491D01*
X91979Y64941D02*
X93580D01*
X91979D02*
Y67491D01*
X93580D01*
X91021Y64941D02*
Y67491D01*
X89420Y64941D02*
X91021D01*
X89420D02*
Y67491D01*
X91021D01*
X88461Y64941D02*
Y67491D01*
X86861Y64941D02*
X88461D01*
X86861D02*
Y67491D01*
X88461D01*
X9500Y166591D02*
G03*
X9500Y166591I-500J0D01*
G01*
Y158590D02*
G03*
X9500Y158590I-500J0D01*
G01*
X93500Y58341D02*
G03*
X93500Y58341I-500J0D01*
G01*
X107500Y86341D02*
G03*
X107500Y86341I-500J0D01*
G01*
X88000D02*
G03*
X88000Y86341I-500J0D01*
G01*
X94500D02*
G03*
X94500Y86341I-500J0D01*
G01*
X101000D02*
G03*
X101000Y86341I-500J0D01*
G01*
X81500Y74341D02*
G03*
X81500Y74341I-500J0D01*
G01*
Y86341D02*
G03*
X81500Y86341I-500J0D01*
G01*
X75000Y86400D02*
G03*
X75000Y86400I-500J0D01*
G01*
X75000Y74341D02*
G03*
X75000Y74341I-500J0D01*
G01*
Y62341D02*
G03*
X75000Y62341I-500J0D01*
G01*
X81500D02*
G03*
X81500Y62341I-500J0D01*
G01*
X34559Y91000D02*
G03*
X34559Y91000I-500J0D01*
G01*
X116469Y133740D02*
G03*
X116469Y133740I-500J0D01*
G01*
X46500Y91000D02*
G03*
X46500Y91000I-500J0D01*
G01*
X34500Y84500D02*
G03*
X34500Y84500I-500J0D01*
G01*
X52045Y33500D02*
G03*
X52045Y33500I-500J0D01*
G01*
X27000Y26000D02*
G03*
X27000Y26000I-500J0D01*
G01*
X40000Y33500D02*
G03*
X40000Y33500I-500J0D01*
G01*
X34000D02*
G03*
X34000Y33500I-500J0D01*
G01*
X46000D02*
G03*
X46000Y33500I-500J0D01*
G01*
X7500Y133591D02*
G03*
X7500Y133591I-500J0D01*
G01*
X-500D02*
G03*
X-500Y133591I-500J0D01*
G01*
X-417Y140091D02*
G03*
X-417Y140091I-500J0D01*
G01*
Y145591D02*
G03*
X-417Y145591I-500J0D01*
G01*
Y151091D02*
G03*
X-417Y151091I-500J0D01*
G01*
X30134Y136118D02*
G03*
X30134Y136118I-500J0D01*
G01*
X26000Y136091D02*
G03*
X26000Y136091I-500J0D01*
G01*
X22000D02*
G03*
X22000Y136091I-500J0D01*
G01*
X48909Y125091D02*
G03*
X48909Y125091I-500J0D01*
G01*
X50000Y136091D02*
G03*
X50000Y136091I-500J0D01*
G01*
X55000D02*
G03*
X55000Y136091I-500J0D01*
G01*
X62464Y106295D02*
G03*
X62464Y106295I-500J0D01*
G01*
Y110295D02*
G03*
X62464Y110295I-500J0D01*
G01*
Y114295D02*
G03*
X62464Y114295I-500J0D01*
G01*
X29902Y105795D02*
G03*
X29902Y105795I-500J0D01*
G01*
Y110193D02*
G03*
X29902Y110193I-500J0D01*
G01*
X30000Y114591D02*
G03*
X30000Y114591I-500J0D01*
G01*
X22000Y56681D02*
G03*
X22000Y56681I-500J0D01*
G01*
X11000Y21681D02*
G03*
X11000Y21681I-500J0D01*
G01*
X6500D02*
G03*
X6500Y21681I-500J0D01*
G01*
X2000D02*
G03*
X2000Y21681I-500J0D01*
G01*
X-2500D02*
G03*
X-2500Y21681I-500J0D01*
G01*
X27000Y30500D02*
G03*
X27000Y30500I-500J0D01*
G01*
X172000Y110500D02*
G03*
X172000Y110500I-500J0D01*
G01*
Y106000D02*
G03*
X172000Y106000I-500J0D01*
G01*
X173500Y121500D02*
G03*
X173500Y121500I-500J0D01*
G01*
X117500Y105000D02*
G03*
X117500Y105000I-500J0D01*
G01*
Y109500D02*
G03*
X117500Y109500I-500J0D01*
G01*
X173500Y124500D02*
G03*
X173500Y124500I-500J0D01*
G01*
X119500D02*
G03*
X119500Y124500I-500J0D01*
G01*
Y121500D02*
G03*
X119500Y121500I-500J0D01*
G01*
X171031Y133740D02*
G03*
X171031Y133740I-500J0D01*
G01*
X72500Y162500D02*
G03*
X72500Y162500I-500J0D01*
G01*
X72000Y180500D02*
G03*
X72000Y180500I-500J0D01*
G01*
Y188181D02*
G03*
X72000Y188181I-500J0D01*
G01*
X27000Y202591D02*
G03*
X27000Y202591I-500J0D01*
G01*
X9000Y165803D02*
Y167378D01*
X8213Y166590D02*
X9787D01*
X8213Y158591D02*
X9787D01*
X9000Y157803D02*
Y159378D01*
X92213Y58341D02*
X93787D01*
X93000Y57554D02*
Y59128D01*
X106213Y86341D02*
X107787D01*
X107000Y85554D02*
Y87128D01*
X87500Y85554D02*
Y87128D01*
X86713Y86341D02*
X88287D01*
X94000Y85554D02*
Y87128D01*
X93213Y86341D02*
X94787D01*
X100500Y85554D02*
Y87128D01*
X99713Y86341D02*
X101287D01*
X81000Y73554D02*
Y75128D01*
X80213Y74341D02*
X81787D01*
X81000Y85554D02*
Y87128D01*
X80213Y86341D02*
X81787D01*
X74500Y85613D02*
Y87188D01*
X73712Y86400D02*
X75287D01*
X74500Y73554D02*
Y75128D01*
X73713Y74341D02*
X75287D01*
X74500Y61554D02*
Y63128D01*
X73713Y62341D02*
X75287D01*
X81000Y61554D02*
Y63128D01*
X80213Y62341D02*
X81787D01*
X33272Y91000D02*
X34847D01*
X34059Y90213D02*
Y91788D01*
X115969Y132953D02*
Y134528D01*
X115181Y133740D02*
X116756D01*
X45213Y91000D02*
X46787D01*
X46000Y90213D02*
Y91787D01*
X33213Y84500D02*
X34787D01*
X34000Y83713D02*
Y85287D01*
X50758Y33500D02*
X52333D01*
X51545Y32713D02*
Y34287D01*
X26500Y25213D02*
Y26788D01*
X25712Y26000D02*
X27287D01*
X38713Y33500D02*
X40287D01*
X39500Y32713D02*
Y34287D01*
X32713Y33500D02*
X34287D01*
X33500Y32713D02*
Y34287D01*
X44713Y33500D02*
X46287D01*
X45500Y32713D02*
Y34287D01*
X7000Y132803D02*
Y134378D01*
X6213Y133591D02*
X7787D01*
X-1000Y132803D02*
Y134378D01*
X-1787Y133591D02*
X-213D01*
X-917Y139303D02*
Y140878D01*
X-1705Y140091D02*
X-130D01*
X-917Y144803D02*
Y146378D01*
X-1705Y145591D02*
X-130D01*
X-917Y150303D02*
Y151878D01*
X-1705Y151091D02*
X-130D01*
X28846Y136118D02*
X30421D01*
X29634Y135331D02*
Y136905D01*
X25500Y135303D02*
Y136878D01*
X24713Y136091D02*
X26288D01*
X20712Y136090D02*
X22287D01*
X21500Y135303D02*
Y136878D01*
X48410Y124303D02*
Y125878D01*
X47622Y125090D02*
X49197D01*
X48713Y136091D02*
X50288D01*
X49500Y135303D02*
Y136878D01*
X53712Y136090D02*
X55287D01*
X54500Y135303D02*
Y136878D01*
X61964Y105508D02*
Y107082D01*
X61177Y106295D02*
X62751D01*
X61177Y110295D02*
X62751D01*
X61964Y109508D02*
Y111082D01*
Y113508D02*
Y115082D01*
X61177Y114295D02*
X62751D01*
X28615Y105795D02*
X30189D01*
X29402Y105008D02*
Y106582D01*
X28615Y110193D02*
X30189D01*
X29402Y109406D02*
Y110980D01*
X29500Y113803D02*
Y115378D01*
X28713Y114590D02*
X30287D01*
X21500Y55894D02*
Y57469D01*
X20713Y56681D02*
X22288D01*
X10500Y20894D02*
Y22469D01*
X9713Y21681D02*
X11288D01*
X6000Y20894D02*
Y22468D01*
X5212Y21681D02*
X6787D01*
X1500Y20894D02*
Y22469D01*
X713Y21681D02*
X2288D01*
X-3000Y20894D02*
Y22469D01*
X-3787Y21681D02*
X-2212D01*
X26500Y29713D02*
Y31288D01*
X25712Y30500D02*
X27287D01*
X170713Y110500D02*
X172287D01*
X171500Y109713D02*
Y111287D01*
X170713Y106000D02*
X172287D01*
X171500Y105213D02*
Y106787D01*
X172213Y121500D02*
X173787D01*
X173000Y120713D02*
Y122288D01*
X116213Y105000D02*
X117787D01*
X117000Y104213D02*
Y105787D01*
X116213Y109500D02*
X117787D01*
X117000Y108713D02*
Y110287D01*
X172213Y124500D02*
X173787D01*
X173000Y123712D02*
Y125287D01*
X119000Y123712D02*
Y125287D01*
X118213Y124500D02*
X119787D01*
X118213Y121500D02*
X119787D01*
X119000Y120713D02*
Y122288D01*
X170532Y132953D02*
Y134528D01*
X169744Y133740D02*
X171319D01*
X72000Y161712D02*
Y163287D01*
X71213Y162500D02*
X72787D01*
X70713Y180500D02*
X72287D01*
X71500Y179713D02*
Y181288D01*
Y187394D02*
Y188968D01*
X70713Y188181D02*
X72287D01*
X26500Y201803D02*
Y203378D01*
X25713Y202590D02*
X27287D01*
D15*
X4614Y150106D02*
Y152075D01*
X8551Y150106D02*
Y152075D01*
X4614D02*
X8551D01*
X4614Y150106D02*
X8551D01*
X6583Y150491D02*
Y151691D01*
X5983Y151091D02*
X7183D01*
X4614Y144606D02*
Y146575D01*
X8551Y144606D02*
Y146575D01*
X4614D02*
X8551D01*
X4614Y144606D02*
X8551D01*
X6583Y144991D02*
Y146191D01*
X5983Y145591D02*
X7183D01*
X4614Y139106D02*
Y141075D01*
X8551Y139106D02*
Y141075D01*
X4614D02*
X8551D01*
X4614Y139106D02*
X8551D01*
X6583Y139491D02*
Y140691D01*
X5983Y140091D02*
X7183D01*
X3083Y152791D02*
X10083D01*
Y149391D02*
Y152791D01*
X3083Y149391D02*
Y152791D01*
Y149391D02*
X10083D01*
X3083Y147291D02*
X10083D01*
Y143891D02*
Y147291D01*
X3083Y143891D02*
Y147291D01*
Y143891D02*
X10083D01*
X3083Y141791D02*
X10083D01*
Y138391D02*
Y141791D01*
X3083Y138391D02*
Y141791D01*
Y138391D02*
X10083D01*
X46000Y24500D02*
X47000D01*
X46500D02*
Y25000D01*
Y24000D02*
Y24500D01*
X81728Y218091D02*
X85272D01*
X83500Y216319D02*
Y219862D01*
X91728Y218091D02*
X95272D01*
X93500Y216319D02*
Y219862D01*
X101728Y218091D02*
X105272D01*
X103500Y216319D02*
Y219862D01*
X151728Y228091D02*
X155272D01*
X153500Y226319D02*
Y229862D01*
X141728Y228091D02*
X145272D01*
X143500Y226319D02*
Y229862D01*
X141728Y218091D02*
X145272D01*
X143500Y216319D02*
Y219862D01*
X131728Y218091D02*
X135272D01*
X133500Y216319D02*
Y219862D01*
X131728Y228091D02*
X135272D01*
X133500Y226319D02*
Y229862D01*
X121728Y228091D02*
X125272D01*
X123500Y226319D02*
Y229862D01*
X121728Y218091D02*
X125272D01*
X123500Y216319D02*
Y219862D01*
X81728Y228091D02*
X85272D01*
X83500Y226319D02*
Y229862D01*
X91728Y228091D02*
X95272D01*
X93500Y226319D02*
Y229862D01*
X101728Y228091D02*
X105272D01*
X103500Y226319D02*
Y229862D01*
X111728Y228091D02*
X115272D01*
X113500Y226319D02*
Y229862D01*
X111728Y218091D02*
X115272D01*
X113500Y216319D02*
Y219862D01*
X151728Y218091D02*
X155272D01*
X153500Y216319D02*
Y219862D01*
X145638Y-909D02*
X150362D01*
X148000Y-3272D02*
Y1453D01*
X125638Y-909D02*
X130362D01*
X128000Y-3272D02*
Y1453D01*
X171728Y94500D02*
X175272D01*
X173500Y92728D02*
Y96272D01*
X171728Y34500D02*
X175272D01*
X173500Y32728D02*
Y36272D01*
X171728Y44500D02*
X175272D01*
X173500Y42728D02*
Y46272D01*
X171728Y54500D02*
X175272D01*
X173500Y52728D02*
Y56272D01*
X171728Y64500D02*
X175272D01*
X173500Y62728D02*
Y66272D01*
X171728Y74500D02*
X175272D01*
X173500Y72728D02*
Y76272D01*
X171728Y84500D02*
X175272D01*
X173500Y82728D02*
Y86272D01*
X151728Y94500D02*
X155272D01*
X153500Y92728D02*
Y96272D01*
X151728Y34500D02*
X155272D01*
X153500Y32728D02*
Y36272D01*
X151728Y44500D02*
X155272D01*
X153500Y42728D02*
Y46272D01*
X151728Y54500D02*
X155272D01*
X153500Y52728D02*
Y56272D01*
X151728Y64500D02*
X155272D01*
X153500Y62728D02*
Y66272D01*
X151728Y74500D02*
X155272D01*
X153500Y72728D02*
Y76272D01*
X151728Y84500D02*
X155272D01*
X153500Y82728D02*
Y86272D01*
X161728Y94500D02*
X165272D01*
X163500Y92728D02*
Y96272D01*
X161728Y34500D02*
X165272D01*
X163500Y32728D02*
Y36272D01*
X161728Y44500D02*
X165272D01*
X163500Y42728D02*
Y46272D01*
X161728Y54500D02*
X165272D01*
X163500Y52728D02*
Y56272D01*
X161728Y64500D02*
X165272D01*
X163500Y62728D02*
Y66272D01*
X161728Y74500D02*
X165272D01*
X163500Y72728D02*
Y76272D01*
X161728Y84500D02*
X165272D01*
X163500Y82728D02*
Y86272D01*
X14791Y12417D02*
X17154D01*
X15972Y11236D02*
Y13598D01*
X48846Y12417D02*
X51209D01*
X50027Y11236D02*
Y13598D01*
X14791Y-3331D02*
X17154D01*
X15972Y-4512D02*
Y-2150D01*
X48846Y-3331D02*
X51209D01*
X50027Y-4512D02*
Y-2150D01*
X43098Y10449D02*
X45657D01*
X44378Y9169D02*
Y11728D01*
X20343Y10449D02*
X22901D01*
X21622Y9169D02*
Y11728D01*
X-3272Y204091D02*
X272D01*
X-1500Y202319D02*
Y205862D01*
X-3272Y194091D02*
X272D01*
X-1500Y192319D02*
Y195862D01*
X-3272Y184091D02*
X272D01*
X-1500Y182319D02*
Y185862D01*
X-3272Y174091D02*
X272D01*
X-1500Y172319D02*
Y175862D01*
X-6299Y223091D02*
X6299D01*
X0Y216791D02*
Y229390D01*
X160921Y223091D02*
X173520D01*
X167220Y216791D02*
Y229390D01*
X81650Y-409D02*
X88342D01*
X84996Y-3756D02*
Y2937D01*
X63146Y-409D02*
X69839D01*
X66492Y-3756D02*
Y2937D01*
X100154Y-409D02*
X106846D01*
X103500Y-3756D02*
Y2937D01*
X21728Y210591D02*
X25272D01*
X23500Y208819D02*
Y212362D01*
X31728Y210591D02*
X35272D01*
X33500Y208819D02*
Y212362D01*
X41728Y210591D02*
X45272D01*
X43500Y208819D02*
Y212362D01*
X51728Y210591D02*
X55272D01*
X53500Y208819D02*
Y212362D01*
X161228Y202091D02*
X164772D01*
X163000Y200319D02*
Y203862D01*
X161228Y152091D02*
X164772D01*
X163000Y150319D02*
Y153862D01*
X161228Y162091D02*
X164772D01*
X163000Y160319D02*
Y163862D01*
X161228Y172091D02*
X164772D01*
X163000Y170319D02*
Y173862D01*
X161228Y182091D02*
X164772D01*
X163000Y180319D02*
Y183862D01*
X161228Y192091D02*
X164772D01*
X163000Y190319D02*
Y193862D01*
X136228Y202091D02*
X139772D01*
X138000Y200319D02*
Y203862D01*
X136228Y152091D02*
X139772D01*
X138000Y150319D02*
Y153862D01*
X136228Y162091D02*
X139772D01*
X138000Y160319D02*
Y163862D01*
X136228Y172091D02*
X139772D01*
X138000Y170319D02*
Y173862D01*
X136228Y182091D02*
X139772D01*
X138000Y180319D02*
Y183862D01*
X136228Y192091D02*
X139772D01*
X138000Y190319D02*
Y193862D01*
X111228Y202091D02*
X114772D01*
X113000Y200319D02*
Y203862D01*
X111228Y152091D02*
X114772D01*
X113000Y150319D02*
Y153862D01*
X111228Y162091D02*
X114772D01*
X113000Y160319D02*
Y163862D01*
X111228Y172091D02*
X114772D01*
X113000Y170319D02*
Y173862D01*
X111228Y182091D02*
X114772D01*
X113000Y180319D02*
Y183862D01*
X111228Y192091D02*
X114772D01*
X113000Y190319D02*
Y193862D01*
X86228Y202091D02*
X89772D01*
X88000Y200319D02*
Y203862D01*
X86228Y152091D02*
X89772D01*
X88000Y150319D02*
Y153862D01*
X86228Y162091D02*
X89772D01*
X88000Y160319D02*
Y163862D01*
X86228Y172091D02*
X89772D01*
X88000Y170319D02*
Y173862D01*
X86228Y182091D02*
X89772D01*
X88000Y180319D02*
Y183862D01*
X86228Y192091D02*
X89772D01*
X88000Y190319D02*
Y193862D01*
X-6299Y0D02*
X6299D01*
X0Y-6299D02*
Y6299D01*
X160921Y0D02*
X173520D01*
X167220Y-6299D02*
Y6299D01*
X64000Y213950D02*
X65000D01*
X64500Y213450D02*
Y214450D01*
X73500Y227500D02*
X74500D01*
X74000Y227000D02*
Y228000D01*
X73500Y220500D02*
X74500D01*
X74000Y220000D02*
Y221000D01*
X28000Y212750D02*
X29000D01*
X28500Y212250D02*
Y213250D01*
X161500Y232000D02*
X162500D01*
X162000Y231500D02*
Y232500D01*
X43500Y224000D02*
X44500D01*
X44000Y223500D02*
Y224500D01*
X39500Y224000D02*
X40500D01*
X40000Y223500D02*
Y224500D01*
X35000Y224000D02*
X36000D01*
X35500Y223500D02*
Y224500D01*
X111000Y20500D02*
X112000D01*
X111500Y20000D02*
Y21000D01*
X115000Y20500D02*
X116000D01*
X115500Y20000D02*
Y21000D01*
X103000Y16500D02*
X104000D01*
X103500Y16000D02*
Y17000D01*
X66500Y12500D02*
X67500D01*
X67000Y12000D02*
Y13000D01*
X63000Y12500D02*
X64000D01*
X63500Y12000D02*
Y13000D01*
X107000Y16500D02*
X108000D01*
X107500Y16000D02*
Y17000D01*
X103000Y12000D02*
X104000D01*
X103500Y11500D02*
Y12500D01*
X155500Y112043D02*
X156500D01*
X156000Y111543D02*
Y112543D01*
X126745Y47588D02*
X128045D01*
X127395Y46938D02*
Y48238D01*
X49000Y134319D02*
X50000D01*
X49500Y133819D02*
Y134819D01*
X80350Y92500D02*
X81650D01*
X81000Y91850D02*
Y93150D01*
X8500Y148500D02*
X9500D01*
X9000Y148000D02*
Y149000D01*
X6000Y114500D02*
X7000D01*
X6500Y114000D02*
Y115000D01*
X1000Y121000D02*
X2000D01*
X1500Y120500D02*
Y121500D01*
X6000Y78000D02*
X7000D01*
X6500Y77500D02*
Y78500D01*
X0Y78000D02*
X1000D01*
X500Y77500D02*
Y78500D01*
X5500Y84000D02*
X6500D01*
X6000Y83500D02*
Y84500D01*
X0Y84000D02*
X1000D01*
X500Y83500D02*
Y84500D01*
X5500Y96000D02*
X6500D01*
X6000Y95500D02*
Y96500D01*
X-1000Y96000D02*
X0D01*
X-500Y95500D02*
Y96500D01*
X5500Y101500D02*
X6500D01*
X6000Y101000D02*
Y102000D01*
X-500Y101000D02*
X500D01*
X0Y100500D02*
Y101500D01*
X16500Y4000D02*
X17500D01*
X17000Y3500D02*
Y4500D01*
X12500Y3500D02*
X13500D01*
X13000Y3000D02*
Y4000D01*
X-10000Y5500D02*
X-9000D01*
X-9500Y5000D02*
Y6000D01*
X-10000Y1000D02*
X-9000D01*
X-9500Y500D02*
Y1500D01*
X-8500Y-4500D02*
X-7500D01*
X-8000Y-5000D02*
Y-4000D01*
X-4000Y-8500D02*
X-3000D01*
X-3500Y-9000D02*
Y-8000D01*
X4000Y-9000D02*
X5000D01*
X4500Y-9500D02*
Y-8500D01*
X11500Y-9500D02*
X12500D01*
X12000Y-10000D02*
Y-9000D01*
X45000Y4000D02*
X46000D01*
X45500Y3500D02*
Y4500D01*
X40500Y4000D02*
X41500D01*
X41000Y3500D02*
Y4500D01*
X41500Y-8000D02*
X42500D01*
X42000Y-8500D02*
Y-7500D01*
X27000Y-9500D02*
X28000D01*
X27500Y-10000D02*
Y-9000D01*
X35000D02*
X36000D01*
X35500Y-9500D02*
Y-8500D01*
X45000Y-9500D02*
X46000D01*
X45500Y-10000D02*
Y-9000D01*
X38500Y-9500D02*
X39500D01*
X39000Y-10000D02*
Y-9000D01*
X30500Y-9500D02*
X31500D01*
X31000Y-10000D02*
Y-9000D01*
X24000Y-9500D02*
X25000D01*
X24500Y-10000D02*
Y-9000D01*
X44500Y-5000D02*
X45500D01*
X45000Y-5500D02*
Y-4500D01*
X38500D02*
X39500D01*
X39000Y-5000D02*
Y-4000D01*
X33500Y-5000D02*
X34500D01*
X34000Y-5500D02*
Y-4500D01*
X29500Y-5000D02*
X30500D01*
X30000Y-5500D02*
Y-4500D01*
X24500D02*
X25500D01*
X25000Y-5000D02*
Y-4000D01*
X44000Y-1000D02*
X45000D01*
X44500Y-1500D02*
Y-500D01*
X40500D02*
X41500D01*
X41000Y-1000D02*
Y0D01*
X36500Y-1000D02*
X37500D01*
X37000Y-1500D02*
Y-500D01*
X33000Y-1000D02*
X34000D01*
X33500Y-1500D02*
Y-500D01*
X29000Y-1000D02*
X30000D01*
X29500Y-1500D02*
Y-500D01*
X24500Y-1000D02*
X25500D01*
X25000Y-1500D02*
Y-500D01*
X66500Y8500D02*
X67500D01*
X67000Y8000D02*
Y9000D01*
X63000Y8500D02*
X64000D01*
X63500Y8000D02*
Y9000D01*
X115000Y12000D02*
X116000D01*
X115500Y11500D02*
Y12500D01*
X111000Y12000D02*
X112000D01*
X111500Y11500D02*
Y12500D01*
X107000Y12000D02*
X108000D01*
X107500Y11500D02*
Y12500D01*
X115000Y16500D02*
X116000D01*
X115500Y16000D02*
Y17000D01*
X111000Y16500D02*
X112000D01*
X111500Y16000D02*
Y17000D01*
X107000Y20500D02*
X108000D01*
X107500Y20000D02*
Y21000D01*
X103000Y20500D02*
X104000D01*
X103500Y20000D02*
Y21000D01*
X112000Y37500D02*
X113000D01*
X112500Y37000D02*
Y38000D01*
X112000Y40500D02*
X113000D01*
X112500Y40000D02*
Y41000D01*
X112000Y43500D02*
X113000D01*
X112500Y43000D02*
Y44000D01*
X112000Y46500D02*
X113000D01*
X112500Y46000D02*
Y47000D01*
X112000Y49500D02*
X113000D01*
X112500Y49000D02*
Y50000D01*
X103500Y35500D02*
X104500D01*
X104000Y35000D02*
Y36000D01*
X103500Y38500D02*
X104500D01*
X104000Y38000D02*
Y39000D01*
X103500Y41500D02*
X104500D01*
X104000Y41000D02*
Y42000D01*
X103500Y44500D02*
X104500D01*
X104000Y44000D02*
Y45000D01*
X103500Y47500D02*
X104500D01*
X104000Y47000D02*
Y48000D01*
X103500Y50500D02*
X104500D01*
X104000Y50000D02*
Y51000D01*
X148500Y-9000D02*
X149500D01*
X149000Y-9500D02*
Y-8500D01*
X145500Y-8000D02*
X146500D01*
X146000Y-8500D02*
Y-7500D01*
X154000Y-3500D02*
X155000D01*
X154500Y-4000D02*
Y-3000D01*
X152000Y-8500D02*
X153000D01*
X152500Y-9000D02*
Y-8000D01*
X154500Y2000D02*
X155500D01*
X155000Y1500D02*
Y2500D01*
X157500Y0D02*
X158500D01*
X158000Y-500D02*
Y500D01*
X157500Y-7000D02*
X158500D01*
X158000Y-7500D02*
Y-6500D01*
X161500Y-9000D02*
X162500D01*
X162000Y-9500D02*
Y-8500D01*
X167500D02*
X168500D01*
X168000Y-9000D02*
Y-8000D01*
X172500Y-7000D02*
X173500D01*
X173000Y-7500D02*
Y-6500D01*
X175000Y-3000D02*
X176000D01*
X175500Y-3500D02*
Y-2500D01*
X176000Y2000D02*
X177000D01*
X176500Y1500D02*
Y2500D01*
X175000Y14500D02*
X176000D01*
X175500Y14000D02*
Y15000D01*
X173000Y7500D02*
X174000D01*
X173500Y7000D02*
Y8000D01*
X162500Y7500D02*
X163500D01*
X163000Y7000D02*
Y8000D01*
X156500Y5500D02*
X157500D01*
X157000Y5000D02*
Y6000D01*
X150572Y6504D02*
X151572D01*
X151072Y6004D02*
Y7004D01*
X145500Y7000D02*
X146500D01*
X146000Y6500D02*
Y7500D01*
X146500Y11500D02*
X147500D01*
X147000Y11000D02*
Y12000D01*
X152000Y11000D02*
X153000D01*
X152500Y10500D02*
Y11500D01*
X155500Y11000D02*
X156500D01*
X156000Y10500D02*
Y11500D01*
X161000Y11000D02*
X162000D01*
X161500Y10500D02*
Y11500D01*
X166500D02*
X167500D01*
X167000Y11000D02*
Y12000D01*
X171500Y11500D02*
X172500D01*
X172000Y11000D02*
Y12000D01*
X171000Y15000D02*
X172000D01*
X171500Y14500D02*
Y15500D01*
X166500D02*
X167500D01*
X167000Y15000D02*
Y16000D01*
X161000Y15000D02*
X162000D01*
X161500Y14500D02*
Y15500D01*
X155500Y15000D02*
X156500D01*
X156000Y14500D02*
Y15500D01*
X150500Y15000D02*
X151500D01*
X151000Y14500D02*
Y15500D01*
X145500Y15000D02*
X146500D01*
X146000Y14500D02*
Y15500D01*
X43500Y146000D02*
X44500D01*
X44000Y145500D02*
Y146500D01*
X175000Y183000D02*
X176000D01*
X175500Y182500D02*
Y183500D01*
X175000Y188500D02*
X176000D01*
X175500Y188000D02*
Y189000D01*
X175000Y192000D02*
X176000D01*
X175500Y191500D02*
Y192500D01*
X175000Y196500D02*
X176000D01*
X175500Y196000D02*
Y197000D01*
X121000Y183500D02*
X122000D01*
X121500Y183000D02*
Y184000D01*
X145000Y183000D02*
X146000D01*
X145500Y182500D02*
Y183500D01*
X170500Y182500D02*
X171500D01*
X171000Y182000D02*
Y183000D01*
X175000Y200500D02*
X176000D01*
X175500Y200000D02*
Y201000D01*
X174000Y210000D02*
X175000D01*
X174500Y209500D02*
Y210500D01*
X176500Y211000D02*
X177500D01*
X177000Y210500D02*
Y211500D01*
X169500Y209000D02*
X170500D01*
X170000Y208500D02*
Y209500D01*
X166000Y212500D02*
X167000D01*
X166500Y212000D02*
Y213000D01*
X171500Y213500D02*
X172500D01*
X172000Y213000D02*
Y214000D01*
X176500Y215500D02*
X177500D01*
X177000Y215000D02*
Y216000D01*
X176500Y220000D02*
X177500D01*
X177000Y219500D02*
Y220500D01*
X176000Y225500D02*
X177000D01*
X176500Y225000D02*
Y226000D01*
X174000Y228500D02*
X175000D01*
X174500Y228000D02*
Y229000D01*
X171000Y231000D02*
X172000D01*
X171500Y230500D02*
Y231500D01*
X166500Y232000D02*
X167500D01*
X167000Y231500D02*
Y232500D01*
X174000Y205500D02*
X175000D01*
X174500Y205000D02*
Y206000D01*
X170500Y203000D02*
X171500D01*
X171000Y202500D02*
Y203500D01*
X149000Y204000D02*
X150000D01*
X149500Y203500D02*
Y204500D01*
X97500Y203000D02*
X98500D01*
X98000Y202500D02*
Y203500D01*
X125000Y203000D02*
X126000D01*
X125500Y202500D02*
Y203500D01*
X145000Y201500D02*
X146000D01*
X145500Y201000D02*
Y202000D01*
X121000Y201000D02*
X122000D01*
X121500Y200500D02*
Y201500D01*
X94000Y201000D02*
X95000D01*
X94500Y200500D02*
Y201500D01*
X65500Y232000D02*
X66500D01*
X66000Y231500D02*
Y232500D01*
X61500Y232000D02*
X62500D01*
X62000Y231500D02*
Y232500D01*
X57000Y232000D02*
X58000D01*
X57500Y231500D02*
Y232500D01*
X52500Y232000D02*
X53500D01*
X53000Y231500D02*
Y232500D01*
X48000Y232000D02*
X49000D01*
X48500Y231500D02*
Y232500D01*
X43500Y232000D02*
X44500D01*
X44000Y231500D02*
Y232500D01*
X39500Y232000D02*
X40500D01*
X40000Y231500D02*
Y232500D01*
X30000Y224000D02*
X31000D01*
X30500Y223500D02*
Y224500D01*
X26000Y224000D02*
X27000D01*
X26500Y223500D02*
Y224500D01*
X21500Y224000D02*
X22500D01*
X22000Y223500D02*
Y224500D01*
X17500Y224000D02*
X18500D01*
X18000Y223500D02*
Y224500D01*
X13000Y224000D02*
X14000D01*
X13500Y223500D02*
Y224500D01*
X35000Y232000D02*
X36000D01*
X35500Y231500D02*
Y232500D01*
X31000Y232000D02*
X32000D01*
X31500Y231500D02*
Y232500D01*
X27000Y232000D02*
X28000D01*
X27500Y231500D02*
Y232500D01*
X22500Y232000D02*
X23500D01*
X23000Y231500D02*
Y232500D01*
X11000Y232000D02*
X12000D01*
X11500Y231500D02*
Y232500D01*
X5500Y232000D02*
X6500D01*
X6000Y231500D02*
Y232500D01*
X-500Y232000D02*
X500D01*
X0Y231500D02*
Y232500D01*
X-5500Y230500D02*
X-4500D01*
X-5000Y230000D02*
Y231000D01*
X-8500Y228000D02*
X-7500D01*
X-8000Y227500D02*
Y228500D01*
X-10000Y224000D02*
X-9000D01*
X-9500Y223500D02*
Y224500D01*
X-10000Y219000D02*
X-9000D01*
X-9500Y218500D02*
Y219500D01*
X-6500Y190500D02*
X-5500D01*
X-6000Y190000D02*
Y191000D01*
X-5500Y169000D02*
X-4500D01*
X-5000Y168500D02*
Y169500D01*
X-8500Y152500D02*
X-7500D01*
X-8000Y152000D02*
Y153000D01*
X-8500Y148500D02*
X-7500D01*
X-8000Y148000D02*
Y149000D01*
X-8500Y144000D02*
X-7500D01*
X-8000Y143500D02*
Y144500D01*
X-8500Y140000D02*
X-7500D01*
X-8000Y139500D02*
Y140500D01*
X123000Y115000D02*
X124000D01*
X123500Y114500D02*
Y115500D01*
X119000Y115000D02*
X120000D01*
X119500Y114500D02*
Y115500D01*
X39500Y95000D02*
X40500D01*
X40000Y94500D02*
Y95500D01*
X57500Y120091D02*
X58500D01*
X58000Y119591D02*
Y120591D01*
X111500Y128000D02*
X112500D01*
X112000Y127500D02*
Y128500D01*
X114000Y128131D02*
X115000D01*
X114500Y127631D02*
Y128631D01*
X108451Y145466D02*
X109451D01*
X108951Y144966D02*
Y145966D01*
X44350Y69000D02*
X45650D01*
X45000Y68350D02*
Y69650D01*
X34350Y71500D02*
X35650D01*
X35000Y70850D02*
Y72150D01*
X41850Y71500D02*
X43150D01*
X42500Y70850D02*
Y72150D01*
X34350Y66500D02*
X35650D01*
X35000Y65850D02*
Y67150D01*
X36850Y71500D02*
X38150D01*
X37500Y70850D02*
Y72150D01*
X39350Y71500D02*
X40650D01*
X40000Y70850D02*
Y72150D01*
X36850Y66500D02*
X38150D01*
X37500Y65850D02*
Y67150D01*
X39350Y69000D02*
X40650D01*
X40000Y68350D02*
Y69650D01*
X34350Y69000D02*
X35650D01*
X35000Y68350D02*
Y69650D01*
X36850Y69000D02*
X38150D01*
X37500Y68350D02*
Y69650D01*
X44350Y71500D02*
X45650D01*
X45000Y70850D02*
Y72150D01*
X41850Y69000D02*
X43150D01*
X42500Y68350D02*
Y69650D01*
X39350Y66500D02*
X40650D01*
X40000Y65850D02*
Y67150D01*
X41850Y66500D02*
X43150D01*
X42500Y65850D02*
Y67150D01*
X44350Y66500D02*
X45650D01*
X45000Y65850D02*
Y67150D01*
X30000Y30500D02*
X31000D01*
X30500Y30000D02*
Y31000D01*
X35500Y21591D02*
X36500D01*
X36000Y21091D02*
Y22091D01*
X27500Y21091D02*
X28500D01*
X28000Y20591D02*
Y21590D01*
X31500Y21591D02*
X32500D01*
X32000Y21091D02*
Y22091D01*
X-8189Y61667D02*
X-7188D01*
X-7688Y61167D02*
Y62167D01*
X5500Y64500D02*
X6500D01*
X6000Y64000D02*
Y65000D01*
X-8000Y53091D02*
X-7000D01*
X-7500Y52591D02*
Y53591D01*
X2681Y61681D02*
X3681D01*
X3181Y61181D02*
Y62181D01*
X8319Y61681D02*
X9319D01*
X8819Y61181D02*
Y62181D01*
X2681Y58862D02*
X3681D01*
X3181Y58362D02*
Y59362D01*
X8319Y64500D02*
X9319D01*
X8819Y64000D02*
Y65000D01*
X5500Y58862D02*
X6500D01*
X6000Y58362D02*
Y59362D01*
X8319Y58862D02*
X9319D01*
X8819Y58362D02*
Y59362D01*
X5500Y61681D02*
X6500D01*
X6000Y61181D02*
Y62181D01*
X-8200Y59567D02*
X-7200D01*
X-7700Y59067D02*
Y60067D01*
X-4000Y71091D02*
X-3000D01*
X-3500Y70591D02*
Y71591D01*
X2681Y64500D02*
X3681D01*
X3181Y64000D02*
Y65000D01*
X112000Y147000D02*
X113000D01*
X112500Y146500D02*
Y147500D01*
X30500Y201000D02*
X31500D01*
X31000Y200500D02*
Y201500D01*
X29500Y190000D02*
X30500D01*
X30000Y189500D02*
Y190500D01*
X17000Y209000D02*
X18000D01*
X17500Y208500D02*
Y209500D01*
X11000Y209000D02*
X12000D01*
X11500Y208500D02*
Y209500D01*
X3500Y208500D02*
X4500D01*
X4000Y208000D02*
Y209000D01*
X27500Y208500D02*
X28500D01*
X28000Y208000D02*
Y209000D01*
X27000Y191500D02*
X28000D01*
X27500Y191000D02*
Y192000D01*
X36000Y201394D02*
X37000D01*
X36500Y200894D02*
Y201894D01*
X19000Y196500D02*
X20000D01*
X19500Y196000D02*
Y197000D01*
X24000Y180500D02*
X25000D01*
X24500Y180000D02*
Y181000D01*
X10350Y188500D02*
X11350D01*
X10850Y188000D02*
Y189000D01*
X12000Y190500D02*
X13000D01*
X12500Y190000D02*
Y191000D01*
X14245Y188356D02*
X15245D01*
X14745Y187856D02*
Y188856D01*
X57985Y141741D02*
X58985D01*
X58485Y141241D02*
Y142241D01*
X173000Y113500D02*
X174000D01*
X173500Y113000D02*
Y114000D01*
X49000Y19500D02*
X50000D01*
X49500Y19000D02*
Y20000D01*
X121000Y196500D02*
X122000D01*
X121500Y196000D02*
Y197000D01*
X95000Y157500D02*
X96000D01*
X95500Y157000D02*
Y158000D01*
X11000Y133500D02*
X12000D01*
X11500Y133000D02*
Y134000D01*
X170500Y192000D02*
X171500D01*
X171000Y191500D02*
Y192500D01*
X145000Y187500D02*
X146000D01*
X145500Y187000D02*
Y188000D01*
X145000Y192000D02*
X146000D01*
X145500Y191500D02*
Y192500D01*
X59000Y193000D02*
X60000D01*
X59500Y192500D02*
Y193500D01*
X170500Y196500D02*
X171500D01*
X171000Y196000D02*
Y197000D01*
X145000Y196500D02*
X146000D01*
X145500Y196000D02*
Y197000D01*
X69500Y232000D02*
X70500D01*
X70000Y231500D02*
Y232500D01*
X-6500Y135000D02*
X-5500D01*
X-6000Y134500D02*
Y135500D01*
X-3500Y119500D02*
X-2500D01*
X-3000Y119000D02*
Y120000D01*
X2500Y111000D02*
X3500D01*
X3000Y110500D02*
Y111500D01*
X23000Y119000D02*
X24000D01*
X23500Y118500D02*
Y119500D01*
X29000Y125500D02*
X30000D01*
X29500Y125000D02*
Y126000D01*
X63000Y131000D02*
X64000D01*
X63500Y130500D02*
Y131500D01*
X94000Y196500D02*
X95000D01*
X94500Y196000D02*
Y197000D01*
X9500Y111000D02*
X10500D01*
X10000Y110500D02*
Y111500D01*
X54000Y130500D02*
X55000D01*
X54500Y130000D02*
Y131000D01*
X94500Y170000D02*
X95500D01*
X95000Y169500D02*
Y170500D01*
X43268Y132500D02*
X44268D01*
X43768Y132000D02*
Y133000D01*
X57000Y145000D02*
X58000D01*
X57500Y144500D02*
Y145500D01*
X6500Y157500D02*
X7500D01*
X7000Y157000D02*
Y158000D01*
X121000Y192000D02*
X122000D01*
X121500Y191500D02*
Y192500D01*
X73000Y185000D02*
X74000D01*
X73500Y184500D02*
Y185500D01*
X73000Y176000D02*
X74000D01*
X73500Y175500D02*
Y176500D01*
X29038Y139962D02*
X30038D01*
X29538Y139462D02*
Y140462D01*
X21500Y133000D02*
X22500D01*
X22000Y132500D02*
Y133500D01*
X2374Y161000D02*
X3374D01*
X2874Y160500D02*
Y161500D01*
X76000Y164500D02*
X77000D01*
X76500Y164000D02*
Y165000D01*
X106500Y159000D02*
X107500D01*
X107000Y158500D02*
Y159500D01*
X82500Y160000D02*
X83500D01*
X83000Y159500D02*
Y160500D01*
X121000Y187500D02*
X122000D01*
X121500Y187000D02*
Y188000D01*
X17500Y232000D02*
X18500D01*
X18000Y231500D02*
Y232500D01*
X137500Y114500D02*
X138500D01*
X138000Y114000D02*
Y115000D01*
X113500D02*
X114500D01*
X114000Y114500D02*
Y115500D01*
X126500Y112500D02*
X127500D01*
X127000Y112000D02*
Y113000D01*
X71500Y114500D02*
X72500D01*
X72000Y114000D02*
Y115000D01*
X170500Y187500D02*
X171500D01*
X171000Y187000D02*
Y188000D01*
X71500Y111500D02*
X72500D01*
X72000Y111000D02*
Y112000D01*
X94000Y192000D02*
X95000D01*
X94500Y191500D02*
Y192500D01*
X82500Y112500D02*
X83500D01*
X83000Y112000D02*
Y113000D01*
X94000Y187500D02*
X95000D01*
X94500Y187000D02*
Y188000D01*
X59000Y144000D02*
X60000D01*
X59500Y143500D02*
Y144500D01*
X99800Y120500D02*
X100800D01*
X100300Y120000D02*
Y121000D01*
X99800Y124500D02*
X100800D01*
X100300Y124000D02*
Y125000D01*
X40500Y184591D02*
X41500D01*
X41000Y184091D02*
Y185091D01*
X163500Y141591D02*
X164500D01*
X164000Y141091D02*
Y142091D01*
X162500Y139591D02*
X163500D01*
X163000Y139091D02*
Y140091D01*
X168000Y128091D02*
X169000D01*
X168500Y127591D02*
Y128591D01*
X26250Y3591D02*
X27750D01*
X27000Y2841D02*
Y4341D01*
X51186Y172426D02*
X52186D01*
X51686Y171926D02*
Y172926D01*
X48333Y189257D02*
X49333D01*
X48833Y188757D02*
Y189757D01*
X23750Y55091D02*
X25250D01*
X24500Y54341D02*
Y55841D01*
X28750Y3500D02*
X30250D01*
X29500Y2750D02*
Y4250D01*
X60917Y142007D02*
X61917D01*
X61417Y141507D02*
Y142507D01*
X100500Y117091D02*
X101500D01*
X101000Y116591D02*
Y117591D01*
X50500Y187591D02*
X51500D01*
X51000Y187091D02*
Y188091D01*
X5500Y201091D02*
X6500D01*
X6000Y200591D02*
Y201591D01*
X33000Y158091D02*
X34000D01*
X33500Y157591D02*
Y158591D01*
X10000Y178091D02*
X11000D01*
X10500Y177591D02*
Y178591D01*
X-5000Y45091D02*
X-4000D01*
X-4500Y44591D02*
Y45591D01*
X155500Y114602D02*
X156500D01*
X156000Y114102D02*
Y115102D01*
X165869Y128975D02*
X166869D01*
X166369Y128475D02*
Y129475D01*
X-7500Y128591D02*
X-6500D01*
X-7000Y128091D02*
Y129091D01*
X44500Y189091D02*
X45500D01*
X45000Y188591D02*
Y189591D01*
X29500Y158591D02*
X30500D01*
X30000Y158091D02*
Y159091D01*
X155500Y117161D02*
X156500D01*
X156000Y116661D02*
Y117661D01*
X52500Y201091D02*
X53500D01*
X53000Y200591D02*
Y201591D01*
X8000Y174591D02*
X9000D01*
X8500Y174091D02*
Y175091D01*
X67000Y201500D02*
X68000D01*
X67500Y201000D02*
Y202000D01*
X-7000Y111091D02*
X-6000D01*
X-6500Y110591D02*
Y111591D01*
X-5000Y42091D02*
X-4000D01*
X-4500Y41591D02*
Y42591D01*
X77500Y205500D02*
X78500D01*
X78000Y205000D02*
Y206000D01*
X36500Y121591D02*
X37500D01*
X37000Y121091D02*
Y122091D01*
X100500Y127327D02*
X101500D01*
X101000Y126827D02*
Y127827D01*
X100500Y129886D02*
X101500D01*
X101000Y129386D02*
Y130386D01*
X68350Y199500D02*
X69350D01*
X68850Y199000D02*
Y200000D01*
X100500Y114531D02*
X101500D01*
X101000Y114031D02*
Y115031D01*
X100500Y111972D02*
X101500D01*
X101000Y111472D02*
Y112472D01*
X52500Y184091D02*
X53500D01*
X53000Y183591D02*
Y184591D01*
X6500Y171591D02*
X7500D01*
X7000Y171091D02*
Y172091D01*
X30500Y146091D02*
X31500D01*
X31000Y145591D02*
Y146591D01*
X28500Y144091D02*
X29500D01*
X29000Y143591D02*
Y144591D01*
X26500Y142091D02*
X27500D01*
X27000Y141591D02*
Y142591D01*
X42500Y160591D02*
X43500D01*
X43000Y160091D02*
Y161091D01*
X46500Y176091D02*
X47500D01*
X47000Y175591D02*
Y176591D01*
X8500Y227091D02*
X9500D01*
X9000Y226590D02*
Y227590D01*
X45000Y174591D02*
X46000D01*
X45500Y174091D02*
Y175091D01*
X54500Y200091D02*
X55500D01*
X55000Y199591D02*
Y200591D01*
X11500Y119591D02*
X12500D01*
X12000Y119091D02*
Y120091D01*
X51500Y180091D02*
X52500D01*
X52000Y179591D02*
Y180591D01*
X-6500Y17090D02*
X-5500D01*
X-6000Y16590D02*
Y17591D01*
X100413Y132358D02*
X101413D01*
X100913Y131858D02*
Y132858D01*
X53500Y171809D02*
X54500D01*
X54000Y171309D02*
Y172310D01*
X29500Y176091D02*
X30500D01*
X30000Y175591D02*
Y176591D01*
X28015Y177576D02*
X29015D01*
X28515Y177076D02*
Y178076D01*
X32000Y184000D02*
X33000D01*
X32500Y183500D02*
Y184500D01*
X14650Y144091D02*
X15650D01*
X15150Y143591D02*
Y144591D01*
X12850Y141500D02*
X13850D01*
X13350Y141000D02*
Y142000D01*
X69000Y172000D02*
X70000D01*
X69500Y171500D02*
Y172500D01*
X71000Y170000D02*
X72000D01*
X71500Y169500D02*
Y170500D01*
X21000Y130741D02*
X22000D01*
X21500Y130241D02*
Y131241D01*
X73500Y199500D02*
X74500D01*
X74000Y199000D02*
Y200000D01*
X28975Y128615D02*
X29975D01*
X29475Y128115D02*
Y129115D01*
X65000Y199500D02*
X66000D01*
X65500Y199000D02*
Y200000D01*
X23791Y50041D02*
X25291D01*
X24541Y49291D02*
Y50791D01*
X55200Y182891D02*
X56200D01*
X55700Y182391D02*
Y183391D01*
X40000Y123591D02*
X41000D01*
X40500Y123091D02*
Y124091D01*
X3000Y43091D02*
X4000D01*
X3500Y42591D02*
Y43591D01*
X45625Y157410D02*
X46625D01*
X46125Y156910D02*
Y157910D01*
X33500Y106591D02*
X34500D01*
X34000Y106091D02*
Y107091D01*
X55810Y184900D02*
X56810D01*
X56310Y184400D02*
Y185400D01*
X71000Y201500D02*
X72000D01*
X71500Y201000D02*
Y202000D01*
X23791Y52541D02*
X25291D01*
X24541Y51791D02*
Y53291D01*
X54061Y147997D02*
X55061D01*
X54561Y147497D02*
Y148497D01*
X56000Y147191D02*
X57000D01*
X56500Y146691D02*
Y147691D01*
X66450Y178000D02*
X67450D01*
X66950Y177500D02*
Y178500D01*
X73000Y207291D02*
X74000D01*
X73500Y206791D02*
Y207791D01*
X67394Y176000D02*
X68394D01*
X67894Y175500D02*
Y176500D01*
X31250Y3500D02*
X32750D01*
X32000Y2750D02*
Y4250D01*
X18300Y130741D02*
X19300D01*
X18800Y130241D02*
Y131241D01*
X155500Y127398D02*
X156500D01*
X156000Y126898D02*
Y127898D01*
X155500Y129957D02*
X156500D01*
X156000Y129457D02*
Y130457D01*
X155500Y132516D02*
X156500D01*
X156000Y132016D02*
Y133016D01*
X38500Y168091D02*
X39500D01*
X39000Y167591D02*
Y168591D01*
X30000Y170591D02*
X31000D01*
X30500Y170091D02*
Y171091D01*
X40500Y167091D02*
X41500D01*
X41000Y166591D02*
Y167591D01*
X16150Y142606D02*
X17150D01*
X16650Y142106D02*
Y143106D01*
X55000Y179591D02*
X56000D01*
X55500Y179091D02*
Y180091D01*
X22000Y156091D02*
X23000D01*
X22500Y155591D02*
Y156591D01*
X32350Y168091D02*
X33350D01*
X32850Y167591D02*
Y168591D01*
X46500Y187591D02*
X47500D01*
X47000Y187091D02*
Y188091D01*
X19900Y156091D02*
X20900D01*
X20400Y155591D02*
Y156591D01*
X33500Y110091D02*
X34500D01*
X34000Y109591D02*
Y110591D01*
D16*
X86735Y67741D02*
X90067Y71073D01*
Y67741D02*
X86735Y71073D01*
X88401Y67741D02*
Y71073D01*
X90067Y69407D02*
X86735D01*
D17*
X139535Y-910D02*
G03*
X139535Y-910I-1378J0D01*
G01*
X93378Y38841D02*
G03*
X93378Y38841I-1378J0D01*
G01*
Y49341D02*
G03*
X93378Y49341I-1378J0D01*
G01*
X95878Y27000D02*
G03*
X95878Y27000I-1378J0D01*
G01*
X121378Y47341D02*
G03*
X121378Y47341I-1378J0D01*
G01*
D02*
G03*
X121378Y47341I-1378J0D01*
G01*
Y38841D02*
G03*
X121378Y38841I-1378J0D01*
G01*
D02*
G03*
X121378Y38841I-1378J0D01*
G01*
X144878Y81000D02*
G03*
X144878Y81000I-1378J0D01*
G01*
D02*
G03*
X144878Y81000I-1378J0D01*
G01*
X3378Y13091D02*
G03*
X3378Y13091I-1378J0D01*
G01*
X148378Y121000D02*
G03*
X148378Y121000I-1378J0D01*
G01*
X93811Y120929D02*
G03*
X93811Y120929I-1378J0D01*
G01*
X138157Y-2878D02*
Y1059D01*
X136189Y-909D02*
X140126D01*
X90031Y38841D02*
X93968D01*
X92000Y36873D02*
Y40810D01*
X90031Y49341D02*
X93968D01*
X92000Y47372D02*
Y51310D01*
X94500Y25032D02*
Y28969D01*
X92532Y27000D02*
X96469D01*
X120000Y45373D02*
Y49310D01*
X118032Y47341D02*
X121968D01*
X118032D02*
X121968D01*
X120000Y45373D02*
Y49310D01*
Y36873D02*
Y40810D01*
X118032Y38841D02*
X121968D01*
X118032D02*
X121968D01*
X120000Y36873D02*
Y40810D01*
X141532Y81000D02*
X145468D01*
X143500Y79031D02*
Y82968D01*
Y79031D02*
Y82968D01*
X141532Y81000D02*
X145468D01*
X22390Y28413D02*
Y43768D01*
X8610Y28413D02*
Y43768D01*
X22390D01*
X8610Y28413D02*
X22390D01*
X6890D02*
Y43768D01*
X-6890Y28413D02*
Y43768D01*
X6890D01*
X-6890Y28413D02*
X6890D01*
X32Y13091D02*
X3969D01*
X2000Y11122D02*
Y15059D01*
X145032Y121000D02*
X148969D01*
X147000Y119032D02*
Y122969D01*
X90465Y120929D02*
X94402D01*
X92433Y118961D02*
Y122898D01*
X13622Y147122D02*
X66378D01*
X13622Y199878D02*
X66378D01*
X13622Y147122D02*
Y199878D01*
X66378Y147122D02*
Y199878D01*
D18*
X40341Y135846D02*
G03*
X40341Y135846I-707J0D01*
G01*
X39634Y134846D02*
Y136846D01*
X38634Y135846D02*
X40634D01*
D19*
X97239Y62541D02*
Y66491D01*
X98400D01*
Y75191D01*
X97239D02*
X98400D01*
X97239D02*
Y79141D01*
X85761D02*
X97239D01*
X85761Y75191D02*
Y79141D01*
X84600Y75191D02*
X85761D01*
X84600Y66491D02*
Y75191D01*
Y66491D02*
X85761D01*
Y62541D02*
Y66491D01*
Y62541D02*
X97239D01*
M02*
