G04*
G04 #@! TF.GenerationSoftware,Altium Limited,Altium Designer,21.0.8 (223)*
G04*
G04 Layer_Physical_Order=2*
G04 Layer_Color=16711680*
%FSLAX25Y25*%
%MOIN*%
G70*
G04*
G04 #@! TF.SameCoordinates,10D31124-10DE-4426-A125-9D81246FB524*
G04*
G04*
G04 #@! TF.FilePolarity,Positive*
G04*
G01*
G75*
%ADD11C,0.01000*%
%ADD19C,0.00700*%
%ADD98C,0.03000*%
%ADD101C,0.06299*%
%ADD102R,0.06299X0.06299*%
%ADD103C,0.09055*%
%ADD104R,0.09055X0.09055*%
%ADD105C,0.06693*%
%ADD106R,0.06693X0.06693*%
%ADD107O,0.03937X0.08268*%
%ADD108O,0.03937X0.06299*%
%ADD109C,0.02559*%
%ADD110C,0.09843*%
%ADD111R,0.06693X0.06693*%
%ADD112C,0.01600*%
%ADD113C,0.02000*%
%ADD114C,0.02100*%
%ADD115C,0.02000*%
G36*
X167220Y235065D02*
Y235065D01*
X167710Y235039D01*
X169096Y234930D01*
X170925Y234491D01*
X172662Y233771D01*
X174266Y232788D01*
X175697Y231567D01*
X176918Y230136D01*
X177901Y228533D01*
X178621Y226795D01*
X179060Y224966D01*
X179203Y223152D01*
X179194Y223091D01*
Y0D01*
X179203Y-61D01*
X179060Y-1875D01*
X178621Y-3704D01*
X177901Y-5442D01*
X176918Y-7046D01*
X175697Y-8476D01*
X174266Y-9698D01*
X172662Y-10680D01*
X170925Y-11400D01*
X169096Y-11839D01*
X167710Y-11948D01*
X167220Y-11974D01*
X167220Y-11974D01*
X167220Y-11974D01*
X0D01*
X-61Y-11982D01*
X-1875Y-11839D01*
X-3704Y-11400D01*
X-5442Y-10680D01*
X-7046Y-9698D01*
X-8476Y-8476D01*
X-9698Y-7046D01*
X-10680Y-5442D01*
X-11400Y-3704D01*
X-11839Y-1875D01*
X-11982Y-61D01*
X-11974Y0D01*
Y59586D01*
X-11474Y59782D01*
X-5367Y53675D01*
Y46062D01*
X-5602Y45827D01*
X-5800Y45349D01*
Y45323D01*
X-6300Y45116D01*
X-6633Y45450D01*
Y52119D01*
X-6398Y52354D01*
X-6200Y52832D01*
Y53349D01*
X-6398Y53827D01*
X-6764Y54193D01*
X-7241Y54391D01*
X-7759D01*
X-8236Y54193D01*
X-8602Y53827D01*
X-8800Y53349D01*
Y52832D01*
X-8602Y52354D01*
X-8367Y52119D01*
Y45091D01*
X-8301Y44759D01*
X-8113Y44478D01*
X-5800Y42165D01*
Y41832D01*
X-5602Y41354D01*
X-5236Y40988D01*
X-4759Y40791D01*
X-4241D01*
X-4217Y40801D01*
X-3717Y40467D01*
Y20599D01*
X-5926Y18391D01*
X-6259D01*
X-6736Y18193D01*
X-7102Y17827D01*
X-7300Y17349D01*
Y16832D01*
X-7102Y16354D01*
X-6736Y15989D01*
X-6259Y15790D01*
X-5741D01*
X-5264Y15989D01*
X-4898Y16354D01*
X-4700Y16832D01*
Y17165D01*
X-2237Y19628D01*
X-2049Y19909D01*
X-1983Y20241D01*
Y46695D01*
X-1521Y46886D01*
X2200Y43165D01*
Y42832D01*
X2398Y42354D01*
X2764Y41989D01*
X3241Y41791D01*
X3759D01*
X4236Y41989D01*
X4602Y42354D01*
X4800Y42832D01*
Y43349D01*
X4602Y43827D01*
X4236Y44193D01*
X3759Y44391D01*
X3426D01*
X-633Y48450D01*
Y69090D01*
X-699Y69422D01*
X-887Y69703D01*
X-2200Y71016D01*
Y71349D01*
X-2398Y71827D01*
X-2764Y72193D01*
X-3241Y72391D01*
X-3759D01*
X-4236Y72193D01*
X-4602Y71827D01*
X-4800Y71349D01*
Y70832D01*
X-4602Y70354D01*
X-4236Y69989D01*
X-3759Y69791D01*
X-3426D01*
X-2367Y68732D01*
Y60558D01*
X-2829Y60366D01*
X-6328Y63866D01*
Y107537D01*
X4859Y118724D01*
X11028D01*
X11264Y118489D01*
X11741Y118291D01*
X12259D01*
X12736Y118489D01*
X12972Y118724D01*
X20450D01*
X20782Y118790D01*
X21063Y118978D01*
X29401Y127315D01*
X29734D01*
X30212Y127513D01*
X30577Y127879D01*
X30775Y128357D01*
Y128874D01*
X30577Y129352D01*
X30212Y129718D01*
X30187Y129728D01*
X30070Y130317D01*
X35285Y135533D01*
X35785Y135326D01*
Y129298D01*
X33738Y127252D01*
X33517Y127103D01*
X31410Y124997D01*
X31222Y124716D01*
X31156Y124384D01*
Y122684D01*
X31133Y122569D01*
Y108591D01*
X31199Y108259D01*
X31387Y107978D01*
X32700Y106665D01*
Y106332D01*
X32898Y105854D01*
X33264Y105489D01*
X33741Y105291D01*
X34259D01*
X34736Y105489D01*
X35102Y105854D01*
X35300Y106332D01*
Y106849D01*
X35102Y107327D01*
X34736Y107693D01*
X34259Y107891D01*
X33926D01*
X33443Y108373D01*
X33727Y108797D01*
X33741Y108791D01*
X34259D01*
X34736Y108988D01*
X35102Y109354D01*
X35300Y109832D01*
Y110349D01*
X35102Y110827D01*
X34867Y111062D01*
Y124232D01*
X38464Y127829D01*
X38652Y128110D01*
X38718Y128442D01*
Y153273D01*
X39218Y153480D01*
X48865Y143833D01*
X49146Y143645D01*
X49478Y143579D01*
X53755D01*
X54087Y143645D01*
X54368Y143833D01*
X56426Y145891D01*
X56759D01*
X57236Y146089D01*
X57602Y146454D01*
X57632Y146526D01*
X58222Y146643D01*
X61096Y143769D01*
X60941Y143217D01*
X60680Y143109D01*
X60315Y142744D01*
X60166Y142385D01*
X59728Y142323D01*
X59645Y142335D01*
X59587Y142477D01*
X59221Y142843D01*
X58743Y143041D01*
X58226D01*
X57748Y142843D01*
X57383Y142477D01*
X57185Y141999D01*
Y141482D01*
X57383Y141004D01*
X57748Y140638D01*
X58226Y140441D01*
X58559D01*
X93240Y105760D01*
X93521Y105572D01*
X93853Y105506D01*
X160373D01*
X160705Y105572D01*
X160986Y105760D01*
X165395Y110169D01*
X165583Y110450D01*
X165649Y110782D01*
Y126675D01*
X166149Y126882D01*
X167204Y125828D01*
X167485Y125640D01*
X167817Y125574D01*
X171047D01*
X171379Y125640D01*
X171660Y125828D01*
X174313Y128481D01*
X174501Y128762D01*
X174567Y129094D01*
Y171391D01*
X174501Y171722D01*
X174313Y172003D01*
X166264Y180052D01*
X166584Y180606D01*
X166847Y181584D01*
Y182597D01*
X166584Y183575D01*
X166078Y184452D01*
X165362Y185169D01*
X164485Y185675D01*
X163506Y185937D01*
X162494D01*
X161515Y185675D01*
X160638Y185169D01*
X160039Y184570D01*
X159539Y184735D01*
Y199446D01*
X160039Y199612D01*
X160638Y199013D01*
X161515Y198506D01*
X162494Y198244D01*
X163506D01*
X164485Y198506D01*
X165362Y199013D01*
X166078Y199729D01*
X166584Y200606D01*
X166847Y201584D01*
Y202597D01*
X166584Y203575D01*
X166078Y204452D01*
X165362Y205169D01*
X164485Y205675D01*
X163506Y205937D01*
X162494D01*
X161515Y205675D01*
X160638Y205169D01*
X160039Y204570D01*
X159539Y204735D01*
Y210091D01*
X159384Y210871D01*
X158942Y211532D01*
X158280Y211975D01*
X157500Y212130D01*
X62521D01*
X61741Y211975D01*
X61079Y211532D01*
X57808Y208261D01*
X57346Y208453D01*
Y212787D01*
X57493Y212935D01*
X57846Y213121D01*
X58036Y213083D01*
X63528D01*
X63764Y212848D01*
X64241Y212650D01*
X64759D01*
X65236Y212848D01*
X65602Y213214D01*
X65800Y213691D01*
Y214209D01*
X65790Y214233D01*
X66124Y214733D01*
X80051D01*
X80383Y214799D01*
X80664Y214987D01*
X81053Y215376D01*
X81259Y215170D01*
X82091Y214690D01*
X83020Y214441D01*
X83981D01*
X84909Y214690D01*
X85741Y215170D01*
X86420Y215850D01*
X86818Y216538D01*
X86893Y216561D01*
X87274Y216568D01*
X87373Y216538D01*
X87466Y216400D01*
X90387Y213478D01*
X90668Y213290D01*
X91000Y213224D01*
X119500D01*
X119832Y213290D01*
X120113Y213478D01*
X121605Y214970D01*
X122091Y214690D01*
X123020Y214441D01*
X123980D01*
X124909Y214690D01*
X125741Y215170D01*
X126420Y215850D01*
X126901Y216682D01*
X127150Y217610D01*
Y218571D01*
X126901Y219499D01*
X126420Y220332D01*
X125741Y221011D01*
X124909Y221491D01*
X123980Y221740D01*
X123020D01*
X122091Y221491D01*
X121259Y221011D01*
X120580Y220332D01*
X120099Y219499D01*
X119850Y218571D01*
Y217610D01*
X120099Y216682D01*
X120380Y216196D01*
X119141Y214958D01*
X116235D01*
X116028Y215458D01*
X116420Y215850D01*
X116901Y216682D01*
X117150Y217610D01*
Y218571D01*
X116901Y219499D01*
X116420Y220332D01*
X115741Y221011D01*
X114909Y221491D01*
X114367Y221637D01*
Y222434D01*
X114301Y222766D01*
X114113Y223047D01*
X113219Y223941D01*
X113426Y224441D01*
X113980D01*
X114909Y224690D01*
X115741Y225170D01*
X116420Y225850D01*
X116901Y226682D01*
X117150Y227610D01*
Y228571D01*
X116901Y229499D01*
X116420Y230331D01*
X115741Y231011D01*
X114909Y231491D01*
X113980Y231740D01*
X113020D01*
X112091Y231491D01*
X111259Y231011D01*
X110867Y230619D01*
X110367Y230826D01*
Y231500D01*
X110301Y231831D01*
X110113Y232112D01*
X108613Y233613D01*
X108332Y233801D01*
X108000Y233867D01*
X84606D01*
X84275Y233801D01*
X83994Y233613D01*
X83338Y232957D01*
X81843D01*
X81512Y232891D01*
X81230Y232703D01*
X75800Y227273D01*
X75300Y227480D01*
Y227759D01*
X75102Y228236D01*
X74736Y228602D01*
X74259Y228800D01*
X73741D01*
X73264Y228602D01*
X72898Y228236D01*
X72782Y227957D01*
X9972D01*
X9736Y228193D01*
X9259Y228391D01*
X8741D01*
X8264Y228193D01*
X7898Y227827D01*
X7700Y227349D01*
Y226832D01*
X7898Y226354D01*
X8264Y225989D01*
X8741Y225791D01*
X9259D01*
X9736Y225989D01*
X9972Y226224D01*
X73347D01*
X73575Y226269D01*
X73741Y226200D01*
X74020D01*
X74227Y225700D01*
X69894Y221367D01*
X68515D01*
X68468Y221357D01*
X7510D01*
X7179Y221291D01*
X7070Y221218D01*
X6620Y221519D01*
X6799Y222421D01*
Y223760D01*
X6538Y225074D01*
X6025Y226311D01*
X5281Y227425D01*
X4334Y228372D01*
X3221Y229116D01*
X1983Y229628D01*
X670Y229890D01*
X-670D01*
X-1983Y229628D01*
X-3221Y229116D01*
X-4334Y228372D01*
X-5281Y227425D01*
X-6025Y226311D01*
X-6538Y225074D01*
X-6799Y223760D01*
Y222421D01*
X-6538Y221107D01*
X-6025Y219870D01*
X-5281Y218756D01*
X-4334Y217809D01*
X-3584Y217308D01*
X-3736Y216808D01*
X-4332D01*
X-4664Y216742D01*
X-4945Y216554D01*
X-6642Y214857D01*
X-9494D01*
X-9826Y214791D01*
X-10107Y214603D01*
X-11474Y213236D01*
X-11637Y213254D01*
X-11974Y213407D01*
Y223091D01*
X-11982Y223152D01*
X-11839Y224966D01*
X-11400Y226795D01*
X-10680Y228533D01*
X-9698Y230136D01*
X-8476Y231567D01*
X-7046Y232788D01*
X-5442Y233771D01*
X-3704Y234491D01*
X-1875Y234930D01*
X-489Y235039D01*
X0Y235065D01*
X491Y235065D01*
X166721D01*
X167220Y235065D01*
D02*
G37*
G36*
X30890Y213420D02*
X30422Y212952D01*
X29916Y212075D01*
X29654Y211097D01*
Y210084D01*
X29916Y209106D01*
X30422Y208229D01*
X30868Y207783D01*
X30661Y207283D01*
X6830D01*
X6050Y207128D01*
X5388Y206686D01*
X5182Y206480D01*
X2347D01*
Y207937D01*
X-3670D01*
X-3861Y208399D01*
X-1985Y210275D01*
X18116D01*
X18448Y210341D01*
X18729Y210529D01*
X22121Y213920D01*
X30683D01*
X30890Y213420D01*
D02*
G37*
G36*
X155461Y167687D02*
X155616Y166907D01*
X156058Y166245D01*
X159270Y163033D01*
X159153Y162597D01*
Y161584D01*
X159416Y160606D01*
X159922Y159729D01*
X160638Y159013D01*
X161515Y158506D01*
X162494Y158244D01*
X163506D01*
X164485Y158506D01*
X165362Y159013D01*
X166078Y159729D01*
X166584Y160606D01*
X166847Y161584D01*
Y162597D01*
X166584Y163575D01*
X166078Y164452D01*
X165362Y165168D01*
X164485Y165675D01*
X163506Y165937D01*
X162494D01*
X162210Y165861D01*
X159539Y168532D01*
Y169446D01*
X160039Y169612D01*
X160638Y169013D01*
X161515Y168506D01*
X162494Y168244D01*
X163506D01*
X164485Y168506D01*
X165039Y168826D01*
X171633Y162232D01*
Y129950D01*
X170641Y128957D01*
X169472D01*
X169367Y129062D01*
Y129591D01*
X169301Y129922D01*
X169113Y130203D01*
X167613Y131703D01*
X167332Y131891D01*
X167000Y131957D01*
X164500D01*
X164168Y131891D01*
X163887Y131703D01*
X162567Y130383D01*
X162067Y130590D01*
Y134432D01*
X165263Y137628D01*
X165451Y137909D01*
X165517Y138241D01*
Y140941D01*
X165451Y141272D01*
X165300Y141498D01*
Y141849D01*
X165102Y142327D01*
X164736Y142693D01*
X164259Y142891D01*
X163741D01*
X163264Y142693D01*
X163200Y142629D01*
X162487D01*
X162347Y142657D01*
X156859D01*
X150567Y148950D01*
Y170391D01*
X150501Y170722D01*
X150313Y171003D01*
X141264Y180052D01*
X141584Y180606D01*
X141847Y181584D01*
Y182597D01*
X141584Y183575D01*
X141078Y184452D01*
X140362Y185169D01*
X139485Y185675D01*
X138506Y185937D01*
X137494D01*
X136515Y185675D01*
X135638Y185169D01*
X135039Y184570D01*
X134539Y184735D01*
Y199446D01*
X135039Y199612D01*
X135638Y199013D01*
X136515Y198506D01*
X137494Y198244D01*
X138506D01*
X139485Y198506D01*
X140362Y199013D01*
X141078Y199729D01*
X141584Y200606D01*
X141847Y201584D01*
Y202597D01*
X141584Y203575D01*
X141078Y204452D01*
X140362Y205169D01*
X139485Y205675D01*
X138506Y205937D01*
X137494D01*
X136515Y205675D01*
X135638Y205169D01*
X135039Y204570D01*
X134539Y204735D01*
Y208051D01*
X155461D01*
Y167687D01*
D02*
G37*
G36*
X40083Y201991D02*
X40415Y201925D01*
X48607D01*
X53783Y196748D01*
Y185714D01*
X53283Y185380D01*
X53259Y185391D01*
X52741D01*
X52264Y185193D01*
X51898Y184827D01*
X51700Y184349D01*
Y184016D01*
X48708Y181024D01*
X48520Y180743D01*
X48454Y180411D01*
Y177182D01*
X47954Y176975D01*
X47736Y177193D01*
X47259Y177391D01*
X46741D01*
X46264Y177193D01*
X45898Y176827D01*
X45700Y176349D01*
Y175891D01*
X45241D01*
X44764Y175693D01*
X44717Y175646D01*
X44217Y175853D01*
Y178082D01*
X51613Y185478D01*
X51801Y185759D01*
X51867Y186091D01*
Y186619D01*
X52102Y186854D01*
X52300Y187332D01*
Y187849D01*
X52102Y188327D01*
X51736Y188693D01*
X51259Y188891D01*
X50741D01*
X50595Y188830D01*
X50497Y188866D01*
X50133Y189180D01*
Y189516D01*
X49935Y189994D01*
X49570Y190359D01*
X49092Y190557D01*
X48575D01*
X48097Y190359D01*
X47731Y189994D01*
X47533Y189516D01*
Y189318D01*
X47292Y188942D01*
X47071Y188891D01*
X46741D01*
X46300Y189249D01*
Y189349D01*
X46102Y189827D01*
X45736Y190193D01*
X45259Y190391D01*
X44741D01*
X44264Y190193D01*
X44028Y189957D01*
X41150D01*
X40818Y189891D01*
X40537Y189703D01*
X35183Y184349D01*
X34995Y184068D01*
X34929Y183736D01*
Y171040D01*
X34467Y170849D01*
X34113Y171203D01*
X33832Y171391D01*
X33500Y171457D01*
X31472D01*
X31236Y171693D01*
X30759Y171891D01*
X30241D01*
X29764Y171693D01*
X29398Y171327D01*
X29200Y170849D01*
Y170332D01*
X29398Y169854D01*
X29764Y169489D01*
X30241Y169291D01*
X30759D01*
X31236Y169489D01*
X31472Y169724D01*
X32090D01*
X32189Y169224D01*
X32114Y169193D01*
X31748Y168827D01*
X31550Y168349D01*
Y167832D01*
X31748Y167354D01*
X31983Y167119D01*
Y164847D01*
X32049Y164515D01*
X32237Y164234D01*
X33102Y163369D01*
X32910Y162907D01*
X26253D01*
X25921Y162841D01*
X25640Y162653D01*
X23867Y160880D01*
X23367Y161087D01*
Y168232D01*
X29926Y174791D01*
X30259D01*
X30736Y174988D01*
X31102Y175354D01*
X31300Y175832D01*
Y176349D01*
X31102Y176827D01*
X30736Y177193D01*
X30259Y177391D01*
X29815D01*
Y177834D01*
X29617Y178312D01*
X29252Y178678D01*
X28774Y178876D01*
X28256D01*
X27779Y178678D01*
X27413Y178312D01*
X27215Y177834D01*
Y177501D01*
X19787Y170073D01*
X19599Y169792D01*
X19533Y169460D01*
Y157062D01*
X19298Y156827D01*
X19288Y156802D01*
X18698Y156685D01*
X14217Y161166D01*
Y179271D01*
X14151Y179603D01*
X13963Y179884D01*
X12293Y181553D01*
X12012Y181741D01*
X11681Y181807D01*
X10009D01*
X2916Y188900D01*
X2635Y189088D01*
X2303Y189154D01*
X-3238D01*
X-3570Y189088D01*
X-3851Y188900D01*
X-6309Y186442D01*
X-6497Y186161D01*
X-6563Y185829D01*
Y179987D01*
X-6497Y179655D01*
X-6309Y179374D01*
X-3983Y177048D01*
X-4578Y176452D01*
X-5084Y175575D01*
X-5347Y174597D01*
Y173584D01*
X-5084Y172606D01*
X-4578Y171729D01*
X-3862Y171013D01*
X-2985Y170506D01*
X-2006Y170244D01*
X-994D01*
X-15Y170506D01*
X862Y171013D01*
X1578Y171729D01*
X2084Y172606D01*
X2347Y173584D01*
Y174597D01*
X2084Y175575D01*
X1578Y176452D01*
X862Y177169D01*
X-15Y177675D01*
X-994Y177937D01*
X-2006D01*
X-2333Y177849D01*
X-4830Y180346D01*
Y181274D01*
X-4330Y181481D01*
X-3862Y181013D01*
X-2985Y180506D01*
X-2006Y180244D01*
X-994D01*
X-15Y180506D01*
X862Y181013D01*
X1578Y181729D01*
X2084Y182606D01*
X2250Y183224D01*
X4444D01*
X8540Y179128D01*
X8821Y178940D01*
X8897Y178925D01*
X9200Y178461D01*
X9210Y178374D01*
X9200Y178349D01*
Y177832D01*
X9398Y177354D01*
X9633Y177119D01*
Y176003D01*
X9481Y175884D01*
X9133Y175735D01*
X8759Y175891D01*
X8241D01*
X7764Y175693D01*
X7398Y175327D01*
X7200Y174849D01*
Y174332D01*
X7398Y173854D01*
X7603Y173649D01*
X7577Y173240D01*
X7259Y172891D01*
X6741D01*
X6264Y172693D01*
X5898Y172327D01*
X5700Y171849D01*
Y171332D01*
X5898Y170854D01*
X6133Y170619D01*
Y160000D01*
X6199Y159668D01*
X6387Y159387D01*
X9446Y156329D01*
X9254Y155867D01*
X-2050D01*
X-7633Y161450D01*
Y198699D01*
X-7133Y198906D01*
X-6005Y197778D01*
X-5724Y197590D01*
X-5392Y197524D01*
X3641D01*
X9983Y191182D01*
Y189472D01*
X9748Y189236D01*
X9550Y188759D01*
Y188241D01*
X9748Y187764D01*
X10114Y187398D01*
X10591Y187200D01*
X11109D01*
X11586Y187398D01*
X11952Y187764D01*
X12150Y188241D01*
Y188738D01*
X12155Y188765D01*
X12508Y189200D01*
X12759D01*
X13236Y189398D01*
X13641Y189095D01*
X13643Y189092D01*
X13445Y188614D01*
Y188097D01*
X13643Y187619D01*
X14009Y187254D01*
X14486Y187056D01*
X15004D01*
X15481Y187254D01*
X15847Y187619D01*
X16045Y188097D01*
Y188614D01*
X15847Y189092D01*
X15612Y189328D01*
Y193023D01*
X15546Y193354D01*
X15358Y193635D01*
X15167Y193826D01*
Y197532D01*
X18013Y200377D01*
X23729D01*
X23995Y200199D01*
X24327Y200133D01*
X30028D01*
X30264Y199898D01*
X30741Y199700D01*
X31259D01*
X31736Y199898D01*
X32102Y200264D01*
X32300Y200741D01*
Y201259D01*
X32189Y201528D01*
X32464Y202028D01*
X34949D01*
X35200Y201652D01*
Y201319D01*
X30887Y197006D01*
X30699Y196725D01*
X30633Y196394D01*
Y191859D01*
X30074Y191300D01*
X29741D01*
X29264Y191102D01*
X28898Y190736D01*
X28700Y190259D01*
Y189741D01*
X28898Y189264D01*
X29264Y188898D01*
X29741Y188700D01*
X30259D01*
X30736Y188898D01*
X31102Y189264D01*
X31300Y189741D01*
Y190074D01*
X32113Y190887D01*
X32301Y191168D01*
X32367Y191500D01*
Y196035D01*
X36426Y200094D01*
X36759D01*
X37236Y200292D01*
X37602Y200657D01*
X37800Y201135D01*
Y201652D01*
X37790Y201677D01*
X38124Y202177D01*
X39804D01*
X40083Y201991D01*
D02*
G37*
G36*
X76898Y204764D02*
X77264Y204398D01*
X77741Y204200D01*
X78259D01*
X78736Y204398D01*
X78914Y204576D01*
X79414Y204369D01*
Y168762D01*
X79570Y167982D01*
X80012Y167320D01*
X84276Y163055D01*
X84153Y162597D01*
Y161584D01*
X84416Y160606D01*
X84922Y159729D01*
X85390Y159261D01*
X85183Y158761D01*
X79440D01*
X59151Y179050D01*
Y179140D01*
X59085Y179471D01*
X58897Y179752D01*
X57002Y181647D01*
X56802Y182154D01*
X57000Y182632D01*
Y183149D01*
X56969Y183225D01*
X57046Y183798D01*
X57412Y184164D01*
X57610Y184642D01*
Y184975D01*
X62018Y189383D01*
X62205Y189664D01*
X62271Y189995D01*
Y198136D01*
X62768Y198633D01*
X64528D01*
X64764Y198398D01*
X65241Y198200D01*
X65759D01*
X65833Y198231D01*
X66333Y197897D01*
Y191445D01*
X66149Y191170D01*
X66083Y190838D01*
Y178972D01*
X65848Y178736D01*
X65650Y178259D01*
Y177741D01*
X65848Y177264D01*
X66214Y176898D01*
X66302Y176861D01*
X66594Y176259D01*
Y175741D01*
X66792Y175264D01*
X67157Y174898D01*
X67635Y174700D01*
X68152D01*
X68633Y174358D01*
Y172972D01*
X68398Y172736D01*
X68200Y172259D01*
Y171741D01*
X68398Y171264D01*
X68764Y170898D01*
X69241Y170700D01*
X69759D01*
X69859Y170741D01*
X70241Y170359D01*
X70200Y170259D01*
Y169741D01*
X70398Y169264D01*
X70764Y168898D01*
X71241Y168700D01*
X71759D01*
X72236Y168898D01*
X72602Y169264D01*
X72800Y169741D01*
Y170259D01*
X72602Y170736D01*
X72367Y170972D01*
Y196641D01*
X73926Y198200D01*
X74259D01*
X74736Y198398D01*
X75102Y198764D01*
X75300Y199241D01*
Y199759D01*
X75102Y200236D01*
X74736Y200602D01*
X74259Y200800D01*
X73741D01*
X73264Y200602D01*
X73161Y200499D01*
X72596Y200641D01*
X72569Y200730D01*
X72602Y200764D01*
X72800Y201241D01*
Y201759D01*
X72602Y202236D01*
X72236Y202602D01*
X71759Y202800D01*
X71241D01*
X70764Y202602D01*
X70398Y202236D01*
X70200Y201759D01*
Y201241D01*
X70398Y200764D01*
X70633Y200528D01*
Y199799D01*
X70150Y199759D01*
X69952Y200236D01*
X69586Y200602D01*
X69151Y200782D01*
X69015Y200877D01*
X68789Y201216D01*
X68800Y201241D01*
Y201759D01*
X68602Y202236D01*
X68236Y202602D01*
X67759Y202800D01*
X67241D01*
X66764Y202602D01*
X66398Y202236D01*
X66200Y201759D01*
Y201241D01*
X66242Y201141D01*
X65859Y200759D01*
X65759Y200800D01*
X65241D01*
X64764Y200602D01*
X64528Y200367D01*
X62410D01*
X62078Y200301D01*
X61797Y200113D01*
X60792Y199108D01*
X60604Y198827D01*
X60538Y198495D01*
Y190354D01*
X56384Y186200D01*
X56051D01*
X56017Y186186D01*
X55517Y186520D01*
Y197107D01*
X55451Y197439D01*
X55263Y197720D01*
X54657Y198325D01*
X54899Y198791D01*
X55259D01*
X55736Y198988D01*
X56102Y199354D01*
X56300Y199832D01*
Y200165D01*
X56963Y200828D01*
X59145D01*
X59477Y200893D01*
X59758Y201081D01*
X63451Y204774D01*
X76894D01*
X76898Y204764D01*
D02*
G37*
G36*
X86515Y178506D02*
X87494Y178244D01*
X88506D01*
X89485Y178506D01*
X90039Y178826D01*
X102633Y166232D01*
Y159324D01*
X102133Y159173D01*
X102113Y159203D01*
X94009Y167307D01*
X94009Y167307D01*
X91264Y170052D01*
X91584Y170606D01*
X91847Y171584D01*
Y172597D01*
X91584Y173575D01*
X91078Y174452D01*
X90362Y175169D01*
X89485Y175675D01*
X88506Y175937D01*
X87494D01*
X86515Y175675D01*
X85638Y175169D01*
X85170Y174700D01*
X84670Y174908D01*
Y177535D01*
X85961Y178826D01*
X86515Y178506D01*
D02*
G37*
G36*
X104414Y168314D02*
X104570Y167533D01*
X105012Y166872D01*
X109182Y162702D01*
X109153Y162597D01*
Y161584D01*
X109416Y160606D01*
X109922Y159729D01*
X110638Y159013D01*
X111515Y158506D01*
X112494Y158244D01*
X113506D01*
X114485Y158506D01*
X115362Y159013D01*
X116078Y159729D01*
X116584Y160606D01*
X116847Y161584D01*
Y162246D01*
X117347Y162453D01*
X118133Y161666D01*
Y156449D01*
X117308Y155625D01*
X116847Y155816D01*
Y155937D01*
X109153D01*
Y149285D01*
X108692Y149093D01*
X104367Y153418D01*
Y166591D01*
X104301Y166922D01*
X104113Y167203D01*
X91264Y180052D01*
X91584Y180606D01*
X91847Y181584D01*
Y182597D01*
X91584Y183575D01*
X91078Y184452D01*
X90362Y185169D01*
X89485Y185675D01*
X88506Y185937D01*
X87494D01*
X86515Y185675D01*
X85638Y185169D01*
X84922Y184452D01*
X84416Y183575D01*
X84153Y182597D01*
Y181584D01*
X84416Y180606D01*
X84736Y180052D01*
X83955Y179271D01*
X83493Y179462D01*
Y208051D01*
X104414D01*
Y168314D01*
D02*
G37*
G36*
X100633Y158232D02*
Y149051D01*
X100699Y148719D01*
X100887Y148438D01*
X104348Y144978D01*
X104629Y144790D01*
X104960Y144724D01*
X107744D01*
X107969Y144457D01*
X107780Y143957D01*
X88815D01*
X84990Y147782D01*
X85181Y148244D01*
X91847D01*
Y155937D01*
X91411D01*
X91204Y156437D01*
X94009Y159242D01*
X94197Y159524D01*
X94263Y159855D01*
Y163949D01*
X94725Y164140D01*
X100633Y158232D01*
D02*
G37*
G36*
X-2510Y150481D02*
X-2229Y150293D01*
X-1897Y150227D01*
X10137D01*
X14566Y145797D01*
X14449Y145207D01*
X14414Y145193D01*
X14048Y144827D01*
X13850Y144349D01*
Y143832D01*
X14048Y143354D01*
X13805Y142905D01*
X13633Y142790D01*
X13609Y142800D01*
X13091D01*
X12614Y142602D01*
X12248Y142236D01*
X12050Y141759D01*
Y141241D01*
X12248Y140764D01*
X12483Y140528D01*
Y132119D01*
X11731Y131367D01*
X-7591D01*
X-7922Y131301D01*
X-8203Y131113D01*
X-11474Y127842D01*
X-11974Y128038D01*
Y159274D01*
X-11637Y159427D01*
X-11474Y159445D01*
X-2510Y150481D01*
D02*
G37*
G36*
X18886Y141478D02*
X19167Y141290D01*
X19499Y141224D01*
X26028D01*
X26264Y140989D01*
X26741Y140791D01*
X27259D01*
X27736Y140989D01*
X27972Y141224D01*
X30633D01*
Y138424D01*
X23262Y131052D01*
X22713Y131210D01*
X22602Y131477D01*
X22236Y131843D01*
X21759Y132041D01*
X21426D01*
X17517Y135950D01*
Y141634D01*
X17752Y141869D01*
X17762Y141894D01*
X18352Y142011D01*
X18886Y141478D01*
D02*
G37*
G36*
X103133Y131246D02*
Y124294D01*
X103199Y123963D01*
X103387Y123681D01*
X108402Y118667D01*
X108683Y118479D01*
X109015Y118413D01*
X148405D01*
X154700Y112118D01*
Y111785D01*
X154836Y111457D01*
X154594Y110957D01*
X102477D01*
X102194Y111457D01*
X102300Y111714D01*
Y112231D01*
X102102Y112709D01*
X101868Y112943D01*
X101784Y113252D01*
X101868Y113561D01*
X102102Y113795D01*
X102300Y114273D01*
Y114790D01*
X102102Y115268D01*
X101868Y115502D01*
X101784Y115811D01*
X101868Y116120D01*
X102102Y116354D01*
X102300Y116832D01*
Y117349D01*
X102102Y117827D01*
X101736Y118193D01*
X101259Y118391D01*
X100741D01*
X100264Y118193D01*
X100052Y117981D01*
X96123D01*
X88106Y125998D01*
X88297Y126460D01*
X100028D01*
X100264Y126225D01*
X100741Y126027D01*
X101259D01*
X101736Y126225D01*
X102102Y126590D01*
X102300Y127068D01*
Y127585D01*
X102102Y128063D01*
X101868Y128297D01*
X101784Y128606D01*
X101868Y128916D01*
X102102Y129149D01*
X102300Y129627D01*
Y130144D01*
X102102Y130622D01*
X101885Y130839D01*
X101757Y131066D01*
X101868Y131475D01*
X102015Y131622D01*
X102026Y131647D01*
X102616Y131764D01*
X103133Y131246D01*
D02*
G37*
G36*
X23758Y124124D02*
X20091Y120457D01*
X12972D01*
X12736Y120693D01*
X12259Y120891D01*
X11741D01*
X11264Y120693D01*
X11028Y120457D01*
X4500D01*
X4168Y120391D01*
X3887Y120203D01*
X-4749Y111567D01*
X-5339Y111684D01*
X-5398Y111827D01*
X-5633Y112062D01*
Y121220D01*
X-2229Y124624D01*
X23551D01*
X23758Y124124D01*
D02*
G37*
G36*
X130461Y167687D02*
X130616Y166907D01*
X131058Y166245D01*
X134270Y163033D01*
X134153Y162597D01*
Y161584D01*
X134416Y160606D01*
X134922Y159729D01*
X135638Y159013D01*
X136515Y158506D01*
X137494Y158244D01*
X138506D01*
X139485Y158506D01*
X140362Y159013D01*
X141078Y159729D01*
X141584Y160606D01*
X141847Y161584D01*
Y162597D01*
X141584Y163575D01*
X141078Y164452D01*
X140362Y165168D01*
X139485Y165675D01*
X138506Y165937D01*
X137494D01*
X137210Y165861D01*
X134539Y168532D01*
Y169446D01*
X135039Y169612D01*
X135638Y169013D01*
X136515Y168506D01*
X137494Y168244D01*
X138506D01*
X139485Y168506D01*
X140039Y168826D01*
X147633Y161232D01*
Y148094D01*
X147699Y147762D01*
X147887Y147481D01*
X156390Y138978D01*
X156671Y138790D01*
X157003Y138724D01*
X160255D01*
X160446Y138262D01*
X159387Y137203D01*
X159199Y136922D01*
X159133Y136591D01*
Y111450D01*
X158641Y110957D01*
X157406D01*
X157164Y111457D01*
X157300Y111785D01*
Y112302D01*
X157102Y112780D01*
X156868Y113014D01*
X156784Y113323D01*
X156868Y113632D01*
X157102Y113866D01*
X157300Y114344D01*
Y114861D01*
X157102Y115339D01*
X156868Y115573D01*
X156784Y115882D01*
X156868Y116191D01*
X157102Y116425D01*
X157300Y116903D01*
Y117420D01*
X157102Y117898D01*
X156736Y118263D01*
X156259Y118461D01*
X155926D01*
X152108Y122280D01*
X155926Y126098D01*
X156259D01*
X156736Y126295D01*
X157102Y126661D01*
X157300Y127139D01*
Y127656D01*
X157102Y128134D01*
X156868Y128368D01*
X156784Y128677D01*
X156868Y128986D01*
X157102Y129220D01*
X157300Y129698D01*
Y130215D01*
X157102Y130693D01*
X156868Y130927D01*
X156784Y131236D01*
X156868Y131545D01*
X157102Y131779D01*
X157300Y132257D01*
Y132774D01*
X157102Y133252D01*
X156736Y133618D01*
X156259Y133816D01*
X155741D01*
X155264Y133618D01*
X154898Y133252D01*
X154700Y132774D01*
Y132441D01*
X148405Y126146D01*
X117631D01*
X117440Y126608D01*
X123813Y132981D01*
X124001Y133262D01*
X124067Y133594D01*
Y171891D01*
X124001Y172222D01*
X123813Y172503D01*
X116264Y180052D01*
X116584Y180606D01*
X116847Y181584D01*
Y182597D01*
X116584Y183575D01*
X116078Y184452D01*
X115362Y185169D01*
X114485Y185675D01*
X113506Y185937D01*
X112494D01*
X111515Y185675D01*
X110638Y185169D01*
X109922Y184452D01*
X109416Y183575D01*
X109153Y182597D01*
Y181584D01*
X109416Y180606D01*
X109736Y180052D01*
X108955Y179271D01*
X108493Y179462D01*
Y208051D01*
X130461D01*
Y167687D01*
D02*
G37*
%LPC*%
G36*
X157150Y231740D02*
X149850D01*
Y224441D01*
X157150D01*
Y231740D01*
D02*
G37*
G36*
X143981D02*
X143019D01*
X142091Y231491D01*
X141259Y231011D01*
X140580Y230331D01*
X140099Y229499D01*
X139850Y228571D01*
Y227610D01*
X140099Y226682D01*
X140580Y225850D01*
X141259Y225170D01*
X142091Y224690D01*
X143019Y224441D01*
X143981D01*
X144909Y224690D01*
X145741Y225170D01*
X146420Y225850D01*
X146901Y226682D01*
X147150Y227610D01*
Y228571D01*
X146901Y229499D01*
X146420Y230331D01*
X145741Y231011D01*
X144909Y231491D01*
X143981Y231740D01*
D02*
G37*
G36*
X133981D02*
X133019D01*
X132091Y231491D01*
X131259Y231011D01*
X130580Y230331D01*
X130099Y229499D01*
X129850Y228571D01*
Y227610D01*
X130099Y226682D01*
X130580Y225850D01*
X131259Y225170D01*
X132091Y224690D01*
X133019Y224441D01*
X133981D01*
X134909Y224690D01*
X135741Y225170D01*
X136420Y225850D01*
X136901Y226682D01*
X137150Y227610D01*
Y228571D01*
X136901Y229499D01*
X136420Y230331D01*
X135741Y231011D01*
X134909Y231491D01*
X133981Y231740D01*
D02*
G37*
G36*
X123980D02*
X123020D01*
X122091Y231491D01*
X121259Y231011D01*
X120580Y230331D01*
X120099Y229499D01*
X119850Y228571D01*
Y227610D01*
X120099Y226682D01*
X120580Y225850D01*
X121259Y225170D01*
X122091Y224690D01*
X123020Y224441D01*
X123980D01*
X124909Y224690D01*
X125741Y225170D01*
X126420Y225850D01*
X126901Y226682D01*
X127150Y227610D01*
Y228571D01*
X126901Y229499D01*
X126420Y230331D01*
X125741Y231011D01*
X124909Y231491D01*
X123980Y231740D01*
D02*
G37*
G36*
X167890Y229890D02*
X166551D01*
X165237Y229628D01*
X164000Y229116D01*
X162886Y228372D01*
X161939Y227425D01*
X161195Y226311D01*
X160682Y225074D01*
X160421Y223760D01*
Y222421D01*
X160682Y221107D01*
X161195Y219870D01*
X161939Y218756D01*
X162886Y217809D01*
X164000Y217065D01*
X165237Y216553D01*
X166551Y216291D01*
X167890D01*
X169204Y216553D01*
X170441Y217065D01*
X171555Y217809D01*
X172502Y218756D01*
X173246Y219870D01*
X173758Y221107D01*
X174020Y222421D01*
Y223760D01*
X173758Y225074D01*
X173246Y226311D01*
X172502Y227425D01*
X171555Y228372D01*
X170441Y229116D01*
X169204Y229628D01*
X167890Y229890D01*
D02*
G37*
G36*
X153981Y221740D02*
X153019D01*
X152091Y221491D01*
X151259Y221011D01*
X150580Y220332D01*
X150099Y219499D01*
X149850Y218571D01*
Y217610D01*
X150099Y216682D01*
X150580Y215850D01*
X151259Y215170D01*
X152091Y214690D01*
X153019Y214441D01*
X153981D01*
X154909Y214690D01*
X155741Y215170D01*
X156420Y215850D01*
X156901Y216682D01*
X157150Y217610D01*
Y218571D01*
X156901Y219499D01*
X156420Y220332D01*
X155741Y221011D01*
X154909Y221491D01*
X153981Y221740D01*
D02*
G37*
G36*
X143981D02*
X143019D01*
X142091Y221491D01*
X141259Y221011D01*
X140580Y220332D01*
X140099Y219499D01*
X139850Y218571D01*
Y217610D01*
X140099Y216682D01*
X140580Y215850D01*
X141259Y215170D01*
X142091Y214690D01*
X143019Y214441D01*
X143981D01*
X144909Y214690D01*
X145741Y215170D01*
X146420Y215850D01*
X146901Y216682D01*
X147150Y217610D01*
Y218571D01*
X146901Y219499D01*
X146420Y220332D01*
X145741Y221011D01*
X144909Y221491D01*
X143981Y221740D01*
D02*
G37*
G36*
X133981D02*
X133019D01*
X132091Y221491D01*
X131259Y221011D01*
X130580Y220332D01*
X130099Y219499D01*
X129850Y218571D01*
Y217610D01*
X130099Y216682D01*
X130580Y215850D01*
X131259Y215170D01*
X132091Y214690D01*
X133019Y214441D01*
X133981D01*
X134909Y214690D01*
X135741Y215170D01*
X136420Y215850D01*
X136901Y216682D01*
X137150Y217610D01*
Y218571D01*
X136901Y219499D01*
X136420Y220332D01*
X135741Y221011D01*
X134909Y221491D01*
X133981Y221740D01*
D02*
G37*
G36*
X40759Y124891D02*
X40241D01*
X39764Y124693D01*
X39398Y124327D01*
X39200Y123849D01*
Y123332D01*
X39355Y122957D01*
X39206Y122609D01*
X39088Y122457D01*
X37972D01*
X37736Y122693D01*
X37259Y122891D01*
X36741D01*
X36264Y122693D01*
X35898Y122327D01*
X35700Y121849D01*
Y121332D01*
X35898Y120854D01*
X36264Y120489D01*
X36741Y120291D01*
X37259D01*
X37736Y120489D01*
X37972Y120724D01*
X56141D01*
X56700Y120165D01*
Y119832D01*
X56898Y119354D01*
X57264Y118989D01*
X57741Y118791D01*
X58259D01*
X58736Y118989D01*
X59102Y119354D01*
X59133Y119430D01*
X59633Y119330D01*
Y108359D01*
X47141Y95867D01*
X40972D01*
X40736Y96102D01*
X40259Y96300D01*
X39741D01*
X39264Y96102D01*
X38898Y95736D01*
X38700Y95259D01*
Y94741D01*
X38898Y94264D01*
X39264Y93898D01*
X39741Y93700D01*
X40259D01*
X40736Y93898D01*
X40972Y94133D01*
X47500D01*
X47832Y94199D01*
X48113Y94387D01*
X61113Y107387D01*
X61301Y107668D01*
X61367Y108000D01*
Y120864D01*
X61301Y121195D01*
X61113Y121477D01*
X58386Y124203D01*
X58105Y124391D01*
X57773Y124457D01*
X41472D01*
X41236Y124693D01*
X40759Y124891D01*
D02*
G37*
G36*
X154006Y88346D02*
X152994D01*
X152015Y88084D01*
X151138Y87578D01*
X150422Y86862D01*
X149916Y85985D01*
X149653Y85006D01*
Y83994D01*
X149916Y83015D01*
X150422Y82138D01*
X151138Y81422D01*
X152015Y80916D01*
X152994Y80654D01*
X154006D01*
X154985Y80916D01*
X155862Y81422D01*
X156578Y82138D01*
X157084Y83015D01*
X157346Y83994D01*
Y85006D01*
X157084Y85985D01*
X156578Y86862D01*
X155862Y87578D01*
X154985Y88084D01*
X154006Y88346D01*
D02*
G37*
G36*
Y78347D02*
X152994D01*
X152015Y78084D01*
X151138Y77578D01*
X150422Y76862D01*
X149916Y75985D01*
X149653Y75006D01*
Y73994D01*
X149916Y73015D01*
X150422Y72138D01*
X151138Y71422D01*
X152015Y70916D01*
X152994Y70653D01*
X154006D01*
X154985Y70916D01*
X155862Y71422D01*
X156578Y72138D01*
X157084Y73015D01*
X157346Y73994D01*
Y75006D01*
X157084Y75985D01*
X156578Y76862D01*
X155862Y77578D01*
X154985Y78084D01*
X154006Y78347D01*
D02*
G37*
G36*
Y68347D02*
X152994D01*
X152015Y68084D01*
X151138Y67578D01*
X150422Y66862D01*
X149916Y65985D01*
X149653Y65006D01*
Y63994D01*
X149916Y63015D01*
X150422Y62138D01*
X151138Y61422D01*
X152015Y60916D01*
X152994Y60654D01*
X154006D01*
X154985Y60916D01*
X155862Y61422D01*
X156578Y62138D01*
X157084Y63015D01*
X157346Y63994D01*
Y65006D01*
X157084Y65985D01*
X156578Y66862D01*
X155862Y67578D01*
X154985Y68084D01*
X154006Y68347D01*
D02*
G37*
G36*
Y58346D02*
X152994D01*
X152015Y58084D01*
X151138Y57578D01*
X150422Y56862D01*
X149916Y55985D01*
X149653Y55006D01*
Y53994D01*
X149916Y53015D01*
X150422Y52138D01*
X151138Y51422D01*
X152015Y50916D01*
X152994Y50654D01*
X154006D01*
X154985Y50916D01*
X155862Y51422D01*
X156578Y52138D01*
X157084Y53015D01*
X157346Y53994D01*
Y55006D01*
X157084Y55985D01*
X156578Y56862D01*
X155862Y57578D01*
X154985Y58084D01*
X154006Y58346D01*
D02*
G37*
G36*
X130500Y96361D02*
X84500D01*
X84110Y96283D01*
X83779Y96062D01*
X81594Y93877D01*
X81298Y94000D01*
X80702D01*
X80150Y93772D01*
X79728Y93350D01*
X79500Y92798D01*
Y92202D01*
X79728Y91650D01*
X80150Y91228D01*
X80702Y91000D01*
X81298D01*
X81850Y91228D01*
X82272Y91650D01*
X82304Y91728D01*
X82380Y91779D01*
X84922Y94321D01*
X130078D01*
X136480Y87919D01*
Y58115D01*
X127469Y49103D01*
X127395Y49118D01*
X127248Y49088D01*
X127097D01*
X126958Y49031D01*
X126810Y49001D01*
X126685Y48917D01*
X126546Y48860D01*
X126439Y48753D01*
X126314Y48670D01*
X126230Y48544D01*
X126124Y48438D01*
X126066Y48299D01*
X125983Y48173D01*
X125953Y48026D01*
X125896Y47887D01*
Y47736D01*
X125866Y47588D01*
X125896Y47440D01*
Y47290D01*
X125953Y47151D01*
X125983Y47003D01*
X126066Y46878D01*
X126124Y46739D01*
X126230Y46632D01*
X126314Y46507D01*
X126439Y46423D01*
X126546Y46317D01*
X126685Y46259D01*
X126810Y46175D01*
X126958Y46146D01*
X127097Y46088D01*
X127248D01*
X127395Y46059D01*
X127543Y46088D01*
X127694D01*
X127833Y46146D01*
X127981Y46175D01*
X128106Y46259D01*
X128245Y46317D01*
X128352Y46423D01*
X128477Y46507D01*
X128561Y46632D01*
X128667Y46739D01*
X128725Y46878D01*
X128808Y47003D01*
X128838Y47151D01*
X128895Y47290D01*
Y47440D01*
X128925Y47588D01*
X128910Y47661D01*
X138221Y56972D01*
X138442Y57302D01*
X138520Y57693D01*
Y88341D01*
X138442Y88731D01*
X138221Y89062D01*
X131221Y96062D01*
X130890Y96283D01*
X130500Y96361D01*
D02*
G37*
G36*
X154006Y48346D02*
X152994D01*
X152015Y48084D01*
X151138Y47578D01*
X150422Y46862D01*
X149916Y45985D01*
X149653Y45006D01*
Y43994D01*
X149916Y43015D01*
X150422Y42138D01*
X151138Y41422D01*
X152015Y40916D01*
X152994Y40654D01*
X154006D01*
X154985Y40916D01*
X155862Y41422D01*
X156578Y42138D01*
X157084Y43015D01*
X157346Y43994D01*
Y45006D01*
X157084Y45985D01*
X156578Y46862D01*
X155862Y47578D01*
X154985Y48084D01*
X154006Y48346D01*
D02*
G37*
G36*
X158063Y101976D02*
X63307D01*
X62527Y101821D01*
X61865Y101379D01*
X61865Y101379D01*
X61778Y101292D01*
X61745Y101284D01*
X41190Y86944D01*
X41129Y86848D01*
X41037Y86780D01*
X32911Y73334D01*
X32889Y73185D01*
X32833Y73046D01*
X32959Y64492D01*
X33040Y64305D01*
X33117Y64117D01*
X33121Y64116D01*
X33123Y64112D01*
X33312Y64037D01*
X33500Y63959D01*
X46500D01*
X46689Y64037D01*
X46881Y64115D01*
X46881Y64117D01*
X46883Y64117D01*
X46962Y64308D01*
X47041Y64497D01*
X47087Y72907D01*
X57961Y91707D01*
X64152Y97898D01*
X150751D01*
X150958Y97398D01*
X150422Y96862D01*
X149916Y95985D01*
X149653Y95006D01*
Y93994D01*
X149916Y93015D01*
X150422Y92138D01*
X151138Y91422D01*
X152015Y90916D01*
X152994Y90654D01*
X154006D01*
X154985Y90916D01*
X155862Y91422D01*
X156578Y92138D01*
X157084Y93015D01*
X157346Y93994D01*
Y95006D01*
X157084Y95985D01*
X156578Y96862D01*
X156042Y97398D01*
X156249Y97898D01*
X157218D01*
X159750Y95366D01*
X159653Y95006D01*
Y93994D01*
X159916Y93015D01*
X160422Y92138D01*
X161138Y91422D01*
X161461Y91236D01*
Y87764D01*
X161138Y87578D01*
X160422Y86862D01*
X159916Y85985D01*
X159653Y85006D01*
Y83994D01*
X159916Y83015D01*
X160422Y82138D01*
X161138Y81422D01*
X161461Y81236D01*
Y77764D01*
X161138Y77578D01*
X160422Y76862D01*
X159916Y75985D01*
X159653Y75006D01*
Y73994D01*
X159916Y73015D01*
X160422Y72138D01*
X161138Y71422D01*
X161461Y71236D01*
Y67764D01*
X161138Y67578D01*
X160422Y66862D01*
X159916Y65985D01*
X159653Y65006D01*
Y63994D01*
X159916Y63015D01*
X160422Y62138D01*
X161138Y61422D01*
X161461Y61236D01*
Y57764D01*
X161138Y57578D01*
X160422Y56862D01*
X159916Y55985D01*
X159653Y55006D01*
Y53994D01*
X159916Y53015D01*
X160422Y52138D01*
X161138Y51422D01*
X161461Y51236D01*
Y47764D01*
X161138Y47578D01*
X160422Y46862D01*
X159916Y45985D01*
X159653Y45006D01*
Y43994D01*
X159916Y43015D01*
X160422Y42138D01*
X161138Y41422D01*
X161461Y41236D01*
Y38346D01*
X159653D01*
Y30654D01*
X167347D01*
Y38346D01*
X165539D01*
Y41236D01*
X165862Y41422D01*
X166578Y42138D01*
X167084Y43015D01*
X167347Y43994D01*
Y45006D01*
X167084Y45985D01*
X166578Y46862D01*
X165862Y47578D01*
X165539Y47764D01*
Y51236D01*
X165862Y51422D01*
X166578Y52138D01*
X167084Y53015D01*
X167347Y53994D01*
Y55006D01*
X167084Y55985D01*
X166578Y56862D01*
X165862Y57578D01*
X165539Y57764D01*
Y61236D01*
X165862Y61422D01*
X166578Y62138D01*
X167084Y63015D01*
X167347Y63994D01*
Y65006D01*
X167084Y65985D01*
X166578Y66862D01*
X165862Y67578D01*
X165539Y67764D01*
Y71236D01*
X165862Y71422D01*
X166578Y72138D01*
X167084Y73015D01*
X167347Y73994D01*
Y75006D01*
X167084Y75985D01*
X166578Y76862D01*
X165862Y77578D01*
X165539Y77764D01*
Y81236D01*
X165862Y81422D01*
X166578Y82138D01*
X167084Y83015D01*
X167347Y83994D01*
Y85006D01*
X167084Y85985D01*
X166578Y86862D01*
X165862Y87578D01*
X165539Y87764D01*
Y91236D01*
X165862Y91422D01*
X166578Y92138D01*
X167084Y93015D01*
X167347Y93994D01*
Y95006D01*
X167084Y95985D01*
X166578Y96862D01*
X165862Y97578D01*
X164985Y98084D01*
X164006Y98347D01*
X162994D01*
X162634Y98250D01*
X159505Y101379D01*
X158843Y101821D01*
X158063Y101976D01*
D02*
G37*
G36*
X157346Y38346D02*
X149653D01*
Y30654D01*
X157346D01*
Y38346D01*
D02*
G37*
G36*
X36259Y22891D02*
X35741D01*
X35264Y22693D01*
X35028Y22457D01*
X32972D01*
X32736Y22693D01*
X32259Y22891D01*
X31741D01*
X31264Y22693D01*
X30898Y22327D01*
X30700Y21849D01*
Y21332D01*
X30898Y20854D01*
X31264Y20489D01*
X31741Y20291D01*
X32259D01*
X32736Y20489D01*
X32972Y20724D01*
X35028D01*
X35264Y20489D01*
X35741Y20291D01*
X36259D01*
X36736Y20489D01*
X37102Y20854D01*
X37300Y21332D01*
Y21849D01*
X37102Y22327D01*
X36736Y22693D01*
X36259Y22891D01*
D02*
G37*
G36*
X24500Y57130D02*
X23720Y56975D01*
X23058Y56533D01*
X22616Y55871D01*
X22461Y55091D01*
Y12569D01*
X21976Y12228D01*
X21268D01*
X20614Y11957D01*
X20113Y11457D01*
X19842Y10803D01*
Y10095D01*
X20113Y9441D01*
X20614Y8940D01*
X21268Y8669D01*
X21976D01*
X22362Y8829D01*
X22862Y8519D01*
Y5689D01*
X23018Y4909D01*
X23460Y4247D01*
X25649Y2058D01*
X26310Y1616D01*
X27091Y1461D01*
X32000D01*
X32780Y1616D01*
X33442Y2058D01*
X33884Y2720D01*
X34039Y3500D01*
X33884Y4280D01*
X33442Y4942D01*
X32780Y5384D01*
X32000Y5539D01*
X27935D01*
X26941Y6534D01*
Y11807D01*
X26786Y12588D01*
X26539Y12956D01*
Y20013D01*
X27039Y20213D01*
X27264Y19988D01*
X27741Y19791D01*
X28259D01*
X28736Y19988D01*
X29102Y20354D01*
X29300Y20832D01*
Y21349D01*
X29102Y21827D01*
X28867Y22062D01*
Y27141D01*
X31044Y29318D01*
X31236Y29398D01*
X31602Y29764D01*
X31800Y30241D01*
Y30759D01*
X31602Y31236D01*
X31236Y31602D01*
X30759Y31800D01*
X30241D01*
X29764Y31602D01*
X29398Y31236D01*
X29200Y30759D01*
Y30241D01*
X29293Y30018D01*
X27387Y28113D01*
X27199Y27832D01*
X27133Y27500D01*
Y22469D01*
X27039Y22405D01*
X26539Y22670D01*
Y55091D01*
X26384Y55871D01*
X25942Y56533D01*
X25280Y56975D01*
X24500Y57130D01*
D02*
G37*
G36*
X44732Y12228D02*
X44024D01*
X43370Y11957D01*
X42869Y11457D01*
X42598Y10803D01*
Y10095D01*
X42869Y9441D01*
X43370Y8940D01*
X44024Y8669D01*
X44732D01*
X45386Y8940D01*
X45886Y9441D01*
X46157Y10095D01*
Y10803D01*
X45886Y11457D01*
X45386Y11957D01*
X44732Y12228D01*
D02*
G37*
G36*
X167890Y6799D02*
X166551D01*
X165237Y6538D01*
X164000Y6025D01*
X162886Y5281D01*
X161939Y4334D01*
X161195Y3221D01*
X160682Y1983D01*
X160421Y670D01*
Y-670D01*
X160682Y-1983D01*
X161195Y-3221D01*
X161939Y-4334D01*
X162886Y-5281D01*
X164000Y-6025D01*
X165237Y-6538D01*
X166551Y-6799D01*
X167890D01*
X169204Y-6538D01*
X170441Y-6025D01*
X171555Y-5281D01*
X172502Y-4334D01*
X173246Y-3221D01*
X173758Y-1983D01*
X174020Y-670D01*
Y670D01*
X173758Y1983D01*
X173246Y3221D01*
X172502Y4334D01*
X171555Y5281D01*
X170441Y6025D01*
X169204Y6538D01*
X167890Y6799D01*
D02*
G37*
G36*
X670D02*
X-670D01*
X-1983Y6538D01*
X-3221Y6025D01*
X-4334Y5281D01*
X-5281Y4334D01*
X-6025Y3221D01*
X-6538Y1983D01*
X-6799Y670D01*
Y-670D01*
X-6538Y-1983D01*
X-6025Y-3221D01*
X-5281Y-4334D01*
X-4334Y-5281D01*
X-3221Y-6025D01*
X-1983Y-6538D01*
X-670Y-6799D01*
X670D01*
X1983Y-6538D01*
X3221Y-6025D01*
X4334Y-5281D01*
X5281Y-4334D01*
X6025Y-3221D01*
X6538Y-1983D01*
X6799Y-670D01*
Y670D01*
X6538Y1983D01*
X6025Y3221D01*
X5281Y4334D01*
X4334Y5281D01*
X3221Y6025D01*
X1983Y6538D01*
X670Y6799D01*
D02*
G37*
G36*
X135500Y6500D02*
X59500D01*
Y-7500D01*
X135500D01*
Y6500D01*
D02*
G37*
%LPD*%
G36*
X62423Y100502D02*
X46546Y73054D01*
X46500Y64500D01*
X33500D01*
X33375Y73054D01*
X41500Y86500D01*
X62055Y100840D01*
X62423Y100502D01*
D02*
G37*
%LPC*%
G36*
X166847Y155937D02*
X159153D01*
Y148244D01*
X166847D01*
Y155937D01*
D02*
G37*
G36*
X88506Y205937D02*
X87494D01*
X86515Y205675D01*
X85638Y205169D01*
X84922Y204452D01*
X84416Y203575D01*
X84153Y202597D01*
Y201584D01*
X84416Y200606D01*
X84922Y199729D01*
X85638Y199013D01*
X86515Y198506D01*
X87494Y198244D01*
X88506D01*
X89485Y198506D01*
X90362Y199013D01*
X91078Y199729D01*
X91584Y200606D01*
X91847Y201584D01*
Y202597D01*
X91584Y203575D01*
X91078Y204452D01*
X90362Y205169D01*
X89485Y205675D01*
X88506Y205937D01*
D02*
G37*
G36*
X113506D02*
X112494D01*
X111515Y205675D01*
X110638Y205169D01*
X109922Y204452D01*
X109416Y203575D01*
X109153Y202597D01*
Y201584D01*
X109416Y200606D01*
X109922Y199729D01*
X110638Y199013D01*
X111515Y198506D01*
X112494Y198244D01*
X113506D01*
X114485Y198506D01*
X115362Y199013D01*
X116078Y199729D01*
X116584Y200606D01*
X116847Y201584D01*
Y202597D01*
X116584Y203575D01*
X116078Y204452D01*
X115362Y205169D01*
X114485Y205675D01*
X113506Y205937D01*
D02*
G37*
G36*
X141847Y155937D02*
X134153D01*
Y148244D01*
X141847D01*
Y155937D01*
D02*
G37*
%LPD*%
D11*
X81659Y92500D02*
X84500Y95341D01*
X81000Y92500D02*
X81659D01*
X84500Y95341D02*
X130500D01*
X137500Y88341D01*
Y57693D02*
Y88341D01*
X127395Y47588D02*
X137500Y57693D01*
D19*
X20768Y217187D02*
X58193D01*
X2961Y215941D02*
X7510Y220491D01*
X58193Y217187D02*
X58580Y216800D01*
X58690Y218387D02*
X59077Y218000D01*
X21265Y215987D02*
X57696D01*
X58580Y216800D02*
X76553D01*
X58083Y215600D02*
X80051D01*
X76553Y216800D02*
X81843Y222090D01*
X70253Y220500D02*
X81843Y232090D01*
X80051Y215600D02*
X82542Y218091D01*
X58036Y213950D02*
X64500D01*
X82542Y218091D02*
X83500D01*
X57696Y215987D02*
X58083Y215600D01*
X59077Y218000D02*
X76056D01*
X81346Y223290D01*
X58648Y202894D02*
X62995Y207241D01*
X20271Y218387D02*
X58690D01*
X62995Y207241D02*
X73450D01*
X68506Y220491D02*
X68515Y220500D01*
X73450Y207241D02*
X73500Y207291D01*
X7510Y220491D02*
X68506D01*
X68515Y220500D02*
X70253D01*
X73347Y227091D02*
X73756Y227500D01*
X74000D01*
X9000Y227091D02*
X73347D01*
X83697Y232090D02*
X84606Y233000D01*
X108000D01*
X81843Y232090D02*
X83697D01*
X75910Y220500D02*
X83500Y228091D01*
X74000Y220500D02*
X75910D01*
X-3338Y213541D02*
X17122D01*
X19884Y218000D02*
X20271Y218387D01*
X17619Y212341D02*
X21265Y215987D01*
X18116Y211141D02*
X21762Y214787D01*
X57199D01*
X58036Y213950D01*
X6717Y218000D02*
X19884D01*
X3458Y214741D02*
X6717Y218000D01*
X17122Y213541D02*
X20768Y217187D01*
X98300Y223290D02*
X103500Y218091D01*
X81346Y223290D02*
X98300D01*
X81843Y222090D02*
X85157D01*
X108000Y233000D02*
X109500Y231500D01*
X85157Y222090D02*
X88078Y219168D01*
Y217013D02*
Y219168D01*
Y217013D02*
X91000Y214091D01*
X119500D01*
X123500Y218091D01*
X109500Y226434D02*
X113500Y222434D01*
Y218091D02*
Y222434D01*
X109500Y226434D02*
Y231500D01*
X109015Y119280D02*
X148764D01*
X156000Y112043D01*
X40000Y95000D02*
X47500D01*
X60500Y108000D01*
Y120864D01*
X57773Y123591D02*
X60500Y120864D01*
X37000Y121591D02*
X56500D01*
X58000Y120091D01*
X53228Y154560D02*
X97697Y110091D01*
X159000D02*
X160000Y111091D01*
X160373Y106372D02*
X164783Y110782D01*
X159876Y107572D02*
X163000Y110696D01*
X159379Y108772D02*
X161200Y110593D01*
X95865Y107572D02*
X159876D01*
X97318Y108772D02*
X159379D01*
X93853Y106372D02*
X160373D01*
X160000Y111091D02*
Y136591D01*
X52731Y153359D02*
X97318Y108772D01*
X97697Y110091D02*
X159000D01*
X61431Y142007D02*
X95865Y107572D01*
X58485Y141741D02*
X93853Y106372D01*
X28000Y21091D02*
Y27500D01*
X30500Y30000D01*
X32000Y21591D02*
X36000D01*
X104960Y145591D02*
X108826D01*
X103500Y153059D02*
X109559Y147000D01*
X112500D01*
X108826Y145591D02*
X108951Y145466D01*
X101500Y149051D02*
X104960Y145591D01*
X103500Y153059D02*
Y166591D01*
X87090Y167000D02*
X89025D01*
X92197Y163829D01*
X83803Y170287D02*
X87090Y167000D01*
X93397Y166694D02*
X101500Y158591D01*
X93397Y159855D02*
Y166694D01*
X88000Y172091D02*
X93397Y166694D01*
X113000Y172091D02*
X120500Y164591D01*
Y149999D02*
Y164591D01*
X122000Y163091D01*
X112156Y167000D02*
X114025D01*
X108803Y170352D02*
X112156Y167000D01*
X114025D02*
X119000Y162025D01*
X113592Y126481D02*
X116087D01*
X112073Y128000D02*
X113592Y126481D01*
X112000Y128000D02*
X112073D01*
X114672Y128303D02*
X116212D01*
X114500Y128131D02*
X114672Y128303D01*
X116212D02*
X122000Y134091D01*
X30000Y190000D02*
X31500Y191500D01*
Y196394D01*
X36500Y201394D01*
X24327Y201000D02*
X31000D01*
X24083Y201244D02*
X24327Y201000D01*
X17654Y201244D02*
X24083D01*
X14300Y197891D02*
X17654Y201244D01*
X40415Y202792D02*
X48965D01*
X40163Y203044D02*
X40415Y202792D01*
X35817Y203044D02*
X40163D01*
X35667Y202894D02*
X35817Y203044D01*
X6000Y201091D02*
X7804Y202894D01*
X35667D01*
X48965Y202792D02*
X54650Y197107D01*
X10850Y188500D02*
Y191541D01*
X4497Y199591D02*
X12328Y191760D01*
X4000Y198391D02*
X10850Y191541D01*
X12328Y190672D02*
Y191760D01*
Y190672D02*
X12500Y190500D01*
X14300Y193467D02*
Y197891D01*
Y193467D02*
X14745Y193023D01*
Y188356D02*
Y193023D01*
X53755Y144446D02*
X56500Y147191D01*
X49478Y144446D02*
X53755D01*
X48925Y146696D02*
X53246D01*
X54548Y147997D01*
X54561D01*
X71500Y198697D02*
Y201500D01*
X69500Y175273D02*
X70300Y176073D01*
X71500Y197000D02*
X74000Y199500D01*
X71500Y170000D02*
Y197000D01*
X70300Y176073D02*
Y197497D01*
X71500Y198697D01*
X68600Y176950D02*
Y197300D01*
X67894Y176243D02*
X68600Y176950D01*
X69500Y172000D02*
Y175273D01*
X67894Y176000D02*
Y176243D01*
X67328Y201328D02*
X67500Y201500D01*
X66950Y190838D02*
X67200Y191088D01*
X68600Y197300D02*
X68850Y197550D01*
X67200Y191088D02*
Y200183D01*
X67328Y200311D02*
Y201328D01*
X67200Y200183D02*
X67328Y200311D01*
X68850Y197550D02*
Y199500D01*
X66950Y178000D02*
Y190838D01*
X63092Y205641D02*
X77859D01*
X78000Y205500D01*
X59145Y201694D02*
X63092Y205641D01*
X62410Y199500D02*
X65500D01*
X61405Y198495D02*
X62410Y199500D01*
X33083Y160841D02*
X49478Y144446D01*
X33580Y162041D02*
X48925Y146696D01*
X56310Y184900D02*
X61405Y189995D01*
Y198495D01*
X16650Y135591D02*
Y142606D01*
Y135591D02*
X21500Y130741D01*
X31090Y142091D02*
X31500Y141681D01*
X23520Y126691D02*
X33900Y137071D01*
X35100Y136574D02*
Y147718D01*
X33900Y137071D02*
Y147221D01*
X24017Y125491D02*
X35100Y136574D01*
X-2588Y125491D02*
X24017D01*
X31500Y138065D02*
Y141681D01*
X31533Y147891D02*
X32700Y146724D01*
X32528Y150291D02*
X35100Y147718D01*
X32700Y137568D02*
Y146724D01*
X-4700Y127891D02*
X23023D01*
X-3900Y126691D02*
X23520D01*
X32030Y149091D02*
X33900Y147221D01*
X19499Y142091D02*
X27000D01*
X31090D01*
X23023Y127891D02*
X32700Y137568D01*
X22526Y129091D02*
X31500Y138065D01*
X36652Y128939D02*
Y151939D01*
X37852Y128442D02*
Y153739D01*
X34203Y126491D02*
X36652Y128939D01*
X33500Y158091D02*
X37852Y153739D01*
X34000Y124591D02*
X37852Y128442D01*
X30000Y158591D02*
X36652Y151939D01*
X-6256Y129091D02*
X22526D01*
X12000Y119591D02*
X20450D01*
X29475Y128615D01*
X7000Y160000D02*
X19109Y147891D01*
X-2409Y155000D02*
X10303D01*
X19109Y147891D02*
X31533D01*
X7000Y160000D02*
Y171591D01*
X19212Y146091D02*
X31000D01*
X10303Y155000D02*
X19212Y146091D01*
X13350Y160807D02*
Y179271D01*
X20472Y150291D02*
X32528D01*
X12150Y160310D02*
Y178774D01*
X19975Y149091D02*
X32030D01*
X13350Y160807D02*
X21067Y153091D01*
X12150Y160310D02*
X20969Y151491D01*
X10500Y160263D02*
Y178091D01*
X8650Y160416D02*
X19975Y149091D01*
X8650Y160416D02*
Y174441D01*
X10500Y160263D02*
X20472Y150291D01*
X20400Y156091D02*
Y169460D01*
X21067Y153091D02*
X23000D01*
X20969Y151491D02*
X24476D01*
X22500Y156091D02*
Y168591D01*
X30000Y176091D01*
X-1897Y151093D02*
X10496D01*
X19499Y142091D01*
X-8500Y161091D02*
X-2409Y155000D01*
X19173Y144113D02*
X28978D01*
X10933Y152353D02*
X19173Y144113D01*
X-10900Y160097D02*
X-1897Y151093D01*
X-9700Y160593D02*
X-1460Y152353D01*
X10933D01*
X15000Y134541D02*
Y143941D01*
X13350Y131760D02*
Y141500D01*
X15000Y143941D02*
X15150Y144091D01*
X12090Y130500D02*
X13350Y131760D01*
X-11000Y127091D02*
X-7591Y130500D01*
X12090D01*
X-7000Y128591D02*
X-6757D01*
X-8395Y122196D02*
X-3900Y126691D01*
X-6500Y121579D02*
X-2588Y125491D01*
X-6757Y128591D02*
X-6256Y129091D01*
X-9595Y122996D02*
X-4700Y127891D01*
X-9700Y160593D02*
Y212088D01*
X-8500Y161091D02*
Y211591D01*
X-10900Y160097D02*
Y212585D01*
X-2850Y20241D02*
Y59162D01*
X-7500Y45091D02*
X-4500Y42091D01*
X-6000Y17090D02*
X-2850Y20241D01*
X-4500Y45091D02*
Y54034D01*
X-7195Y63507D02*
X-2850Y59162D01*
X-3500Y71091D02*
X-1500Y69090D01*
Y48091D02*
Y69090D01*
Y48091D02*
X3500Y43091D01*
X-7500Y45091D02*
Y53091D01*
X-11000Y60534D02*
X-4500Y54034D01*
X-11000Y60534D02*
Y127091D01*
X-9595Y61240D02*
Y122996D01*
Y61240D02*
X-7922Y59567D01*
X-8395Y62617D02*
X-7688Y61911D01*
X-8395Y62617D02*
Y122196D01*
X-7195Y63507D02*
Y107896D01*
X4500Y119591D01*
X-6500Y111091D02*
Y121579D01*
X-7922Y59567D02*
X-7700D01*
X-7688Y61667D02*
Y61911D01*
X4500Y119591D02*
X12000D01*
X34000Y110091D02*
Y124591D01*
X32023Y122592D02*
Y124384D01*
X33500Y125861D02*
Y125861D01*
X32000Y122569D02*
X32023Y122592D01*
Y124384D02*
X33500Y125861D01*
Y125861D02*
X34129Y126491D01*
X32000Y108591D02*
Y122569D01*
Y108591D02*
X34000Y106591D01*
X34129Y126491D02*
X34203D01*
X40500Y123591D02*
X57773D01*
X26253Y162041D02*
X33580D01*
X26750Y160841D02*
X33083D01*
X25500Y152514D02*
Y159591D01*
X26750Y160841D01*
X24300Y160088D02*
X26253Y162041D01*
X24300Y154391D02*
Y160088D01*
X28978Y144113D02*
X29000Y144091D01*
X24476Y151491D02*
X25500Y152514D01*
X23000Y153091D02*
X24300Y154391D01*
X35796Y165295D02*
Y183736D01*
Y165295D02*
X45331Y155760D01*
X44337Y153359D02*
X52731D01*
X32850Y164847D02*
Y168091D01*
X34500Y164893D02*
X44834Y154560D01*
X53228D01*
X32850Y164847D02*
X44337Y153359D01*
X45331Y155760D02*
X53725D01*
X34500Y164893D02*
Y169591D01*
X15000Y134541D02*
X18800Y130741D01*
X20400Y169460D02*
X28515Y177576D01*
X47191Y172890D02*
Y175899D01*
X47000Y176091D02*
X47191Y175899D01*
X55500Y179591D02*
X66611Y168480D01*
X56183Y181241D02*
X58284Y179140D01*
X54794Y181241D02*
X56183D01*
X55700Y182891D02*
Y183134D01*
X52000Y180091D02*
X52172Y180263D01*
X54650Y184184D02*
X55700Y183134D01*
X52172Y180263D02*
X53816D01*
X54794Y181241D01*
X58284Y178691D02*
Y179140D01*
X49321Y180411D02*
X53000Y184091D01*
X51000Y186091D02*
Y187591D01*
X43350Y178441D02*
X51000Y186091D01*
X48833Y186424D02*
Y189257D01*
X42150Y179741D02*
X48833Y186424D01*
X45644Y172741D02*
X51825Y166560D01*
X45644Y172741D02*
Y174446D01*
X45500Y174591D02*
X45644Y174446D01*
X49321Y172458D02*
X52820Y168959D01*
X49321Y172458D02*
Y180411D01*
X52350Y171126D02*
Y171519D01*
X51686Y172183D02*
Y172426D01*
Y172183D02*
X52350Y171519D01*
Y171126D02*
X53316Y170159D01*
X47191Y172890D02*
X52323Y167760D01*
X43350Y173338D02*
X51328Y165359D01*
X42150Y172841D02*
X50831Y164160D01*
X42150Y172841D02*
Y179741D01*
X43350Y173338D02*
Y178441D01*
X66611Y167633D02*
X77549Y156694D01*
X66611Y167633D02*
Y168480D01*
X54650Y184184D02*
Y197107D01*
X58284Y178691D02*
X79081Y157894D01*
X77549Y156694D02*
X90235D01*
X95764Y117114D02*
X100976D01*
X54719Y158159D02*
X95764Y117114D01*
X-3238Y188287D02*
X2303D01*
X-5697Y185829D02*
X-3238Y188287D01*
X-5697Y179987D02*
Y185829D01*
Y179987D02*
X-2647Y176937D01*
Y175237D02*
Y176937D01*
Y175237D02*
X-1500Y174091D01*
Y184091D02*
X4803D01*
X9153Y179741D02*
X11184D01*
X4803Y184091D02*
X9153Y179741D01*
X2303Y188287D02*
X9650Y180941D01*
X11681D01*
X13350Y179271D01*
X11184Y179741D02*
X12150Y178774D01*
X61417Y142007D02*
X61431D01*
X57205Y164160D02*
X85773Y135591D01*
X55713Y160559D02*
X86387Y129886D01*
X59737Y171809D02*
X88456Y143091D01*
X58199Y166560D02*
X86768Y137991D01*
X101215Y134391D02*
X104000Y131605D01*
X87265Y139191D02*
X103203D01*
X55216Y159360D02*
X87249Y127327D01*
X59690Y170159D02*
X88259Y141591D01*
X53316Y170159D02*
X59690D01*
X85276Y134391D02*
X101215D01*
X51825Y166560D02*
X58199D01*
X58696Y167760D02*
X87265Y139191D01*
X88259Y141591D02*
X112092D01*
X87762Y140391D02*
X103700D01*
X53725Y155760D02*
X97512Y111972D01*
X59193Y168959D02*
X87762Y140391D01*
X49837Y161759D02*
X56210D01*
X85773Y135591D02*
X101712D01*
X97512Y111972D02*
X101000D01*
X87249Y127327D02*
X101000D01*
X50831Y164160D02*
X57205D01*
X47630Y156959D02*
X54222D01*
X56210Y161759D02*
X85611Y132358D01*
X54222Y156959D02*
X96650Y114531D01*
X101000D01*
X86387Y129886D02*
X101000D01*
X88456Y143091D02*
X111895D01*
X102209Y136791D02*
X106400Y132599D01*
X85611Y132358D02*
X100913D01*
X86270Y136791D02*
X102209D01*
X52323Y167760D02*
X58696D01*
X86768Y137991D02*
X102706D01*
X52820Y168959D02*
X59193D01*
X101712Y135591D02*
X105200Y132102D01*
X49121Y160559D02*
X55713D01*
X102706Y137991D02*
X107600Y133097D01*
X51328Y165359D02*
X57701D01*
X103700Y140391D02*
X110000Y134091D01*
X56707Y162960D02*
X85276Y134391D01*
X57701Y165359D02*
X86270Y136791D01*
X54000Y171809D02*
X59737D01*
X48127Y158159D02*
X54719D01*
X48624Y159360D02*
X55216D01*
X103203Y139191D02*
X108800Y133593D01*
X50334Y162960D02*
X56707D01*
X166375Y128982D02*
X166427Y128930D01*
X172500Y129591D02*
Y162591D01*
X163000Y172091D02*
X172500Y162591D01*
X164500Y131091D02*
X167000D01*
X163000Y129591D02*
X164500Y131091D01*
X167000D02*
X168500Y129591D01*
X171000Y128091D02*
X172500Y129591D01*
X168500Y128091D02*
X171000D01*
X168500D02*
Y129591D01*
X163000Y110696D02*
Y129591D01*
X173700Y129094D02*
Y171391D01*
X166329Y128935D02*
X166369Y128975D01*
X165193Y128935D02*
X166329D01*
X171047Y126441D02*
X173700Y129094D01*
X167817Y126441D02*
X171047D01*
X166427Y127830D02*
X167817Y126441D01*
X164783Y128525D02*
X165193Y128935D01*
X166427Y127830D02*
Y128930D01*
X163000Y182091D02*
X173700Y171391D01*
X164783Y110782D02*
Y128525D01*
X36996Y174601D02*
Y183239D01*
Y174601D02*
X49837Y161759D01*
X38828Y174466D02*
X50334Y162960D01*
X38828Y182419D02*
X41000Y184591D01*
X38828Y174466D02*
Y182419D01*
X45696Y160591D02*
X48127Y158159D01*
X46240Y163441D02*
X49121Y160559D01*
X45743Y162241D02*
X48624Y159360D01*
X47352Y157237D02*
X47630Y156959D01*
X39172Y165585D02*
Y167918D01*
Y165585D02*
X42517Y162241D01*
X45743D01*
X41000Y167091D02*
X44650Y163441D01*
X46240D01*
X43000Y160591D02*
X45696D01*
X39000Y168091D02*
X39172Y167918D01*
X33500Y170591D02*
X34500Y169591D01*
X30500Y170591D02*
X33500D01*
X163000Y139591D02*
Y139591D01*
X157003D02*
X163000D01*
X160000Y136591D02*
X163000Y139591D01*
X138000Y172091D02*
X148500Y161591D01*
Y148094D02*
X157003Y139591D01*
X148500Y148094D02*
Y161591D01*
X164650Y138241D02*
Y140941D01*
X164000Y141591D02*
X164650Y140941D01*
X162375Y141763D02*
X163828D01*
X162347Y141791D02*
X162375Y141763D01*
X163828D02*
X164000Y141591D01*
X161200Y134791D02*
X164650Y138241D01*
X161200Y110593D02*
Y134791D01*
X149700Y148591D02*
Y170391D01*
X138000Y182091D02*
X149700Y170391D01*
X156500Y141791D02*
X162347D01*
X149700Y148591D02*
X156500Y141791D01*
X46125Y157410D02*
X46297Y157237D01*
X109512Y120480D02*
X150123D01*
X105200Y124791D02*
X109512Y120480D01*
X105200Y124791D02*
Y132102D01*
X110009Y121679D02*
X151482D01*
X106400Y125288D02*
X110009Y121679D01*
X106400Y125288D02*
Y132599D01*
X110506Y122880D02*
X151482D01*
X107600Y125785D02*
X110506Y122880D01*
X107600Y125785D02*
Y133097D01*
X111003Y124080D02*
X150123D01*
X108800Y126282D02*
X111003Y124080D01*
X108800Y126282D02*
Y133593D01*
X111500Y125279D02*
X148764D01*
X110000Y126779D02*
X111500Y125279D01*
X110000Y126779D02*
Y134091D01*
X150123Y124080D02*
X156000Y129957D01*
X148764Y125279D02*
X156000Y132516D01*
X151482Y122880D02*
X156000Y127398D01*
X111895Y143091D02*
X117197Y148392D01*
Y154287D02*
X119000Y156091D01*
X117197Y148392D02*
Y154287D01*
X119000Y156091D02*
Y162025D01*
X108803Y170352D02*
Y177894D01*
X46297Y157237D02*
X47352D01*
X123200Y133594D02*
Y171891D01*
X113000Y182091D02*
X123200Y171891D01*
X116087Y126481D02*
X123200Y133594D01*
X108803Y177894D02*
X113000Y182091D01*
X122000Y134091D02*
Y163091D01*
X112092Y141591D02*
X120500Y149999D01*
X46850Y187441D02*
X47000Y187591D01*
X41197Y187441D02*
X46850D01*
X41150Y189091D02*
X45000D01*
X35796Y183736D02*
X41150Y189091D01*
X36996Y183239D02*
X41197Y187441D01*
X104000Y124294D02*
Y131605D01*
X88000Y182091D02*
X103500Y166591D01*
X101500Y149051D02*
Y158591D01*
X83803Y170287D02*
Y177894D01*
X92197Y160352D02*
Y163829D01*
X79081Y157894D02*
X89738D01*
X92197Y160352D01*
X90235Y156694D02*
X93397Y159855D01*
X83803Y177894D02*
X88000Y182091D01*
X100976Y117114D02*
X101000Y117091D01*
X151482Y121679D02*
X156000Y117161D01*
X150123Y120480D02*
X156000Y114602D01*
X104000Y124294D02*
X109015Y119280D01*
X8500Y174591D02*
X8650Y174441D01*
X-4895Y199591D02*
X4497D01*
X-10900Y212585D02*
X-9494Y213991D01*
X-9700Y212088D02*
X-8997Y212791D01*
X-5786D01*
X-9494Y213991D02*
X-6283D01*
X-4332Y215941D01*
X-5786Y212791D02*
X-3835Y214741D01*
X-8500Y211591D02*
X-5289D01*
X-3338Y213541D01*
X-2841Y212341D02*
X17619D01*
X-6897Y208286D02*
X-2841Y212341D01*
X-2344Y211141D02*
X18116D01*
X-5697Y207789D02*
X-2344Y211141D01*
X-3835Y214741D02*
X3458D01*
X-4332Y215941D02*
X2961D01*
X-6897Y199895D02*
Y208286D01*
Y199895D02*
X-5392Y198391D01*
X4000D01*
X-5697Y200392D02*
Y207789D01*
Y200392D02*
X-4895Y199591D01*
X55047Y202894D02*
X58648D01*
X53243Y201091D02*
X55047Y202894D01*
X55000Y200091D02*
X56604Y201694D01*
X59145D01*
X53000Y201091D02*
X53243D01*
D98*
X62521Y210091D02*
X81454D01*
X57675Y205244D02*
X62521Y210091D01*
X81454D02*
X106454D01*
X81454Y168762D02*
Y210091D01*
X88000Y162091D02*
Y162216D01*
X81454Y168762D02*
X88000Y162216D01*
X158063Y99937D02*
X163500Y94500D01*
X63307Y99937D02*
X158063D01*
X43000Y79630D02*
X63307Y99937D01*
X43000Y79274D02*
Y79630D01*
X163500Y84591D02*
Y94591D01*
Y74591D02*
Y84591D01*
Y64591D02*
Y74591D01*
Y54591D02*
Y64591D01*
Y44591D02*
Y54591D01*
Y34591D02*
Y44591D01*
X6830Y205244D02*
X34694D01*
X41136Y205394D02*
X41285Y205244D01*
X34694D02*
X34843Y205394D01*
X41285Y205244D02*
X57675D01*
X34843Y205394D02*
X41136D01*
X24500Y12209D02*
Y55091D01*
X27091Y3500D02*
X32000D01*
X24902Y5689D02*
X27091Y3500D01*
X106454Y168314D02*
Y210091D01*
Y168314D02*
X112677Y162091D01*
X106454Y210091D02*
X132500D01*
X112677Y162091D02*
X113000D01*
X-1150Y204441D02*
X6027D01*
X6830Y205244D01*
X-1500Y204091D02*
X-1150Y204441D01*
X24500Y12209D02*
X24902Y11807D01*
Y5689D02*
Y11807D01*
X132500Y167687D02*
Y210091D01*
Y167687D02*
X138000Y162187D01*
Y162091D02*
Y162187D01*
X132500Y210091D02*
X157500D01*
Y167687D02*
Y210091D01*
X163000Y162091D02*
Y162187D01*
X157500Y167687D02*
X163000Y162187D01*
D101*
X83500Y218091D02*
D03*
X93500D02*
D03*
X103500D02*
D03*
X143500Y228091D02*
D03*
Y218091D02*
D03*
X133500D02*
D03*
Y228091D02*
D03*
X123500D02*
D03*
Y218091D02*
D03*
X83500Y228091D02*
D03*
X93500D02*
D03*
X103500D02*
D03*
X113500D02*
D03*
Y218091D02*
D03*
X153500D02*
D03*
D102*
Y228091D02*
D03*
D103*
X148000Y-909D02*
D03*
D104*
X128000D02*
D03*
D105*
X173500Y94500D02*
D03*
Y44500D02*
D03*
Y54500D02*
D03*
Y64500D02*
D03*
Y74500D02*
D03*
Y84500D02*
D03*
X153500Y94500D02*
D03*
Y44500D02*
D03*
Y54500D02*
D03*
Y64500D02*
D03*
Y74500D02*
D03*
Y84500D02*
D03*
X163500Y94500D02*
D03*
Y44500D02*
D03*
Y54500D02*
D03*
Y64500D02*
D03*
Y74500D02*
D03*
Y84500D02*
D03*
X-1500Y194091D02*
D03*
Y184091D02*
D03*
Y174091D02*
D03*
X23500Y210591D02*
D03*
X33500D02*
D03*
X43500D02*
D03*
X163000Y202091D02*
D03*
Y162091D02*
D03*
Y172091D02*
D03*
Y182091D02*
D03*
Y192091D02*
D03*
X138000Y202091D02*
D03*
Y162091D02*
D03*
Y172091D02*
D03*
Y182091D02*
D03*
Y192091D02*
D03*
X113000Y202091D02*
D03*
Y162091D02*
D03*
Y172091D02*
D03*
Y182091D02*
D03*
Y192091D02*
D03*
X88000Y202091D02*
D03*
Y162091D02*
D03*
Y172091D02*
D03*
Y182091D02*
D03*
Y192091D02*
D03*
D106*
X173500Y34500D02*
D03*
X153500D02*
D03*
X163500D02*
D03*
X-1500Y204091D02*
D03*
D107*
X15972Y12417D02*
D03*
X50027D02*
D03*
D108*
X15972Y-3331D02*
D03*
X50027D02*
D03*
D109*
X44378Y10449D02*
D03*
X21622D02*
D03*
D110*
X84996Y-409D02*
D03*
X66492D02*
D03*
X103500D02*
D03*
D111*
X53500Y210591D02*
D03*
X163000Y152091D02*
D03*
X138000D02*
D03*
X113000D02*
D03*
X88000D02*
D03*
D112*
X64500Y213950D02*
D03*
X74000Y227500D02*
D03*
Y220500D02*
D03*
X28500Y212750D02*
D03*
X162000Y232000D02*
D03*
X44000Y224000D02*
D03*
X40000D02*
D03*
X35500D02*
D03*
X111500Y20500D02*
D03*
X115500D02*
D03*
X103500Y16500D02*
D03*
X67000Y12500D02*
D03*
X63500D02*
D03*
X107500Y16500D02*
D03*
X103500Y12000D02*
D03*
X156000Y112043D02*
D03*
X49500Y134319D02*
D03*
X9000Y148500D02*
D03*
X6500Y114500D02*
D03*
X1500Y121000D02*
D03*
X6500Y78000D02*
D03*
X500D02*
D03*
X6000Y84000D02*
D03*
X500D02*
D03*
X6000Y96000D02*
D03*
X-500D02*
D03*
X6000Y101500D02*
D03*
X0Y101000D02*
D03*
X17000Y4000D02*
D03*
X13000Y3500D02*
D03*
X-9500Y5500D02*
D03*
Y1000D02*
D03*
X-8000Y-4500D02*
D03*
X-3500Y-8500D02*
D03*
X4500Y-9000D02*
D03*
X12000Y-9500D02*
D03*
X45500Y4000D02*
D03*
X41000D02*
D03*
X42000Y-8000D02*
D03*
X27500Y-9500D02*
D03*
X35500Y-9000D02*
D03*
X45500Y-9500D02*
D03*
X39000D02*
D03*
X31000D02*
D03*
X24500D02*
D03*
X45000Y-5000D02*
D03*
X39000Y-4500D02*
D03*
X34000Y-5000D02*
D03*
X30000D02*
D03*
X25000Y-4500D02*
D03*
X44500Y-1000D02*
D03*
X41000Y-500D02*
D03*
X37000Y-1000D02*
D03*
X33500D02*
D03*
X29500D02*
D03*
X25000D02*
D03*
X67000Y8500D02*
D03*
X63500D02*
D03*
X115500Y12000D02*
D03*
X111500D02*
D03*
X107500D02*
D03*
X115500Y16500D02*
D03*
X111500D02*
D03*
X107500Y20500D02*
D03*
X103500D02*
D03*
X112500Y37500D02*
D03*
Y40500D02*
D03*
Y43500D02*
D03*
Y46500D02*
D03*
Y49500D02*
D03*
X104000Y35500D02*
D03*
Y38500D02*
D03*
Y41500D02*
D03*
Y44500D02*
D03*
Y47500D02*
D03*
Y50500D02*
D03*
X149000Y-9000D02*
D03*
X146000Y-8000D02*
D03*
X154500Y-3500D02*
D03*
X152500Y-8500D02*
D03*
X155000Y2000D02*
D03*
X158000Y0D02*
D03*
Y-7000D02*
D03*
X162000Y-9000D02*
D03*
X168000Y-8500D02*
D03*
X173000Y-7000D02*
D03*
X175500Y-3000D02*
D03*
X176500Y2000D02*
D03*
X175500Y14500D02*
D03*
X173500Y7500D02*
D03*
X163000D02*
D03*
X157000Y5500D02*
D03*
X151072Y6504D02*
D03*
X146000Y7000D02*
D03*
X147000Y11500D02*
D03*
X152500Y11000D02*
D03*
X156000D02*
D03*
X161500D02*
D03*
X167000Y11500D02*
D03*
X172000D02*
D03*
X171500Y15000D02*
D03*
X167000Y15500D02*
D03*
X161500Y15000D02*
D03*
X156000D02*
D03*
X151000D02*
D03*
X146000D02*
D03*
X44000Y146000D02*
D03*
X175500Y183000D02*
D03*
Y188500D02*
D03*
Y192000D02*
D03*
Y196500D02*
D03*
X121500Y183500D02*
D03*
X145500Y183000D02*
D03*
X171000Y182500D02*
D03*
X175500Y200500D02*
D03*
X174500Y210000D02*
D03*
X177000Y211000D02*
D03*
X170000Y209000D02*
D03*
X166500Y212500D02*
D03*
X172000Y213500D02*
D03*
X177000Y215500D02*
D03*
Y220000D02*
D03*
X176500Y225500D02*
D03*
X174500Y228500D02*
D03*
X171500Y231000D02*
D03*
X167000Y232000D02*
D03*
X174500Y205500D02*
D03*
X171000Y203000D02*
D03*
X149500Y204000D02*
D03*
X98000Y203000D02*
D03*
X125500D02*
D03*
X145500Y201500D02*
D03*
X121500Y201000D02*
D03*
X94500D02*
D03*
X66000Y232000D02*
D03*
X62000D02*
D03*
X57500D02*
D03*
X53000D02*
D03*
X48500D02*
D03*
X44000D02*
D03*
X40000D02*
D03*
X30500Y224000D02*
D03*
X26500D02*
D03*
X22000D02*
D03*
X18000D02*
D03*
X13500D02*
D03*
X35500Y232000D02*
D03*
X31500D02*
D03*
X27500D02*
D03*
X23000D02*
D03*
X11500D02*
D03*
X6000D02*
D03*
X0D02*
D03*
X-5000Y230500D02*
D03*
X-8000Y228000D02*
D03*
X-9500Y224000D02*
D03*
Y219000D02*
D03*
X-6000Y190500D02*
D03*
X-5000Y169000D02*
D03*
X-8000Y152500D02*
D03*
Y148500D02*
D03*
Y144000D02*
D03*
Y140000D02*
D03*
X123500Y115000D02*
D03*
X119500D02*
D03*
X40000Y95000D02*
D03*
X58000Y120091D02*
D03*
X112000Y128000D02*
D03*
X114500Y128131D02*
D03*
X108951Y145466D02*
D03*
X30500Y30500D02*
D03*
X36000Y21591D02*
D03*
X28000Y21091D02*
D03*
X32000Y21591D02*
D03*
X-7688Y61667D02*
D03*
X6000Y64500D02*
D03*
X-7500Y53091D02*
D03*
X3181Y61681D02*
D03*
X8819D02*
D03*
X3181Y58862D02*
D03*
X8819Y64500D02*
D03*
X6000Y58862D02*
D03*
X8819D02*
D03*
X6000Y61681D02*
D03*
X-7700Y59567D02*
D03*
X-3500Y71091D02*
D03*
X3181Y64500D02*
D03*
X112500Y147000D02*
D03*
X31000Y201000D02*
D03*
X30000Y190000D02*
D03*
X17500Y209000D02*
D03*
X11500D02*
D03*
X4000Y208500D02*
D03*
X28000D02*
D03*
X27500Y191500D02*
D03*
X36500Y201394D02*
D03*
X19500Y196500D02*
D03*
X24500Y180500D02*
D03*
X10850Y188500D02*
D03*
X12500Y190500D02*
D03*
X14745Y188356D02*
D03*
X58485Y141741D02*
D03*
X173500Y113500D02*
D03*
X49500Y19500D02*
D03*
X121500Y196500D02*
D03*
X95500Y157500D02*
D03*
X11500Y133500D02*
D03*
X171000Y192000D02*
D03*
X145500Y187500D02*
D03*
Y192000D02*
D03*
X59500Y193000D02*
D03*
X171000Y196500D02*
D03*
X145500D02*
D03*
X70000Y232000D02*
D03*
X-6000Y135000D02*
D03*
X-3000Y119500D02*
D03*
X3000Y111000D02*
D03*
X23500Y119000D02*
D03*
X29500Y125500D02*
D03*
X63500Y131000D02*
D03*
X94500Y196500D02*
D03*
X10000Y111000D02*
D03*
X54500Y130500D02*
D03*
X95000Y170000D02*
D03*
X43768Y132500D02*
D03*
X57500Y145000D02*
D03*
X7000Y157500D02*
D03*
X121500Y192000D02*
D03*
X73500Y185000D02*
D03*
Y176000D02*
D03*
X29538Y139962D02*
D03*
X22000Y133000D02*
D03*
X2874Y161000D02*
D03*
X76500Y164500D02*
D03*
X107000Y159000D02*
D03*
X83000Y160000D02*
D03*
X121500Y187500D02*
D03*
X18000Y232000D02*
D03*
X138000Y114500D02*
D03*
X114000Y115000D02*
D03*
X127000Y112500D02*
D03*
X72000Y114500D02*
D03*
X171000Y187500D02*
D03*
X72000Y111500D02*
D03*
X94500Y192000D02*
D03*
X83000Y112500D02*
D03*
X94500Y187500D02*
D03*
X59500Y144000D02*
D03*
X100300Y120500D02*
D03*
Y124500D02*
D03*
X41000Y184591D02*
D03*
X164000Y141591D02*
D03*
X163000Y139591D02*
D03*
X168500Y128091D02*
D03*
X51686Y172426D02*
D03*
X48833Y189257D02*
D03*
X61417Y142007D02*
D03*
X101000Y117091D02*
D03*
X51000Y187591D02*
D03*
X6000Y201091D02*
D03*
X33500Y158091D02*
D03*
X10500Y178091D02*
D03*
X-4500Y45091D02*
D03*
X156000Y114602D02*
D03*
X166369Y128975D02*
D03*
X-7000Y128591D02*
D03*
X45000Y189091D02*
D03*
X30000Y158591D02*
D03*
X156000Y117161D02*
D03*
X53000Y201091D02*
D03*
X8500Y174591D02*
D03*
X67500Y201500D02*
D03*
X-6500Y111091D02*
D03*
X-4500Y42091D02*
D03*
X78000Y205500D02*
D03*
X37000Y121591D02*
D03*
X101000Y127327D02*
D03*
Y129886D02*
D03*
X68850Y199500D02*
D03*
X101000Y114531D02*
D03*
Y111972D02*
D03*
X53000Y184091D02*
D03*
X7000Y171591D02*
D03*
X31000Y146091D02*
D03*
X29000Y144091D02*
D03*
X27000Y142091D02*
D03*
X43000Y160591D02*
D03*
X47000Y176091D02*
D03*
X9000Y227091D02*
D03*
X45500Y174591D02*
D03*
X55000Y200091D02*
D03*
X12000Y119591D02*
D03*
X52000Y180091D02*
D03*
X-6000Y17090D02*
D03*
X100913Y132358D02*
D03*
X54000Y171809D02*
D03*
X30000Y176091D02*
D03*
X28515Y177576D02*
D03*
X32500Y184000D02*
D03*
X15150Y144091D02*
D03*
X13350Y141500D02*
D03*
X69500Y172000D02*
D03*
X71500Y170000D02*
D03*
X21500Y130741D02*
D03*
X74000Y199500D02*
D03*
X29475Y128615D02*
D03*
X65500Y199500D02*
D03*
X55700Y182891D02*
D03*
X40500Y123591D02*
D03*
X3500Y43091D02*
D03*
X46125Y157410D02*
D03*
X34000Y106591D02*
D03*
X56310Y184900D02*
D03*
X71500Y201500D02*
D03*
X54561Y147997D02*
D03*
X56500Y147191D02*
D03*
X66950Y178000D02*
D03*
X73500Y207291D02*
D03*
X67894Y176000D02*
D03*
X18800Y130741D02*
D03*
X156000Y127398D02*
D03*
Y129957D02*
D03*
Y132516D02*
D03*
X39000Y168091D02*
D03*
X30500Y170591D02*
D03*
X41000Y167091D02*
D03*
X16650Y142606D02*
D03*
X55500Y179591D02*
D03*
X22500Y156091D02*
D03*
X32850Y168091D02*
D03*
X47000Y187591D02*
D03*
X20400Y156091D02*
D03*
X34000Y110091D02*
D03*
D113*
X127395Y47588D02*
D03*
X81000Y92500D02*
D03*
X45000Y69000D02*
D03*
X35000Y71500D02*
D03*
X42500D02*
D03*
X35000Y66500D02*
D03*
X37500Y71500D02*
D03*
X40000D02*
D03*
X37500Y66500D02*
D03*
X40000Y69000D02*
D03*
X35000D02*
D03*
X37500D02*
D03*
X45000Y71500D02*
D03*
X42500Y69000D02*
D03*
X40000Y66500D02*
D03*
X42500D02*
D03*
X45000D02*
D03*
D114*
X27000Y3591D02*
D03*
X24500Y55091D02*
D03*
X29500Y3500D02*
D03*
X24541Y50041D02*
D03*
Y52541D02*
D03*
X32000Y3500D02*
D03*
D115*
X127395Y47588D02*
X127395D01*
M02*
