G04*
G04 #@! TF.GenerationSoftware,Altium Limited,Altium Designer,21.0.8 (223)*
G04*
G04 Layer_Color=255*
%FSLAX25Y25*%
%MOIN*%
G70*
G04*
G04 #@! TF.SameCoordinates,10D31124-10DE-4426-A125-9D81246FB524*
G04*
G04*
G04 #@! TF.FilePolarity,Positive*
G04*
G01*
G75*
%ADD23R,0.01575X0.01968*%
%ADD24R,0.03000X0.03000*%
%ADD25R,0.03000X0.03000*%
%ADD26R,0.05500X0.06200*%
%ADD27R,0.11811X0.13780*%
%ADD28R,0.08661X0.06890*%
%ADD29R,0.03500X0.05000*%
%ADD30R,0.01800X0.03950*%
%ADD31R,0.05000X0.03500*%
%ADD32R,0.02362X0.01181*%
%ADD33R,0.02362X0.01575*%
%ADD34R,0.12598X0.08268*%
%ADD35R,0.03543X0.08268*%
G04:AMPARAMS|DCode=36|XSize=59.06mil|YSize=11.81mil|CornerRadius=2.95mil|HoleSize=0mil|Usage=FLASHONLY|Rotation=90.000|XOffset=0mil|YOffset=0mil|HoleType=Round|Shape=RoundedRectangle|*
%AMROUNDEDRECTD36*
21,1,0.05906,0.00591,0,0,90.0*
21,1,0.05315,0.01181,0,0,90.0*
1,1,0.00591,0.00295,0.02657*
1,1,0.00591,0.00295,-0.02657*
1,1,0.00591,-0.00295,-0.02657*
1,1,0.00591,-0.00295,0.02657*
%
%ADD36ROUNDEDRECTD36*%
%ADD37R,0.11024X0.10630*%
G04:AMPARAMS|DCode=38|XSize=12mil|YSize=38mil|CornerRadius=3mil|HoleSize=0mil|Usage=FLASHONLY|Rotation=270.000|XOffset=0mil|YOffset=0mil|HoleType=Round|Shape=RoundedRectangle|*
%AMROUNDEDRECTD38*
21,1,0.01200,0.03200,0,0,270.0*
21,1,0.00600,0.03800,0,0,270.0*
1,1,0.00600,-0.01600,-0.00300*
1,1,0.00600,-0.01600,0.00300*
1,1,0.00600,0.01600,0.00300*
1,1,0.00600,0.01600,-0.00300*
%
%ADD38ROUNDEDRECTD38*%
G04:AMPARAMS|DCode=39|XSize=12mil|YSize=38mil|CornerRadius=3mil|HoleSize=0mil|Usage=FLASHONLY|Rotation=0.000|XOffset=0mil|YOffset=0mil|HoleType=Round|Shape=RoundedRectangle|*
%AMROUNDEDRECTD39*
21,1,0.01200,0.03200,0,0,0.0*
21,1,0.00600,0.03800,0,0,0.0*
1,1,0.00600,0.00300,-0.01600*
1,1,0.00600,-0.00300,-0.01600*
1,1,0.00600,-0.00300,0.01600*
1,1,0.00600,0.00300,0.01600*
%
%ADD39ROUNDEDRECTD39*%
G04:AMPARAMS|DCode=40|XSize=20mil|YSize=20mil|CornerRadius=5mil|HoleSize=0mil|Usage=FLASHONLY|Rotation=90.000|XOffset=0mil|YOffset=0mil|HoleType=Round|Shape=RoundedRectangle|*
%AMROUNDEDRECTD40*
21,1,0.02000,0.01000,0,0,90.0*
21,1,0.01000,0.02000,0,0,90.0*
1,1,0.01000,0.00500,0.00500*
1,1,0.01000,0.00500,-0.00500*
1,1,0.01000,-0.00500,-0.00500*
1,1,0.01000,-0.00500,0.00500*
%
%ADD40ROUNDEDRECTD40*%
%ADD41R,0.01968X0.01575*%
%ADD42O,0.00984X0.02756*%
%ADD43O,0.02756X0.00984*%
%ADD44R,0.10630X0.11024*%
%ADD45R,0.03937X0.02756*%
%ADD46R,0.02362X0.05118*%
G04:AMPARAMS|DCode=47|XSize=39.37mil|YSize=31.5mil|CornerRadius=0mil|HoleSize=0mil|Usage=FLASHONLY|Rotation=0.000|XOffset=0mil|YOffset=0mil|HoleType=Round|Shape=Octagon|*
%AMOCTAGOND47*
4,1,8,0.01968,-0.00787,0.01968,0.00787,0.01181,0.01575,-0.01181,0.01575,-0.01968,0.00787,-0.01968,-0.00787,-0.01181,-0.01575,0.01181,-0.01575,0.01968,-0.00787,0.0*
%
%ADD47OCTAGOND47*%

%ADD48R,0.03937X0.03150*%
%ADD49R,0.03500X0.03500*%
%ADD50R,0.05118X0.04724*%
%ADD51O,0.07480X0.01575*%
%ADD52R,0.07480X0.01575*%
%ADD53O,0.07087X0.01181*%
%ADD54O,0.01181X0.07087*%
%ADD101C,0.06299*%
%ADD102R,0.06299X0.06299*%
%ADD103C,0.09055*%
%ADD104R,0.09055X0.09055*%
%ADD105C,0.06693*%
%ADD106R,0.06693X0.06693*%
%ADD107O,0.03937X0.08268*%
%ADD108O,0.03937X0.06299*%
%ADD109C,0.02559*%
%ADD110C,0.09843*%
%ADD111R,0.06693X0.06693*%
D23*
X10673Y166590D02*
D03*
X7327D02*
D03*
X10771Y158590D02*
D03*
X7228Y158591D02*
D03*
X24827Y26000D02*
D03*
X28173D02*
D03*
X5327Y133591D02*
D03*
X8673D02*
D03*
X-2772D02*
D03*
X771Y133590D02*
D03*
X756Y140091D02*
D03*
X-2591D02*
D03*
X756Y145591D02*
D03*
X-2591D02*
D03*
X756Y151091D02*
D03*
X-2591D02*
D03*
X50181Y125090D02*
D03*
X46638Y125091D02*
D03*
X63736Y106295D02*
D03*
X60193Y106295D02*
D03*
X60291Y110295D02*
D03*
X63637D02*
D03*
X63736Y114295D02*
D03*
X60193Y114295D02*
D03*
X27729Y105795D02*
D03*
X31075D02*
D03*
X27729Y110193D02*
D03*
X31075D02*
D03*
X31272Y114590D02*
D03*
X27729Y114591D02*
D03*
X24827Y30500D02*
D03*
X28173D02*
D03*
X174771Y121500D02*
D03*
X171228Y121500D02*
D03*
X171229Y124500D02*
D03*
X174772Y124500D02*
D03*
X120772D02*
D03*
X117229Y124500D02*
D03*
X120771Y121500D02*
D03*
X117228Y121500D02*
D03*
X73772Y162500D02*
D03*
X70229Y162500D02*
D03*
X73173Y180500D02*
D03*
X69827D02*
D03*
X73272Y188181D02*
D03*
X69729Y188181D02*
D03*
X28272Y202590D02*
D03*
X24729Y202591D02*
D03*
D24*
X90441Y58341D02*
D03*
X95559D02*
D03*
X36618Y91000D02*
D03*
X31500D02*
D03*
X48559Y91000D02*
D03*
X43440D02*
D03*
X36559Y84500D02*
D03*
X31440D02*
D03*
X168941Y110500D02*
D03*
X174059D02*
D03*
X168941Y106000D02*
D03*
X174059D02*
D03*
X114441Y105000D02*
D03*
X119559D02*
D03*
X114441Y109500D02*
D03*
X119559D02*
D03*
D25*
X107000Y83782D02*
D03*
Y88900D02*
D03*
X87500D02*
D03*
Y83782D02*
D03*
X94000Y83782D02*
D03*
Y88900D02*
D03*
X100500Y88900D02*
D03*
Y83782D02*
D03*
X81000Y76900D02*
D03*
Y71782D02*
D03*
X81000Y83782D02*
D03*
Y88900D02*
D03*
X74500Y88959D02*
D03*
Y83841D02*
D03*
X74500Y76900D02*
D03*
Y71782D02*
D03*
Y64900D02*
D03*
Y59782D02*
D03*
X81000Y64900D02*
D03*
Y59782D02*
D03*
X51546Y30941D02*
D03*
Y36059D02*
D03*
X39500Y30941D02*
D03*
Y36059D02*
D03*
X33500Y30941D02*
D03*
Y36059D02*
D03*
X45500Y30941D02*
D03*
Y36059D02*
D03*
D26*
X86291Y38841D02*
D03*
X97512D02*
D03*
X86291Y49341D02*
D03*
X97512D02*
D03*
D27*
X106000Y66341D02*
D03*
X131000D02*
D03*
D28*
X103555Y27000D02*
D03*
X85445D02*
D03*
D29*
X116260Y47341D02*
D03*
X123740D02*
D03*
X116260Y38841D02*
D03*
X123740D02*
D03*
D30*
X87661Y76166D02*
D03*
X90220D02*
D03*
X92779D02*
D03*
X95339D02*
D03*
Y65516D02*
D03*
X92779D02*
D03*
X90220D02*
D03*
X87661D02*
D03*
D31*
X143500Y84741D02*
D03*
Y77260D02*
D03*
D32*
X114000Y134724D02*
D03*
Y132756D02*
D03*
X117937D02*
D03*
Y134724D02*
D03*
X168563D02*
D03*
Y132756D02*
D03*
X172500D02*
D03*
Y134724D02*
D03*
D33*
X114000Y136890D02*
D03*
Y130591D02*
D03*
X117937D02*
D03*
Y136890D02*
D03*
X168563D02*
D03*
Y130591D02*
D03*
X172500D02*
D03*
Y136890D02*
D03*
D34*
X40000Y68721D02*
D03*
D35*
X49055Y46279D02*
D03*
X40000D02*
D03*
X30945D02*
D03*
D36*
X19811Y16512D02*
D03*
X20992D02*
D03*
X22961D02*
D03*
X24142D02*
D03*
X26110D02*
D03*
X28079D02*
D03*
X30047D02*
D03*
X35953D02*
D03*
X37921D02*
D03*
X39890D02*
D03*
X41858D02*
D03*
X43039D02*
D03*
X45008D02*
D03*
X46189D02*
D03*
X32016D02*
D03*
X33984D02*
D03*
D37*
X6000Y61681D02*
D03*
D38*
X-3150Y55776D02*
D03*
Y57744D02*
D03*
Y59713D02*
D03*
Y61681D02*
D03*
Y63650D02*
D03*
Y65618D02*
D03*
Y67587D02*
D03*
X15150D02*
D03*
Y65618D02*
D03*
Y63650D02*
D03*
Y61681D02*
D03*
Y59713D02*
D03*
Y57744D02*
D03*
Y55776D02*
D03*
D39*
X95Y70831D02*
D03*
X2063D02*
D03*
X4032D02*
D03*
X6000D02*
D03*
X7969D02*
D03*
X9937D02*
D03*
X11906D02*
D03*
Y52531D02*
D03*
X9937D02*
D03*
X7969D02*
D03*
X6000D02*
D03*
X4032D02*
D03*
X2063D02*
D03*
X95D02*
D03*
D40*
X4583Y151091D02*
D03*
X8583D02*
D03*
X4583Y145591D02*
D03*
X8583D02*
D03*
X4583Y140091D02*
D03*
X8583D02*
D03*
D41*
X29634Y134346D02*
D03*
X29634Y137889D02*
D03*
X25500Y134417D02*
D03*
Y137764D02*
D03*
X21500Y134319D02*
D03*
X21500Y137862D02*
D03*
X49500Y137862D02*
D03*
X49500Y134319D02*
D03*
X54500Y134319D02*
D03*
X54500Y137862D02*
D03*
X21500Y55008D02*
D03*
Y58354D02*
D03*
X10500Y20008D02*
D03*
Y23354D02*
D03*
X6000D02*
D03*
Y20008D02*
D03*
X1500D02*
D03*
Y23354D02*
D03*
X-3000Y20008D02*
D03*
Y23354D02*
D03*
D42*
X40488Y103323D02*
D03*
X42457D02*
D03*
X44425D02*
D03*
X46394D02*
D03*
X48362D02*
D03*
X50331D02*
D03*
Y119858D02*
D03*
X48362D02*
D03*
X46394D02*
D03*
X44425D02*
D03*
X42457D02*
D03*
X40488D02*
D03*
D43*
X53677Y106669D02*
D03*
Y108638D02*
D03*
Y110606D02*
D03*
Y112575D02*
D03*
Y114543D02*
D03*
Y116512D02*
D03*
X37142D02*
D03*
Y114543D02*
D03*
Y112575D02*
D03*
Y110606D02*
D03*
Y108638D02*
D03*
Y106669D02*
D03*
D44*
X45409Y111591D02*
D03*
D45*
X11965Y81358D02*
D03*
X-4964D02*
D03*
X11965Y89823D02*
D03*
X-4964D02*
D03*
X11965Y98358D02*
D03*
X-4964D02*
D03*
X11965Y106823D02*
D03*
X-4964D02*
D03*
X11965Y115268D02*
D03*
X-4964D02*
D03*
X11965Y123732D02*
D03*
X-4964D02*
D03*
D46*
X15500Y40224D02*
D03*
X19240Y31957D02*
D03*
X11760D02*
D03*
X0Y40224D02*
D03*
X3740Y31957D02*
D03*
X-3740D02*
D03*
D47*
X7512Y13091D02*
D03*
D48*
X-3512D02*
D03*
D49*
X43000Y24500D02*
D03*
X50000D02*
D03*
D50*
X43768Y139193D02*
D03*
X35500D02*
D03*
Y132500D02*
D03*
X43768D02*
D03*
D51*
X161567Y119720D02*
D03*
Y122280D02*
D03*
Y124839D02*
D03*
Y135075D02*
D03*
X132433Y112043D02*
D03*
Y114602D02*
D03*
Y117161D02*
D03*
Y119720D02*
D03*
Y122280D02*
D03*
Y124839D02*
D03*
Y127398D02*
D03*
Y129957D02*
D03*
Y132516D02*
D03*
Y109484D02*
D03*
Y106925D02*
D03*
X161567Y109484D02*
D03*
Y106925D02*
D03*
Y132516D02*
D03*
Y117161D02*
D03*
Y114602D02*
D03*
Y112043D02*
D03*
Y127398D02*
D03*
Y129957D02*
D03*
X107000Y119650D02*
D03*
Y122209D02*
D03*
Y124768D02*
D03*
Y135004D02*
D03*
X77866Y111972D02*
D03*
Y114531D02*
D03*
Y117091D02*
D03*
Y119650D02*
D03*
Y122209D02*
D03*
Y124768D02*
D03*
Y127327D02*
D03*
Y129886D02*
D03*
Y132445D02*
D03*
Y109413D02*
D03*
Y106854D02*
D03*
X107000Y109413D02*
D03*
Y106854D02*
D03*
Y132445D02*
D03*
Y117091D02*
D03*
Y114531D02*
D03*
Y111972D02*
D03*
Y127327D02*
D03*
Y129886D02*
D03*
D52*
X132433Y135075D02*
D03*
X77866Y135004D02*
D03*
D53*
X61850Y186295D02*
D03*
Y184327D02*
D03*
Y178421D02*
D03*
Y180390D02*
D03*
Y182358D02*
D03*
Y188264D02*
D03*
Y168579D02*
D03*
Y164642D02*
D03*
Y166610D02*
D03*
Y170547D02*
D03*
Y158736D02*
D03*
Y160705D02*
D03*
Y162673D02*
D03*
Y172516D02*
D03*
Y174484D02*
D03*
Y176453D02*
D03*
X18150Y188264D02*
D03*
Y186295D02*
D03*
Y184327D02*
D03*
Y182358D02*
D03*
Y180390D02*
D03*
Y178421D02*
D03*
Y176453D02*
D03*
Y174484D02*
D03*
Y172516D02*
D03*
Y170547D02*
D03*
Y168579D02*
D03*
Y166610D02*
D03*
Y164642D02*
D03*
Y162673D02*
D03*
Y160705D02*
D03*
Y158736D02*
D03*
D54*
X25236Y151650D02*
D03*
X27205D02*
D03*
X29173D02*
D03*
X31142D02*
D03*
X33110D02*
D03*
X35079D02*
D03*
X37047D02*
D03*
X39016D02*
D03*
X40984D02*
D03*
X42953D02*
D03*
X44921D02*
D03*
X46890D02*
D03*
X48858D02*
D03*
X50827D02*
D03*
X52795D02*
D03*
X54764D02*
D03*
Y195350D02*
D03*
X52795D02*
D03*
X50827D02*
D03*
X48858D02*
D03*
X46890D02*
D03*
X44921D02*
D03*
X42953D02*
D03*
X40984D02*
D03*
X39016D02*
D03*
X37047D02*
D03*
X35079D02*
D03*
X33110D02*
D03*
X31142D02*
D03*
X29173D02*
D03*
X27205D02*
D03*
X25236D02*
D03*
D101*
X83500Y218091D02*
D03*
X93500D02*
D03*
X103500D02*
D03*
X143500Y228091D02*
D03*
Y218091D02*
D03*
X133500D02*
D03*
Y228091D02*
D03*
X123500D02*
D03*
Y218091D02*
D03*
X83500Y228091D02*
D03*
X93500D02*
D03*
X103500D02*
D03*
X113500D02*
D03*
Y218091D02*
D03*
X153500D02*
D03*
D102*
Y228091D02*
D03*
D103*
X148000Y-909D02*
D03*
D104*
X128000D02*
D03*
D105*
X173500Y94500D02*
D03*
Y44500D02*
D03*
Y54500D02*
D03*
Y64500D02*
D03*
Y74500D02*
D03*
Y84500D02*
D03*
X153500Y94500D02*
D03*
Y44500D02*
D03*
Y54500D02*
D03*
Y64500D02*
D03*
Y74500D02*
D03*
Y84500D02*
D03*
X163500Y94500D02*
D03*
Y44500D02*
D03*
Y54500D02*
D03*
Y64500D02*
D03*
Y74500D02*
D03*
Y84500D02*
D03*
X-1500Y194091D02*
D03*
Y184091D02*
D03*
Y174091D02*
D03*
X23500Y210591D02*
D03*
X33500D02*
D03*
X43500D02*
D03*
X163000Y202091D02*
D03*
Y162091D02*
D03*
Y172091D02*
D03*
Y182091D02*
D03*
Y192091D02*
D03*
X138000Y202091D02*
D03*
Y162091D02*
D03*
Y172091D02*
D03*
Y182091D02*
D03*
Y192091D02*
D03*
X113000Y202091D02*
D03*
Y162091D02*
D03*
Y172091D02*
D03*
Y182091D02*
D03*
Y192091D02*
D03*
X88000Y202091D02*
D03*
Y162091D02*
D03*
Y172091D02*
D03*
Y182091D02*
D03*
Y192091D02*
D03*
D106*
X173500Y34500D02*
D03*
X153500D02*
D03*
X163500D02*
D03*
X-1500Y204091D02*
D03*
D107*
X15972Y12417D02*
D03*
X50027D02*
D03*
D108*
X15972Y-3331D02*
D03*
X50027D02*
D03*
D109*
X44378Y10449D02*
D03*
X21622D02*
D03*
D110*
X84996Y-409D02*
D03*
X66492D02*
D03*
X103500D02*
D03*
D111*
X53500Y210591D02*
D03*
X163000Y152091D02*
D03*
X138000D02*
D03*
X113000D02*
D03*
X88000D02*
D03*
M02*
