G04*
G04 #@! TF.GenerationSoftware,Altium Limited,Altium Designer,21.0.8 (223)*
G04*
G04 Layer_Color=8388736*
%FSLAX25Y25*%
%MOIN*%
G70*
G04*
G04 #@! TF.SameCoordinates,10D31124-10DE-4426-A125-9D81246FB524*
G04*
G04*
G04 #@! TF.FilePolarity,Negative*
G04*
G01*
G75*
%ADD30R,0.01800X0.03950*%
%ADD55R,0.02175X0.02568*%
%ADD56R,0.03600X0.03600*%
%ADD57R,0.03600X0.03600*%
%ADD58R,0.06100X0.06800*%
%ADD59R,0.12411X0.14379*%
%ADD60R,0.09261X0.07490*%
%ADD61R,0.04100X0.05600*%
%ADD62R,0.05600X0.04100*%
%ADD63R,0.02962X0.01781*%
%ADD64R,0.02962X0.02175*%
%ADD65R,0.13198X0.08868*%
%ADD66R,0.04143X0.08868*%
G04:AMPARAMS|DCode=67|XSize=65.06mil|YSize=17.81mil|CornerRadius=5.95mil|HoleSize=0mil|Usage=FLASHONLY|Rotation=90.000|XOffset=0mil|YOffset=0mil|HoleType=Round|Shape=RoundedRectangle|*
%AMROUNDEDRECTD67*
21,1,0.06506,0.00591,0,0,90.0*
21,1,0.05315,0.01781,0,0,90.0*
1,1,0.01191,0.00295,0.02657*
1,1,0.01191,0.00295,-0.02657*
1,1,0.01191,-0.00295,-0.02657*
1,1,0.01191,-0.00295,0.02657*
%
%ADD67ROUNDEDRECTD67*%
%ADD68R,0.11624X0.11230*%
G04:AMPARAMS|DCode=69|XSize=22mil|YSize=48mil|CornerRadius=8mil|HoleSize=0mil|Usage=FLASHONLY|Rotation=270.000|XOffset=0mil|YOffset=0mil|HoleType=Round|Shape=RoundedRectangle|*
%AMROUNDEDRECTD69*
21,1,0.02200,0.03200,0,0,270.0*
21,1,0.00600,0.04800,0,0,270.0*
1,1,0.01600,-0.01600,-0.00300*
1,1,0.01600,-0.01600,0.00300*
1,1,0.01600,0.01600,0.00300*
1,1,0.01600,0.01600,-0.00300*
%
%ADD69ROUNDEDRECTD69*%
G04:AMPARAMS|DCode=70|XSize=22mil|YSize=48mil|CornerRadius=8mil|HoleSize=0mil|Usage=FLASHONLY|Rotation=0.000|XOffset=0mil|YOffset=0mil|HoleType=Round|Shape=RoundedRectangle|*
%AMROUNDEDRECTD70*
21,1,0.02200,0.03200,0,0,0.0*
21,1,0.00600,0.04800,0,0,0.0*
1,1,0.01600,0.00300,-0.01600*
1,1,0.01600,-0.00300,-0.01600*
1,1,0.01600,-0.00300,0.01600*
1,1,0.01600,0.00300,0.01600*
%
%ADD70ROUNDEDRECTD70*%
G04:AMPARAMS|DCode=71|XSize=26mil|YSize=26mil|CornerRadius=8mil|HoleSize=0mil|Usage=FLASHONLY|Rotation=90.000|XOffset=0mil|YOffset=0mil|HoleType=Round|Shape=RoundedRectangle|*
%AMROUNDEDRECTD71*
21,1,0.02600,0.01000,0,0,90.0*
21,1,0.01000,0.02600,0,0,90.0*
1,1,0.01600,0.00500,0.00500*
1,1,0.01600,0.00500,-0.00500*
1,1,0.01600,-0.00500,-0.00500*
1,1,0.01600,-0.00500,0.00500*
%
%ADD71ROUNDEDRECTD71*%
%ADD72R,0.02568X0.02175*%
%ADD73O,0.01584X0.03356*%
%ADD74O,0.03356X0.01584*%
%ADD75R,0.11230X0.11624*%
%ADD76R,0.04537X0.03356*%
%ADD77R,0.02962X0.05718*%
G04:AMPARAMS|DCode=78|XSize=45.37mil|YSize=37.5mil|CornerRadius=0mil|HoleSize=0mil|Usage=FLASHONLY|Rotation=0.000|XOffset=0mil|YOffset=0mil|HoleType=Round|Shape=Octagon|*
%AMOCTAGOND78*
4,1,8,0.02269,-0.00937,0.02269,0.00937,0.01331,0.01875,-0.01331,0.01875,-0.02269,0.00937,-0.02269,-0.00937,-0.01331,-0.01875,0.01331,-0.01875,0.02269,-0.00937,0.0*
%
%ADD78OCTAGOND78*%

%ADD79R,0.04537X0.03750*%
%ADD80R,0.04100X0.04100*%
%ADD81R,0.05718X0.05324*%
%ADD82O,0.08080X0.02175*%
%ADD83R,0.08080X0.02175*%
%ADD84O,0.07687X0.01781*%
%ADD85O,0.01781X0.07687*%
%ADD86C,0.06899*%
%ADD87R,0.06899X0.06899*%
%ADD88C,0.09655*%
%ADD89R,0.09655X0.09655*%
%ADD90C,0.07293*%
%ADD91R,0.07293X0.07293*%
%ADD92O,0.04537X0.08868*%
%ADD93O,0.04537X0.06899*%
%ADD94C,0.03159*%
%ADD95C,0.00600*%
%ADD96C,0.10443*%
%ADD97R,0.07293X0.07293*%
D30*
X87661Y76166D02*
D03*
X90220D02*
D03*
X92779D02*
D03*
X95339D02*
D03*
Y65516D02*
D03*
X92779D02*
D03*
X90220D02*
D03*
X87661D02*
D03*
D55*
X10673Y166590D02*
D03*
X7327D02*
D03*
X10771Y158590D02*
D03*
X7228Y158591D02*
D03*
X24827Y26000D02*
D03*
X28173D02*
D03*
X5327Y133591D02*
D03*
X8673D02*
D03*
X-2772D02*
D03*
X771Y133590D02*
D03*
X756Y140091D02*
D03*
X-2591D02*
D03*
X756Y145591D02*
D03*
X-2591D02*
D03*
X756Y151091D02*
D03*
X-2591D02*
D03*
X50181Y125090D02*
D03*
X46638Y125091D02*
D03*
X63736Y106295D02*
D03*
X60193Y106295D02*
D03*
X60291Y110295D02*
D03*
X63637D02*
D03*
X63736Y114295D02*
D03*
X60193Y114295D02*
D03*
X27729Y105795D02*
D03*
X31075D02*
D03*
X27729Y110193D02*
D03*
X31075D02*
D03*
X31272Y114590D02*
D03*
X27729Y114591D02*
D03*
X24827Y30500D02*
D03*
X28173D02*
D03*
X174771Y121500D02*
D03*
X171228Y121500D02*
D03*
X171229Y124500D02*
D03*
X174772Y124500D02*
D03*
X120772D02*
D03*
X117229Y124500D02*
D03*
X120771Y121500D02*
D03*
X117228Y121500D02*
D03*
X73772Y162500D02*
D03*
X70229Y162500D02*
D03*
X73173Y180500D02*
D03*
X69827D02*
D03*
X73272Y188181D02*
D03*
X69729Y188181D02*
D03*
X28272Y202590D02*
D03*
X24729Y202591D02*
D03*
D56*
X90441Y58341D02*
D03*
X95559D02*
D03*
X36618Y91000D02*
D03*
X31500D02*
D03*
X48559Y91000D02*
D03*
X43440D02*
D03*
X36559Y84500D02*
D03*
X31440D02*
D03*
X168941Y110500D02*
D03*
X174059D02*
D03*
X168941Y106000D02*
D03*
X174059D02*
D03*
X114441Y105000D02*
D03*
X119559D02*
D03*
X114441Y109500D02*
D03*
X119559D02*
D03*
D57*
X107000Y83782D02*
D03*
Y88900D02*
D03*
X87500D02*
D03*
Y83782D02*
D03*
X94000Y83782D02*
D03*
Y88900D02*
D03*
X100500Y88900D02*
D03*
Y83782D02*
D03*
X81000Y76900D02*
D03*
Y71782D02*
D03*
X81000Y83782D02*
D03*
Y88900D02*
D03*
X74500Y88959D02*
D03*
Y83841D02*
D03*
X74500Y76900D02*
D03*
Y71782D02*
D03*
Y64900D02*
D03*
Y59782D02*
D03*
X81000Y64900D02*
D03*
Y59782D02*
D03*
X51546Y30941D02*
D03*
Y36059D02*
D03*
X39500Y30941D02*
D03*
Y36059D02*
D03*
X33500Y30941D02*
D03*
Y36059D02*
D03*
X45500Y30941D02*
D03*
Y36059D02*
D03*
D58*
X86291Y38841D02*
D03*
X97512D02*
D03*
X86291Y49341D02*
D03*
X97512D02*
D03*
D59*
X106000Y66341D02*
D03*
X131000D02*
D03*
D60*
X103555Y27000D02*
D03*
X85445D02*
D03*
D61*
X116260Y47341D02*
D03*
X123740D02*
D03*
X116260Y38841D02*
D03*
X123740D02*
D03*
D62*
X143500Y84741D02*
D03*
Y77260D02*
D03*
D63*
X114000Y134724D02*
D03*
Y132756D02*
D03*
X117937D02*
D03*
Y134724D02*
D03*
X168563D02*
D03*
Y132756D02*
D03*
X172500D02*
D03*
Y134724D02*
D03*
D64*
X114000Y136890D02*
D03*
Y130591D02*
D03*
X117937D02*
D03*
Y136890D02*
D03*
X168563D02*
D03*
Y130591D02*
D03*
X172500D02*
D03*
Y136890D02*
D03*
D65*
X40000Y68721D02*
D03*
D66*
X49055Y46279D02*
D03*
X40000D02*
D03*
X30945D02*
D03*
D67*
X19811Y16512D02*
D03*
X20992D02*
D03*
X22961D02*
D03*
X24142D02*
D03*
X26110D02*
D03*
X28079D02*
D03*
X30047D02*
D03*
X35953D02*
D03*
X37921D02*
D03*
X39890D02*
D03*
X41858D02*
D03*
X43039D02*
D03*
X45008D02*
D03*
X46189D02*
D03*
X32016D02*
D03*
X33984D02*
D03*
D68*
X6000Y61681D02*
D03*
D69*
X-3150Y55776D02*
D03*
Y57744D02*
D03*
Y59713D02*
D03*
Y61681D02*
D03*
Y63650D02*
D03*
Y65618D02*
D03*
Y67587D02*
D03*
X15150D02*
D03*
Y65618D02*
D03*
Y63650D02*
D03*
Y61681D02*
D03*
Y59713D02*
D03*
Y57744D02*
D03*
Y55776D02*
D03*
D70*
X95Y70831D02*
D03*
X2063D02*
D03*
X4032D02*
D03*
X6000D02*
D03*
X7969D02*
D03*
X9937D02*
D03*
X11906D02*
D03*
Y52531D02*
D03*
X9937D02*
D03*
X7969D02*
D03*
X6000D02*
D03*
X4032D02*
D03*
X2063D02*
D03*
X95D02*
D03*
D71*
X4583Y151091D02*
D03*
X8583D02*
D03*
X4583Y145591D02*
D03*
X8583D02*
D03*
X4583Y140091D02*
D03*
X8583D02*
D03*
D72*
X29634Y134346D02*
D03*
X29634Y137889D02*
D03*
X25500Y134417D02*
D03*
Y137764D02*
D03*
X21500Y134319D02*
D03*
X21500Y137862D02*
D03*
X49500Y137862D02*
D03*
X49500Y134319D02*
D03*
X54500Y134319D02*
D03*
X54500Y137862D02*
D03*
X21500Y55008D02*
D03*
Y58354D02*
D03*
X10500Y20008D02*
D03*
Y23354D02*
D03*
X6000D02*
D03*
Y20008D02*
D03*
X1500D02*
D03*
Y23354D02*
D03*
X-3000Y20008D02*
D03*
Y23354D02*
D03*
D73*
X40488Y103323D02*
D03*
X42457D02*
D03*
X44425D02*
D03*
X46394D02*
D03*
X48362D02*
D03*
X50331D02*
D03*
Y119858D02*
D03*
X48362D02*
D03*
X46394D02*
D03*
X44425D02*
D03*
X42457D02*
D03*
X40488D02*
D03*
D74*
X53677Y106669D02*
D03*
Y108638D02*
D03*
Y110606D02*
D03*
Y112575D02*
D03*
Y114543D02*
D03*
Y116512D02*
D03*
X37142D02*
D03*
Y114543D02*
D03*
Y112575D02*
D03*
Y110606D02*
D03*
Y108638D02*
D03*
Y106669D02*
D03*
D75*
X45409Y111591D02*
D03*
D76*
X11965Y81358D02*
D03*
X-4964D02*
D03*
X11965Y89823D02*
D03*
X-4964D02*
D03*
X11965Y98358D02*
D03*
X-4964D02*
D03*
X11965Y106823D02*
D03*
X-4964D02*
D03*
X11965Y115268D02*
D03*
X-4964D02*
D03*
X11965Y123732D02*
D03*
X-4964D02*
D03*
D77*
X15500Y40224D02*
D03*
X19240Y31957D02*
D03*
X11760D02*
D03*
X0Y40224D02*
D03*
X3740Y31957D02*
D03*
X-3740D02*
D03*
D78*
X7512Y13091D02*
D03*
D79*
X-3512D02*
D03*
D80*
X43000Y24500D02*
D03*
X50000D02*
D03*
D81*
X43768Y139193D02*
D03*
X35500D02*
D03*
Y132500D02*
D03*
X43768D02*
D03*
D82*
X161567Y119720D02*
D03*
Y122280D02*
D03*
Y124839D02*
D03*
Y135075D02*
D03*
X132433Y112043D02*
D03*
Y114602D02*
D03*
Y117161D02*
D03*
Y119720D02*
D03*
Y122280D02*
D03*
Y124839D02*
D03*
Y127398D02*
D03*
Y129957D02*
D03*
Y132516D02*
D03*
Y109484D02*
D03*
Y106925D02*
D03*
X161567Y109484D02*
D03*
Y106925D02*
D03*
Y132516D02*
D03*
Y117161D02*
D03*
Y114602D02*
D03*
Y112043D02*
D03*
Y127398D02*
D03*
Y129957D02*
D03*
X107000Y119650D02*
D03*
Y122209D02*
D03*
Y124768D02*
D03*
Y135004D02*
D03*
X77866Y111972D02*
D03*
Y114531D02*
D03*
Y117091D02*
D03*
Y119650D02*
D03*
Y122209D02*
D03*
Y124768D02*
D03*
Y127327D02*
D03*
Y129886D02*
D03*
Y132445D02*
D03*
Y109413D02*
D03*
Y106854D02*
D03*
X107000Y109413D02*
D03*
Y106854D02*
D03*
Y132445D02*
D03*
Y117091D02*
D03*
Y114531D02*
D03*
Y111972D02*
D03*
Y127327D02*
D03*
Y129886D02*
D03*
D83*
X132433Y135075D02*
D03*
X77866Y135004D02*
D03*
D84*
X61850Y186295D02*
D03*
Y184327D02*
D03*
Y178421D02*
D03*
Y180390D02*
D03*
Y182358D02*
D03*
Y188264D02*
D03*
Y168579D02*
D03*
Y164642D02*
D03*
Y166610D02*
D03*
Y170547D02*
D03*
Y158736D02*
D03*
Y160705D02*
D03*
Y162673D02*
D03*
Y172516D02*
D03*
Y174484D02*
D03*
Y176453D02*
D03*
X18150Y188264D02*
D03*
Y186295D02*
D03*
Y184327D02*
D03*
Y182358D02*
D03*
Y180390D02*
D03*
Y178421D02*
D03*
Y176453D02*
D03*
Y174484D02*
D03*
Y172516D02*
D03*
Y170547D02*
D03*
Y168579D02*
D03*
Y166610D02*
D03*
Y164642D02*
D03*
Y162673D02*
D03*
Y160705D02*
D03*
Y158736D02*
D03*
D85*
X25236Y151650D02*
D03*
X27205D02*
D03*
X29173D02*
D03*
X31142D02*
D03*
X33110D02*
D03*
X35079D02*
D03*
X37047D02*
D03*
X39016D02*
D03*
X40984D02*
D03*
X42953D02*
D03*
X44921D02*
D03*
X46890D02*
D03*
X48858D02*
D03*
X50827D02*
D03*
X52795D02*
D03*
X54764D02*
D03*
Y195350D02*
D03*
X52795D02*
D03*
X50827D02*
D03*
X48858D02*
D03*
X46890D02*
D03*
X44921D02*
D03*
X42953D02*
D03*
X40984D02*
D03*
X39016D02*
D03*
X37047D02*
D03*
X35079D02*
D03*
X33110D02*
D03*
X31142D02*
D03*
X29173D02*
D03*
X27205D02*
D03*
X25236D02*
D03*
D86*
X83500Y218091D02*
D03*
X93500D02*
D03*
X103500D02*
D03*
X143500Y228091D02*
D03*
Y218091D02*
D03*
X133500D02*
D03*
Y228091D02*
D03*
X123500D02*
D03*
Y218091D02*
D03*
X83500Y228091D02*
D03*
X93500D02*
D03*
X103500D02*
D03*
X113500D02*
D03*
Y218091D02*
D03*
X153500D02*
D03*
D87*
Y228091D02*
D03*
D88*
X148000Y-909D02*
D03*
D89*
X128000D02*
D03*
D90*
X173500Y94500D02*
D03*
Y44500D02*
D03*
Y54500D02*
D03*
Y64500D02*
D03*
Y74500D02*
D03*
Y84500D02*
D03*
X153500Y94500D02*
D03*
Y44500D02*
D03*
Y54500D02*
D03*
Y64500D02*
D03*
Y74500D02*
D03*
Y84500D02*
D03*
X163500Y94500D02*
D03*
Y44500D02*
D03*
Y54500D02*
D03*
Y64500D02*
D03*
Y74500D02*
D03*
Y84500D02*
D03*
X-1500Y194091D02*
D03*
Y184091D02*
D03*
Y174091D02*
D03*
X23500Y210591D02*
D03*
X33500D02*
D03*
X43500D02*
D03*
X163000Y202091D02*
D03*
Y162091D02*
D03*
Y172091D02*
D03*
Y182091D02*
D03*
Y192091D02*
D03*
X138000Y202091D02*
D03*
Y162091D02*
D03*
Y172091D02*
D03*
Y182091D02*
D03*
Y192091D02*
D03*
X113000Y202091D02*
D03*
Y162091D02*
D03*
Y172091D02*
D03*
Y182091D02*
D03*
Y192091D02*
D03*
X88000Y202091D02*
D03*
Y162091D02*
D03*
Y172091D02*
D03*
Y182091D02*
D03*
Y192091D02*
D03*
D91*
X173500Y34500D02*
D03*
X153500D02*
D03*
X163500D02*
D03*
X-1500Y204091D02*
D03*
D92*
X15972Y12417D02*
D03*
X50027D02*
D03*
D93*
X15972Y-3331D02*
D03*
X50027D02*
D03*
D94*
X44378Y10449D02*
D03*
X21622D02*
D03*
D95*
X0Y223091D02*
D03*
X167220D02*
D03*
X0Y0D02*
D03*
X167220D02*
D03*
D96*
X84996Y-409D02*
D03*
X66492D02*
D03*
X103500D02*
D03*
D97*
X53500Y210591D02*
D03*
X163000Y152091D02*
D03*
X138000D02*
D03*
X113000D02*
D03*
X88000D02*
D03*
M02*
