G04*
G04 #@! TF.GenerationSoftware,Altium Limited,Altium Designer,21.0.8 (223)*
G04*
G04 Layer_Color=8388736*
%FSLAX25Y25*%
%MOIN*%
G70*
G04*
G04 #@! TF.SameCoordinates,F2A8CEE9-D926-4100-BC22-0473D3AB1F95*
G04*
G04*
G04 #@! TF.FilePolarity,Negative*
G04*
G01*
G75*
%ADD50R,0.02568X0.02175*%
%ADD51O,0.05718X0.02568*%
%ADD52R,0.02175X0.02568*%
%ADD53R,0.04537X0.03750*%
G04:AMPARAMS|DCode=54|XSize=45.37mil|YSize=37.5mil|CornerRadius=0mil|HoleSize=0mil|Usage=FLASHONLY|Rotation=0.000|XOffset=0mil|YOffset=0mil|HoleType=Round|Shape=Octagon|*
%AMOCTAGOND54*
4,1,8,0.02269,-0.00937,0.02269,0.00937,0.01331,0.01875,-0.01331,0.01875,-0.02269,0.00937,-0.02269,-0.00937,-0.01331,-0.01875,0.01331,-0.01875,0.02269,-0.00937,0.0*
%
%ADD54OCTAGOND54*%

%ADD55O,0.07687X0.01781*%
%ADD56O,0.01781X0.07687*%
%ADD57O,0.08080X0.02175*%
%ADD58R,0.08080X0.02175*%
%ADD59R,0.04537X0.03356*%
%ADD60R,0.11624X0.11230*%
G04:AMPARAMS|DCode=61|XSize=22mil|YSize=48mil|CornerRadius=8mil|HoleSize=0mil|Usage=FLASHONLY|Rotation=270.000|XOffset=0mil|YOffset=0mil|HoleType=Round|Shape=RoundedRectangle|*
%AMROUNDEDRECTD61*
21,1,0.02200,0.03200,0,0,270.0*
21,1,0.00600,0.04800,0,0,270.0*
1,1,0.01600,-0.01600,-0.00300*
1,1,0.01600,-0.01600,0.00300*
1,1,0.01600,0.01600,0.00300*
1,1,0.01600,0.01600,-0.00300*
%
%ADD61ROUNDEDRECTD61*%
G04:AMPARAMS|DCode=62|XSize=22mil|YSize=48mil|CornerRadius=8mil|HoleSize=0mil|Usage=FLASHONLY|Rotation=0.000|XOffset=0mil|YOffset=0mil|HoleType=Round|Shape=RoundedRectangle|*
%AMROUNDEDRECTD62*
21,1,0.02200,0.03200,0,0,0.0*
21,1,0.00600,0.04800,0,0,0.0*
1,1,0.01600,0.00300,-0.01600*
1,1,0.01600,-0.00300,-0.01600*
1,1,0.01600,-0.00300,0.01600*
1,1,0.01600,0.00300,0.01600*
%
%ADD62ROUNDEDRECTD62*%
G04:AMPARAMS|DCode=63|XSize=65.06mil|YSize=17.81mil|CornerRadius=5.95mil|HoleSize=0mil|Usage=FLASHONLY|Rotation=90.000|XOffset=0mil|YOffset=0mil|HoleType=Round|Shape=RoundedRectangle|*
%AMROUNDEDRECTD63*
21,1,0.06506,0.00591,0,0,90.0*
21,1,0.05315,0.01781,0,0,90.0*
1,1,0.01191,0.00295,0.02657*
1,1,0.01191,0.00295,-0.02657*
1,1,0.01191,-0.00295,-0.02657*
1,1,0.01191,-0.00295,0.02657*
%
%ADD63ROUNDEDRECTD63*%
%ADD64R,0.03600X0.03600*%
%ADD65R,0.03600X0.03600*%
%ADD66R,0.04100X0.05600*%
%ADD67R,0.02300X0.04450*%
%ADD68R,0.04143X0.08868*%
%ADD69R,0.13198X0.08868*%
%ADD70R,0.02962X0.05718*%
%ADD71R,0.04100X0.04100*%
%ADD72R,0.10443X0.06506*%
G04:AMPARAMS|DCode=73|XSize=26mil|YSize=26mil|CornerRadius=8mil|HoleSize=0mil|Usage=FLASHONLY|Rotation=90.000|XOffset=0mil|YOffset=0mil|HoleType=Round|Shape=RoundedRectangle|*
%AMROUNDEDRECTD73*
21,1,0.02600,0.01000,0,0,90.0*
21,1,0.01000,0.02600,0,0,90.0*
1,1,0.01600,0.00500,0.00500*
1,1,0.01600,0.00500,-0.00500*
1,1,0.01600,-0.00500,-0.00500*
1,1,0.01600,-0.00500,0.00500*
%
%ADD73ROUNDEDRECTD73*%
%ADD74O,0.01584X0.03356*%
%ADD75O,0.03356X0.01584*%
%ADD76R,0.11230X0.11624*%
%ADD77R,0.02962X0.01781*%
%ADD78R,0.02962X0.02175*%
%ADD79R,0.05718X0.05324*%
%ADD80C,0.00600*%
%ADD81C,0.07293*%
%ADD82R,0.07293X0.07293*%
%ADD83R,0.07293X0.07293*%
%ADD84C,0.10443*%
%ADD85C,0.03159*%
%ADD86O,0.04537X0.06899*%
%ADD87O,0.04537X0.08868*%
%ADD88C,0.06899*%
%ADD89R,0.06899X0.06899*%
%ADD90C,0.09655*%
%ADD91R,0.09655X0.09655*%
D50*
X24000Y68673D02*
D03*
Y65327D02*
D03*
X-2500Y134327D02*
D03*
Y137673D02*
D03*
X500Y141229D02*
D03*
X500Y144772D02*
D03*
X51500Y33327D02*
D03*
Y36673D02*
D03*
X46500D02*
D03*
Y33327D02*
D03*
X26500Y36673D02*
D03*
Y33327D02*
D03*
X36500Y36673D02*
D03*
Y33327D02*
D03*
X41500D02*
D03*
Y36673D02*
D03*
X56500D02*
D03*
Y33327D02*
D03*
X31500Y36673D02*
D03*
Y33327D02*
D03*
X4000Y141500D02*
D03*
Y144847D02*
D03*
X34634Y114346D02*
D03*
X34634Y117889D02*
D03*
X30500Y114417D02*
D03*
Y117764D02*
D03*
X26500Y114319D02*
D03*
X26500Y117862D02*
D03*
X54500Y117862D02*
D03*
X54500Y114319D02*
D03*
X59500Y114319D02*
D03*
X59500Y117862D02*
D03*
D51*
X50933Y59500D02*
D03*
Y64500D02*
D03*
Y69500D02*
D03*
Y74500D02*
D03*
X30067Y59500D02*
D03*
Y64500D02*
D03*
Y69500D02*
D03*
Y74500D02*
D03*
D52*
X12728Y138591D02*
D03*
X16271Y138590D02*
D03*
X5756Y120091D02*
D03*
X2409D02*
D03*
X5756Y125591D02*
D03*
X2409D02*
D03*
X5756Y131091D02*
D03*
X2409D02*
D03*
X55181Y105090D02*
D03*
X51638Y105091D02*
D03*
X68736Y86295D02*
D03*
X65193Y86295D02*
D03*
X65291Y90295D02*
D03*
X68637D02*
D03*
X68736Y94295D02*
D03*
X65193Y94295D02*
D03*
X32729Y85795D02*
D03*
X36075D02*
D03*
X32729Y90193D02*
D03*
X36075D02*
D03*
X36272Y94590D02*
D03*
X32729Y94591D02*
D03*
X179771Y101500D02*
D03*
X176228Y101500D02*
D03*
X176229Y104500D02*
D03*
X179772Y104500D02*
D03*
X125772D02*
D03*
X122229Y104500D02*
D03*
X125771Y101500D02*
D03*
X122228Y101500D02*
D03*
X78772Y142500D02*
D03*
X75229Y142500D02*
D03*
X78173Y160500D02*
D03*
X74827D02*
D03*
X78272Y168181D02*
D03*
X74729Y168181D02*
D03*
X33272Y182590D02*
D03*
X29729Y182591D02*
D03*
D53*
X-524Y39000D02*
D03*
D54*
X10500D02*
D03*
D55*
X23150Y138736D02*
D03*
Y140705D02*
D03*
Y142673D02*
D03*
Y144642D02*
D03*
Y146610D02*
D03*
Y148579D02*
D03*
Y150547D02*
D03*
Y152516D02*
D03*
Y154484D02*
D03*
Y156453D02*
D03*
Y158421D02*
D03*
Y160390D02*
D03*
Y162358D02*
D03*
Y164327D02*
D03*
Y166295D02*
D03*
Y168264D02*
D03*
X66850Y156453D02*
D03*
Y154484D02*
D03*
Y152516D02*
D03*
Y142673D02*
D03*
Y140705D02*
D03*
Y138736D02*
D03*
Y150547D02*
D03*
Y146610D02*
D03*
Y144642D02*
D03*
Y148579D02*
D03*
Y168264D02*
D03*
Y162358D02*
D03*
Y160390D02*
D03*
Y158421D02*
D03*
Y164327D02*
D03*
Y166295D02*
D03*
D56*
X30236Y175350D02*
D03*
X32205D02*
D03*
X34173D02*
D03*
X36142D02*
D03*
X38110D02*
D03*
X40079D02*
D03*
X42047D02*
D03*
X44016D02*
D03*
X45984D02*
D03*
X47953D02*
D03*
X49921D02*
D03*
X51890D02*
D03*
X53858D02*
D03*
X55827D02*
D03*
X57795D02*
D03*
X59764D02*
D03*
Y131650D02*
D03*
X57795D02*
D03*
X55827D02*
D03*
X53858D02*
D03*
X51890D02*
D03*
X49921D02*
D03*
X47953D02*
D03*
X45984D02*
D03*
X44016D02*
D03*
X42047D02*
D03*
X40079D02*
D03*
X38110D02*
D03*
X36142D02*
D03*
X34173D02*
D03*
X32205D02*
D03*
X30236D02*
D03*
D57*
X112000Y109886D02*
D03*
Y107327D02*
D03*
Y91972D02*
D03*
Y94531D02*
D03*
Y97091D02*
D03*
Y112445D02*
D03*
Y86854D02*
D03*
Y89413D02*
D03*
X82866Y86854D02*
D03*
Y89413D02*
D03*
Y112445D02*
D03*
Y109886D02*
D03*
Y107327D02*
D03*
Y104768D02*
D03*
Y102209D02*
D03*
Y99650D02*
D03*
Y97091D02*
D03*
Y94531D02*
D03*
Y91972D02*
D03*
X112000Y115004D02*
D03*
Y104768D02*
D03*
Y102209D02*
D03*
Y99650D02*
D03*
X166567Y99720D02*
D03*
Y102280D02*
D03*
Y104839D02*
D03*
Y115075D02*
D03*
X137433Y92043D02*
D03*
Y94602D02*
D03*
Y97161D02*
D03*
Y99720D02*
D03*
Y102280D02*
D03*
Y104839D02*
D03*
Y107398D02*
D03*
Y109957D02*
D03*
Y112516D02*
D03*
Y89484D02*
D03*
Y86925D02*
D03*
X166567Y89484D02*
D03*
Y86925D02*
D03*
Y112516D02*
D03*
Y97161D02*
D03*
Y94602D02*
D03*
Y92043D02*
D03*
Y107398D02*
D03*
Y109957D02*
D03*
D58*
X82866Y115004D02*
D03*
X137433Y115075D02*
D03*
D59*
X36Y80323D02*
D03*
X16965D02*
D03*
X36Y71858D02*
D03*
X16965D02*
D03*
Y87858D02*
D03*
X36D02*
D03*
X16965Y96323D02*
D03*
X36D02*
D03*
X16965Y103768D02*
D03*
X36D02*
D03*
X16965Y112232D02*
D03*
X36D02*
D03*
D60*
X11000Y55181D02*
D03*
D61*
X1850Y49276D02*
D03*
Y51244D02*
D03*
Y53213D02*
D03*
Y55181D02*
D03*
Y57150D02*
D03*
Y59118D02*
D03*
Y61087D02*
D03*
X20150D02*
D03*
Y59118D02*
D03*
Y57150D02*
D03*
Y55181D02*
D03*
Y53213D02*
D03*
Y51244D02*
D03*
Y49276D02*
D03*
D62*
X5095Y64331D02*
D03*
X7063D02*
D03*
X9032D02*
D03*
X11000D02*
D03*
X12969D02*
D03*
X14937D02*
D03*
X16906D02*
D03*
Y46031D02*
D03*
X14937D02*
D03*
X12969D02*
D03*
X11000D02*
D03*
X9032D02*
D03*
X7063D02*
D03*
X5095D02*
D03*
D63*
X38984Y21512D02*
D03*
X37016D02*
D03*
X51189D02*
D03*
X50008D02*
D03*
X48039D02*
D03*
X46858D02*
D03*
X44890D02*
D03*
X42921D02*
D03*
X40953D02*
D03*
X35047D02*
D03*
X33079D02*
D03*
X31110D02*
D03*
X29142D02*
D03*
X27961D02*
D03*
X25992D02*
D03*
X24811D02*
D03*
D64*
X96000Y42441D02*
D03*
Y47559D02*
D03*
X106000Y47559D02*
D03*
Y42441D02*
D03*
X107500Y69559D02*
D03*
Y64441D02*
D03*
X112500Y69559D02*
D03*
Y64441D02*
D03*
X64900Y32421D02*
D03*
Y27303D02*
D03*
X83701D02*
D03*
Y32421D02*
D03*
X79000Y27303D02*
D03*
Y32421D02*
D03*
X69600Y27303D02*
D03*
Y32421D02*
D03*
D65*
X112559Y60000D02*
D03*
X107441D02*
D03*
X132059Y28000D02*
D03*
X126941D02*
D03*
X132059Y35000D02*
D03*
X126941D02*
D03*
X120941Y60000D02*
D03*
X126059D02*
D03*
X99559Y79000D02*
D03*
X94441D02*
D03*
X88559Y73500D02*
D03*
X83441D02*
D03*
X88559Y79000D02*
D03*
X83441D02*
D03*
X173941Y90500D02*
D03*
X179059D02*
D03*
X173941Y86000D02*
D03*
X179059D02*
D03*
X119441Y85000D02*
D03*
X124559D02*
D03*
X119441Y89500D02*
D03*
X124559D02*
D03*
D66*
X113760Y28000D02*
D03*
X121240D02*
D03*
X113760Y35000D02*
D03*
X121240D02*
D03*
D67*
X112661Y52875D02*
D03*
X115220D02*
D03*
X117780D02*
D03*
X120339D02*
D03*
Y42125D02*
D03*
X117780D02*
D03*
X115220D02*
D03*
X112661D02*
D03*
D68*
X63445Y42870D02*
D03*
X72500D02*
D03*
X81555D02*
D03*
D69*
X72500Y65311D02*
D03*
D70*
X33500Y51134D02*
D03*
X37240Y42866D02*
D03*
X29760D02*
D03*
X45260Y42732D02*
D03*
X52740D02*
D03*
X49000Y51000D02*
D03*
D71*
X89500Y32091D02*
D03*
Y25091D02*
D03*
D72*
X136500Y54890D02*
D03*
Y41110D02*
D03*
D73*
X9583Y131091D02*
D03*
X13583D02*
D03*
X9583Y125591D02*
D03*
X13583D02*
D03*
X9583Y120091D02*
D03*
X13583D02*
D03*
D74*
X45488Y83323D02*
D03*
X47457D02*
D03*
X49425D02*
D03*
X51394D02*
D03*
X53362D02*
D03*
X55331D02*
D03*
Y99858D02*
D03*
X53362D02*
D03*
X51394D02*
D03*
X49425D02*
D03*
X47457D02*
D03*
X45488D02*
D03*
D75*
X58677Y86669D02*
D03*
Y88638D02*
D03*
Y90606D02*
D03*
Y92575D02*
D03*
Y94543D02*
D03*
Y96512D02*
D03*
X42142D02*
D03*
Y94543D02*
D03*
Y92575D02*
D03*
Y90606D02*
D03*
Y88638D02*
D03*
Y86669D02*
D03*
D76*
X50409Y91591D02*
D03*
D77*
X173563Y114724D02*
D03*
Y112756D02*
D03*
X177500D02*
D03*
Y114724D02*
D03*
X122937D02*
D03*
Y112756D02*
D03*
X119000D02*
D03*
Y114724D02*
D03*
D78*
X173563Y116890D02*
D03*
Y110591D02*
D03*
X177500D02*
D03*
Y116890D02*
D03*
X122937D02*
D03*
Y110591D02*
D03*
X119000D02*
D03*
Y116890D02*
D03*
D79*
X48768Y119193D02*
D03*
X40500D02*
D03*
Y112500D02*
D03*
X48768D02*
D03*
D80*
X0Y0D02*
D03*
Y208000D02*
D03*
X177500Y0D02*
D03*
X177000Y208000D02*
D03*
D81*
X23000Y190500D02*
D03*
X33000D02*
D03*
X43000D02*
D03*
X10500Y19500D02*
D03*
X118000Y172091D02*
D03*
Y162091D02*
D03*
Y152091D02*
D03*
Y142091D02*
D03*
Y182091D02*
D03*
X4500Y154000D02*
D03*
Y164000D02*
D03*
Y174000D02*
D03*
X93000Y182090D02*
D03*
Y142090D02*
D03*
Y152091D02*
D03*
Y162091D02*
D03*
Y172090D02*
D03*
X500Y29500D02*
D03*
X168000Y182090D02*
D03*
Y142090D02*
D03*
Y152091D02*
D03*
Y162091D02*
D03*
Y172090D02*
D03*
X143000Y182090D02*
D03*
Y142090D02*
D03*
Y152091D02*
D03*
Y162091D02*
D03*
Y172090D02*
D03*
X168500Y44591D02*
D03*
Y54591D02*
D03*
Y64591D02*
D03*
Y74591D02*
D03*
X158500Y44591D02*
D03*
Y54591D02*
D03*
Y64591D02*
D03*
Y74591D02*
D03*
X178500D02*
D03*
Y64591D02*
D03*
Y54591D02*
D03*
Y44591D02*
D03*
D82*
X53000Y190500D02*
D03*
X118000Y132091D02*
D03*
X93000Y132090D02*
D03*
X168000D02*
D03*
X143000D02*
D03*
D83*
X10500Y29500D02*
D03*
X4500Y184000D02*
D03*
X500Y19500D02*
D03*
X168500Y34591D02*
D03*
X158500D02*
D03*
X178500D02*
D03*
D84*
X89996Y4591D02*
D03*
X108500D02*
D03*
X71492D02*
D03*
D85*
X26622Y15449D02*
D03*
X49378D02*
D03*
D86*
X55027Y1669D02*
D03*
X20972D02*
D03*
D87*
X55027Y17417D02*
D03*
X20972D02*
D03*
D88*
X79500Y199000D02*
D03*
Y209000D02*
D03*
X99500D02*
D03*
Y199000D02*
D03*
X109500D02*
D03*
Y209000D02*
D03*
X119500Y199000D02*
D03*
Y209000D02*
D03*
X129500Y199000D02*
D03*
Y209000D02*
D03*
X139500Y199000D02*
D03*
Y209000D02*
D03*
X149500Y199000D02*
D03*
Y209000D02*
D03*
X159500Y199000D02*
D03*
X89500Y209000D02*
D03*
Y199000D02*
D03*
X69500Y209000D02*
D03*
Y199000D02*
D03*
D89*
X159500Y209000D02*
D03*
D90*
X153000Y4091D02*
D03*
D91*
X133000D02*
D03*
M02*
