G04*
G04 #@! TF.GenerationSoftware,Altium Limited,Altium Designer,21.0.8 (223)*
G04*
G04 Layer_Color=16711935*
%FSLAX25Y25*%
%MOIN*%
G70*
G04*
G04 #@! TF.SameCoordinates,F2A8CEE9-D926-4100-BC22-0473D3AB1F95*
G04*
G04*
G04 #@! TF.FilePolarity,Negative*
G04*
G01*
G75*
%ADD15C,0.00800*%
%ADD80C,0.00600*%
%ADD81C,0.07293*%
%ADD82R,0.07293X0.07293*%
%ADD83R,0.07293X0.07293*%
%ADD84C,0.10443*%
%ADD85C,0.03159*%
%ADD86O,0.04537X0.06899*%
%ADD87O,0.04537X0.08868*%
%ADD88C,0.06899*%
%ADD89R,0.06899X0.06899*%
%ADD90C,0.09655*%
%ADD91R,0.09655X0.09655*%
%ADD113C,0.04537*%
%ADD114C,0.02962*%
G36*
X78133Y183695D02*
X78695Y183133D01*
X79000Y182398D01*
Y182000D01*
Y180500D01*
X75000D01*
Y182000D01*
Y182398D01*
X75305Y183133D01*
X75867Y183695D01*
X76602Y184000D01*
X77398D01*
X78133Y183695D01*
D02*
G37*
G36*
X79000Y177000D02*
Y176602D01*
X78695Y175867D01*
X78133Y175304D01*
X77398Y175000D01*
X76602D01*
X75867Y175304D01*
X75305Y175867D01*
X75000Y176602D01*
Y177000D01*
Y178500D01*
X79000D01*
Y177000D01*
D02*
G37*
G36*
X54633Y82196D02*
X55195Y81633D01*
X55500Y80898D01*
Y80500D01*
Y79000D01*
X51500D01*
Y80500D01*
Y80898D01*
X51805Y81633D01*
X52367Y82196D01*
X53102Y82500D01*
X53898D01*
X54633Y82196D01*
D02*
G37*
G36*
X46633D02*
X47196Y81633D01*
X47500Y80898D01*
Y80500D01*
Y79000D01*
X43500D01*
Y80500D01*
Y80898D01*
X43804Y81633D01*
X44367Y82196D01*
X45102Y82500D01*
X45898D01*
X46633Y82196D01*
D02*
G37*
G36*
X39133D02*
X39696Y81633D01*
X40000Y80898D01*
Y80500D01*
Y79000D01*
X36000D01*
Y80500D01*
Y80898D01*
X36305Y81633D01*
X36867Y82196D01*
X37602Y82500D01*
X38398D01*
X39133Y82196D01*
D02*
G37*
G36*
X29633D02*
X30196Y81633D01*
X30500Y80898D01*
Y80500D01*
Y79000D01*
X26500D01*
Y80500D01*
Y80898D01*
X26805Y81633D01*
X27367Y82196D01*
X28102Y82500D01*
X28898D01*
X29633Y82196D01*
D02*
G37*
G36*
X21633D02*
X22196Y81633D01*
X22500Y80898D01*
Y80500D01*
Y79000D01*
X18500D01*
Y80500D01*
Y80898D01*
X18804Y81633D01*
X19367Y82196D01*
X20102Y82500D01*
X20898D01*
X21633Y82196D01*
D02*
G37*
G36*
X55500Y75500D02*
Y75102D01*
X55195Y74367D01*
X54633Y73804D01*
X53898Y73500D01*
X53102D01*
X52367Y73804D01*
X51805Y74367D01*
X51500Y75102D01*
Y75500D01*
Y77000D01*
X55500D01*
Y75500D01*
D02*
G37*
G36*
X47500D02*
Y75102D01*
X47196Y74367D01*
X46633Y73804D01*
X45898Y73500D01*
X45102D01*
X44367Y73804D01*
X43804Y74367D01*
X43500Y75102D01*
Y75500D01*
Y77000D01*
X47500D01*
Y75500D01*
D02*
G37*
G36*
X40000D02*
Y75102D01*
X39696Y74367D01*
X39133Y73804D01*
X38398Y73500D01*
X37602D01*
X36867Y73804D01*
X36305Y74367D01*
X36000Y75102D01*
Y75500D01*
Y77000D01*
X40000D01*
Y75500D01*
D02*
G37*
G36*
X30500D02*
Y75102D01*
X30196Y74367D01*
X29633Y73804D01*
X28898Y73500D01*
X28102D01*
X27367Y73804D01*
X26805Y74367D01*
X26500Y75102D01*
Y75500D01*
Y77000D01*
X30500D01*
Y75500D01*
D02*
G37*
G36*
X22500D02*
Y75102D01*
X22196Y74367D01*
X21633Y73804D01*
X20898Y73500D01*
X20102D01*
X19367Y73804D01*
X18804Y74367D01*
X18500Y75102D01*
Y75500D01*
Y77000D01*
X22500D01*
Y75500D01*
D02*
G37*
D15*
X79000Y182000D02*
G03*
X75000Y182000I-2000J0D01*
G01*
Y177000D02*
G03*
X79000Y177000I2000J0D01*
G01*
X22500Y80500D02*
G03*
X18500Y80500I-2000J0D01*
G01*
Y75500D02*
G03*
X22500Y75500I2000J0D01*
G01*
X40000Y80500D02*
G03*
X36000Y80500I-2000J0D01*
G01*
Y75500D02*
G03*
X40000Y75500I2000J0D01*
G01*
X51500D02*
G03*
X55500Y75500I2000J0D01*
G01*
Y80500D02*
G03*
X51500Y80500I-2000J0D01*
G01*
X43500Y75500D02*
G03*
X47500Y75500I2000J0D01*
G01*
Y80500D02*
G03*
X43500Y80500I-2000J0D01*
G01*
X30500D02*
G03*
X26500Y80500I-2000J0D01*
G01*
Y75500D02*
G03*
X30500Y75500I2000J0D01*
G01*
X75000Y180500D02*
Y182000D01*
X79000Y180500D02*
Y182000D01*
X75000Y180500D02*
X79000D01*
Y177000D02*
Y178500D01*
X75000Y177000D02*
Y178500D01*
X79000D01*
X18500Y79000D02*
Y80500D01*
X22500Y79000D02*
Y80500D01*
X18500Y79000D02*
X22500D01*
Y75500D02*
Y77000D01*
X18500Y75500D02*
Y77000D01*
X22500D01*
X36000Y79000D02*
Y80500D01*
X40000Y79000D02*
Y80500D01*
X36000Y79000D02*
X40000D01*
Y75500D02*
Y77000D01*
X36000Y75500D02*
Y77000D01*
X40000D01*
X55500Y75500D02*
Y77000D01*
X51500Y75500D02*
Y77000D01*
X55500D01*
X51500Y79000D02*
Y80500D01*
X55500Y79000D02*
Y80500D01*
X51500Y79000D02*
X55500D01*
X47500Y75500D02*
Y77000D01*
X43500Y75500D02*
Y77000D01*
X47500D01*
X43500Y79000D02*
Y80500D01*
X47500Y79000D02*
Y80500D01*
X43500Y79000D02*
X47500D01*
X26500D02*
Y80500D01*
X30500Y79000D02*
Y80500D01*
X26500Y79000D02*
X30500D01*
Y75500D02*
Y77000D01*
X26500Y75500D02*
Y77000D01*
X30500D01*
D80*
X0Y0D02*
D03*
Y208000D02*
D03*
X177500Y0D02*
D03*
X177000Y208000D02*
D03*
D81*
X23000Y190500D02*
D03*
X33000D02*
D03*
X43000D02*
D03*
X10500Y19500D02*
D03*
X118000Y172091D02*
D03*
Y162091D02*
D03*
Y152091D02*
D03*
Y142091D02*
D03*
Y182091D02*
D03*
X4500Y154000D02*
D03*
Y164000D02*
D03*
Y174000D02*
D03*
X93000Y182090D02*
D03*
Y142090D02*
D03*
Y152091D02*
D03*
Y162091D02*
D03*
Y172090D02*
D03*
X500Y29500D02*
D03*
X168000Y182090D02*
D03*
Y142090D02*
D03*
Y152091D02*
D03*
Y162091D02*
D03*
Y172090D02*
D03*
X143000Y182090D02*
D03*
Y142090D02*
D03*
Y152091D02*
D03*
Y162091D02*
D03*
Y172090D02*
D03*
X168500Y44591D02*
D03*
Y54591D02*
D03*
Y64591D02*
D03*
Y74591D02*
D03*
X158500Y44591D02*
D03*
Y54591D02*
D03*
Y64591D02*
D03*
Y74591D02*
D03*
X178500D02*
D03*
Y64591D02*
D03*
Y54591D02*
D03*
Y44591D02*
D03*
D82*
X53000Y190500D02*
D03*
X118000Y132091D02*
D03*
X93000Y132090D02*
D03*
X168000D02*
D03*
X143000D02*
D03*
D83*
X10500Y29500D02*
D03*
X4500Y184000D02*
D03*
X500Y19500D02*
D03*
X168500Y34591D02*
D03*
X158500D02*
D03*
X178500D02*
D03*
D84*
X89996Y4591D02*
D03*
X108500D02*
D03*
X71492D02*
D03*
D85*
X26622Y15449D02*
D03*
X49378D02*
D03*
D86*
X55027Y1669D02*
D03*
X20972D02*
D03*
D87*
X55027Y17417D02*
D03*
X20972D02*
D03*
D88*
X79500Y199000D02*
D03*
Y209000D02*
D03*
X99500D02*
D03*
Y199000D02*
D03*
X109500D02*
D03*
Y209000D02*
D03*
X119500Y199000D02*
D03*
Y209000D02*
D03*
X129500Y199000D02*
D03*
Y209000D02*
D03*
X139500Y199000D02*
D03*
Y209000D02*
D03*
X149500Y199000D02*
D03*
Y209000D02*
D03*
X159500Y199000D02*
D03*
X89500Y209000D02*
D03*
Y199000D02*
D03*
X69500Y209000D02*
D03*
Y199000D02*
D03*
D89*
X159500Y209000D02*
D03*
D90*
X153000Y4091D02*
D03*
D91*
X133000D02*
D03*
D113*
X85963Y15500D02*
D03*
X93500D02*
D03*
X101037D02*
D03*
X78111D02*
D03*
X108574D02*
D03*
D114*
X77000Y182000D02*
D03*
Y177000D02*
D03*
X20500Y80500D02*
D03*
Y75500D02*
D03*
X38000Y80500D02*
D03*
Y75500D02*
D03*
X53500D02*
D03*
Y80500D02*
D03*
X45500Y75500D02*
D03*
Y80500D02*
D03*
X28500D02*
D03*
Y75500D02*
D03*
M02*
