G04*
G04 #@! TF.GenerationSoftware,Altium Limited,Altium Designer,21.0.8 (223)*
G04*
G04 Layer_Color=255*
%FSLAX25Y25*%
%MOIN*%
G70*
G04*
G04 #@! TF.SameCoordinates,F2A8CEE9-D926-4100-BC22-0473D3AB1F95*
G04*
G04*
G04 #@! TF.FilePolarity,Positive*
G04*
G01*
G75*
%ADD96C,0.06693*%
%ADD97R,0.06693X0.06693*%
%ADD98R,0.06693X0.06693*%
%ADD99C,0.09843*%
%ADD100C,0.02559*%
%ADD101O,0.03937X0.06299*%
%ADD102O,0.03937X0.08268*%
%ADD103C,0.06299*%
%ADD104R,0.06299X0.06299*%
%ADD105C,0.09055*%
%ADD106R,0.09055X0.09055*%
%ADD110C,0.03937*%
%ADD111C,0.02362*%
D96*
X23000Y190500D02*
D03*
X33000D02*
D03*
X43000D02*
D03*
X10500Y19500D02*
D03*
X118000Y172091D02*
D03*
Y162091D02*
D03*
Y152091D02*
D03*
Y142091D02*
D03*
Y182091D02*
D03*
X4500Y154000D02*
D03*
Y164000D02*
D03*
Y174000D02*
D03*
X93000Y182090D02*
D03*
Y142090D02*
D03*
Y152091D02*
D03*
Y162091D02*
D03*
Y172090D02*
D03*
X500Y29500D02*
D03*
X168000Y182090D02*
D03*
Y142090D02*
D03*
Y152091D02*
D03*
Y162091D02*
D03*
Y172090D02*
D03*
X143000Y182090D02*
D03*
Y142090D02*
D03*
Y152091D02*
D03*
Y162091D02*
D03*
Y172090D02*
D03*
X168500Y44591D02*
D03*
Y54591D02*
D03*
Y64591D02*
D03*
Y74591D02*
D03*
X158500Y44591D02*
D03*
Y54591D02*
D03*
Y64591D02*
D03*
Y74591D02*
D03*
X178500D02*
D03*
Y64591D02*
D03*
Y54591D02*
D03*
Y44591D02*
D03*
D97*
X53000Y190500D02*
D03*
X118000Y132091D02*
D03*
X93000Y132090D02*
D03*
X168000D02*
D03*
X143000D02*
D03*
D98*
X10500Y29500D02*
D03*
X4500Y184000D02*
D03*
X500Y19500D02*
D03*
X168500Y34591D02*
D03*
X158500D02*
D03*
X178500D02*
D03*
D99*
X89996Y4591D02*
D03*
X108500D02*
D03*
X71492D02*
D03*
D100*
X26622Y15449D02*
D03*
X49378D02*
D03*
D101*
X55027Y1669D02*
D03*
X20972D02*
D03*
D102*
X55027Y17417D02*
D03*
X20972D02*
D03*
D103*
X79500Y199000D02*
D03*
Y209000D02*
D03*
X99500D02*
D03*
Y199000D02*
D03*
X109500D02*
D03*
Y209000D02*
D03*
X119500Y199000D02*
D03*
Y209000D02*
D03*
X129500Y199000D02*
D03*
Y209000D02*
D03*
X139500Y199000D02*
D03*
Y209000D02*
D03*
X149500Y199000D02*
D03*
Y209000D02*
D03*
X159500Y199000D02*
D03*
X89500Y209000D02*
D03*
Y199000D02*
D03*
X69500Y209000D02*
D03*
Y199000D02*
D03*
D104*
X159500Y209000D02*
D03*
D105*
X153000Y4091D02*
D03*
D106*
X133000D02*
D03*
D110*
X85963Y15500D02*
D03*
X93500D02*
D03*
X101037D02*
D03*
X78111D02*
D03*
X108574D02*
D03*
D111*
X77000Y182000D02*
D03*
Y177000D02*
D03*
X20500Y80500D02*
D03*
Y75500D02*
D03*
X38000Y80500D02*
D03*
Y75500D02*
D03*
X53500D02*
D03*
Y80500D02*
D03*
X45500Y75500D02*
D03*
Y80500D02*
D03*
X28500D02*
D03*
Y75500D02*
D03*
M02*
