G04*
G04 #@! TF.GenerationSoftware,Altium Limited,Altium Designer,21.0.8 (223)*
G04*
G04 Layer_Color=128*
%FSLAX25Y25*%
%MOIN*%
G70*
G04*
G04 #@! TF.SameCoordinates,D207AE89-D095-46AE-B33C-92FBD01F1A1F*
G04*
G04*
G04 #@! TF.FilePolarity,Positive*
G04*
G01*
G75*
%ADD10C,0.00000*%
%ADD11C,0.00236*%
%ADD12C,0.00394*%
%ADD13C,0.00591*%
%ADD14C,0.00200*%
%ADD15C,0.00100*%
%ADD16C,0.00197*%
%ADD17C,0.00158*%
G36*
X9083Y132291D02*
Y132191D01*
X9007Y132007D01*
X8866Y131867D01*
X8682Y131791D01*
X8083D01*
Y132791D01*
X9083D01*
Y132291D01*
D02*
G37*
G36*
Y126791D02*
Y126691D01*
X9007Y126507D01*
X8866Y126367D01*
X8682Y126291D01*
X8083D01*
Y127291D01*
X9083D01*
Y126791D01*
D02*
G37*
G36*
Y121291D02*
Y121191D01*
X9007Y121007D01*
X8866Y120867D01*
X8682Y120791D01*
X8083D01*
Y121791D01*
X9083D01*
Y121291D01*
D02*
G37*
G36*
X16768Y101701D02*
X233D01*
Y114299D01*
X16768D01*
Y101701D01*
D02*
G37*
G36*
Y85791D02*
X233D01*
Y98390D01*
X16768D01*
Y85791D01*
D02*
G37*
G36*
Y69792D02*
X233D01*
Y82390D01*
X16768D01*
Y69792D01*
D02*
G37*
D10*
X1150Y45331D02*
X20850D01*
X1150D02*
Y65031D01*
X20850D01*
Y45331D02*
Y65031D01*
X4495D02*
X5695D01*
X4495D02*
X5695D01*
X6463D02*
X7663D01*
X6463D02*
X7663D01*
X8432D02*
X9632D01*
X8432D02*
X9632D01*
X10400D02*
X11600D01*
X10400D02*
X11600D01*
X12369D02*
X13569D01*
X12369D02*
X13569D01*
X14337D02*
X15537D01*
X14337D02*
X15537D01*
X16306D02*
X17506D01*
X16306D02*
X17506D01*
X20850Y60487D02*
Y61687D01*
Y60487D02*
Y61687D01*
Y58518D02*
Y59718D01*
Y58518D02*
Y59718D01*
Y56550D02*
Y57750D01*
Y56550D02*
Y57750D01*
Y54581D02*
Y55781D01*
Y54581D02*
Y55781D01*
Y52613D02*
Y53813D01*
Y52613D02*
Y53813D01*
Y50644D02*
Y51844D01*
Y50644D02*
Y51844D01*
Y48676D02*
Y49876D01*
Y48676D02*
Y49876D01*
X16306Y45331D02*
X17506D01*
X16306D02*
X17506D01*
X14337D02*
X15537D01*
X14337D02*
X15537D01*
X12369D02*
X13569D01*
X12369D02*
X13569D01*
X10400D02*
X11600D01*
X10400D02*
X11600D01*
X8432D02*
X9632D01*
X8432D02*
X9632D01*
X6463D02*
X7663D01*
X6463D02*
X7663D01*
X4495D02*
X5695D01*
X4495D02*
X5695D01*
X1150Y48676D02*
Y49876D01*
Y48676D02*
Y49876D01*
Y50644D02*
Y51844D01*
Y50644D02*
Y51844D01*
Y52613D02*
Y53813D01*
Y52613D02*
Y53813D01*
Y54581D02*
Y55781D01*
Y54581D02*
Y55781D01*
Y56550D02*
Y57750D01*
Y56550D02*
Y57750D01*
Y58518D02*
Y59718D01*
Y58518D02*
Y59718D01*
Y60487D02*
Y61687D01*
Y60487D02*
Y61687D01*
D11*
X350Y69791D02*
G03*
X350Y69791I-118J0D01*
G01*
Y85791D02*
G03*
X350Y85791I-118J0D01*
G01*
Y101700D02*
G03*
X350Y101700I-118J0D01*
G01*
D12*
X46799Y60701D02*
G03*
X46799Y60701I-1969J0D01*
G01*
X30827Y137358D02*
G03*
X30827Y137358I-1969J0D01*
G01*
X113596Y46351D02*
G03*
X113596Y46351I-1000J0D01*
G01*
X48374Y57157D02*
Y76842D01*
X32626Y57157D02*
Y76842D01*
Y57157D02*
X48374D01*
X32626Y76842D02*
X48374D01*
X64685Y133815D02*
Y173185D01*
X25315Y133815D02*
Y173185D01*
X64685D01*
X25315Y133815D02*
X64685D01*
X122406Y44352D02*
Y50651D01*
X110595Y44352D02*
Y50651D01*
X122406D01*
X110595Y44352D02*
X122406D01*
X59311Y46807D02*
X85689D01*
X59311Y61374D02*
X85689D01*
X59311Y46807D02*
Y61374D01*
X85689Y46807D02*
Y61374D01*
X39484Y44244D02*
Y49756D01*
X27516Y44244D02*
Y49756D01*
X39484D01*
X27516Y44244D02*
X39484D01*
X43016Y44110D02*
X54984D01*
X43016Y49622D02*
X54984D01*
X43016Y44110D02*
Y49622D01*
X54984Y44110D02*
Y49622D01*
X57035Y54500D02*
Y78024D01*
X23965Y54500D02*
Y78024D01*
Y54500D02*
X57035D01*
X23965Y78024D02*
X57035D01*
X38532Y67000D02*
X42469D01*
X40500Y65031D02*
Y68968D01*
X43031Y153500D02*
X46969D01*
X45000Y151532D02*
Y155469D01*
X77933Y117929D02*
X116933D01*
Y83929D02*
Y117929D01*
X77933Y83929D02*
X116933D01*
X77933D02*
Y117929D01*
X123001Y39626D02*
Y55374D01*
X110001Y39626D02*
Y55374D01*
X123001D01*
X110001Y39626D02*
X123001D01*
X58917Y38343D02*
X86083D01*
X58917Y69839D02*
X86083D01*
X58917Y38343D02*
Y69839D01*
X86083Y38343D02*
Y69839D01*
X72500Y52122D02*
Y56059D01*
X70531Y54091D02*
X74469D01*
X31531Y47000D02*
X35469D01*
X33500Y45031D02*
Y48968D01*
X49000Y44898D02*
Y48835D01*
X47031Y46866D02*
X50969D01*
X38795Y79976D02*
X62024D01*
X38795Y103205D02*
X62024D01*
X38795Y79976D02*
Y103205D01*
X62024Y79976D02*
Y103205D01*
X50409Y89622D02*
Y93559D01*
X48441Y91591D02*
X52378D01*
X132500Y84000D02*
Y118000D01*
Y84000D02*
X171500D01*
Y118000D01*
X132500D02*
X171500D01*
D13*
X92483Y113429D02*
G03*
X92483Y113429I-2550J0D01*
G01*
X147049Y113500D02*
G03*
X147049Y113500I-2550J0D01*
G01*
X86213Y84591D02*
X108654D01*
Y117268D01*
X86213D02*
X108654D01*
X86213Y84591D02*
Y117268D01*
X140780Y84661D02*
Y117339D01*
X163220D01*
Y84661D02*
Y117339D01*
X140780Y84661D02*
X163220D01*
D14*
X9614Y130106D02*
Y132075D01*
X13551Y130106D02*
Y132075D01*
X9614D02*
X13551D01*
X9614Y130106D02*
X13551D01*
X11583Y130491D02*
Y131691D01*
X10983Y131091D02*
X12183D01*
X9614Y124606D02*
Y126575D01*
X13551Y124606D02*
Y126575D01*
X9614D02*
X13551D01*
X9614Y124606D02*
X13551D01*
X11583Y124991D02*
Y126191D01*
X10983Y125591D02*
X12183D01*
X9614Y119106D02*
Y121075D01*
X13551Y119106D02*
Y121075D01*
X9614D02*
X13551D01*
X9614Y119106D02*
X13551D01*
X11583Y119491D02*
Y120691D01*
X10983Y120091D02*
X12183D01*
X8083Y132791D02*
X15083D01*
Y129391D02*
Y132791D01*
X8083Y129391D02*
Y132791D01*
Y129391D02*
X15083D01*
X8083Y127291D02*
X15083D01*
Y123891D02*
Y127291D01*
X8083Y123891D02*
Y127291D01*
Y123891D02*
X15083D01*
X8083Y121791D02*
X15083D01*
Y118391D02*
Y121791D01*
X8083Y118391D02*
Y121791D01*
Y118391D02*
X15083D01*
X89500Y28591D02*
X90000D01*
X89000D02*
X89500D01*
Y28091D02*
Y29091D01*
X-6299Y0D02*
X6299D01*
X0Y-6299D02*
Y6299D01*
X-6299Y208000D02*
X6299D01*
X0Y201701D02*
Y214299D01*
X171201Y0D02*
X183799D01*
X177500Y-6299D02*
Y6299D01*
X170701Y208000D02*
X183299D01*
X177000Y201701D02*
Y214299D01*
X21228Y190500D02*
X24772D01*
X23000Y188728D02*
Y192272D01*
X31228Y190500D02*
X34772D01*
X33000Y188728D02*
Y192272D01*
X41228Y190500D02*
X44772D01*
X43000Y188728D02*
Y192272D01*
X51228Y190500D02*
X54772D01*
X53000Y188728D02*
Y192272D01*
X8728Y19500D02*
X12272D01*
X10500Y17728D02*
Y21272D01*
X8728Y29500D02*
X12272D01*
X10500Y27728D02*
Y31272D01*
X116228Y172091D02*
X119772D01*
X118000Y170319D02*
Y173862D01*
X116228Y162091D02*
X119772D01*
X118000Y160319D02*
Y163862D01*
X116228Y152091D02*
X119772D01*
X118000Y150319D02*
Y153862D01*
X116228Y142091D02*
X119772D01*
X118000Y140319D02*
Y143862D01*
X116228Y132091D02*
X119772D01*
X118000Y130319D02*
Y133862D01*
X116228Y182091D02*
X119772D01*
X118000Y180319D02*
Y183862D01*
X2728Y154000D02*
X6272D01*
X4500Y152228D02*
Y155772D01*
X2728Y164000D02*
X6272D01*
X4500Y162228D02*
Y165772D01*
X2728Y174000D02*
X6272D01*
X4500Y172228D02*
Y175772D01*
X2728Y184000D02*
X6272D01*
X4500Y182228D02*
Y185772D01*
X91228Y182090D02*
X94772D01*
X93000Y180319D02*
Y183862D01*
X91228Y132090D02*
X94772D01*
X93000Y130319D02*
Y133862D01*
X91228Y142090D02*
X94772D01*
X93000Y140319D02*
Y143862D01*
X91228Y152091D02*
X94772D01*
X93000Y150319D02*
Y153862D01*
X91228Y162091D02*
X94772D01*
X93000Y160319D02*
Y163862D01*
X91228Y172090D02*
X94772D01*
X93000Y170319D02*
Y173862D01*
X86650Y4591D02*
X93343D01*
X89996Y1244D02*
Y7937D01*
X105154Y4591D02*
X111846D01*
X108500Y1244D02*
Y7937D01*
X68146Y4591D02*
X74839D01*
X71492Y1244D02*
Y7937D01*
X25343Y15449D02*
X27902D01*
X26622Y14169D02*
Y16728D01*
X48098Y15449D02*
X50657D01*
X49378Y14169D02*
Y16728D01*
X53846Y1669D02*
X56208D01*
X55027Y488D02*
Y2850D01*
X19791Y1669D02*
X22153D01*
X20972Y488D02*
Y2850D01*
X53846Y17417D02*
X56208D01*
X55027Y16236D02*
Y18598D01*
X19791Y17417D02*
X22153D01*
X20972Y16236D02*
Y18598D01*
X-1272Y19500D02*
X2272D01*
X500Y17728D02*
Y21272D01*
X-1272Y29500D02*
X2272D01*
X500Y27728D02*
Y31272D01*
X166228Y182090D02*
X169772D01*
X168000Y180319D02*
Y183862D01*
X166228Y132090D02*
X169772D01*
X168000Y130319D02*
Y133862D01*
X166228Y142090D02*
X169772D01*
X168000Y140319D02*
Y143862D01*
X166228Y152091D02*
X169772D01*
X168000Y150319D02*
Y153862D01*
X166228Y162091D02*
X169772D01*
X168000Y160319D02*
Y163862D01*
X166228Y172090D02*
X169772D01*
X168000Y170319D02*
Y173862D01*
X141228Y182090D02*
X144772D01*
X143000Y180319D02*
Y183862D01*
X141228Y132090D02*
X144772D01*
X143000Y130319D02*
Y133862D01*
X141228Y142090D02*
X144772D01*
X143000Y140319D02*
Y143862D01*
X141228Y152091D02*
X144772D01*
X143000Y150319D02*
Y153862D01*
X141228Y162091D02*
X144772D01*
X143000Y160319D02*
Y163862D01*
X141228Y172090D02*
X144772D01*
X143000Y170319D02*
Y173862D01*
X77728Y199000D02*
X81272D01*
X79500Y197228D02*
Y200772D01*
X77728Y209000D02*
X81272D01*
X79500Y207228D02*
Y210772D01*
X97728Y209000D02*
X101272D01*
X99500Y207228D02*
Y210772D01*
X97728Y199000D02*
X101272D01*
X99500Y197228D02*
Y200772D01*
X107728Y199000D02*
X111272D01*
X109500Y197228D02*
Y200772D01*
X107728Y209000D02*
X111272D01*
X109500Y207228D02*
Y210772D01*
X117728Y199000D02*
X121272D01*
X119500Y197228D02*
Y200772D01*
X117728Y209000D02*
X121272D01*
X119500Y207228D02*
Y210772D01*
X127728Y199000D02*
X131272D01*
X129500Y197228D02*
Y200772D01*
X127728Y209000D02*
X131272D01*
X129500Y207228D02*
Y210772D01*
X137728Y199000D02*
X141272D01*
X139500Y197228D02*
Y200772D01*
X137728Y209000D02*
X141272D01*
X139500Y207228D02*
Y210772D01*
X147728Y199000D02*
X151272D01*
X149500Y197228D02*
Y200772D01*
X147728Y209000D02*
X151272D01*
X149500Y207228D02*
Y210772D01*
X157728Y199000D02*
X161272D01*
X159500Y197228D02*
Y200772D01*
X157728Y209000D02*
X161272D01*
X159500Y207228D02*
Y210772D01*
X87728Y209000D02*
X91272D01*
X89500Y207228D02*
Y210772D01*
X87728Y199000D02*
X91272D01*
X89500Y197228D02*
Y200772D01*
X67728Y209000D02*
X71272D01*
X69500Y207228D02*
Y210772D01*
X67728Y199000D02*
X71272D01*
X69500Y197228D02*
Y200772D01*
X166728Y34591D02*
X170272D01*
X168500Y32819D02*
Y36362D01*
X166728Y44591D02*
X170272D01*
X168500Y42819D02*
Y46362D01*
X166728Y54591D02*
X170272D01*
X168500Y52819D02*
Y56362D01*
X166728Y64591D02*
X170272D01*
X168500Y62819D02*
Y66362D01*
X166728Y74591D02*
X170272D01*
X168500Y72819D02*
Y76362D01*
X156728Y34591D02*
X160272D01*
X158500Y32819D02*
Y36362D01*
X156728Y44591D02*
X160272D01*
X158500Y42819D02*
Y46362D01*
X156728Y54591D02*
X160272D01*
X158500Y52819D02*
Y56362D01*
X156728Y64591D02*
X160272D01*
X158500Y62819D02*
Y66362D01*
X156728Y74591D02*
X160272D01*
X158500Y72819D02*
Y76362D01*
X150638Y4091D02*
X155362D01*
X153000Y1728D02*
Y6453D01*
X130638Y4091D02*
X135362D01*
X133000Y1728D02*
Y6453D01*
X176728Y74591D02*
X180272D01*
X178500Y72819D02*
Y76362D01*
X176728Y64591D02*
X180272D01*
X178500Y62819D02*
Y66362D01*
X176728Y54591D02*
X180272D01*
X178500Y52819D02*
Y56362D01*
X176728Y44591D02*
X180272D01*
X178500Y42819D02*
Y46362D01*
X176728Y34591D02*
X180272D01*
X178500Y32819D02*
Y36362D01*
X9450Y-2950D02*
X10650D01*
X10051Y-3550D02*
Y-2350D01*
X-3000Y147000D02*
X-2000D01*
X-2500Y146500D02*
Y147500D01*
Y128000D02*
X-1500D01*
X-2000Y127500D02*
Y128500D01*
X12500Y142075D02*
X13500D01*
X13000Y141575D02*
Y142575D01*
X12241Y138591D02*
X13241D01*
X12741Y138091D02*
Y139091D01*
X20000Y29500D02*
X21000D01*
X20500Y29000D02*
Y30000D01*
X83000Y174000D02*
X84000D01*
X83500Y173500D02*
Y174500D01*
X83000Y176500D02*
X84000D01*
X83500Y176000D02*
Y177000D01*
X71300Y174245D02*
X72300D01*
X71800Y173745D02*
Y174745D01*
X81000Y181100D02*
X82000D01*
X81500Y180600D02*
Y181600D01*
X81900Y179000D02*
X82900D01*
X82400Y178500D02*
Y179500D01*
X73007Y189743D02*
X74007D01*
X73507Y189243D02*
Y190243D01*
X71982Y182965D02*
X72982D01*
X72482Y182465D02*
Y183465D01*
X69050Y192150D02*
X70050D01*
X69550Y191650D02*
Y192650D01*
X64329Y201998D02*
X65329D01*
X64829Y201498D02*
Y202498D01*
X18250Y45500D02*
X19750D01*
X19000Y44750D02*
Y46250D01*
X20250Y47500D02*
X21750D01*
X21000Y46750D02*
Y48250D01*
X14500Y144500D02*
X15500D01*
X15000Y144000D02*
Y145000D01*
X70027Y166073D02*
X71027D01*
X70527Y165573D02*
Y166573D01*
X26516Y114500D02*
X27516D01*
X27016Y114000D02*
Y115000D01*
X27500Y136000D02*
X28500D01*
X28000Y135500D02*
Y136500D01*
X25550Y135000D02*
X26550D01*
X26050Y134500D02*
Y135500D01*
X18742Y126242D02*
X19742D01*
X19242Y125742D02*
Y126742D01*
X-1500Y171500D02*
X-500D01*
X-1000Y171000D02*
Y172000D01*
X-122Y178146D02*
X878D01*
X378Y177646D02*
Y178646D01*
X1970Y158179D02*
X2970D01*
X2470Y157679D02*
Y158679D01*
X6547Y160113D02*
X7547D01*
X7046Y159613D02*
Y160613D01*
X54473Y196346D02*
X55473D01*
X54973Y195846D02*
Y196846D01*
X70351Y181627D02*
X71351D01*
X70851Y181127D02*
Y182127D01*
X99900Y182500D02*
X101100D01*
X100500Y181900D02*
Y183100D01*
X73489Y162783D02*
X74489D01*
X73989Y162283D02*
Y163283D01*
X75386Y164095D02*
X76386D01*
X75886Y163595D02*
Y164595D01*
X85454Y135380D02*
X86454D01*
X85954Y134880D02*
Y135880D01*
X86470Y137986D02*
X87470D01*
X86970Y137486D02*
Y138486D01*
X61770Y122530D02*
X62770D01*
X62270Y122030D02*
Y123030D01*
X63700Y121704D02*
X64700D01*
X64200Y121203D02*
Y122204D01*
X11015Y180515D02*
X12015D01*
X11515Y180015D02*
Y181015D01*
X8973Y181006D02*
X9973D01*
X9473Y180506D02*
Y181506D01*
X13000Y181200D02*
X14000D01*
X13500Y180700D02*
Y181700D01*
X34500Y202550D02*
X35500D01*
X35000Y202050D02*
Y203050D01*
X44850Y201350D02*
X45850D01*
X45350Y200850D02*
Y201850D01*
X48500Y201350D02*
X49500D01*
X49000Y200850D02*
Y201850D01*
X78000Y168672D02*
X79000D01*
X78500Y168172D02*
Y169172D01*
X66078Y170154D02*
X67078D01*
X66578Y169654D02*
Y170654D01*
X129679Y184513D02*
X130679D01*
X130179Y184013D02*
Y185013D01*
X131795Y184629D02*
X132795D01*
X132295Y184129D02*
Y185129D01*
X-3200Y108000D02*
X-2200D01*
X-2700Y107500D02*
Y108500D01*
X-2000Y55500D02*
X-1000D01*
X-1500Y55000D02*
Y56000D01*
X-1788Y109554D02*
X-788D01*
X-1288Y109054D02*
Y110054D01*
X-2000Y53213D02*
X-1000D01*
X-1500Y52713D02*
Y53713D01*
X-3000Y116000D02*
X-2000D01*
X-2500Y115500D02*
Y116500D01*
X-1949Y49500D02*
X-949D01*
X-1449Y49000D02*
Y50000D01*
X11923Y150690D02*
X12923D01*
X12423Y150190D02*
Y151190D01*
X12202Y152797D02*
X13202D01*
X12702Y152297D02*
Y153297D01*
X16000Y150000D02*
X17000D01*
X16500Y149500D02*
Y150500D01*
X13347Y154591D02*
X14346D01*
X13847Y154091D02*
Y155091D01*
X22838Y120275D02*
X23838D01*
X23338Y119775D02*
Y120775D01*
X21150Y122606D02*
X22150D01*
X21650Y122106D02*
Y123106D01*
X19500Y124000D02*
X20500D01*
X20000Y123500D02*
Y124500D01*
X8500Y188500D02*
X9500D01*
X9000Y188000D02*
Y189000D01*
X4400Y34500D02*
X5600D01*
X5000Y33900D02*
Y35100D01*
X4400Y39500D02*
X5600D01*
X5000Y38900D02*
Y40100D01*
X-1500Y102500D02*
X-500D01*
X-1000Y102000D02*
Y103000D01*
X809Y75966D02*
X1809D01*
X1309Y75466D02*
Y76466D01*
X500Y85000D02*
X1500D01*
X1000Y84500D02*
Y85500D01*
X-500Y91000D02*
X500D01*
X0Y90500D02*
Y91500D01*
X17000Y100000D02*
X18000D01*
X17500Y99500D02*
Y100500D01*
X99000Y134307D02*
X100000D01*
X99500Y133807D02*
Y134807D01*
X118000Y121500D02*
X119000D01*
X118500Y121000D02*
Y122000D01*
X109706Y124675D02*
X110706D01*
X110206Y124175D02*
Y125175D01*
X56330Y166900D02*
X57330D01*
X56830Y166400D02*
Y167400D01*
X99000Y136407D02*
X100000D01*
X99500Y135907D02*
Y136907D01*
X120500Y121000D02*
X121500D01*
X121000Y120500D02*
Y121500D01*
X111191Y126160D02*
X112191D01*
X111691Y125660D02*
Y126660D01*
X56500Y169000D02*
X57500D01*
X57000Y168500D02*
Y169500D01*
X126900Y180950D02*
X128100D01*
X127500Y180350D02*
Y181550D01*
X151400Y183500D02*
X152600D01*
X152000Y182900D02*
Y184100D01*
X120301Y118896D02*
X121301D01*
X120801Y118396D02*
Y119396D01*
X114396Y122306D02*
X115396D01*
X114896Y121806D02*
Y122806D01*
X112159Y122159D02*
X113159D01*
X112659Y121659D02*
Y122659D01*
X109000Y122650D02*
X110000D01*
X109500Y122150D02*
Y123150D01*
X111695Y139000D02*
X112695D01*
X112195Y138500D02*
Y139500D01*
X105475Y106758D02*
X106475D01*
X105975Y106258D02*
Y107258D01*
X105568Y108856D02*
X106568D01*
X106068Y108356D02*
Y109356D01*
X105413Y110950D02*
X106413D01*
X105913Y110450D02*
Y111450D01*
X59056Y128001D02*
X60056D01*
X59556Y127501D02*
Y128501D01*
X60665Y126652D02*
X61665D01*
X61165Y126152D02*
Y127152D01*
X78000Y158200D02*
X79000D01*
X78500Y157700D02*
Y158700D01*
X61768Y165337D02*
X62768D01*
X62268Y164837D02*
Y165837D01*
X60000Y159591D02*
X61000D01*
X60500Y159091D02*
Y160091D01*
X49670Y166760D02*
X50670D01*
X50170Y166260D02*
Y167260D01*
X53537Y164991D02*
X54537D01*
X54037Y164491D02*
Y165491D01*
X51350Y165500D02*
X52350D01*
X51850Y165000D02*
Y166000D01*
X48950Y169091D02*
X49950D01*
X49450Y168591D02*
Y169591D01*
X57400Y165000D02*
X58400D01*
X57900Y164500D02*
Y165500D01*
X55500Y163500D02*
X56500D01*
X56000Y163000D02*
Y164000D01*
X56500Y160091D02*
X57500D01*
X57000Y159591D02*
Y160591D01*
X59617Y164883D02*
X60617D01*
X60117Y164383D02*
Y165383D01*
X56000Y183794D02*
X57000D01*
X56500Y183294D02*
Y184294D01*
X53500Y184000D02*
X54500D01*
X54000Y183500D02*
Y184500D01*
X81500Y190950D02*
X82500D01*
X82000Y190450D02*
Y191450D01*
X78000Y189750D02*
X79000D01*
X78500Y189250D02*
Y190250D01*
X73500Y207000D02*
X74500D01*
X74000Y206500D02*
Y207500D01*
X55367Y203650D02*
X56367D01*
X55867Y203150D02*
Y204150D01*
X56899Y205166D02*
X57899D01*
X57399Y204665D02*
Y205665D01*
X53500Y202000D02*
X54500D01*
X54000Y201500D02*
Y202500D01*
X17549Y166998D02*
X18549D01*
X18049Y166498D02*
Y167498D01*
X16000Y189000D02*
X17000D01*
X16500Y188500D02*
Y189500D01*
X16811Y164811D02*
X17811D01*
X17311Y164311D02*
Y165311D01*
X35000Y156291D02*
X36000D01*
X35500Y155791D02*
Y156791D01*
X122500Y213000D02*
X123500D01*
X123000Y212500D02*
Y213500D01*
X75900Y152500D02*
X76900D01*
X76400Y152000D02*
Y153000D01*
X78000Y152500D02*
X79000D01*
X78500Y152000D02*
Y153000D01*
X73600Y152500D02*
X74600D01*
X74100Y152000D02*
Y153000D01*
X50600Y181394D02*
X51600D01*
X51100Y180894D02*
Y181894D01*
X71500Y152500D02*
X72500D01*
X72000Y152000D02*
Y153000D01*
X47080Y182580D02*
X48080D01*
X47580Y182080D02*
Y183080D01*
X81500Y184500D02*
X82500D01*
X82000Y184000D02*
Y185000D01*
X176900Y184300D02*
X178100D01*
X177500Y183700D02*
Y184900D01*
X40500Y181000D02*
X41500D01*
X41000Y180500D02*
Y181500D01*
X35000Y181000D02*
X36000D01*
X35500Y180500D02*
Y181500D01*
X15000Y158091D02*
X16000D01*
X15500Y157591D02*
Y158591D01*
X35708Y124500D02*
X36707D01*
X36208Y124000D02*
Y125000D01*
X33608Y124500D02*
X34607D01*
X34108Y124000D02*
Y125000D01*
X13000Y128500D02*
X14000D01*
X13500Y128000D02*
Y129000D01*
X31455Y122045D02*
X32455D01*
X31955Y121545D02*
Y122545D01*
X5050Y99000D02*
X6050D01*
X5550Y98500D02*
Y99500D01*
X7150Y99000D02*
X8150D01*
X7650Y98500D02*
Y99500D01*
X66717Y32620D02*
X67917D01*
X67317Y32020D02*
Y33220D01*
X69461Y36120D02*
X70661D01*
X70061Y35520D02*
Y36720D01*
X97900Y5500D02*
X99100D01*
X98500Y4900D02*
Y6100D01*
X84900Y21000D02*
X86100D01*
X85500Y20400D02*
Y21600D01*
X87271Y22379D02*
X88471D01*
X87871Y21779D02*
Y22979D01*
X88650Y24841D02*
X89850D01*
X89250Y24241D02*
Y25441D01*
X74400Y16500D02*
X75600D01*
X75000Y15900D02*
Y17100D01*
X71900Y16500D02*
X73100D01*
X72500Y15900D02*
Y17100D01*
X69150Y16500D02*
X70350D01*
X69750Y15900D02*
Y17100D01*
X82900Y40500D02*
X84100D01*
X83500Y39900D02*
Y41100D01*
X82900Y45000D02*
X84100D01*
X83500Y44400D02*
Y45600D01*
X92900Y31000D02*
X94100D01*
X93500Y30400D02*
Y31600D01*
X88900Y32000D02*
X90100D01*
X89500Y31400D02*
Y32600D01*
X82900Y32000D02*
X84100D01*
X83500Y31400D02*
Y32600D01*
X78400Y32000D02*
X79600D01*
X79000Y31400D02*
Y32600D01*
X25000Y92000D02*
X26000D01*
X25500Y91500D02*
Y92500D01*
X23500Y112000D02*
X24500D01*
X24000Y111500D02*
Y112500D01*
X28500Y88000D02*
X29500D01*
X29000Y87500D02*
Y88500D01*
X34000Y73011D02*
X35000D01*
X34500Y72511D02*
Y73511D01*
X10350Y101500D02*
X11350D01*
X10850Y101000D02*
Y102000D01*
X23000Y72000D02*
X24000D01*
X23500Y71500D02*
Y72500D01*
X38500Y92500D02*
X39500D01*
X39000Y92000D02*
Y93000D01*
X38000Y138091D02*
X39000D01*
X38500Y137591D02*
Y138591D01*
X34500D02*
X35500D01*
X35000Y138091D02*
Y139091D01*
X40000Y86591D02*
X41000D01*
X40500Y86091D02*
Y87091D01*
X12000Y78500D02*
X13000D01*
X12500Y78000D02*
Y79000D01*
X2932Y106068D02*
X3932D01*
X3432Y105568D02*
Y106568D01*
X13500Y106350D02*
X14500D01*
X14000Y105850D02*
Y106850D01*
X42100Y59500D02*
X43100D01*
X42600Y59000D02*
Y60000D01*
X21816Y25684D02*
X22816D01*
X22316Y25184D02*
Y26184D01*
X39763Y59303D02*
X40763D01*
X40263Y58802D02*
Y59803D01*
X20331Y27169D02*
X21331D01*
X20831Y26669D02*
Y27669D01*
X38500Y25500D02*
X39500D01*
X39000Y25000D02*
Y26000D01*
X34510Y25224D02*
X35510D01*
X35010Y24724D02*
Y25724D01*
X40500Y39500D02*
X41500D01*
X41000Y39000D02*
Y40000D01*
X26000Y46000D02*
X27000D01*
X26500Y45500D02*
Y46500D01*
X13319Y52362D02*
X14319D01*
X13819Y51862D02*
Y52862D01*
X10500Y52362D02*
X11500D01*
X11000Y51862D02*
Y52862D01*
X15500Y120000D02*
X16500D01*
X16000Y119500D02*
Y120500D01*
X31000Y38500D02*
X32000D01*
X31500Y38000D02*
Y39000D01*
X36500Y47500D02*
X37500D01*
X37000Y47000D02*
Y48000D01*
X7681Y58000D02*
X8681D01*
X8181Y57500D02*
Y58500D01*
X7681Y52362D02*
X8681D01*
X8181Y51862D02*
Y52862D01*
X7681Y55181D02*
X8681D01*
X8181Y54681D02*
Y55681D01*
X10500Y55181D02*
X11500D01*
X11000Y54681D02*
Y55681D01*
X13319Y55181D02*
X14319D01*
X13819Y54681D02*
Y55681D01*
X500Y63000D02*
X1500D01*
X1000Y62500D02*
Y63500D01*
X32500Y18000D02*
X33500D01*
X33000Y17500D02*
Y18500D01*
X42000Y25760D02*
X43000D01*
X42500Y25260D02*
Y26260D01*
X26000Y112050D02*
X27000D01*
X26500Y111550D02*
Y112550D01*
X100400Y42500D02*
X101600D01*
X101000Y41900D02*
Y43100D01*
X100400Y45500D02*
X101600D01*
X101000Y44900D02*
Y46100D01*
X100400Y48500D02*
X101600D01*
X101000Y47900D02*
Y49100D01*
X100400Y51500D02*
X101600D01*
X101000Y50900D02*
Y52100D01*
X100400Y59500D02*
X101600D01*
X101000Y58900D02*
Y60100D01*
X84400Y36000D02*
X85600D01*
X85000Y35400D02*
Y36600D01*
X81400Y36000D02*
X82600D01*
X82000Y35400D02*
Y36600D01*
X77900Y36000D02*
X79100D01*
X78500Y35400D02*
Y36600D01*
X77900Y40500D02*
X79100D01*
X78500Y39900D02*
Y41100D01*
X77900Y45000D02*
X79100D01*
X78500Y44400D02*
Y45600D01*
X141900Y21000D02*
X143100D01*
X142500Y20400D02*
Y21600D01*
X138900Y21000D02*
X140100D01*
X139500Y20400D02*
Y21600D01*
X135400Y21000D02*
X136600D01*
X136000Y20400D02*
Y21600D01*
X131900Y21000D02*
X133100D01*
X132500Y20400D02*
Y21600D01*
X141900Y24500D02*
X143100D01*
X142500Y23900D02*
Y25100D01*
X138900Y24500D02*
X140100D01*
X139500Y23900D02*
Y25100D01*
X135400Y24500D02*
X136600D01*
X136000Y23900D02*
Y25100D01*
X131900Y24500D02*
X133100D01*
X132500Y23900D02*
Y25100D01*
X83900Y52500D02*
X85100D01*
X84500Y51900D02*
Y53100D01*
X83900Y57500D02*
X85100D01*
X84500Y56900D02*
Y58100D01*
X83900Y62500D02*
X85100D01*
X84500Y61900D02*
Y63100D01*
X88400Y67500D02*
X89600D01*
X89000Y66900D02*
Y68100D01*
X82900Y67500D02*
X84100D01*
X83500Y66900D02*
Y68100D01*
X164400Y18500D02*
X165600D01*
X165000Y17900D02*
Y19100D01*
X162900Y9500D02*
X164100D01*
X163500Y8900D02*
Y10100D01*
X174900Y24000D02*
X176100D01*
X175500Y23400D02*
Y24600D01*
X178900Y24500D02*
X180100D01*
X179500Y23900D02*
Y25100D01*
X160400Y15000D02*
X161600D01*
X161000Y14400D02*
Y15600D01*
X141900Y7500D02*
X143100D01*
X142500Y6900D02*
Y8100D01*
X141900Y16000D02*
X143100D01*
X142500Y15400D02*
Y16600D01*
X153900Y17500D02*
X155100D01*
X154500Y16900D02*
Y18100D01*
X132400Y16000D02*
X133600D01*
X133000Y15400D02*
Y16600D01*
X122400Y15000D02*
X123600D01*
X123000Y14400D02*
Y15600D01*
X10500Y58000D02*
X11500D01*
X11000Y57500D02*
Y58500D01*
X13319Y58000D02*
X14319D01*
X13819Y57500D02*
Y58500D01*
X95500Y51500D02*
X96500D01*
X96000Y51000D02*
Y52000D01*
X160000Y104000D02*
X161000D01*
X160500Y103500D02*
Y104500D01*
X160000Y100500D02*
X161000D01*
X160500Y100000D02*
Y101000D01*
Y112516D02*
X161500D01*
X161000Y112016D02*
Y113016D01*
X160500Y92043D02*
X161500D01*
X161000Y91543D02*
Y92543D01*
X160500Y97161D02*
X161500D01*
X161000Y96661D02*
Y97661D01*
X160500Y107398D02*
X161500D01*
X161000Y106898D02*
Y107898D01*
X160500Y109957D02*
X161500D01*
X161000Y109457D02*
Y110457D01*
X160500Y94602D02*
X161500D01*
X161000Y94102D02*
Y95102D01*
X75900Y70500D02*
X77100D01*
X76500Y69900D02*
Y71100D01*
X72400Y70500D02*
X73600D01*
X73000Y69900D02*
Y71100D01*
X75900Y78500D02*
X77100D01*
X76500Y77900D02*
Y79100D01*
X75900Y74500D02*
X77100D01*
X76500Y73900D02*
Y75100D01*
X61900Y65000D02*
X63100D01*
X62500Y64400D02*
Y65600D01*
X68900Y56000D02*
X70100D01*
X69500Y55400D02*
Y56600D01*
X68900Y59500D02*
X70100D01*
X69500Y58900D02*
Y60100D01*
X61900Y77500D02*
X63100D01*
X62500Y76900D02*
Y78100D01*
X65400Y77500D02*
X66600D01*
X66000Y76900D02*
Y78100D01*
X72400Y78500D02*
X73600D01*
X73000Y77900D02*
Y79100D01*
X72400Y74500D02*
X73600D01*
X73000Y73900D02*
Y75100D01*
X65400Y56000D02*
X66600D01*
X66000Y55400D02*
Y56600D01*
X65400Y59500D02*
X66600D01*
X66000Y58900D02*
Y60100D01*
X61900Y59500D02*
X63100D01*
X62500Y58900D02*
Y60100D01*
X65400Y70500D02*
X66600D01*
X66000Y69900D02*
Y71100D01*
X61900Y70500D02*
X63100D01*
X62500Y69900D02*
Y71100D01*
X65400Y74000D02*
X66600D01*
X66000Y73400D02*
Y74600D01*
X61900Y74000D02*
X63100D01*
X62500Y73400D02*
Y74600D01*
X90414Y84300D02*
X91414D01*
X90914Y83800D02*
Y84800D01*
X115400Y69500D02*
X116600D01*
X116000Y68900D02*
Y70100D01*
X142000Y94000D02*
X143000D01*
X142500Y93500D02*
Y94500D01*
X54000Y112500D02*
X55000D01*
X54500Y112000D02*
Y113000D01*
X117000Y57000D02*
X118000D01*
X117500Y56500D02*
Y57500D01*
X54000Y24500D02*
X55000D01*
X54500Y24000D02*
Y25000D01*
X133900Y31500D02*
X135100D01*
X134500Y30900D02*
Y32100D01*
X125900Y31500D02*
X127100D01*
X126500Y30900D02*
Y32100D01*
X122900Y31500D02*
X124100D01*
X123500Y30900D02*
Y32100D01*
X125900Y39500D02*
X127100D01*
X126500Y38900D02*
Y40100D01*
X122900Y39500D02*
X124100D01*
X123500Y38900D02*
Y40100D01*
X125900Y42500D02*
X127100D01*
X126500Y41900D02*
Y43100D01*
X122900Y42500D02*
X124100D01*
X123500Y41900D02*
Y43100D01*
X33975Y108615D02*
X34975D01*
X34475Y108115D02*
Y109115D01*
X34038Y119962D02*
X35038D01*
X34538Y119462D02*
Y120462D01*
X30400Y1500D02*
X31600D01*
X31000Y900D02*
Y2100D01*
X31250Y8591D02*
X32750D01*
X32000Y7841D02*
Y9341D01*
X41900Y1500D02*
X43100D01*
X42500Y900D02*
Y2100D01*
X48900Y7500D02*
X50100D01*
X49500Y6900D02*
Y8100D01*
X33750Y8500D02*
X35250D01*
X34500Y7750D02*
Y9250D01*
X36250Y8500D02*
X37750D01*
X37000Y7750D02*
Y9250D01*
X83900Y-3500D02*
X85100D01*
X84500Y-4100D02*
Y-2900D01*
X118900Y4000D02*
X120100D01*
X119500Y3400D02*
Y4600D01*
X128900Y12000D02*
X130100D01*
X129500Y11400D02*
Y12600D01*
X148400Y12000D02*
X149600D01*
X149000Y11400D02*
Y12600D01*
X179400Y15500D02*
X180600D01*
X180000Y14900D02*
Y16100D01*
X170400Y18500D02*
X171600D01*
X171000Y17900D02*
Y19100D01*
X116500Y108000D02*
X117500D01*
X117000Y107500D02*
Y108500D01*
X119000Y108131D02*
X120000D01*
X119500Y107631D02*
Y108631D01*
X34500Y170000D02*
X35500D01*
X35000Y169500D02*
Y170500D01*
X32000Y171500D02*
X33000D01*
X32500Y171000D02*
Y172000D01*
X19245Y168356D02*
X20245D01*
X19745Y167856D02*
Y168856D01*
X125900Y95000D02*
X127100D01*
X126500Y94400D02*
Y95600D01*
X47900Y126000D02*
X49100D01*
X48500Y125400D02*
Y126600D01*
X168049Y211709D02*
X169249D01*
X168649Y211109D02*
Y212309D01*
X179900Y196500D02*
X181100D01*
X180500Y195900D02*
Y197100D01*
X178000Y93500D02*
X179000D01*
X178500Y93000D02*
Y94000D01*
X126000Y176500D02*
X127000D01*
X126500Y176000D02*
Y177000D01*
X175500Y172000D02*
X176500D01*
X176000Y171500D02*
Y172500D01*
X150000Y167500D02*
X151000D01*
X150500Y167000D02*
Y168000D01*
X150000Y172000D02*
X151000D01*
X150500Y171500D02*
Y172500D01*
X175500Y176500D02*
X176500D01*
X176000Y176000D02*
Y177000D01*
X150000Y176500D02*
X151000D01*
X150500Y176000D02*
Y177000D01*
X28000Y99000D02*
X29000D01*
X28500Y98500D02*
Y99500D01*
X34000Y105500D02*
X35000D01*
X34500Y105000D02*
Y106000D01*
X68000Y111000D02*
X69000D01*
X68500Y110500D02*
Y111500D01*
X99000Y176500D02*
X100000D01*
X99500Y176000D02*
Y177000D01*
X59000Y110500D02*
X60000D01*
X59500Y110000D02*
Y111000D01*
X48268Y112500D02*
X49268D01*
X48768Y112000D02*
Y113000D01*
X62500Y124500D02*
X63500D01*
X63000Y124000D02*
Y125000D01*
X126000Y172000D02*
X127000D01*
X126500Y171500D02*
Y172500D01*
X81000Y144500D02*
X82000D01*
X81500Y144000D02*
Y145000D01*
X126000Y167500D02*
X127000D01*
X126500Y167000D02*
Y168000D01*
X118500Y95000D02*
X119500D01*
X119000Y94500D02*
Y95500D01*
X131500Y92000D02*
X132500D01*
X132000Y91500D02*
Y92500D01*
X96000Y85500D02*
X97000D01*
X96500Y85000D02*
Y86000D01*
X76500Y94500D02*
X77500D01*
X77000Y94000D02*
Y95000D01*
X175500Y167500D02*
X176500D01*
X176000Y167000D02*
Y168000D01*
X76500Y91500D02*
X77500D01*
X77000Y91000D02*
Y92000D01*
X99000Y172000D02*
X100000D01*
X99500Y171500D02*
Y172500D01*
X87500Y92500D02*
X88500D01*
X88000Y92000D02*
Y93000D01*
X99000Y167500D02*
X100000D01*
X99500Y167000D02*
Y168000D01*
X104800Y100500D02*
X105800D01*
X105300Y100000D02*
Y101000D01*
X104800Y104500D02*
X105800D01*
X105300Y104000D02*
Y105000D01*
X45500Y164591D02*
X46500D01*
X46000Y164091D02*
Y165091D01*
X168500Y121591D02*
X169500D01*
X169000Y121091D02*
Y122091D01*
X167500Y119591D02*
X168500D01*
X168000Y119091D02*
Y120091D01*
X173000Y108091D02*
X174000D01*
X173500Y107591D02*
Y108591D01*
X56186Y152427D02*
X57186D01*
X56686Y151927D02*
Y152927D01*
X105500Y97091D02*
X106500D01*
X106000Y96591D02*
Y97591D01*
X170869Y108975D02*
X171869D01*
X171369Y108475D02*
Y109475D01*
X41500Y101591D02*
X42500D01*
X42000Y101091D02*
Y102091D01*
X105500Y94531D02*
X106500D01*
X106000Y94031D02*
Y95031D01*
X105500Y91972D02*
X106500D01*
X106000Y91472D02*
Y92472D01*
X47500Y140591D02*
X48500D01*
X48000Y140091D02*
Y141091D01*
X51500Y156091D02*
X52500D01*
X52000Y155591D02*
Y156591D01*
X50000Y154591D02*
X51000D01*
X50500Y154091D02*
Y155091D01*
X58500Y151810D02*
X59500D01*
X59000Y151310D02*
Y152310D01*
X33015Y157575D02*
X34015D01*
X33515Y157075D02*
Y158075D01*
X45000Y103591D02*
X46000D01*
X45500Y103091D02*
Y104091D01*
X50625Y137410D02*
X51625D01*
X51125Y136910D02*
Y137910D01*
X43500Y148091D02*
X44500D01*
X44000Y147591D02*
Y148591D01*
X35000Y150591D02*
X36000D01*
X35500Y150091D02*
Y151091D01*
X45500Y147091D02*
X46500D01*
X46000Y146591D02*
Y147591D01*
X37350Y148091D02*
X38350D01*
X37850Y147591D02*
Y148591D01*
X62500Y100091D02*
X63500D01*
X63000Y99591D02*
Y100591D01*
D15*
X24500Y67000D02*
G03*
X24500Y67000I-500J0D01*
G01*
X15000Y138591D02*
G03*
X15000Y138591I-500J0D01*
G01*
X-2000Y136000D02*
G03*
X-2000Y136000I-500J0D01*
G01*
X1000Y143000D02*
G03*
X1000Y143000I-500J0D01*
G01*
X52000Y35000D02*
G03*
X52000Y35000I-500J0D01*
G01*
X47000D02*
G03*
X47000Y35000I-500J0D01*
G01*
X96500Y45000D02*
G03*
X96500Y45000I-500J0D01*
G01*
X110500Y60000D02*
G03*
X110500Y60000I-500J0D01*
G01*
X130000Y28000D02*
G03*
X130000Y28000I-500J0D01*
G01*
Y35000D02*
G03*
X130000Y35000I-500J0D01*
G01*
X106500Y45000D02*
G03*
X106500Y45000I-500J0D01*
G01*
X124000Y60000D02*
G03*
X124000Y60000I-500J0D01*
G01*
X108000Y67000D02*
G03*
X108000Y67000I-500J0D01*
G01*
X113000D02*
G03*
X113000Y67000I-500J0D01*
G01*
X65400Y29862D02*
G03*
X65400Y29862I-500J0D01*
G01*
X27000Y35000D02*
G03*
X27000Y35000I-500J0D01*
G01*
X37000D02*
G03*
X37000Y35000I-500J0D01*
G01*
X42000D02*
G03*
X42000Y35000I-500J0D01*
G01*
X57000D02*
G03*
X57000Y35000I-500J0D01*
G01*
X32000D02*
G03*
X32000Y35000I-500J0D01*
G01*
X84200Y29862D02*
G03*
X84200Y29862I-500J0D01*
G01*
X79500D02*
G03*
X79500Y29862I-500J0D01*
G01*
X70100D02*
G03*
X70100Y29862I-500J0D01*
G01*
X97500Y79000D02*
G03*
X97500Y79000I-500J0D01*
G01*
X86500Y73500D02*
G03*
X86500Y73500I-500J0D01*
G01*
Y79000D02*
G03*
X86500Y79000I-500J0D01*
G01*
X4500Y143173D02*
G03*
X4500Y143173I-500J0D01*
G01*
X4583Y120091D02*
G03*
X4583Y120091I-500J0D01*
G01*
Y125591D02*
G03*
X4583Y125591I-500J0D01*
G01*
Y131091D02*
G03*
X4583Y131091I-500J0D01*
G01*
X35134Y116118D02*
G03*
X35134Y116118I-500J0D01*
G01*
X31000Y116091D02*
G03*
X31000Y116091I-500J0D01*
G01*
X27000D02*
G03*
X27000Y116091I-500J0D01*
G01*
X53909Y105090D02*
G03*
X53909Y105090I-500J0D01*
G01*
X55000Y116091D02*
G03*
X55000Y116091I-500J0D01*
G01*
X60000D02*
G03*
X60000Y116091I-500J0D01*
G01*
X67464Y86295D02*
G03*
X67464Y86295I-500J0D01*
G01*
Y90295D02*
G03*
X67464Y90295I-500J0D01*
G01*
Y94295D02*
G03*
X67464Y94295I-500J0D01*
G01*
X34902Y85795D02*
G03*
X34902Y85795I-500J0D01*
G01*
Y90193D02*
G03*
X34902Y90193I-500J0D01*
G01*
X35000Y94591D02*
G03*
X35000Y94591I-500J0D01*
G01*
X177000Y90500D02*
G03*
X177000Y90500I-500J0D01*
G01*
Y86000D02*
G03*
X177000Y86000I-500J0D01*
G01*
X178500Y101500D02*
G03*
X178500Y101500I-500J0D01*
G01*
X122500Y85000D02*
G03*
X122500Y85000I-500J0D01*
G01*
Y89500D02*
G03*
X122500Y89500I-500J0D01*
G01*
X178500Y104500D02*
G03*
X178500Y104500I-500J0D01*
G01*
X124500D02*
G03*
X124500Y104500I-500J0D01*
G01*
Y101500D02*
G03*
X124500Y101500I-500J0D01*
G01*
X176031Y113740D02*
G03*
X176031Y113740I-500J0D01*
G01*
X121468D02*
G03*
X121468Y113740I-500J0D01*
G01*
X77500Y142500D02*
G03*
X77500Y142500I-500J0D01*
G01*
X77000Y160500D02*
G03*
X77000Y160500I-500J0D01*
G01*
Y168181D02*
G03*
X77000Y168181I-500J0D01*
G01*
X32000Y182590D02*
G03*
X32000Y182590I-500J0D01*
G01*
X24000Y66212D02*
Y67787D01*
X23212Y67000D02*
X24787D01*
X14500Y137803D02*
Y139378D01*
X13713Y138591D02*
X15287D01*
X-2500Y135213D02*
Y136787D01*
X-3287Y136000D02*
X-1712D01*
X500Y142213D02*
Y143787D01*
X-287Y143000D02*
X1288D01*
X51500Y34213D02*
Y35788D01*
X50713Y35000D02*
X52288D01*
X45713D02*
X47288D01*
X46500Y34213D02*
Y35788D01*
X96000Y44213D02*
Y45787D01*
X95213Y45000D02*
X96787D01*
X110000Y59213D02*
Y60787D01*
X109213Y60000D02*
X110787D01*
X128713Y28000D02*
X130287D01*
X129500Y27213D02*
Y28787D01*
X128713Y35000D02*
X130287D01*
X129500Y34213D02*
Y35787D01*
X106000Y44213D02*
Y45787D01*
X105213Y45000D02*
X106787D01*
X122713Y60000D02*
X124287D01*
X123500Y59213D02*
Y60787D01*
X107500Y66213D02*
Y67787D01*
X106713Y67000D02*
X108287D01*
X111713D02*
X113287D01*
X112500Y66213D02*
Y67787D01*
X64900Y29075D02*
Y30650D01*
X64113Y29862D02*
X65687D01*
X25713Y35000D02*
X27288D01*
X26500Y34213D02*
Y35788D01*
X35713Y35000D02*
X37288D01*
X36500Y34213D02*
Y35787D01*
X40712Y35000D02*
X42287D01*
X41500Y34212D02*
Y35787D01*
X55713Y35000D02*
X57288D01*
X56500Y34213D02*
Y35787D01*
X30713Y35000D02*
X32288D01*
X31500Y34213D02*
Y35787D01*
X82913Y29862D02*
X84488D01*
X83700Y29075D02*
Y30650D01*
X78213Y29862D02*
X79788D01*
X79000Y29075D02*
Y30650D01*
X68813Y29862D02*
X70387D01*
X69600Y29075D02*
Y30650D01*
X96213Y79000D02*
X97787D01*
X97000Y78213D02*
Y79787D01*
X85213Y73500D02*
X86787D01*
X86000Y72713D02*
Y74287D01*
X85213Y79000D02*
X86787D01*
X86000Y78213D02*
Y79787D01*
X3212Y143173D02*
X4787D01*
X4000Y142386D02*
Y143961D01*
X4083Y119303D02*
Y120878D01*
X3295Y120091D02*
X4870D01*
X4083Y124803D02*
Y126378D01*
X3295Y125591D02*
X4870D01*
X4083Y130303D02*
Y131878D01*
X3295Y131091D02*
X4870D01*
X33846Y116118D02*
X35421D01*
X34634Y115331D02*
Y116905D01*
X30500Y115303D02*
Y116878D01*
X29713Y116091D02*
X31288D01*
X25712Y116090D02*
X27287D01*
X26500Y115303D02*
Y116878D01*
X53410Y104303D02*
Y105878D01*
X52622Y105090D02*
X54197D01*
X53713Y116091D02*
X55288D01*
X54500Y115303D02*
Y116878D01*
X58712Y116090D02*
X60287D01*
X59500Y115303D02*
Y116878D01*
X66964Y85508D02*
Y87082D01*
X66177Y86295D02*
X67751D01*
X66177Y90295D02*
X67751D01*
X66964Y89508D02*
Y91082D01*
Y93508D02*
Y95082D01*
X66177Y94295D02*
X67751D01*
X33615Y85795D02*
X35189D01*
X34402Y85008D02*
Y86582D01*
X33615Y90193D02*
X35189D01*
X34402Y89406D02*
Y90980D01*
X34500Y93803D02*
Y95378D01*
X33713Y94590D02*
X35287D01*
X175713Y90500D02*
X177287D01*
X176500Y89713D02*
Y91287D01*
X175713Y86000D02*
X177287D01*
X176500Y85213D02*
Y86787D01*
X177213Y101500D02*
X178787D01*
X178000Y100713D02*
Y102288D01*
X121213Y85000D02*
X122787D01*
X122000Y84213D02*
Y85787D01*
X121213Y89500D02*
X122787D01*
X122000Y88713D02*
Y90287D01*
X177213Y104500D02*
X178787D01*
X178000Y103712D02*
Y105287D01*
X124000Y103712D02*
Y105287D01*
X123213Y104500D02*
X124787D01*
X123213Y101500D02*
X124787D01*
X124000Y100713D02*
Y102288D01*
X175532Y112953D02*
Y114528D01*
X174744Y113740D02*
X176319D01*
X120181D02*
X121756D01*
X120969Y112953D02*
Y114528D01*
X77000Y141712D02*
Y143287D01*
X76213Y142500D02*
X77787D01*
X75713Y160500D02*
X77287D01*
X76500Y159713D02*
Y161288D01*
Y167394D02*
Y168968D01*
X75713Y168181D02*
X77287D01*
X31500Y181803D02*
Y183378D01*
X30713Y182590D02*
X32287D01*
D16*
X6366Y39000D02*
G03*
X6366Y39000I-1378J0D01*
G01*
X98811Y100929D02*
G03*
X98811Y100929I-1378J0D01*
G01*
X118878Y28000D02*
G03*
X118878Y28000I-1378J0D01*
G01*
D02*
G03*
X118878Y28000I-1378J0D01*
G01*
Y35000D02*
G03*
X118878Y35000I-1378J0D01*
G01*
D02*
G03*
X118878Y35000I-1378J0D01*
G01*
X117879Y47501D02*
G03*
X117879Y47501I-1378J0D01*
G01*
X144536Y4090D02*
G03*
X144536Y4090I-1378J0D01*
G01*
X137878Y48000D02*
G03*
X137878Y48000I-1378J0D01*
G01*
X153378Y101000D02*
G03*
X153378Y101000I-1378J0D01*
G01*
X4988Y37031D02*
Y40968D01*
X3020Y39000D02*
X6957D01*
X71378Y127122D02*
Y179878D01*
X18622Y127122D02*
Y179878D01*
X71378D01*
X18622Y127122D02*
X71378D01*
X97433Y98961D02*
Y102898D01*
X95465Y100929D02*
X99402D01*
X117500Y26032D02*
Y29969D01*
X115532Y28000D02*
X119469D01*
X115532D02*
X119469D01*
X117500Y26032D02*
Y29969D01*
Y33032D02*
Y36969D01*
X115532Y35000D02*
X119469D01*
X115532D02*
X119469D01*
X117500Y33032D02*
Y36969D01*
X116501Y45532D02*
Y49469D01*
X114533Y47501D02*
X118470D01*
X40390Y39323D02*
Y54677D01*
X26610Y39323D02*
Y54677D01*
X40390D01*
X26610Y39323D02*
X40390D01*
X143157Y2122D02*
Y6059D01*
X141189Y4091D02*
X145126D01*
X42110Y39189D02*
X55890D01*
X42110Y54543D02*
X55890D01*
X42110Y39189D02*
Y54543D01*
X55890Y39189D02*
Y54543D01*
X134531Y48000D02*
X138468D01*
X136500Y46031D02*
Y49968D01*
X150032Y101000D02*
X153969D01*
X152000Y99032D02*
Y102969D01*
D17*
X45341Y115846D02*
G03*
X45341Y115846I-707J0D01*
G01*
X44634Y114846D02*
Y116846D01*
X43634Y115846D02*
X45634D01*
M02*
