M48
;Layer_Color=9474304
;FILE_FORMAT=2:5
INCH,TZ
;TYPE=PLATED
T1F00S00C0.01000
T2F00S00C0.01200
T3F00S00C0.01500
T5F00S00C0.02559
T6F00S00C0.03543
T7F00S00C0.04724
T8F00S00C0.06693
T9F00S00C0.12598
%
T01
X22316Y25684
X20831Y27169
X20500Y29500
X35010Y25224
X39000Y25500
X42500Y25760
X41000Y39500
X31500Y38500
X26500Y46000
X37000Y47500
X40263Y59303
X42600Y59500
X13819Y58000
Y55181
Y52362
X11000
X8181
Y55181
Y58000
X11000
Y55181
X-1500Y55500
Y53213
X-1449Y49500
X1000Y63000
X33000Y18000
X54500Y24500
X96000Y51500
X117500Y57000
X119000Y95000
X106000Y94531
Y91972
Y97091
X105300Y100500
Y104500
X105975Y106758
X106068Y108856
X105913Y110950
X117000Y108000
X119500Y108131
X120801Y118896
X121000Y121000
X118500Y121500
X114896Y122306
X112659Y122159
X109500Y122650
X110206Y124675
X111691Y126160
X112195Y139000
X99500Y136407
Y134307
X85954Y135380
X86970Y137986
X81500Y144500
X78500Y152500
X76400
X74100
X72000
X78500Y158200
X75886Y164095
X73989Y162783
X70527Y166073
X66578Y170154
X62268Y165337
X60117Y164883
X57900Y165000
X56830Y166900
X57000Y169000
X56000Y163500
X54037Y164991
X51850Y165500
X50170Y166760
X49450Y169091
X46000Y164591
X52000Y156091
X50500Y154591
X56686Y152427
X59000Y151810
X60500Y159591
X57000Y160091
X46000Y147091
X48000Y140591
X51125Y137410
X59556Y128001
X61165Y126652
X63000Y124500
X62270Y122530
X64200Y121704
X68500Y111000
X59500Y110500
X54500Y112500
X48768
X45500Y103591
X63000Y100091
X77000Y94500
Y91500
X88000Y92500
X90914Y84300
X96500Y85500
X132000Y92000
X142500Y94000
X161000Y94602
Y97161
X160500Y100500
Y104000
X161000Y107398
Y109957
Y112516
X171369Y108975
X173500Y108091
X168000Y119591
X169000Y121591
X161000Y92043
X178500Y93500
X176000Y167500
Y172000
Y176500
X150500
Y172000
Y167500
X126500
Y172000
Y176500
X130179Y184513
X132295Y184629
X123000Y213000
X74000Y207000
X64829Y201998
X57399Y205166
X55867Y203650
X54000Y202000
X49000Y201350
X45350
X54973Y196346
X54000Y184000
X56500Y183794
X51100Y181394
X47580Y182580
X70851Y181627
X72482Y182965
X73507Y189743
X78500Y189750
X82000Y190950
Y184500
X81500Y181100
X82400Y179000
X83500Y176500
Y174000
X78500Y168672
X71800Y174245
X69550Y192150
X99500Y176500
Y172000
Y167500
X35000Y170000
X32500Y171500
X35500Y181000
X41000
X35000Y202550
X16500Y189000
X9000Y188500
X9473Y181006
X11515Y180515
X13500Y181200
X378Y178146
X-1000Y171500
X2470Y158179
X7046Y160113
X15500Y158091
X13847Y154591
X12702Y152797
X12423Y150690
X16500Y150000
X15000Y144500
X13000Y142075
X12741Y138591
X13500Y128500
X19242Y126242
X20000Y124000
X21650Y122606
X23338Y120275
X16000Y120000
X14000Y106350
X10850Y101500
X7650Y99000
X5550
X3432Y106068
X-1000Y102500
X-2700Y108000
X-1288Y109554
X-2500Y116000
X-2000Y128000
X-2500Y147000
X17311Y164811
X18049Y166998
X19745Y168356
X33515Y157575
X35500Y156291
Y150591
X37850Y148091
X44000
X38500Y138091
X35000Y138591
X28000Y136000
X26050Y135000
X34108Y124500
X36208
X34538Y119962
X31955Y122045
X27016Y114500
X26500Y112050
X24000Y112000
X34475Y108615
X34500Y105500
X42000Y101591
X39000Y92500
X40500Y86591
X29000Y88000
X25500Y92000
X28500Y99000
X17500Y100000
X0Y91000
X1000Y85000
X1309Y75966
X12500Y78500
X23500Y72000
X34500Y73011
T02
X10051Y-2950
X31000Y1500
X42500
X5000Y34500
Y39500
X70061Y36120
X67317Y32620
X79000Y32000
X83500
X85000Y36000
X82000
X78500
Y40500
Y45000
X83500
Y40500
X84500Y52500
Y57500
Y62500
X69500Y59500
Y56000
X66000
Y59500
X62500
X101000
Y51500
Y48500
Y45500
Y42500
X93500Y31000
X89500Y32000
X89250Y24841
X87871Y22379
X85500Y21000
X75000Y16500
X72500
X69750
X49500Y7500
X84500Y-3500
X98500Y5500
X119500Y4000
X123000Y15000
X129500Y12000
X133000Y16000
X132500Y21000
X136000
X139500
X142500
Y24500
X139500
X136000
X132500
X134500Y31500
X126500
X123500
Y39500
X126500
Y42500
X123500
X142500Y16000
Y7500
X149000Y12000
X154500Y17500
X161000Y15000
X165000Y18500
X171000
X175500Y24000
X179500Y24500
X180000Y15500
X163500Y9500
X116000Y69500
X89000Y67500
X83500
X76500Y70500
X73000
Y74500
X76500
Y78500
X73000
X66000Y77500
X62500
Y74000
Y70500
X66000
Y74000
X62500Y65000
X48500Y126000
X100500Y182500
X127500Y180950
X152000Y183500
X177500Y184300
X180500Y196500
X168649Y211709
X126500Y95000
T03
X32000Y8591
X34500Y8500
X37000
X19000Y45500
X21000Y47500
T05
X26622Y15449
X49378
T06
X500Y19500
X10500
Y29500
X500
X158500Y34591
X168500
Y44591
Y54591
X158500
Y44591
X178500
Y54591
Y34591
Y64591
X168500
Y74591
X158500
Y64591
X178500Y74591
X168000Y132090
Y142090
Y152091
Y162091
Y172090
Y182090
X143000
Y172090
Y162091
Y152091
Y142090
Y132090
X118000Y132091
Y142091
Y152091
Y162091
Y172091
Y182091
X119500Y199000
X109500
X99500
Y209000
X109500
X119500
X129500
Y199000
X139500
Y209000
X149500
Y199000
X159500
Y209000
X89500
X79500
Y199000
X89500
X69500
Y209000
X53000Y190500
X93000Y182090
Y172090
Y162091
Y152091
Y142090
Y132090
X43000Y190500
X33000
X23000
X4500Y184000
Y174000
Y164000
Y154000
T07
X133000Y4091
X153000
T08
X71492Y4591
X89996
X108500
T09
X0Y0
X177500
X177000Y208000
X0
M30
