G04*
G04 #@! TF.GenerationSoftware,Altium Limited,Altium Designer,21.5.1 (32)*
G04*
G04 Layer_Color=16711935*
%FSLAX25Y25*%
%MOIN*%
G70*
G04*
G04 #@! TF.SameCoordinates,8B6BA037-C385-438B-B8BE-B681DC7B7FEC*
G04*
G04*
G04 #@! TF.FilePolarity,Negative*
G04*
G01*
G75*
%ADD15C,0.00800*%
%ADD80C,0.07293*%
%ADD81R,0.07293X0.07293*%
%ADD82R,0.07293X0.07293*%
%ADD83C,0.10443*%
%ADD84C,0.03159*%
%ADD85O,0.04537X0.06899*%
%ADD86O,0.04537X0.08868*%
%ADD87C,0.06899*%
%ADD88R,0.06899X0.06899*%
%ADD89C,0.00600*%
%ADD90C,0.09655*%
%ADD91R,0.09655X0.09655*%
%ADD113C,0.04537*%
%ADD114C,0.02962*%
G36*
X73133Y178695D02*
X73695Y178133D01*
X74000Y177398D01*
Y177000D01*
Y175500D01*
X70000D01*
Y177000D01*
Y177398D01*
X70305Y178133D01*
X70867Y178695D01*
X71602Y179000D01*
X72398D01*
X73133Y178695D01*
D02*
G37*
G36*
X74000Y172000D02*
Y171602D01*
X73695Y170867D01*
X73133Y170305D01*
X72398Y170000D01*
X71602D01*
X70867Y170305D01*
X70305Y170867D01*
X70000Y171602D01*
Y172000D01*
Y173500D01*
X74000D01*
Y172000D01*
D02*
G37*
G36*
X49633Y77196D02*
X50195Y76633D01*
X50500Y75898D01*
Y75500D01*
Y74000D01*
X46500D01*
Y75500D01*
Y75898D01*
X46804Y76633D01*
X47367Y77196D01*
X48102Y77500D01*
X48898D01*
X49633Y77196D01*
D02*
G37*
G36*
X41633D02*
X42195Y76633D01*
X42500Y75898D01*
Y75500D01*
Y74000D01*
X38500D01*
Y75500D01*
Y75898D01*
X38805Y76633D01*
X39367Y77196D01*
X40102Y77500D01*
X40898D01*
X41633Y77196D01*
D02*
G37*
G36*
X34133D02*
X34696Y76633D01*
X35000Y75898D01*
Y75500D01*
Y74000D01*
X31000D01*
Y75500D01*
Y75898D01*
X31304Y76633D01*
X31867Y77196D01*
X32602Y77500D01*
X33398D01*
X34133Y77196D01*
D02*
G37*
G36*
X24633D02*
X25196Y76633D01*
X25500Y75898D01*
Y75500D01*
Y74000D01*
X21500D01*
Y75500D01*
Y75898D01*
X21804Y76633D01*
X22367Y77196D01*
X23102Y77500D01*
X23898D01*
X24633Y77196D01*
D02*
G37*
G36*
X16633D02*
X17196Y76633D01*
X17500Y75898D01*
Y75500D01*
Y74000D01*
X13500D01*
Y75500D01*
Y75898D01*
X13804Y76633D01*
X14367Y77196D01*
X15102Y77500D01*
X15898D01*
X16633Y77196D01*
D02*
G37*
G36*
X50500Y70500D02*
Y70102D01*
X50195Y69367D01*
X49633Y68805D01*
X48898Y68500D01*
X48102D01*
X47367Y68805D01*
X46804Y69367D01*
X46500Y70102D01*
Y70500D01*
Y72000D01*
X50500D01*
Y70500D01*
D02*
G37*
G36*
X42500D02*
Y70102D01*
X42195Y69367D01*
X41633Y68805D01*
X40898Y68500D01*
X40102D01*
X39367Y68805D01*
X38805Y69367D01*
X38500Y70102D01*
Y70500D01*
Y72000D01*
X42500D01*
Y70500D01*
D02*
G37*
G36*
X35000D02*
Y70102D01*
X34696Y69367D01*
X34133Y68805D01*
X33398Y68500D01*
X32602D01*
X31867Y68805D01*
X31304Y69367D01*
X31000Y70102D01*
Y70500D01*
Y72000D01*
X35000D01*
Y70500D01*
D02*
G37*
G36*
X25500D02*
Y70102D01*
X25196Y69367D01*
X24633Y68805D01*
X23898Y68500D01*
X23102D01*
X22367Y68805D01*
X21804Y69367D01*
X21500Y70102D01*
Y70500D01*
Y72000D01*
X25500D01*
Y70500D01*
D02*
G37*
G36*
X17500D02*
Y70102D01*
X17196Y69367D01*
X16633Y68805D01*
X15898Y68500D01*
X15102D01*
X14367Y68805D01*
X13804Y69367D01*
X13500Y70102D01*
Y70500D01*
Y72000D01*
X17500D01*
Y70500D01*
D02*
G37*
D15*
X74000Y177000D02*
G03*
X70000Y177000I-2000J0D01*
G01*
Y172000D02*
G03*
X74000Y172000I2000J0D01*
G01*
X17500Y75500D02*
G03*
X13500Y75500I-2000J0D01*
G01*
Y70500D02*
G03*
X17500Y70500I2000J0D01*
G01*
X35000Y75500D02*
G03*
X31000Y75500I-2000J0D01*
G01*
Y70500D02*
G03*
X35000Y70500I2000J0D01*
G01*
X46500D02*
G03*
X50500Y70500I2000J0D01*
G01*
Y75500D02*
G03*
X46500Y75500I-2000J0D01*
G01*
X38500Y70500D02*
G03*
X42500Y70500I2000J0D01*
G01*
Y75500D02*
G03*
X38500Y75500I-2000J0D01*
G01*
X25500D02*
G03*
X21500Y75500I-2000J0D01*
G01*
Y70500D02*
G03*
X25500Y70500I2000J0D01*
G01*
X70000Y175500D02*
Y177000D01*
X74000Y175500D02*
Y177000D01*
X70000Y175500D02*
X74000D01*
Y172000D02*
Y173500D01*
X70000Y172000D02*
Y173500D01*
X74000D01*
X13500Y74000D02*
Y75500D01*
X17500Y74000D02*
Y75500D01*
X13500Y74000D02*
X17500D01*
Y70500D02*
Y72000D01*
X13500Y70500D02*
Y72000D01*
X17500D01*
X31000Y74000D02*
Y75500D01*
X35000Y74000D02*
Y75500D01*
X31000Y74000D02*
X35000D01*
Y70500D02*
Y72000D01*
X31000Y70500D02*
Y72000D01*
X35000D01*
X50500Y70500D02*
Y72000D01*
X46500Y70500D02*
Y72000D01*
X50500D01*
X46500Y74000D02*
Y75500D01*
X50500Y74000D02*
Y75500D01*
X46500Y74000D02*
X50500D01*
X42500Y70500D02*
Y72000D01*
X38500Y70500D02*
Y72000D01*
X42500D01*
X38500Y74000D02*
Y75500D01*
X42500Y74000D02*
Y75500D01*
X38500Y74000D02*
X42500D01*
X21500D02*
Y75500D01*
X25500Y74000D02*
Y75500D01*
X21500Y74000D02*
X25500D01*
Y70500D02*
Y72000D01*
X21500Y70500D02*
Y72000D01*
X25500D01*
D80*
X18000Y185500D02*
D03*
X28000D02*
D03*
X38000D02*
D03*
X5500Y14500D02*
D03*
X113000Y167091D02*
D03*
Y157091D02*
D03*
Y147091D02*
D03*
Y137091D02*
D03*
Y177091D02*
D03*
X-500Y149000D02*
D03*
Y159000D02*
D03*
Y169000D02*
D03*
X88000Y177091D02*
D03*
Y137091D02*
D03*
Y147091D02*
D03*
Y157091D02*
D03*
Y167091D02*
D03*
X-4500Y24500D02*
D03*
X163000Y177091D02*
D03*
Y137091D02*
D03*
Y147091D02*
D03*
Y157091D02*
D03*
Y167091D02*
D03*
X138000Y177091D02*
D03*
Y137091D02*
D03*
Y147091D02*
D03*
Y157091D02*
D03*
Y167091D02*
D03*
X163500Y39591D02*
D03*
Y49591D02*
D03*
Y59591D02*
D03*
Y69591D02*
D03*
X153500Y39591D02*
D03*
Y49591D02*
D03*
Y59591D02*
D03*
Y69591D02*
D03*
X173500D02*
D03*
Y59591D02*
D03*
Y49591D02*
D03*
Y39591D02*
D03*
D81*
X48000Y185500D02*
D03*
X113000Y127091D02*
D03*
X88000Y127091D02*
D03*
X163000D02*
D03*
X138000D02*
D03*
D82*
X5500Y24500D02*
D03*
X-500Y179000D02*
D03*
X-4500Y14500D02*
D03*
X163500Y29591D02*
D03*
X153500D02*
D03*
X173500D02*
D03*
D83*
X84996Y-410D02*
D03*
X103500D02*
D03*
X66492D02*
D03*
D84*
X21622Y10449D02*
D03*
X44378D02*
D03*
D85*
X50027Y-3331D02*
D03*
X15972D02*
D03*
D86*
X50027Y12417D02*
D03*
X15972D02*
D03*
D87*
X74500Y194000D02*
D03*
Y204000D02*
D03*
X94500D02*
D03*
Y194000D02*
D03*
X104500D02*
D03*
Y204000D02*
D03*
X114500Y194000D02*
D03*
Y204000D02*
D03*
X124500Y194000D02*
D03*
Y204000D02*
D03*
X134500Y194000D02*
D03*
Y204000D02*
D03*
X144500Y194000D02*
D03*
Y204000D02*
D03*
X154500Y194000D02*
D03*
X84500Y204000D02*
D03*
Y194000D02*
D03*
X64500Y204000D02*
D03*
Y194000D02*
D03*
D88*
X154500Y204000D02*
D03*
D89*
X0Y0D02*
D03*
X167220D02*
D03*
X0Y198091D02*
D03*
X167220D02*
D03*
D90*
X148000Y-909D02*
D03*
D91*
X128000D02*
D03*
D113*
X80963Y10500D02*
D03*
X88500D02*
D03*
X96037D02*
D03*
X73111D02*
D03*
X103574D02*
D03*
D114*
X72000Y177000D02*
D03*
Y172000D02*
D03*
X15500Y75500D02*
D03*
Y70500D02*
D03*
X33000Y75500D02*
D03*
Y70500D02*
D03*
X48500D02*
D03*
Y75500D02*
D03*
X40500Y70500D02*
D03*
Y75500D02*
D03*
X23500D02*
D03*
Y70500D02*
D03*
M02*
