G04*
G04 #@! TF.GenerationSoftware,Altium Limited,Altium Designer,21.5.1 (32)*
G04*
G04 Layer_Color=2752767*
%FSLAX25Y25*%
%MOIN*%
G70*
G04*
G04 #@! TF.SameCoordinates,AA86CA81-E6CA-44F9-A40B-82B15E84DFEA*
G04*
G04*
G04 #@! TF.FilePolarity,Positive*
G04*
G01*
G75*
%ADD10C,0.00000*%
%ADD11C,0.00236*%
%ADD12C,0.00394*%
%ADD13C,0.00591*%
%ADD14C,0.00200*%
%ADD15C,0.00100*%
%ADD16C,0.00197*%
%ADD17C,0.00158*%
%ADD18C,0.00267*%
%ADD19C,0.00133*%
G36*
X4083Y127291D02*
Y127191D01*
X4007Y127007D01*
X3866Y126867D01*
X3682Y126791D01*
X3083D01*
Y127791D01*
X4083D01*
Y127291D01*
D02*
G37*
G36*
Y121791D02*
Y121691D01*
X4007Y121507D01*
X3866Y121367D01*
X3682Y121291D01*
X3083D01*
Y122291D01*
X4083D01*
Y121791D01*
D02*
G37*
G36*
Y116291D02*
Y116191D01*
X4007Y116007D01*
X3866Y115867D01*
X3682Y115791D01*
X3083D01*
Y116791D01*
X4083D01*
Y116291D01*
D02*
G37*
G36*
X11768Y96701D02*
X-4767D01*
Y109299D01*
X11768D01*
Y96701D01*
D02*
G37*
G36*
Y80791D02*
X-4767D01*
Y93390D01*
X11768D01*
Y80791D01*
D02*
G37*
G36*
Y64792D02*
X-4767D01*
Y77390D01*
X11768D01*
Y64792D01*
D02*
G37*
D10*
X-3850Y40331D02*
X15850D01*
X-3850D02*
Y60031D01*
X15850D01*
Y40331D02*
Y60031D01*
X-505D02*
X695D01*
X-505D02*
X695D01*
X1463D02*
X2663D01*
X1463D02*
X2663D01*
X3432D02*
X4632D01*
X3432D02*
X4632D01*
X5400D02*
X6600D01*
X5400D02*
X6600D01*
X7369D02*
X8569D01*
X7369D02*
X8569D01*
X9337D02*
X10537D01*
X9337D02*
X10537D01*
X11306D02*
X12506D01*
X11306D02*
X12506D01*
X15850Y55487D02*
Y56687D01*
Y55487D02*
Y56687D01*
Y53518D02*
Y54718D01*
Y53518D02*
Y54718D01*
Y51550D02*
Y52750D01*
Y51550D02*
Y52750D01*
Y49581D02*
Y50781D01*
Y49581D02*
Y50781D01*
Y47613D02*
Y48813D01*
Y47613D02*
Y48813D01*
Y45644D02*
Y46844D01*
Y45644D02*
Y46844D01*
Y43676D02*
Y44876D01*
Y43676D02*
Y44876D01*
X11306Y40331D02*
X12506D01*
X11306D02*
X12506D01*
X9337D02*
X10537D01*
X9337D02*
X10537D01*
X7369D02*
X8569D01*
X7369D02*
X8569D01*
X5400D02*
X6600D01*
X5400D02*
X6600D01*
X3432D02*
X4632D01*
X3432D02*
X4632D01*
X1463D02*
X2663D01*
X1463D02*
X2663D01*
X-505D02*
X695D01*
X-505D02*
X695D01*
X-3850Y43676D02*
Y44876D01*
Y43676D02*
Y44876D01*
Y45644D02*
Y46844D01*
Y45644D02*
Y46844D01*
Y47613D02*
Y48813D01*
Y47613D02*
Y48813D01*
Y49581D02*
Y50781D01*
Y49581D02*
Y50781D01*
Y51550D02*
Y52750D01*
Y51550D02*
Y52750D01*
Y53518D02*
Y54718D01*
Y53518D02*
Y54718D01*
Y55487D02*
Y56687D01*
Y55487D02*
Y56687D01*
D11*
X-4650Y64791D02*
G03*
X-4650Y64791I-118J0D01*
G01*
Y80791D02*
G03*
X-4650Y80791I-118J0D01*
G01*
Y96701D02*
G03*
X-4650Y96701I-118J0D01*
G01*
D12*
X41799Y55701D02*
G03*
X41799Y55701I-1969J0D01*
G01*
X25827Y132358D02*
G03*
X25827Y132358I-1969J0D01*
G01*
X108596Y41351D02*
G03*
X108596Y41351I-1000J0D01*
G01*
X43374Y52157D02*
Y71842D01*
X27626Y52157D02*
Y71842D01*
Y52157D02*
X43374D01*
X27626Y71842D02*
X43374D01*
X59685Y128815D02*
Y168185D01*
X20315Y128815D02*
Y168185D01*
X59685D01*
X20315Y128815D02*
X59685D01*
X117406Y39352D02*
Y45651D01*
X105595Y39352D02*
Y45651D01*
X117406D01*
X105595Y39352D02*
X117406D01*
X54311Y41807D02*
X80689D01*
X54311Y56374D02*
X80689D01*
X54311Y41807D02*
Y56374D01*
X80689Y41807D02*
Y56374D01*
X34484Y39244D02*
Y44756D01*
X22516Y39244D02*
Y44756D01*
X34484D01*
X22516Y39244D02*
X34484D01*
X38016Y39110D02*
X49984D01*
X38016Y44622D02*
X49984D01*
X38016Y39110D02*
Y44622D01*
X49984Y39110D02*
Y44622D01*
X52035Y49500D02*
Y73024D01*
X18965Y49500D02*
Y73024D01*
Y49500D02*
X52035D01*
X18965Y73024D02*
X52035D01*
X33531Y62000D02*
X37468D01*
X35500Y60031D02*
Y63968D01*
X38031Y148500D02*
X41969D01*
X40000Y146532D02*
Y150469D01*
X72933Y112929D02*
X111933D01*
Y78929D02*
Y112929D01*
X72933Y78929D02*
X111933D01*
X72933D02*
Y112929D01*
X118001Y34626D02*
Y50374D01*
X105001Y34626D02*
Y50374D01*
X118001D01*
X105001Y34626D02*
X118001D01*
X53917Y33343D02*
X81083D01*
X53917Y64839D02*
X81083D01*
X53917Y33343D02*
Y64839D01*
X81083Y33343D02*
Y64839D01*
X67500Y47122D02*
Y51059D01*
X65531Y49091D02*
X69469D01*
X26531Y42000D02*
X30468D01*
X28500Y40031D02*
Y43968D01*
X44000Y39898D02*
Y43835D01*
X42031Y41866D02*
X45969D01*
X33795Y74976D02*
X57024D01*
X33795Y98205D02*
X57024D01*
X33795Y74976D02*
Y98205D01*
X57024Y74976D02*
Y98205D01*
X45409Y84622D02*
Y88559D01*
X43441Y86591D02*
X47378D01*
X127500Y79000D02*
Y113000D01*
Y79000D02*
X166500D01*
Y113000D01*
X127500D02*
X166500D01*
D13*
X87483Y108429D02*
G03*
X87483Y108429I-2550J0D01*
G01*
X142050Y108500D02*
G03*
X142050Y108500I-2550J0D01*
G01*
X81213Y79591D02*
X103654D01*
Y112268D01*
X81213D02*
X103654D01*
X81213Y79591D02*
Y112268D01*
X135780Y79661D02*
Y112339D01*
X158220D01*
Y79661D02*
Y112339D01*
X135780Y79661D02*
X158220D01*
D14*
X4614Y125106D02*
Y127075D01*
X8551Y125106D02*
Y127075D01*
X4614D02*
X8551D01*
X4614Y125106D02*
X8551D01*
X6583Y125491D02*
Y126691D01*
X5983Y126091D02*
X7183D01*
X4614Y119606D02*
Y121575D01*
X8551Y119606D02*
Y121575D01*
X4614D02*
X8551D01*
X4614Y119606D02*
X8551D01*
X6583Y119991D02*
Y121191D01*
X5983Y120591D02*
X7183D01*
X4614Y114106D02*
Y116075D01*
X8551Y114106D02*
Y116075D01*
X4614D02*
X8551D01*
X4614Y114106D02*
X8551D01*
X6583Y114491D02*
Y115691D01*
X5983Y115091D02*
X7183D01*
X3083Y127791D02*
X10083D01*
Y124391D02*
Y127791D01*
X3083Y124391D02*
Y127791D01*
Y124391D02*
X10083D01*
X3083Y122291D02*
X10083D01*
Y118891D02*
Y122291D01*
X3083Y118891D02*
Y122291D01*
Y118891D02*
X10083D01*
X3083Y116791D02*
X10083D01*
Y113391D02*
Y116791D01*
X3083Y113391D02*
Y116791D01*
Y113391D02*
X10083D01*
X84500Y23591D02*
X85000D01*
X84000D02*
X84500D01*
Y23091D02*
Y24091D01*
X17200Y184700D02*
Y186300D01*
X18800D01*
Y184700D01*
X17200D01*
X27200D02*
Y186300D01*
X28800D01*
Y184700D01*
X27200D01*
X37200D02*
Y186300D01*
X38800D01*
Y184700D01*
X37200D01*
X47200D02*
Y186300D01*
X48800D01*
Y184700D01*
X47200D01*
X4700Y13700D02*
Y15300D01*
X6300D01*
Y13700D01*
X4700D01*
Y23700D02*
Y25300D01*
X6300D01*
Y23700D01*
X4700D01*
X112200Y166291D02*
Y167891D01*
X113800D01*
Y166291D01*
X112200D01*
Y156291D02*
Y157891D01*
X113800D01*
Y156291D01*
X112200D01*
Y146291D02*
Y147891D01*
X113800D01*
Y146291D01*
X112200D01*
Y136291D02*
Y137891D01*
X113800D01*
Y136291D01*
X112200D01*
Y126291D02*
Y127891D01*
X113800D01*
Y126291D01*
X112200D01*
Y176291D02*
Y177891D01*
X113800D01*
Y176291D01*
X112200D01*
X-1300Y148200D02*
Y149800D01*
X300D01*
Y148200D01*
X-1300D01*
Y158200D02*
Y159800D01*
X300D01*
Y158200D01*
X-1300D01*
Y168200D02*
Y169800D01*
X300D01*
Y168200D01*
X-1300D01*
Y178200D02*
Y179800D01*
X300D01*
Y178200D01*
X-1300D01*
X87200Y176291D02*
Y177891D01*
X88800D01*
Y176291D01*
X87200D01*
Y126291D02*
Y127891D01*
X88800D01*
Y126291D01*
X87200D01*
Y136291D02*
Y137891D01*
X88800D01*
Y136291D01*
X87200D01*
Y146291D02*
Y147891D01*
X88800D01*
Y146291D01*
X87200D01*
Y156291D02*
Y157891D01*
X88800D01*
Y156291D01*
X87200D01*
Y166291D02*
Y167891D01*
X88800D01*
Y166291D01*
X87200D01*
X21622Y9649D02*
X20822Y11249D01*
X22422D01*
X21622Y9649D01*
X44378D02*
X43578Y11249D01*
X45178D01*
X44378Y9649D01*
X50027Y-4131D02*
X50427Y-3731D01*
X50827D01*
X50427Y-3331D01*
X50827Y-2931D01*
X50427D01*
X50027Y-2531D01*
X49627Y-2931D01*
X49227D01*
X49627Y-3331D01*
X49227Y-3731D01*
X49627D01*
X50027Y-4131D01*
X15972D02*
X16372Y-3731D01*
X16772D01*
X16372Y-3331D01*
X16772Y-2931D01*
X16372D01*
X15972Y-2531D01*
X15572Y-2931D01*
X15172D01*
X15572Y-3331D01*
X15172Y-3731D01*
X15572D01*
X15972Y-4131D01*
X49227Y11617D02*
X49627Y12417D01*
X49227Y13217D01*
X50027Y12817D01*
X50827Y13217D01*
X50427Y12417D01*
X50827Y11617D01*
X50027Y12017D01*
X49227Y11617D01*
X15172D02*
X15572Y12417D01*
X15172Y13217D01*
X15972Y12817D01*
X16772Y13217D01*
X16372Y12417D01*
X16772Y11617D01*
X15972Y12017D01*
X15172Y11617D01*
X-5300Y13700D02*
Y15300D01*
X-3700D01*
Y13700D01*
X-5300D01*
Y23700D02*
Y25300D01*
X-3700D01*
Y23700D01*
X-5300D01*
X162200Y176291D02*
Y177891D01*
X163800D01*
Y176291D01*
X162200D01*
Y126291D02*
Y127891D01*
X163800D01*
Y126291D01*
X162200D01*
Y136291D02*
Y137891D01*
X163800D01*
Y136291D01*
X162200D01*
Y146291D02*
Y147891D01*
X163800D01*
Y146291D01*
X162200D01*
Y156291D02*
Y157891D01*
X163800D01*
Y156291D01*
X162200D01*
Y166291D02*
Y167891D01*
X163800D01*
Y166291D01*
X162200D01*
X137200Y176291D02*
Y177891D01*
X138800D01*
Y176291D01*
X137200D01*
Y126291D02*
Y127891D01*
X138800D01*
Y126291D01*
X137200D01*
Y136291D02*
Y137891D01*
X138800D01*
Y136291D01*
X137200D01*
Y146291D02*
Y147891D01*
X138800D01*
Y146291D01*
X137200D01*
Y156291D02*
Y157891D01*
X138800D01*
Y156291D01*
X137200D01*
Y166291D02*
Y167891D01*
X138800D01*
Y166291D01*
X137200D01*
X73700Y193200D02*
Y194800D01*
X75300D01*
Y193200D01*
X73700D01*
Y203200D02*
Y204800D01*
X75300D01*
Y203200D01*
X73700D01*
X93700D02*
Y204800D01*
X95300D01*
Y203200D01*
X93700D01*
Y193200D02*
Y194800D01*
X95300D01*
Y193200D01*
X93700D01*
X103700D02*
Y194800D01*
X105300D01*
Y193200D01*
X103700D01*
Y203200D02*
Y204800D01*
X105300D01*
Y203200D01*
X103700D01*
X113700Y193200D02*
Y194800D01*
X115300D01*
Y193200D01*
X113700D01*
Y203200D02*
Y204800D01*
X115300D01*
Y203200D01*
X113700D01*
X123700Y193200D02*
Y194800D01*
X125300D01*
Y193200D01*
X123700D01*
Y203200D02*
Y204800D01*
X125300D01*
Y203200D01*
X123700D01*
X133700Y193200D02*
Y194800D01*
X135300D01*
Y193200D01*
X133700D01*
Y203200D02*
Y204800D01*
X135300D01*
Y203200D01*
X133700D01*
X143700Y193200D02*
Y194800D01*
X145300D01*
Y193200D01*
X143700D01*
Y203200D02*
Y204800D01*
X145300D01*
Y203200D01*
X143700D01*
X153700Y193200D02*
Y194800D01*
X155300D01*
Y193200D01*
X153700D01*
Y203200D02*
Y204800D01*
X155300D01*
Y203200D01*
X153700D01*
X83700D02*
Y204800D01*
X85300D01*
Y203200D01*
X83700D01*
Y193200D02*
Y194800D01*
X85300D01*
Y193200D01*
X83700D01*
X63700Y203200D02*
Y204800D01*
X65300D01*
Y203200D01*
X63700D01*
Y193200D02*
Y194800D01*
X65300D01*
Y193200D01*
X63700D01*
X162700Y28791D02*
Y30391D01*
X164300D01*
Y28791D01*
X162700D01*
Y38791D02*
Y40391D01*
X164300D01*
Y38791D01*
X162700D01*
Y48791D02*
Y50391D01*
X164300D01*
Y48791D01*
X162700D01*
Y58791D02*
Y60391D01*
X164300D01*
Y58791D01*
X162700D01*
Y68791D02*
Y70391D01*
X164300D01*
Y68791D01*
X162700D01*
X152700Y28791D02*
Y30391D01*
X154300D01*
Y28791D01*
X152700D01*
Y38791D02*
Y40391D01*
X154300D01*
Y38791D01*
X152700D01*
Y48791D02*
Y50391D01*
X154300D01*
Y48791D01*
X152700D01*
Y58791D02*
Y60391D01*
X154300D01*
Y58791D01*
X152700D01*
Y68791D02*
Y70391D01*
X154300D01*
Y68791D01*
X152700D01*
X-400Y-400D02*
Y-800D01*
X400D01*
Y-400D01*
X800D01*
Y400D01*
X400D01*
Y800D01*
X-400D01*
Y400D01*
X-800D01*
Y-400D01*
X-400D01*
X147200Y-1709D02*
X147600D01*
X148000Y-1309D01*
X148400Y-1709D01*
X148800D01*
Y-1309D01*
X148400Y-909D01*
X148800Y-509D01*
Y-109D01*
X148400D01*
X148000Y-509D01*
X147600Y-109D01*
X147200D01*
Y-509D01*
X147600Y-909D01*
X147200Y-1309D01*
Y-1709D01*
X127200D02*
X127600D01*
X128000Y-1309D01*
X128400Y-1709D01*
X128800D01*
Y-1309D01*
X128400Y-909D01*
X128800Y-509D01*
Y-109D01*
X128400D01*
X128000Y-509D01*
X127600Y-109D01*
X127200D01*
Y-509D01*
X127600Y-909D01*
X127200Y-1309D01*
Y-1709D01*
X166820Y-400D02*
Y-800D01*
X167620D01*
Y-400D01*
X168020D01*
Y400D01*
X167620D01*
Y800D01*
X166820D01*
Y400D01*
X166420D01*
Y-400D01*
X166820D01*
X172700Y68791D02*
Y70391D01*
X174300D01*
Y68791D01*
X172700D01*
Y58791D02*
Y60391D01*
X174300D01*
Y58791D01*
X172700D01*
Y48791D02*
Y50391D01*
X174300D01*
Y48791D01*
X172700D01*
Y38791D02*
Y40391D01*
X174300D01*
Y38791D01*
X172700D01*
Y28791D02*
Y30391D01*
X174300D01*
Y28791D01*
X172700D01*
X-400Y197691D02*
Y197291D01*
X400D01*
Y197691D01*
X800D01*
Y198491D01*
X400D01*
Y198891D01*
X-400D01*
Y198491D01*
X-800D01*
Y197691D01*
X-400D01*
X166820D02*
Y197291D01*
X167620D01*
Y197691D01*
X168020D01*
Y198491D01*
X167620D01*
Y198891D01*
X166820D01*
Y198491D01*
X166420D01*
Y197691D01*
X166820D01*
X-8300Y142000D02*
X-7500Y142800D01*
X-6700Y142000D01*
X-7500Y141200D01*
X-8300Y142000D01*
X-7800Y123000D02*
X-7000Y123800D01*
X-6200Y123000D01*
X-7000Y122200D01*
X-7800Y123000D01*
X7200Y137075D02*
X8000Y137875D01*
X8800Y137075D01*
X8000Y136275D01*
X7200Y137075D01*
X6941Y133591D02*
X7741Y134391D01*
X8541Y133591D01*
X7741Y132791D01*
X6941Y133591D01*
X14700Y24500D02*
X15500Y25300D01*
X16300Y24500D01*
X15500Y23700D01*
X14700Y24500D01*
X77700Y169000D02*
X78500Y169800D01*
X79300Y169000D01*
X78500Y168200D01*
X77700Y169000D01*
Y171500D02*
X78500Y172300D01*
X79300Y171500D01*
X78500Y170700D01*
X77700Y171500D01*
X66000Y169246D02*
X66800Y170045D01*
X67600Y169246D01*
X66800Y168446D01*
X66000Y169246D01*
X75700Y176100D02*
X76500Y176900D01*
X77300Y176100D01*
X76500Y175300D01*
X75700Y176100D01*
X76600Y174000D02*
X77400Y174800D01*
X78200Y174000D01*
X77400Y173200D01*
X76600Y174000D01*
X67707Y184743D02*
X68507Y185543D01*
X69307Y184743D01*
X68507Y183943D01*
X67707Y184743D01*
X66681Y177964D02*
X67481Y178764D01*
X68281Y177964D01*
X67481Y177164D01*
X66681Y177964D01*
X63750Y187150D02*
X64550Y187950D01*
X65350Y187150D01*
X64550Y186350D01*
X63750Y187150D01*
X59029Y196998D02*
X59829Y197798D01*
X60629Y196998D01*
X59829Y196198D01*
X59029Y196998D01*
X13200Y39700D02*
Y41300D01*
X14800D01*
Y39700D01*
X13200D01*
X13600Y40100D02*
Y40900D01*
X14400D01*
Y40100D01*
X13600D01*
X15200Y41700D02*
Y43300D01*
X16800D01*
Y41700D01*
X15200D01*
X15600Y42100D02*
Y42900D01*
X16400D01*
Y42100D01*
X15600D01*
X9200Y139500D02*
X10000Y140300D01*
X10800Y139500D01*
X10000Y138700D01*
X9200Y139500D01*
X64727Y161073D02*
X65527Y161873D01*
X66327Y161073D01*
X65527Y160273D01*
X64727Y161073D01*
X21216Y109500D02*
X22016Y110300D01*
X22816Y109500D01*
X22016Y108700D01*
X21216Y109500D01*
X22200Y131000D02*
X23000Y131800D01*
X23800Y131000D01*
X23000Y130200D01*
X22200Y131000D01*
X20250Y130000D02*
X21050Y130800D01*
X21850Y130000D01*
X21050Y129200D01*
X20250Y130000D01*
X13442Y121242D02*
X14242Y122042D01*
X15042Y121242D01*
X14242Y120442D01*
X13442Y121242D01*
X-6800Y166500D02*
X-6000Y167300D01*
X-5200Y166500D01*
X-6000Y165700D01*
X-6800Y166500D01*
X-5423Y173146D02*
X-4623Y173946D01*
X-3822Y173146D01*
X-4623Y172346D01*
X-5423Y173146D01*
X-3330Y153180D02*
X-2530Y153980D01*
X-1730Y153180D01*
X-2530Y152380D01*
X-3330Y153180D01*
X1247Y155113D02*
X2046Y155913D01*
X2847Y155113D01*
X2046Y154314D01*
X1247Y155113D01*
X49173Y191347D02*
X49973Y192147D01*
X50773Y191347D01*
X49973Y190547D01*
X49173Y191347D01*
X65051Y176627D02*
X65851Y177427D01*
X66651Y176627D01*
X65851Y175827D01*
X65051Y176627D01*
X68189Y157783D02*
X68989Y158583D01*
X69789Y157783D01*
X68989Y156983D01*
X68189Y157783D01*
X70086Y159096D02*
X70886Y159896D01*
X71686Y159096D01*
X70886Y158296D01*
X70086Y159096D01*
X80154Y130380D02*
X80954Y131180D01*
X81753Y130380D01*
X80954Y129580D01*
X80154Y130380D01*
X81169Y132986D02*
X81969Y133786D01*
X82770Y132986D01*
X81969Y132186D01*
X81169Y132986D01*
X56470Y117530D02*
X57270Y118330D01*
X58069Y117530D01*
X57270Y116730D01*
X56470Y117530D01*
X58400Y116703D02*
X59200Y117503D01*
X60000Y116703D01*
X59200Y115903D01*
X58400Y116703D01*
X5715Y175515D02*
X6515Y176315D01*
X7315Y175515D01*
X6515Y174715D01*
X5715Y175515D01*
X3673Y176006D02*
X4473Y176806D01*
X5273Y176006D01*
X4473Y175206D01*
X3673Y176006D01*
X7700Y176200D02*
X8500Y177000D01*
X9300Y176200D01*
X8500Y175400D01*
X7700Y176200D01*
X29200Y197550D02*
X30000Y198350D01*
X30800Y197550D01*
X30000Y196750D01*
X29200Y197550D01*
X39550Y196350D02*
X40350Y197150D01*
X41150Y196350D01*
X40350Y195550D01*
X39550Y196350D01*
X43200D02*
X44000Y197150D01*
X44800Y196350D01*
X44000Y195550D01*
X43200Y196350D01*
X72700Y163672D02*
X73500Y164472D01*
X74300Y163672D01*
X73500Y162872D01*
X72700Y163672D01*
X60778Y165154D02*
X61578Y165954D01*
X62378Y165154D01*
X61578Y164354D01*
X60778Y165154D01*
X124379Y179513D02*
X125179Y180313D01*
X125979Y179513D01*
X125179Y178713D01*
X124379Y179513D01*
X126495Y179629D02*
X127295Y180429D01*
X128095Y179629D01*
X127295Y178829D01*
X126495Y179629D01*
X-8500Y103000D02*
X-7700Y103800D01*
X-6900Y103000D01*
X-7700Y102200D01*
X-8500Y103000D01*
X-7300Y50500D02*
X-6500Y51300D01*
X-5700Y50500D01*
X-6500Y49700D01*
X-7300Y50500D01*
X-7088Y104554D02*
X-6288Y105354D01*
X-5488Y104554D01*
X-6288Y103754D01*
X-7088Y104554D01*
X-7300Y48213D02*
X-6500Y49013D01*
X-5700Y48213D01*
X-6500Y47413D01*
X-7300Y48213D01*
X-8300Y111000D02*
X-7500Y111800D01*
X-6700Y111000D01*
X-7500Y110200D01*
X-8300Y111000D01*
X-7249Y44500D02*
X-6449Y45300D01*
X-5649Y44500D01*
X-6449Y43700D01*
X-7249Y44500D01*
X6623Y145690D02*
X7423Y146490D01*
X8223Y145690D01*
X7423Y144890D01*
X6623Y145690D01*
X6902Y147797D02*
X7702Y148597D01*
X8502Y147797D01*
X7702Y146997D01*
X6902Y147797D01*
X10700Y145000D02*
X11500Y145800D01*
X12300Y145000D01*
X11500Y144200D01*
X10700Y145000D01*
X8046Y149591D02*
X8846Y150391D01*
X9646Y149591D01*
X8846Y148791D01*
X8046Y149591D01*
X17538Y115276D02*
X18338Y116076D01*
X19138Y115276D01*
X18338Y114476D01*
X17538Y115276D01*
X15850Y117606D02*
X16650Y118406D01*
X17450Y117606D01*
X16650Y116806D01*
X15850Y117606D01*
X14200Y119000D02*
X15000Y119800D01*
X15800Y119000D01*
X15000Y118200D01*
X14200Y119000D01*
X3200Y183500D02*
X4000Y184300D01*
X4800Y183500D01*
X4000Y182700D01*
X3200Y183500D01*
X-6800Y97500D02*
X-6000Y98300D01*
X-5200Y97500D01*
X-6000Y96700D01*
X-6800Y97500D01*
X-4491Y70966D02*
X-3691Y71766D01*
X-2891Y70966D01*
X-3691Y70166D01*
X-4491Y70966D01*
X-4800Y80000D02*
X-4000Y80800D01*
X-3200Y80000D01*
X-4000Y79200D01*
X-4800Y80000D01*
X-5800Y86000D02*
X-5000Y86800D01*
X-4200Y86000D01*
X-5000Y85200D01*
X-5800Y86000D01*
X11700Y95000D02*
X12500Y95800D01*
X13300Y95000D01*
X12500Y94200D01*
X11700Y95000D01*
X93700Y129306D02*
X94500Y130106D01*
X95300Y129306D01*
X94500Y128507D01*
X93700Y129306D01*
X112700Y116500D02*
X113500Y117300D01*
X114300Y116500D01*
X113500Y115700D01*
X112700Y116500D01*
X104406Y119675D02*
X105206Y120475D01*
X106006Y119675D01*
X105206Y118875D01*
X104406Y119675D01*
X51030Y161900D02*
X51830Y162700D01*
X52630Y161900D01*
X51830Y161100D01*
X51030Y161900D01*
X93700Y131406D02*
X94500Y132206D01*
X95300Y131406D01*
X94500Y130606D01*
X93700Y131406D01*
X115200Y116000D02*
X116000Y116800D01*
X116800Y116000D01*
X116000Y115200D01*
X115200Y116000D01*
X105891Y121160D02*
X106691Y121960D01*
X107491Y121160D01*
X106691Y120360D01*
X105891Y121160D01*
X51200Y164000D02*
X52000Y164800D01*
X52800Y164000D01*
X52000Y163200D01*
X51200Y164000D01*
X115001Y113896D02*
X115801Y114696D01*
X116601Y113896D01*
X115801Y113096D01*
X115001Y113896D01*
X109096Y117306D02*
X109896Y118106D01*
X110696Y117306D01*
X109896Y116507D01*
X109096Y117306D01*
X106859Y117159D02*
X107659Y117959D01*
X108459Y117159D01*
X107659Y116359D01*
X106859Y117159D01*
X103700Y117650D02*
X104500Y118450D01*
X105300Y117650D01*
X104500Y116850D01*
X103700Y117650D01*
X106395Y134000D02*
X107195Y134800D01*
X107995Y134000D01*
X107195Y133200D01*
X106395Y134000D01*
X100175Y101758D02*
X100975Y102558D01*
X101775Y101758D01*
X100975Y100958D01*
X100175Y101758D01*
X100268Y103856D02*
X101068Y104656D01*
X101868Y103856D01*
X101068Y103056D01*
X100268Y103856D01*
X100113Y105950D02*
X100913Y106750D01*
X101713Y105950D01*
X100913Y105150D01*
X100113Y105950D01*
X53756Y123001D02*
X54556Y123801D01*
X55356Y123001D01*
X54556Y122201D01*
X53756Y123001D01*
X55365Y121651D02*
X56165Y122451D01*
X56965Y121651D01*
X56165Y120852D01*
X55365Y121651D01*
X72700Y153200D02*
X73500Y154000D01*
X74300Y153200D01*
X73500Y152400D01*
X72700Y153200D01*
X56468Y160337D02*
X57268Y161137D01*
X58068Y160337D01*
X57268Y159537D01*
X56468Y160337D01*
X54700Y154591D02*
X55500Y155391D01*
X56300Y154591D01*
X55500Y153791D01*
X54700Y154591D01*
X44370Y161760D02*
X45170Y162560D01*
X45970Y161760D01*
X45170Y160960D01*
X44370Y161760D01*
X48237Y159991D02*
X49037Y160791D01*
X49837Y159991D01*
X49037Y159191D01*
X48237Y159991D01*
X46050Y160500D02*
X46850Y161300D01*
X47650Y160500D01*
X46850Y159700D01*
X46050Y160500D01*
X43650Y164091D02*
X44450Y164891D01*
X45250Y164091D01*
X44450Y163291D01*
X43650Y164091D01*
X52100Y160000D02*
X52900Y160800D01*
X53700Y160000D01*
X52900Y159200D01*
X52100Y160000D01*
X50200Y158500D02*
X51000Y159300D01*
X51800Y158500D01*
X51000Y157700D01*
X50200Y158500D01*
X51200Y155091D02*
X52000Y155891D01*
X52800Y155091D01*
X52000Y154291D01*
X51200Y155091D01*
X54317Y159883D02*
X55117Y160683D01*
X55917Y159883D01*
X55117Y159083D01*
X54317Y159883D01*
X50700Y178794D02*
X51500Y179594D01*
X52300Y178794D01*
X51500Y177994D01*
X50700Y178794D01*
X48200Y179000D02*
X49000Y179800D01*
X49800Y179000D01*
X49000Y178200D01*
X48200Y179000D01*
X76200Y185950D02*
X77000Y186750D01*
X77800Y185950D01*
X77000Y185150D01*
X76200Y185950D01*
X72700Y184750D02*
X73500Y185550D01*
X74300Y184750D01*
X73500Y183950D01*
X72700Y184750D01*
X68200Y202000D02*
X69000Y202800D01*
X69800Y202000D01*
X69000Y201200D01*
X68200Y202000D01*
X50067Y198650D02*
X50867Y199450D01*
X51666Y198650D01*
X50867Y197850D01*
X50067Y198650D01*
X51599Y200166D02*
X52399Y200966D01*
X53199Y200166D01*
X52399Y199366D01*
X51599Y200166D01*
X48200Y197000D02*
X49000Y197800D01*
X49800Y197000D01*
X49000Y196200D01*
X48200Y197000D01*
X12249Y161998D02*
X13049Y162798D01*
X13849Y161998D01*
X13049Y161198D01*
X12249Y161998D01*
X10700Y184000D02*
X11500Y184800D01*
X12300Y184000D01*
X11500Y183200D01*
X10700Y184000D01*
X11511Y159811D02*
X12311Y160611D01*
X13111Y159811D01*
X12311Y159011D01*
X11511Y159811D01*
X29700Y151291D02*
X30500Y152091D01*
X31300Y151291D01*
X30500Y150491D01*
X29700Y151291D01*
X117200Y208000D02*
X118000Y208800D01*
X118800Y208000D01*
X118000Y207200D01*
X117200Y208000D01*
X70600Y147500D02*
X71400Y148300D01*
X72200Y147500D01*
X71400Y146700D01*
X70600Y147500D01*
X72700D02*
X73500Y148300D01*
X74300Y147500D01*
X73500Y146700D01*
X72700Y147500D01*
X68300D02*
X69100Y148300D01*
X69900Y147500D01*
X69100Y146700D01*
X68300Y147500D01*
X45300Y176394D02*
X46100Y177194D01*
X46900Y176394D01*
X46100Y175594D01*
X45300Y176394D01*
X66200Y147500D02*
X67000Y148300D01*
X67800Y147500D01*
X67000Y146700D01*
X66200Y147500D01*
X41780Y177580D02*
X42580Y178380D01*
X43380Y177580D01*
X42580Y176780D01*
X41780Y177580D01*
X76200Y179500D02*
X77000Y180300D01*
X77800Y179500D01*
X77000Y178700D01*
X76200Y179500D01*
X35200Y176000D02*
X36000Y176800D01*
X36800Y176000D01*
X36000Y175200D01*
X35200Y176000D01*
X29700D02*
X30500Y176800D01*
X31300Y176000D01*
X30500Y175200D01*
X29700Y176000D01*
X9700Y153091D02*
X10500Y153891D01*
X11300Y153091D01*
X10500Y152291D01*
X9700Y153091D01*
X30408Y119500D02*
X31207Y120300D01*
X32008Y119500D01*
X31207Y118700D01*
X30408Y119500D01*
X28308D02*
X29107Y120300D01*
X29908Y119500D01*
X29107Y118700D01*
X28308Y119500D01*
X7700Y123500D02*
X8500Y124300D01*
X9300Y123500D01*
X8500Y122700D01*
X7700Y123500D01*
X26155Y117045D02*
X26955Y117845D01*
X27755Y117045D01*
X26955Y116245D01*
X26155Y117045D01*
X-250Y94000D02*
X550Y94800D01*
X1350Y94000D01*
X550Y93200D01*
X-250Y94000D01*
X1850D02*
X2650Y94800D01*
X3450Y94000D01*
X2650Y93200D01*
X1850Y94000D01*
X19700Y87000D02*
X20500Y87800D01*
X21300Y87000D01*
X20500Y86200D01*
X19700Y87000D01*
X18200Y107000D02*
X19000Y107800D01*
X19800Y107000D01*
X19000Y106200D01*
X18200Y107000D01*
X23200Y83000D02*
X24000Y83800D01*
X24800Y83000D01*
X24000Y82200D01*
X23200Y83000D01*
X28700Y68011D02*
X29500Y68811D01*
X30300Y68011D01*
X29500Y67211D01*
X28700Y68011D01*
X5050Y96500D02*
X5850Y97300D01*
X6650Y96500D01*
X5850Y95700D01*
X5050Y96500D01*
X17700Y67000D02*
X18500Y67800D01*
X19300Y67000D01*
X18500Y66200D01*
X17700Y67000D01*
X33200Y87500D02*
X34000Y88300D01*
X34800Y87500D01*
X34000Y86700D01*
X33200Y87500D01*
X32700Y133091D02*
X33500Y133891D01*
X34300Y133091D01*
X33500Y132291D01*
X32700Y133091D01*
X29200Y133591D02*
X30000Y134391D01*
X30800Y133591D01*
X30000Y132791D01*
X29200Y133591D01*
X34700Y81591D02*
X35500Y82391D01*
X36300Y81591D01*
X35500Y80791D01*
X34700Y81591D01*
X6700Y73500D02*
X7500Y74300D01*
X8300Y73500D01*
X7500Y72700D01*
X6700Y73500D01*
X-2368Y101068D02*
X-1568Y101868D01*
X-768Y101068D01*
X-1568Y100268D01*
X-2368Y101068D01*
X8200Y101350D02*
X9000Y102150D01*
X9800Y101350D01*
X9000Y100550D01*
X8200Y101350D01*
X36800Y54500D02*
X37600Y55300D01*
X38400Y54500D01*
X37600Y53700D01*
X36800Y54500D01*
X16516Y20684D02*
X17316Y21484D01*
X18116Y20684D01*
X17316Y19884D01*
X16516Y20684D01*
X34463Y54303D02*
X35263Y55102D01*
X36063Y54303D01*
X35263Y53503D01*
X34463Y54303D01*
X15031Y22169D02*
X15831Y22969D01*
X16631Y22169D01*
X15831Y21369D01*
X15031Y22169D01*
X33200Y20500D02*
X34000Y21300D01*
X34800Y20500D01*
X34000Y19700D01*
X33200Y20500D01*
X29210Y20224D02*
X30010Y21024D01*
X30810Y20224D01*
X30010Y19424D01*
X29210Y20224D01*
X35200Y34500D02*
X36000Y35300D01*
X36800Y34500D01*
X36000Y33700D01*
X35200Y34500D01*
X20700Y41000D02*
X21500Y41800D01*
X22300Y41000D01*
X21500Y40200D01*
X20700Y41000D01*
X8019Y47362D02*
X8819Y48162D01*
X9619Y47362D01*
X8819Y46562D01*
X8019Y47362D01*
X5200D02*
X6000Y48162D01*
X6800Y47362D01*
X6000Y46562D01*
X5200Y47362D01*
X10200Y115000D02*
X11000Y115800D01*
X11800Y115000D01*
X11000Y114200D01*
X10200Y115000D01*
X25700Y33500D02*
X26500Y34300D01*
X27300Y33500D01*
X26500Y32700D01*
X25700Y33500D01*
X31200Y42500D02*
X32000Y43300D01*
X32800Y42500D01*
X32000Y41700D01*
X31200Y42500D01*
X2381Y53000D02*
X3181Y53800D01*
X3981Y53000D01*
X3181Y52200D01*
X2381Y53000D01*
Y47362D02*
X3181Y48162D01*
X3981Y47362D01*
X3181Y46562D01*
X2381Y47362D01*
Y50181D02*
X3181Y50981D01*
X3981Y50181D01*
X3181Y49381D01*
X2381Y50181D01*
X5200D02*
X6000Y50981D01*
X6800Y50181D01*
X6000Y49381D01*
X5200Y50181D01*
X8019D02*
X8819Y50981D01*
X9619Y50181D01*
X8819Y49381D01*
X8019Y50181D01*
X-4800Y58000D02*
X-4000Y58800D01*
X-3200Y58000D01*
X-4000Y57200D01*
X-4800Y58000D01*
X27200Y13000D02*
X28000Y13800D01*
X28800Y13000D01*
X28000Y12200D01*
X27200Y13000D01*
X36700Y20760D02*
X37500Y21560D01*
X38300Y20760D01*
X37500Y19960D01*
X36700Y20760D01*
X20700Y107050D02*
X21500Y107850D01*
X22300Y107050D01*
X21500Y106250D01*
X20700Y107050D01*
X5200Y53000D02*
X6000Y53800D01*
X6800Y53000D01*
X6000Y52200D01*
X5200Y53000D01*
X8019D02*
X8819Y53800D01*
X9619Y53000D01*
X8819Y52200D01*
X8019Y53000D01*
X90200Y46500D02*
X91000Y47300D01*
X91800Y46500D01*
X91000Y45700D01*
X90200Y46500D01*
X154700Y99000D02*
X155500Y99800D01*
X156300Y99000D01*
X155500Y98200D01*
X154700Y99000D01*
Y95500D02*
X155500Y96300D01*
X156300Y95500D01*
X155500Y94700D01*
X154700Y95500D01*
X155200Y107516D02*
X156000Y108316D01*
X156800Y107516D01*
X156000Y106716D01*
X155200Y107516D01*
Y87043D02*
X156000Y87843D01*
X156800Y87043D01*
X156000Y86243D01*
X155200Y87043D01*
Y92161D02*
X156000Y92961D01*
X156800Y92161D01*
X156000Y91361D01*
X155200Y92161D01*
Y102398D02*
X156000Y103198D01*
X156800Y102398D01*
X156000Y101598D01*
X155200Y102398D01*
Y104957D02*
X156000Y105757D01*
X156800Y104957D01*
X156000Y104157D01*
X155200Y104957D01*
Y89602D02*
X156000Y90402D01*
X156800Y89602D01*
X156000Y88802D01*
X155200Y89602D01*
X85114Y79300D02*
X85914Y80100D01*
X86714Y79300D01*
X85914Y78500D01*
X85114Y79300D01*
X136700Y89000D02*
X137500Y89800D01*
X138300Y89000D01*
X137500Y88200D01*
X136700Y89000D01*
X48700Y107500D02*
X49500Y108300D01*
X50300Y107500D01*
X49500Y106700D01*
X48700Y107500D01*
X111700Y52000D02*
X112500Y52800D01*
X113300Y52000D01*
X112500Y51200D01*
X111700Y52000D01*
X48700Y19500D02*
X49500Y20300D01*
X50300Y19500D01*
X49500Y18700D01*
X48700Y19500D01*
X28675Y103615D02*
X29475Y104415D01*
X30275Y103615D01*
X29475Y102815D01*
X28675Y103615D01*
X28738Y114962D02*
X29538Y115762D01*
X30338Y114962D01*
X29538Y114162D01*
X28738Y114962D01*
X26200Y2791D02*
Y4391D01*
X27800D01*
Y2791D01*
X26200D01*
X26600Y3191D02*
Y3991D01*
X27400D01*
Y3191D01*
X26600D01*
X28700Y2700D02*
Y4300D01*
X30300D01*
Y2700D01*
X28700D01*
X29100Y3100D02*
Y3900D01*
X29900D01*
Y3100D01*
X29100D01*
X31200Y2700D02*
Y4300D01*
X32800D01*
Y2700D01*
X31200D01*
X31600Y3100D02*
Y3900D01*
X32400D01*
Y3100D01*
X31600D01*
X111200Y103000D02*
X112000Y103800D01*
X112800Y103000D01*
X112000Y102200D01*
X111200Y103000D01*
X113700Y103131D02*
X114500Y103931D01*
X115300Y103131D01*
X114500Y102331D01*
X113700Y103131D01*
X29200Y165000D02*
X30000Y165800D01*
X30800Y165000D01*
X30000Y164200D01*
X29200Y165000D01*
X26700Y166500D02*
X27500Y167300D01*
X28300Y166500D01*
X27500Y165700D01*
X26700Y166500D01*
X13945Y163356D02*
X14745Y164156D01*
X15545Y163356D01*
X14745Y162556D01*
X13945Y163356D01*
X172700Y88500D02*
X173500Y89300D01*
X174300Y88500D01*
X173500Y87700D01*
X172700Y88500D01*
X120700Y171500D02*
X121500Y172300D01*
X122300Y171500D01*
X121500Y170700D01*
X120700Y171500D01*
X170200Y167000D02*
X171000Y167800D01*
X171800Y167000D01*
X171000Y166200D01*
X170200Y167000D01*
X144700Y162500D02*
X145500Y163300D01*
X146300Y162500D01*
X145500Y161700D01*
X144700Y162500D01*
Y167000D02*
X145500Y167800D01*
X146300Y167000D01*
X145500Y166200D01*
X144700Y167000D01*
X170200Y171500D02*
X171000Y172300D01*
X171800Y171500D01*
X171000Y170700D01*
X170200Y171500D01*
X144700D02*
X145500Y172300D01*
X146300Y171500D01*
X145500Y170700D01*
X144700Y171500D01*
X22700Y94000D02*
X23500Y94800D01*
X24300Y94000D01*
X23500Y93200D01*
X22700Y94000D01*
X28700Y100500D02*
X29500Y101300D01*
X30300Y100500D01*
X29500Y99700D01*
X28700Y100500D01*
X62700Y106000D02*
X63500Y106800D01*
X64300Y106000D01*
X63500Y105200D01*
X62700Y106000D01*
X93700Y171500D02*
X94500Y172300D01*
X95300Y171500D01*
X94500Y170700D01*
X93700Y171500D01*
X53700Y105500D02*
X54500Y106300D01*
X55300Y105500D01*
X54500Y104700D01*
X53700Y105500D01*
X42968Y107500D02*
X43768Y108300D01*
X44568Y107500D01*
X43768Y106700D01*
X42968Y107500D01*
X57200Y119500D02*
X58000Y120300D01*
X58800Y119500D01*
X58000Y118700D01*
X57200Y119500D01*
X120700Y167000D02*
X121500Y167800D01*
X122300Y167000D01*
X121500Y166200D01*
X120700Y167000D01*
X75700Y139500D02*
X76500Y140300D01*
X77300Y139500D01*
X76500Y138700D01*
X75700Y139500D01*
X120700Y162500D02*
X121500Y163300D01*
X122300Y162500D01*
X121500Y161700D01*
X120700Y162500D01*
X113200Y90000D02*
X114000Y90800D01*
X114800Y90000D01*
X114000Y89200D01*
X113200Y90000D01*
X126200Y87000D02*
X127000Y87800D01*
X127800Y87000D01*
X127000Y86200D01*
X126200Y87000D01*
X90700Y80500D02*
X91500Y81300D01*
X92300Y80500D01*
X91500Y79700D01*
X90700Y80500D01*
X71200Y89500D02*
X72000Y90300D01*
X72800Y89500D01*
X72000Y88700D01*
X71200Y89500D01*
X170200Y162500D02*
X171000Y163300D01*
X171800Y162500D01*
X171000Y161700D01*
X170200Y162500D01*
X71200Y86500D02*
X72000Y87300D01*
X72800Y86500D01*
X72000Y85700D01*
X71200Y86500D01*
X93700Y167000D02*
X94500Y167800D01*
X95300Y167000D01*
X94500Y166200D01*
X93700Y167000D01*
X82200Y87500D02*
X83000Y88300D01*
X83800Y87500D01*
X83000Y86700D01*
X82200Y87500D01*
X93700Y162500D02*
X94500Y163300D01*
X95300Y162500D01*
X94500Y161700D01*
X93700Y162500D01*
X99500Y95500D02*
X100300Y96300D01*
X101100Y95500D01*
X100300Y94700D01*
X99500Y95500D01*
Y99500D02*
X100300Y100300D01*
X101100Y99500D01*
X100300Y98700D01*
X99500Y99500D01*
X40200Y159591D02*
X41000Y160391D01*
X41800Y159591D01*
X41000Y158791D01*
X40200Y159591D01*
X163200Y116591D02*
X164000Y117391D01*
X164800Y116591D01*
X164000Y115791D01*
X163200Y116591D01*
X162200Y114591D02*
X163000Y115391D01*
X163800Y114591D01*
X163000Y113791D01*
X162200Y114591D01*
X167700Y103091D02*
X168500Y103891D01*
X169300Y103091D01*
X168500Y102291D01*
X167700Y103091D01*
X50886Y147427D02*
X51686Y148227D01*
X52486Y147427D01*
X51686Y146627D01*
X50886Y147427D01*
X100200Y92091D02*
X101000Y92891D01*
X101800Y92091D01*
X101000Y91291D01*
X100200Y92091D01*
X165569Y103975D02*
X166369Y104775D01*
X167169Y103975D01*
X166369Y103175D01*
X165569Y103975D01*
X36200Y96591D02*
X37000Y97391D01*
X37800Y96591D01*
X37000Y95791D01*
X36200Y96591D01*
X100200Y89531D02*
X101000Y90331D01*
X101800Y89531D01*
X101000Y88731D01*
X100200Y89531D01*
Y86972D02*
X101000Y87772D01*
X101800Y86972D01*
X101000Y86172D01*
X100200Y86972D01*
X42200Y135591D02*
X43000Y136391D01*
X43800Y135591D01*
X43000Y134791D01*
X42200Y135591D01*
X46200Y151091D02*
X47000Y151891D01*
X47800Y151091D01*
X47000Y150291D01*
X46200Y151091D01*
X44700Y149591D02*
X45500Y150391D01*
X46300Y149591D01*
X45500Y148791D01*
X44700Y149591D01*
X53200Y146810D02*
X54000Y147610D01*
X54800Y146810D01*
X54000Y146010D01*
X53200Y146810D01*
X27715Y152575D02*
X28515Y153375D01*
X29315Y152575D01*
X28515Y151775D01*
X27715Y152575D01*
X39700Y98591D02*
X40500Y99391D01*
X41300Y98591D01*
X40500Y97791D01*
X39700Y98591D01*
X45325Y132410D02*
X46125Y133210D01*
X46925Y132410D01*
X46125Y131610D01*
X45325Y132410D01*
X38200Y143091D02*
X39000Y143891D01*
X39800Y143091D01*
X39000Y142291D01*
X38200Y143091D01*
X29700Y145591D02*
X30500Y146391D01*
X31300Y145591D01*
X30500Y144791D01*
X29700Y145591D01*
X40200Y142091D02*
X41000Y142891D01*
X41800Y142091D01*
X41000Y141291D01*
X40200Y142091D01*
X32050Y143091D02*
X32850Y143891D01*
X33650Y143091D01*
X32850Y142291D01*
X32050Y143091D01*
X57200Y95091D02*
X58000Y95891D01*
X58800Y95091D01*
X58000Y94291D01*
X57200Y95091D01*
D15*
X19500Y62000D02*
G03*
X19500Y62000I-500J0D01*
G01*
X10000Y133590D02*
G03*
X10000Y133590I-500J0D01*
G01*
X-7000Y131000D02*
G03*
X-7000Y131000I-500J0D01*
G01*
X-4000Y138000D02*
G03*
X-4000Y138000I-500J0D01*
G01*
X47000Y30000D02*
G03*
X47000Y30000I-500J0D01*
G01*
X42000D02*
G03*
X42000Y30000I-500J0D01*
G01*
X91500Y40000D02*
G03*
X91500Y40000I-500J0D01*
G01*
X105500Y55000D02*
G03*
X105500Y55000I-500J0D01*
G01*
X125000Y23000D02*
G03*
X125000Y23000I-500J0D01*
G01*
Y30000D02*
G03*
X125000Y30000I-500J0D01*
G01*
X101500Y40000D02*
G03*
X101500Y40000I-500J0D01*
G01*
X119000Y55000D02*
G03*
X119000Y55000I-500J0D01*
G01*
X103000Y62000D02*
G03*
X103000Y62000I-500J0D01*
G01*
X108000D02*
G03*
X108000Y62000I-500J0D01*
G01*
X60400Y24862D02*
G03*
X60400Y24862I-500J0D01*
G01*
X22000Y30000D02*
G03*
X22000Y30000I-500J0D01*
G01*
X32000D02*
G03*
X32000Y30000I-500J0D01*
G01*
X37000D02*
G03*
X37000Y30000I-500J0D01*
G01*
X52000D02*
G03*
X52000Y30000I-500J0D01*
G01*
X27000D02*
G03*
X27000Y30000I-500J0D01*
G01*
X79200Y24862D02*
G03*
X79200Y24862I-500J0D01*
G01*
X74500D02*
G03*
X74500Y24862I-500J0D01*
G01*
X65100D02*
G03*
X65100Y24862I-500J0D01*
G01*
X92500Y74000D02*
G03*
X92500Y74000I-500J0D01*
G01*
X81500Y68500D02*
G03*
X81500Y68500I-500J0D01*
G01*
Y74000D02*
G03*
X81500Y74000I-500J0D01*
G01*
X-500Y138173D02*
G03*
X-500Y138173I-500J0D01*
G01*
X-417Y115091D02*
G03*
X-417Y115091I-500J0D01*
G01*
Y120591D02*
G03*
X-417Y120591I-500J0D01*
G01*
Y126091D02*
G03*
X-417Y126091I-500J0D01*
G01*
X30134Y111118D02*
G03*
X30134Y111118I-500J0D01*
G01*
X26000Y111091D02*
G03*
X26000Y111091I-500J0D01*
G01*
X22000D02*
G03*
X22000Y111091I-500J0D01*
G01*
X48909Y100091D02*
G03*
X48909Y100091I-500J0D01*
G01*
X50000Y111091D02*
G03*
X50000Y111091I-500J0D01*
G01*
X55000D02*
G03*
X55000Y111091I-500J0D01*
G01*
X62464Y81295D02*
G03*
X62464Y81295I-500J0D01*
G01*
Y85295D02*
G03*
X62464Y85295I-500J0D01*
G01*
Y89295D02*
G03*
X62464Y89295I-500J0D01*
G01*
X29902Y80795D02*
G03*
X29902Y80795I-500J0D01*
G01*
Y85193D02*
G03*
X29902Y85193I-500J0D01*
G01*
X30000Y89591D02*
G03*
X30000Y89591I-500J0D01*
G01*
X172000Y85500D02*
G03*
X172000Y85500I-500J0D01*
G01*
Y81000D02*
G03*
X172000Y81000I-500J0D01*
G01*
X173500Y96500D02*
G03*
X173500Y96500I-500J0D01*
G01*
X117500Y80000D02*
G03*
X117500Y80000I-500J0D01*
G01*
Y84500D02*
G03*
X117500Y84500I-500J0D01*
G01*
X173500Y99500D02*
G03*
X173500Y99500I-500J0D01*
G01*
X119500D02*
G03*
X119500Y99500I-500J0D01*
G01*
Y96500D02*
G03*
X119500Y96500I-500J0D01*
G01*
X171031Y108740D02*
G03*
X171031Y108740I-500J0D01*
G01*
X116469D02*
G03*
X116469Y108740I-500J0D01*
G01*
X72500Y137500D02*
G03*
X72500Y137500I-500J0D01*
G01*
X72000Y155500D02*
G03*
X72000Y155500I-500J0D01*
G01*
Y163181D02*
G03*
X72000Y163181I-500J0D01*
G01*
X27000Y177591D02*
G03*
X27000Y177591I-500J0D01*
G01*
X19000Y61212D02*
Y62787D01*
X18213Y62000D02*
X19787D01*
X9500Y132803D02*
Y134378D01*
X8713Y133591D02*
X10287D01*
X-7500Y130213D02*
Y131787D01*
X-8287Y131000D02*
X-6712D01*
X-4500Y137213D02*
Y138787D01*
X-5287Y138000D02*
X-3713D01*
X46500Y29213D02*
Y30788D01*
X45713Y30000D02*
X47288D01*
X40713D02*
X42288D01*
X41500Y29213D02*
Y30788D01*
X91000Y39213D02*
Y40787D01*
X90213Y40000D02*
X91787D01*
X105000Y54213D02*
Y55787D01*
X104213Y55000D02*
X105787D01*
X123713Y23000D02*
X125287D01*
X124500Y22213D02*
Y23787D01*
X123713Y30000D02*
X125287D01*
X124500Y29213D02*
Y30787D01*
X101000Y39213D02*
Y40787D01*
X100213Y40000D02*
X101787D01*
X117713Y55000D02*
X119287D01*
X118500Y54213D02*
Y55787D01*
X102500Y61213D02*
Y62787D01*
X101713Y62000D02*
X103287D01*
X106713D02*
X108287D01*
X107500Y61213D02*
Y62787D01*
X59900Y24075D02*
Y25650D01*
X59113Y24862D02*
X60687D01*
X20713Y30000D02*
X22288D01*
X21500Y29213D02*
Y30788D01*
X30713Y30000D02*
X32287D01*
X31500Y29213D02*
Y30788D01*
X35712Y30000D02*
X37287D01*
X36500Y29212D02*
Y30787D01*
X50713Y30000D02*
X52288D01*
X51500Y29213D02*
Y30788D01*
X25713Y30000D02*
X27288D01*
X26500Y29213D02*
Y30788D01*
X77913Y24862D02*
X79488D01*
X78700Y24075D02*
Y25650D01*
X73213Y24862D02*
X74788D01*
X74000Y24075D02*
Y25650D01*
X63813Y24862D02*
X65387D01*
X64600Y24075D02*
Y25650D01*
X91212Y74000D02*
X92787D01*
X92000Y73213D02*
Y74787D01*
X80213Y68500D02*
X81787D01*
X81000Y67713D02*
Y69287D01*
X80212Y74000D02*
X81787D01*
X81000Y73213D02*
Y74787D01*
X-1788Y138173D02*
X-213D01*
X-1000Y137386D02*
Y138961D01*
X-917Y114303D02*
Y115878D01*
X-1705Y115091D02*
X-130D01*
X-917Y119803D02*
Y121378D01*
X-1705Y120591D02*
X-130D01*
X-917Y125303D02*
Y126878D01*
X-1705Y126091D02*
X-130D01*
X28846Y111118D02*
X30421D01*
X29634Y110331D02*
Y111905D01*
X25500Y110303D02*
Y111878D01*
X24713Y111091D02*
X26288D01*
X20712Y111090D02*
X22287D01*
X21500Y110303D02*
Y111878D01*
X48410Y99303D02*
Y100878D01*
X47622Y100090D02*
X49197D01*
X48713Y111091D02*
X50288D01*
X49500Y110303D02*
Y111878D01*
X53712Y111090D02*
X55287D01*
X54500Y110303D02*
Y111878D01*
X61964Y80508D02*
Y82082D01*
X61177Y81295D02*
X62751D01*
X61177Y85295D02*
X62751D01*
X61964Y84508D02*
Y86082D01*
Y88508D02*
Y90082D01*
X61177Y89295D02*
X62751D01*
X28615Y80795D02*
X30189D01*
X29402Y80008D02*
Y81582D01*
X28615Y85193D02*
X30189D01*
X29402Y84406D02*
Y85980D01*
X29500Y88803D02*
Y90378D01*
X28713Y89590D02*
X30287D01*
X170713Y85500D02*
X172287D01*
X171500Y84713D02*
Y86287D01*
X170713Y81000D02*
X172287D01*
X171500Y80213D02*
Y81787D01*
X172213Y96500D02*
X173787D01*
X173000Y95713D02*
Y97288D01*
X116213Y80000D02*
X117787D01*
X117000Y79213D02*
Y80787D01*
X116213Y84500D02*
X117787D01*
X117000Y83713D02*
Y85287D01*
X172213Y99500D02*
X173787D01*
X173000Y98712D02*
Y100287D01*
X119000Y98712D02*
Y100287D01*
X118213Y99500D02*
X119787D01*
X118213Y96500D02*
X119787D01*
X119000Y95713D02*
Y97288D01*
X170532Y107953D02*
Y109528D01*
X169744Y108740D02*
X171319D01*
X115181D02*
X116756D01*
X115969Y107953D02*
Y109528D01*
X72000Y136712D02*
Y138287D01*
X71213Y137500D02*
X72787D01*
X70713Y155500D02*
X72287D01*
X71500Y154713D02*
Y156288D01*
Y162394D02*
Y163968D01*
X70713Y163181D02*
X72287D01*
X26500Y176803D02*
Y178378D01*
X25713Y177590D02*
X27287D01*
D16*
X1366Y34000D02*
G03*
X1366Y34000I-1378J0D01*
G01*
X93811Y95929D02*
G03*
X93811Y95929I-1378J0D01*
G01*
X113878Y23000D02*
G03*
X113878Y23000I-1378J0D01*
G01*
D02*
G03*
X113878Y23000I-1378J0D01*
G01*
Y30000D02*
G03*
X113878Y30000I-1378J0D01*
G01*
D02*
G03*
X113878Y30000I-1378J0D01*
G01*
X112879Y42501D02*
G03*
X112879Y42501I-1378J0D01*
G01*
X139535Y-910D02*
G03*
X139535Y-910I-1378J0D01*
G01*
X132878Y43000D02*
G03*
X132878Y43000I-1378J0D01*
G01*
X148378Y96000D02*
G03*
X148378Y96000I-1378J0D01*
G01*
X-12Y32031D02*
Y35968D01*
X-1980Y34000D02*
X1957D01*
X66378Y122122D02*
Y174878D01*
X13622Y122122D02*
Y174878D01*
X66378D01*
X13622Y122122D02*
X66378D01*
X92433Y93961D02*
Y97898D01*
X90465Y95929D02*
X94402D01*
X112500Y21032D02*
Y24969D01*
X110532Y23000D02*
X114469D01*
X110532D02*
X114469D01*
X112500Y21032D02*
Y24969D01*
Y28032D02*
Y31969D01*
X110532Y30000D02*
X114469D01*
X110532D02*
X114469D01*
X112500Y28032D02*
Y31969D01*
X111501Y40532D02*
Y44469D01*
X109533Y42501D02*
X113470D01*
X35390Y34323D02*
Y49677D01*
X21610Y34323D02*
Y49677D01*
X35390D01*
X21610Y34323D02*
X35390D01*
X138157Y-2878D02*
Y1059D01*
X136189Y-909D02*
X140126D01*
X37110Y34189D02*
X50890D01*
X37110Y49543D02*
X50890D01*
X37110Y34189D02*
Y49543D01*
X50890Y34189D02*
Y49543D01*
X129531Y43000D02*
X133468D01*
X131500Y41031D02*
Y44968D01*
X145032Y96000D02*
X148969D01*
X147000Y94032D02*
Y97969D01*
D17*
X40341Y110846D02*
G03*
X40341Y110846I-707J0D01*
G01*
X39634Y109846D02*
Y111846D01*
X38634Y110846D02*
X40634D01*
D18*
X85796Y-410D02*
G03*
X85796Y-410I-800J0D01*
G01*
X104300D02*
G03*
X104300Y-410I-800J0D01*
G01*
X67292D02*
G03*
X67292Y-410I-800J0D01*
G01*
X96300Y177500D02*
G03*
X96300Y177500I-800J0D01*
G01*
X800Y29500D02*
G03*
X800Y29500I-800J0D01*
G01*
Y34500D02*
G03*
X800Y34500I-800J0D01*
G01*
X6300Y-7500D02*
G03*
X6300Y-7500I-800J0D01*
G01*
X123300Y175950D02*
G03*
X123300Y175950I-800J0D01*
G01*
X147800Y178500D02*
G03*
X147800Y178500I-800J0D01*
G01*
X173300Y179300D02*
G03*
X173300Y179300I-800J0D01*
G01*
X63117Y27620D02*
G03*
X63117Y27620I-800J0D01*
G01*
X65861Y31120D02*
G03*
X65861Y31120I-800J0D01*
G01*
X94300Y500D02*
G03*
X94300Y500I-800J0D01*
G01*
X81300Y16000D02*
G03*
X81300Y16000I-800J0D01*
G01*
X83671Y17379D02*
G03*
X83671Y17379I-800J0D01*
G01*
X85050Y19841D02*
G03*
X85050Y19841I-800J0D01*
G01*
X70800Y11500D02*
G03*
X70800Y11500I-800J0D01*
G01*
X68300D02*
G03*
X68300Y11500I-800J0D01*
G01*
X65550D02*
G03*
X65550Y11500I-800J0D01*
G01*
X79300Y35500D02*
G03*
X79300Y35500I-800J0D01*
G01*
Y40000D02*
G03*
X79300Y40000I-800J0D01*
G01*
X89300Y26000D02*
G03*
X89300Y26000I-800J0D01*
G01*
X85300Y27000D02*
G03*
X85300Y27000I-800J0D01*
G01*
X79300D02*
G03*
X79300Y27000I-800J0D01*
G01*
X74800D02*
G03*
X74800Y27000I-800J0D01*
G01*
X96800Y37500D02*
G03*
X96800Y37500I-800J0D01*
G01*
Y40500D02*
G03*
X96800Y40500I-800J0D01*
G01*
Y43500D02*
G03*
X96800Y43500I-800J0D01*
G01*
Y46500D02*
G03*
X96800Y46500I-800J0D01*
G01*
Y54500D02*
G03*
X96800Y54500I-800J0D01*
G01*
X80800Y31000D02*
G03*
X80800Y31000I-800J0D01*
G01*
X77800D02*
G03*
X77800Y31000I-800J0D01*
G01*
X74300D02*
G03*
X74300Y31000I-800J0D01*
G01*
Y35500D02*
G03*
X74300Y35500I-800J0D01*
G01*
Y40000D02*
G03*
X74300Y40000I-800J0D01*
G01*
X138300Y16000D02*
G03*
X138300Y16000I-800J0D01*
G01*
X135300D02*
G03*
X135300Y16000I-800J0D01*
G01*
X131800D02*
G03*
X131800Y16000I-800J0D01*
G01*
X128300D02*
G03*
X128300Y16000I-800J0D01*
G01*
X138300Y19500D02*
G03*
X138300Y19500I-800J0D01*
G01*
X135300D02*
G03*
X135300Y19500I-800J0D01*
G01*
X131800D02*
G03*
X131800Y19500I-800J0D01*
G01*
X128300D02*
G03*
X128300Y19500I-800J0D01*
G01*
X80300Y47500D02*
G03*
X80300Y47500I-800J0D01*
G01*
Y52500D02*
G03*
X80300Y52500I-800J0D01*
G01*
Y57500D02*
G03*
X80300Y57500I-800J0D01*
G01*
X84800Y62500D02*
G03*
X84800Y62500I-800J0D01*
G01*
X79300D02*
G03*
X79300Y62500I-800J0D01*
G01*
X160800Y13500D02*
G03*
X160800Y13500I-800J0D01*
G01*
X159300Y4500D02*
G03*
X159300Y4500I-800J0D01*
G01*
X171300Y19000D02*
G03*
X171300Y19000I-800J0D01*
G01*
X175300Y19500D02*
G03*
X175300Y19500I-800J0D01*
G01*
X156800Y10000D02*
G03*
X156800Y10000I-800J0D01*
G01*
X138300Y2500D02*
G03*
X138300Y2500I-800J0D01*
G01*
Y11000D02*
G03*
X138300Y11000I-800J0D01*
G01*
X150300Y12500D02*
G03*
X150300Y12500I-800J0D01*
G01*
X128800Y11000D02*
G03*
X128800Y11000I-800J0D01*
G01*
X118800Y10000D02*
G03*
X118800Y10000I-800J0D01*
G01*
X72300Y65500D02*
G03*
X72300Y65500I-800J0D01*
G01*
X68800D02*
G03*
X68800Y65500I-800J0D01*
G01*
X72300Y73500D02*
G03*
X72300Y73500I-800J0D01*
G01*
Y69500D02*
G03*
X72300Y69500I-800J0D01*
G01*
X58300Y60000D02*
G03*
X58300Y60000I-800J0D01*
G01*
X65300Y51000D02*
G03*
X65300Y51000I-800J0D01*
G01*
Y54500D02*
G03*
X65300Y54500I-800J0D01*
G01*
X58300Y72500D02*
G03*
X58300Y72500I-800J0D01*
G01*
X61800D02*
G03*
X61800Y72500I-800J0D01*
G01*
X68800Y73500D02*
G03*
X68800Y73500I-800J0D01*
G01*
Y69500D02*
G03*
X68800Y69500I-800J0D01*
G01*
X61800Y51000D02*
G03*
X61800Y51000I-800J0D01*
G01*
Y54500D02*
G03*
X61800Y54500I-800J0D01*
G01*
X58300D02*
G03*
X58300Y54500I-800J0D01*
G01*
X61800Y65500D02*
G03*
X61800Y65500I-800J0D01*
G01*
X58300D02*
G03*
X58300Y65500I-800J0D01*
G01*
X61800Y69000D02*
G03*
X61800Y69000I-800J0D01*
G01*
X58300D02*
G03*
X58300Y69000I-800J0D01*
G01*
X111800Y64500D02*
G03*
X111800Y64500I-800J0D01*
G01*
X130300Y26500D02*
G03*
X130300Y26500I-800J0D01*
G01*
X122300D02*
G03*
X122300Y26500I-800J0D01*
G01*
X119300D02*
G03*
X119300Y26500I-800J0D01*
G01*
X122300Y34500D02*
G03*
X122300Y34500I-800J0D01*
G01*
X119300D02*
G03*
X119300Y34500I-800J0D01*
G01*
X122300Y37500D02*
G03*
X122300Y37500I-800J0D01*
G01*
X119300D02*
G03*
X119300Y37500I-800J0D01*
G01*
X26800Y-3500D02*
G03*
X26800Y-3500I-800J0D01*
G01*
X38300D02*
G03*
X38300Y-3500I-800J0D01*
G01*
X45300Y2500D02*
G03*
X45300Y2500I-800J0D01*
G01*
X80300Y-8500D02*
G03*
X80300Y-8500I-800J0D01*
G01*
X115300Y-1000D02*
G03*
X115300Y-1000I-800J0D01*
G01*
X125300Y7000D02*
G03*
X125300Y7000I-800J0D01*
G01*
X144800D02*
G03*
X144800Y7000I-800J0D01*
G01*
X175800Y10500D02*
G03*
X175800Y10500I-800J0D01*
G01*
X166800Y13500D02*
G03*
X166800Y13500I-800J0D01*
G01*
X122300Y90000D02*
G03*
X122300Y90000I-800J0D01*
G01*
X44300Y121000D02*
G03*
X44300Y121000I-800J0D01*
G01*
X164449Y206709D02*
G03*
X164449Y206709I-800J0D01*
G01*
X176300Y191500D02*
G03*
X176300Y191500I-800J0D01*
G01*
D19*
X95900Y177500D02*
G03*
X95900Y177500I-400J0D01*
G01*
X400Y29500D02*
G03*
X400Y29500I-400J0D01*
G01*
Y34500D02*
G03*
X400Y34500I-400J0D01*
G01*
X5900Y-7500D02*
G03*
X5900Y-7500I-400J0D01*
G01*
X122900Y175950D02*
G03*
X122900Y175950I-400J0D01*
G01*
X147400Y178500D02*
G03*
X147400Y178500I-400J0D01*
G01*
X172900Y179300D02*
G03*
X172900Y179300I-400J0D01*
G01*
X62717Y27620D02*
G03*
X62717Y27620I-400J0D01*
G01*
X65461Y31120D02*
G03*
X65461Y31120I-400J0D01*
G01*
X93900Y500D02*
G03*
X93900Y500I-400J0D01*
G01*
X80900Y16000D02*
G03*
X80900Y16000I-400J0D01*
G01*
X83271Y17379D02*
G03*
X83271Y17379I-400J0D01*
G01*
X84650Y19841D02*
G03*
X84650Y19841I-400J0D01*
G01*
X70400Y11500D02*
G03*
X70400Y11500I-400J0D01*
G01*
X67900D02*
G03*
X67900Y11500I-400J0D01*
G01*
X65150D02*
G03*
X65150Y11500I-400J0D01*
G01*
X78900Y35500D02*
G03*
X78900Y35500I-400J0D01*
G01*
Y40000D02*
G03*
X78900Y40000I-400J0D01*
G01*
X88900Y26000D02*
G03*
X88900Y26000I-400J0D01*
G01*
X84900Y27000D02*
G03*
X84900Y27000I-400J0D01*
G01*
X78900D02*
G03*
X78900Y27000I-400J0D01*
G01*
X74400D02*
G03*
X74400Y27000I-400J0D01*
G01*
X96400Y37500D02*
G03*
X96400Y37500I-400J0D01*
G01*
Y40500D02*
G03*
X96400Y40500I-400J0D01*
G01*
Y43500D02*
G03*
X96400Y43500I-400J0D01*
G01*
Y46500D02*
G03*
X96400Y46500I-400J0D01*
G01*
Y54500D02*
G03*
X96400Y54500I-400J0D01*
G01*
X80400Y31000D02*
G03*
X80400Y31000I-400J0D01*
G01*
X77400D02*
G03*
X77400Y31000I-400J0D01*
G01*
X73900D02*
G03*
X73900Y31000I-400J0D01*
G01*
Y35500D02*
G03*
X73900Y35500I-400J0D01*
G01*
Y40000D02*
G03*
X73900Y40000I-400J0D01*
G01*
X137900Y16000D02*
G03*
X137900Y16000I-400J0D01*
G01*
X134900D02*
G03*
X134900Y16000I-400J0D01*
G01*
X131400D02*
G03*
X131400Y16000I-400J0D01*
G01*
X127900D02*
G03*
X127900Y16000I-400J0D01*
G01*
X137900Y19500D02*
G03*
X137900Y19500I-400J0D01*
G01*
X134900D02*
G03*
X134900Y19500I-400J0D01*
G01*
X131400D02*
G03*
X131400Y19500I-400J0D01*
G01*
X127900D02*
G03*
X127900Y19500I-400J0D01*
G01*
X79900Y47500D02*
G03*
X79900Y47500I-400J0D01*
G01*
Y52500D02*
G03*
X79900Y52500I-400J0D01*
G01*
Y57500D02*
G03*
X79900Y57500I-400J0D01*
G01*
X84400Y62500D02*
G03*
X84400Y62500I-400J0D01*
G01*
X78900D02*
G03*
X78900Y62500I-400J0D01*
G01*
X160400Y13500D02*
G03*
X160400Y13500I-400J0D01*
G01*
X158900Y4500D02*
G03*
X158900Y4500I-400J0D01*
G01*
X170900Y19000D02*
G03*
X170900Y19000I-400J0D01*
G01*
X174900Y19500D02*
G03*
X174900Y19500I-400J0D01*
G01*
X156400Y10000D02*
G03*
X156400Y10000I-400J0D01*
G01*
X137900Y2500D02*
G03*
X137900Y2500I-400J0D01*
G01*
Y11000D02*
G03*
X137900Y11000I-400J0D01*
G01*
X149900Y12500D02*
G03*
X149900Y12500I-400J0D01*
G01*
X128400Y11000D02*
G03*
X128400Y11000I-400J0D01*
G01*
X118400Y10000D02*
G03*
X118400Y10000I-400J0D01*
G01*
X71900Y65500D02*
G03*
X71900Y65500I-400J0D01*
G01*
X68400D02*
G03*
X68400Y65500I-400J0D01*
G01*
X71900Y73500D02*
G03*
X71900Y73500I-400J0D01*
G01*
Y69500D02*
G03*
X71900Y69500I-400J0D01*
G01*
X57900Y60000D02*
G03*
X57900Y60000I-400J0D01*
G01*
X64900Y51000D02*
G03*
X64900Y51000I-400J0D01*
G01*
Y54500D02*
G03*
X64900Y54500I-400J0D01*
G01*
X57900Y72500D02*
G03*
X57900Y72500I-400J0D01*
G01*
X61400D02*
G03*
X61400Y72500I-400J0D01*
G01*
X68400Y73500D02*
G03*
X68400Y73500I-400J0D01*
G01*
Y69500D02*
G03*
X68400Y69500I-400J0D01*
G01*
X61400Y51000D02*
G03*
X61400Y51000I-400J0D01*
G01*
Y54500D02*
G03*
X61400Y54500I-400J0D01*
G01*
X57900D02*
G03*
X57900Y54500I-400J0D01*
G01*
X61400Y65500D02*
G03*
X61400Y65500I-400J0D01*
G01*
X57900D02*
G03*
X57900Y65500I-400J0D01*
G01*
X61400Y69000D02*
G03*
X61400Y69000I-400J0D01*
G01*
X57900D02*
G03*
X57900Y69000I-400J0D01*
G01*
X111400Y64500D02*
G03*
X111400Y64500I-400J0D01*
G01*
X129900Y26500D02*
G03*
X129900Y26500I-400J0D01*
G01*
X121900D02*
G03*
X121900Y26500I-400J0D01*
G01*
X118900D02*
G03*
X118900Y26500I-400J0D01*
G01*
X121900Y34500D02*
G03*
X121900Y34500I-400J0D01*
G01*
X118900D02*
G03*
X118900Y34500I-400J0D01*
G01*
X121900Y37500D02*
G03*
X121900Y37500I-400J0D01*
G01*
X118900D02*
G03*
X118900Y37500I-400J0D01*
G01*
X26400Y-3500D02*
G03*
X26400Y-3500I-400J0D01*
G01*
X37900D02*
G03*
X37900Y-3500I-400J0D01*
G01*
X44900Y2500D02*
G03*
X44900Y2500I-400J0D01*
G01*
X79900Y-8500D02*
G03*
X79900Y-8500I-400J0D01*
G01*
X114900Y-1000D02*
G03*
X114900Y-1000I-400J0D01*
G01*
X124900Y7000D02*
G03*
X124900Y7000I-400J0D01*
G01*
X144400D02*
G03*
X144400Y7000I-400J0D01*
G01*
X175400Y10500D02*
G03*
X175400Y10500I-400J0D01*
G01*
X166400Y13500D02*
G03*
X166400Y13500I-400J0D01*
G01*
X121900Y90000D02*
G03*
X121900Y90000I-400J0D01*
G01*
X43900Y121000D02*
G03*
X43900Y121000I-400J0D01*
G01*
X164049Y206709D02*
G03*
X164049Y206709I-400J0D01*
G01*
X175900Y191500D02*
G03*
X175900Y191500I-400J0D01*
G01*
M02*
