M48
;Layer_Color=9474304
;FILE_FORMAT=2:5
INCH,TZ
;TYPE=PLATED
T1F00S00C0.01000
T2F00S00C0.01200
T3F00S00C0.01500
T5F00S00C0.02559
T6F00S00C0.03543
T7F00S00C0.04724
T8F00S00C0.06693
T9F00S00C0.12598
%
T01
X17316Y20684
X15831Y22169
X15500Y24500
X30010Y20224
X34000Y20500
X37500Y20760
X36000Y34500
X26500Y33500
X21500Y41000
X32000Y42500
X35263Y54303
X37600Y54500
X8819Y53000
Y50181
Y47362
X6000
X3181
Y50181
Y53000
X6000
Y50181
X-6500Y50500
Y48213
X-6449Y44500
X-4000Y58000
X28000Y13000
X49500Y19500
X91000Y46500
X112500Y52000
X114000Y90000
X101000Y89531
Y86972
Y92091
X100300Y95500
Y99500
X100975Y101758
X101068Y103856
X100913Y105950
X112000Y103000
X114500Y103131
X115801Y113896
X116000Y116000
X113500Y116500
X109896Y117306
X107659Y117159
X104500Y117650
X105206Y119675
X106691Y121160
X107195Y134000
X94500Y131406
Y129306
X80954Y130380
X81969Y132986
X76500Y139500
X73500Y147500
X71400
X69100
X67000
X73500Y153200
X70886Y159096
X68989Y157783
X65527Y161073
X61578Y165154
X57268Y160337
X55117Y159883
X52900Y160000
X51830Y161900
X52000Y164000
X51000Y158500
X49037Y159991
X46850Y160500
X45170Y161760
X44450Y164091
X41000Y159591
X47000Y151091
X45500Y149591
X51686Y147427
X54000Y146810
X55500Y154591
X52000Y155091
X41000Y142091
X43000Y135591
X46125Y132410
X54556Y123001
X56165Y121651
X58000Y119500
X57270Y117530
X59200Y116703
X63500Y106000
X54500Y105500
X49500Y107500
X43768
X40500Y98591
X58000Y95091
X72000Y89500
Y86500
X83000Y87500
X85914Y79300
X91500Y80500
X127000Y87000
X137500Y89000
X156000Y89602
Y92161
X155500Y95500
Y99000
X156000Y102398
Y104957
Y107516
X166369Y103975
X168500Y103091
X163000Y114591
X164000Y116591
X156000Y87043
X173500Y88500
X171000Y162500
Y167000
Y171500
X145500
Y167000
Y162500
X121500
Y167000
Y171500
X125179Y179513
X127295Y179629
X118000Y208000
X69000Y202000
X59829Y196998
X52399Y200166
X50867Y198650
X49000Y197000
X44000Y196350
X40350
X49973Y191347
X49000Y179000
X51500Y178794
X46100Y176394
X42580Y177580
X65851Y176627
X67481Y177964
X68507Y184743
X73500Y184750
X77000Y185950
Y179500
X76500Y176100
X77400Y174000
X78500Y171500
Y169000
X73500Y163672
X66800Y169246
X64550Y187150
X94500Y171500
Y167000
Y162500
X30000Y165000
X27500Y166500
X30500Y176000
X36000
X30000Y197550
X11500Y184000
X4000Y183500
X4473Y176006
X6515Y175515
X8500Y176200
X-4623Y173146
X-6000Y166500
X-2530Y153180
X2046Y155113
X10500Y153091
X8846Y149591
X7702Y147797
X7423Y145690
X11500Y145000
X10000Y139500
X8000Y137075
X7741Y133591
X8500Y123500
X14242Y121242
X15000Y119000
X16650Y117606
X18338Y115276
X11000Y115000
X9000Y101350
X5850Y96500
X2650Y94000
X550
X-1568Y101068
X-6000Y97500
X-7700Y103000
X-6288Y104554
X-7500Y111000
X-7000Y123000
X-7500Y142000
X12311Y159811
X13049Y161998
X14745Y163356
X28515Y152575
X30500Y151291
Y145591
X32850Y143091
X39000
X33500Y133091
X30000Y133591
X23000Y131000
X21050Y130000
X29107Y119500
X31207
X29538Y114962
X26955Y117045
X22016Y109500
X21500Y107050
X19000Y107000
X29475Y103615
X29500Y100500
X37000Y96591
X34000Y87500
X35500Y81591
X24000Y83000
X20500Y87000
X23500Y94000
X12500Y95000
X-5000Y86000
X-4000Y80000
X-3691Y70966
X7500Y73500
X18500Y67000
X29500Y68011
T02
X5500Y-7500
X26000Y-3500
X37500
X0Y29500
Y34500
X65061Y31120
X62317Y27620
X74000Y27000
X78500
X80000Y31000
X77000
X73500
Y35500
Y40000
X78500
Y35500
X79500Y47500
Y52500
Y57500
X64500Y54500
Y51000
X61000
Y54500
X57500
X96000
Y46500
Y43500
Y40500
Y37500
X88500Y26000
X84500Y27000
X84250Y19841
X82871Y17379
X80500Y16000
X70000Y11500
X67500
X64750
X44500Y2500
X79500Y-8500
X93500Y500
X114500Y-1000
X118000Y10000
X124500Y7000
X128000Y11000
X127500Y16000
X131000
X134500
X137500
Y19500
X134500
X131000
X127500
X129500Y26500
X121500
X118500
Y34500
X121500
Y37500
X118500
X137500Y11000
Y2500
X144000Y7000
X149500Y12500
X156000Y10000
X160000Y13500
X166000
X170500Y19000
X174500Y19500
X175000Y10500
X158500Y4500
X111000Y64500
X84000Y62500
X78500
X71500Y65500
X68000
Y69500
X71500
Y73500
X68000
X61000Y72500
X57500
Y69000
Y65500
X61000
Y69000
X57500Y60000
X43500Y121000
X95500Y177500
X122500Y175950
X147000Y178500
X172500Y179300
X175500Y191500
X163649Y206709
X121500Y90000
T03
X27000Y3591
X29500Y3500
X32000
X14000Y40500
X16000Y42500
T05
X21622Y10449
X44378
T06
X-4500Y14500
X5500
Y24500
X-4500
X153500Y29591
X163500
Y39591
Y49591
X153500
Y39591
X173500
Y49591
Y29591
Y59591
X163500
Y69591
X153500
Y59591
X173500Y69591
X163000Y127091
Y137091
Y147091
Y157091
Y167091
Y177091
X138000
Y167091
Y157091
Y147091
Y137091
Y127091
X113000Y127091
Y137091
Y147091
Y157091
Y167091
Y177091
X114500Y194000
X104500
X94500
Y204000
X104500
X114500
X124500
Y194000
X134500
Y204000
X144500
Y194000
X154500
Y204000
X84500
X74500
Y194000
X84500
X64500
Y204000
X48000Y185500
X88000Y177091
Y167091
Y157091
Y147091
Y137091
Y127091
X38000Y185500
X28000
X18000
X-500Y179000
Y169000
Y159000
Y149000
T07
X128000Y-909
X148000
T08
X66492Y-410
X84996
X103500
T09
X0Y0
X167220
Y198091
X0
M30
