G04*
G04 #@! TF.GenerationSoftware,Altium Limited,Altium Designer,21.5.1 (32)*
G04*
G04 Layer_Color=255*
%FSLAX25Y25*%
%MOIN*%
G70*
G04*
G04 #@! TF.SameCoordinates,8B6BA037-C385-438B-B8BE-B681DC7B7FEC*
G04*
G04*
G04 #@! TF.FilePolarity,Positive*
G04*
G01*
G75*
%ADD20R,0.01968X0.01575*%
%ADD21O,0.05118X0.01968*%
%ADD22R,0.01575X0.01968*%
%ADD23R,0.03937X0.03150*%
G04:AMPARAMS|DCode=24|XSize=39.37mil|YSize=31.5mil|CornerRadius=0mil|HoleSize=0mil|Usage=FLASHONLY|Rotation=0.000|XOffset=0mil|YOffset=0mil|HoleType=Round|Shape=Octagon|*
%AMOCTAGOND24*
4,1,8,0.01968,-0.00787,0.01968,0.00787,0.01181,0.01575,-0.01181,0.01575,-0.01968,0.00787,-0.01968,-0.00787,-0.01181,-0.01575,0.01181,-0.01575,0.01968,-0.00787,0.0*
%
%ADD24OCTAGOND24*%

%ADD25O,0.07087X0.01181*%
%ADD26O,0.01181X0.07087*%
%ADD27O,0.07480X0.01575*%
%ADD28R,0.07480X0.01575*%
%ADD29R,0.03937X0.02756*%
%ADD30R,0.11024X0.10630*%
G04:AMPARAMS|DCode=31|XSize=12mil|YSize=38mil|CornerRadius=3mil|HoleSize=0mil|Usage=FLASHONLY|Rotation=270.000|XOffset=0mil|YOffset=0mil|HoleType=Round|Shape=RoundedRectangle|*
%AMROUNDEDRECTD31*
21,1,0.01200,0.03200,0,0,270.0*
21,1,0.00600,0.03800,0,0,270.0*
1,1,0.00600,-0.01600,-0.00300*
1,1,0.00600,-0.01600,0.00300*
1,1,0.00600,0.01600,0.00300*
1,1,0.00600,0.01600,-0.00300*
%
%ADD31ROUNDEDRECTD31*%
G04:AMPARAMS|DCode=32|XSize=12mil|YSize=38mil|CornerRadius=3mil|HoleSize=0mil|Usage=FLASHONLY|Rotation=0.000|XOffset=0mil|YOffset=0mil|HoleType=Round|Shape=RoundedRectangle|*
%AMROUNDEDRECTD32*
21,1,0.01200,0.03200,0,0,0.0*
21,1,0.00600,0.03800,0,0,0.0*
1,1,0.00600,0.00300,-0.01600*
1,1,0.00600,-0.00300,-0.01600*
1,1,0.00600,-0.00300,0.01600*
1,1,0.00600,0.00300,0.01600*
%
%ADD32ROUNDEDRECTD32*%
G04:AMPARAMS|DCode=33|XSize=59.06mil|YSize=11.81mil|CornerRadius=2.95mil|HoleSize=0mil|Usage=FLASHONLY|Rotation=90.000|XOffset=0mil|YOffset=0mil|HoleType=Round|Shape=RoundedRectangle|*
%AMROUNDEDRECTD33*
21,1,0.05906,0.00591,0,0,90.0*
21,1,0.05315,0.01181,0,0,90.0*
1,1,0.00591,0.00295,0.02657*
1,1,0.00591,0.00295,-0.02657*
1,1,0.00591,-0.00295,-0.02657*
1,1,0.00591,-0.00295,0.02657*
%
%ADD33ROUNDEDRECTD33*%
%ADD34R,0.03000X0.03000*%
%ADD35R,0.03000X0.03000*%
%ADD36R,0.03500X0.05000*%
%ADD37R,0.01700X0.03850*%
%ADD38R,0.03543X0.08268*%
%ADD39R,0.12598X0.08268*%
%ADD40R,0.02362X0.05118*%
%ADD41R,0.03500X0.03500*%
%ADD42R,0.09843X0.05906*%
G04:AMPARAMS|DCode=43|XSize=20mil|YSize=20mil|CornerRadius=5mil|HoleSize=0mil|Usage=FLASHONLY|Rotation=90.000|XOffset=0mil|YOffset=0mil|HoleType=Round|Shape=RoundedRectangle|*
%AMROUNDEDRECTD43*
21,1,0.02000,0.01000,0,0,90.0*
21,1,0.01000,0.02000,0,0,90.0*
1,1,0.01000,0.00500,0.00500*
1,1,0.01000,0.00500,-0.00500*
1,1,0.01000,-0.00500,-0.00500*
1,1,0.01000,-0.00500,0.00500*
%
%ADD43ROUNDEDRECTD43*%
%ADD44O,0.00984X0.02756*%
%ADD45O,0.02756X0.00984*%
%ADD46R,0.10630X0.11024*%
%ADD47R,0.02362X0.01181*%
%ADD48R,0.02362X0.01575*%
%ADD49R,0.05118X0.04724*%
%ADD96C,0.06693*%
%ADD97R,0.06693X0.06693*%
%ADD98R,0.06693X0.06693*%
%ADD99C,0.09843*%
%ADD100C,0.02559*%
%ADD101O,0.03937X0.06299*%
%ADD102O,0.03937X0.08268*%
%ADD103C,0.06299*%
%ADD104R,0.06299X0.06299*%
%ADD105C,0.09055*%
%ADD106R,0.09055X0.09055*%
D20*
X19000Y63673D02*
D03*
Y60327D02*
D03*
X-7500Y129327D02*
D03*
Y132673D02*
D03*
X-4500Y136229D02*
D03*
X-4500Y139772D02*
D03*
X46500Y28327D02*
D03*
Y31673D02*
D03*
X41500D02*
D03*
Y28327D02*
D03*
X21500Y31673D02*
D03*
Y28327D02*
D03*
X31500Y31673D02*
D03*
Y28327D02*
D03*
X36500D02*
D03*
Y31673D02*
D03*
X51500D02*
D03*
Y28327D02*
D03*
X26500Y31673D02*
D03*
Y28327D02*
D03*
X-1000Y136500D02*
D03*
Y139847D02*
D03*
X29634Y109346D02*
D03*
X29634Y112889D02*
D03*
X25500Y109417D02*
D03*
Y112764D02*
D03*
X21500Y109319D02*
D03*
X21500Y112862D02*
D03*
X49500Y112862D02*
D03*
X49500Y109319D02*
D03*
X54500Y109319D02*
D03*
X54500Y112862D02*
D03*
D21*
X45933Y54500D02*
D03*
Y59500D02*
D03*
Y64500D02*
D03*
Y69500D02*
D03*
X25067Y54500D02*
D03*
Y59500D02*
D03*
Y64500D02*
D03*
Y69500D02*
D03*
D22*
X7728Y133591D02*
D03*
X11271Y133590D02*
D03*
X756Y115091D02*
D03*
X-2591D02*
D03*
X756Y120591D02*
D03*
X-2591D02*
D03*
X756Y126091D02*
D03*
X-2591D02*
D03*
X50181Y100090D02*
D03*
X46638Y100091D02*
D03*
X63736Y81295D02*
D03*
X60193Y81295D02*
D03*
X60291Y85295D02*
D03*
X63637D02*
D03*
X63736Y89295D02*
D03*
X60193Y89295D02*
D03*
X27729Y80795D02*
D03*
X31075D02*
D03*
X27729Y85193D02*
D03*
X31075D02*
D03*
X31272Y89590D02*
D03*
X27729Y89591D02*
D03*
X174771Y96500D02*
D03*
X171228Y96500D02*
D03*
X171229Y99500D02*
D03*
X174772Y99500D02*
D03*
X120772D02*
D03*
X117229Y99500D02*
D03*
X120771Y96500D02*
D03*
X117228Y96500D02*
D03*
X73772Y137500D02*
D03*
X70229Y137500D02*
D03*
X73173Y155500D02*
D03*
X69827D02*
D03*
X73272Y163181D02*
D03*
X69729Y163181D02*
D03*
X28272Y177590D02*
D03*
X24729Y177591D02*
D03*
D23*
X-5524Y34000D02*
D03*
D24*
X5500D02*
D03*
D25*
X18150Y133736D02*
D03*
Y135705D02*
D03*
Y137673D02*
D03*
Y139642D02*
D03*
Y141610D02*
D03*
Y143579D02*
D03*
Y145547D02*
D03*
Y147516D02*
D03*
Y149484D02*
D03*
Y151453D02*
D03*
Y153421D02*
D03*
Y155390D02*
D03*
Y157358D02*
D03*
Y159327D02*
D03*
Y161295D02*
D03*
Y163264D02*
D03*
X61850Y151453D02*
D03*
Y149484D02*
D03*
Y147516D02*
D03*
Y137673D02*
D03*
Y135705D02*
D03*
Y133736D02*
D03*
Y145547D02*
D03*
Y141610D02*
D03*
Y139642D02*
D03*
Y143579D02*
D03*
Y163264D02*
D03*
Y157358D02*
D03*
Y155390D02*
D03*
Y153421D02*
D03*
Y159327D02*
D03*
Y161295D02*
D03*
D26*
X25236Y170350D02*
D03*
X27205D02*
D03*
X29173D02*
D03*
X31142D02*
D03*
X33110D02*
D03*
X35079D02*
D03*
X37047D02*
D03*
X39016D02*
D03*
X40984D02*
D03*
X42953D02*
D03*
X44921D02*
D03*
X46890D02*
D03*
X48858D02*
D03*
X50827D02*
D03*
X52795D02*
D03*
X54764D02*
D03*
Y126650D02*
D03*
X52795D02*
D03*
X50827D02*
D03*
X48858D02*
D03*
X46890D02*
D03*
X44921D02*
D03*
X42953D02*
D03*
X40984D02*
D03*
X39016D02*
D03*
X37047D02*
D03*
X35079D02*
D03*
X33110D02*
D03*
X31142D02*
D03*
X29173D02*
D03*
X27205D02*
D03*
X25236D02*
D03*
D27*
X107000Y104886D02*
D03*
Y102327D02*
D03*
Y86972D02*
D03*
Y89531D02*
D03*
Y92091D02*
D03*
Y107445D02*
D03*
Y81854D02*
D03*
Y84413D02*
D03*
X77866Y81854D02*
D03*
Y84413D02*
D03*
Y107445D02*
D03*
Y104886D02*
D03*
Y102327D02*
D03*
Y99768D02*
D03*
Y97209D02*
D03*
Y94650D02*
D03*
Y92091D02*
D03*
Y89531D02*
D03*
Y86972D02*
D03*
X107000Y110004D02*
D03*
Y99768D02*
D03*
Y97209D02*
D03*
Y94650D02*
D03*
X161567Y94720D02*
D03*
Y97280D02*
D03*
Y99839D02*
D03*
Y110075D02*
D03*
X132433Y87043D02*
D03*
Y89602D02*
D03*
Y92161D02*
D03*
Y94720D02*
D03*
Y97280D02*
D03*
Y99839D02*
D03*
Y102398D02*
D03*
Y104957D02*
D03*
Y107516D02*
D03*
Y84484D02*
D03*
Y81925D02*
D03*
X161567Y84484D02*
D03*
Y81925D02*
D03*
Y107516D02*
D03*
Y92161D02*
D03*
Y89602D02*
D03*
Y87043D02*
D03*
Y102398D02*
D03*
Y104957D02*
D03*
D28*
X77866Y110004D02*
D03*
X132433Y110075D02*
D03*
D29*
X-4964Y75323D02*
D03*
X11965D02*
D03*
X-4964Y66858D02*
D03*
X11965D02*
D03*
Y82858D02*
D03*
X-4964D02*
D03*
X11965Y91323D02*
D03*
X-4964D02*
D03*
X11965Y98768D02*
D03*
X-4964D02*
D03*
X11965Y107232D02*
D03*
X-4964D02*
D03*
D30*
X6000Y50181D02*
D03*
D31*
X-3150Y44276D02*
D03*
Y46244D02*
D03*
Y48213D02*
D03*
Y50181D02*
D03*
Y52150D02*
D03*
Y54118D02*
D03*
Y56087D02*
D03*
X15150D02*
D03*
Y54118D02*
D03*
Y52150D02*
D03*
Y50181D02*
D03*
Y48213D02*
D03*
Y46244D02*
D03*
Y44276D02*
D03*
D32*
X95Y59331D02*
D03*
X2063D02*
D03*
X4032D02*
D03*
X6000D02*
D03*
X7969D02*
D03*
X9937D02*
D03*
X11906D02*
D03*
Y41031D02*
D03*
X9937D02*
D03*
X7969D02*
D03*
X6000D02*
D03*
X4032D02*
D03*
X2063D02*
D03*
X95D02*
D03*
D33*
X33984Y16512D02*
D03*
X32016D02*
D03*
X46189D02*
D03*
X45008D02*
D03*
X43039D02*
D03*
X41858D02*
D03*
X39890D02*
D03*
X37921D02*
D03*
X35953D02*
D03*
X30047D02*
D03*
X28079D02*
D03*
X26110D02*
D03*
X24142D02*
D03*
X22961D02*
D03*
X20992D02*
D03*
X19811D02*
D03*
D34*
X91000Y37441D02*
D03*
Y42559D02*
D03*
X101000Y42559D02*
D03*
Y37441D02*
D03*
X102500Y64559D02*
D03*
Y59441D02*
D03*
X107500Y64559D02*
D03*
Y59441D02*
D03*
X59900Y27421D02*
D03*
Y22303D02*
D03*
X78701D02*
D03*
Y27421D02*
D03*
X74000Y22303D02*
D03*
Y27421D02*
D03*
X64600Y22303D02*
D03*
Y27421D02*
D03*
D35*
X107559Y55000D02*
D03*
X102441D02*
D03*
X127059Y23000D02*
D03*
X121941D02*
D03*
X127059Y30000D02*
D03*
X121941D02*
D03*
X115941Y55000D02*
D03*
X121059D02*
D03*
X94559Y74000D02*
D03*
X89441D02*
D03*
X83559Y68500D02*
D03*
X78441D02*
D03*
X83559Y74000D02*
D03*
X78440D02*
D03*
X168941Y85500D02*
D03*
X174059D02*
D03*
X168941Y81000D02*
D03*
X174059D02*
D03*
X114441Y80000D02*
D03*
X119559D02*
D03*
X114441Y84500D02*
D03*
X119559D02*
D03*
D36*
X108760Y23000D02*
D03*
X116240D02*
D03*
X108760Y30000D02*
D03*
X116240D02*
D03*
D37*
X107661Y47875D02*
D03*
X110220D02*
D03*
X112780D02*
D03*
X115339D02*
D03*
Y37125D02*
D03*
X112780D02*
D03*
X110220D02*
D03*
X107661D02*
D03*
D38*
X58445Y37870D02*
D03*
X67500D02*
D03*
X76555D02*
D03*
D39*
X67500Y60311D02*
D03*
D40*
X28500Y46134D02*
D03*
X32240Y37866D02*
D03*
X24760D02*
D03*
X40260Y37732D02*
D03*
X47740D02*
D03*
X44000Y46000D02*
D03*
D41*
X84500Y27091D02*
D03*
Y20091D02*
D03*
D42*
X131500Y49890D02*
D03*
Y36110D02*
D03*
D43*
X4583Y126091D02*
D03*
X8583D02*
D03*
X4583Y120591D02*
D03*
X8583D02*
D03*
X4583Y115091D02*
D03*
X8583D02*
D03*
D44*
X40488Y78323D02*
D03*
X42457D02*
D03*
X44425D02*
D03*
X46394D02*
D03*
X48362D02*
D03*
X50331D02*
D03*
Y94858D02*
D03*
X48362D02*
D03*
X46394D02*
D03*
X44425D02*
D03*
X42457D02*
D03*
X40488D02*
D03*
D45*
X53677Y81669D02*
D03*
Y83638D02*
D03*
Y85606D02*
D03*
Y87575D02*
D03*
Y89543D02*
D03*
Y91512D02*
D03*
X37142D02*
D03*
Y89543D02*
D03*
Y87575D02*
D03*
Y85606D02*
D03*
Y83638D02*
D03*
Y81669D02*
D03*
D46*
X45409Y86591D02*
D03*
D47*
X168563Y109724D02*
D03*
Y107756D02*
D03*
X172500D02*
D03*
Y109724D02*
D03*
X117937D02*
D03*
Y107756D02*
D03*
X114000D02*
D03*
Y109724D02*
D03*
D48*
X168563Y111890D02*
D03*
Y105591D02*
D03*
X172500D02*
D03*
Y111890D02*
D03*
X117937D02*
D03*
Y105591D02*
D03*
X114000D02*
D03*
Y111890D02*
D03*
D49*
X43768Y114193D02*
D03*
X35500D02*
D03*
Y107500D02*
D03*
X43768D02*
D03*
D96*
X18000Y185500D02*
D03*
X28000D02*
D03*
X38000D02*
D03*
X5500Y14500D02*
D03*
X113000Y167091D02*
D03*
Y157091D02*
D03*
Y147091D02*
D03*
Y137091D02*
D03*
Y177091D02*
D03*
X-500Y149000D02*
D03*
Y159000D02*
D03*
Y169000D02*
D03*
X88000Y177091D02*
D03*
Y137091D02*
D03*
Y147091D02*
D03*
Y157091D02*
D03*
Y167091D02*
D03*
X-4500Y24500D02*
D03*
X163000Y177091D02*
D03*
Y137091D02*
D03*
Y147091D02*
D03*
Y157091D02*
D03*
Y167091D02*
D03*
X138000Y177091D02*
D03*
Y137091D02*
D03*
Y147091D02*
D03*
Y157091D02*
D03*
Y167091D02*
D03*
X163500Y39591D02*
D03*
Y49591D02*
D03*
Y59591D02*
D03*
Y69591D02*
D03*
X153500Y39591D02*
D03*
Y49591D02*
D03*
Y59591D02*
D03*
Y69591D02*
D03*
X173500D02*
D03*
Y59591D02*
D03*
Y49591D02*
D03*
Y39591D02*
D03*
D97*
X48000Y185500D02*
D03*
X113000Y127091D02*
D03*
X88000Y127091D02*
D03*
X163000D02*
D03*
X138000D02*
D03*
D98*
X5500Y24500D02*
D03*
X-500Y179000D02*
D03*
X-4500Y14500D02*
D03*
X163500Y29591D02*
D03*
X153500D02*
D03*
X173500D02*
D03*
D99*
X84996Y-410D02*
D03*
X103500D02*
D03*
X66492D02*
D03*
D100*
X21622Y10449D02*
D03*
X44378D02*
D03*
D101*
X50027Y-3331D02*
D03*
X15972D02*
D03*
D102*
X50027Y12417D02*
D03*
X15972D02*
D03*
D103*
X74500Y194000D02*
D03*
Y204000D02*
D03*
X94500D02*
D03*
Y194000D02*
D03*
X104500D02*
D03*
Y204000D02*
D03*
X114500Y194000D02*
D03*
Y204000D02*
D03*
X124500Y194000D02*
D03*
Y204000D02*
D03*
X134500Y194000D02*
D03*
Y204000D02*
D03*
X144500Y194000D02*
D03*
Y204000D02*
D03*
X154500Y194000D02*
D03*
X84500Y204000D02*
D03*
Y194000D02*
D03*
X64500Y204000D02*
D03*
Y194000D02*
D03*
D104*
X154500Y204000D02*
D03*
D105*
X148000Y-909D02*
D03*
D106*
X128000D02*
D03*
M02*
