G04*
G04 #@! TF.GenerationSoftware,Altium Limited,Altium Designer,21.5.1 (32)*
G04*
G04 Layer_Color=255*
%FSLAX25Y25*%
%MOIN*%
G70*
G04*
G04 #@! TF.SameCoordinates,8B6BA037-C385-438B-B8BE-B681DC7B7FEC*
G04*
G04*
G04 #@! TF.FilePolarity,Positive*
G04*
G01*
G75*
%ADD96C,0.06693*%
%ADD97R,0.06693X0.06693*%
%ADD98R,0.06693X0.06693*%
%ADD99C,0.09843*%
%ADD100C,0.02559*%
%ADD101O,0.03937X0.06299*%
%ADD102O,0.03937X0.08268*%
%ADD103C,0.06299*%
%ADD104R,0.06299X0.06299*%
%ADD105C,0.09055*%
%ADD106R,0.09055X0.09055*%
%ADD110C,0.03937*%
%ADD111C,0.02362*%
D96*
X18000Y185500D02*
D03*
X28000D02*
D03*
X38000D02*
D03*
X5500Y14500D02*
D03*
X113000Y167091D02*
D03*
Y157091D02*
D03*
Y147091D02*
D03*
Y137091D02*
D03*
Y177091D02*
D03*
X-500Y149000D02*
D03*
Y159000D02*
D03*
Y169000D02*
D03*
X88000Y177091D02*
D03*
Y137091D02*
D03*
Y147091D02*
D03*
Y157091D02*
D03*
Y167091D02*
D03*
X-4500Y24500D02*
D03*
X163000Y177091D02*
D03*
Y137091D02*
D03*
Y147091D02*
D03*
Y157091D02*
D03*
Y167091D02*
D03*
X138000Y177091D02*
D03*
Y137091D02*
D03*
Y147091D02*
D03*
Y157091D02*
D03*
Y167091D02*
D03*
X163500Y39591D02*
D03*
Y49591D02*
D03*
Y59591D02*
D03*
Y69591D02*
D03*
X153500Y39591D02*
D03*
Y49591D02*
D03*
Y59591D02*
D03*
Y69591D02*
D03*
X173500D02*
D03*
Y59591D02*
D03*
Y49591D02*
D03*
Y39591D02*
D03*
D97*
X48000Y185500D02*
D03*
X113000Y127091D02*
D03*
X88000Y127091D02*
D03*
X163000D02*
D03*
X138000D02*
D03*
D98*
X5500Y24500D02*
D03*
X-500Y179000D02*
D03*
X-4500Y14500D02*
D03*
X163500Y29591D02*
D03*
X153500D02*
D03*
X173500D02*
D03*
D99*
X84996Y-410D02*
D03*
X103500D02*
D03*
X66492D02*
D03*
D100*
X21622Y10449D02*
D03*
X44378D02*
D03*
D101*
X50027Y-3331D02*
D03*
X15972D02*
D03*
D102*
X50027Y12417D02*
D03*
X15972D02*
D03*
D103*
X74500Y194000D02*
D03*
Y204000D02*
D03*
X94500D02*
D03*
Y194000D02*
D03*
X104500D02*
D03*
Y204000D02*
D03*
X114500Y194000D02*
D03*
Y204000D02*
D03*
X124500Y194000D02*
D03*
Y204000D02*
D03*
X134500Y194000D02*
D03*
Y204000D02*
D03*
X144500Y194000D02*
D03*
Y204000D02*
D03*
X154500Y194000D02*
D03*
X84500Y204000D02*
D03*
Y194000D02*
D03*
X64500Y204000D02*
D03*
Y194000D02*
D03*
D104*
X154500Y204000D02*
D03*
D105*
X148000Y-909D02*
D03*
D106*
X128000D02*
D03*
D110*
X80963Y10500D02*
D03*
X88500D02*
D03*
X96037D02*
D03*
X73111D02*
D03*
X103574D02*
D03*
D111*
X72000Y177000D02*
D03*
Y172000D02*
D03*
X15500Y75500D02*
D03*
Y70500D02*
D03*
X33000Y75500D02*
D03*
Y70500D02*
D03*
X48500D02*
D03*
Y75500D02*
D03*
X40500Y70500D02*
D03*
Y75500D02*
D03*
X23500D02*
D03*
Y70500D02*
D03*
M02*
