M48
;Layer_Color=9474304
;FILE_FORMAT=2:5
INCH,TZ
;TYPE=PLATED
T1F00S00C0.01000
T2F00S00C0.01200
T3F00S00C0.01500
T5F00S00C0.02559
T6F00S00C0.03543
T7F00S00C0.04724
T8F00S00C0.06693
T9F00S00C0.12598
%
T01
X-1000Y23000
X3181Y33862
Y36681
Y39500
X6000
X8819
Y36681
Y33862
X6000
Y36681
X-7688Y36667
X-7700Y34567
X15000Y47000
X27000Y50500
X25000Y27500
X30010Y20224
X34000Y20500
X16500Y19000
X49500Y19500
X93500Y46500
X112500Y52000
X114000Y90000
X101000Y89531
Y86972
Y92091
X100300Y95500
Y99500
X101000Y102327
Y104886
X100913Y107358
X112000Y103000
X114500Y103131
X112500Y122000
X108951Y120466
X107000Y134000
X95500Y132500
X95000Y145000
X94500Y162500
Y167000
Y171500
X74000Y174500
X71500Y176500
X67500
X68850Y174500
X65500
X55000Y175091
X53000Y176091
X59500Y168000
X56310Y159900
X55700Y157891
X55500Y154591
X52000Y155091
X53000Y159091
X51000Y162591
X48833Y164257
X47000Y162591
X45000Y164091
X41000Y159591
X47000Y151091
X45500Y149591
X51686Y147427
X54000Y146810
X69500Y147000
X71500Y145000
X73500Y151000
X67894
X66950Y153000
X73500Y160000
Y182291
X78000Y180500
X68000Y206000
X76500Y139500
X83000Y135000
X56500Y122191
X54561Y122997
X57500Y120000
X59500Y119000
X58485Y116741
X61417Y117007
X63500Y106000
X54500Y105500
X49500Y107500
X43768
X40500Y98591
X58000Y95091
X72000Y89500
Y86500
X83000Y87500
X85914Y79300
X91500Y80500
X127000Y87000
X137500Y89000
X139500Y90291
X156000Y89602
Y92161
X155500Y95500
Y99000
X156000Y102398
Y104957
Y107516
X166369Y103975
X168500Y103091
X163000Y114591
X164000Y116591
X156000Y87043
X173500Y88500
X171000Y162500
Y167000
Y171500
X145500
Y167000
Y162500
X121500
Y167000
Y171500
X41000Y142091
X43000Y135591
X46125Y132410
X33500Y133091
X30000Y133591
X22500Y131091
X20400
X7000Y132500
X2874Y136000
X7000Y146591
X8500Y149591
X10500Y153091
X10850Y163500
X12500Y165500
X14745Y163356
X19500Y171500
X27500Y166500
X30000Y165000
X32500Y159000
X30000Y151091
X28515Y152575
X24500Y155500
X30500Y145591
X32850Y143091
X39000
X31000Y121091
X29000Y119091
X27000Y117091
X29538Y114962
X29475Y103615
X29500Y100500
X37000Y96591
X34000Y85091
Y81591
X23500Y94000
X12000Y94591
X10000Y86000
X3000
X-6500Y86091
X-3000Y94500
X-7000Y103591
X-6000Y110000
X11500Y108500
X13350Y116500
X15150Y119091
X16650Y117606
X18800Y105741
X21500
X22000Y108000
X8500Y123500
X6000Y176091
X4000Y183500
X11500Y184000
X17500
X14000Y190000
X28500Y188000
X28000Y183500
X31000Y176000
X36500Y176394
X33500Y199000
X18000Y207000
X9000Y202091
X20500Y67000
T02
X5500Y-8500
X26000Y-3500
X37500
X44500Y2500
X62587Y6887
X74500Y11500
X77500
X80500
X84000
X88121Y12379
X89000Y15000
Y18000
Y21500
Y24500
X80000Y31000
X77000
X73500
Y35500
Y40000
X79500Y47500
Y52500
Y57500
X64500Y54500
Y51000
X61000
X57500
Y54500
X61000
X51500Y42500
Y39500
Y36500
Y33500
Y30500
Y27500
X48000
Y30500
Y33500
Y36500
Y39500
Y42500
X44500
Y39500
Y36500
Y33500
Y30500
Y27500
X98500Y37500
Y40500
Y43500
Y46500
Y54500
X118500Y37500
Y34500
X121500
Y37500
Y26500
X118500
X129500
X131000Y19500
Y16000
X134500
X137500
Y19500
X134500
X127500
Y16000
X128000Y11000
X124500Y7000
X118000Y10000
X114500Y-1000
X93500Y500
X79500Y-8500
X137500Y2500
Y11000
X144000Y7000
X149500Y12500
X156000Y10000
X160000Y13500
X166000
X170500Y19000
X174500Y19500
X175000Y10500
X158500Y4500
X111000Y64500
X84000Y62500
X78500
X71500Y65500
X68000
Y69500
X71500
Y73500
X68000
X61000Y72500
X57500
Y69000
Y65500
X61000
Y69000
X57500Y60000
X43500Y121000
X42000Y199000
X49500Y207000
X60000Y207500
X95500Y177500
X95000Y156500
X122000Y156000
X122500Y177500
X147000Y178500
X146500Y156000
X171500
X172500Y179500
X175500Y191500
X163649Y206709
X121500Y90000
X8500Y76500
X3500
X-1500
X0Y69500
X6000
X3500Y60000
X500Y96000
X-7000Y116500
X-6500Y122500
X-5000Y144000
X-6000Y166000
X-8186Y193803
X-7000Y204500
X1500Y208500
X9500Y207500
X18000Y199000
X26500
X28500Y207000
X38500
T03
X27000Y3591
X29500Y3500
X32000
X20500Y28500
X18000
X15500
T05
X21622Y10449
X44378
T06
X153500Y29591
X163500
Y39591
Y49591
X153500
Y39591
X173500
Y49591
Y29591
Y59591
X163500
Y69591
X153500
Y59591
X173500Y69591
X163000Y127091
Y137091
Y147091
Y157091
Y167091
Y177091
X138000
Y167091
Y157091
Y147091
Y137091
Y127091
X113000
Y137091
Y147091
Y157091
Y167091
Y177091
X113500Y193091
Y203091
X103500
X93500
X83500
Y193091
X93500
X103500
X123500
Y203091
X133500
Y193091
X143500
X153500
Y203091
X143500
X88000Y177091
Y167091
Y157091
Y147091
Y137091
Y127091
X53500Y185591
X43500
X33500
X23500
X-1500Y179091
Y169091
Y159091
Y149091
T07
X128000Y-909
X148000
T08
X66492Y-410
X84996
X103500
T09
X0Y0
X167220
Y198091
X0
M30
