G04*
G04 #@! TF.GenerationSoftware,Altium Limited,Altium Designer,21.5.1 (32)*
G04*
G04 Layer_Color=16711935*
%FSLAX25Y25*%
%MOIN*%
G70*
G04*
G04 #@! TF.SameCoordinates,F71DC00D-139D-4494-AD50-9C341566DFA8*
G04*
G04*
G04 #@! TF.FilePolarity,Negative*
G04*
G01*
G75*
%ADD78R,0.07293X0.07293*%
%ADD79C,0.07293*%
%ADD80O,0.04537X0.08868*%
%ADD81O,0.04537X0.06899*%
%ADD82C,0.03159*%
%ADD83C,0.00600*%
%ADD84C,0.10443*%
%ADD85C,0.09655*%
%ADD86R,0.09655X0.09655*%
%ADD87R,0.07293X0.07293*%
%ADD88C,0.06899*%
%ADD89R,0.06899X0.06899*%
D78*
X163500Y29591D02*
D03*
X153500D02*
D03*
X173500D02*
D03*
X-1500Y179091D02*
D03*
D79*
X163500Y39591D02*
D03*
Y49591D02*
D03*
Y59591D02*
D03*
Y69591D02*
D03*
X153500Y39591D02*
D03*
Y49591D02*
D03*
Y59591D02*
D03*
Y69591D02*
D03*
X173500D02*
D03*
Y59591D02*
D03*
Y49591D02*
D03*
Y39591D02*
D03*
X-1500Y169091D02*
D03*
Y159091D02*
D03*
Y149091D02*
D03*
X23500Y185591D02*
D03*
X33500D02*
D03*
X43500D02*
D03*
X163000Y177091D02*
D03*
Y137091D02*
D03*
Y147091D02*
D03*
Y157091D02*
D03*
Y167091D02*
D03*
X138000Y177091D02*
D03*
Y137091D02*
D03*
Y147091D02*
D03*
Y157091D02*
D03*
Y167091D02*
D03*
X113000Y177091D02*
D03*
Y137091D02*
D03*
Y147091D02*
D03*
Y157091D02*
D03*
Y167091D02*
D03*
X88000Y177091D02*
D03*
Y137091D02*
D03*
Y147091D02*
D03*
Y157091D02*
D03*
Y167091D02*
D03*
D80*
X15972Y12417D02*
D03*
X50027D02*
D03*
D81*
X15972Y-3331D02*
D03*
X50027D02*
D03*
D82*
X44378Y10449D02*
D03*
X21622D02*
D03*
D83*
X0Y0D02*
D03*
X167220D02*
D03*
X0Y198091D02*
D03*
X167220D02*
D03*
D84*
X66492Y-410D02*
D03*
X103500D02*
D03*
X84996D02*
D03*
D85*
X148000Y-909D02*
D03*
D86*
X128000D02*
D03*
D87*
X53500Y185591D02*
D03*
X163000Y127091D02*
D03*
X138000D02*
D03*
X113000D02*
D03*
X88000D02*
D03*
D88*
X153500Y193091D02*
D03*
X113500D02*
D03*
Y203091D02*
D03*
X103500D02*
D03*
X93500D02*
D03*
X83500D02*
D03*
X123500Y193091D02*
D03*
Y203091D02*
D03*
X133500D02*
D03*
Y193091D02*
D03*
X143500D02*
D03*
Y203091D02*
D03*
X103500Y193091D02*
D03*
X93500D02*
D03*
X83500D02*
D03*
D89*
X153500Y203091D02*
D03*
M02*
