G04*
G04 #@! TF.GenerationSoftware,Altium Limited,Altium Designer,21.5.1 (32)*
G04*
G04 Layer_Color=128*
%FSLAX25Y25*%
%MOIN*%
G70*
G04*
G04 #@! TF.SameCoordinates,59A7A052-2F67-4F9E-8211-76AB7E63ABF4*
G04*
G04*
G04 #@! TF.FilePolarity,Positive*
G04*
G01*
G75*
%ADD10C,0.00000*%
%ADD11C,0.00236*%
%ADD12C,0.00394*%
%ADD13C,0.00591*%
%ADD14C,0.00200*%
%ADD15C,0.00100*%
%ADD16C,0.00197*%
%ADD17C,0.00158*%
G36*
X4083Y127291D02*
Y127191D01*
X4007Y127007D01*
X3866Y126867D01*
X3682Y126791D01*
X3083D01*
Y127791D01*
X4083D01*
Y127291D01*
D02*
G37*
G36*
Y121791D02*
Y121691D01*
X4007Y121507D01*
X3866Y121367D01*
X3682Y121291D01*
X3083D01*
Y122291D01*
X4083D01*
Y121791D01*
D02*
G37*
G36*
Y116291D02*
Y116191D01*
X4007Y116007D01*
X3866Y115867D01*
X3682Y115791D01*
X3083D01*
Y116791D01*
X4083D01*
Y116291D01*
D02*
G37*
G36*
X11768Y88201D02*
X-4767D01*
Y100799D01*
X11768D01*
Y88201D01*
D02*
G37*
G36*
Y71292D02*
X-4767D01*
Y83890D01*
X11768D01*
Y71292D01*
D02*
G37*
G36*
Y54291D02*
X-4767D01*
Y66890D01*
X11768D01*
Y54291D01*
D02*
G37*
D10*
X-3850Y41987D02*
Y43187D01*
Y41987D02*
Y43187D01*
Y40018D02*
Y41218D01*
Y40018D02*
Y41218D01*
Y38050D02*
Y39250D01*
Y38050D02*
Y39250D01*
Y36081D02*
Y37281D01*
Y36081D02*
Y37281D01*
Y34113D02*
Y35313D01*
Y34113D02*
Y35313D01*
Y32144D02*
Y33344D01*
Y32144D02*
Y33344D01*
Y30176D02*
Y31376D01*
Y30176D02*
Y31376D01*
X-505Y26831D02*
X695D01*
X-505D02*
X695D01*
X1463D02*
X2663D01*
X1463D02*
X2663D01*
X3432D02*
X4632D01*
X3432D02*
X4632D01*
X5400D02*
X6600D01*
X5400D02*
X6600D01*
X7369D02*
X8569D01*
X7369D02*
X8569D01*
X9337D02*
X10537D01*
X9337D02*
X10537D01*
X11306D02*
X12506D01*
X11306D02*
X12506D01*
X15850Y30176D02*
Y31376D01*
Y30176D02*
Y31376D01*
Y32144D02*
Y33344D01*
Y32144D02*
Y33344D01*
Y34113D02*
Y35313D01*
Y34113D02*
Y35313D01*
Y36081D02*
Y37281D01*
Y36081D02*
Y37281D01*
Y38050D02*
Y39250D01*
Y38050D02*
Y39250D01*
Y40018D02*
Y41218D01*
Y40018D02*
Y41218D01*
Y41987D02*
Y43187D01*
Y41987D02*
Y43187D01*
X11306Y46531D02*
X12506D01*
X11306D02*
X12506D01*
X9337D02*
X10537D01*
X9337D02*
X10537D01*
X7369D02*
X8569D01*
X7369D02*
X8569D01*
X5400D02*
X6600D01*
X5400D02*
X6600D01*
X3432D02*
X4632D01*
X3432D02*
X4632D01*
X1463D02*
X2663D01*
X1463D02*
X2663D01*
X-505D02*
X695D01*
X-505D02*
X695D01*
X15850Y26831D02*
Y46531D01*
X-3850D02*
X15850D01*
X-3850Y26831D02*
Y46531D01*
Y26831D02*
X15850D01*
D11*
X-4650Y54291D02*
G03*
X-4650Y54291I-118J0D01*
G01*
Y71291D02*
G03*
X-4650Y71291I-118J0D01*
G01*
Y88200D02*
G03*
X-4650Y88200I-118J0D01*
G01*
D12*
X108596Y41351D02*
G03*
X108596Y41351I-1000J0D01*
G01*
X25827Y132358D02*
G03*
X25827Y132358I-1969J0D01*
G01*
X117406Y39352D02*
Y45651D01*
X105595Y39352D02*
Y45651D01*
X117406D01*
X105595Y39352D02*
X117406D01*
X54311Y41807D02*
X80689D01*
X54311Y56374D02*
X80689D01*
X54311Y41807D02*
Y56374D01*
X80689Y41807D02*
Y56374D01*
X35969Y57539D02*
Y63051D01*
X24000Y57539D02*
Y63051D01*
X35969D01*
X24000Y57539D02*
X35969D01*
X39500D02*
X51469D01*
X39500Y63051D02*
X51469D01*
X39500Y57539D02*
Y63051D01*
X51469Y57539D02*
Y63051D01*
X20315Y128815D02*
X59685D01*
X20315Y168185D02*
X59685D01*
X20315Y128815D02*
Y168185D01*
X59685Y128815D02*
Y168185D01*
X118001Y34626D02*
Y50374D01*
X105001Y34626D02*
Y50374D01*
X118001D01*
X105001Y34626D02*
X118001D01*
X53917Y33343D02*
X81083D01*
X53917Y64839D02*
X81083D01*
X53917Y33343D02*
Y64839D01*
X81083Y33343D02*
Y64839D01*
X67500Y47122D02*
Y51059D01*
X65531Y49091D02*
X69469D01*
X28016Y60295D02*
X31953D01*
X29984Y58327D02*
Y62264D01*
X45484Y58327D02*
Y62264D01*
X43516Y60295D02*
X47453D01*
X33795Y74976D02*
X57024D01*
X33795Y98205D02*
X57024D01*
X33795Y74976D02*
Y98205D01*
X57024Y74976D02*
Y98205D01*
X45409Y84622D02*
Y88559D01*
X43441Y86591D02*
X47378D01*
X127500Y79000D02*
Y113000D01*
Y79000D02*
X166500D01*
Y113000D01*
X127500D02*
X166500D01*
X72933Y78929D02*
Y112929D01*
Y78929D02*
X111933D01*
Y112929D01*
X72933D02*
X111933D01*
X40000Y146532D02*
Y150469D01*
X38031Y148500D02*
X41969D01*
D13*
X142050Y108500D02*
G03*
X142050Y108500I-2550J0D01*
G01*
X87483Y108429D02*
G03*
X87483Y108429I-2550J0D01*
G01*
X135780Y79661D02*
Y112339D01*
X158220D01*
Y79661D02*
Y112339D01*
X135780Y79661D02*
X158220D01*
X81213Y79591D02*
Y112268D01*
X103654D01*
Y79591D02*
Y112268D01*
X81213Y79591D02*
X103654D01*
D14*
X4614Y125106D02*
Y127075D01*
X8551Y125106D02*
Y127075D01*
X4614D02*
X8551D01*
X4614Y125106D02*
X8551D01*
X6583Y125491D02*
Y126691D01*
X5983Y126091D02*
X7183D01*
X4614Y119606D02*
Y121575D01*
X8551Y119606D02*
Y121575D01*
X4614D02*
X8551D01*
X4614Y119606D02*
X8551D01*
X6583Y119991D02*
Y121191D01*
X5983Y120591D02*
X7183D01*
X4614Y114106D02*
Y116075D01*
X8551Y114106D02*
Y116075D01*
X4614D02*
X8551D01*
X4614Y114106D02*
X8551D01*
X6583Y114491D02*
Y115691D01*
X5983Y115091D02*
X7183D01*
X3083Y127791D02*
X10083D01*
Y124391D02*
Y127791D01*
X3083Y124391D02*
Y127791D01*
Y124391D02*
X10083D01*
X3083Y122291D02*
X10083D01*
Y118891D02*
Y122291D01*
X3083Y118891D02*
Y122291D01*
Y118891D02*
X10083D01*
X3083Y116791D02*
X10083D01*
Y113391D02*
Y116791D01*
X3083Y113391D02*
Y116791D01*
Y113391D02*
X10083D01*
X84500Y23591D02*
X85000D01*
X84000D02*
X84500D01*
Y23091D02*
Y24091D01*
X161728Y29591D02*
X165272D01*
X163500Y27819D02*
Y31362D01*
X161728Y39591D02*
X165272D01*
X163500Y37819D02*
Y41362D01*
X161728Y49591D02*
X165272D01*
X163500Y47819D02*
Y51362D01*
X161728Y59591D02*
X165272D01*
X163500Y57819D02*
Y61362D01*
X161728Y69591D02*
X165272D01*
X163500Y67819D02*
Y71362D01*
X151728Y29591D02*
X155272D01*
X153500Y27819D02*
Y31362D01*
X151728Y39591D02*
X155272D01*
X153500Y37819D02*
Y41362D01*
X151728Y49591D02*
X155272D01*
X153500Y47819D02*
Y51362D01*
X151728Y59591D02*
X155272D01*
X153500Y57819D02*
Y61362D01*
X151728Y69591D02*
X155272D01*
X153500Y67819D02*
Y71362D01*
X14791Y12417D02*
X17154D01*
X15972Y11236D02*
Y13598D01*
X48846Y12417D02*
X51209D01*
X50027Y11236D02*
Y13598D01*
X14791Y-3331D02*
X17154D01*
X15972Y-4512D02*
Y-2150D01*
X48846Y-3331D02*
X51209D01*
X50027Y-4512D02*
Y-2150D01*
X43098Y10449D02*
X45657D01*
X44378Y9169D02*
Y11728D01*
X20343Y10449D02*
X22901D01*
X21622Y9169D02*
Y11728D01*
X-6299Y0D02*
X6299D01*
X0Y-6299D02*
Y6299D01*
X63146Y-410D02*
X69839D01*
X66492Y-3756D02*
Y2937D01*
X100154Y-410D02*
X106846D01*
X103500Y-3756D02*
Y2937D01*
X81650Y-410D02*
X88343D01*
X84996Y-3756D02*
Y2937D01*
X145638Y-909D02*
X150362D01*
X148000Y-3272D02*
Y1453D01*
X125638Y-909D02*
X130362D01*
X128000Y-3272D02*
Y1453D01*
X160921Y0D02*
X173520D01*
X167220Y-6299D02*
Y6299D01*
X171728Y69591D02*
X175272D01*
X173500Y67819D02*
Y71362D01*
X171728Y59591D02*
X175272D01*
X173500Y57819D02*
Y61362D01*
X171728Y49591D02*
X175272D01*
X173500Y47819D02*
Y51362D01*
X171728Y39591D02*
X175272D01*
X173500Y37819D02*
Y41362D01*
X171728Y29591D02*
X175272D01*
X173500Y27819D02*
Y31362D01*
X-3272Y179091D02*
X272D01*
X-1500Y177319D02*
Y180862D01*
X-3272Y169091D02*
X272D01*
X-1500Y167319D02*
Y170862D01*
X-3272Y159091D02*
X272D01*
X-1500Y157319D02*
Y160862D01*
X-3272Y149091D02*
X272D01*
X-1500Y147319D02*
Y150862D01*
X-6299Y198091D02*
X6299D01*
X0Y191791D02*
Y204390D01*
X160921Y198091D02*
X173520D01*
X167220Y191791D02*
Y204390D01*
X21728Y185591D02*
X25272D01*
X23500Y183819D02*
Y187362D01*
X31728Y185591D02*
X35272D01*
X33500Y183819D02*
Y187362D01*
X41728Y185591D02*
X45272D01*
X43500Y183819D02*
Y187362D01*
X51728Y185591D02*
X55272D01*
X53500Y183819D02*
Y187362D01*
X151728Y193091D02*
X155272D01*
X153500Y191319D02*
Y194862D01*
X111728Y193091D02*
X115272D01*
X113500Y191319D02*
Y194862D01*
X111728Y203091D02*
X115272D01*
X113500Y201319D02*
Y204862D01*
X101728Y203091D02*
X105272D01*
X103500Y201319D02*
Y204862D01*
X91728Y203091D02*
X95272D01*
X93500Y201319D02*
Y204862D01*
X81728Y203091D02*
X85272D01*
X83500Y201319D02*
Y204862D01*
X121728Y193091D02*
X125272D01*
X123500Y191319D02*
Y194862D01*
X121728Y203091D02*
X125272D01*
X123500Y201319D02*
Y204862D01*
X131728Y203091D02*
X135272D01*
X133500Y201319D02*
Y204862D01*
X131728Y193091D02*
X135272D01*
X133500Y191319D02*
Y194862D01*
X141728Y193091D02*
X145272D01*
X143500Y191319D02*
Y194862D01*
X141728Y203091D02*
X145272D01*
X143500Y201319D02*
Y204862D01*
X151728Y203091D02*
X155272D01*
X153500Y201319D02*
Y204862D01*
X101728Y193091D02*
X105272D01*
X103500Y191319D02*
Y194862D01*
X91728Y193091D02*
X95272D01*
X93500Y191319D02*
Y194862D01*
X81728Y193091D02*
X85272D01*
X83500Y191319D02*
Y194862D01*
X161228Y177091D02*
X164772D01*
X163000Y175319D02*
Y178862D01*
X161228Y127091D02*
X164772D01*
X163000Y125319D02*
Y128862D01*
X161228Y137091D02*
X164772D01*
X163000Y135319D02*
Y138862D01*
X161228Y147091D02*
X164772D01*
X163000Y145319D02*
Y148862D01*
X161228Y157091D02*
X164772D01*
X163000Y155319D02*
Y158862D01*
X161228Y167091D02*
X164772D01*
X163000Y165319D02*
Y168862D01*
X136228Y177091D02*
X139772D01*
X138000Y175319D02*
Y178862D01*
X136228Y127091D02*
X139772D01*
X138000Y125319D02*
Y128862D01*
X136228Y137091D02*
X139772D01*
X138000Y135319D02*
Y138862D01*
X136228Y147091D02*
X139772D01*
X138000Y145319D02*
Y148862D01*
X136228Y157091D02*
X139772D01*
X138000Y155319D02*
Y158862D01*
X136228Y167091D02*
X139772D01*
X138000Y165319D02*
Y168862D01*
X111228Y177091D02*
X114772D01*
X113000Y175319D02*
Y178862D01*
X111228Y127091D02*
X114772D01*
X113000Y125319D02*
Y128862D01*
X111228Y137091D02*
X114772D01*
X113000Y135319D02*
Y138862D01*
X111228Y147091D02*
X114772D01*
X113000Y145319D02*
Y148862D01*
X111228Y157091D02*
X114772D01*
X113000Y155319D02*
Y158862D01*
X111228Y167091D02*
X114772D01*
X113000Y165319D02*
Y168862D01*
X86228Y177091D02*
X89772D01*
X88000Y175319D02*
Y178862D01*
X86228Y127091D02*
X89772D01*
X88000Y125319D02*
Y128862D01*
X86228Y137091D02*
X89772D01*
X88000Y135319D02*
Y138862D01*
X86228Y147091D02*
X89772D01*
X88000Y145319D02*
Y148862D01*
X86228Y157091D02*
X89772D01*
X88000Y155319D02*
Y158862D01*
X86228Y167091D02*
X89772D01*
X88000Y165319D02*
Y168862D01*
X73900Y11500D02*
X75100D01*
X74500Y10900D02*
Y12100D01*
X76900Y11500D02*
X78100D01*
X77500Y10900D02*
Y12100D01*
X79900Y11500D02*
X81100D01*
X80500Y10900D02*
Y12100D01*
X83400Y11500D02*
X84600D01*
X84000Y10900D02*
Y12100D01*
X87521Y12379D02*
X88721D01*
X88121Y11779D02*
Y12979D01*
X88400Y15000D02*
X89600D01*
X89000Y14400D02*
Y15600D01*
X88400Y18000D02*
X89600D01*
X89000Y17400D02*
Y18600D01*
X88400Y21500D02*
X89600D01*
X89000Y20900D02*
Y22100D01*
X88400Y24500D02*
X89600D01*
X89000Y23900D02*
Y25100D01*
X79400Y31000D02*
X80600D01*
X80000Y30400D02*
Y31600D01*
X76400Y31000D02*
X77600D01*
X77000Y30400D02*
Y31600D01*
X72900Y31000D02*
X74100D01*
X73500Y30400D02*
Y31600D01*
X72900Y35500D02*
X74100D01*
X73500Y34900D02*
Y36100D01*
X72900Y40000D02*
X74100D01*
X73500Y39400D02*
Y40600D01*
X136900Y16000D02*
X138100D01*
X137500Y15400D02*
Y16600D01*
X133900Y16000D02*
X135100D01*
X134500Y15400D02*
Y16600D01*
X130400Y16000D02*
X131600D01*
X131000Y15400D02*
Y16600D01*
X126900Y16000D02*
X128100D01*
X127500Y15400D02*
Y16600D01*
X136900Y19500D02*
X138100D01*
X137500Y18900D02*
Y20100D01*
X133900Y19500D02*
X135100D01*
X134500Y18900D02*
Y20100D01*
X130400Y19500D02*
X131600D01*
X131000Y18900D02*
Y20100D01*
X126900Y19500D02*
X128100D01*
X127500Y18900D02*
Y20100D01*
X5400Y69500D02*
X6600D01*
X6000Y68900D02*
Y70100D01*
X-600Y69500D02*
X600D01*
X0Y68900D02*
Y70100D01*
X7900Y76500D02*
X9100D01*
X8500Y75900D02*
Y77100D01*
X-2100Y76500D02*
X-900D01*
X-1500Y75900D02*
Y77100D01*
X78900Y47500D02*
X80100D01*
X79500Y46900D02*
Y48100D01*
X78900Y52500D02*
X80100D01*
X79500Y51900D02*
Y53100D01*
X78900Y57500D02*
X80100D01*
X79500Y56900D02*
Y58100D01*
X83400Y62500D02*
X84600D01*
X84000Y61900D02*
Y63100D01*
X77900Y62500D02*
X79100D01*
X78500Y61900D02*
Y63100D01*
X159400Y13500D02*
X160600D01*
X160000Y12900D02*
Y14100D01*
X157900Y4500D02*
X159100D01*
X158500Y3900D02*
Y5100D01*
X169900Y19000D02*
X171100D01*
X170500Y18400D02*
Y19600D01*
X173900Y19500D02*
X175100D01*
X174500Y18900D02*
Y20100D01*
X155400Y10000D02*
X156600D01*
X156000Y9400D02*
Y10600D01*
X136900Y2500D02*
X138100D01*
X137500Y1900D02*
Y3100D01*
X136900Y11000D02*
X138100D01*
X137500Y10400D02*
Y11600D01*
X148900Y12500D02*
X150100D01*
X149500Y11900D02*
Y13100D01*
X127400Y11000D02*
X128600D01*
X128000Y10400D02*
Y11600D01*
X117400Y10000D02*
X118600D01*
X118000Y9400D02*
Y10600D01*
X2681Y33862D02*
X3681D01*
X3181Y33362D02*
Y34362D01*
X2681Y39500D02*
X3681D01*
X3181Y39000D02*
Y40000D01*
X2681Y36681D02*
X3681D01*
X3181Y36181D02*
Y37181D01*
X5500Y39500D02*
X6500D01*
X6000Y39000D02*
Y40000D01*
X8319Y39500D02*
X9319D01*
X8819Y39000D02*
Y40000D01*
X8319Y36681D02*
X9319D01*
X8819Y36181D02*
Y37181D01*
X8319Y33862D02*
X9319D01*
X8819Y33362D02*
Y34362D01*
X5500Y36681D02*
X6500D01*
X6000Y36181D02*
Y37181D01*
X5500Y33862D02*
X6500D01*
X6000Y33362D02*
Y34362D01*
X14750Y28500D02*
X16250D01*
X15500Y27750D02*
Y29250D01*
X50900Y27500D02*
X52100D01*
X51500Y26900D02*
Y28100D01*
X50900Y30500D02*
X52100D01*
X51500Y29900D02*
Y31100D01*
X50900Y33500D02*
X52100D01*
X51500Y32900D02*
Y34100D01*
X50900Y36500D02*
X52100D01*
X51500Y35900D02*
Y37100D01*
X50900Y39500D02*
X52100D01*
X51500Y38900D02*
Y40100D01*
X50900Y42500D02*
X52100D01*
X51500Y41900D02*
Y43100D01*
X47400Y27500D02*
X48600D01*
X48000Y26900D02*
Y28100D01*
X47400Y30500D02*
X48600D01*
X48000Y29900D02*
Y31100D01*
X47400Y33500D02*
X48600D01*
X48000Y32900D02*
Y34100D01*
X47400Y36500D02*
X48600D01*
X48000Y35900D02*
Y37100D01*
X47400Y39500D02*
X48600D01*
X48000Y38900D02*
Y40100D01*
X47400Y42500D02*
X48600D01*
X48000Y41900D02*
Y43100D01*
X43900Y42500D02*
X45100D01*
X44500Y41900D02*
Y43100D01*
X43900Y39500D02*
X45100D01*
X44500Y38900D02*
Y40100D01*
X43900Y36500D02*
X45100D01*
X44500Y35900D02*
Y37100D01*
X43900Y33500D02*
X45100D01*
X44500Y32900D02*
Y34100D01*
X43900Y30500D02*
X45100D01*
X44500Y29900D02*
Y31100D01*
X33500Y20500D02*
X34500D01*
X34000Y20000D02*
Y21000D01*
X17250Y28500D02*
X18750D01*
X18000Y27750D02*
Y29250D01*
X29510Y20224D02*
X30510D01*
X30010Y19724D02*
Y20724D01*
X24500Y27500D02*
X25500D01*
X25000Y27000D02*
Y28000D01*
X16000Y19000D02*
X17000D01*
X16500Y18500D02*
Y19500D01*
X93000Y46500D02*
X94000D01*
X93500Y46000D02*
Y47000D01*
X155000Y99000D02*
X156000D01*
X155500Y98500D02*
Y99500D01*
X155000Y95500D02*
X156000D01*
X155500Y95000D02*
Y96000D01*
Y107516D02*
X156500D01*
X156000Y107016D02*
Y108016D01*
X155500Y87043D02*
X156500D01*
X156000Y86543D02*
Y87543D01*
X155500Y92161D02*
X156500D01*
X156000Y91661D02*
Y92661D01*
X155500Y102398D02*
X156500D01*
X156000Y101898D02*
Y102898D01*
X155500Y104957D02*
X156500D01*
X156000Y104457D02*
Y105457D01*
X155500Y89602D02*
X156500D01*
X156000Y89102D02*
Y90102D01*
X70900Y65500D02*
X72100D01*
X71500Y64900D02*
Y66100D01*
X67400Y65500D02*
X68600D01*
X68000Y64900D02*
Y66100D01*
X70900Y73500D02*
X72100D01*
X71500Y72900D02*
Y74100D01*
X70900Y69500D02*
X72100D01*
X71500Y68900D02*
Y70100D01*
X56900Y60000D02*
X58100D01*
X57500Y59400D02*
Y60600D01*
X63900Y51000D02*
X65100D01*
X64500Y50400D02*
Y51600D01*
X63900Y54500D02*
X65100D01*
X64500Y53900D02*
Y55100D01*
X56900Y72500D02*
X58100D01*
X57500Y71900D02*
Y73100D01*
X60400Y72500D02*
X61600D01*
X61000Y71900D02*
Y73100D01*
X67400Y73500D02*
X68600D01*
X68000Y72900D02*
Y74100D01*
X67400Y69500D02*
X68600D01*
X68000Y68900D02*
Y70100D01*
X60400Y51000D02*
X61600D01*
X61000Y50400D02*
Y51600D01*
X56900Y51000D02*
X58100D01*
X57500Y50400D02*
Y51600D01*
X60400Y54500D02*
X61600D01*
X61000Y53900D02*
Y55100D01*
X56900Y54500D02*
X58100D01*
X57500Y53900D02*
Y55100D01*
X60400Y65500D02*
X61600D01*
X61000Y64900D02*
Y66100D01*
X56900Y65500D02*
X58100D01*
X57500Y64900D02*
Y66100D01*
X60400Y69000D02*
X61600D01*
X61000Y68400D02*
Y69600D01*
X56900Y69000D02*
X58100D01*
X57500Y68400D02*
Y69600D01*
X85414Y79300D02*
X86414D01*
X85914Y78800D02*
Y79800D01*
X110400Y64500D02*
X111600D01*
X111000Y63900D02*
Y65100D01*
X139000Y90291D02*
X140000D01*
X139500Y89791D02*
Y90791D01*
X137000Y89000D02*
X138000D01*
X137500Y88500D02*
Y89500D01*
X49000Y107500D02*
X50000D01*
X49500Y107000D02*
Y108000D01*
X112000Y52000D02*
X113000D01*
X112500Y51500D02*
Y52500D01*
X49000Y19500D02*
X50000D01*
X49500Y19000D02*
Y20000D01*
X61987Y6887D02*
X63187D01*
X62587Y6287D02*
Y7487D01*
X26500Y50500D02*
X27500D01*
X27000Y50000D02*
Y51000D01*
X-1500Y23000D02*
X-500D01*
X-1000Y22500D02*
Y23500D01*
X20000Y67000D02*
X21000D01*
X20500Y66500D02*
Y67500D01*
X14500Y47000D02*
X15500D01*
X15000Y46500D02*
Y47500D01*
X97900Y37500D02*
X99100D01*
X98500Y36900D02*
Y38100D01*
X128900Y26500D02*
X130100D01*
X129500Y25900D02*
Y27100D01*
X97900Y54500D02*
X99100D01*
X98500Y53900D02*
Y55100D01*
X97900Y40500D02*
X99100D01*
X98500Y39900D02*
Y41100D01*
X97900Y43500D02*
X99100D01*
X98500Y42900D02*
Y44100D01*
X97900Y46500D02*
X99100D01*
X98500Y45900D02*
Y47100D01*
X120900Y26500D02*
X122100D01*
X121500Y25900D02*
Y27100D01*
X117900Y26500D02*
X119100D01*
X118500Y25900D02*
Y27100D01*
X120900Y34500D02*
X122100D01*
X121500Y33900D02*
Y35100D01*
X117900Y34500D02*
X119100D01*
X118500Y33900D02*
Y35100D01*
X120900Y37500D02*
X122100D01*
X121500Y36900D02*
Y38100D01*
X117900Y37500D02*
X119100D01*
X118500Y36900D02*
Y38100D01*
X28975Y103615D02*
X29975D01*
X29475Y103115D02*
Y104115D01*
X11500Y94591D02*
X12500D01*
X12000Y94090D02*
Y95091D01*
X12850Y116500D02*
X13850D01*
X13350Y116000D02*
Y117000D01*
X26500Y117091D02*
X27500D01*
X27000Y116591D02*
Y117591D01*
X29038Y114962D02*
X30038D01*
X29538Y114462D02*
Y115462D01*
X43900Y27500D02*
X45100D01*
X44500Y26900D02*
Y28100D01*
X19750Y28500D02*
X21250D01*
X20500Y27750D02*
Y29250D01*
X4900Y-8500D02*
X6100D01*
X5500Y-9100D02*
Y-7900D01*
X25400Y-3500D02*
X26600D01*
X26000Y-4100D02*
Y-2900D01*
X-8200Y34567D02*
X-7200D01*
X-7700Y34067D02*
Y35067D01*
X-8188Y36667D02*
X-7188D01*
X-7688Y36167D02*
Y37167D01*
X26250Y3591D02*
X27750D01*
X27000Y2841D02*
Y4341D01*
X36900Y-3500D02*
X38100D01*
X37500Y-4100D02*
Y-2900D01*
X43900Y2500D02*
X45100D01*
X44500Y1900D02*
Y3100D01*
X28750Y3500D02*
X30250D01*
X29500Y2750D02*
Y4250D01*
X31250Y3500D02*
X32750D01*
X32000Y2750D02*
Y4250D01*
X78900Y-8500D02*
X80100D01*
X79500Y-9100D02*
Y-7900D01*
X92900Y500D02*
X94100D01*
X93500Y-100D02*
Y1100D01*
X113900Y-1000D02*
X115100D01*
X114500Y-1600D02*
Y-400D01*
X123900Y7000D02*
X125100D01*
X124500Y6400D02*
Y7600D01*
X143400Y7000D02*
X144600D01*
X144000Y6400D02*
Y7600D01*
X174400Y10500D02*
X175600D01*
X175000Y9900D02*
Y11100D01*
X165400Y13500D02*
X166600D01*
X166000Y12900D02*
Y14100D01*
X112000Y122000D02*
X113000D01*
X112500Y121500D02*
Y122500D01*
X108451Y120466D02*
X109451D01*
X108951Y119966D02*
Y120966D01*
X111500Y103000D02*
X112500D01*
X112000Y102500D02*
Y103500D01*
X114000Y103131D02*
X115000D01*
X114500Y102631D02*
Y103631D01*
X30500Y176000D02*
X31500D01*
X31000Y175500D02*
Y176500D01*
X29500Y165000D02*
X30500D01*
X30000Y164500D02*
Y165500D01*
X17000Y184000D02*
X18000D01*
X17500Y183500D02*
Y184500D01*
X28000Y188000D02*
X29000D01*
X28500Y187500D02*
Y188500D01*
X11000Y184000D02*
X12000D01*
X11500Y183500D02*
Y184500D01*
X3500Y183500D02*
X4500D01*
X4000Y183000D02*
Y184000D01*
X27500Y183500D02*
X28500D01*
X28000Y183000D02*
Y184000D01*
X27000Y166500D02*
X28000D01*
X27500Y166000D02*
Y167000D01*
X36000Y176394D02*
X37000D01*
X36500Y175894D02*
Y176894D01*
X19000Y171500D02*
X20000D01*
X19500Y171000D02*
Y172000D01*
X24000Y155500D02*
X25000D01*
X24500Y155000D02*
Y156000D01*
X10350Y163500D02*
X11350D01*
X10850Y163000D02*
Y164000D01*
X12000Y165500D02*
X13000D01*
X12500Y165000D02*
Y166000D01*
X14245Y163356D02*
X15245D01*
X14745Y162856D02*
Y163856D01*
X120900Y90000D02*
X122100D01*
X121500Y89400D02*
Y90600D01*
X42900Y121000D02*
X44100D01*
X43500Y120400D02*
Y121600D01*
X57985Y116741D02*
X58985D01*
X58485Y116241D02*
Y117241D01*
X94400Y156500D02*
X95600D01*
X95000Y155900D02*
Y157100D01*
X121400Y156000D02*
X122600D01*
X122000Y155400D02*
Y156600D01*
X170900Y156000D02*
X172100D01*
X171500Y155400D02*
Y156600D01*
X145900Y156000D02*
X147100D01*
X146500Y155400D02*
Y156600D01*
X171900Y179500D02*
X173100D01*
X172500Y178900D02*
Y180100D01*
X94900Y177500D02*
X96100D01*
X95500Y176900D02*
Y178100D01*
X121900Y177500D02*
X123100D01*
X122500Y176900D02*
Y178100D01*
X146400Y178500D02*
X147600D01*
X147000Y177900D02*
Y179100D01*
X163049Y206709D02*
X164249D01*
X163649Y206109D02*
Y207309D01*
X174900Y191500D02*
X176100D01*
X175500Y190900D02*
Y192100D01*
X41400Y199000D02*
X42600D01*
X42000Y198400D02*
Y199600D01*
X25900Y199000D02*
X27100D01*
X26500Y198400D02*
Y199600D01*
X17400Y199000D02*
X18600D01*
X18000Y198400D02*
Y199600D01*
X59400Y207500D02*
X60600D01*
X60000Y206900D02*
Y208100D01*
X48900Y207000D02*
X50100D01*
X49500Y206400D02*
Y207600D01*
X37900Y207000D02*
X39100D01*
X38500Y206400D02*
Y207600D01*
X27900Y207000D02*
X29100D01*
X28500Y206400D02*
Y207600D01*
X8900Y207500D02*
X10100D01*
X9500Y206900D02*
Y208100D01*
X-7600Y204500D02*
X-6400D01*
X-7000Y203900D02*
Y205100D01*
X900Y208500D02*
X2100D01*
X1500Y207900D02*
Y209100D01*
X-8786Y193803D02*
X-7586D01*
X-8186Y193203D02*
Y194403D01*
X-6600Y166000D02*
X-5400D01*
X-6000Y165400D02*
Y166600D01*
X-5600Y144000D02*
X-4400D01*
X-5000Y143400D02*
Y144600D01*
X-7100Y122500D02*
X-5900D01*
X-6500Y121900D02*
Y123100D01*
X-7600Y116500D02*
X-6400D01*
X-7000Y115900D02*
Y117100D01*
X-100Y96000D02*
X1100D01*
X500Y95400D02*
Y96600D01*
X2900Y76500D02*
X4100D01*
X3500Y75900D02*
Y77100D01*
X2900Y60000D02*
X4100D01*
X3500Y59400D02*
Y60600D01*
X173000Y88500D02*
X174000D01*
X173500Y88000D02*
Y89000D01*
X121000Y171500D02*
X122000D01*
X121500Y171000D02*
Y172000D01*
X95000Y132500D02*
X96000D01*
X95500Y132000D02*
Y133000D01*
X11000Y108500D02*
X12000D01*
X11500Y108000D02*
Y109000D01*
X170500Y167000D02*
X171500D01*
X171000Y166500D02*
Y167500D01*
X145000Y162500D02*
X146000D01*
X145500Y162000D02*
Y163000D01*
X145000Y167000D02*
X146000D01*
X145500Y166500D02*
Y167500D01*
X33000Y199000D02*
X34000D01*
X33500Y198500D02*
Y199500D01*
X59000Y168000D02*
X60000D01*
X59500Y167500D02*
Y168500D01*
X170500Y171500D02*
X171500D01*
X171000Y171000D02*
Y172000D01*
X145000Y171500D02*
X146000D01*
X145500Y171000D02*
Y172000D01*
X67500Y206000D02*
X68500D01*
X68000Y205500D02*
Y206500D01*
X-6500Y110000D02*
X-5500D01*
X-6000Y109500D02*
Y110500D01*
X-3500Y94500D02*
X-2500D01*
X-3000Y94000D02*
Y95000D01*
X2500Y86000D02*
X3500D01*
X3000Y85500D02*
Y86500D01*
X23000Y94000D02*
X24000D01*
X23500Y93500D02*
Y94500D01*
X29000Y100500D02*
X30000D01*
X29500Y100000D02*
Y101000D01*
X63000Y106000D02*
X64000D01*
X63500Y105500D02*
Y106500D01*
X94000Y171500D02*
X95000D01*
X94500Y171000D02*
Y172000D01*
X9500Y86000D02*
X10500D01*
X10000Y85500D02*
Y86500D01*
X54000Y105500D02*
X55000D01*
X54500Y105000D02*
Y106000D01*
X94500Y145000D02*
X95500D01*
X95000Y144500D02*
Y145500D01*
X43268Y107500D02*
X44268D01*
X43768Y107000D02*
Y108000D01*
X57000Y120000D02*
X58000D01*
X57500Y119500D02*
Y120500D01*
X6500Y132500D02*
X7500D01*
X7000Y132000D02*
Y133000D01*
X121000Y167000D02*
X122000D01*
X121500Y166500D02*
Y167500D01*
X73000Y160000D02*
X74000D01*
X73500Y159500D02*
Y160500D01*
X73000Y151000D02*
X74000D01*
X73500Y150500D02*
Y151500D01*
X21500Y108000D02*
X22500D01*
X22000Y107500D02*
Y108500D01*
X2374Y136000D02*
X3374D01*
X2874Y135500D02*
Y136500D01*
X76000Y139500D02*
X77000D01*
X76500Y139000D02*
Y140000D01*
X106500Y134000D02*
X107500D01*
X107000Y133500D02*
Y134500D01*
X82500Y135000D02*
X83500D01*
X83000Y134500D02*
Y135500D01*
X121000Y162500D02*
X122000D01*
X121500Y162000D02*
Y163000D01*
X8000Y123500D02*
X9000D01*
X8500Y123000D02*
Y124000D01*
X13500Y190000D02*
X14500D01*
X14000Y189500D02*
Y190500D01*
X17500Y207000D02*
X18500D01*
X18000Y206500D02*
Y207500D01*
X113500Y90000D02*
X114500D01*
X114000Y89500D02*
Y90500D01*
X126500Y87000D02*
X127500D01*
X127000Y86500D02*
Y87500D01*
X91000Y80500D02*
X92000D01*
X91500Y80000D02*
Y81000D01*
X71500Y89500D02*
X72500D01*
X72000Y89000D02*
Y90000D01*
X170500Y162500D02*
X171500D01*
X171000Y162000D02*
Y163000D01*
X71500Y86500D02*
X72500D01*
X72000Y86000D02*
Y87000D01*
X94000Y167000D02*
X95000D01*
X94500Y166500D02*
Y167500D01*
X82500Y87500D02*
X83500D01*
X83000Y87000D02*
Y88000D01*
X94000Y162500D02*
X95000D01*
X94500Y162000D02*
Y163000D01*
X59000Y119000D02*
X60000D01*
X59500Y118500D02*
Y119500D01*
X99800Y95500D02*
X100800D01*
X100300Y95000D02*
Y96000D01*
X99800Y99500D02*
X100800D01*
X100300Y99000D02*
Y100000D01*
X40500Y159591D02*
X41500D01*
X41000Y159091D02*
Y160091D01*
X163500Y116591D02*
X164500D01*
X164000Y116091D02*
Y117091D01*
X162500Y114591D02*
X163500D01*
X163000Y114091D02*
Y115091D01*
X168000Y103091D02*
X169000D01*
X168500Y102591D02*
Y103591D01*
X51186Y147427D02*
X52186D01*
X51686Y146927D02*
Y147927D01*
X48333Y164257D02*
X49333D01*
X48833Y163757D02*
Y164757D01*
X60917Y117007D02*
X61917D01*
X61417Y116507D02*
Y117507D01*
X100500Y92091D02*
X101500D01*
X101000Y91591D02*
Y92591D01*
X50500Y162591D02*
X51500D01*
X51000Y162091D02*
Y163091D01*
X5500Y176091D02*
X6500D01*
X6000Y175591D02*
Y176591D01*
X33000Y133091D02*
X34000D01*
X33500Y132591D02*
Y133591D01*
X10000Y153091D02*
X11000D01*
X10500Y152591D02*
Y153591D01*
X165869Y103975D02*
X166869D01*
X166369Y103475D02*
Y104475D01*
X-7500Y103591D02*
X-6500D01*
X-7000Y103091D02*
Y104091D01*
X44500Y164091D02*
X45500D01*
X45000Y163591D02*
Y164591D01*
X29500Y133591D02*
X30500D01*
X30000Y133091D02*
Y134091D01*
X52500Y176091D02*
X53500D01*
X53000Y175591D02*
Y176591D01*
X8000Y149591D02*
X9000D01*
X8500Y149091D02*
Y150091D01*
X67000Y176500D02*
X68000D01*
X67500Y176000D02*
Y177000D01*
X-7000Y86091D02*
X-6000D01*
X-6500Y85591D02*
Y86591D01*
X77500Y180500D02*
X78500D01*
X78000Y180000D02*
Y181000D01*
X36500Y96591D02*
X37500D01*
X37000Y96091D02*
Y97091D01*
X100500Y102327D02*
X101500D01*
X101000Y101827D02*
Y102827D01*
X100500Y104886D02*
X101500D01*
X101000Y104386D02*
Y105386D01*
X68350Y174500D02*
X69350D01*
X68850Y174000D02*
Y175000D01*
X100500Y89531D02*
X101500D01*
X101000Y89031D02*
Y90031D01*
X100500Y86972D02*
X101500D01*
X101000Y86472D02*
Y87472D01*
X52500Y159091D02*
X53500D01*
X53000Y158591D02*
Y159591D01*
X6500Y146591D02*
X7500D01*
X7000Y146091D02*
Y147091D01*
X30500Y121091D02*
X31500D01*
X31000Y120591D02*
Y121591D01*
X28500Y119091D02*
X29500D01*
X29000Y118591D02*
Y119591D01*
X42500Y135591D02*
X43500D01*
X43000Y135091D02*
Y136091D01*
X46500Y151091D02*
X47500D01*
X47000Y150591D02*
Y151591D01*
X8500Y202091D02*
X9500D01*
X9000Y201591D02*
Y202591D01*
X45000Y149591D02*
X46000D01*
X45500Y149091D02*
Y150091D01*
X54500Y175091D02*
X55500D01*
X55000Y174591D02*
Y175591D01*
X51500Y155091D02*
X52500D01*
X52000Y154591D02*
Y155591D01*
X100413Y107358D02*
X101413D01*
X100913Y106858D02*
Y107858D01*
X53500Y146810D02*
X54500D01*
X54000Y146310D02*
Y147310D01*
X29500Y151091D02*
X30500D01*
X30000Y150591D02*
Y151591D01*
X28015Y152575D02*
X29015D01*
X28515Y152075D02*
Y153075D01*
X32000Y159000D02*
X33000D01*
X32500Y158500D02*
Y159500D01*
X14650Y119091D02*
X15650D01*
X15150Y118591D02*
Y119591D01*
X69000Y147000D02*
X70000D01*
X69500Y146500D02*
Y147500D01*
X71000Y145000D02*
X72000D01*
X71500Y144500D02*
Y145500D01*
X21000Y105741D02*
X22000D01*
X21500Y105241D02*
Y106241D01*
X73500Y174500D02*
X74500D01*
X74000Y174000D02*
Y175000D01*
X65000Y174500D02*
X66000D01*
X65500Y174000D02*
Y175000D01*
X55200Y157891D02*
X56200D01*
X55700Y157391D02*
Y158391D01*
X40000Y98591D02*
X41000D01*
X40500Y98091D02*
Y99091D01*
X45625Y132410D02*
X46625D01*
X46125Y131910D02*
Y132910D01*
X33500Y81591D02*
X34500D01*
X34000Y81091D02*
Y82091D01*
X55810Y159900D02*
X56810D01*
X56310Y159400D02*
Y160400D01*
X71000Y176500D02*
X72000D01*
X71500Y176000D02*
Y177000D01*
X54061Y122997D02*
X55061D01*
X54561Y122497D02*
Y123497D01*
X56000Y122191D02*
X57000D01*
X56500Y121691D02*
Y122691D01*
X66450Y153000D02*
X67450D01*
X66950Y152500D02*
Y153500D01*
X73000Y182291D02*
X74000D01*
X73500Y181791D02*
Y182791D01*
X67394Y151000D02*
X68394D01*
X67894Y150500D02*
Y151500D01*
X18300Y105741D02*
X19300D01*
X18800Y105241D02*
Y106241D01*
X38500Y143091D02*
X39500D01*
X39000Y142591D02*
Y143591D01*
X30000Y145591D02*
X31000D01*
X30500Y145091D02*
Y146091D01*
X40500Y142091D02*
X41500D01*
X41000Y141591D02*
Y142591D01*
X16150Y117606D02*
X17150D01*
X16650Y117106D02*
Y118106D01*
X55000Y154591D02*
X56000D01*
X55500Y154091D02*
Y155091D01*
X22000Y131091D02*
X23000D01*
X22500Y130591D02*
Y131591D01*
X32350Y143091D02*
X33350D01*
X32850Y142591D02*
Y143591D01*
X57500Y95091D02*
X58500D01*
X58000Y94591D02*
Y95591D01*
X46500Y162591D02*
X47500D01*
X47000Y162091D02*
Y163091D01*
X19900Y131091D02*
X20900D01*
X20400Y130591D02*
Y131591D01*
X33500Y85091D02*
X34500D01*
X34000Y84591D02*
Y85591D01*
D15*
X105500Y55000D02*
G03*
X105500Y55000I-500J0D01*
G01*
X125000Y23000D02*
G03*
X125000Y23000I-500J0D01*
G01*
Y30000D02*
G03*
X125000Y30000I-500J0D01*
G01*
X94000Y40000D02*
G03*
X94000Y40000I-500J0D01*
G01*
X104000D02*
G03*
X104000Y40000I-500J0D01*
G01*
X119000Y55000D02*
G03*
X119000Y55000I-500J0D01*
G01*
X103000Y62000D02*
G03*
X103000Y62000I-500J0D01*
G01*
X108000D02*
G03*
X108000Y62000I-500J0D01*
G01*
X60400Y24862D02*
G03*
X60400Y24862I-500J0D01*
G01*
X28000Y31500D02*
G03*
X28000Y31500I-500J0D01*
G01*
X34000D02*
G03*
X34000Y31500I-500J0D01*
G01*
X21500D02*
G03*
X21500Y31500I-500J0D01*
G01*
X31984Y45886D02*
G03*
X31984Y45886I-500J0D01*
G01*
X36484D02*
G03*
X36484Y45886I-500J0D01*
G01*
X40984D02*
G03*
X40984Y45886I-500J0D01*
G01*
X27484D02*
G03*
X27484Y45886I-500J0D01*
G01*
X79200Y24862D02*
G03*
X79200Y24862I-500J0D01*
G01*
X74500D02*
G03*
X74500Y24862I-500J0D01*
G01*
X65100D02*
G03*
X65100Y24862I-500J0D01*
G01*
X92500Y74000D02*
G03*
X92500Y74000I-500J0D01*
G01*
X81500Y68500D02*
G03*
X81500Y68500I-500J0D01*
G01*
Y74000D02*
G03*
X81500Y74000I-500J0D01*
G01*
X7500Y108591D02*
G03*
X7500Y108591I-500J0D01*
G01*
X-500D02*
G03*
X-500Y108591I-500J0D01*
G01*
X-417Y115091D02*
G03*
X-417Y115091I-500J0D01*
G01*
Y120591D02*
G03*
X-417Y120591I-500J0D01*
G01*
Y126091D02*
G03*
X-417Y126091I-500J0D01*
G01*
X30134Y111118D02*
G03*
X30134Y111118I-500J0D01*
G01*
X26000Y111091D02*
G03*
X26000Y111091I-500J0D01*
G01*
X22000D02*
G03*
X22000Y111091I-500J0D01*
G01*
X48909Y100091D02*
G03*
X48909Y100091I-500J0D01*
G01*
X50000Y111091D02*
G03*
X50000Y111091I-500J0D01*
G01*
X55000D02*
G03*
X55000Y111091I-500J0D01*
G01*
X62464Y81295D02*
G03*
X62464Y81295I-500J0D01*
G01*
Y85295D02*
G03*
X62464Y85295I-500J0D01*
G01*
Y89295D02*
G03*
X62464Y89295I-500J0D01*
G01*
X29902Y80795D02*
G03*
X29902Y80795I-500J0D01*
G01*
Y85193D02*
G03*
X29902Y85193I-500J0D01*
G01*
X30000Y89591D02*
G03*
X30000Y89591I-500J0D01*
G01*
X172000Y85500D02*
G03*
X172000Y85500I-500J0D01*
G01*
Y81000D02*
G03*
X172000Y81000I-500J0D01*
G01*
X173500Y96500D02*
G03*
X173500Y96500I-500J0D01*
G01*
X117500Y80000D02*
G03*
X117500Y80000I-500J0D01*
G01*
Y84500D02*
G03*
X117500Y84500I-500J0D01*
G01*
X173500Y99500D02*
G03*
X173500Y99500I-500J0D01*
G01*
X119500D02*
G03*
X119500Y99500I-500J0D01*
G01*
Y96500D02*
G03*
X119500Y96500I-500J0D01*
G01*
X171031Y108740D02*
G03*
X171031Y108740I-500J0D01*
G01*
X116469D02*
G03*
X116469Y108740I-500J0D01*
G01*
X72500Y137500D02*
G03*
X72500Y137500I-500J0D01*
G01*
X72000Y155500D02*
G03*
X72000Y155500I-500J0D01*
G01*
Y163181D02*
G03*
X72000Y163181I-500J0D01*
G01*
X27000Y177591D02*
G03*
X27000Y177591I-500J0D01*
G01*
X9500Y141591D02*
G03*
X9500Y141591I-500J0D01*
G01*
Y133590D02*
G03*
X9500Y133590I-500J0D01*
G01*
X105000Y54213D02*
Y55787D01*
X104213Y55000D02*
X105787D01*
X123713Y23000D02*
X125287D01*
X124500Y22213D02*
Y23787D01*
X123713Y30000D02*
X125287D01*
X124500Y29213D02*
Y30787D01*
X92713Y40000D02*
X94287D01*
X93500Y39213D02*
Y40787D01*
X103500Y39213D02*
Y40787D01*
X102713Y40000D02*
X104287D01*
X117713Y55000D02*
X119287D01*
X118500Y54213D02*
Y55787D01*
X102500Y61213D02*
Y62787D01*
X101713Y62000D02*
X103287D01*
X106713D02*
X108287D01*
X107500Y61213D02*
Y62787D01*
X59900Y24075D02*
Y25650D01*
X59113Y24862D02*
X60687D01*
X27500Y30713D02*
Y32288D01*
X26713Y31500D02*
X28288D01*
X32713D02*
X34288D01*
X33500Y30713D02*
Y32288D01*
X20213Y31500D02*
X21788D01*
X21000Y30713D02*
Y32288D01*
X30697Y45886D02*
X32272D01*
X31485Y45099D02*
Y46673D01*
X35197Y45886D02*
X36772D01*
X35984Y45098D02*
Y46673D01*
X39697Y45886D02*
X41272D01*
X40485Y45099D02*
Y46673D01*
X26197Y45886D02*
X27772D01*
X26985Y45099D02*
Y46673D01*
X77913Y24862D02*
X79488D01*
X78700Y24075D02*
Y25650D01*
X73213Y24862D02*
X74788D01*
X74000Y24075D02*
Y25650D01*
X63813Y24862D02*
X65387D01*
X64600Y24075D02*
Y25650D01*
X91212Y74000D02*
X92787D01*
X92000Y73213D02*
Y74787D01*
X80213Y68500D02*
X81787D01*
X81000Y67713D02*
Y69287D01*
X80212Y74000D02*
X81787D01*
X81000Y73213D02*
Y74787D01*
X7000Y107803D02*
Y109378D01*
X6213Y108591D02*
X7787D01*
X-1000Y107803D02*
Y109378D01*
X-1787Y108591D02*
X-213D01*
X-917Y114303D02*
Y115878D01*
X-1705Y115091D02*
X-130D01*
X-917Y119803D02*
Y121378D01*
X-1705Y120591D02*
X-130D01*
X-917Y125303D02*
Y126878D01*
X-1705Y126091D02*
X-130D01*
X28846Y111118D02*
X30421D01*
X29634Y110331D02*
Y111905D01*
X25500Y110303D02*
Y111878D01*
X24713Y111091D02*
X26288D01*
X20712Y111090D02*
X22287D01*
X21500Y110303D02*
Y111878D01*
X48410Y99303D02*
Y100878D01*
X47622Y100090D02*
X49197D01*
X48713Y111091D02*
X50288D01*
X49500Y110303D02*
Y111878D01*
X53712Y111090D02*
X55287D01*
X54500Y110303D02*
Y111878D01*
X61964Y80508D02*
Y82082D01*
X61177Y81295D02*
X62751D01*
X61177Y85295D02*
X62751D01*
X61964Y84508D02*
Y86082D01*
Y88508D02*
Y90082D01*
X61177Y89295D02*
X62751D01*
X28615Y80795D02*
X30189D01*
X29402Y80008D02*
Y81582D01*
X28615Y85193D02*
X30189D01*
X29402Y84406D02*
Y85980D01*
X29500Y88803D02*
Y90378D01*
X28713Y89590D02*
X30287D01*
X170713Y85500D02*
X172287D01*
X171500Y84713D02*
Y86287D01*
X170713Y81000D02*
X172287D01*
X171500Y80213D02*
Y81787D01*
X172213Y96500D02*
X173787D01*
X173000Y95713D02*
Y97288D01*
X116213Y80000D02*
X117787D01*
X117000Y79213D02*
Y80787D01*
X116213Y84500D02*
X117787D01*
X117000Y83713D02*
Y85287D01*
X172213Y99500D02*
X173787D01*
X173000Y98712D02*
Y100287D01*
X119000Y98712D02*
Y100287D01*
X118213Y99500D02*
X119787D01*
X118213Y96500D02*
X119787D01*
X119000Y95713D02*
Y97288D01*
X170532Y107953D02*
Y109528D01*
X169744Y108740D02*
X171319D01*
X115181D02*
X116756D01*
X115969Y107953D02*
Y109528D01*
X72000Y136712D02*
Y138287D01*
X71213Y137500D02*
X72787D01*
X70713Y155500D02*
X72287D01*
X71500Y154713D02*
Y156288D01*
Y162394D02*
Y163968D01*
X70713Y163181D02*
X72287D01*
X26500Y176803D02*
Y178378D01*
X25713Y177590D02*
X27287D01*
X8213Y141590D02*
X9787D01*
X9000Y140803D02*
Y142378D01*
Y132803D02*
Y134378D01*
X8213Y133591D02*
X9787D01*
D16*
X113878Y23000D02*
G03*
X113878Y23000I-1378J0D01*
G01*
D02*
G03*
X113878Y23000I-1378J0D01*
G01*
Y30000D02*
G03*
X113878Y30000I-1378J0D01*
G01*
D02*
G03*
X113878Y30000I-1378J0D01*
G01*
X112879Y42501D02*
G03*
X112879Y42501I-1378J0D01*
G01*
X139535Y-910D02*
G03*
X139535Y-910I-1378J0D01*
G01*
X33378Y38000D02*
G03*
X33378Y38000I-1378J0D01*
G01*
X132878Y43000D02*
G03*
X132878Y43000I-1378J0D01*
G01*
X148378Y96000D02*
G03*
X148378Y96000I-1378J0D01*
G01*
X93811Y95929D02*
G03*
X93811Y95929I-1378J0D01*
G01*
X112500Y21032D02*
Y24969D01*
X110532Y23000D02*
X114469D01*
X110532D02*
X114469D01*
X112500Y21032D02*
Y24969D01*
Y28032D02*
Y31969D01*
X110532Y30000D02*
X114469D01*
X110532D02*
X114469D01*
X112500Y28032D02*
Y31969D01*
X111501Y40532D02*
Y44469D01*
X109533Y42501D02*
X113470D01*
X36874Y52618D02*
Y67973D01*
X23095Y52618D02*
Y67973D01*
X36874D01*
X23095Y52618D02*
X36874D01*
X138157Y-2878D02*
Y1059D01*
X136189Y-909D02*
X140126D01*
X38595Y52618D02*
X52374D01*
X38595Y67973D02*
X52374D01*
X38595Y52618D02*
Y67973D01*
X52374Y52618D02*
Y67973D01*
X32000Y36031D02*
Y39968D01*
X30031Y38000D02*
X33968D01*
X129531Y43000D02*
X133468D01*
X131500Y41031D02*
Y44968D01*
X145032Y96000D02*
X148969D01*
X147000Y94032D02*
Y97969D01*
X90465Y95929D02*
X94402D01*
X92433Y93961D02*
Y97898D01*
X13622Y122122D02*
X66378D01*
X13622Y174878D02*
X66378D01*
X13622Y122122D02*
Y174878D01*
X66378Y122122D02*
Y174878D01*
D17*
X40341Y110846D02*
G03*
X40341Y110846I-707J0D01*
G01*
X39634Y109846D02*
Y111846D01*
X38634Y110846D02*
X40634D01*
M02*
