G04*
G04 #@! TF.GenerationSoftware,Altium Limited,Altium Designer,21.5.1 (32)*
G04*
G04 Layer_Physical_Order=2*
G04 Layer_Color=16711680*
%FSLAX25Y25*%
%MOIN*%
G70*
G04*
G04 #@! TF.SameCoordinates,F71DC00D-139D-4494-AD50-9C341566DFA8*
G04*
G04*
G04 #@! TF.FilePolarity,Positive*
G04*
G01*
G75*
%ADD12C,0.01000*%
%ADD18C,0.00700*%
%ADD90C,0.00900*%
%ADD93C,0.03000*%
%ADD94R,0.06693X0.06693*%
%ADD95C,0.06693*%
%ADD96O,0.03937X0.08268*%
%ADD97O,0.03937X0.06299*%
%ADD98C,0.02559*%
%ADD99C,0.09843*%
%ADD100C,0.09055*%
%ADD101R,0.09055X0.09055*%
%ADD102R,0.06693X0.06693*%
%ADD103C,0.06299*%
%ADD104R,0.06299X0.06299*%
%ADD105C,0.02400*%
%ADD106C,0.01600*%
%ADD107C,0.02100*%
%ADD108C,0.06000*%
G36*
X10137Y202489D02*
X10080Y202430D01*
X9980Y202313D01*
X9937Y202256D01*
X9866Y202143D01*
X9838Y202088D01*
X9815Y202033D01*
X9797Y201979D01*
X9783Y201926D01*
X9180Y202870D01*
X9237Y202861D01*
X9294Y202859D01*
X9352Y202864D01*
X9409Y202877D01*
X9468Y202897D01*
X9526Y202924D01*
X9586Y202959D01*
X9645Y203001D01*
X9705Y203050D01*
X9765Y203107D01*
X10137Y202489D01*
D02*
G37*
G36*
X81251Y200886D02*
X80896Y201238D01*
X79935Y202073D01*
X79649Y202277D01*
X79381Y202444D01*
X79130Y202574D01*
X78896Y202666D01*
X78679Y202722D01*
X78480Y202741D01*
Y203441D01*
X78679Y203459D01*
X78896Y203515D01*
X79130Y203608D01*
X79381Y203737D01*
X79649Y203904D01*
X79935Y204108D01*
X80558Y204628D01*
X80896Y204943D01*
X81251Y205295D01*
Y200886D01*
D02*
G37*
G36*
X80538Y195822D02*
X80672Y195728D01*
X80811Y195657D01*
X80953Y195609D01*
X81099Y195584D01*
X81250Y195581D01*
X81405Y195602D01*
X81564Y195645D01*
X81727Y195711D01*
X81894Y195800D01*
X80414Y193721D01*
X80446Y193921D01*
X80460Y194114D01*
X80456Y194302D01*
X80433Y194483D01*
X80392Y194659D01*
X80333Y194828D01*
X80256Y194991D01*
X80160Y195148D01*
X80046Y195299D01*
X79913Y195443D01*
X80408Y195938D01*
X80538Y195822D01*
D02*
G37*
G36*
X100352Y196760D02*
X100544Y196646D01*
X100775Y196546D01*
X101044Y196461D01*
X101352Y196389D01*
X101699Y196331D01*
X102507Y196258D01*
X102968Y196242D01*
X103469Y196240D01*
X100350Y193122D01*
X100349Y193622D01*
X100259Y194892D01*
X100202Y195238D01*
X100130Y195546D01*
X100044Y195815D01*
X99944Y196046D01*
X99831Y196239D01*
X99703Y196393D01*
X100198Y196888D01*
X100352Y196760D01*
D02*
G37*
G36*
X90352D02*
X90544Y196646D01*
X90775Y196546D01*
X91044Y196461D01*
X91352Y196389D01*
X91699Y196331D01*
X92507Y196258D01*
X92968Y196242D01*
X93468Y196240D01*
X90351Y193122D01*
X90349Y193622D01*
X90259Y194892D01*
X90202Y195238D01*
X90130Y195546D01*
X90044Y195815D01*
X89944Y196046D01*
X89831Y196239D01*
X89703Y196393D01*
X90198Y196888D01*
X90352Y196760D01*
D02*
G37*
G36*
X120675Y191698D02*
X120567Y191896D01*
X120450Y192073D01*
X120323Y192229D01*
X120185Y192365D01*
X120038Y192480D01*
X119881Y192574D01*
X119715Y192647D01*
X119539Y192699D01*
X119352Y192730D01*
X119156Y192741D01*
Y193441D01*
X119352Y193451D01*
X119539Y193482D01*
X119715Y193535D01*
X119881Y193607D01*
X120038Y193701D01*
X120185Y193816D01*
X120323Y193952D01*
X120450Y194108D01*
X120567Y194285D01*
X120675Y194484D01*
Y191698D01*
D02*
G37*
G36*
X110675D02*
X110567Y191896D01*
X110450Y192073D01*
X110322Y192229D01*
X110185Y192365D01*
X110038Y192480D01*
X109881Y192574D01*
X109715Y192647D01*
X109539Y192699D01*
X109352Y192730D01*
X109156Y192741D01*
Y193441D01*
X109352Y193451D01*
X109539Y193482D01*
X109715Y193535D01*
X109881Y193607D01*
X110038Y193701D01*
X110185Y193816D01*
X110322Y193952D01*
X110450Y194108D01*
X110567Y194285D01*
X110675Y194484D01*
Y191698D01*
D02*
G37*
G36*
X167220Y210065D02*
Y210065D01*
X167710Y210039D01*
X169096Y209930D01*
X170925Y209491D01*
X172662Y208771D01*
X174266Y207788D01*
X175697Y206567D01*
X176918Y205136D01*
X177901Y203533D01*
X178621Y201795D01*
X179060Y199966D01*
X179203Y198152D01*
X179194Y198091D01*
Y185450D01*
X178694Y185243D01*
X177405Y186532D01*
X177405Y186532D01*
X177405Y186532D01*
X177054Y186767D01*
X176744Y186975D01*
X176744Y186975D01*
X176744Y186975D01*
X176322Y187058D01*
X175963Y187130D01*
X175963Y187130D01*
X175963Y187130D01*
X115128D01*
X114921Y187630D01*
X119452Y192160D01*
X119529Y192137D01*
X119633Y192092D01*
X119732Y192033D01*
X119827Y191958D01*
X119921Y191865D01*
X120013Y191752D01*
X120103Y191616D01*
X120200Y191439D01*
X120262Y191389D01*
X120292Y191315D01*
X120317Y191305D01*
X120580Y190850D01*
X121259Y190170D01*
X122091Y189690D01*
X123020Y189441D01*
X123980D01*
X124909Y189690D01*
X125741Y190170D01*
X126420Y190850D01*
X126901Y191682D01*
X127150Y192610D01*
Y193571D01*
X126901Y194499D01*
X126420Y195332D01*
X125741Y196011D01*
X124909Y196492D01*
X123980Y196740D01*
X123020D01*
X122091Y196492D01*
X121259Y196011D01*
X120580Y195332D01*
X120317Y194876D01*
X120292Y194866D01*
X120262Y194792D01*
X120200Y194742D01*
X120103Y194565D01*
X120013Y194429D01*
X119921Y194316D01*
X119827Y194223D01*
X119732Y194149D01*
X119633Y194089D01*
X119529Y194044D01*
X119417Y194011D01*
X119293Y193990D01*
X119128Y193981D01*
X119022Y193930D01*
X118825Y193891D01*
X118544Y193703D01*
X117650Y192809D01*
X117150Y193017D01*
Y193571D01*
X116901Y194499D01*
X116420Y195332D01*
X115741Y196011D01*
X114909Y196492D01*
X113980Y196740D01*
X113020D01*
X112091Y196492D01*
X111259Y196011D01*
X110580Y195332D01*
X110317Y194876D01*
X110292Y194866D01*
X110262Y194792D01*
X110200Y194742D01*
X110103Y194565D01*
X110013Y194429D01*
X109921Y194316D01*
X109827Y194223D01*
X109732Y194149D01*
X109633Y194089D01*
X109529Y194044D01*
X109417Y194011D01*
X109293Y193990D01*
X109128Y193981D01*
X109022Y193930D01*
X108825Y193891D01*
X108544Y193703D01*
X107650Y192809D01*
X107150Y193017D01*
Y193571D01*
X106901Y194499D01*
X106420Y195332D01*
X105741Y196011D01*
X104909Y196492D01*
X103981Y196740D01*
X103569D01*
X103470Y196781D01*
X102978Y196783D01*
X102541Y196798D01*
X101768Y196868D01*
X101458Y196920D01*
X101188Y196983D01*
X100965Y197054D01*
X100790Y197129D01*
X100664Y197204D01*
X100543Y197304D01*
X100498Y197318D01*
X98913Y198903D01*
X98632Y199091D01*
X98300Y199157D01*
X94852D01*
X94786Y199657D01*
X94909Y199690D01*
X95741Y200170D01*
X96420Y200850D01*
X96901Y201682D01*
X97150Y202610D01*
Y203571D01*
X96901Y204499D01*
X96420Y205331D01*
X95741Y206011D01*
X94909Y206491D01*
X93980Y206740D01*
X93019D01*
X92091Y206491D01*
X91259Y206011D01*
X90580Y205331D01*
X90099Y204499D01*
X89850Y203571D01*
Y202610D01*
X90099Y201682D01*
X90580Y200850D01*
X91259Y200170D01*
X92091Y199690D01*
X92214Y199657D01*
X92148Y199157D01*
X84852D01*
X84786Y199657D01*
X84909Y199690D01*
X85741Y200170D01*
X86420Y200850D01*
X86901Y201682D01*
X87150Y202610D01*
Y203571D01*
X86901Y204499D01*
X86420Y205331D01*
X85741Y206011D01*
X84909Y206491D01*
X83981Y206740D01*
X83020D01*
X82091Y206491D01*
X81259Y206011D01*
X80968Y205720D01*
X80869Y205679D01*
X80868Y205678D01*
X80868Y205678D01*
X80868Y205678D01*
X80521Y205333D01*
X80200Y205034D01*
X79604Y204537D01*
X79348Y204355D01*
X79113Y204208D01*
X78905Y204101D01*
X78728Y204030D01*
X78586Y203994D01*
X78430Y203979D01*
X78388Y203957D01*
X10244D01*
X9912Y203891D01*
X9631Y203703D01*
X9500Y203573D01*
X9486Y203571D01*
X9452Y203524D01*
X9450Y203522D01*
X9394Y203501D01*
X9347Y203456D01*
X9316Y203431D01*
X9292Y203414D01*
X9274Y203404D01*
X9273Y203403D01*
X9268Y203404D01*
X9257Y203401D01*
X9256Y203401D01*
X9253Y203400D01*
X9211Y203391D01*
X8741D01*
X8264Y203193D01*
X7898Y202827D01*
X7700Y202349D01*
Y201832D01*
X7898Y201354D01*
X8264Y200989D01*
X8741Y200791D01*
X9259D01*
X9736Y200989D01*
X10102Y201354D01*
X10254Y201722D01*
X10307Y201793D01*
X10316Y201825D01*
X10321Y201839D01*
X10329Y201859D01*
X10337Y201876D01*
X10384Y201949D01*
X10403Y201975D01*
X10481Y202066D01*
X10527Y202113D01*
X10549Y202170D01*
X10603Y202224D01*
X78388D01*
X78430Y202202D01*
X78586Y202187D01*
X78728Y202151D01*
X78905Y202081D01*
X79113Y201973D01*
X79349Y201826D01*
X79599Y201647D01*
X80527Y200841D01*
X80868Y200503D01*
X80868Y200503D01*
X80868Y200503D01*
X80869Y200502D01*
X80968Y200462D01*
X81259Y200170D01*
X82091Y199690D01*
X82214Y199657D01*
X82148Y199157D01*
X71306D01*
X70974Y199091D01*
X70693Y198903D01*
X68147Y196357D01*
X7510D01*
X7179Y196291D01*
X7070Y196219D01*
X6620Y196519D01*
X6799Y197421D01*
Y198760D01*
X6538Y200074D01*
X6025Y201311D01*
X5281Y202425D01*
X4334Y203372D01*
X3221Y204116D01*
X1983Y204628D01*
X670Y204890D01*
X-670D01*
X-1983Y204628D01*
X-3221Y204116D01*
X-4334Y203372D01*
X-5281Y202425D01*
X-6025Y201311D01*
X-6538Y200074D01*
X-6799Y198760D01*
Y197421D01*
X-6538Y196107D01*
X-6025Y194870D01*
X-5281Y193756D01*
X-4334Y192809D01*
X-3584Y192308D01*
X-3736Y191808D01*
X-4332D01*
X-4664Y191742D01*
X-4945Y191554D01*
X-6642Y189857D01*
X-9494D01*
X-9826Y189791D01*
X-10107Y189603D01*
X-11474Y188236D01*
X-11637Y188254D01*
X-11974Y188407D01*
Y198091D01*
X-11982Y198152D01*
X-11839Y199966D01*
X-11400Y201795D01*
X-10680Y203533D01*
X-9698Y205136D01*
X-8476Y206567D01*
X-7046Y207788D01*
X-5442Y208771D01*
X-3704Y209491D01*
X-1875Y209930D01*
X-489Y210039D01*
X0Y210065D01*
X491Y210065D01*
X166721D01*
X167220Y210065D01*
D02*
G37*
G36*
X20583Y192144D02*
X20652Y191600D01*
X17260Y188208D01*
X5501D01*
X5310Y188670D01*
X8864Y192224D01*
X20530D01*
X20583Y192144D01*
D02*
G37*
G36*
X72965Y181696D02*
X72919Y181733D01*
X72870Y181766D01*
X72817Y181795D01*
X72759Y181820D01*
X72697Y181842D01*
X72632Y181860D01*
X72562Y181873D01*
X72487Y181883D01*
X72409Y181889D01*
X72327Y181891D01*
X72278Y182591D01*
X72361Y182593D01*
X72439Y182599D01*
X72512Y182611D01*
X72580Y182626D01*
X72644Y182646D01*
X72704Y182671D01*
X72758Y182700D01*
X72808Y182733D01*
X72854Y182771D01*
X72895Y182814D01*
X72965Y181696D01*
D02*
G37*
G36*
X30890Y188420D02*
X30422Y187952D01*
X29916Y187075D01*
X29654Y186097D01*
Y185084D01*
X29916Y184106D01*
X30422Y183229D01*
X30867Y182783D01*
X30660Y182283D01*
X6830D01*
X6050Y182128D01*
X5388Y181686D01*
X5182Y181480D01*
X4853D01*
X4848Y181482D01*
X4295Y181496D01*
X3822Y181537D01*
X3418Y181604D01*
X3086Y181692D01*
X2827Y181797D01*
X2641Y181910D01*
X2518Y182023D01*
X2441Y182137D01*
X2396Y182264D01*
X2373Y182482D01*
X2347Y182530D01*
Y182937D01*
X1906D01*
X1836Y182966D01*
X1807Y182955D01*
X1777Y182963D01*
X1729Y182937D01*
X-3670D01*
X-3861Y183399D01*
X-1985Y185275D01*
X18116D01*
X18448Y185341D01*
X18729Y185529D01*
X22121Y188920D01*
X30683D01*
X30890Y188420D01*
D02*
G37*
G36*
X162000Y183591D02*
X161430Y183561D01*
X160920Y183471D01*
X160470Y183321D01*
X160080Y183111D01*
X159750Y182841D01*
X159480Y182511D01*
X159270Y182121D01*
X159120Y181671D01*
X159030Y181161D01*
X159000Y180591D01*
X156000D01*
X155970Y181161D01*
X155880Y181671D01*
X155730Y182121D01*
X155520Y182511D01*
X155250Y182841D01*
X154920Y183111D01*
X154530Y183321D01*
X154080Y183471D01*
X153570Y183561D01*
X153000Y183591D01*
X157500Y186591D01*
X162000Y183591D01*
D02*
G37*
G36*
X137000D02*
X136430Y183561D01*
X135920Y183471D01*
X135470Y183321D01*
X135080Y183111D01*
X134750Y182841D01*
X134480Y182511D01*
X134270Y182121D01*
X134120Y181671D01*
X134030Y181161D01*
X134000Y180591D01*
X131000D01*
X130970Y181161D01*
X130880Y181671D01*
X130730Y182121D01*
X130520Y182511D01*
X130250Y182841D01*
X129920Y183111D01*
X129530Y183321D01*
X129080Y183471D01*
X128570Y183561D01*
X128000Y183591D01*
X132500Y186591D01*
X137000Y183591D01*
D02*
G37*
G36*
X110954D02*
X110384Y183561D01*
X109874Y183471D01*
X109424Y183321D01*
X109034Y183111D01*
X108704Y182841D01*
X108434Y182511D01*
X108224Y182121D01*
X108074Y181671D01*
X107984Y181161D01*
X107954Y180591D01*
X104954D01*
X104924Y181161D01*
X104834Y181671D01*
X104684Y182121D01*
X104474Y182511D01*
X104204Y182841D01*
X103874Y183111D01*
X103484Y183321D01*
X103034Y183471D01*
X102524Y183561D01*
X101954Y183591D01*
X106454Y186591D01*
X110954Y183591D01*
D02*
G37*
G36*
X85954D02*
X85384Y183561D01*
X84874Y183471D01*
X84424Y183321D01*
X84034Y183111D01*
X83704Y182841D01*
X83434Y182511D01*
X83224Y182121D01*
X83074Y181671D01*
X82984Y181161D01*
X82954Y180591D01*
X79954D01*
X79924Y181161D01*
X79834Y181671D01*
X79684Y182121D01*
X79474Y182511D01*
X79204Y182841D01*
X78874Y183111D01*
X78484Y183321D01*
X78034Y183471D01*
X77524Y183561D01*
X76954Y183591D01*
X81454Y186591D01*
X85954Y183591D01*
D02*
G37*
G36*
X77339Y180049D02*
X77304Y180095D01*
X77263Y180136D01*
X77217Y180172D01*
X77166Y180204D01*
X77109Y180230D01*
X77047Y180252D01*
X76980Y180269D01*
X76908Y180281D01*
X76831Y180288D01*
X76748Y180291D01*
X76888Y180991D01*
X76970Y180992D01*
X77123Y181005D01*
X77194Y181016D01*
X77261Y181031D01*
X77324Y181049D01*
X77383Y181070D01*
X77438Y181094D01*
X77489Y181121D01*
X77536Y181152D01*
X77339Y180049D01*
D02*
G37*
G36*
X54137Y176489D02*
X54080Y176430D01*
X53980Y176313D01*
X53937Y176256D01*
X53866Y176143D01*
X53838Y176088D01*
X53815Y176033D01*
X53796Y175979D01*
X53783Y175926D01*
X53180Y176870D01*
X53237Y176861D01*
X53294Y176859D01*
X53351Y176864D01*
X53409Y176877D01*
X53468Y176897D01*
X53526Y176924D01*
X53586Y176959D01*
X53645Y177001D01*
X53705Y177050D01*
X53765Y177107D01*
X54137Y176489D01*
D02*
G37*
G36*
X1864Y182143D02*
X1954Y181891D01*
X2104Y181668D01*
X2314Y181475D01*
X2584Y181312D01*
X2915Y181178D01*
X3304Y181074D01*
X3754Y181000D01*
X4264Y180955D01*
X4834Y180941D01*
Y177941D01*
X4263Y177926D01*
X3751Y177881D01*
X3300Y177806D01*
X2908Y177701D01*
X2577Y177566D01*
X2306Y177401D01*
X2095Y177206D01*
X1944Y176981D01*
X1853Y176726D01*
X1822Y176441D01*
X1834Y182425D01*
X1864Y182143D01*
D02*
G37*
G36*
X7096Y176691D02*
X7039Y176631D01*
X6988Y176572D01*
X6944Y176513D01*
X6905Y176453D01*
X6872Y176394D01*
X6846Y176335D01*
X6825Y176275D01*
X6811Y176216D01*
X6802Y176157D01*
X6800Y176099D01*
X6008Y176891D01*
X6067Y176893D01*
X6126Y176901D01*
X6185Y176916D01*
X6244Y176936D01*
X6303Y176963D01*
X6363Y176996D01*
X6422Y177034D01*
X6481Y177079D01*
X6541Y177129D01*
X6601Y177186D01*
X7096Y176691D01*
D02*
G37*
G36*
X30429Y175440D02*
X30385Y175480D01*
X30338Y175516D01*
X30286Y175547D01*
X30229Y175574D01*
X30169Y175598D01*
X30104Y175616D01*
X30035Y175631D01*
X29961Y175642D01*
X29883Y175648D01*
X29801Y175650D01*
Y176350D01*
X29883Y176352D01*
X29961Y176358D01*
X30035Y176369D01*
X30104Y176384D01*
X30169Y176402D01*
X30229Y176426D01*
X30286Y176453D01*
X30338Y176484D01*
X30385Y176520D01*
X30429Y176560D01*
Y175440D01*
D02*
G37*
G36*
X67826Y175769D02*
X67798Y175753D01*
X67773Y175730D01*
X67750Y175700D01*
X67731Y175664D01*
X67715Y175622D01*
X67702Y175573D01*
X67691Y175517D01*
X67684Y175455D01*
X67679Y175386D01*
X67678Y175311D01*
X66978Y175414D01*
X66977Y175504D01*
X66958Y175788D01*
X66949Y175840D01*
X66938Y175885D01*
X66926Y175922D01*
X66913Y175952D01*
X66897Y175974D01*
X67826Y175769D01*
D02*
G37*
G36*
X72020Y175885D02*
X71984Y175838D01*
X71953Y175786D01*
X71926Y175729D01*
X71903Y175669D01*
X71884Y175604D01*
X71869Y175534D01*
X71858Y175461D01*
X71852Y175383D01*
X71850Y175301D01*
X71150D01*
X71148Y175383D01*
X71142Y175461D01*
X71131Y175534D01*
X71116Y175604D01*
X71097Y175669D01*
X71074Y175729D01*
X71047Y175786D01*
X71016Y175838D01*
X70980Y175885D01*
X70940Y175929D01*
X72060D01*
X72020Y175885D01*
D02*
G37*
G36*
X36492Y175594D02*
X36433Y175591D01*
X36374Y175583D01*
X36315Y175568D01*
X36256Y175548D01*
X36197Y175521D01*
X36138Y175489D01*
X36078Y175450D01*
X36019Y175406D01*
X35959Y175355D01*
X35899Y175298D01*
X35404Y175793D01*
X35461Y175853D01*
X35512Y175912D01*
X35556Y175972D01*
X35595Y176031D01*
X35628Y176091D01*
X35654Y176150D01*
X35675Y176209D01*
X35689Y176268D01*
X35698Y176327D01*
X35700Y176386D01*
X36492Y175594D01*
D02*
G37*
G36*
X56096Y175691D02*
X56039Y175631D01*
X55988Y175572D01*
X55944Y175513D01*
X55905Y175453D01*
X55872Y175394D01*
X55846Y175335D01*
X55825Y175275D01*
X55811Y175216D01*
X55802Y175157D01*
X55800Y175099D01*
X55008Y175891D01*
X55067Y175893D01*
X55126Y175901D01*
X55185Y175916D01*
X55244Y175936D01*
X55303Y175963D01*
X55362Y175996D01*
X55422Y176034D01*
X55481Y176079D01*
X55541Y176129D01*
X55601Y176186D01*
X56096Y175691D01*
D02*
G37*
G36*
X64929Y173940D02*
X64885Y173980D01*
X64838Y174016D01*
X64786Y174047D01*
X64729Y174074D01*
X64669Y174098D01*
X64604Y174116D01*
X64534Y174131D01*
X64461Y174142D01*
X64383Y174148D01*
X64301Y174150D01*
Y174850D01*
X64383Y174852D01*
X64461Y174858D01*
X64534Y174869D01*
X64604Y174884D01*
X64669Y174902D01*
X64729Y174926D01*
X64786Y174953D01*
X64838Y174984D01*
X64885Y175020D01*
X64929Y175060D01*
Y173940D01*
D02*
G37*
G36*
X73992Y173700D02*
X73933Y173698D01*
X73874Y173689D01*
X73815Y173675D01*
X73756Y173654D01*
X73697Y173628D01*
X73637Y173595D01*
X73578Y173556D01*
X73519Y173512D01*
X73459Y173461D01*
X73399Y173404D01*
X72904Y173899D01*
X72961Y173959D01*
X73012Y174019D01*
X73056Y174078D01*
X73095Y174137D01*
X73128Y174197D01*
X73154Y174256D01*
X73175Y174315D01*
X73189Y174374D01*
X73198Y174433D01*
X73200Y174492D01*
X73992Y173700D01*
D02*
G37*
G36*
X69370Y173885D02*
X69334Y173838D01*
X69303Y173786D01*
X69276Y173729D01*
X69253Y173669D01*
X69234Y173604D01*
X69219Y173535D01*
X69208Y173461D01*
X69202Y173383D01*
X69200Y173301D01*
X68500D01*
X68498Y173383D01*
X68492Y173461D01*
X68481Y173535D01*
X68466Y173604D01*
X68448Y173669D01*
X68424Y173729D01*
X68397Y173786D01*
X68366Y173838D01*
X68330Y173885D01*
X68290Y173929D01*
X69410D01*
X69370Y173885D01*
D02*
G37*
G36*
X175681Y182489D02*
Y79435D01*
X174785Y78539D01*
X165257D01*
X164477Y78384D01*
X163815Y77942D01*
X162058Y76185D01*
X161616Y75523D01*
X161461Y74743D01*
Y74603D01*
X161459Y74599D01*
X161453Y74247D01*
X161407Y73633D01*
X161370Y73387D01*
X161324Y73170D01*
X161270Y72988D01*
X161212Y72842D01*
X161153Y72734D01*
X161099Y72659D01*
X161016Y72578D01*
X160991Y72522D01*
X160422Y71952D01*
X159916Y71075D01*
X159653Y70097D01*
Y69084D01*
X159916Y68106D01*
X160422Y67229D01*
X160726Y66925D01*
X160758Y66835D01*
X160899Y66681D01*
X161009Y66532D01*
X161109Y66365D01*
X161197Y66177D01*
X161274Y65969D01*
X161339Y65738D01*
X161390Y65485D01*
X161428Y65209D01*
X161451Y64911D01*
X161459Y64591D01*
X161451Y64270D01*
X161428Y63972D01*
X161390Y63697D01*
X161339Y63443D01*
X161274Y63213D01*
X161197Y63004D01*
X161109Y62816D01*
X161009Y62649D01*
X160899Y62500D01*
X160758Y62346D01*
X160726Y62256D01*
X160422Y61952D01*
X159916Y61075D01*
X159653Y60097D01*
Y59084D01*
X159916Y58106D01*
X160422Y57229D01*
X160726Y56925D01*
X160758Y56835D01*
X160899Y56682D01*
X161009Y56533D01*
X161109Y56365D01*
X161197Y56177D01*
X161274Y55969D01*
X161339Y55738D01*
X161390Y55485D01*
X161428Y55209D01*
X161451Y54911D01*
X161459Y54591D01*
X161451Y54270D01*
X161428Y53972D01*
X161390Y53697D01*
X161339Y53443D01*
X161274Y53213D01*
X161197Y53004D01*
X161109Y52816D01*
X161009Y52649D01*
X160899Y52500D01*
X160758Y52346D01*
X160726Y52256D01*
X160422Y51952D01*
X159916Y51075D01*
X159653Y50097D01*
Y49084D01*
X159916Y48106D01*
X160422Y47229D01*
X160726Y46925D01*
X160758Y46835D01*
X160899Y46681D01*
X161009Y46532D01*
X161109Y46365D01*
X161197Y46177D01*
X161274Y45969D01*
X161339Y45738D01*
X161390Y45485D01*
X161428Y45209D01*
X161451Y44911D01*
X161459Y44591D01*
X161451Y44270D01*
X161428Y43972D01*
X161390Y43697D01*
X161339Y43443D01*
X161274Y43213D01*
X161197Y43004D01*
X161109Y42816D01*
X161009Y42649D01*
X160899Y42500D01*
X160758Y42346D01*
X160726Y42256D01*
X160422Y41952D01*
X159916Y41075D01*
X159653Y40097D01*
Y39084D01*
X159916Y38106D01*
X160422Y37229D01*
X160726Y36925D01*
X160758Y36835D01*
X160899Y36682D01*
X161009Y36533D01*
X161109Y36365D01*
X161197Y36177D01*
X161274Y35969D01*
X161339Y35738D01*
X161390Y35485D01*
X161428Y35209D01*
X161428Y35202D01*
X161403Y34909D01*
X161335Y34504D01*
X161246Y34170D01*
X161140Y33910D01*
X161026Y33723D01*
X160911Y33598D01*
X160795Y33521D01*
X160664Y33475D01*
X160443Y33451D01*
X160417Y33437D01*
X159653D01*
Y25744D01*
X167347D01*
Y33437D01*
X166583D01*
X166557Y33451D01*
X166335Y33475D01*
X166205Y33521D01*
X166089Y33598D01*
X165974Y33723D01*
X165860Y33910D01*
X165754Y34170D01*
X165665Y34504D01*
X165597Y34909D01*
X165571Y35202D01*
X165572Y35209D01*
X165610Y35485D01*
X165661Y35738D01*
X165726Y35969D01*
X165803Y36177D01*
X165891Y36365D01*
X165991Y36533D01*
X166101Y36682D01*
X166242Y36835D01*
X166274Y36925D01*
X166578Y37229D01*
X167084Y38106D01*
X167347Y39084D01*
Y40097D01*
X167084Y41075D01*
X166578Y41952D01*
X166274Y42256D01*
X166242Y42346D01*
X166101Y42500D01*
X165991Y42649D01*
X165891Y42816D01*
X165803Y43004D01*
X165726Y43213D01*
X165661Y43444D01*
X165610Y43697D01*
X165572Y43972D01*
X165549Y44270D01*
X165541Y44591D01*
X165549Y44911D01*
X165572Y45209D01*
X165610Y45485D01*
X165661Y45738D01*
X165726Y45968D01*
X165803Y46177D01*
X165891Y46365D01*
X165991Y46532D01*
X166101Y46681D01*
X166242Y46835D01*
X166274Y46925D01*
X166578Y47229D01*
X167084Y48106D01*
X167347Y49084D01*
Y50097D01*
X167084Y51075D01*
X166578Y51952D01*
X166274Y52256D01*
X166242Y52346D01*
X166101Y52500D01*
X165991Y52649D01*
X165891Y52816D01*
X165803Y53004D01*
X165726Y53213D01*
X165661Y53443D01*
X165610Y53697D01*
X165572Y53972D01*
X165549Y54270D01*
X165541Y54591D01*
X165549Y54911D01*
X165572Y55209D01*
X165610Y55485D01*
X165661Y55738D01*
X165726Y55969D01*
X165803Y56177D01*
X165891Y56365D01*
X165991Y56533D01*
X166101Y56682D01*
X166242Y56835D01*
X166274Y56925D01*
X166578Y57229D01*
X167084Y58106D01*
X167347Y59084D01*
Y60097D01*
X167084Y61075D01*
X166578Y61952D01*
X166274Y62256D01*
X166242Y62346D01*
X166101Y62500D01*
X165991Y62649D01*
X165891Y62816D01*
X165803Y63004D01*
X165726Y63213D01*
X165661Y63443D01*
X165610Y63697D01*
X165572Y63972D01*
X165549Y64270D01*
X165541Y64591D01*
X165549Y64911D01*
X165572Y65209D01*
X165610Y65485D01*
X165661Y65738D01*
X165726Y65969D01*
X165803Y66177D01*
X165891Y66365D01*
X165991Y66532D01*
X166101Y66681D01*
X166242Y66835D01*
X166274Y66925D01*
X166578Y67229D01*
X167084Y68106D01*
X167347Y69084D01*
Y70097D01*
X167084Y71075D01*
X166578Y71952D01*
X166009Y72522D01*
X165984Y72578D01*
X165901Y72659D01*
X165847Y72734D01*
X165788Y72842D01*
X165730Y72988D01*
X165676Y73170D01*
X165630Y73387D01*
X165593Y73633D01*
X165571Y73930D01*
X166102Y74461D01*
X175630D01*
X176410Y74616D01*
X177072Y75058D01*
X178694Y76681D01*
X179194Y76474D01*
Y0D01*
X179203Y-61D01*
X179060Y-1875D01*
X178621Y-3704D01*
X177901Y-5442D01*
X176918Y-7046D01*
X175697Y-8476D01*
X174266Y-9698D01*
X172662Y-10680D01*
X170925Y-11400D01*
X169096Y-11839D01*
X167710Y-11948D01*
X167220Y-11974D01*
X167220Y-11974D01*
X167220Y-11974D01*
X0D01*
X-61Y-11982D01*
X-1875Y-11839D01*
X-3704Y-11400D01*
X-5442Y-10680D01*
X-7046Y-9698D01*
X-8476Y-8476D01*
X-9698Y-7046D01*
X-10680Y-5442D01*
X-11400Y-3704D01*
X-11839Y-1875D01*
X-11982Y-61D01*
X-11974Y0D01*
Y29462D01*
X-11474Y29658D01*
X-11203Y29387D01*
X-10922Y29199D01*
X-10590Y29133D01*
X7300D01*
X7387Y29068D01*
X7660Y28633D01*
X7633Y28500D01*
Y26359D01*
X5141Y23867D01*
X268D01*
X213Y23891D01*
X146Y23893D01*
X99Y23897D01*
X60Y23902D01*
X28Y23909D01*
X4Y23916D01*
X-15Y23923D01*
X-27Y23929D01*
X-35Y23934D01*
X-39Y23937D01*
X-62Y23958D01*
X-153Y23991D01*
X-264Y24102D01*
X-741Y24300D01*
X-1259D01*
X-1736Y24102D01*
X-2102Y23736D01*
X-2300Y23259D01*
Y22741D01*
X-2102Y22264D01*
X-1736Y21898D01*
X-1259Y21700D01*
X-741D01*
X-264Y21898D01*
X-153Y22008D01*
X-62Y22042D01*
X-39Y22063D01*
X-35Y22066D01*
X-27Y22071D01*
X-15Y22077D01*
X4Y22084D01*
X28Y22091D01*
X60Y22098D01*
X99Y22104D01*
X146Y22107D01*
X213Y22109D01*
X268Y22133D01*
X5500D01*
X5832Y22199D01*
X6113Y22387D01*
X9113Y25387D01*
X9301Y25668D01*
X9367Y26000D01*
Y28141D01*
X15217Y33991D01*
X19090D01*
X19422Y34057D01*
X19703Y34245D01*
X20113Y34655D01*
X20301Y34936D01*
X20367Y35268D01*
Y46641D01*
X23359Y49633D01*
X25732D01*
X25787Y49609D01*
X25854Y49607D01*
X25901Y49604D01*
X25940Y49598D01*
X25972Y49591D01*
X25997Y49584D01*
X26015Y49577D01*
X26027Y49571D01*
X26035Y49567D01*
X26039Y49563D01*
X26062Y49542D01*
X26153Y49509D01*
X26264Y49398D01*
X26741Y49200D01*
X27259D01*
X27736Y49398D01*
X28102Y49764D01*
X28300Y50241D01*
Y50759D01*
X28102Y51236D01*
X27736Y51602D01*
X27259Y51800D01*
X26741D01*
X26264Y51602D01*
X26153Y51491D01*
X26062Y51458D01*
X26039Y51437D01*
X26035Y51433D01*
X26027Y51429D01*
X26015Y51423D01*
X25997Y51416D01*
X25972Y51409D01*
X25940Y51402D01*
X25901Y51397D01*
X25854Y51393D01*
X25787Y51391D01*
X25732Y51367D01*
X23000D01*
X22668Y51301D01*
X22387Y51113D01*
X19367Y48092D01*
X18867Y48299D01*
Y64141D01*
X20216Y65491D01*
X20272Y65512D01*
X20321Y65558D01*
X20357Y65589D01*
X20389Y65613D01*
X20416Y65630D01*
X20438Y65643D01*
X20456Y65651D01*
X20469Y65655D01*
X20477Y65657D01*
X20483Y65658D01*
X20514Y65659D01*
X20602Y65700D01*
X20759D01*
X21236Y65898D01*
X21602Y66264D01*
X21800Y66741D01*
Y67259D01*
X21602Y67736D01*
X21236Y68102D01*
X20759Y68300D01*
X20241D01*
X19764Y68102D01*
X19398Y67736D01*
X19200Y67259D01*
Y67102D01*
X19159Y67014D01*
X19158Y66983D01*
X19157Y66977D01*
X19155Y66969D01*
X19151Y66956D01*
X19143Y66938D01*
X19130Y66916D01*
X19113Y66888D01*
X19089Y66857D01*
X19059Y66821D01*
X19012Y66772D01*
X18991Y66716D01*
X17387Y65113D01*
X17199Y64832D01*
X17133Y64500D01*
Y37367D01*
X14803D01*
X14471Y37301D01*
X14190Y37113D01*
X7944Y30867D01*
X-10133D01*
Y34900D01*
X-9671Y35091D01*
X-9248Y34667D01*
X-9225Y34611D01*
X-9180Y34563D01*
X-9103Y34473D01*
X-9081Y34443D01*
X-9060Y34411D01*
X-9044Y34384D01*
X-9033Y34360D01*
X-9025Y34341D01*
X-9021Y34327D01*
X-9013Y34295D01*
X-8969Y34233D01*
X-8802Y33831D01*
X-8436Y33465D01*
X-7959Y33267D01*
X-7441D01*
X-6964Y33465D01*
X-6598Y33831D01*
X-6400Y34309D01*
Y34826D01*
X-6598Y35304D01*
X-6906Y35612D01*
X-6586Y35931D01*
X-6388Y36409D01*
Y36926D01*
X-6586Y37404D01*
X-6952Y37769D01*
X-7430Y37967D01*
X-7459D01*
X-7528Y38028D01*
Y62649D01*
X-7066Y62841D01*
X4387Y51387D01*
X4668Y51199D01*
X5000Y51133D01*
X9985D01*
X13747Y47372D01*
X13700Y47259D01*
Y46741D01*
X13898Y46264D01*
X14264Y45898D01*
X14741Y45700D01*
X15259D01*
X15736Y45898D01*
X16102Y46264D01*
X16300Y46741D01*
Y47259D01*
X16102Y47736D01*
X15736Y48102D01*
X15259Y48300D01*
X15239D01*
X15177Y48393D01*
X10957Y52613D01*
X10676Y52801D01*
X10344Y52867D01*
X5359D01*
X-6328Y64554D01*
Y82537D01*
X4859Y93724D01*
X10732D01*
X10787Y93700D01*
X10854Y93698D01*
X10901Y93694D01*
X10940Y93688D01*
X10972Y93682D01*
X10996Y93674D01*
X11015Y93668D01*
X11027Y93662D01*
X11034Y93657D01*
X11039Y93654D01*
X11062Y93632D01*
X11153Y93599D01*
X11264Y93489D01*
X11741Y93291D01*
X12259D01*
X12736Y93489D01*
X12847Y93599D01*
X12938Y93632D01*
X12961Y93654D01*
X12966Y93657D01*
X12973Y93662D01*
X12985Y93668D01*
X13003Y93674D01*
X13028Y93682D01*
X13060Y93688D01*
X13099Y93694D01*
X13146Y93698D01*
X13213Y93700D01*
X13268Y93724D01*
X20450D01*
X20782Y93790D01*
X21063Y93978D01*
X29191Y102106D01*
X29247Y102127D01*
X29296Y102174D01*
X29332Y102204D01*
X29364Y102228D01*
X29391Y102246D01*
X29413Y102258D01*
X29431Y102266D01*
X29444Y102270D01*
X29453Y102273D01*
X29458Y102273D01*
X29489Y102275D01*
X29577Y102315D01*
X29734D01*
X30212Y102513D01*
X30577Y102879D01*
X30775Y103357D01*
Y103874D01*
X30577Y104352D01*
X30212Y104718D01*
X30187Y104728D01*
X30070Y105317D01*
X35285Y110533D01*
X35785Y110326D01*
Y104298D01*
X33738Y102252D01*
X33517Y102103D01*
X32887Y101474D01*
X32887Y101474D01*
X31410Y99997D01*
X31222Y99716D01*
X31156Y99384D01*
Y97684D01*
X31133Y97569D01*
Y83591D01*
X31199Y83259D01*
X31387Y82978D01*
X32491Y81874D01*
X32512Y81818D01*
X32559Y81770D01*
X32589Y81734D01*
X32613Y81702D01*
X32630Y81675D01*
X32643Y81652D01*
X32651Y81635D01*
X32655Y81622D01*
X32657Y81613D01*
X32658Y81608D01*
X32659Y81576D01*
X32700Y81488D01*
Y81332D01*
X32898Y80854D01*
X33264Y80489D01*
X33741Y80291D01*
X34259D01*
X34736Y80489D01*
X35102Y80854D01*
X35300Y81332D01*
Y81849D01*
X35102Y82327D01*
X34736Y82693D01*
X34259Y82891D01*
X34102D01*
X34014Y82931D01*
X33983Y82933D01*
X33977Y82933D01*
X33969Y82936D01*
X33956Y82940D01*
X33938Y82948D01*
X33916Y82960D01*
X33889Y82978D01*
X33857Y83002D01*
X33821Y83032D01*
X33772Y83078D01*
X33669Y83321D01*
X33990Y83791D01*
X34259D01*
X34736Y83988D01*
X35102Y84354D01*
X35300Y84832D01*
Y85349D01*
X35102Y85827D01*
X34991Y85938D01*
X34958Y86028D01*
X34937Y86052D01*
X34934Y86056D01*
X34929Y86064D01*
X34923Y86076D01*
X34916Y86094D01*
X34909Y86119D01*
X34902Y86151D01*
X34896Y86190D01*
X34893Y86237D01*
X34891Y86304D01*
X34867Y86359D01*
Y99232D01*
X38464Y102829D01*
X38652Y103110D01*
X38718Y103442D01*
Y128273D01*
X39218Y128480D01*
X48865Y118833D01*
X49146Y118645D01*
X49478Y118579D01*
X53755D01*
X54087Y118645D01*
X54368Y118833D01*
X56216Y120681D01*
X56272Y120703D01*
X56321Y120749D01*
X56357Y120780D01*
X56388Y120803D01*
X56415Y120821D01*
X56438Y120833D01*
X56456Y120841D01*
X56469Y120846D01*
X56477Y120848D01*
X56483Y120849D01*
X56514Y120850D01*
X56602Y120891D01*
X56759D01*
X57236Y121089D01*
X57602Y121454D01*
X57632Y121526D01*
X58222Y121643D01*
X61096Y118769D01*
X60941Y118217D01*
X60680Y118109D01*
X60315Y117744D01*
X60166Y117385D01*
X59728Y117323D01*
X59645Y117335D01*
X59587Y117477D01*
X59221Y117843D01*
X58743Y118041D01*
X58226D01*
X57748Y117843D01*
X57383Y117477D01*
X57185Y116999D01*
Y116482D01*
X57383Y116004D01*
X57748Y115638D01*
X58226Y115441D01*
X58382D01*
X58470Y115400D01*
X58502Y115399D01*
X58507Y115398D01*
X58516Y115396D01*
X58529Y115391D01*
X58547Y115383D01*
X58569Y115371D01*
X58596Y115353D01*
X58628Y115329D01*
X58663Y115299D01*
X58712Y115253D01*
X58768Y115231D01*
X74080Y99919D01*
X73889Y99457D01*
X41768D01*
X41713Y99482D01*
X41646Y99483D01*
X41599Y99487D01*
X41560Y99493D01*
X41528Y99499D01*
X41504Y99507D01*
X41485Y99514D01*
X41473Y99519D01*
X41465Y99524D01*
X41461Y99527D01*
X41438Y99549D01*
X41347Y99582D01*
X41236Y99693D01*
X40759Y99891D01*
X40241D01*
X39764Y99693D01*
X39398Y99327D01*
X39200Y98849D01*
Y98332D01*
X39355Y97957D01*
X39206Y97609D01*
X39088Y97457D01*
X38268D01*
X38213Y97482D01*
X38146Y97483D01*
X38099Y97487D01*
X38060Y97493D01*
X38028Y97500D01*
X38004Y97507D01*
X37985Y97514D01*
X37973Y97519D01*
X37966Y97524D01*
X37961Y97527D01*
X37938Y97549D01*
X37847Y97582D01*
X37736Y97693D01*
X37259Y97891D01*
X36741D01*
X36264Y97693D01*
X35898Y97327D01*
X35700Y96849D01*
Y96332D01*
X35898Y95854D01*
X36264Y95489D01*
X36741Y95291D01*
X37259D01*
X37736Y95489D01*
X37847Y95599D01*
X37938Y95632D01*
X37961Y95654D01*
X37966Y95657D01*
X37973Y95662D01*
X37985Y95668D01*
X38004Y95675D01*
X38028Y95682D01*
X38060Y95688D01*
X38099Y95694D01*
X38146Y95698D01*
X38213Y95700D01*
X38268Y95724D01*
X56141D01*
X56490Y95375D01*
X56512Y95318D01*
X56559Y95270D01*
X56589Y95234D01*
X56613Y95202D01*
X56630Y95175D01*
X56643Y95152D01*
X56651Y95135D01*
X56655Y95122D01*
X56657Y95113D01*
X56658Y95108D01*
X56659Y95076D01*
X56700Y94988D01*
Y94832D01*
X56898Y94354D01*
X57264Y93989D01*
X57741Y93791D01*
X58259D01*
X58736Y93989D01*
X59102Y94354D01*
X59300Y94832D01*
Y95349D01*
X59102Y95827D01*
X58736Y96193D01*
X58259Y96391D01*
X58102D01*
X58014Y96431D01*
X57983Y96433D01*
X57977Y96433D01*
X57969Y96435D01*
X57956Y96440D01*
X57938Y96448D01*
X57916Y96460D01*
X57889Y96478D01*
X57857Y96502D01*
X57821Y96532D01*
X57772Y96579D01*
X57716Y96600D01*
X57113Y97203D01*
X57082Y97224D01*
X57234Y97724D01*
X74353D01*
X85047Y87030D01*
Y80568D01*
X85023Y80513D01*
X85021Y80446D01*
X85017Y80399D01*
X85012Y80360D01*
X85005Y80328D01*
X84998Y80304D01*
X84991Y80285D01*
X84985Y80273D01*
X84980Y80265D01*
X84977Y80261D01*
X84956Y80238D01*
X84922Y80147D01*
X84812Y80036D01*
X84614Y79559D01*
Y79041D01*
X84619Y79030D01*
X84285Y78530D01*
X63500D01*
X62586Y78410D01*
X61735Y78057D01*
X61714Y78041D01*
X55500D01*
X55117Y77883D01*
X54959Y77500D01*
Y48500D01*
X55117Y48117D01*
X55500Y47959D01*
X67535D01*
X67609Y47990D01*
X67690Y47981D01*
X67794Y48066D01*
X67918Y48117D01*
X67949Y48192D01*
X68011Y48243D01*
X75032Y61243D01*
X75046Y61376D01*
X75097Y61500D01*
Y69579D01*
X82524Y71470D01*
X146628D01*
X149888Y68211D01*
X149916Y68106D01*
X150422Y67229D01*
X150726Y66925D01*
X150758Y66835D01*
X150899Y66681D01*
X151009Y66532D01*
X151109Y66365D01*
X151180Y66214D01*
X151357Y63534D01*
X151339Y63443D01*
X151274Y63213D01*
X151197Y63004D01*
X151109Y62816D01*
X151009Y62649D01*
X150899Y62500D01*
X150758Y62346D01*
X150726Y62256D01*
X150422Y61952D01*
X149916Y61075D01*
X149653Y60097D01*
Y59084D01*
X149916Y58106D01*
X150422Y57229D01*
X150726Y56925D01*
X150758Y56835D01*
X150899Y56682D01*
X151009Y56533D01*
X151109Y56365D01*
X151197Y56177D01*
X151274Y55969D01*
X151339Y55738D01*
X151390Y55485D01*
X151428Y55209D01*
X151451Y54911D01*
X151459Y54591D01*
X151451Y54270D01*
X151428Y53972D01*
X151390Y53697D01*
X151339Y53443D01*
X151274Y53213D01*
X151197Y53004D01*
X151109Y52816D01*
X151009Y52649D01*
X150899Y52500D01*
X150758Y52346D01*
X150726Y52256D01*
X150422Y51952D01*
X149916Y51075D01*
X149653Y50097D01*
Y49084D01*
X149916Y48106D01*
X150422Y47229D01*
X150726Y46925D01*
X150758Y46835D01*
X150899Y46681D01*
X151009Y46532D01*
X151109Y46365D01*
X151197Y46177D01*
X151274Y45969D01*
X151339Y45738D01*
X151390Y45485D01*
X151428Y45209D01*
X151451Y44911D01*
X151459Y44591D01*
X151451Y44270D01*
X151428Y43972D01*
X151390Y43697D01*
X151339Y43443D01*
X151274Y43213D01*
X151197Y43004D01*
X151109Y42816D01*
X151009Y42649D01*
X150899Y42500D01*
X150758Y42346D01*
X150726Y42256D01*
X150422Y41952D01*
X149916Y41075D01*
X149653Y40097D01*
Y39084D01*
X149916Y38106D01*
X150422Y37229D01*
X150726Y36925D01*
X150758Y36835D01*
X150899Y36682D01*
X151009Y36533D01*
X151109Y36365D01*
X151197Y36177D01*
X151274Y35969D01*
X151339Y35738D01*
X151390Y35485D01*
X151428Y35209D01*
X151428Y35202D01*
X151403Y34909D01*
X151335Y34504D01*
X151246Y34170D01*
X151140Y33910D01*
X151026Y33723D01*
X150911Y33598D01*
X150795Y33521D01*
X150664Y33475D01*
X150443Y33451D01*
X150417Y33437D01*
X149653D01*
Y25744D01*
X157346D01*
Y33437D01*
X156583D01*
X156557Y33451D01*
X156335Y33475D01*
X156205Y33521D01*
X156089Y33598D01*
X155974Y33723D01*
X155860Y33910D01*
X155754Y34170D01*
X155665Y34504D01*
X155597Y34909D01*
X155571Y35202D01*
X155572Y35209D01*
X155610Y35485D01*
X155661Y35738D01*
X155726Y35969D01*
X155803Y36177D01*
X155891Y36365D01*
X155991Y36533D01*
X156101Y36682D01*
X156242Y36835D01*
X156274Y36925D01*
X156578Y37229D01*
X157084Y38106D01*
X157346Y39084D01*
Y40097D01*
X157084Y41075D01*
X156578Y41952D01*
X156274Y42256D01*
X156242Y42346D01*
X156101Y42500D01*
X155991Y42649D01*
X155891Y42816D01*
X155803Y43004D01*
X155726Y43213D01*
X155661Y43444D01*
X155610Y43697D01*
X155572Y43972D01*
X155549Y44270D01*
X155541Y44591D01*
X155549Y44911D01*
X155572Y45209D01*
X155610Y45485D01*
X155661Y45738D01*
X155726Y45968D01*
X155803Y46177D01*
X155891Y46365D01*
X155991Y46532D01*
X156101Y46681D01*
X156242Y46835D01*
X156274Y46925D01*
X156578Y47229D01*
X157084Y48106D01*
X157346Y49084D01*
Y50097D01*
X157084Y51075D01*
X156578Y51952D01*
X156274Y52256D01*
X156242Y52346D01*
X156101Y52500D01*
X155991Y52649D01*
X155891Y52816D01*
X155803Y53004D01*
X155726Y53213D01*
X155661Y53443D01*
X155610Y53697D01*
X155572Y53972D01*
X155549Y54270D01*
X155541Y54591D01*
X155549Y54911D01*
X155572Y55209D01*
X155610Y55485D01*
X155661Y55738D01*
X155726Y55969D01*
X155803Y56177D01*
X155891Y56365D01*
X155991Y56533D01*
X156101Y56682D01*
X156242Y56835D01*
X156274Y56925D01*
X156578Y57229D01*
X157084Y58106D01*
X157346Y59084D01*
Y60097D01*
X157084Y61075D01*
X156578Y61952D01*
X156274Y62256D01*
X156242Y62346D01*
X156101Y62500D01*
X155991Y62649D01*
X155891Y62816D01*
X155803Y63004D01*
X155726Y63213D01*
X155661Y63443D01*
X155610Y63697D01*
X155604Y63741D01*
X155640Y64804D01*
X155761Y66064D01*
X155803Y66177D01*
X155891Y66365D01*
X155991Y66532D01*
X156101Y66681D01*
X156242Y66835D01*
X156274Y66925D01*
X156578Y67229D01*
X157084Y68106D01*
X157346Y69084D01*
Y70097D01*
X157084Y71075D01*
X156578Y71952D01*
X155862Y72668D01*
X154985Y73175D01*
X154880Y73203D01*
X150587Y77496D01*
X149856Y78057D01*
X149004Y78410D01*
X148091Y78530D01*
X87543D01*
X87209Y79030D01*
X87214Y79041D01*
Y79559D01*
X87016Y80036D01*
X86905Y80147D01*
X86872Y80238D01*
X86851Y80261D01*
X86847Y80265D01*
X86843Y80273D01*
X86837Y80285D01*
X86830Y80304D01*
X86823Y80328D01*
X86816Y80360D01*
X86810Y80399D01*
X86807Y80446D01*
X86805Y80513D01*
X86781Y80568D01*
Y86566D01*
X87243Y86757D01*
X93240Y80760D01*
X93521Y80572D01*
X93853Y80506D01*
X160373D01*
X160705Y80572D01*
X160986Y80760D01*
X165395Y85169D01*
X165583Y85450D01*
X165649Y85782D01*
Y101675D01*
X166149Y101882D01*
X167204Y100828D01*
X167485Y100640D01*
X167817Y100574D01*
X171047D01*
X171379Y100640D01*
X171660Y100828D01*
X174313Y103481D01*
X174501Y103762D01*
X174567Y104094D01*
Y146391D01*
X174501Y146722D01*
X174313Y147003D01*
X167452Y153864D01*
X167438Y153910D01*
X167333Y154037D01*
X167254Y154173D01*
X167174Y154361D01*
X167099Y154602D01*
X167032Y154893D01*
X166979Y155221D01*
X166889Y156539D01*
X166887Y157059D01*
X166847Y157157D01*
Y157597D01*
X166584Y158575D01*
X166078Y159452D01*
X165362Y160169D01*
X164485Y160675D01*
X163506Y160937D01*
X162494D01*
X161515Y160675D01*
X160638Y160169D01*
X160039Y159570D01*
X159539Y159735D01*
Y174446D01*
X160039Y174612D01*
X160638Y174013D01*
X161515Y173506D01*
X162494Y173244D01*
X163506D01*
X164485Y173506D01*
X165362Y174013D01*
X166078Y174729D01*
X166584Y175606D01*
X166847Y176584D01*
Y177597D01*
X166584Y178575D01*
X166078Y179452D01*
X165362Y180168D01*
X164485Y180675D01*
X163506Y180937D01*
X162494D01*
X161515Y180675D01*
X160638Y180168D01*
X160039Y179569D01*
X159539Y179735D01*
Y180560D01*
X159540Y180562D01*
X159569Y181099D01*
X159646Y181537D01*
X159769Y181905D01*
X159932Y182208D01*
X160135Y182456D01*
X160382Y182659D01*
X160685Y182822D01*
X161053Y182945D01*
X161492Y183022D01*
X162028Y183050D01*
X162031Y183051D01*
X175119D01*
X175681Y182489D01*
D02*
G37*
G36*
X152972Y183050D02*
X153508Y183022D01*
X153947Y182945D01*
X154315Y182822D01*
X154618Y182659D01*
X154865Y182456D01*
X155068Y182208D01*
X155231Y181905D01*
X155354Y181537D01*
X155431Y181099D01*
X155459Y180562D01*
X155461Y180560D01*
Y142687D01*
X155616Y141907D01*
X156058Y141245D01*
X158035Y139268D01*
X158037Y139264D01*
X158266Y139023D01*
X158460Y138796D01*
X158627Y138575D01*
X158767Y138361D01*
X158882Y138152D01*
X158973Y137951D01*
X159040Y137757D01*
X159085Y137569D01*
X159109Y137387D01*
X159114Y137179D01*
X159153Y137090D01*
Y136584D01*
X159416Y135606D01*
X159922Y134729D01*
X160638Y134013D01*
X161515Y133506D01*
X162494Y133244D01*
X163506D01*
X164485Y133506D01*
X165362Y134013D01*
X166078Y134729D01*
X166584Y135606D01*
X166847Y136584D01*
Y137597D01*
X166584Y138575D01*
X166078Y139452D01*
X165362Y140168D01*
X164485Y140675D01*
X163506Y140937D01*
X163151D01*
X163069Y140977D01*
X162861Y140990D01*
X162677Y141021D01*
X162488Y141072D01*
X162292Y141146D01*
X162089Y141242D01*
X161879Y141361D01*
X161669Y141501D01*
X161208Y141876D01*
X160972Y142101D01*
X160968Y142103D01*
X159539Y143532D01*
Y144446D01*
X160039Y144612D01*
X160638Y144013D01*
X161515Y143506D01*
X162494Y143244D01*
X162934D01*
X163032Y143203D01*
X163561Y143201D01*
X164033Y143186D01*
X164864Y143113D01*
X165198Y143058D01*
X165489Y142992D01*
X165730Y142917D01*
X165918Y142837D01*
X166054Y142758D01*
X166181Y142653D01*
X166226Y142639D01*
X171633Y137232D01*
Y104950D01*
X170641Y103957D01*
X169768D01*
X169713Y103982D01*
X169646Y103983D01*
X169599Y103987D01*
X169560Y103993D01*
X169528Y103999D01*
X169503Y104007D01*
X169485Y104014D01*
X169473Y104019D01*
X169465Y104024D01*
X169461Y104027D01*
X169448Y104039D01*
X169437Y104052D01*
X169433Y104056D01*
X169429Y104064D01*
X169423Y104076D01*
X169416Y104094D01*
X169409Y104119D01*
X169402Y104151D01*
X169396Y104190D01*
X169393Y104236D01*
X169391Y104304D01*
X169367Y104359D01*
Y104591D01*
X169301Y104922D01*
X169113Y105203D01*
X167613Y106703D01*
X167332Y106891D01*
X167000Y106957D01*
X164500D01*
X164168Y106891D01*
X163887Y106703D01*
X162567Y105383D01*
X162067Y105590D01*
Y109432D01*
X165263Y112628D01*
X165451Y112909D01*
X165517Y113241D01*
Y115941D01*
X165451Y116272D01*
X165300Y116498D01*
Y116849D01*
X165102Y117327D01*
X164736Y117693D01*
X164259Y117891D01*
X163741D01*
X163374Y117738D01*
X163286Y117726D01*
X163257Y117709D01*
X163244Y117702D01*
X163224Y117694D01*
X163206Y117688D01*
X163121Y117669D01*
X163090Y117664D01*
X162971Y117655D01*
X162904Y117654D01*
X162848Y117629D01*
X162487D01*
X162347Y117657D01*
X156859D01*
X150567Y123950D01*
Y145391D01*
X150501Y145722D01*
X150313Y146003D01*
X142452Y153864D01*
X142438Y153910D01*
X142333Y154037D01*
X142254Y154173D01*
X142174Y154361D01*
X142099Y154602D01*
X142032Y154893D01*
X141979Y155221D01*
X141889Y156539D01*
X141887Y157059D01*
X141847Y157157D01*
Y157597D01*
X141584Y158575D01*
X141078Y159452D01*
X140362Y160169D01*
X139485Y160675D01*
X138506Y160937D01*
X137494D01*
X136515Y160675D01*
X135638Y160169D01*
X135039Y159570D01*
X134539Y159735D01*
Y174446D01*
X135039Y174612D01*
X135638Y174013D01*
X136515Y173506D01*
X137494Y173244D01*
X138506D01*
X139485Y173506D01*
X140362Y174013D01*
X141078Y174729D01*
X141584Y175606D01*
X141847Y176584D01*
Y177597D01*
X141584Y178575D01*
X141078Y179452D01*
X140362Y180168D01*
X139485Y180675D01*
X138506Y180937D01*
X137494D01*
X136515Y180675D01*
X135638Y180168D01*
X135039Y179569D01*
X134539Y179735D01*
Y180560D01*
X134540Y180562D01*
X134569Y181099D01*
X134646Y181537D01*
X134769Y181905D01*
X134932Y182208D01*
X135135Y182456D01*
X135382Y182659D01*
X135685Y182822D01*
X136053Y182945D01*
X136492Y183022D01*
X137028Y183050D01*
X137031Y183051D01*
X152969D01*
X152972Y183050D01*
D02*
G37*
G36*
X12680Y166677D02*
X12688Y166600D01*
X12700Y166528D01*
X12717Y166461D01*
X12739Y166401D01*
X12766Y166345D01*
X12797Y166296D01*
X12834Y166251D01*
X12876Y166213D01*
X12922Y166180D01*
X11831Y165939D01*
X11859Y165986D01*
X11884Y166036D01*
X11906Y166091D01*
X11925Y166150D01*
X11941Y166212D01*
X11954Y166279D01*
X11972Y166425D01*
X11976Y166503D01*
X11978Y166586D01*
X12678Y166760D01*
X12680Y166677D01*
D02*
G37*
G36*
X31096Y165601D02*
X31039Y165541D01*
X30988Y165481D01*
X30944Y165422D01*
X30905Y165363D01*
X30872Y165303D01*
X30846Y165244D01*
X30825Y165185D01*
X30811Y165126D01*
X30802Y165067D01*
X30800Y165008D01*
X30008Y165800D01*
X30067Y165802D01*
X30126Y165811D01*
X30185Y165825D01*
X30244Y165846D01*
X30303Y165872D01*
X30362Y165905D01*
X30422Y165944D01*
X30481Y165988D01*
X30541Y166039D01*
X30601Y166096D01*
X31096Y165601D01*
D02*
G37*
G36*
X11202Y164617D02*
X11208Y164539D01*
X11219Y164465D01*
X11234Y164396D01*
X11253Y164331D01*
X11276Y164271D01*
X11303Y164214D01*
X11334Y164162D01*
X11370Y164115D01*
X11410Y164071D01*
X10290D01*
X10330Y164115D01*
X10366Y164162D01*
X10397Y164214D01*
X10424Y164271D01*
X10447Y164331D01*
X10466Y164396D01*
X10481Y164465D01*
X10492Y164539D01*
X10498Y164617D01*
X10500Y164699D01*
X11200D01*
X11202Y164617D01*
D02*
G37*
G36*
X15097Y164473D02*
X15103Y164395D01*
X15114Y164321D01*
X15129Y164252D01*
X15147Y164187D01*
X15171Y164126D01*
X15198Y164070D01*
X15229Y164018D01*
X15265Y163970D01*
X15305Y163927D01*
X14185D01*
X14225Y163970D01*
X14261Y164018D01*
X14292Y164070D01*
X14319Y164126D01*
X14343Y164187D01*
X14361Y164252D01*
X14376Y164321D01*
X14387Y164395D01*
X14393Y164473D01*
X14395Y164555D01*
X15095D01*
X15097Y164473D01*
D02*
G37*
G36*
X40083Y176991D02*
X40415Y176925D01*
X48606D01*
X53783Y171748D01*
Y160714D01*
X53283Y160380D01*
X53259Y160391D01*
X52741D01*
X52264Y160193D01*
X51898Y159827D01*
X51700Y159349D01*
Y159193D01*
X51659Y159105D01*
X51658Y159073D01*
X51657Y159068D01*
X51655Y159059D01*
X51651Y159046D01*
X51643Y159029D01*
X51630Y159006D01*
X51613Y158979D01*
X51589Y158947D01*
X51559Y158912D01*
X51512Y158863D01*
X51490Y158807D01*
X48708Y156024D01*
X48520Y155743D01*
X48454Y155411D01*
Y152182D01*
X47954Y151975D01*
X47736Y152193D01*
X47259Y152391D01*
X46741D01*
X46264Y152193D01*
X45898Y151827D01*
X45700Y151349D01*
Y150891D01*
X45241D01*
X44764Y150693D01*
X44717Y150646D01*
X44217Y150853D01*
Y153082D01*
X51613Y160478D01*
X51801Y160759D01*
X51867Y161091D01*
Y161323D01*
X51891Y161377D01*
X51893Y161445D01*
X51897Y161491D01*
X51902Y161531D01*
X51909Y161562D01*
X51916Y161587D01*
X51923Y161605D01*
X51929Y161617D01*
X51933Y161625D01*
X51937Y161630D01*
X51958Y161653D01*
X51991Y161744D01*
X52102Y161854D01*
X52300Y162332D01*
Y162849D01*
X52102Y163327D01*
X51736Y163693D01*
X51259Y163891D01*
X50741D01*
X50595Y163830D01*
X50497Y163866D01*
X50133Y164180D01*
Y164516D01*
X49935Y164994D01*
X49570Y165359D01*
X49092Y165557D01*
X48575D01*
X48097Y165359D01*
X47731Y164994D01*
X47533Y164516D01*
Y164318D01*
X47292Y163942D01*
X47071Y163891D01*
X46741D01*
X46300Y164249D01*
Y164349D01*
X46102Y164827D01*
X45736Y165193D01*
X45259Y165391D01*
X44741D01*
X44264Y165193D01*
X44153Y165082D01*
X44062Y165049D01*
X44039Y165027D01*
X44034Y165024D01*
X44027Y165019D01*
X44015Y165014D01*
X43997Y165007D01*
X43972Y164999D01*
X43940Y164993D01*
X43901Y164987D01*
X43854Y164983D01*
X43787Y164982D01*
X43732Y164957D01*
X41150D01*
X40818Y164891D01*
X40537Y164703D01*
X35183Y159349D01*
X34995Y159068D01*
X34929Y158736D01*
Y146040D01*
X34467Y145849D01*
X34113Y146203D01*
X33832Y146391D01*
X33500Y146457D01*
X31768D01*
X31713Y146482D01*
X31646Y146483D01*
X31599Y146487D01*
X31560Y146493D01*
X31528Y146500D01*
X31503Y146507D01*
X31485Y146513D01*
X31473Y146519D01*
X31466Y146524D01*
X31461Y146527D01*
X31438Y146549D01*
X31347Y146582D01*
X31236Y146693D01*
X30759Y146891D01*
X30241D01*
X29764Y146693D01*
X29398Y146327D01*
X29200Y145849D01*
Y145332D01*
X29398Y144854D01*
X29764Y144489D01*
X30241Y144291D01*
X30759D01*
X31236Y144489D01*
X31347Y144599D01*
X31438Y144632D01*
X31461Y144654D01*
X31466Y144657D01*
X31473Y144662D01*
X31485Y144668D01*
X31503Y144675D01*
X31528Y144682D01*
X31560Y144688D01*
X31599Y144694D01*
X31646Y144698D01*
X31713Y144700D01*
X31874Y144606D01*
X31888Y144582D01*
X31933Y144012D01*
X31748Y143827D01*
X31550Y143349D01*
Y142832D01*
X31748Y142354D01*
X31859Y142244D01*
X31892Y142153D01*
X31913Y142130D01*
X31916Y142125D01*
X31921Y142117D01*
X31927Y142105D01*
X31934Y142087D01*
X31941Y142062D01*
X31948Y142031D01*
X31953Y141991D01*
X31957Y141945D01*
X31959Y141877D01*
X31983Y141823D01*
Y139846D01*
X32049Y139515D01*
X32237Y139234D01*
X33102Y138369D01*
X32910Y137907D01*
X26253D01*
X25921Y137841D01*
X25640Y137653D01*
X23867Y135880D01*
X23367Y136087D01*
Y143232D01*
X29716Y149581D01*
X29772Y149603D01*
X29821Y149649D01*
X29857Y149679D01*
X29888Y149703D01*
X29916Y149721D01*
X29938Y149733D01*
X29956Y149741D01*
X29969Y149746D01*
X29977Y149748D01*
X29983Y149749D01*
X30014Y149750D01*
X30102Y149791D01*
X30259D01*
X30736Y149988D01*
X31102Y150354D01*
X31300Y150832D01*
Y151349D01*
X31102Y151827D01*
X30736Y152193D01*
X30259Y152391D01*
X29815D01*
Y152834D01*
X29617Y153312D01*
X29251Y153677D01*
X28774Y153875D01*
X28256D01*
X27779Y153677D01*
X27413Y153312D01*
X27215Y152834D01*
Y152678D01*
X27174Y152590D01*
X27173Y152558D01*
X27172Y152553D01*
X27170Y152544D01*
X27166Y152531D01*
X27158Y152514D01*
X27145Y152491D01*
X27128Y152464D01*
X27104Y152432D01*
X27074Y152397D01*
X27027Y152348D01*
X27005Y152292D01*
X19787Y145073D01*
X19599Y144792D01*
X19533Y144460D01*
Y132359D01*
X19509Y132304D01*
X19507Y132237D01*
X19503Y132190D01*
X19498Y132150D01*
X19491Y132119D01*
X19484Y132094D01*
X19477Y132076D01*
X19471Y132064D01*
X19466Y132056D01*
X19463Y132052D01*
X19442Y132028D01*
X19409Y131938D01*
X19298Y131827D01*
X19288Y131802D01*
X18698Y131685D01*
X14217Y136166D01*
Y154271D01*
X14175Y154478D01*
X14151Y154603D01*
X14151Y154603D01*
X13963Y154884D01*
X12293Y156553D01*
X12012Y156741D01*
X12012Y156741D01*
X12012Y156741D01*
X11681Y156807D01*
X10009D01*
X2916Y163900D01*
X2635Y164088D01*
X2304Y164154D01*
X-3238D01*
X-3570Y164088D01*
X-3851Y163900D01*
X-6309Y161442D01*
X-6497Y161160D01*
X-6563Y160829D01*
Y154987D01*
X-6497Y154655D01*
X-6309Y154374D01*
X-5035Y153100D01*
X-5021Y153054D01*
X-4896Y152904D01*
X-4821Y152773D01*
X-4764Y152615D01*
X-4727Y152424D01*
X-4714Y152197D01*
X-4729Y151932D01*
X-4775Y151631D01*
X-4854Y151294D01*
X-4967Y150925D01*
X-5119Y150511D01*
X-5117Y150455D01*
X-5347Y149597D01*
Y148584D01*
X-5084Y147606D01*
X-4578Y146729D01*
X-3862Y146013D01*
X-2985Y145506D01*
X-2006Y145244D01*
X-994D01*
X-15Y145506D01*
X862Y146013D01*
X1578Y146729D01*
X2084Y147606D01*
X2347Y148584D01*
Y149597D01*
X2084Y150575D01*
X1578Y151452D01*
X862Y152169D01*
X-15Y152675D01*
X-100Y152698D01*
X-135Y152731D01*
X-136Y152731D01*
X-137Y152731D01*
X-1868Y153390D01*
X-3283Y153973D01*
X-3459Y154057D01*
X-3555Y154109D01*
X-3602Y154143D01*
X-3635Y154151D01*
X-4830Y155346D01*
Y156273D01*
X-4330Y156481D01*
X-3862Y156013D01*
X-2985Y155506D01*
X-2006Y155244D01*
X-994D01*
X-15Y155506D01*
X862Y156013D01*
X1173Y156324D01*
X1271Y156364D01*
X1647Y156737D01*
X1992Y157060D01*
X2631Y157596D01*
X2905Y157793D01*
X3158Y157952D01*
X3381Y158070D01*
X3571Y158146D01*
X3723Y158186D01*
X3887Y158202D01*
X3929Y158224D01*
X4444D01*
X8540Y154128D01*
X8821Y153940D01*
X8897Y153925D01*
X9200Y153461D01*
X9210Y153374D01*
X9200Y153349D01*
Y152832D01*
X9398Y152354D01*
X9509Y152244D01*
X9542Y152153D01*
X9563Y152130D01*
X9567Y152125D01*
X9571Y152117D01*
X9577Y152105D01*
X9584Y152087D01*
X9591Y152062D01*
X9598Y152031D01*
X9604Y151991D01*
X9607Y151945D01*
X9609Y151877D01*
X9633Y151823D01*
Y151003D01*
X9481Y150884D01*
X9133Y150735D01*
X8759Y150891D01*
X8241D01*
X7764Y150693D01*
X7398Y150327D01*
X7200Y149849D01*
Y149332D01*
X7398Y148854D01*
X7610Y148642D01*
X7612Y148244D01*
X7242Y147891D01*
X6741D01*
X6264Y147693D01*
X5898Y147327D01*
X5700Y146849D01*
Y146332D01*
X5898Y145854D01*
X6008Y145744D01*
X6042Y145653D01*
X6063Y145630D01*
X6067Y145625D01*
X6071Y145617D01*
X6077Y145605D01*
X6084Y145587D01*
X6091Y145562D01*
X6098Y145531D01*
X6103Y145491D01*
X6107Y145445D01*
X6109Y145377D01*
X6133Y145323D01*
Y135000D01*
X6199Y134668D01*
X6387Y134387D01*
X9446Y131329D01*
X9254Y130867D01*
X-2050D01*
X-7633Y136450D01*
Y173699D01*
X-7133Y173906D01*
X-6005Y172778D01*
X-5724Y172590D01*
X-5392Y172524D01*
X3641D01*
X9983Y166182D01*
Y164768D01*
X9959Y164713D01*
X9957Y164646D01*
X9954Y164599D01*
X9948Y164560D01*
X9941Y164528D01*
X9934Y164504D01*
X9927Y164485D01*
X9921Y164473D01*
X9917Y164465D01*
X9913Y164461D01*
X9892Y164438D01*
X9859Y164347D01*
X9748Y164236D01*
X9550Y163759D01*
Y163241D01*
X9748Y162764D01*
X10114Y162398D01*
X10591Y162200D01*
X11109D01*
X11586Y162398D01*
X11952Y162764D01*
X12150Y163241D01*
Y163738D01*
X12155Y163765D01*
X12508Y164200D01*
X12759D01*
X13001Y164300D01*
X13441Y164118D01*
X13551Y163869D01*
X13445Y163614D01*
Y163097D01*
X13643Y162619D01*
X14009Y162254D01*
X14486Y162056D01*
X15004D01*
X15481Y162254D01*
X15847Y162619D01*
X16045Y163097D01*
Y163614D01*
X15847Y164092D01*
X15736Y164203D01*
X15703Y164294D01*
X15682Y164317D01*
X15678Y164321D01*
X15674Y164329D01*
X15668Y164341D01*
X15661Y164359D01*
X15654Y164384D01*
X15647Y164416D01*
X15642Y164455D01*
X15638Y164502D01*
X15636Y164569D01*
X15612Y164624D01*
Y168022D01*
X15546Y168354D01*
X15358Y168635D01*
X15167Y168826D01*
Y172532D01*
X18013Y175378D01*
X23729D01*
X23857Y175292D01*
X23995Y175199D01*
X23995Y175199D01*
X23995Y175199D01*
X24179Y175163D01*
X24327Y175133D01*
X24327Y175133D01*
X24327Y175133D01*
X29732D01*
X29787Y175109D01*
X29854Y175107D01*
X29901Y175103D01*
X29940Y175098D01*
X29972Y175091D01*
X29996Y175084D01*
X30015Y175077D01*
X30027Y175071D01*
X30035Y175066D01*
X30039Y175063D01*
X30062Y175042D01*
X30153Y175008D01*
X30264Y174898D01*
X30741Y174700D01*
X31259D01*
X31736Y174898D01*
X32102Y175264D01*
X32300Y175741D01*
Y176259D01*
X32189Y176528D01*
X32464Y177027D01*
X34949D01*
X35200Y176652D01*
Y176496D01*
X35159Y176408D01*
X35158Y176377D01*
X35157Y176371D01*
X35155Y176363D01*
X35151Y176350D01*
X35143Y176332D01*
X35130Y176309D01*
X35113Y176282D01*
X35089Y176250D01*
X35059Y176215D01*
X35012Y176166D01*
X34991Y176110D01*
X30887Y172007D01*
X30699Y171725D01*
X30633Y171394D01*
Y166859D01*
X30284Y166509D01*
X30228Y166488D01*
X30179Y166442D01*
X30143Y166411D01*
X30112Y166387D01*
X30084Y166370D01*
X30062Y166357D01*
X30044Y166349D01*
X30031Y166345D01*
X30023Y166343D01*
X30017Y166342D01*
X29986Y166341D01*
X29898Y166300D01*
X29741D01*
X29264Y166102D01*
X28898Y165736D01*
X28700Y165259D01*
Y164741D01*
X28898Y164264D01*
X29264Y163898D01*
X29741Y163700D01*
X30259D01*
X30736Y163898D01*
X31102Y164264D01*
X31300Y164741D01*
Y164898D01*
X31341Y164986D01*
X31342Y165017D01*
X31343Y165023D01*
X31345Y165031D01*
X31349Y165044D01*
X31357Y165062D01*
X31370Y165084D01*
X31387Y165111D01*
X31411Y165143D01*
X31441Y165179D01*
X31488Y165228D01*
X31510Y165284D01*
X32113Y165887D01*
X32301Y166168D01*
X32367Y166500D01*
Y171035D01*
X36216Y174884D01*
X36272Y174906D01*
X36321Y174952D01*
X36357Y174983D01*
X36388Y175006D01*
X36416Y175024D01*
X36438Y175037D01*
X36456Y175044D01*
X36469Y175049D01*
X36477Y175051D01*
X36483Y175052D01*
X36514Y175053D01*
X36602Y175094D01*
X36759D01*
X37236Y175292D01*
X37602Y175657D01*
X37800Y176135D01*
Y176652D01*
X37790Y176677D01*
X38124Y177177D01*
X39804D01*
X40083Y176991D01*
D02*
G37*
G36*
X44429Y163531D02*
X44385Y163570D01*
X44338Y163606D01*
X44286Y163638D01*
X44229Y163665D01*
X44169Y163688D01*
X44104Y163707D01*
X44034Y163722D01*
X43961Y163732D01*
X43883Y163739D01*
X43801Y163741D01*
Y164441D01*
X43883Y164443D01*
X43961Y164449D01*
X44034Y164460D01*
X44104Y164474D01*
X44169Y164493D01*
X44229Y164516D01*
X44286Y164543D01*
X44338Y164575D01*
X44385Y164611D01*
X44429Y164651D01*
Y163531D01*
D02*
G37*
G36*
X49353Y163643D02*
X49318Y163595D01*
X49286Y163543D01*
X49259Y163487D01*
X49236Y163426D01*
X49217Y163361D01*
X49202Y163292D01*
X49192Y163218D01*
X49185Y163140D01*
X49183Y163058D01*
X48483D01*
X48481Y163140D01*
X48475Y163218D01*
X48464Y163292D01*
X48450Y163361D01*
X48431Y163426D01*
X48408Y163487D01*
X48380Y163543D01*
X48349Y163595D01*
X48313Y163643D01*
X48273Y163686D01*
X49393D01*
X49353Y163643D01*
D02*
G37*
G36*
X46544Y161933D02*
X46497Y161963D01*
X46445Y161990D01*
X46390Y162014D01*
X46331Y162034D01*
X46268Y162051D01*
X46202Y162065D01*
X46131Y162076D01*
X45978Y162089D01*
X45895Y162091D01*
X45745Y162791D01*
X45828Y162793D01*
X45906Y162800D01*
X45978Y162812D01*
X46044Y162829D01*
X46106Y162851D01*
X46162Y162878D01*
X46213Y162910D01*
X46259Y162946D01*
X46299Y162987D01*
X46334Y163033D01*
X46544Y161933D01*
D02*
G37*
G36*
X51520Y161976D02*
X51484Y161928D01*
X51453Y161876D01*
X51426Y161820D01*
X51402Y161759D01*
X51384Y161694D01*
X51369Y161625D01*
X51358Y161551D01*
X51352Y161474D01*
X51350Y161391D01*
X50650D01*
X50648Y161474D01*
X50642Y161551D01*
X50631Y161625D01*
X50616Y161694D01*
X50598Y161759D01*
X50574Y161820D01*
X50547Y161876D01*
X50516Y161928D01*
X50480Y161976D01*
X50440Y162019D01*
X51560D01*
X51520Y161976D01*
D02*
G37*
G36*
X57405Y160501D02*
X57349Y160441D01*
X57298Y160382D01*
X57253Y160322D01*
X57215Y160263D01*
X57182Y160203D01*
X57155Y160144D01*
X57135Y160085D01*
X57120Y160026D01*
X57112Y159967D01*
X57110Y159908D01*
X56318Y160700D01*
X56376Y160703D01*
X56435Y160711D01*
X56494Y160725D01*
X56554Y160746D01*
X56613Y160773D01*
X56672Y160805D01*
X56731Y160844D01*
X56791Y160888D01*
X56850Y160939D01*
X56910Y160996D01*
X57405Y160501D01*
D02*
G37*
G36*
X40992Y158791D02*
X40933Y158788D01*
X40874Y158780D01*
X40815Y158765D01*
X40756Y158745D01*
X40697Y158718D01*
X40638Y158686D01*
X40578Y158647D01*
X40519Y158602D01*
X40459Y158552D01*
X40400Y158495D01*
X39904Y158990D01*
X39961Y159050D01*
X40012Y159109D01*
X40056Y159169D01*
X40095Y159228D01*
X40128Y159287D01*
X40154Y159347D01*
X40175Y159406D01*
X40189Y159465D01*
X40198Y159524D01*
X40200Y159583D01*
X40992Y158791D01*
D02*
G37*
G36*
X55361Y158970D02*
X55477Y158870D01*
X55535Y158828D01*
X55647Y158757D01*
X55703Y158729D01*
X55757Y158705D01*
X55811Y158687D01*
X55864Y158674D01*
X54921Y158071D01*
X54930Y158127D01*
X54932Y158184D01*
X54927Y158242D01*
X54914Y158300D01*
X54894Y158358D01*
X54866Y158417D01*
X54832Y158476D01*
X54790Y158536D01*
X54740Y158596D01*
X54683Y158656D01*
X55301Y159028D01*
X55361Y158970D01*
D02*
G37*
G36*
X52992Y158291D02*
X52933Y158288D01*
X52874Y158280D01*
X52815Y158265D01*
X52756Y158245D01*
X52697Y158218D01*
X52637Y158186D01*
X52578Y158147D01*
X52519Y158102D01*
X52459Y158052D01*
X52399Y157995D01*
X51904Y158490D01*
X51961Y158550D01*
X52012Y158609D01*
X52056Y158669D01*
X52095Y158728D01*
X52128Y158787D01*
X52154Y158847D01*
X52175Y158906D01*
X52189Y158965D01*
X52198Y159024D01*
X52200Y159083D01*
X52992Y158291D01*
D02*
G37*
G36*
X1271Y161055D02*
X2299Y160158D01*
X2603Y159939D01*
X2888Y159759D01*
X3154Y159620D01*
X3400Y159520D01*
X3628Y159460D01*
X3836Y159441D01*
Y158741D01*
X3628Y158721D01*
X3400Y158661D01*
X3154Y158561D01*
X2888Y158422D01*
X2603Y158242D01*
X2299Y158023D01*
X1633Y157465D01*
X1271Y157127D01*
X890Y156748D01*
Y161433D01*
X1271Y161055D01*
D02*
G37*
G36*
X52485Y155732D02*
X52536Y155707D01*
X52591Y155685D01*
X52650Y155666D01*
X52713Y155650D01*
X52779Y155636D01*
X52925Y155619D01*
X53004Y155614D01*
X53086Y155613D01*
X53260Y154913D01*
X53177Y154910D01*
X53100Y154903D01*
X53028Y154891D01*
X52962Y154873D01*
X52901Y154851D01*
X52845Y154824D01*
X52795Y154792D01*
X52751Y154755D01*
X52712Y154713D01*
X52679Y154667D01*
X52437Y155760D01*
X52485Y155732D01*
D02*
G37*
G36*
X67302Y154117D02*
X67308Y154039D01*
X67319Y153965D01*
X67334Y153896D01*
X67352Y153831D01*
X67376Y153771D01*
X67403Y153714D01*
X67434Y153662D01*
X67470Y153615D01*
X67510Y153571D01*
X66390D01*
X66430Y153615D01*
X66466Y153662D01*
X66497Y153714D01*
X66524Y153771D01*
X66548Y153831D01*
X66566Y153896D01*
X66581Y153965D01*
X66592Y154039D01*
X66598Y154117D01*
X66600Y154199D01*
X67300D01*
X67302Y154117D01*
D02*
G37*
G36*
X56302Y154524D02*
X56311Y154465D01*
X56325Y154406D01*
X56346Y154347D01*
X56372Y154287D01*
X56405Y154228D01*
X56444Y154169D01*
X56488Y154109D01*
X56539Y154050D01*
X56596Y153990D01*
X56101Y153495D01*
X56041Y153552D01*
X55981Y153602D01*
X55922Y153647D01*
X55862Y153686D01*
X55803Y153718D01*
X55744Y153745D01*
X55685Y153765D01*
X55626Y153780D01*
X55567Y153788D01*
X55508Y153791D01*
X56300Y154583D01*
X56302Y154524D01*
D02*
G37*
G36*
X166348Y156520D02*
X166441Y155159D01*
X166501Y154789D01*
X166576Y154461D01*
X166665Y154174D01*
X166769Y153929D01*
X166887Y153726D01*
X167021Y153565D01*
X166526Y153070D01*
X166364Y153203D01*
X166161Y153322D01*
X165916Y153426D01*
X165630Y153515D01*
X165302Y153590D01*
X164931Y153650D01*
X164066Y153726D01*
X163571Y153743D01*
X163033Y153744D01*
X166346Y157057D01*
X166348Y156520D01*
D02*
G37*
G36*
X141348D02*
X141441Y155159D01*
X141501Y154789D01*
X141576Y154461D01*
X141665Y154174D01*
X141769Y153929D01*
X141887Y153726D01*
X142021Y153565D01*
X141526Y153070D01*
X141364Y153203D01*
X141161Y153322D01*
X140916Y153426D01*
X140630Y153515D01*
X140302Y153590D01*
X139931Y153650D01*
X139066Y153726D01*
X138571Y153743D01*
X138033Y153744D01*
X141346Y157057D01*
X141348Y156520D01*
D02*
G37*
G36*
X116348D02*
X116441Y155159D01*
X116501Y154789D01*
X116576Y154461D01*
X116665Y154174D01*
X116769Y153929D01*
X116887Y153726D01*
X117021Y153565D01*
X116526Y153070D01*
X116364Y153203D01*
X116161Y153322D01*
X115916Y153426D01*
X115630Y153515D01*
X115302Y153590D01*
X114931Y153650D01*
X114066Y153726D01*
X113571Y153743D01*
X113033Y153744D01*
X116346Y157057D01*
X116348Y156520D01*
D02*
G37*
G36*
X112967Y153744D02*
X112429Y153743D01*
X111069Y153650D01*
X110698Y153590D01*
X110370Y153515D01*
X110084Y153426D01*
X109839Y153322D01*
X109636Y153203D01*
X109474Y153070D01*
X108979Y153565D01*
X109113Y153726D01*
X109231Y153929D01*
X109335Y154174D01*
X109424Y154461D01*
X109499Y154789D01*
X109559Y155159D01*
X109636Y156025D01*
X109652Y156520D01*
X109654Y157057D01*
X112967Y153744D01*
D02*
G37*
G36*
X91348Y156520D02*
X91441Y155159D01*
X91501Y154789D01*
X91576Y154461D01*
X91665Y154174D01*
X91769Y153929D01*
X91887Y153726D01*
X92021Y153565D01*
X91526Y153070D01*
X91364Y153203D01*
X91161Y153322D01*
X90916Y153426D01*
X90630Y153515D01*
X90302Y153590D01*
X89931Y153650D01*
X89066Y153726D01*
X88571Y153743D01*
X88033Y153744D01*
X91346Y157057D01*
X91348Y156520D01*
D02*
G37*
G36*
X87967Y153744D02*
X87429Y153743D01*
X86069Y153650D01*
X85698Y153590D01*
X85370Y153515D01*
X85084Y153426D01*
X84839Y153322D01*
X84636Y153203D01*
X84474Y153070D01*
X83979Y153565D01*
X84113Y153726D01*
X84231Y153929D01*
X84335Y154174D01*
X84424Y154461D01*
X84499Y154789D01*
X84559Y155159D01*
X84636Y156025D01*
X84652Y156520D01*
X84654Y157057D01*
X87967Y153744D01*
D02*
G37*
G36*
X11020Y152476D02*
X10984Y152428D01*
X10953Y152376D01*
X10926Y152320D01*
X10903Y152259D01*
X10884Y152194D01*
X10869Y152125D01*
X10858Y152051D01*
X10852Y151973D01*
X10850Y151891D01*
X10150D01*
X10148Y151973D01*
X10142Y152051D01*
X10131Y152125D01*
X10116Y152194D01*
X10097Y152259D01*
X10074Y152320D01*
X10047Y152376D01*
X10016Y152428D01*
X9980Y152476D01*
X9940Y152519D01*
X11060D01*
X11020Y152476D01*
D02*
G37*
G36*
X28507Y151775D02*
X28448Y151773D01*
X28389Y151765D01*
X28330Y151750D01*
X28271Y151730D01*
X28212Y151703D01*
X28152Y151670D01*
X28093Y151632D01*
X28034Y151587D01*
X27974Y151537D01*
X27914Y151480D01*
X27419Y151975D01*
X27476Y152034D01*
X27527Y152094D01*
X27571Y152154D01*
X27610Y152213D01*
X27643Y152272D01*
X27669Y152331D01*
X27690Y152391D01*
X27704Y152450D01*
X27713Y152508D01*
X27715Y152567D01*
X28507Y151775D01*
D02*
G37*
G36*
X68848Y151702D02*
X68797Y151650D01*
X68715Y151554D01*
X68684Y151511D01*
X68659Y151470D01*
X68641Y151432D01*
X68629Y151397D01*
X68623Y151365D01*
X68624Y151336D01*
X68631Y151310D01*
X67865Y151799D01*
X67886Y151804D01*
X67912Y151814D01*
X67943Y151831D01*
X67978Y151855D01*
X68018Y151886D01*
X68113Y151966D01*
X68292Y152137D01*
X68848Y151702D01*
D02*
G37*
G36*
X-3843Y153650D02*
X-3704Y153575D01*
X-3503Y153479D01*
X-2067Y152887D01*
X-329Y152226D01*
X-4611Y150324D01*
X-4453Y150752D01*
X-4331Y151153D01*
X-4243Y151528D01*
X-4190Y151876D01*
X-4172Y152197D01*
X-4189Y152491D01*
X-4241Y152759D01*
X-4327Y153000D01*
X-4449Y153214D01*
X-4606Y153401D01*
X-3919Y153704D01*
X-3843Y153650D01*
D02*
G37*
G36*
X29992Y150291D02*
X29933Y150288D01*
X29874Y150280D01*
X29815Y150265D01*
X29756Y150245D01*
X29697Y150218D01*
X29638Y150186D01*
X29578Y150147D01*
X29519Y150102D01*
X29459Y150052D01*
X29399Y149995D01*
X28904Y150490D01*
X28961Y150550D01*
X29012Y150609D01*
X29056Y150669D01*
X29095Y150728D01*
X29128Y150787D01*
X29154Y150847D01*
X29175Y150906D01*
X29189Y150965D01*
X29198Y151024D01*
X29200Y151083D01*
X29992Y150291D01*
D02*
G37*
G36*
X47654Y150623D02*
X47630Y150572D01*
X47609Y150517D01*
X47591Y150458D01*
X47576Y150395D01*
X47564Y150329D01*
X47547Y150183D01*
X47543Y150104D01*
X47541Y150022D01*
X46841Y149827D01*
X46839Y149909D01*
X46832Y149987D01*
X46819Y150058D01*
X46802Y150124D01*
X46779Y150185D01*
X46752Y150239D01*
X46720Y150288D01*
X46682Y150332D01*
X46640Y150370D01*
X46593Y150402D01*
X47680Y150670D01*
X47654Y150623D01*
D02*
G37*
G36*
X46124Y149083D02*
X46097Y149031D01*
X46073Y148976D01*
X46052Y148917D01*
X46034Y148854D01*
X46020Y148788D01*
X46009Y148717D01*
X45996Y148564D01*
X45994Y148482D01*
X45294Y148337D01*
X45292Y148420D01*
X45285Y148498D01*
X45273Y148570D01*
X45256Y148637D01*
X45234Y148698D01*
X45207Y148755D01*
X45176Y148806D01*
X45140Y148852D01*
X45098Y148892D01*
X45052Y148928D01*
X46154Y149130D01*
X46124Y149083D01*
D02*
G37*
G36*
X9127Y149087D02*
X9101Y149036D01*
X9077Y148981D01*
X9057Y148922D01*
X9039Y148859D01*
X9025Y148792D01*
X9014Y148722D01*
X9002Y148568D01*
X9000Y148486D01*
X8300Y148336D01*
X8298Y148419D01*
X8290Y148496D01*
X8278Y148568D01*
X8261Y148635D01*
X8239Y148697D01*
X8213Y148753D01*
X8181Y148804D01*
X8145Y148849D01*
X8103Y148890D01*
X8057Y148924D01*
X9157Y149134D01*
X9127Y149087D01*
D02*
G37*
G36*
X69852Y148117D02*
X69858Y148039D01*
X69869Y147966D01*
X69884Y147896D01*
X69902Y147831D01*
X69926Y147771D01*
X69953Y147714D01*
X69984Y147662D01*
X70020Y147615D01*
X70060Y147571D01*
X68940D01*
X68980Y147615D01*
X69016Y147662D01*
X69047Y147714D01*
X69074Y147771D01*
X69098Y147831D01*
X69116Y147896D01*
X69131Y147966D01*
X69142Y148039D01*
X69148Y148117D01*
X69150Y148199D01*
X69850D01*
X69852Y148117D01*
D02*
G37*
G36*
X52386Y147032D02*
X52389Y147018D01*
X52397Y147000D01*
X52410Y146978D01*
X52429Y146952D01*
X52481Y146889D01*
X52553Y146811D01*
X52597Y146766D01*
X52085Y146289D01*
X51739Y146628D01*
X52388Y147043D01*
X52386Y147032D01*
D02*
G37*
G36*
X54615Y147330D02*
X54662Y147294D01*
X54714Y147263D01*
X54771Y147235D01*
X54831Y147212D01*
X54896Y147193D01*
X54966Y147178D01*
X55039Y147168D01*
X55117Y147162D01*
X55199Y147160D01*
Y146460D01*
X55117Y146458D01*
X55039Y146451D01*
X54966Y146441D01*
X54896Y146426D01*
X54831Y146407D01*
X54771Y146384D01*
X54714Y146357D01*
X54662Y146325D01*
X54615Y146290D01*
X54571Y146250D01*
Y147370D01*
X54615Y147330D01*
D02*
G37*
G36*
X71852Y146117D02*
X71858Y146039D01*
X71869Y145966D01*
X71884Y145896D01*
X71903Y145831D01*
X71926Y145771D01*
X71953Y145714D01*
X71984Y145662D01*
X72020Y145615D01*
X72060Y145571D01*
X70940D01*
X70980Y145615D01*
X71016Y145662D01*
X71047Y145714D01*
X71074Y145771D01*
X71097Y145831D01*
X71116Y145896D01*
X71131Y145966D01*
X71142Y146039D01*
X71148Y146117D01*
X71150Y146199D01*
X71850D01*
X71852Y146117D01*
D02*
G37*
G36*
X7520Y145976D02*
X7484Y145928D01*
X7453Y145876D01*
X7426Y145820D01*
X7402Y145759D01*
X7384Y145694D01*
X7369Y145625D01*
X7358Y145552D01*
X7352Y145474D01*
X7350Y145391D01*
X6650D01*
X6648Y145474D01*
X6642Y145552D01*
X6631Y145625D01*
X6616Y145694D01*
X6598Y145759D01*
X6574Y145820D01*
X6547Y145876D01*
X6516Y145928D01*
X6480Y145976D01*
X6440Y146019D01*
X7560D01*
X7520Y145976D01*
D02*
G37*
G36*
X31115Y146111D02*
X31162Y146075D01*
X31214Y146044D01*
X31271Y146016D01*
X31331Y145993D01*
X31396Y145974D01*
X31466Y145959D01*
X31539Y145949D01*
X31617Y145943D01*
X31699Y145941D01*
Y145241D01*
X31617Y145238D01*
X31539Y145232D01*
X31466Y145222D01*
X31396Y145207D01*
X31331Y145188D01*
X31271Y145165D01*
X31214Y145138D01*
X31162Y145106D01*
X31115Y145071D01*
X31071Y145031D01*
Y146151D01*
X31115Y146111D01*
D02*
G37*
G36*
X76642Y179760D02*
X76688Y179769D01*
X76732Y179750D01*
X76797Y179748D01*
X76838Y179744D01*
X76869Y179739D01*
X76891Y179733D01*
X76902Y179729D01*
X76911Y179718D01*
X76987Y179674D01*
X77264Y179398D01*
X77741Y179200D01*
X78259D01*
X78736Y179398D01*
X78914Y179576D01*
X79414Y179369D01*
Y143762D01*
X79570Y142982D01*
X80012Y142320D01*
X83041Y139290D01*
X83043Y139286D01*
X83044Y139286D01*
X83044Y139285D01*
X83274Y139044D01*
X83467Y138817D01*
X83633Y138596D01*
X83773Y138382D01*
X83887Y138174D01*
X83977Y137973D01*
X84043Y137779D01*
X84088Y137592D01*
X84111Y137410D01*
X84115Y137202D01*
X84153Y137113D01*
Y136584D01*
X84416Y135606D01*
X84922Y134729D01*
X85390Y134261D01*
X85183Y133761D01*
X79440D01*
X59151Y154050D01*
Y154140D01*
X59085Y154471D01*
X58897Y154752D01*
X57002Y156647D01*
X56802Y157154D01*
X57000Y157632D01*
Y158149D01*
X56969Y158225D01*
X57046Y158798D01*
X57412Y159164D01*
X57610Y159642D01*
Y159798D01*
X57650Y159886D01*
X57652Y159917D01*
X57652Y159923D01*
X57655Y159932D01*
X57659Y159944D01*
X57667Y159962D01*
X57679Y159985D01*
X57697Y160012D01*
X57721Y160044D01*
X57751Y160079D01*
X57797Y160128D01*
X57819Y160184D01*
X62018Y164383D01*
X62205Y164664D01*
X62271Y164995D01*
Y173136D01*
X62768Y173633D01*
X64232D01*
X64287Y173609D01*
X64354Y173607D01*
X64401Y173603D01*
X64440Y173598D01*
X64472Y173591D01*
X64496Y173584D01*
X64515Y173577D01*
X64527Y173571D01*
X64534Y173566D01*
X64539Y173563D01*
X64562Y173542D01*
X64653Y173509D01*
X64764Y173398D01*
X65241Y173200D01*
X65759D01*
X65833Y173231D01*
X66333Y172897D01*
Y166445D01*
X66149Y166170D01*
X66083Y165838D01*
Y154268D01*
X66059Y154213D01*
X66057Y154146D01*
X66053Y154099D01*
X66048Y154060D01*
X66041Y154028D01*
X66034Y154004D01*
X66027Y153985D01*
X66021Y153973D01*
X66017Y153965D01*
X66013Y153961D01*
X65992Y153938D01*
X65958Y153847D01*
X65848Y153736D01*
X65650Y153259D01*
Y152741D01*
X65848Y152264D01*
X66214Y151898D01*
X66302Y151861D01*
X66594Y151259D01*
Y150741D01*
X66792Y150264D01*
X67157Y149898D01*
X67635Y149700D01*
X68152D01*
X68633Y149358D01*
Y148268D01*
X68609Y148213D01*
X68607Y148146D01*
X68603Y148099D01*
X68598Y148060D01*
X68591Y148028D01*
X68584Y148003D01*
X68577Y147985D01*
X68571Y147973D01*
X68567Y147966D01*
X68563Y147961D01*
X68542Y147938D01*
X68508Y147847D01*
X68398Y147736D01*
X68200Y147259D01*
Y146741D01*
X68398Y146264D01*
X68764Y145898D01*
X69241Y145700D01*
X69759D01*
X69859Y145741D01*
X70241Y145359D01*
X70200Y145259D01*
Y144741D01*
X70398Y144264D01*
X70764Y143898D01*
X71241Y143700D01*
X71759D01*
X72236Y143898D01*
X72602Y144264D01*
X72800Y144741D01*
Y145259D01*
X72602Y145736D01*
X72492Y145847D01*
X72458Y145938D01*
X72437Y145961D01*
X72434Y145966D01*
X72429Y145973D01*
X72423Y145985D01*
X72416Y146003D01*
X72409Y146028D01*
X72402Y146060D01*
X72396Y146099D01*
X72393Y146146D01*
X72391Y146213D01*
X72367Y146268D01*
Y171641D01*
X73716Y172991D01*
X73772Y173012D01*
X73821Y173058D01*
X73857Y173089D01*
X73888Y173113D01*
X73916Y173130D01*
X73938Y173143D01*
X73956Y173151D01*
X73969Y173155D01*
X73977Y173157D01*
X73983Y173158D01*
X74014Y173159D01*
X74102Y173200D01*
X74259D01*
X74736Y173398D01*
X75102Y173764D01*
X75300Y174241D01*
Y174759D01*
X75102Y175236D01*
X74736Y175602D01*
X74259Y175800D01*
X73741D01*
X73264Y175602D01*
X73130Y175468D01*
X73119Y175463D01*
X73062Y175457D01*
X72592Y175638D01*
X72586Y175748D01*
X72602Y175764D01*
X72800Y176241D01*
Y176759D01*
X72602Y177236D01*
X72236Y177602D01*
X71759Y177800D01*
X71241D01*
X70764Y177602D01*
X70398Y177236D01*
X70200Y176759D01*
Y176241D01*
X70398Y175764D01*
X70508Y175653D01*
X70542Y175562D01*
X70563Y175539D01*
X70566Y175534D01*
X70571Y175527D01*
X70577Y175515D01*
X70584Y175496D01*
X70591Y175472D01*
X70598Y175440D01*
X70604Y175401D01*
X70607Y175354D01*
X70609Y175287D01*
X70547Y175107D01*
X70013Y175090D01*
X69952Y175236D01*
X69586Y175602D01*
X69151Y175782D01*
X69015Y175877D01*
X68789Y176216D01*
X68800Y176241D01*
Y176759D01*
X68602Y177236D01*
X68236Y177602D01*
X67759Y177800D01*
X67241D01*
X66764Y177602D01*
X66398Y177236D01*
X66200Y176759D01*
Y176241D01*
X66242Y176141D01*
X65859Y175759D01*
X65759Y175800D01*
X65241D01*
X64764Y175602D01*
X64653Y175491D01*
X64562Y175458D01*
X64539Y175437D01*
X64534Y175434D01*
X64527Y175429D01*
X64515Y175423D01*
X64496Y175416D01*
X64472Y175409D01*
X64440Y175402D01*
X64401Y175397D01*
X64354Y175393D01*
X64287Y175391D01*
X64232Y175367D01*
X62409D01*
X62078Y175301D01*
X61797Y175113D01*
X60792Y174108D01*
X60604Y173827D01*
X60538Y173495D01*
Y165354D01*
X56593Y161410D01*
X56537Y161388D01*
X56489Y161342D01*
X56453Y161311D01*
X56421Y161287D01*
X56394Y161270D01*
X56371Y161258D01*
X56354Y161250D01*
X56341Y161245D01*
X56332Y161243D01*
X56327Y161242D01*
X56295Y161241D01*
X56207Y161200D01*
X56051D01*
X56017Y161186D01*
X55517Y161520D01*
Y172107D01*
X55451Y172439D01*
X55263Y172720D01*
X54657Y173325D01*
X54899Y173791D01*
X55259D01*
X55736Y173988D01*
X56102Y174354D01*
X56300Y174832D01*
Y174988D01*
X56341Y175076D01*
X56342Y175108D01*
X56343Y175113D01*
X56345Y175122D01*
X56349Y175135D01*
X56357Y175152D01*
X56370Y175175D01*
X56387Y175202D01*
X56411Y175234D01*
X56441Y175269D01*
X56488Y175318D01*
X56510Y175374D01*
X56963Y175828D01*
X59145D01*
X59477Y175893D01*
X59758Y176081D01*
X63451Y179774D01*
X76621D01*
X76642Y179760D01*
D02*
G37*
G36*
X166348Y146520D02*
X166441Y145159D01*
X166501Y144789D01*
X166576Y144461D01*
X166665Y144174D01*
X166769Y143929D01*
X166887Y143726D01*
X167021Y143565D01*
X166526Y143070D01*
X166364Y143203D01*
X166161Y143322D01*
X165916Y143426D01*
X165630Y143515D01*
X165302Y143590D01*
X164931Y143650D01*
X164066Y143726D01*
X163571Y143743D01*
X163033Y143744D01*
X166346Y147057D01*
X166348Y146520D01*
D02*
G37*
G36*
X141348D02*
X141441Y145159D01*
X141501Y144789D01*
X141576Y144461D01*
X141665Y144174D01*
X141769Y143929D01*
X141887Y143726D01*
X142021Y143565D01*
X141526Y143070D01*
X141364Y143203D01*
X141161Y143322D01*
X140916Y143426D01*
X140630Y143515D01*
X140302Y143590D01*
X139931Y143650D01*
X139066Y143726D01*
X138571Y143743D01*
X138033Y143744D01*
X141346Y147057D01*
X141348Y146520D01*
D02*
G37*
G36*
X116348D02*
X116441Y145159D01*
X116501Y144789D01*
X116576Y144461D01*
X116665Y144174D01*
X116769Y143929D01*
X116887Y143726D01*
X117021Y143565D01*
X116526Y143070D01*
X116364Y143203D01*
X116161Y143322D01*
X115916Y143426D01*
X115630Y143515D01*
X115302Y143590D01*
X114931Y143650D01*
X114066Y143726D01*
X113571Y143743D01*
X113033Y143744D01*
X116346Y147057D01*
X116348Y146520D01*
D02*
G37*
G36*
X91348D02*
X91441Y145159D01*
X91501Y144789D01*
X91576Y144461D01*
X91665Y144174D01*
X91769Y143929D01*
X91887Y143726D01*
X92021Y143565D01*
X91526Y143070D01*
X91364Y143203D01*
X91161Y143322D01*
X90916Y143426D01*
X90630Y143515D01*
X90302Y143590D01*
X89931Y143650D01*
X89066Y143726D01*
X88571Y143743D01*
X88033Y143744D01*
X91346Y147057D01*
X91348Y146520D01*
D02*
G37*
G36*
X33370Y142476D02*
X33334Y142428D01*
X33303Y142376D01*
X33276Y142320D01*
X33253Y142259D01*
X33234Y142194D01*
X33219Y142125D01*
X33208Y142051D01*
X33202Y141973D01*
X33200Y141891D01*
X32500D01*
X32498Y141973D01*
X32492Y142051D01*
X32481Y142125D01*
X32466Y142194D01*
X32447Y142259D01*
X32424Y142320D01*
X32397Y142376D01*
X32366Y142428D01*
X32330Y142476D01*
X32290Y142519D01*
X33410D01*
X33370Y142476D01*
D02*
G37*
G36*
X39642Y142606D02*
X39617Y142555D01*
X39595Y142500D01*
X39575Y142441D01*
X39559Y142378D01*
X39546Y142311D01*
X39528Y142166D01*
X39524Y142087D01*
X39522Y142005D01*
X38822Y141831D01*
X38820Y141913D01*
X38812Y141991D01*
X38800Y142063D01*
X38783Y142129D01*
X38761Y142190D01*
X38734Y142245D01*
X38702Y142295D01*
X38665Y142340D01*
X38623Y142379D01*
X38576Y142412D01*
X39670Y142653D01*
X39642Y142606D01*
D02*
G37*
G36*
X41802Y142024D02*
X41811Y141965D01*
X41825Y141906D01*
X41846Y141847D01*
X41872Y141787D01*
X41905Y141728D01*
X41944Y141669D01*
X41988Y141609D01*
X42039Y141550D01*
X42096Y141490D01*
X41601Y140995D01*
X41541Y141052D01*
X41481Y141102D01*
X41422Y141147D01*
X41363Y141186D01*
X41303Y141218D01*
X41244Y141245D01*
X41185Y141265D01*
X41126Y141280D01*
X41067Y141288D01*
X41008Y141291D01*
X41800Y142083D01*
X41802Y142024D01*
D02*
G37*
G36*
X93644Y141942D02*
X94241Y140354D01*
X94147Y140441D01*
X94063Y140504D01*
X93989Y140544D01*
X93925Y140559D01*
X93870Y140550D01*
X93826Y140518D01*
X93791Y140462D01*
X93766Y140381D01*
X93751Y140277D01*
X93746Y140149D01*
X93046Y140849D01*
X93041Y140987D01*
X93027Y141121D01*
X93002Y141251D01*
X92967Y141376D01*
X92923Y141498D01*
X92868Y141615D01*
X92804Y141729D01*
X92730Y141838D01*
X92646Y141943D01*
X92551Y142044D01*
X93644Y141942D01*
D02*
G37*
G36*
X120500Y139591D02*
X121345Y138251D01*
X121251Y138338D01*
X121167Y138401D01*
X121092Y138440D01*
X121028Y138455D01*
X120974Y138447D01*
X120929Y138414D01*
X120895Y138358D01*
X120870Y138278D01*
X120855Y138174D01*
X120850Y138046D01*
X120150Y138746D01*
X120145Y138884D01*
X120130Y139017D01*
X120105Y139147D01*
X120071Y139273D01*
X120026Y139394D01*
X119972Y139512D01*
X119907Y139625D01*
X119833Y139734D01*
X119749Y139840D01*
X119655Y139941D01*
X120500Y139591D01*
D02*
G37*
G36*
X85872Y141477D02*
X86369Y141072D01*
X86615Y140907D01*
X86859Y140766D01*
X87102Y140651D01*
X87343Y140560D01*
X87582Y140494D01*
X87819Y140453D01*
X88055Y140437D01*
X84656Y137212D01*
X84651Y137450D01*
X84621Y137689D01*
X84564Y137929D01*
X84481Y138172D01*
X84373Y138415D01*
X84237Y138661D01*
X84076Y138908D01*
X83889Y139156D01*
X83676Y139406D01*
X83437Y139658D01*
X85621Y141716D01*
X85872Y141477D01*
D02*
G37*
G36*
X160850Y141470D02*
X161347Y141066D01*
X161594Y140901D01*
X161838Y140761D01*
X162081Y140646D01*
X162322Y140557D01*
X162561Y140492D01*
X162799Y140452D01*
X163035Y140437D01*
X159655Y137192D01*
X159649Y137430D01*
X159618Y137669D01*
X159560Y137909D01*
X159476Y138151D01*
X159367Y138395D01*
X159231Y138640D01*
X159069Y138887D01*
X158882Y139135D01*
X158668Y139385D01*
X158429Y139637D01*
X160599Y141710D01*
X160850Y141470D01*
D02*
G37*
G36*
X135850D02*
X136347Y141066D01*
X136594Y140901D01*
X136838Y140761D01*
X137081Y140646D01*
X137322Y140557D01*
X137561Y140492D01*
X137799Y140452D01*
X138035Y140437D01*
X134655Y137192D01*
X134649Y137430D01*
X134618Y137669D01*
X134560Y137909D01*
X134476Y138151D01*
X134367Y138395D01*
X134231Y138640D01*
X134069Y138887D01*
X133882Y139135D01*
X133668Y139385D01*
X133429Y139637D01*
X135599Y141710D01*
X135850Y141470D01*
D02*
G37*
G36*
X110542Y141359D02*
X110793Y141147D01*
X111042Y140962D01*
X111289Y140804D01*
X111534Y140673D01*
X111778Y140570D01*
X112021Y140493D01*
X112261Y140444D01*
X112501Y140422D01*
X112738Y140427D01*
X109659Y136895D01*
X109634Y137128D01*
X109584Y137363D01*
X109511Y137600D01*
X109414Y137839D01*
X109293Y138080D01*
X109149Y138322D01*
X108980Y138567D01*
X108788Y138814D01*
X108572Y139063D01*
X108332Y139314D01*
X110290Y141598D01*
X110542Y141359D01*
D02*
G37*
G36*
X43615Y136111D02*
X43662Y136075D01*
X43714Y136044D01*
X43771Y136016D01*
X43831Y135993D01*
X43896Y135974D01*
X43966Y135959D01*
X44039Y135949D01*
X44117Y135943D01*
X44199Y135941D01*
Y135241D01*
X44117Y135239D01*
X44039Y135232D01*
X43966Y135222D01*
X43896Y135207D01*
X43831Y135188D01*
X43771Y135165D01*
X43714Y135138D01*
X43662Y135106D01*
X43615Y135071D01*
X43571Y135031D01*
Y136151D01*
X43615Y136111D01*
D02*
G37*
G36*
X88032Y153203D02*
X88561Y153201D01*
X89033Y153186D01*
X89864Y153112D01*
X90198Y153058D01*
X90489Y152992D01*
X90730Y152917D01*
X90918Y152837D01*
X91054Y152758D01*
X91181Y152653D01*
X91226Y152639D01*
X102633Y141232D01*
Y134324D01*
X102133Y134173D01*
X102113Y134203D01*
X94075Y142242D01*
X94061Y142287D01*
X93994Y142322D01*
X92452Y143864D01*
X92438Y143910D01*
X92333Y144037D01*
X92254Y144173D01*
X92174Y144361D01*
X92099Y144602D01*
X92032Y144893D01*
X91979Y145221D01*
X91889Y146539D01*
X91887Y147059D01*
X91847Y147157D01*
Y147597D01*
X91584Y148575D01*
X91078Y149452D01*
X90362Y150169D01*
X89485Y150675D01*
X88506Y150937D01*
X87494D01*
X86515Y150675D01*
X85638Y150169D01*
X85170Y149701D01*
X84670Y149908D01*
Y152535D01*
X84774Y152639D01*
X84819Y152653D01*
X84946Y152758D01*
X85082Y152837D01*
X85270Y152917D01*
X85511Y152992D01*
X85802Y153058D01*
X86131Y153112D01*
X87449Y153201D01*
X87968Y153203D01*
X88000Y153216D01*
X88032Y153203D01*
D02*
G37*
G36*
X30802Y133524D02*
X30811Y133465D01*
X30825Y133406D01*
X30846Y133347D01*
X30872Y133287D01*
X30905Y133228D01*
X30944Y133169D01*
X30988Y133109D01*
X31039Y133050D01*
X31096Y132990D01*
X30601Y132495D01*
X30541Y132552D01*
X30481Y132602D01*
X30422Y132647D01*
X30362Y132686D01*
X30303Y132718D01*
X30244Y132745D01*
X30185Y132765D01*
X30126Y132780D01*
X30067Y132788D01*
X30008Y132791D01*
X30800Y133583D01*
X30802Y133524D01*
D02*
G37*
G36*
X34302Y133024D02*
X34311Y132965D01*
X34325Y132906D01*
X34346Y132847D01*
X34372Y132787D01*
X34405Y132728D01*
X34444Y132669D01*
X34488Y132609D01*
X34539Y132550D01*
X34596Y132490D01*
X34101Y131995D01*
X34041Y132052D01*
X33981Y132102D01*
X33922Y132147D01*
X33863Y132186D01*
X33803Y132218D01*
X33744Y132245D01*
X33685Y132265D01*
X33626Y132280D01*
X33567Y132288D01*
X33508Y132291D01*
X34300Y133083D01*
X34302Y133024D01*
D02*
G37*
G36*
X46856Y132748D02*
X46886Y132715D01*
X46923Y132685D01*
X46966Y132659D01*
X47014Y132637D01*
X47070Y132619D01*
X47131Y132605D01*
X47199Y132595D01*
X47272Y132589D01*
X47352Y132587D01*
X47212Y131887D01*
X47124Y131886D01*
X46899Y131869D01*
X46835Y131858D01*
X46778Y131845D01*
X46727Y131830D01*
X46681Y131813D01*
X46641Y131793D01*
X46607Y131771D01*
X46831Y132786D01*
X46856Y132748D01*
D02*
G37*
G36*
X22852Y132208D02*
X22858Y132130D01*
X22869Y132056D01*
X22884Y131987D01*
X22903Y131922D01*
X22926Y131861D01*
X22953Y131805D01*
X22984Y131753D01*
X23020Y131705D01*
X23060Y131662D01*
X21940D01*
X21980Y131705D01*
X22016Y131753D01*
X22047Y131805D01*
X22074Y131861D01*
X22097Y131922D01*
X22116Y131987D01*
X22131Y132056D01*
X22142Y132130D01*
X22148Y132208D01*
X22150Y132290D01*
X22850D01*
X22852Y132208D01*
D02*
G37*
G36*
X20752D02*
X20758Y132130D01*
X20769Y132056D01*
X20784Y131987D01*
X20802Y131922D01*
X20826Y131861D01*
X20853Y131805D01*
X20884Y131753D01*
X20920Y131705D01*
X20960Y131662D01*
X19840D01*
X19880Y131705D01*
X19916Y131753D01*
X19947Y131805D01*
X19974Y131861D01*
X19997Y131922D01*
X20016Y131987D01*
X20031Y132056D01*
X20042Y132130D01*
X20048Y132208D01*
X20050Y132290D01*
X20750D01*
X20752Y132208D01*
D02*
G37*
G36*
X101925Y183050D02*
X102462Y183022D01*
X102900Y182945D01*
X103268Y182822D01*
X103571Y182659D01*
X103819Y182456D01*
X104022Y182208D01*
X104185Y181905D01*
X104308Y181537D01*
X104385Y181099D01*
X104413Y180562D01*
X104414Y180560D01*
Y143314D01*
X104570Y142533D01*
X105012Y141872D01*
X107939Y138944D01*
X107941Y138940D01*
X108172Y138698D01*
X108370Y138470D01*
X108544Y138247D01*
X108693Y138030D01*
X108818Y137819D01*
X108921Y137615D01*
X109001Y137418D01*
X109060Y137227D01*
X109099Y137043D01*
X109121Y136837D01*
X109153Y136778D01*
Y136584D01*
X109416Y135606D01*
X109922Y134729D01*
X110638Y134013D01*
X111515Y133506D01*
X112494Y133244D01*
X113506D01*
X114485Y133506D01*
X115362Y134013D01*
X116078Y134729D01*
X116584Y135606D01*
X116847Y136584D01*
Y137246D01*
X117347Y137453D01*
X118133Y136666D01*
Y131450D01*
X117308Y130625D01*
X116847Y130816D01*
Y130937D01*
X109153D01*
Y124285D01*
X108692Y124093D01*
X104367Y128418D01*
Y141591D01*
X104301Y141922D01*
X104113Y142203D01*
X92452Y153864D01*
X92438Y153910D01*
X92333Y154037D01*
X92254Y154173D01*
X92174Y154361D01*
X92099Y154602D01*
X92032Y154893D01*
X91979Y155221D01*
X91889Y156539D01*
X91887Y157059D01*
X91847Y157157D01*
Y157597D01*
X91584Y158575D01*
X91078Y159452D01*
X90362Y160169D01*
X89485Y160675D01*
X88506Y160937D01*
X87494D01*
X86515Y160675D01*
X85638Y160169D01*
X84922Y159452D01*
X84416Y158575D01*
X84153Y157597D01*
Y157157D01*
X84113Y157059D01*
X84111Y156530D01*
X84095Y156057D01*
X84022Y155227D01*
X83993Y155048D01*
X83493Y155088D01*
Y180560D01*
X83494Y180562D01*
X83522Y181099D01*
X83600Y181537D01*
X83722Y181905D01*
X83885Y182208D01*
X84088Y182456D01*
X84336Y182659D01*
X84639Y182822D01*
X85007Y182945D01*
X85445Y183022D01*
X85982Y183050D01*
X85985Y183051D01*
X101923D01*
X101925Y183050D01*
D02*
G37*
G36*
X54544Y122198D02*
X54485Y122196D01*
X54426Y122188D01*
X54367Y122174D01*
X54308Y122154D01*
X54248Y122128D01*
X54189Y122095D01*
X54130Y122057D01*
X54070Y122013D01*
X54010Y121962D01*
X53951Y121905D01*
X53462Y122407D01*
X53519Y122466D01*
X53570Y122526D01*
X53614Y122585D01*
X53653Y122645D01*
X53686Y122704D01*
X53713Y122763D01*
X53734Y122822D01*
X53749Y122881D01*
X53758Y122940D01*
X53761Y122999D01*
X54544Y122198D01*
D02*
G37*
G36*
X111929Y121440D02*
X111885Y121480D01*
X111838Y121516D01*
X111786Y121547D01*
X111729Y121574D01*
X111669Y121598D01*
X111604Y121616D01*
X111535Y121631D01*
X111461Y121642D01*
X111383Y121648D01*
X111301Y121650D01*
Y122350D01*
X111383Y122352D01*
X111461Y122358D01*
X111535Y122369D01*
X111604Y122384D01*
X111669Y122403D01*
X111729Y122426D01*
X111786Y122453D01*
X111838Y122484D01*
X111885Y122520D01*
X111929Y122560D01*
Y121440D01*
D02*
G37*
G36*
X56492Y121391D02*
X56433Y121388D01*
X56374Y121380D01*
X56315Y121365D01*
X56256Y121345D01*
X56197Y121318D01*
X56138Y121286D01*
X56078Y121247D01*
X56019Y121202D01*
X55959Y121152D01*
X55899Y121095D01*
X55404Y121590D01*
X55461Y121650D01*
X55512Y121709D01*
X55556Y121769D01*
X55595Y121828D01*
X55628Y121888D01*
X55654Y121947D01*
X55675Y122006D01*
X55689Y122065D01*
X55698Y122124D01*
X55700Y122183D01*
X56492Y121391D01*
D02*
G37*
G36*
X30429Y120531D02*
X30385Y120571D01*
X30338Y120606D01*
X30286Y120638D01*
X30229Y120665D01*
X30169Y120688D01*
X30104Y120707D01*
X30035Y120722D01*
X29961Y120732D01*
X29883Y120738D01*
X29801Y120741D01*
Y121441D01*
X29883Y121443D01*
X29961Y121449D01*
X30035Y121459D01*
X30104Y121474D01*
X30169Y121493D01*
X30229Y121516D01*
X30286Y121544D01*
X30338Y121575D01*
X30385Y121611D01*
X30429Y121651D01*
Y120531D01*
D02*
G37*
G36*
X108300Y120002D02*
X108263Y120047D01*
X108221Y120088D01*
X108174Y120124D01*
X108122Y120155D01*
X108065Y120181D01*
X108003Y120202D01*
X107936Y120219D01*
X107863Y120231D01*
X107786Y120238D01*
X107703Y120241D01*
X107826Y120941D01*
X107909Y120942D01*
X108062Y120956D01*
X108132Y120967D01*
X108199Y120983D01*
X108262Y121001D01*
X108320Y121023D01*
X108375Y121048D01*
X108426Y121076D01*
X108473Y121108D01*
X108300Y120002D01*
D02*
G37*
G36*
X100633Y133232D02*
Y124051D01*
X100699Y123719D01*
X100887Y123438D01*
X104348Y119978D01*
X104629Y119790D01*
X104960Y119724D01*
X107584D01*
X107609Y119708D01*
X107650Y119717D01*
X107688Y119700D01*
X107725Y119699D01*
X107885Y119536D01*
X107950Y119457D01*
X107947Y119429D01*
X107940Y119396D01*
X107692Y118957D01*
X88815D01*
X84990Y122782D01*
X85181Y123244D01*
X91847D01*
Y130937D01*
X91411D01*
X91204Y131437D01*
X94009Y134243D01*
X94197Y134524D01*
X94263Y134855D01*
Y138949D01*
X94725Y139140D01*
X100633Y133232D01*
D02*
G37*
G36*
X28413Y118547D02*
X28371Y118588D01*
X28324Y118624D01*
X28273Y118657D01*
X28218Y118685D01*
X28157Y118709D01*
X28093Y118728D01*
X28024Y118743D01*
X27950Y118754D01*
X27873Y118761D01*
X27790Y118763D01*
X27812Y119463D01*
X27894Y119465D01*
X27972Y119471D01*
X28046Y119481D01*
X28115Y119495D01*
X28181Y119514D01*
X28242Y119536D01*
X28299Y119562D01*
X28352Y119593D01*
X28400Y119628D01*
X28444Y119666D01*
X28413Y118547D01*
D02*
G37*
G36*
X15593Y118424D02*
X15547Y118389D01*
X15506Y118349D01*
X15469Y118304D01*
X15438Y118253D01*
X15411Y118197D01*
X15389Y118135D01*
X15372Y118068D01*
X15360Y117996D01*
X15352Y117919D01*
X15350Y117836D01*
X14650Y117986D01*
X14648Y118069D01*
X14636Y118222D01*
X14625Y118292D01*
X14611Y118359D01*
X14593Y118422D01*
X14573Y118481D01*
X14549Y118536D01*
X14523Y118587D01*
X14493Y118634D01*
X15593Y118424D01*
D02*
G37*
G36*
X-2510Y125481D02*
X-2229Y125293D01*
X-1897Y125227D01*
X10137D01*
X14566Y120797D01*
X14449Y120207D01*
X14414Y120193D01*
X14048Y119827D01*
X13850Y119349D01*
Y118832D01*
X14024Y118413D01*
X14035Y118345D01*
X14053Y118317D01*
X14060Y118304D01*
X13840Y117862D01*
X13723Y117813D01*
X13633Y117790D01*
X13609Y117800D01*
X13091D01*
X12614Y117602D01*
X12248Y117236D01*
X12050Y116759D01*
Y116241D01*
X12248Y115764D01*
X12359Y115653D01*
X12392Y115562D01*
X12413Y115539D01*
X12416Y115534D01*
X12421Y115527D01*
X12427Y115515D01*
X12434Y115497D01*
X12441Y115472D01*
X12448Y115440D01*
X12454Y115401D01*
X12457Y115354D01*
X12459Y115287D01*
X12483Y115232D01*
Y107119D01*
X11731Y106367D01*
X-7591D01*
X-7922Y106301D01*
X-8203Y106113D01*
X-11474Y102842D01*
X-11974Y103038D01*
Y134274D01*
X-11637Y134427D01*
X-11474Y134445D01*
X-2510Y125481D01*
D02*
G37*
G36*
X27615Y117611D02*
X27662Y117575D01*
X27714Y117543D01*
X27771Y117516D01*
X27831Y117493D01*
X27896Y117474D01*
X27966Y117459D01*
X28039Y117449D01*
X28117Y117443D01*
X28199Y117441D01*
Y116741D01*
X28117Y116738D01*
X28039Y116732D01*
X27966Y116722D01*
X27896Y116707D01*
X27831Y116688D01*
X27771Y116665D01*
X27714Y116638D01*
X27662Y116606D01*
X27615Y116570D01*
X27571Y116531D01*
Y117651D01*
X27615Y117611D01*
D02*
G37*
G36*
X26429Y116531D02*
X26385Y116570D01*
X26338Y116606D01*
X26286Y116638D01*
X26229Y116665D01*
X26169Y116688D01*
X26104Y116707D01*
X26035Y116722D01*
X25961Y116732D01*
X25883Y116738D01*
X25801Y116741D01*
Y117441D01*
X25883Y117443D01*
X25961Y117449D01*
X26035Y117459D01*
X26104Y117474D01*
X26169Y117493D01*
X26229Y117516D01*
X26286Y117543D01*
X26338Y117575D01*
X26385Y117611D01*
X26429Y117651D01*
Y116531D01*
D02*
G37*
G36*
X17170Y116991D02*
X17134Y116943D01*
X17103Y116891D01*
X17076Y116835D01*
X17052Y116774D01*
X17034Y116709D01*
X17019Y116640D01*
X17008Y116567D01*
X17002Y116489D01*
X17000Y116406D01*
X16300D01*
X16298Y116489D01*
X16292Y116567D01*
X16281Y116640D01*
X16266Y116709D01*
X16248Y116774D01*
X16224Y116835D01*
X16197Y116891D01*
X16166Y116943D01*
X16130Y116991D01*
X16090Y117034D01*
X17210D01*
X17170Y116991D01*
D02*
G37*
G36*
X163321Y116167D02*
X163288Y116214D01*
X163249Y116255D01*
X163205Y116292D01*
X163155Y116324D01*
X163099Y116351D01*
X163038Y116373D01*
X162972Y116391D01*
X162900Y116403D01*
X162823Y116410D01*
X162740Y116413D01*
X162914Y117113D01*
X162996Y117114D01*
X163150Y117126D01*
X163221Y117136D01*
X163350Y117166D01*
X163409Y117185D01*
X163464Y117207D01*
X163515Y117232D01*
X163563Y117260D01*
X163321Y116167D01*
D02*
G37*
G36*
X62220Y116950D02*
X62229Y116891D01*
X62244Y116832D01*
X62265Y116773D01*
X62292Y116714D01*
X62325Y116655D01*
X62364Y116595D01*
X62408Y116536D01*
X62459Y116476D01*
X62516Y116417D01*
X62027Y115915D01*
X61968Y115972D01*
X61908Y116023D01*
X61849Y116067D01*
X61789Y116105D01*
X61730Y116138D01*
X61671Y116164D01*
X61611Y116184D01*
X61552Y116198D01*
X61493Y116206D01*
X61434Y116207D01*
X62217Y117009D01*
X62220Y116950D01*
D02*
G37*
G36*
X59287Y116674D02*
X59295Y116615D01*
X59310Y116556D01*
X59330Y116497D01*
X59357Y116437D01*
X59390Y116378D01*
X59428Y116319D01*
X59473Y116259D01*
X59523Y116200D01*
X59580Y116140D01*
X59085Y115645D01*
X59026Y115702D01*
X58966Y115752D01*
X58907Y115797D01*
X58847Y115836D01*
X58788Y115868D01*
X58729Y115895D01*
X58669Y115915D01*
X58610Y115930D01*
X58551Y115938D01*
X58493Y115941D01*
X59285Y116733D01*
X59287Y116674D01*
D02*
G37*
G36*
X13870Y115885D02*
X13834Y115838D01*
X13803Y115786D01*
X13776Y115729D01*
X13753Y115669D01*
X13734Y115604D01*
X13719Y115534D01*
X13708Y115461D01*
X13702Y115383D01*
X13700Y115301D01*
X13000D01*
X12998Y115383D01*
X12992Y115461D01*
X12981Y115534D01*
X12966Y115604D01*
X12947Y115669D01*
X12924Y115729D01*
X12897Y115786D01*
X12866Y115838D01*
X12830Y115885D01*
X12790Y115929D01*
X13910D01*
X13870Y115885D01*
D02*
G37*
G36*
X162429Y114354D02*
X162992Y113791D01*
X162933Y113788D01*
X162874Y113780D01*
X162815Y113765D01*
X162756Y113745D01*
X162697Y113718D01*
X162637Y113686D01*
X162578Y113647D01*
X162519Y113602D01*
X162459Y113552D01*
X162399Y113495D01*
X161904Y113990D01*
X161961Y114050D01*
X162012Y114109D01*
X162056Y114169D01*
X162084Y114211D01*
X162034Y114222D01*
X161961Y114232D01*
X161883Y114239D01*
X161801Y114241D01*
Y114941D01*
X161883Y114943D01*
X161961Y114949D01*
X162034Y114960D01*
X162104Y114974D01*
X162169Y114993D01*
X162229Y115016D01*
X162286Y115043D01*
X162338Y115075D01*
X162385Y115111D01*
X162429Y115151D01*
Y114354D01*
D02*
G37*
G36*
X100342Y106798D02*
X100299Y106838D01*
X100251Y106874D01*
X100199Y106905D01*
X100143Y106933D01*
X100082Y106956D01*
X100017Y106975D01*
X99948Y106990D01*
X99874Y107000D01*
X99796Y107006D01*
X99714Y107008D01*
Y107708D01*
X99796Y107711D01*
X99874Y107717D01*
X99948Y107727D01*
X100017Y107742D01*
X100082Y107761D01*
X100143Y107784D01*
X100199Y107811D01*
X100251Y107843D01*
X100299Y107878D01*
X100342Y107918D01*
Y106798D01*
D02*
G37*
G36*
X155992Y106716D02*
X155933Y106713D01*
X155874Y106705D01*
X155815Y106691D01*
X155756Y106670D01*
X155697Y106643D01*
X155638Y106611D01*
X155578Y106572D01*
X155519Y106528D01*
X155459Y106477D01*
X155399Y106420D01*
X154904Y106915D01*
X154961Y106975D01*
X155012Y107034D01*
X155056Y107094D01*
X155095Y107153D01*
X155128Y107213D01*
X155154Y107272D01*
X155175Y107331D01*
X155189Y107390D01*
X155198Y107449D01*
X155200Y107508D01*
X155992Y106716D01*
D02*
G37*
G36*
X18886Y116478D02*
X19167Y116290D01*
X19499Y116224D01*
X25732D01*
X25787Y116200D01*
X25854Y116198D01*
X25901Y116194D01*
X25940Y116189D01*
X25972Y116182D01*
X25997Y116175D01*
X26015Y116168D01*
X26027Y116162D01*
X26035Y116157D01*
X26039Y116154D01*
X26062Y116132D01*
X26153Y116099D01*
X26264Y115989D01*
X26741Y115791D01*
X27259D01*
X27736Y115989D01*
X27847Y116099D01*
X27938Y116132D01*
X27961Y116154D01*
X27966Y116157D01*
X27973Y116162D01*
X27985Y116168D01*
X28003Y116175D01*
X28028Y116182D01*
X28060Y116189D01*
X28099Y116194D01*
X28146Y116198D01*
X28213Y116200D01*
X28268Y116224D01*
X30633D01*
Y113424D01*
X23262Y106052D01*
X22713Y106210D01*
X22602Y106477D01*
X22236Y106843D01*
X21759Y107041D01*
X21602D01*
X21514Y107081D01*
X21483Y107083D01*
X21477Y107083D01*
X21469Y107086D01*
X21456Y107090D01*
X21438Y107098D01*
X21416Y107110D01*
X21388Y107128D01*
X21357Y107152D01*
X21321Y107182D01*
X21272Y107229D01*
X21216Y107250D01*
X17517Y110950D01*
Y116338D01*
X17541Y116392D01*
X17543Y116460D01*
X17547Y116506D01*
X17552Y116546D01*
X17559Y116577D01*
X17566Y116602D01*
X17573Y116620D01*
X17579Y116632D01*
X17583Y116640D01*
X17587Y116645D01*
X17608Y116668D01*
X17641Y116759D01*
X17752Y116869D01*
X17762Y116894D01*
X18352Y117011D01*
X18886Y116478D01*
D02*
G37*
G36*
X20959Y106780D02*
X21019Y106729D01*
X21078Y106684D01*
X21137Y106646D01*
X21197Y106613D01*
X21256Y106586D01*
X21315Y106566D01*
X21374Y106551D01*
X21433Y106543D01*
X21492Y106541D01*
X20700Y105749D01*
X20698Y105807D01*
X20689Y105866D01*
X20675Y105925D01*
X20654Y105985D01*
X20628Y106044D01*
X20595Y106103D01*
X20556Y106163D01*
X20512Y106222D01*
X20461Y106281D01*
X20404Y106341D01*
X20899Y106836D01*
X20959Y106780D01*
D02*
G37*
G36*
X18259D02*
X18319Y106729D01*
X18378Y106684D01*
X18438Y106646D01*
X18497Y106613D01*
X18556Y106586D01*
X18615Y106566D01*
X18674Y106551D01*
X18733Y106543D01*
X18792Y106541D01*
X18000Y105749D01*
X17998Y105807D01*
X17989Y105866D01*
X17975Y105925D01*
X17954Y105985D01*
X17928Y106044D01*
X17895Y106103D01*
X17856Y106163D01*
X17812Y106222D01*
X17761Y106281D01*
X17704Y106341D01*
X18199Y106836D01*
X18259Y106780D01*
D02*
G37*
G36*
X100429Y104326D02*
X100385Y104366D01*
X100338Y104401D01*
X100286Y104433D01*
X100229Y104460D01*
X100169Y104483D01*
X100104Y104502D01*
X100034Y104517D01*
X99961Y104527D01*
X99883Y104534D01*
X99801Y104536D01*
Y105236D01*
X99883Y105238D01*
X99961Y105244D01*
X100034Y105255D01*
X100104Y105269D01*
X100169Y105288D01*
X100229Y105311D01*
X100286Y105339D01*
X100338Y105370D01*
X100385Y105406D01*
X100429Y105446D01*
Y104326D01*
D02*
G37*
G36*
X155992Y104157D02*
X155933Y104154D01*
X155874Y104146D01*
X155815Y104131D01*
X155756Y104111D01*
X155697Y104084D01*
X155638Y104052D01*
X155578Y104013D01*
X155519Y103969D01*
X155459Y103918D01*
X155399Y103861D01*
X154904Y104356D01*
X154961Y104416D01*
X155012Y104475D01*
X155056Y104535D01*
X155095Y104594D01*
X155128Y104654D01*
X155154Y104713D01*
X155175Y104772D01*
X155189Y104831D01*
X155198Y104890D01*
X155200Y104949D01*
X155992Y104157D01*
D02*
G37*
G36*
X168852Y104208D02*
X168858Y104130D01*
X168869Y104056D01*
X168884Y103987D01*
X168903Y103922D01*
X168926Y103861D01*
X168953Y103805D01*
X168984Y103753D01*
X169020Y103705D01*
X169060Y103662D01*
X167940D01*
X167980Y103705D01*
X168016Y103753D01*
X168047Y103805D01*
X168074Y103861D01*
X168097Y103922D01*
X168116Y103987D01*
X168131Y104056D01*
X168142Y104130D01*
X168148Y104208D01*
X168150Y104290D01*
X168850D01*
X168852Y104208D01*
D02*
G37*
G36*
X165724Y103502D02*
X165707Y103518D01*
X165683Y103532D01*
X165650Y103544D01*
X165610Y103555D01*
X165560Y103564D01*
X165503Y103572D01*
X165365Y103582D01*
X165193Y103585D01*
Y104285D01*
X165275Y104286D01*
X165477Y104300D01*
X165530Y104309D01*
X165574Y104320D01*
X165612Y104332D01*
X165642Y104346D01*
X165664Y104363D01*
X165679Y104381D01*
X165724Y103502D01*
D02*
G37*
G36*
X166814Y103306D02*
X166806Y103287D01*
X166799Y103260D01*
X166794Y103224D01*
X166784Y103126D01*
X166778Y102917D01*
X166777Y102830D01*
X166077D01*
X166076Y102906D01*
X166061Y103136D01*
X166055Y103175D01*
X166047Y103206D01*
X166037Y103231D01*
X166027Y103248D01*
X166015Y103258D01*
X166823Y103317D01*
X166814Y103306D01*
D02*
G37*
G36*
X114985Y103772D02*
X115036Y103747D01*
X115091Y103725D01*
X115150Y103706D01*
X115213Y103690D01*
X115279Y103676D01*
X115425Y103659D01*
X115504Y103654D01*
X115586Y103653D01*
X115760Y102953D01*
X115677Y102950D01*
X115600Y102943D01*
X115528Y102931D01*
X115462Y102913D01*
X115401Y102891D01*
X115345Y102864D01*
X115295Y102832D01*
X115251Y102795D01*
X115212Y102753D01*
X115179Y102707D01*
X114937Y103800D01*
X114985Y103772D01*
D02*
G37*
G36*
X169115Y103611D02*
X169162Y103575D01*
X169214Y103543D01*
X169271Y103516D01*
X169331Y103493D01*
X169396Y103474D01*
X169465Y103460D01*
X169539Y103449D01*
X169617Y103443D01*
X169699Y103441D01*
Y102741D01*
X169617Y102738D01*
X169539Y102732D01*
X169465Y102722D01*
X169396Y102707D01*
X169331Y102688D01*
X169271Y102665D01*
X169214Y102638D01*
X169162Y102606D01*
X169115Y102570D01*
X169071Y102531D01*
Y103651D01*
X169115Y103611D01*
D02*
G37*
G36*
X29467Y102815D02*
X29408Y102813D01*
X29349Y102805D01*
X29290Y102790D01*
X29231Y102769D01*
X29172Y102743D01*
X29113Y102710D01*
X29053Y102672D01*
X28994Y102627D01*
X28934Y102576D01*
X28875Y102520D01*
X28380Y103015D01*
X28436Y103074D01*
X28487Y103134D01*
X28532Y103193D01*
X28570Y103253D01*
X28603Y103312D01*
X28629Y103371D01*
X28650Y103430D01*
X28664Y103490D01*
X28673Y103549D01*
X28675Y103607D01*
X29467Y102815D01*
D02*
G37*
G36*
X112805Y102985D02*
X112816Y102927D01*
X112834Y102868D01*
X112857Y102810D01*
X112885Y102751D01*
X112919Y102692D01*
X112959Y102633D01*
X113005Y102574D01*
X113056Y102514D01*
X113112Y102455D01*
X112653Y101925D01*
X112593Y101981D01*
X112533Y102032D01*
X112474Y102075D01*
X112414Y102113D01*
X112355Y102144D01*
X112295Y102168D01*
X112236Y102186D01*
X112177Y102198D01*
X112118Y102203D01*
X112059Y102202D01*
X112799Y103043D01*
X112805Y102985D01*
D02*
G37*
G36*
X100429Y101767D02*
X100385Y101807D01*
X100338Y101842D01*
X100286Y101874D01*
X100229Y101901D01*
X100169Y101924D01*
X100104Y101943D01*
X100034Y101958D01*
X99961Y101968D01*
X99883Y101975D01*
X99801Y101977D01*
Y102677D01*
X99883Y102679D01*
X99961Y102685D01*
X100034Y102696D01*
X100104Y102710D01*
X100169Y102729D01*
X100229Y102752D01*
X100286Y102780D01*
X100338Y102811D01*
X100385Y102847D01*
X100429Y102887D01*
Y101767D01*
D02*
G37*
G36*
X155992Y101598D02*
X155933Y101595D01*
X155874Y101587D01*
X155815Y101572D01*
X155756Y101552D01*
X155697Y101525D01*
X155638Y101493D01*
X155578Y101454D01*
X155519Y101409D01*
X155459Y101359D01*
X155399Y101302D01*
X154904Y101797D01*
X154961Y101857D01*
X155012Y101916D01*
X155056Y101976D01*
X155095Y102035D01*
X155128Y102094D01*
X155154Y102154D01*
X155175Y102213D01*
X155189Y102272D01*
X155198Y102331D01*
X155200Y102390D01*
X155992Y101598D01*
D02*
G37*
G36*
X103133Y106246D02*
Y99294D01*
X103199Y98962D01*
X103387Y98681D01*
X108402Y93667D01*
X108683Y93479D01*
X109015Y93413D01*
X148405D01*
X154491Y87327D01*
X154512Y87271D01*
X154559Y87222D01*
X154589Y87186D01*
X154613Y87155D01*
X154630Y87128D01*
X154643Y87105D01*
X154651Y87087D01*
X154655Y87075D01*
X154657Y87066D01*
X154658Y87060D01*
X154659Y87029D01*
X154700Y86941D01*
Y86785D01*
X154836Y86457D01*
X154594Y85957D01*
X102477D01*
X102194Y86457D01*
X102300Y86714D01*
Y87231D01*
X102102Y87709D01*
X101868Y87943D01*
X101784Y88252D01*
X101868Y88561D01*
X102102Y88795D01*
X102300Y89273D01*
Y89790D01*
X102102Y90268D01*
X101868Y90502D01*
X101784Y90811D01*
X101868Y91120D01*
X102102Y91354D01*
X102300Y91832D01*
Y92349D01*
X102102Y92827D01*
X101736Y93193D01*
X101259Y93391D01*
X100741D01*
X100264Y93193D01*
X100175Y93104D01*
X100091Y93076D01*
X100066Y93055D01*
X100060Y93050D01*
X100051Y93045D01*
X100036Y93038D01*
X100016Y93031D01*
X99990Y93024D01*
X99956Y93017D01*
X99915Y93011D01*
X99867Y93007D01*
X99800Y93006D01*
X99744Y92981D01*
X96123D01*
X88106Y100998D01*
X88298Y101460D01*
X99732D01*
X99787Y101436D01*
X99854Y101434D01*
X99901Y101430D01*
X99940Y101425D01*
X99972Y101418D01*
X99997Y101411D01*
X100015Y101404D01*
X100027Y101398D01*
X100034Y101393D01*
X100039Y101390D01*
X100062Y101369D01*
X100153Y101335D01*
X100264Y101225D01*
X100741Y101027D01*
X101259D01*
X101736Y101225D01*
X102102Y101590D01*
X102300Y102068D01*
Y102585D01*
X102102Y103063D01*
X101868Y103297D01*
X101784Y103606D01*
X101868Y103916D01*
X102102Y104149D01*
X102300Y104627D01*
Y105144D01*
X102102Y105622D01*
X101885Y105839D01*
X101757Y106066D01*
X101868Y106475D01*
X102015Y106622D01*
X102026Y106647D01*
X102616Y106764D01*
X103133Y106246D01*
D02*
G37*
G36*
X41115Y99111D02*
X41162Y99075D01*
X41214Y99044D01*
X41271Y99016D01*
X41331Y98993D01*
X41396Y98974D01*
X41465Y98959D01*
X41539Y98949D01*
X41617Y98943D01*
X41699Y98941D01*
Y98241D01*
X41617Y98238D01*
X41539Y98232D01*
X41465Y98222D01*
X41396Y98207D01*
X41331Y98188D01*
X41271Y98165D01*
X41214Y98138D01*
X41162Y98106D01*
X41115Y98071D01*
X41071Y98031D01*
Y99151D01*
X41115Y99111D01*
D02*
G37*
G36*
X37615Y97111D02*
X37662Y97075D01*
X37714Y97044D01*
X37771Y97016D01*
X37831Y96993D01*
X37896Y96974D01*
X37966Y96960D01*
X38039Y96949D01*
X38117Y96943D01*
X38199Y96941D01*
Y96241D01*
X38117Y96238D01*
X38039Y96232D01*
X37966Y96222D01*
X37896Y96207D01*
X37831Y96188D01*
X37771Y96165D01*
X37714Y96138D01*
X37662Y96106D01*
X37615Y96070D01*
X37571Y96031D01*
Y97151D01*
X37615Y97111D01*
D02*
G37*
G36*
X23758Y99124D02*
X20091Y95457D01*
X13268D01*
X13213Y95482D01*
X13146Y95483D01*
X13099Y95487D01*
X13060Y95493D01*
X13028Y95499D01*
X13003Y95507D01*
X12985Y95513D01*
X12973Y95519D01*
X12966Y95524D01*
X12961Y95527D01*
X12938Y95549D01*
X12847Y95582D01*
X12736Y95693D01*
X12259Y95890D01*
X11741D01*
X11264Y95693D01*
X11153Y95582D01*
X11062Y95549D01*
X11039Y95527D01*
X11034Y95524D01*
X11027Y95519D01*
X11015Y95513D01*
X10996Y95507D01*
X10972Y95499D01*
X10940Y95493D01*
X10901Y95487D01*
X10854Y95483D01*
X10787Y95482D01*
X10732Y95457D01*
X4500D01*
X4168Y95391D01*
X3887Y95203D01*
X-4749Y86567D01*
X-5339Y86684D01*
X-5398Y86827D01*
X-5508Y86938D01*
X-5542Y87028D01*
X-5563Y87052D01*
X-5567Y87056D01*
X-5571Y87064D01*
X-5577Y87076D01*
X-5584Y87094D01*
X-5591Y87119D01*
X-5598Y87151D01*
X-5604Y87190D01*
X-5607Y87236D01*
X-5609Y87304D01*
X-5633Y87359D01*
Y96220D01*
X-2229Y99624D01*
X23551D01*
X23758Y99124D01*
D02*
G37*
G36*
X57459Y96130D02*
X57519Y96079D01*
X57578Y96034D01*
X57638Y95996D01*
X57697Y95963D01*
X57756Y95937D01*
X57815Y95916D01*
X57874Y95901D01*
X57933Y95893D01*
X57992Y95891D01*
X57200Y95099D01*
X57198Y95157D01*
X57189Y95216D01*
X57175Y95275D01*
X57154Y95335D01*
X57128Y95394D01*
X57095Y95453D01*
X57056Y95512D01*
X57012Y95572D01*
X56961Y95631D01*
X56904Y95691D01*
X57399Y96186D01*
X57459Y96130D01*
D02*
G37*
G36*
X12615Y95111D02*
X12662Y95075D01*
X12714Y95043D01*
X12771Y95016D01*
X12831Y94993D01*
X12896Y94974D01*
X12966Y94959D01*
X13039Y94949D01*
X13117Y94943D01*
X13199Y94941D01*
Y94240D01*
X13117Y94239D01*
X13039Y94232D01*
X12966Y94222D01*
X12896Y94207D01*
X12831Y94188D01*
X12771Y94165D01*
X12714Y94138D01*
X12662Y94106D01*
X12615Y94071D01*
X12571Y94031D01*
Y95151D01*
X12615Y95111D01*
D02*
G37*
G36*
X11429Y94031D02*
X11385Y94071D01*
X11338Y94106D01*
X11286Y94138D01*
X11229Y94165D01*
X11169Y94188D01*
X11104Y94207D01*
X11034Y94222D01*
X10961Y94232D01*
X10883Y94239D01*
X10801Y94240D01*
Y94941D01*
X10883Y94943D01*
X10961Y94949D01*
X11034Y94959D01*
X11104Y94974D01*
X11169Y94993D01*
X11229Y95016D01*
X11286Y95043D01*
X11338Y95075D01*
X11385Y95111D01*
X11429Y95151D01*
Y94031D01*
D02*
G37*
G36*
X155459Y93200D02*
X155519Y93150D01*
X155578Y93105D01*
X155638Y93066D01*
X155697Y93034D01*
X155756Y93007D01*
X155815Y92987D01*
X155874Y92972D01*
X155933Y92964D01*
X155992Y92961D01*
X155200Y92169D01*
X155198Y92228D01*
X155189Y92287D01*
X155175Y92346D01*
X155154Y92405D01*
X155128Y92465D01*
X155095Y92524D01*
X155056Y92583D01*
X155012Y92643D01*
X154961Y92702D01*
X154904Y92762D01*
X155399Y93257D01*
X155459Y93200D01*
D02*
G37*
G36*
X100412Y91548D02*
X100370Y91589D01*
X100323Y91626D01*
X100272Y91659D01*
X100216Y91687D01*
X100156Y91711D01*
X100092Y91730D01*
X100023Y91745D01*
X99950Y91756D01*
X99872Y91762D01*
X99789Y91765D01*
X99813Y92465D01*
X99895Y92467D01*
X99973Y92473D01*
X100047Y92483D01*
X100117Y92497D01*
X100182Y92515D01*
X100243Y92538D01*
X100300Y92564D01*
X100353Y92594D01*
X100401Y92629D01*
X100446Y92668D01*
X100412Y91548D01*
D02*
G37*
G36*
X155459Y90641D02*
X155519Y90591D01*
X155578Y90546D01*
X155638Y90507D01*
X155697Y90475D01*
X155756Y90448D01*
X155815Y90428D01*
X155874Y90413D01*
X155933Y90405D01*
X155992Y90402D01*
X155200Y89610D01*
X155198Y89669D01*
X155189Y89728D01*
X155175Y89787D01*
X155154Y89846D01*
X155128Y89906D01*
X155095Y89965D01*
X155056Y90024D01*
X155012Y90084D01*
X154961Y90143D01*
X154904Y90203D01*
X155399Y90698D01*
X155459Y90641D01*
D02*
G37*
G36*
X100429Y88971D02*
X100385Y89011D01*
X100338Y89047D01*
X100286Y89078D01*
X100229Y89106D01*
X100169Y89129D01*
X100104Y89148D01*
X100034Y89162D01*
X99961Y89173D01*
X99883Y89179D01*
X99801Y89181D01*
Y89881D01*
X99883Y89884D01*
X99961Y89890D01*
X100034Y89900D01*
X100104Y89915D01*
X100169Y89934D01*
X100229Y89957D01*
X100286Y89984D01*
X100338Y90016D01*
X100385Y90052D01*
X100429Y90091D01*
Y88971D01*
D02*
G37*
G36*
X155459Y88082D02*
X155519Y88031D01*
X155578Y87987D01*
X155638Y87948D01*
X155697Y87916D01*
X155756Y87889D01*
X155815Y87868D01*
X155874Y87854D01*
X155933Y87846D01*
X155992Y87843D01*
X155200Y87051D01*
X155198Y87110D01*
X155189Y87169D01*
X155175Y87228D01*
X155154Y87287D01*
X155128Y87346D01*
X155095Y87406D01*
X155056Y87465D01*
X155012Y87525D01*
X154961Y87584D01*
X154904Y87644D01*
X155399Y88139D01*
X155459Y88082D01*
D02*
G37*
G36*
X-6148Y87208D02*
X-6142Y87130D01*
X-6131Y87056D01*
X-6116Y86987D01*
X-6098Y86922D01*
X-6074Y86861D01*
X-6047Y86805D01*
X-6016Y86753D01*
X-5980Y86705D01*
X-5940Y86662D01*
X-7060D01*
X-7020Y86705D01*
X-6984Y86753D01*
X-6953Y86805D01*
X-6926Y86861D01*
X-6903Y86922D01*
X-6884Y86987D01*
X-6869Y87056D01*
X-6858Y87130D01*
X-6852Y87208D01*
X-6850Y87290D01*
X-6150D01*
X-6148Y87208D01*
D02*
G37*
G36*
X100429Y86412D02*
X100385Y86452D01*
X100338Y86488D01*
X100286Y86519D01*
X100229Y86547D01*
X100169Y86570D01*
X100104Y86589D01*
X100034Y86603D01*
X99961Y86614D01*
X99883Y86620D01*
X99801Y86622D01*
Y87322D01*
X99883Y87325D01*
X99961Y87331D01*
X100034Y87341D01*
X100104Y87356D01*
X100169Y87375D01*
X100229Y87398D01*
X100286Y87425D01*
X100338Y87457D01*
X100385Y87493D01*
X100429Y87532D01*
Y86412D01*
D02*
G37*
G36*
X127972Y183050D02*
X128508Y183022D01*
X128947Y182945D01*
X129315Y182822D01*
X129618Y182659D01*
X129865Y182456D01*
X130068Y182208D01*
X130231Y181905D01*
X130354Y181537D01*
X130431Y181099D01*
X130459Y180562D01*
X130461Y180560D01*
Y142687D01*
X130616Y141907D01*
X131058Y141245D01*
X133035Y139268D01*
X133037Y139264D01*
X133266Y139023D01*
X133460Y138796D01*
X133627Y138575D01*
X133767Y138361D01*
X133882Y138152D01*
X133973Y137951D01*
X134040Y137757D01*
X134085Y137569D01*
X134109Y137387D01*
X134114Y137179D01*
X134153Y137090D01*
Y136584D01*
X134416Y135606D01*
X134922Y134729D01*
X135638Y134013D01*
X136515Y133506D01*
X137494Y133244D01*
X138506D01*
X139485Y133506D01*
X140362Y134013D01*
X141078Y134729D01*
X141584Y135606D01*
X141847Y136584D01*
Y137597D01*
X141584Y138575D01*
X141078Y139452D01*
X140362Y140168D01*
X139485Y140675D01*
X138506Y140937D01*
X138151D01*
X138069Y140977D01*
X137861Y140990D01*
X137677Y141021D01*
X137488Y141072D01*
X137292Y141146D01*
X137089Y141242D01*
X136879Y141361D01*
X136669Y141501D01*
X136208Y141876D01*
X135972Y142101D01*
X135968Y142103D01*
X134539Y143532D01*
Y144446D01*
X135039Y144612D01*
X135638Y144013D01*
X136515Y143506D01*
X137494Y143244D01*
X137934D01*
X138032Y143203D01*
X138561Y143201D01*
X139033Y143186D01*
X139864Y143113D01*
X140198Y143058D01*
X140489Y142992D01*
X140730Y142917D01*
X140918Y142837D01*
X141054Y142758D01*
X141181Y142653D01*
X141226Y142639D01*
X147633Y136232D01*
Y123094D01*
X147699Y122762D01*
X147887Y122481D01*
X156390Y113978D01*
X156671Y113790D01*
X157003Y113724D01*
X160254D01*
X160446Y113262D01*
X159387Y112203D01*
X159199Y111922D01*
X159133Y111591D01*
Y86450D01*
X158641Y85957D01*
X157406D01*
X157164Y86457D01*
X157300Y86785D01*
Y87302D01*
X157102Y87780D01*
X156868Y88014D01*
X156784Y88323D01*
X156868Y88632D01*
X157102Y88866D01*
X157300Y89344D01*
Y89861D01*
X157102Y90339D01*
X156868Y90573D01*
X156784Y90882D01*
X156868Y91191D01*
X157102Y91425D01*
X157300Y91903D01*
Y92420D01*
X157102Y92898D01*
X156736Y93264D01*
X156259Y93461D01*
X156102D01*
X156014Y93502D01*
X155983Y93503D01*
X155977Y93504D01*
X155969Y93506D01*
X155956Y93511D01*
X155938Y93519D01*
X155916Y93531D01*
X155888Y93549D01*
X155857Y93573D01*
X155821Y93603D01*
X155772Y93649D01*
X155716Y93671D01*
X152108Y97280D01*
X155716Y100888D01*
X155772Y100910D01*
X155821Y100956D01*
X155857Y100986D01*
X155888Y101010D01*
X155916Y101028D01*
X155938Y101040D01*
X155956Y101048D01*
X155969Y101053D01*
X155977Y101055D01*
X155983Y101056D01*
X156014Y101057D01*
X156102Y101098D01*
X156259D01*
X156736Y101295D01*
X157102Y101661D01*
X157300Y102139D01*
Y102656D01*
X157102Y103134D01*
X156868Y103368D01*
X156784Y103677D01*
X156868Y103986D01*
X157102Y104220D01*
X157300Y104698D01*
Y105215D01*
X157102Y105693D01*
X156868Y105927D01*
X156784Y106236D01*
X156868Y106545D01*
X157102Y106779D01*
X157300Y107257D01*
Y107774D01*
X157102Y108252D01*
X156736Y108618D01*
X156259Y108816D01*
X155741D01*
X155264Y108618D01*
X154898Y108252D01*
X154700Y107774D01*
Y107618D01*
X154659Y107530D01*
X154658Y107499D01*
X154657Y107493D01*
X154655Y107484D01*
X154651Y107472D01*
X154643Y107454D01*
X154630Y107431D01*
X154613Y107404D01*
X154589Y107372D01*
X154559Y107337D01*
X154512Y107288D01*
X154490Y107232D01*
X148405Y101146D01*
X117632D01*
X117440Y101608D01*
X123813Y107981D01*
X124001Y108262D01*
X124067Y108594D01*
Y146891D01*
X124001Y147222D01*
X123813Y147503D01*
X117452Y153864D01*
X117438Y153910D01*
X117333Y154037D01*
X117254Y154173D01*
X117174Y154361D01*
X117099Y154602D01*
X117032Y154893D01*
X116979Y155221D01*
X116889Y156539D01*
X116887Y157059D01*
X116847Y157157D01*
Y157597D01*
X116584Y158575D01*
X116078Y159452D01*
X115362Y160169D01*
X114485Y160675D01*
X113506Y160937D01*
X112494D01*
X111515Y160675D01*
X110638Y160169D01*
X109922Y159452D01*
X109416Y158575D01*
X109153Y157597D01*
Y157157D01*
X109113Y157059D01*
X109111Y156530D01*
X109095Y156057D01*
X109022Y155227D01*
X108993Y155048D01*
X108493Y155088D01*
Y180560D01*
X108494Y180562D01*
X108522Y181099D01*
X108600Y181537D01*
X108722Y181905D01*
X108885Y182208D01*
X109088Y182456D01*
X109336Y182659D01*
X109639Y182822D01*
X110007Y182945D01*
X110445Y183022D01*
X110982Y183050D01*
X110985Y183051D01*
X127969D01*
X127972Y183050D01*
D02*
G37*
G36*
X34352Y86208D02*
X34358Y86130D01*
X34369Y86056D01*
X34384Y85987D01*
X34402Y85922D01*
X34426Y85861D01*
X34453Y85805D01*
X34484Y85753D01*
X34520Y85705D01*
X34560Y85662D01*
X33440D01*
X33480Y85705D01*
X33516Y85753D01*
X33547Y85805D01*
X33574Y85861D01*
X33597Y85922D01*
X33616Y85987D01*
X33631Y86056D01*
X33642Y86130D01*
X33648Y86208D01*
X33650Y86290D01*
X34350D01*
X34352Y86208D01*
D02*
G37*
G36*
X33459Y82630D02*
X33519Y82579D01*
X33578Y82534D01*
X33637Y82496D01*
X33697Y82463D01*
X33756Y82437D01*
X33815Y82416D01*
X33874Y82401D01*
X33933Y82393D01*
X33992Y82391D01*
X33200Y81599D01*
X33198Y81657D01*
X33189Y81716D01*
X33175Y81775D01*
X33154Y81835D01*
X33128Y81894D01*
X33095Y81953D01*
X33056Y82012D01*
X33012Y82072D01*
X32961Y82131D01*
X32904Y82191D01*
X33399Y82686D01*
X33459Y82630D01*
D02*
G37*
G36*
X86266Y80417D02*
X86272Y80339D01*
X86283Y80265D01*
X86298Y80196D01*
X86316Y80131D01*
X86339Y80071D01*
X86367Y80014D01*
X86398Y79962D01*
X86434Y79915D01*
X86474Y79871D01*
X85354D01*
X85394Y79915D01*
X85430Y79962D01*
X85461Y80014D01*
X85488Y80071D01*
X85511Y80131D01*
X85530Y80196D01*
X85545Y80265D01*
X85555Y80339D01*
X85562Y80417D01*
X85564Y80499D01*
X86264D01*
X86266Y80417D01*
D02*
G37*
G36*
X20492Y66200D02*
X20433Y66198D01*
X20374Y66189D01*
X20315Y66175D01*
X20256Y66154D01*
X20197Y66128D01*
X20137Y66095D01*
X20078Y66056D01*
X20019Y66012D01*
X19959Y65961D01*
X19899Y65904D01*
X19404Y66399D01*
X19461Y66459D01*
X19512Y66519D01*
X19556Y66578D01*
X19595Y66637D01*
X19628Y66697D01*
X19654Y66756D01*
X19675Y66815D01*
X19689Y66874D01*
X19698Y66933D01*
X19700Y66992D01*
X20492Y66200D01*
D02*
G37*
G36*
X165006Y74222D02*
X165055Y73573D01*
X165097Y73290D01*
X165152Y73036D01*
X165218Y72811D01*
X165297Y72613D01*
X165388Y72444D01*
X165491Y72303D01*
X165606Y72191D01*
X163500Y69828D01*
X165842Y67201D01*
X165682Y67026D01*
X165539Y66832D01*
X165413Y66619D01*
X165303Y66387D01*
X165211Y66136D01*
X165135Y65865D01*
X165076Y65575D01*
X165034Y65266D01*
X165008Y64938D01*
X165000Y64591D01*
X162000D01*
X161992Y64938D01*
X161966Y65266D01*
X161924Y65575D01*
X161865Y65865D01*
X161789Y66136D01*
X161697Y66387D01*
X161587Y66619D01*
X161461Y66832D01*
X161318Y67026D01*
X161158Y67201D01*
X163500Y69828D01*
X161393Y72191D01*
X161509Y72303D01*
X161612Y72444D01*
X161703Y72613D01*
X161782Y72811D01*
X161848Y73036D01*
X161903Y73290D01*
X161945Y73573D01*
X161994Y74222D01*
X162000Y74590D01*
X165000D01*
X165006Y74222D01*
D02*
G37*
G36*
X165008Y64243D02*
X165034Y63915D01*
X165076Y63606D01*
X165135Y63316D01*
X165211Y63046D01*
X165303Y62794D01*
X165413Y62562D01*
X165539Y62349D01*
X165682Y62155D01*
X165842Y61980D01*
X161158D01*
X161318Y62155D01*
X161461Y62349D01*
X161587Y62562D01*
X161697Y62794D01*
X161789Y63046D01*
X161865Y63316D01*
X161924Y63606D01*
X161966Y63915D01*
X161992Y64243D01*
X162000Y64590D01*
X165000D01*
X165008Y64243D01*
D02*
G37*
G36*
X155504Y67294D02*
X155469Y67201D01*
X155842D01*
X155682Y67026D01*
X155539Y66832D01*
X155413Y66619D01*
X155303Y66387D01*
X155235Y66202D01*
X155224Y66135D01*
X155100Y64839D01*
X155061Y63714D01*
X155076Y63606D01*
X155135Y63316D01*
X155211Y63046D01*
X155303Y62794D01*
X155413Y62562D01*
X155539Y62349D01*
X155682Y62155D01*
X155842Y61980D01*
X155006D01*
X155000Y60992D01*
X152000D01*
X151995Y61980D01*
X151157D01*
X151318Y62155D01*
X151461Y62349D01*
X151587Y62562D01*
X151697Y62794D01*
X151789Y63046D01*
X151865Y63316D01*
X151902Y63497D01*
X151714Y66340D01*
X151697Y66387D01*
X151587Y66619D01*
X151461Y66832D01*
X151318Y67026D01*
X151157Y67201D01*
X151531D01*
X151496Y67294D01*
X151377Y67471D01*
X155623D01*
X155504Y67294D01*
D02*
G37*
G36*
X165682Y57026D02*
X165539Y56832D01*
X165413Y56619D01*
X165303Y56387D01*
X165211Y56135D01*
X165135Y55865D01*
X165076Y55575D01*
X165034Y55266D01*
X165008Y54938D01*
X165000Y54591D01*
X162000D01*
X161992Y54938D01*
X161966Y55266D01*
X161924Y55575D01*
X161865Y55865D01*
X161789Y56135D01*
X161697Y56387D01*
X161587Y56619D01*
X161461Y56832D01*
X161318Y57026D01*
X161158Y57201D01*
X165842D01*
X165682Y57026D01*
D02*
G37*
G36*
X155682D02*
X155539Y56832D01*
X155413Y56619D01*
X155303Y56387D01*
X155211Y56135D01*
X155135Y55865D01*
X155076Y55575D01*
X155034Y55266D01*
X155008Y54938D01*
X155000Y54591D01*
X152000D01*
X151992Y54938D01*
X151966Y55266D01*
X151924Y55575D01*
X151865Y55865D01*
X151789Y56135D01*
X151697Y56387D01*
X151587Y56619D01*
X151461Y56832D01*
X151318Y57026D01*
X151157Y57201D01*
X155842D01*
X155682Y57026D01*
D02*
G37*
G36*
X165008Y54243D02*
X165034Y53915D01*
X165076Y53606D01*
X165135Y53316D01*
X165211Y53046D01*
X165303Y52794D01*
X165413Y52562D01*
X165539Y52349D01*
X165682Y52155D01*
X165842Y51980D01*
X161158D01*
X161318Y52155D01*
X161461Y52349D01*
X161587Y52562D01*
X161697Y52794D01*
X161789Y53046D01*
X161865Y53316D01*
X161924Y53606D01*
X161966Y53915D01*
X161992Y54243D01*
X162000Y54590D01*
X165000D01*
X165008Y54243D01*
D02*
G37*
G36*
X155008D02*
X155034Y53915D01*
X155076Y53606D01*
X155135Y53316D01*
X155211Y53046D01*
X155303Y52794D01*
X155413Y52562D01*
X155539Y52349D01*
X155682Y52155D01*
X155842Y51980D01*
X151157D01*
X151318Y52155D01*
X151461Y52349D01*
X151587Y52562D01*
X151697Y52794D01*
X151789Y53046D01*
X151865Y53316D01*
X151924Y53606D01*
X151966Y53915D01*
X151992Y54243D01*
X152000Y54590D01*
X155000D01*
X155008Y54243D01*
D02*
G37*
G36*
X26429Y49940D02*
X26385Y49980D01*
X26338Y50016D01*
X26286Y50047D01*
X26229Y50074D01*
X26169Y50098D01*
X26104Y50116D01*
X26035Y50131D01*
X25961Y50142D01*
X25883Y50148D01*
X25801Y50150D01*
Y50850D01*
X25883Y50852D01*
X25961Y50858D01*
X26035Y50869D01*
X26104Y50884D01*
X26169Y50902D01*
X26229Y50926D01*
X26286Y50953D01*
X26338Y50984D01*
X26385Y51020D01*
X26429Y51060D01*
Y49940D01*
D02*
G37*
G36*
X83265Y72709D02*
X83237Y72210D01*
X74556Y70000D01*
Y61500D01*
X67535Y48500D01*
X55500D01*
Y77500D01*
X70500D01*
X83265Y72709D01*
D02*
G37*
G36*
X165682Y47026D02*
X165539Y46832D01*
X165413Y46619D01*
X165303Y46387D01*
X165211Y46136D01*
X165135Y45865D01*
X165076Y45575D01*
X165034Y45266D01*
X165008Y44938D01*
X165000Y44591D01*
X162000D01*
X161992Y44938D01*
X161966Y45266D01*
X161924Y45575D01*
X161865Y45865D01*
X161789Y46136D01*
X161697Y46387D01*
X161587Y46619D01*
X161461Y46832D01*
X161318Y47026D01*
X161158Y47201D01*
X165842D01*
X165682Y47026D01*
D02*
G37*
G36*
X155682D02*
X155539Y46832D01*
X155413Y46619D01*
X155303Y46387D01*
X155211Y46136D01*
X155135Y45865D01*
X155076Y45575D01*
X155034Y45266D01*
X155008Y44938D01*
X155000Y44591D01*
X152000D01*
X151992Y44938D01*
X151966Y45266D01*
X151924Y45575D01*
X151865Y45865D01*
X151789Y46136D01*
X151697Y46387D01*
X151587Y46619D01*
X151461Y46832D01*
X151318Y47026D01*
X151157Y47201D01*
X155842D01*
X155682Y47026D01*
D02*
G37*
G36*
X165008Y44243D02*
X165034Y43915D01*
X165076Y43606D01*
X165135Y43316D01*
X165211Y43046D01*
X165303Y42794D01*
X165413Y42562D01*
X165539Y42349D01*
X165682Y42155D01*
X165842Y41980D01*
X161158D01*
X161318Y42155D01*
X161461Y42349D01*
X161587Y42562D01*
X161697Y42794D01*
X161789Y43046D01*
X161865Y43316D01*
X161924Y43606D01*
X161966Y43915D01*
X161992Y44243D01*
X162000Y44590D01*
X165000D01*
X165008Y44243D01*
D02*
G37*
G36*
X155008D02*
X155034Y43915D01*
X155076Y43606D01*
X155135Y43316D01*
X155211Y43046D01*
X155303Y42794D01*
X155413Y42562D01*
X155539Y42349D01*
X155682Y42155D01*
X155842Y41980D01*
X151157D01*
X151318Y42155D01*
X151461Y42349D01*
X151587Y42562D01*
X151697Y42794D01*
X151789Y43046D01*
X151865Y43316D01*
X151924Y43606D01*
X151966Y43915D01*
X151992Y44243D01*
X152000Y44590D01*
X155000D01*
X155008Y44243D01*
D02*
G37*
G36*
X-8023Y37741D02*
X-7773Y37523D01*
X-7737Y37499D01*
X-7706Y37481D01*
X-7680Y37471D01*
X-7659Y37467D01*
X-8426Y36977D01*
X-8419Y37003D01*
X-8418Y37032D01*
X-8424Y37064D01*
X-8436Y37099D01*
X-8454Y37137D01*
X-8479Y37178D01*
X-8510Y37222D01*
X-8548Y37268D01*
X-8642Y37370D01*
X-8087Y37805D01*
X-8023Y37741D01*
D02*
G37*
G36*
X-8392Y35535D02*
X-8332Y35486D01*
X-8272Y35444D01*
X-8213Y35409D01*
X-8154Y35381D01*
X-8096Y35360D01*
X-8037Y35347D01*
X-7980Y35341D01*
X-7922Y35342D01*
X-7865Y35350D01*
X-8486Y34418D01*
X-8499Y34472D01*
X-8516Y34527D01*
X-8539Y34582D01*
X-8566Y34638D01*
X-8599Y34695D01*
X-8636Y34752D01*
X-8679Y34809D01*
X-8778Y34927D01*
X-8835Y34986D01*
X-8452Y35592D01*
X-8392Y35535D01*
D02*
G37*
G36*
X165682Y37026D02*
X165539Y36832D01*
X165413Y36619D01*
X165303Y36387D01*
X165211Y36136D01*
X165135Y35865D01*
X165076Y35575D01*
X165034Y35266D01*
X165029Y35199D01*
X165060Y34841D01*
X165135Y34389D01*
X165240Y33997D01*
X165375Y33666D01*
X165540Y33395D01*
X165735Y33184D01*
X165960Y33033D01*
X166215Y32943D01*
X166500Y32913D01*
X160500D01*
X160785Y32943D01*
X161040Y33033D01*
X161265Y33184D01*
X161460Y33395D01*
X161625Y33666D01*
X161760Y33997D01*
X161865Y34389D01*
X161940Y34841D01*
X161971Y35199D01*
X161966Y35266D01*
X161924Y35575D01*
X161865Y35865D01*
X161789Y36136D01*
X161697Y36387D01*
X161587Y36619D01*
X161461Y36832D01*
X161318Y37026D01*
X161158Y37201D01*
X165842D01*
X165682Y37026D01*
D02*
G37*
G36*
X155682D02*
X155539Y36832D01*
X155413Y36619D01*
X155303Y36387D01*
X155211Y36136D01*
X155135Y35865D01*
X155076Y35575D01*
X155034Y35266D01*
X155028Y35199D01*
X155060Y34841D01*
X155135Y34389D01*
X155240Y33997D01*
X155375Y33666D01*
X155540Y33395D01*
X155735Y33184D01*
X155960Y33033D01*
X156215Y32943D01*
X156500Y32913D01*
X150500D01*
X150785Y32943D01*
X151040Y33033D01*
X151265Y33184D01*
X151460Y33395D01*
X151625Y33666D01*
X151760Y33997D01*
X151865Y34389D01*
X151940Y34841D01*
X151971Y35199D01*
X151966Y35266D01*
X151924Y35575D01*
X151865Y35865D01*
X151789Y36136D01*
X151697Y36387D01*
X151587Y36619D01*
X151461Y36832D01*
X151318Y37026D01*
X151157Y37201D01*
X155842D01*
X155682Y37026D01*
D02*
G37*
G36*
X-385Y23520D02*
X-338Y23484D01*
X-286Y23453D01*
X-229Y23426D01*
X-169Y23403D01*
X-104Y23384D01*
X-35Y23369D01*
X39Y23358D01*
X117Y23352D01*
X199Y23350D01*
Y22650D01*
X117Y22648D01*
X39Y22642D01*
X-35Y22631D01*
X-104Y22616D01*
X-169Y22598D01*
X-229Y22574D01*
X-286Y22547D01*
X-338Y22516D01*
X-385Y22480D01*
X-429Y22440D01*
Y23560D01*
X-385Y23520D01*
D02*
G37*
%LPC*%
G36*
X157150Y206740D02*
X149850D01*
Y199441D01*
X157150D01*
Y206740D01*
D02*
G37*
G36*
X143981D02*
X143019D01*
X142091Y206491D01*
X141259Y206011D01*
X140580Y205331D01*
X140099Y204499D01*
X139850Y203571D01*
Y202610D01*
X140099Y201682D01*
X140580Y200850D01*
X141259Y200170D01*
X142091Y199690D01*
X143019Y199441D01*
X143981D01*
X144909Y199690D01*
X145741Y200170D01*
X146420Y200850D01*
X146901Y201682D01*
X147150Y202610D01*
Y203571D01*
X146901Y204499D01*
X146420Y205331D01*
X145741Y206011D01*
X144909Y206491D01*
X143981Y206740D01*
D02*
G37*
G36*
X133981D02*
X133019D01*
X132091Y206491D01*
X131259Y206011D01*
X130580Y205331D01*
X130099Y204499D01*
X129850Y203571D01*
Y202610D01*
X130099Y201682D01*
X130580Y200850D01*
X131259Y200170D01*
X132091Y199690D01*
X133019Y199441D01*
X133981D01*
X134909Y199690D01*
X135741Y200170D01*
X136420Y200850D01*
X136901Y201682D01*
X137150Y202610D01*
Y203571D01*
X136901Y204499D01*
X136420Y205331D01*
X135741Y206011D01*
X134909Y206491D01*
X133981Y206740D01*
D02*
G37*
G36*
X123980D02*
X123020D01*
X122091Y206491D01*
X121259Y206011D01*
X120580Y205331D01*
X120099Y204499D01*
X119850Y203571D01*
Y202610D01*
X120099Y201682D01*
X120580Y200850D01*
X121259Y200170D01*
X122091Y199690D01*
X123020Y199441D01*
X123980D01*
X124909Y199690D01*
X125741Y200170D01*
X126420Y200850D01*
X126901Y201682D01*
X127150Y202610D01*
Y203571D01*
X126901Y204499D01*
X126420Y205331D01*
X125741Y206011D01*
X124909Y206491D01*
X123980Y206740D01*
D02*
G37*
G36*
X113980D02*
X113020D01*
X112091Y206491D01*
X111259Y206011D01*
X110580Y205331D01*
X110099Y204499D01*
X109850Y203571D01*
Y202610D01*
X110099Y201682D01*
X110580Y200850D01*
X111259Y200170D01*
X112091Y199690D01*
X113020Y199441D01*
X113980D01*
X114909Y199690D01*
X115741Y200170D01*
X116420Y200850D01*
X116901Y201682D01*
X117150Y202610D01*
Y203571D01*
X116901Y204499D01*
X116420Y205331D01*
X115741Y206011D01*
X114909Y206491D01*
X113980Y206740D01*
D02*
G37*
G36*
X103981D02*
X103019D01*
X102091Y206491D01*
X101259Y206011D01*
X100580Y205331D01*
X100099Y204499D01*
X99850Y203571D01*
Y202610D01*
X100099Y201682D01*
X100580Y200850D01*
X101259Y200170D01*
X102091Y199690D01*
X103019Y199441D01*
X103981D01*
X104909Y199690D01*
X105741Y200170D01*
X106420Y200850D01*
X106901Y201682D01*
X107150Y202610D01*
Y203571D01*
X106901Y204499D01*
X106420Y205331D01*
X105741Y206011D01*
X104909Y206491D01*
X103981Y206740D01*
D02*
G37*
G36*
X167890Y204890D02*
X166551D01*
X165237Y204628D01*
X164000Y204116D01*
X162886Y203372D01*
X161939Y202425D01*
X161195Y201311D01*
X160682Y200074D01*
X160421Y198760D01*
Y197421D01*
X160682Y196107D01*
X161195Y194870D01*
X161939Y193756D01*
X162886Y192809D01*
X164000Y192065D01*
X165237Y191553D01*
X166551Y191291D01*
X167890D01*
X169204Y191553D01*
X170441Y192065D01*
X171555Y192809D01*
X172502Y193756D01*
X173246Y194870D01*
X173758Y196107D01*
X174020Y197421D01*
Y198760D01*
X173758Y200074D01*
X173246Y201311D01*
X172502Y202425D01*
X171555Y203372D01*
X170441Y204116D01*
X169204Y204628D01*
X167890Y204890D01*
D02*
G37*
G36*
X153981Y196740D02*
X153019D01*
X152091Y196492D01*
X151259Y196011D01*
X150580Y195332D01*
X150099Y194499D01*
X149850Y193571D01*
Y192610D01*
X150099Y191682D01*
X150580Y190850D01*
X151259Y190170D01*
X152091Y189690D01*
X153019Y189441D01*
X153981D01*
X154909Y189690D01*
X155741Y190170D01*
X156420Y190850D01*
X156901Y191682D01*
X157150Y192610D01*
Y193571D01*
X156901Y194499D01*
X156420Y195332D01*
X155741Y196011D01*
X154909Y196492D01*
X153981Y196740D01*
D02*
G37*
G36*
X143981D02*
X143019D01*
X142091Y196492D01*
X141259Y196011D01*
X140580Y195332D01*
X140099Y194499D01*
X139850Y193571D01*
Y192610D01*
X140099Y191682D01*
X140580Y190850D01*
X141259Y190170D01*
X142091Y189690D01*
X143019Y189441D01*
X143981D01*
X144909Y189690D01*
X145741Y190170D01*
X146420Y190850D01*
X146901Y191682D01*
X147150Y192610D01*
Y193571D01*
X146901Y194499D01*
X146420Y195332D01*
X145741Y196011D01*
X144909Y196492D01*
X143981Y196740D01*
D02*
G37*
G36*
X133981D02*
X133019D01*
X132091Y196492D01*
X131259Y196011D01*
X130580Y195332D01*
X130099Y194499D01*
X129850Y193571D01*
Y192610D01*
X130099Y191682D01*
X130580Y190850D01*
X131259Y190170D01*
X132091Y189690D01*
X133019Y189441D01*
X133981D01*
X134909Y189690D01*
X135741Y190170D01*
X136420Y190850D01*
X136901Y191682D01*
X137150Y192610D01*
Y193571D01*
X136901Y194499D01*
X136420Y195332D01*
X135741Y196011D01*
X134909Y196492D01*
X133981Y196740D01*
D02*
G37*
G36*
X112759Y53300D02*
X112241D01*
X111764Y53102D01*
X111719Y53058D01*
X111467Y53042D01*
X111392Y53041D01*
X111341Y53020D01*
X99000D01*
X98610Y52942D01*
X98279Y52721D01*
X93603Y48045D01*
X93553Y48026D01*
X93385Y47865D01*
X93314Y47804D01*
X93309Y47800D01*
X93241D01*
X92764Y47602D01*
X92398Y47236D01*
X92200Y46759D01*
Y46241D01*
X92398Y45764D01*
X92764Y45398D01*
X93241Y45200D01*
X93759D01*
X94236Y45398D01*
X94602Y45764D01*
X94800Y46241D01*
Y46304D01*
X94967Y46494D01*
X95020Y46547D01*
X95041Y46599D01*
X99422Y50980D01*
X111335D01*
X111384Y50959D01*
X111616Y50954D01*
X111709Y50947D01*
X111716Y50946D01*
X111764Y50898D01*
X112241Y50700D01*
X112759D01*
X113236Y50898D01*
X113602Y51264D01*
X113800Y51741D01*
Y52259D01*
X113602Y52736D01*
X113236Y53102D01*
X112759Y53300D01*
D02*
G37*
G36*
X115498Y66539D02*
X111000D01*
X110220Y66384D01*
X109558Y65942D01*
X109116Y65280D01*
X108961Y64500D01*
X109116Y63720D01*
X109558Y63058D01*
X110220Y62616D01*
X111000Y62461D01*
X115489D01*
X115500Y62459D01*
X137156D01*
X141461Y58153D01*
Y29102D01*
X140899Y28539D01*
X129500D01*
X128720Y28384D01*
X128058Y27942D01*
X127616Y27280D01*
X127461Y26500D01*
X127616Y25720D01*
X128058Y25058D01*
X128720Y24616D01*
X129500Y24461D01*
X141743D01*
X142524Y24616D01*
X143185Y25058D01*
X144942Y26815D01*
X145385Y27477D01*
X145540Y28257D01*
Y58998D01*
X145385Y59778D01*
X144942Y60440D01*
X144942Y60440D01*
X139443Y65940D01*
X138781Y66382D01*
X138001Y66537D01*
X115509D01*
X115498Y66539D01*
D02*
G37*
G36*
X34259Y21800D02*
X33741D01*
X33264Y21602D01*
X33182Y21520D01*
X33173Y21521D01*
X33167Y21519D01*
X33162Y21519D01*
X33147Y21513D01*
X33146Y21513D01*
X33129Y21509D01*
X33108Y21506D01*
X32924Y21492D01*
X32852Y21491D01*
X32799Y21469D01*
X31295D01*
X31240Y21491D01*
X30356Y21488D01*
X30269Y21524D01*
X29752D01*
X29274Y21326D01*
X28908Y20961D01*
X28710Y20483D01*
Y19966D01*
X28908Y19488D01*
X29274Y19122D01*
X29752Y18924D01*
X30269D01*
X30747Y19122D01*
X31113Y19488D01*
X31118Y19500D01*
X31209Y19508D01*
X31281Y19509D01*
X31285Y19511D01*
X31289Y19509D01*
X31338Y19531D01*
X32794D01*
X32845Y19509D01*
X32997Y19505D01*
X33103Y19495D01*
X33129Y19491D01*
X33146Y19487D01*
X33147Y19487D01*
X33162Y19481D01*
X33167Y19481D01*
X33173Y19479D01*
X33182Y19480D01*
X33264Y19398D01*
X33741Y19200D01*
X34259D01*
X34736Y19398D01*
X35102Y19764D01*
X35300Y20241D01*
Y20759D01*
X35102Y21236D01*
X34736Y21602D01*
X34259Y21800D01*
D02*
G37*
G36*
X25259Y28800D02*
X24741D01*
X24264Y28602D01*
X23898Y28236D01*
X23700Y27759D01*
Y27602D01*
X23659Y27514D01*
X23658Y27483D01*
X23657Y27477D01*
X23655Y27469D01*
X23651Y27456D01*
X23643Y27438D01*
X23630Y27416D01*
X23613Y27389D01*
X23589Y27357D01*
X23559Y27321D01*
X23512Y27272D01*
X23491Y27216D01*
X16784Y20509D01*
X16728Y20488D01*
X16679Y20441D01*
X16643Y20411D01*
X16612Y20387D01*
X16584Y20370D01*
X16562Y20357D01*
X16544Y20349D01*
X16531Y20345D01*
X16523Y20343D01*
X16517Y20342D01*
X16486Y20341D01*
X16398Y20300D01*
X16241D01*
X15764Y20102D01*
X15398Y19736D01*
X15200Y19259D01*
Y18741D01*
X15398Y18264D01*
X15764Y17898D01*
X16241Y17700D01*
X16759D01*
X17236Y17898D01*
X17602Y18264D01*
X17800Y18741D01*
Y18898D01*
X17841Y18986D01*
X17842Y19017D01*
X17843Y19023D01*
X17845Y19031D01*
X17849Y19044D01*
X17857Y19062D01*
X17870Y19084D01*
X17887Y19112D01*
X17911Y19143D01*
X17941Y19179D01*
X17988Y19228D01*
X18010Y19284D01*
X24716Y25991D01*
X24772Y26012D01*
X24821Y26059D01*
X24857Y26089D01*
X24889Y26113D01*
X24916Y26130D01*
X24938Y26143D01*
X24956Y26151D01*
X24969Y26155D01*
X24977Y26157D01*
X24983Y26158D01*
X25014Y26159D01*
X25102Y26200D01*
X25259D01*
X25736Y26398D01*
X26102Y26764D01*
X26300Y27241D01*
Y27759D01*
X26102Y28236D01*
X25736Y28602D01*
X25259Y28800D01*
D02*
G37*
G36*
X44732Y12228D02*
X44024D01*
X43370Y11957D01*
X42869Y11457D01*
X42598Y10803D01*
Y10095D01*
X42869Y9441D01*
X43370Y8940D01*
X44024Y8669D01*
X44732D01*
X45386Y8940D01*
X45886Y9441D01*
X46157Y10095D01*
Y10803D01*
X45886Y11457D01*
X45386Y11957D01*
X44732Y12228D01*
D02*
G37*
G36*
X21976D02*
X21268D01*
X20614Y11957D01*
X20113Y11457D01*
X19842Y10803D01*
Y10095D01*
X20113Y9441D01*
X20614Y8940D01*
X21268Y8669D01*
X21976D01*
X22630Y8940D01*
X23131Y9441D01*
X23402Y10095D01*
Y10803D01*
X23131Y11457D01*
X22630Y11957D01*
X21976Y12228D01*
D02*
G37*
G36*
X74000Y43541D02*
X73828Y43470D01*
X73650Y43413D01*
X73639Y43392D01*
X73617Y43383D01*
X71617Y41383D01*
X71459Y41000D01*
X71459Y41000D01*
X71459Y6500D01*
X71617Y6117D01*
X72000Y5959D01*
X88500D01*
X88883Y6117D01*
X88883Y6117D01*
X95724Y12959D01*
X139500D01*
X139883Y13117D01*
X140041Y13500D01*
X140041Y23000D01*
X139883Y23383D01*
X139500Y23541D01*
X125634Y23541D01*
X125523Y23495D01*
X125402Y23489D01*
X125339Y23419D01*
X125251Y23383D01*
X125205Y23272D01*
X125124Y23183D01*
X123460Y18542D01*
X115871Y18693D01*
X104206Y23500D01*
X104099Y23500D01*
X104000Y23541D01*
X101111D01*
X94220Y26495D01*
X81510Y32361D01*
X80566Y42550D01*
X80490Y42694D01*
X80440Y42850D01*
X80396Y42873D01*
X80373Y42916D01*
X80217Y42965D01*
X80072Y43039D01*
X74045Y43539D01*
X74022Y43532D01*
X74000Y43541D01*
D02*
G37*
G36*
X20500Y30539D02*
X15500D01*
X14720Y30384D01*
X14058Y29942D01*
X10558Y26442D01*
X10116Y25780D01*
X9961Y25000D01*
Y6500D01*
X10116Y5720D01*
X10558Y5058D01*
X13467Y2149D01*
X14129Y1707D01*
X14909Y1551D01*
X26635D01*
X27091Y1461D01*
X32000D01*
X32780Y1616D01*
X33442Y2058D01*
X33884Y2720D01*
X34039Y3500D01*
X33884Y4280D01*
X33442Y4942D01*
X32780Y5384D01*
X32000Y5539D01*
X27455D01*
X27000Y5630D01*
X15754D01*
X14039Y7345D01*
Y24155D01*
X16345Y26461D01*
X20500D01*
X21280Y26616D01*
X21942Y27058D01*
X22384Y27720D01*
X22539Y28500D01*
X22384Y29280D01*
X21942Y29942D01*
X21280Y30384D01*
X20500Y30539D01*
D02*
G37*
G36*
X104214Y5012D02*
X102786D01*
X101407Y4642D01*
X100171Y3929D01*
X99162Y2919D01*
X98448Y1683D01*
X98079Y304D01*
Y-1123D01*
X98448Y-2502D01*
X99162Y-3738D01*
X100171Y-4748D01*
X101407Y-5461D01*
X102786Y-5831D01*
X104214D01*
X105593Y-5461D01*
X106829Y-4748D01*
X107838Y-3738D01*
X108552Y-2502D01*
X108921Y-1123D01*
Y304D01*
X108552Y1683D01*
X107838Y2919D01*
X106829Y3929D01*
X105593Y4642D01*
X104214Y5012D01*
D02*
G37*
G36*
X85710D02*
X84282D01*
X82904Y4642D01*
X81667Y3929D01*
X80658Y2919D01*
X79944Y1683D01*
X79575Y304D01*
Y-1123D01*
X79944Y-2502D01*
X80658Y-3738D01*
X81667Y-4748D01*
X82904Y-5461D01*
X84282Y-5831D01*
X85710D01*
X87089Y-5461D01*
X88325Y-4748D01*
X89334Y-3738D01*
X90048Y-2502D01*
X90417Y-1123D01*
Y304D01*
X90048Y1683D01*
X89334Y2919D01*
X88325Y3929D01*
X87089Y4642D01*
X85710Y5012D01*
D02*
G37*
G36*
X67206D02*
X65778D01*
X64400Y4642D01*
X63163Y3929D01*
X62154Y2919D01*
X61440Y1683D01*
X61071Y304D01*
Y-1123D01*
X61440Y-2502D01*
X62154Y-3738D01*
X63163Y-4748D01*
X64400Y-5461D01*
X65778Y-5831D01*
X67206D01*
X68585Y-5461D01*
X69821Y-4748D01*
X70830Y-3738D01*
X71544Y-2502D01*
X71913Y-1123D01*
Y304D01*
X71544Y1683D01*
X70830Y2919D01*
X69821Y3929D01*
X68585Y4642D01*
X67206Y5012D01*
D02*
G37*
G36*
X148662Y4118D02*
X147338D01*
X146059Y3776D01*
X144913Y3114D01*
X143977Y2178D01*
X143315Y1031D01*
X142972Y-247D01*
Y-1571D01*
X143315Y-2850D01*
X143977Y-3996D01*
X144913Y-4933D01*
X146059Y-5594D01*
X147338Y-5937D01*
X148662D01*
X149941Y-5594D01*
X151087Y-4933D01*
X152023Y-3996D01*
X152685Y-2850D01*
X153028Y-1571D01*
Y-247D01*
X152685Y1031D01*
X152023Y2178D01*
X151087Y3114D01*
X149941Y3776D01*
X148662Y4118D01*
D02*
G37*
G36*
X167890Y6799D02*
X166551D01*
X165237Y6538D01*
X164000Y6025D01*
X162886Y5281D01*
X161939Y4334D01*
X161195Y3221D01*
X160682Y1983D01*
X160421Y670D01*
Y-670D01*
X160682Y-1983D01*
X161195Y-3221D01*
X161939Y-4334D01*
X162886Y-5281D01*
X164000Y-6025D01*
X165237Y-6538D01*
X166551Y-6799D01*
X167890D01*
X169204Y-6538D01*
X170441Y-6025D01*
X171555Y-5281D01*
X172502Y-4334D01*
X173246Y-3221D01*
X173758Y-1983D01*
X174020Y-670D01*
Y670D01*
X173758Y1983D01*
X173246Y3221D01*
X172502Y4334D01*
X171555Y5281D01*
X170441Y6025D01*
X169204Y6538D01*
X167890Y6799D01*
D02*
G37*
G36*
X670D02*
X-670D01*
X-1983Y6538D01*
X-3221Y6025D01*
X-4334Y5281D01*
X-5281Y4334D01*
X-6025Y3221D01*
X-6538Y1983D01*
X-6799Y670D01*
Y-670D01*
X-6538Y-1983D01*
X-6025Y-3221D01*
X-5281Y-4334D01*
X-4334Y-5281D01*
X-3221Y-6025D01*
X-1983Y-6538D01*
X-670Y-6799D01*
X670D01*
X1983Y-6538D01*
X3221Y-6025D01*
X4334Y-5281D01*
X5281Y-4334D01*
X6025Y-3221D01*
X6538Y-1983D01*
X6799Y-670D01*
Y670D01*
X6538Y1983D01*
X6025Y3221D01*
X5281Y4334D01*
X4334Y5281D01*
X3221Y6025D01*
X1983Y6538D01*
X670Y6799D01*
D02*
G37*
%LPD*%
G36*
X111929Y51440D02*
X111913Y51451D01*
X111889Y51462D01*
X111856Y51471D01*
X111815Y51478D01*
X111766Y51485D01*
X111643Y51495D01*
X111396Y51500D01*
Y52500D01*
X111486Y52501D01*
X111815Y52522D01*
X111856Y52529D01*
X111889Y52538D01*
X111913Y52549D01*
X111929Y52560D01*
Y51440D01*
D02*
G37*
G36*
X94635Y46927D02*
X94571Y46863D01*
X94353Y46615D01*
X94330Y46581D01*
X94313Y46552D01*
X94303Y46527D01*
X94300Y46508D01*
X93508Y47300D01*
X93527Y47303D01*
X93552Y47313D01*
X93581Y47330D01*
X93615Y47353D01*
X93655Y47383D01*
X93749Y47464D01*
X93927Y47635D01*
X94635Y46927D01*
D02*
G37*
G36*
X33429Y19940D02*
X33404Y19961D01*
X33371Y19980D01*
X33332Y19996D01*
X33286Y20010D01*
X33232Y20022D01*
X33172Y20032D01*
X33029Y20046D01*
X32859Y20050D01*
Y20950D01*
X32947Y20951D01*
X33172Y20968D01*
X33232Y20978D01*
X33286Y20990D01*
X33332Y21004D01*
X33371Y21020D01*
X33404Y21039D01*
X33429Y21060D01*
Y19940D01*
D02*
G37*
G36*
X31271Y20050D02*
X31183Y20048D01*
X31029Y20036D01*
X30964Y20025D01*
X30907Y20011D01*
X30858Y19994D01*
X30817Y19974D01*
X30783Y19951D01*
X30757Y19925D01*
X30740Y19895D01*
X30354Y20947D01*
X31241Y20950D01*
X31271Y20050D01*
D02*
G37*
G36*
X24992Y26700D02*
X24933Y26698D01*
X24874Y26689D01*
X24815Y26675D01*
X24756Y26654D01*
X24697Y26628D01*
X24637Y26595D01*
X24578Y26556D01*
X24519Y26512D01*
X24459Y26461D01*
X24399Y26404D01*
X23904Y26899D01*
X23961Y26959D01*
X24012Y27019D01*
X24056Y27078D01*
X24095Y27138D01*
X24128Y27197D01*
X24154Y27256D01*
X24175Y27315D01*
X24189Y27374D01*
X24198Y27433D01*
X24200Y27492D01*
X24992Y26700D01*
D02*
G37*
G36*
X17596Y19601D02*
X17539Y19541D01*
X17488Y19481D01*
X17444Y19422D01*
X17405Y19363D01*
X17372Y19303D01*
X17346Y19244D01*
X17325Y19185D01*
X17311Y19126D01*
X17302Y19067D01*
X17300Y19008D01*
X16508Y19800D01*
X16567Y19802D01*
X16626Y19811D01*
X16685Y19825D01*
X16744Y19846D01*
X16803Y19872D01*
X16862Y19905D01*
X16922Y19944D01*
X16981Y19988D01*
X17041Y20039D01*
X17101Y20096D01*
X17596Y19601D01*
D02*
G37*
G36*
X80027Y42500D02*
X81000Y32000D01*
X94000Y26000D01*
X101000Y23000D01*
X104000D01*
X115758Y18154D01*
X123838Y17993D01*
X125634Y23000D01*
X139500Y23000D01*
X139500Y13500D01*
X95500D01*
X88500Y6500D01*
X72000D01*
X72000Y41000D01*
X74000Y43000D01*
X80027Y42500D01*
D02*
G37*
%LPC*%
G36*
X166847Y130937D02*
X159153D01*
Y123244D01*
X166847D01*
Y130937D01*
D02*
G37*
G36*
X88506Y180937D02*
X87494D01*
X86515Y180675D01*
X85638Y180168D01*
X84922Y179452D01*
X84416Y178575D01*
X84153Y177597D01*
Y176584D01*
X84416Y175606D01*
X84922Y174729D01*
X85638Y174013D01*
X86515Y173506D01*
X87494Y173244D01*
X88506D01*
X89485Y173506D01*
X90362Y174013D01*
X91078Y174729D01*
X91584Y175606D01*
X91847Y176584D01*
Y177597D01*
X91584Y178575D01*
X91078Y179452D01*
X90362Y180168D01*
X89485Y180675D01*
X88506Y180937D01*
D02*
G37*
G36*
X113506D02*
X112494D01*
X111515Y180675D01*
X110638Y180168D01*
X109922Y179452D01*
X109416Y178575D01*
X109153Y177597D01*
Y176584D01*
X109416Y175606D01*
X109922Y174729D01*
X110638Y174013D01*
X111515Y173506D01*
X112494Y173244D01*
X113506D01*
X114485Y173506D01*
X115362Y174013D01*
X116078Y174729D01*
X116584Y175606D01*
X116847Y176584D01*
Y177597D01*
X116584Y178575D01*
X116078Y179452D01*
X115362Y180168D01*
X114485Y180675D01*
X113506Y180937D01*
D02*
G37*
G36*
X141847Y130937D02*
X134153D01*
Y123244D01*
X141847D01*
Y130937D01*
D02*
G37*
%LPD*%
D12*
X93500Y46500D02*
X99000Y52000D01*
X112500D01*
D18*
X16500Y19000D02*
X25000Y27500D01*
X150123Y95480D02*
X156000Y89602D01*
X150123Y99080D02*
X156000Y104957D01*
X151482Y97880D02*
X156000Y102398D01*
X148764Y94280D02*
X156000Y87043D01*
X148764Y100280D02*
X156000Y107516D01*
X151482Y96680D02*
X156000Y92161D01*
X85914Y79300D02*
Y87389D01*
X74712Y98591D02*
X85914Y87389D01*
X19500Y47000D02*
X23000Y50500D01*
X27000D01*
X-1000Y23000D02*
X5500D01*
X8500Y26000D01*
X18000Y64500D02*
X20500Y67000D01*
X18000Y36910D02*
Y64500D01*
X17590Y36500D02*
X18000Y36910D01*
X19500Y35268D02*
Y47000D01*
X19090Y34858D02*
X19500Y35268D01*
X14858Y34858D02*
X19090D01*
X14803Y36500D02*
X17590D01*
X5000Y52000D02*
X10344D01*
X15000Y47000D02*
Y47243D01*
X14564Y47679D02*
Y47780D01*
X10344Y52000D02*
X14564Y47780D01*
Y47679D02*
X15000Y47243D01*
X-11000Y30410D02*
Y102091D01*
X8303Y30000D02*
X14803Y36500D01*
X-10590Y30000D02*
X8303D01*
X-11000Y30410D02*
X-10590Y30000D01*
X-11000Y102091D02*
X-7591Y105500D01*
X8500Y28500D02*
X14858Y34858D01*
X8500Y26000D02*
Y28500D01*
X-7195Y64195D02*
X5000Y52000D01*
X4500Y94591D02*
X12000D01*
X-7195Y82896D02*
X4500Y94591D01*
X-7195Y64195D02*
Y82896D01*
X20450Y94591D02*
X29475Y103615D01*
X12000Y94591D02*
X20450D01*
X-7591Y105500D02*
X12090D01*
X13350Y106760D01*
Y116500D01*
X23520Y101691D02*
X33900Y112071D01*
X36651Y103939D02*
Y126939D01*
X23023Y102891D02*
X32700Y112568D01*
X31090Y117091D02*
X31500Y116680D01*
X22526Y104091D02*
X31500Y113065D01*
X32030Y124091D02*
X33900Y122221D01*
X37851Y103442D02*
Y128739D01*
X35100Y111574D02*
Y122718D01*
X32528Y125291D02*
X35100Y122718D01*
X24017Y100491D02*
X35100Y111574D01*
X33500Y133091D02*
X37851Y128739D01*
X32700Y112568D02*
Y121724D01*
X31533Y122891D02*
X32700Y121724D01*
X34203Y101491D02*
X36651Y103939D01*
X33900Y112071D02*
Y122221D01*
X27000Y117091D02*
X31090D01*
X30000Y133591D02*
X36651Y126939D01*
X31500Y113065D02*
Y116680D01*
X19109Y122891D02*
X31533D01*
X34000Y99591D02*
X37851Y103442D01*
X-2588Y100491D02*
X24017D01*
X-3900Y101691D02*
X23520D01*
X-6256Y104091D02*
X22526D01*
X-4700Y102891D02*
X23023D01*
X166375Y103982D02*
X166427Y103930D01*
X-7688Y36667D02*
Y36911D01*
X-9595Y36240D02*
X-7922Y34567D01*
X-7700D01*
X-8395Y37617D02*
X-7688Y36911D01*
X-8395Y37617D02*
Y97196D01*
X-9595Y36240D02*
Y97996D01*
X40500Y98591D02*
X74712D01*
X104960Y120591D02*
X108826D01*
X103500Y128059D02*
X109559Y122000D01*
X112500D01*
X108826Y120591D02*
X108951Y120466D01*
X101500Y124051D02*
X104960Y120591D01*
X103500Y128059D02*
Y141591D01*
X87091Y142000D02*
X89025D01*
X92196Y138829D01*
X83804Y145287D02*
X87091Y142000D01*
X93396Y141694D02*
X101500Y133591D01*
X93396Y134855D02*
Y141694D01*
X88000Y147091D02*
X93396Y141694D01*
X113000Y147091D02*
X120500Y139591D01*
Y124999D02*
Y139591D01*
X122000Y138091D01*
X112156Y142000D02*
X114025D01*
X108804Y145352D02*
X112156Y142000D01*
X114025D02*
X119000Y137025D01*
X113592Y101481D02*
X116087D01*
X112072Y103000D02*
X113592Y101481D01*
X112000Y103000D02*
X112072D01*
X114672Y103303D02*
X116212D01*
X114500Y103131D02*
X114672Y103303D01*
X116212D02*
X122000Y109091D01*
X30000Y165000D02*
X31500Y166500D01*
Y171394D01*
X36500Y176394D01*
X24327Y176000D02*
X31000D01*
X24083Y176244D02*
X24327Y176000D01*
X17654Y176244D02*
X24083D01*
X14300Y172891D02*
X17654Y176244D01*
X40415Y177792D02*
X48965D01*
X40162Y178044D02*
X40415Y177792D01*
X35817Y178044D02*
X40162D01*
X35667Y177894D02*
X35817Y178044D01*
X6000Y176091D02*
X7804Y177894D01*
X35667D01*
X48965Y177792D02*
X54650Y172107D01*
X10850Y163500D02*
Y166541D01*
X4497Y174591D02*
X12328Y166760D01*
X4000Y173391D02*
X10850Y166541D01*
X12328Y165672D02*
Y166760D01*
Y165672D02*
X12500Y165500D01*
X14300Y168467D02*
Y172891D01*
Y168467D02*
X14745Y168022D01*
Y163356D02*
Y168022D01*
X58485Y116741D02*
X93853Y81372D01*
X160373D01*
X53755Y119446D02*
X56500Y122191D01*
X49478Y119446D02*
X53755D01*
X48925Y121696D02*
X53246D01*
X54548Y122997D01*
X54561D01*
X71500Y173697D02*
Y176500D01*
X69500Y150273D02*
X70300Y151073D01*
X71500Y172000D02*
X74000Y174500D01*
X71500Y145000D02*
Y172000D01*
X70300Y151073D02*
Y172497D01*
X71500Y173697D01*
X68600Y151950D02*
Y172300D01*
X67894Y151244D02*
X68600Y151950D01*
X69500Y147000D02*
Y150273D01*
X67894Y151000D02*
Y151244D01*
X67328Y176328D02*
X67500Y176500D01*
X66950Y165838D02*
X67200Y166088D01*
X68600Y172300D02*
X68850Y172550D01*
X67200Y166088D02*
Y175183D01*
X67328Y175311D02*
Y176328D01*
X67200Y175183D02*
X67328Y175311D01*
X68850Y172550D02*
Y174500D01*
X66950Y153000D02*
Y165838D01*
X63092Y180641D02*
X77859D01*
X78000Y180500D01*
X59145Y176694D02*
X63092Y180641D01*
X62995Y182241D02*
X73450D01*
X73500Y182291D01*
X62409Y174500D02*
X65500D01*
X61405Y173495D02*
X62409Y174500D01*
X33083Y135841D02*
X49478Y119446D01*
X33580Y137041D02*
X48925Y121696D01*
X56310Y159900D02*
X61405Y164995D01*
Y173495D01*
X16650Y110591D02*
Y117606D01*
Y110591D02*
X21500Y105741D01*
X19499Y117091D02*
X27000D01*
X7000Y135000D02*
X19109Y122891D01*
X-2409Y130000D02*
X10303D01*
X7000Y135000D02*
Y146591D01*
X19212Y121091D02*
X31000D01*
X10303Y130000D02*
X19212Y121091D01*
X13350Y135807D02*
Y154271D01*
X20472Y125291D02*
X32528D01*
X12150Y135310D02*
Y153774D01*
X19975Y124091D02*
X32030D01*
X13350Y135807D02*
X21067Y128091D01*
X12150Y135310D02*
X20970Y126491D01*
X10500Y135263D02*
Y153091D01*
X8650Y135416D02*
X19975Y124091D01*
X8650Y135416D02*
Y149441D01*
X10500Y135263D02*
X20472Y125291D01*
X20400Y131091D02*
Y144460D01*
X21067Y128091D02*
X23000D01*
X20970Y126491D02*
X24476D01*
X22500Y131091D02*
Y143591D01*
X30000Y151091D01*
X-1897Y126094D02*
X10496D01*
X19499Y117091D01*
X-8500Y136091D02*
X-2409Y130000D01*
X19173Y119113D02*
X28978D01*
X10933Y127353D02*
X19173Y119113D01*
X-10900Y135096D02*
X-1897Y126094D01*
X-9700Y135594D02*
X-1460Y127353D01*
X10933D01*
X15000Y109541D02*
Y118941D01*
X15150Y119091D01*
X-7000Y103591D02*
X-6756D01*
X-8395Y97196D02*
X-3900Y101691D01*
X-6500Y96579D02*
X-2588Y100491D01*
X-6756Y103591D02*
X-6256Y104091D01*
X-9595Y97996D02*
X-4700Y102891D01*
X-9700Y135594D02*
Y187088D01*
X-8500Y136091D02*
Y186591D01*
X-10900Y135096D02*
Y187585D01*
X-6500Y86091D02*
Y96579D01*
X34000Y85091D02*
Y99591D01*
X32023Y97592D02*
Y99384D01*
X32000Y97569D02*
X32023Y97592D01*
Y99384D02*
X33500Y100861D01*
X34129Y101491D01*
X32000Y83591D02*
Y97569D01*
Y83591D02*
X34000Y81591D01*
X34129Y101491D02*
X34203D01*
X37000Y96591D02*
X56500D01*
X58000Y95091D01*
X26253Y137041D02*
X33580D01*
X26750Y135841D02*
X33083D01*
X25500Y127514D02*
Y134591D01*
X26750Y135841D01*
X24300Y135088D02*
X26253Y137041D01*
X24300Y129391D02*
Y135088D01*
X28978Y119113D02*
X29000Y119091D01*
X24476Y126491D02*
X25500Y127514D01*
X23000Y128091D02*
X24300Y129391D01*
X35796Y140295D02*
Y158736D01*
Y140295D02*
X45331Y130760D01*
X44337Y128360D02*
X52731D01*
X32850Y139846D02*
Y143091D01*
X34500Y139894D02*
X44834Y129560D01*
X53228D01*
X32850Y139846D02*
X44337Y128360D01*
X45331Y130760D02*
X53725D01*
X34500Y139894D02*
Y144591D01*
X15000Y109541D02*
X18800Y105741D01*
X20400Y144460D02*
X28515Y152575D01*
X47191Y147891D02*
Y150899D01*
X47000Y151091D02*
X47191Y150899D01*
X55500Y154591D02*
X66611Y143480D01*
X56183Y156241D02*
X58284Y154140D01*
X54794Y156241D02*
X56183D01*
X55700Y157891D02*
Y158134D01*
X52000Y155091D02*
X52172Y155263D01*
X54650Y159184D02*
X55700Y158134D01*
X52172Y155263D02*
X53816D01*
X54794Y156241D01*
X58284Y153691D02*
Y154140D01*
X49321Y155411D02*
X53000Y159091D01*
X51000Y161091D02*
Y162591D01*
X43350Y153441D02*
X51000Y161091D01*
X48833Y161424D02*
Y164257D01*
X42150Y154741D02*
X48833Y161424D01*
X45644Y147741D02*
X51825Y141560D01*
X45644Y147741D02*
Y149446D01*
X45500Y149591D02*
X45644Y149446D01*
X49321Y147458D02*
X52820Y143960D01*
X49321Y147458D02*
Y155411D01*
X52350Y146126D02*
Y146519D01*
X51686Y147183D02*
Y147427D01*
Y147183D02*
X52350Y146519D01*
Y146126D02*
X53317Y145160D01*
X47191Y147891D02*
X52322Y142760D01*
X43350Y148338D02*
X51328Y140360D01*
X42150Y147841D02*
X50831Y139160D01*
X42150Y147841D02*
Y154741D01*
X43350Y148338D02*
Y153441D01*
X66611Y142633D02*
X77549Y131694D01*
X66611Y142633D02*
Y143480D01*
X54650Y159184D02*
Y172107D01*
X58284Y153691D02*
X79081Y132894D01*
X77549Y131694D02*
X90235D01*
X160373Y81372D02*
X164783Y85782D01*
X95865Y82572D02*
X159876D01*
X163000Y85696D01*
X97697Y85091D02*
X159000D01*
X53228Y129560D02*
X97697Y85091D01*
X97318Y83772D02*
X159379D01*
X161200Y85594D01*
X95764Y92115D02*
X100976D01*
X54719Y133160D02*
X95764Y92115D01*
X-3238Y163287D02*
X2304D01*
X-5696Y160829D02*
X-3238Y163287D01*
X-5696Y154987D02*
Y160829D01*
Y154987D02*
X-2647Y151937D01*
Y150237D02*
Y151937D01*
Y150237D02*
X-1500Y149091D01*
Y159091D02*
X4803D01*
X9153Y154741D02*
X11183D01*
X4803Y159091D02*
X9153Y154741D01*
X2304Y163287D02*
X9650Y155941D01*
X11681D01*
X13350Y154271D01*
X11183Y154741D02*
X12150Y153774D01*
X61430Y117007D02*
X95865Y82572D01*
X61417Y117007D02*
X61430D01*
X57204Y139160D02*
X85773Y110591D01*
X55713Y135560D02*
X86387Y104886D01*
X59737Y146810D02*
X88456Y118091D01*
X58199Y141560D02*
X86768Y112991D01*
X101215Y109391D02*
X104000Y106605D01*
X87265Y114191D02*
X103203D01*
X55216Y134360D02*
X87249Y102327D01*
X59690Y145160D02*
X88259Y116591D01*
X53317Y145160D02*
X59690D01*
X85276Y109391D02*
X101215D01*
X51825Y141560D02*
X58199D01*
X58696Y142760D02*
X87265Y114191D01*
X88259Y116591D02*
X112092D01*
X87762Y115391D02*
X103700D01*
X53725Y130760D02*
X97512Y86972D01*
X59193Y143960D02*
X87762Y115391D01*
X49837Y136760D02*
X56210D01*
X85773Y110591D02*
X101712D01*
X97512Y86972D02*
X101000D01*
X87249Y102327D02*
X101000D01*
X52731Y128360D02*
X97318Y83772D01*
X50831Y139160D02*
X57204D01*
X47630Y131960D02*
X54222D01*
X56210Y136760D02*
X85611Y107358D01*
X54222Y131960D02*
X96650Y89531D01*
X101000D01*
X86387Y104886D02*
X101000D01*
X88456Y118091D02*
X111895D01*
X102209Y111791D02*
X106400Y107599D01*
X85611Y107358D02*
X100913D01*
X86270Y111791D02*
X102209D01*
X52322Y142760D02*
X58696D01*
X86768Y112991D02*
X102706D01*
X52820Y143960D02*
X59193D01*
X101712Y110591D02*
X105200Y107102D01*
X49121Y135560D02*
X55713D01*
X102706Y112991D02*
X107600Y108096D01*
X51328Y140360D02*
X57702D01*
X103700Y115391D02*
X110000Y109091D01*
X56707Y137960D02*
X85276Y109391D01*
X57702Y140360D02*
X86270Y111791D01*
X54000Y146810D02*
X59737D01*
X48127Y133160D02*
X54719D01*
X48624Y134360D02*
X55216D01*
X103203Y114191D02*
X108800Y108594D01*
X50334Y137960D02*
X56707D01*
X172500Y104591D02*
Y137591D01*
X163000Y147091D02*
X172500Y137591D01*
X164500Y106091D02*
X167000D01*
X163000Y104591D02*
X164500Y106091D01*
X167000D02*
X168500Y104591D01*
X171000Y103091D02*
X172500Y104591D01*
X168500Y103091D02*
X171000D01*
X168500D02*
Y104591D01*
X163000Y85696D02*
Y104591D01*
X173700Y104094D02*
Y146391D01*
X166329Y103935D02*
X166369Y103975D01*
X165193Y103935D02*
X166329D01*
X171047Y101441D02*
X173700Y104094D01*
X167817Y101441D02*
X171047D01*
X166427Y102830D02*
X167817Y101441D01*
X164783Y103525D02*
X165193Y103935D01*
X166427Y102830D02*
Y103930D01*
X163000Y157091D02*
X173700Y146391D01*
X164783Y85782D02*
Y103525D01*
X36996Y149601D02*
Y158239D01*
Y149601D02*
X49837Y136760D01*
X38828Y149466D02*
X50334Y137960D01*
X38828Y157419D02*
X41000Y159591D01*
X38828Y149466D02*
Y157419D01*
X45696Y135591D02*
X48127Y133160D01*
X46240Y138441D02*
X49121Y135560D01*
X45743Y137241D02*
X48624Y134360D01*
X47352Y132237D02*
X47630Y131960D01*
X39172Y140585D02*
Y142918D01*
Y140585D02*
X42517Y137241D01*
X45743D01*
X41000Y142091D02*
X44650Y138441D01*
X46240D01*
X43000Y135591D02*
X45696D01*
X39000Y143091D02*
X39172Y142918D01*
X33500Y145591D02*
X34500Y144591D01*
X30500Y145591D02*
X33500D01*
X157003Y114591D02*
X163000D01*
X160000Y111591D02*
X163000Y114591D01*
X160000Y86091D02*
Y111591D01*
X159000Y85091D02*
X160000Y86091D01*
X138000Y147091D02*
X148500Y136591D01*
Y123094D02*
X157003Y114591D01*
X148500Y123094D02*
Y136591D01*
X164650Y113241D02*
Y115941D01*
X164000Y116591D02*
X164650Y115941D01*
X162375Y116763D02*
X163828D01*
X162347Y116791D02*
X162375Y116763D01*
X163828D02*
X164000Y116591D01*
X161200Y109791D02*
X164650Y113241D01*
X161200Y85594D02*
Y109791D01*
X149700Y123591D02*
Y145391D01*
X138000Y157091D02*
X149700Y145391D01*
X156500Y116791D02*
X162347D01*
X149700Y123591D02*
X156500Y116791D01*
X46125Y132410D02*
X46298Y132237D01*
X109512Y95480D02*
X150123D01*
X105200Y99791D02*
X109512Y95480D01*
X105200Y99791D02*
Y107102D01*
X110009Y96680D02*
X151482D01*
X106400Y100288D02*
X110009Y96680D01*
X106400Y100288D02*
Y107599D01*
X110506Y97880D02*
X151482D01*
X107600Y100785D02*
X110506Y97880D01*
X107600Y100785D02*
Y108096D01*
X111003Y99080D02*
X150123D01*
X108800Y101282D02*
X111003Y99080D01*
X108800Y101282D02*
Y108594D01*
X111500Y100280D02*
X148764D01*
X110000Y101780D02*
X111500Y100280D01*
X110000Y101780D02*
Y109091D01*
X111895Y118091D02*
X117196Y123392D01*
Y129287D02*
X119000Y131091D01*
X117196Y123392D02*
Y129287D01*
X119000Y131091D02*
Y137025D01*
X108804Y145352D02*
Y152894D01*
X46298Y132237D02*
X47352D01*
X123200Y108594D02*
Y146891D01*
X113000Y157091D02*
X123200Y146891D01*
X116087Y101481D02*
X123200Y108594D01*
X108804Y152894D02*
X113000Y157091D01*
X122000Y109091D02*
Y138091D01*
X112092Y116591D02*
X120500Y124999D01*
X46850Y162441D02*
X47000Y162591D01*
X41197Y162441D02*
X46850D01*
X41150Y164091D02*
X45000D01*
X35796Y158736D02*
X41150Y164091D01*
X36996Y158239D02*
X41197Y162441D01*
X104000Y99294D02*
Y106605D01*
X88000Y157091D02*
X103500Y141591D01*
X101500Y124051D02*
Y133591D01*
X83804Y145287D02*
Y152894D01*
X92196Y135352D02*
Y138829D01*
X79081Y132894D02*
X89738D01*
X92196Y135352D01*
X90235Y131694D02*
X93396Y134855D01*
X83804Y152894D02*
X88000Y157091D01*
X100976Y92115D02*
X101000Y92091D01*
X109015Y94280D02*
X148764D01*
X104000Y99294D02*
X109015Y94280D01*
X8500Y149591D02*
X8650Y149441D01*
X-4895Y174591D02*
X4497D01*
X72100Y195691D02*
X80161D01*
X82761Y193091D01*
X69500D02*
X72100Y195691D01*
X82761Y193091D02*
X83500D01*
X8505D02*
X69500D01*
X71306Y198290D02*
X98300D01*
X7510Y195491D02*
X68506D01*
X98300Y198290D02*
X103500Y193091D01*
X68506Y195491D02*
X71306Y198290D01*
X81644Y196891D02*
X81843Y197090D01*
X89500D01*
X71603Y196891D02*
X81644D01*
X89500Y197090D02*
X93500Y193091D01*
X69003Y194291D02*
X71603Y196891D01*
X8008Y194291D02*
X69003D01*
X-10900Y187585D02*
X-9494Y188991D01*
X-9700Y187088D02*
X-8997Y187791D01*
X-5786D01*
X-9494Y188991D02*
X-6283D01*
X-4332Y190941D01*
X-5786Y187791D02*
X-3835Y189741D01*
X-8500Y186591D02*
X-5289D01*
X-3338Y188541D01*
X17619Y187341D02*
X21265Y190987D01*
X-2841Y187341D02*
X17619D01*
X-6896Y183286D02*
X-2841Y187341D01*
X-2344Y186141D02*
X18116D01*
X-5696Y182789D02*
X-2344Y186141D01*
X18116D02*
X21762Y189787D01*
X2961Y190941D02*
X7510Y195491D01*
X-3338Y188541D02*
X3955D01*
X8505Y193091D01*
X-3835Y189741D02*
X3458D01*
X8008Y194291D01*
X-4332Y190941D02*
X2961D01*
X-6896Y174895D02*
Y183286D01*
Y174895D02*
X-5392Y173391D01*
X4000D01*
X-5696Y175392D02*
Y182789D01*
Y175392D02*
X-4895Y174591D01*
X9244Y202091D02*
X10244Y203091D01*
X9000Y202091D02*
X9244D01*
X10244Y203091D02*
X83500D01*
X21265Y190987D02*
X57696D01*
X21762Y189787D02*
X57199D01*
X57696Y190987D02*
X59592Y189091D01*
X57199Y189787D02*
X59095Y187891D01*
X59592Y189091D02*
X105157D01*
X113957Y187891D02*
X119156Y193091D01*
X123500D01*
X59095Y187891D02*
X113957D01*
X105157Y189091D02*
X109156Y193091D01*
X113500D01*
X58648Y177894D02*
X62995Y182241D01*
X55047Y177894D02*
X58648D01*
X53244Y176091D02*
X55047Y177894D01*
X55000Y175091D02*
X56604Y176694D01*
X59145D01*
X53000Y176091D02*
X53244D01*
D90*
X30010Y20224D02*
X30200D01*
X30476Y20500D01*
X34000D01*
D93*
X15500Y28500D02*
X18000D01*
X115500Y64498D02*
X138001D01*
X111000Y64500D02*
X115498D01*
X115500Y64498D01*
X138001D02*
X143501Y58998D01*
X141743Y26500D02*
X143501Y28257D01*
X129500Y26500D02*
X141743D01*
X143501Y28257D02*
Y58998D01*
X18000Y28500D02*
X20500D01*
X163500Y74743D02*
X165257Y76500D01*
X163500Y59591D02*
Y74743D01*
X165257Y76500D02*
X175630D01*
X177720Y78591D01*
X12000Y25000D02*
X15500Y28500D01*
X12000Y6500D02*
Y25000D01*
Y6500D02*
X14909Y3591D01*
X27000D01*
X29500Y3500D02*
X32000D01*
X27091D02*
X29500D01*
X57675Y180244D02*
X62521Y185091D01*
X6830Y180244D02*
X34694D01*
X41136Y180394D02*
X41285Y180244D01*
X34694D02*
X34843Y180394D01*
X41285Y180244D02*
X57675D01*
X34843Y180394D02*
X41136D01*
X62521Y185091D02*
X81454D01*
X106454Y143314D02*
Y185091D01*
Y143314D02*
X112677Y137091D01*
X81454Y143762D02*
Y185091D01*
X106454D01*
X132500D01*
X112677Y137091D02*
X113000D01*
X81454Y143762D02*
X88000Y137216D01*
Y137091D02*
Y137216D01*
X-1150Y179441D02*
X6027D01*
X6830Y180244D01*
X-1500Y179091D02*
X-1150Y179441D01*
X132500Y142687D02*
Y185091D01*
Y142687D02*
X138000Y137187D01*
Y137091D02*
Y137187D01*
X157500Y185091D02*
X175963D01*
X132500D02*
X157500D01*
Y142687D02*
Y185091D01*
X163000Y137091D02*
Y137187D01*
X157500Y142687D02*
X163000Y137187D01*
X177720Y78591D02*
Y183333D01*
X175963Y185091D02*
X177720Y183333D01*
X153500Y59591D02*
Y69591D01*
Y49591D02*
Y59591D01*
Y39591D02*
Y49591D01*
Y29591D02*
Y39591D01*
X163500Y49591D02*
Y59591D01*
Y39591D02*
Y49591D01*
Y29591D02*
Y39591D01*
D94*
Y29591D02*
D03*
X153500D02*
D03*
X173500D02*
D03*
X-1500Y179091D02*
D03*
D95*
X163500Y39591D02*
D03*
Y49591D02*
D03*
Y59591D02*
D03*
Y69591D02*
D03*
X153500Y39591D02*
D03*
Y49591D02*
D03*
Y59591D02*
D03*
Y69591D02*
D03*
X173500D02*
D03*
Y59591D02*
D03*
Y49591D02*
D03*
Y39591D02*
D03*
X-1500Y169091D02*
D03*
Y159091D02*
D03*
Y149091D02*
D03*
X23500Y185591D02*
D03*
X33500D02*
D03*
X43500D02*
D03*
X163000Y177091D02*
D03*
Y137091D02*
D03*
Y147091D02*
D03*
Y157091D02*
D03*
Y167091D02*
D03*
X138000Y177091D02*
D03*
Y137091D02*
D03*
Y147091D02*
D03*
Y157091D02*
D03*
Y167091D02*
D03*
X113000Y177091D02*
D03*
Y137091D02*
D03*
Y147091D02*
D03*
Y157091D02*
D03*
Y167091D02*
D03*
X88000Y177091D02*
D03*
Y137091D02*
D03*
Y147091D02*
D03*
Y157091D02*
D03*
Y167091D02*
D03*
D96*
X15972Y12417D02*
D03*
X50027D02*
D03*
D97*
X15972Y-3331D02*
D03*
X50027D02*
D03*
D98*
X44378Y10449D02*
D03*
X21622D02*
D03*
D99*
X66492Y-410D02*
D03*
X103500D02*
D03*
X84996D02*
D03*
D100*
X148000Y-909D02*
D03*
D101*
X128000D02*
D03*
D102*
X53500Y185591D02*
D03*
X163000Y127091D02*
D03*
X138000D02*
D03*
X113000D02*
D03*
X88000D02*
D03*
D103*
X153500Y193091D02*
D03*
X113500D02*
D03*
Y203091D02*
D03*
X103500D02*
D03*
X93500D02*
D03*
X83500D02*
D03*
X123500Y193091D02*
D03*
Y203091D02*
D03*
X133500D02*
D03*
Y193091D02*
D03*
X143500D02*
D03*
Y203091D02*
D03*
X103500Y193091D02*
D03*
X93500D02*
D03*
X83500D02*
D03*
D104*
X153500Y203091D02*
D03*
D105*
X74500Y11500D02*
D03*
X77500D02*
D03*
X80500D02*
D03*
X84000D02*
D03*
X88121Y12379D02*
D03*
X89000Y15000D02*
D03*
Y18000D02*
D03*
Y21500D02*
D03*
Y24500D02*
D03*
X80000Y31000D02*
D03*
X77000D02*
D03*
X73500D02*
D03*
Y35500D02*
D03*
Y40000D02*
D03*
X137500Y16000D02*
D03*
X134500D02*
D03*
X131000D02*
D03*
X127500D02*
D03*
X137500Y19500D02*
D03*
X134500D02*
D03*
X131000D02*
D03*
X127500D02*
D03*
X6000Y69500D02*
D03*
X0D02*
D03*
X8500Y76500D02*
D03*
X-1500D02*
D03*
X79500Y47500D02*
D03*
Y52500D02*
D03*
Y57500D02*
D03*
X84000Y62500D02*
D03*
X78500D02*
D03*
X160000Y13500D02*
D03*
X158500Y4500D02*
D03*
X170500Y19000D02*
D03*
X174500Y19500D02*
D03*
X156000Y10000D02*
D03*
X137500Y2500D02*
D03*
Y11000D02*
D03*
X149500Y12500D02*
D03*
X128000Y11000D02*
D03*
X118000Y10000D02*
D03*
X51500Y27500D02*
D03*
Y30500D02*
D03*
Y33500D02*
D03*
Y36500D02*
D03*
Y39500D02*
D03*
Y42500D02*
D03*
X48000Y27500D02*
D03*
Y30500D02*
D03*
Y33500D02*
D03*
Y36500D02*
D03*
Y39500D02*
D03*
Y42500D02*
D03*
X44500D02*
D03*
Y39500D02*
D03*
Y36500D02*
D03*
Y33500D02*
D03*
Y30500D02*
D03*
X71500Y65500D02*
D03*
X68000D02*
D03*
X71500Y73500D02*
D03*
Y69500D02*
D03*
X57500Y60000D02*
D03*
X64500Y51000D02*
D03*
Y54500D02*
D03*
X57500Y72500D02*
D03*
X61000D02*
D03*
X68000Y73500D02*
D03*
Y69500D02*
D03*
X61000Y51000D02*
D03*
X57500D02*
D03*
X61000Y54500D02*
D03*
X57500D02*
D03*
X61000Y65500D02*
D03*
X57500D02*
D03*
X61000Y69000D02*
D03*
X57500D02*
D03*
X111000Y64500D02*
D03*
X62587Y6887D02*
D03*
X98500Y37500D02*
D03*
X129500Y26500D02*
D03*
X98500Y54500D02*
D03*
Y40500D02*
D03*
Y43500D02*
D03*
Y46500D02*
D03*
X121500Y26500D02*
D03*
X118500D02*
D03*
X121500Y34500D02*
D03*
X118500D02*
D03*
X121500Y37500D02*
D03*
X118500D02*
D03*
X44500Y27500D02*
D03*
X5500Y-8500D02*
D03*
X26000Y-3500D02*
D03*
X37500D02*
D03*
X44500Y2500D02*
D03*
X79500Y-8500D02*
D03*
X93500Y500D02*
D03*
X114500Y-1000D02*
D03*
X124500Y7000D02*
D03*
X144000D02*
D03*
X175000Y10500D02*
D03*
X166000Y13500D02*
D03*
X121500Y90000D02*
D03*
X43500Y121000D02*
D03*
X95000Y156500D02*
D03*
X122000Y156000D02*
D03*
X171500D02*
D03*
X146500D02*
D03*
X172500Y179500D02*
D03*
X95500Y177500D02*
D03*
X122500D02*
D03*
X147000Y178500D02*
D03*
X163649Y206709D02*
D03*
X175500Y191500D02*
D03*
X42000Y199000D02*
D03*
X26500D02*
D03*
X18000D02*
D03*
X60000Y207500D02*
D03*
X49500Y207000D02*
D03*
X38500D02*
D03*
X28500D02*
D03*
X9500Y207500D02*
D03*
X-7000Y204500D02*
D03*
X1500Y208500D02*
D03*
X-8186Y193803D02*
D03*
X-6000Y166000D02*
D03*
X-5000Y144000D02*
D03*
X-6500Y122500D02*
D03*
X-7000Y116500D02*
D03*
X500Y96000D02*
D03*
X3500Y76500D02*
D03*
Y60000D02*
D03*
D106*
X3181Y33862D02*
D03*
Y39500D02*
D03*
Y36681D02*
D03*
X6000Y39500D02*
D03*
X8819D02*
D03*
Y36681D02*
D03*
Y33862D02*
D03*
X6000Y36681D02*
D03*
Y33862D02*
D03*
X34000Y20500D02*
D03*
X30010Y20224D02*
D03*
X25000Y27500D02*
D03*
X16500Y19000D02*
D03*
X93500Y46500D02*
D03*
X155500Y99000D02*
D03*
Y95500D02*
D03*
X156000Y107516D02*
D03*
Y87043D02*
D03*
Y92161D02*
D03*
Y102398D02*
D03*
Y104957D02*
D03*
Y89602D02*
D03*
X85914Y79300D02*
D03*
X139500Y90291D02*
D03*
X137500Y89000D02*
D03*
X49500Y107500D02*
D03*
X112500Y52000D02*
D03*
X49500Y19500D02*
D03*
X27000Y50500D02*
D03*
X-1000Y23000D02*
D03*
X20500Y67000D02*
D03*
X15000Y47000D02*
D03*
X29475Y103615D02*
D03*
X12000Y94591D02*
D03*
X13350Y116500D02*
D03*
X27000Y117091D02*
D03*
X29538Y114962D02*
D03*
X-7700Y34567D02*
D03*
X-7688Y36667D02*
D03*
X112500Y122000D02*
D03*
X108951Y120466D02*
D03*
X112000Y103000D02*
D03*
X114500Y103131D02*
D03*
X31000Y176000D02*
D03*
X30000Y165000D02*
D03*
X17500Y184000D02*
D03*
X28500Y188000D02*
D03*
X11500Y184000D02*
D03*
X4000Y183500D02*
D03*
X28000D02*
D03*
X27500Y166500D02*
D03*
X36500Y176394D02*
D03*
X19500Y171500D02*
D03*
X24500Y155500D02*
D03*
X10850Y163500D02*
D03*
X12500Y165500D02*
D03*
X14745Y163356D02*
D03*
X58485Y116741D02*
D03*
X173500Y88500D02*
D03*
X121500Y171500D02*
D03*
X95500Y132500D02*
D03*
X11500Y108500D02*
D03*
X171000Y167000D02*
D03*
X145500Y162500D02*
D03*
Y167000D02*
D03*
X33500Y199000D02*
D03*
X59500Y168000D02*
D03*
X171000Y171500D02*
D03*
X145500D02*
D03*
X68000Y206000D02*
D03*
X-6000Y110000D02*
D03*
X-3000Y94500D02*
D03*
X3000Y86000D02*
D03*
X23500Y94000D02*
D03*
X29500Y100500D02*
D03*
X63500Y106000D02*
D03*
X94500Y171500D02*
D03*
X10000Y86000D02*
D03*
X54500Y105500D02*
D03*
X95000Y145000D02*
D03*
X43768Y107500D02*
D03*
X57500Y120000D02*
D03*
X7000Y132500D02*
D03*
X121500Y167000D02*
D03*
X73500Y160000D02*
D03*
Y151000D02*
D03*
X22000Y108000D02*
D03*
X2874Y136000D02*
D03*
X76500Y139500D02*
D03*
X107000Y134000D02*
D03*
X83000Y135000D02*
D03*
X121500Y162500D02*
D03*
X8500Y123500D02*
D03*
X14000Y190000D02*
D03*
X18000Y207000D02*
D03*
X114000Y90000D02*
D03*
X127000Y87000D02*
D03*
X91500Y80500D02*
D03*
X72000Y89500D02*
D03*
X171000Y162500D02*
D03*
X72000Y86500D02*
D03*
X94500Y167000D02*
D03*
X83000Y87500D02*
D03*
X94500Y162500D02*
D03*
X59500Y119000D02*
D03*
X100300Y95500D02*
D03*
Y99500D02*
D03*
X41000Y159591D02*
D03*
X164000Y116591D02*
D03*
X163000Y114591D02*
D03*
X168500Y103091D02*
D03*
X51686Y147427D02*
D03*
X48833Y164257D02*
D03*
X61417Y117007D02*
D03*
X101000Y92091D02*
D03*
X51000Y162591D02*
D03*
X6000Y176091D02*
D03*
X33500Y133091D02*
D03*
X10500Y153091D02*
D03*
X166369Y103975D02*
D03*
X-7000Y103591D02*
D03*
X45000Y164091D02*
D03*
X30000Y133591D02*
D03*
X53000Y176091D02*
D03*
X8500Y149591D02*
D03*
X67500Y176500D02*
D03*
X-6500Y86091D02*
D03*
X78000Y180500D02*
D03*
X37000Y96591D02*
D03*
X101000Y102327D02*
D03*
Y104886D02*
D03*
X68850Y174500D02*
D03*
X101000Y89531D02*
D03*
Y86972D02*
D03*
X53000Y159091D02*
D03*
X7000Y146591D02*
D03*
X31000Y121091D02*
D03*
X29000Y119091D02*
D03*
X43000Y135591D02*
D03*
X47000Y151091D02*
D03*
X9000Y202091D02*
D03*
X45500Y149591D02*
D03*
X55000Y175091D02*
D03*
X52000Y155091D02*
D03*
X100913Y107358D02*
D03*
X54000Y146810D02*
D03*
X30000Y151091D02*
D03*
X28515Y152575D02*
D03*
X32500Y159000D02*
D03*
X15150Y119091D02*
D03*
X69500Y147000D02*
D03*
X71500Y145000D02*
D03*
X21500Y105741D02*
D03*
X74000Y174500D02*
D03*
X65500D02*
D03*
X55700Y157891D02*
D03*
X40500Y98591D02*
D03*
X46125Y132410D02*
D03*
X34000Y81591D02*
D03*
X56310Y159900D02*
D03*
X71500Y176500D02*
D03*
X54561Y122997D02*
D03*
X56500Y122191D02*
D03*
X66950Y153000D02*
D03*
X73500Y182291D02*
D03*
X67894Y151000D02*
D03*
X18800Y105741D02*
D03*
X39000Y143091D02*
D03*
X30500Y145591D02*
D03*
X41000Y142091D02*
D03*
X16650Y117606D02*
D03*
X55500Y154591D02*
D03*
X22500Y131091D02*
D03*
X32850Y143091D02*
D03*
X58000Y95091D02*
D03*
X47000Y162591D02*
D03*
X20400Y131091D02*
D03*
X34000Y85091D02*
D03*
D107*
X15500Y28500D02*
D03*
X18000D02*
D03*
X20500D02*
D03*
X27000Y3591D02*
D03*
X29500Y3500D02*
D03*
X32000D02*
D03*
D108*
X148091Y75000D02*
X153500Y69591D01*
X63500Y75000D02*
X148091D01*
M02*
