G04*
G04 #@! TF.GenerationSoftware,Altium Limited,Altium Designer,21.5.1 (32)*
G04*
G04 Layer_Color=8421504*
%FSLAX25Y25*%
%MOIN*%
G70*
G04*
G04 #@! TF.SameCoordinates,F71DC00D-139D-4494-AD50-9C341566DFA8*
G04*
G04*
G04 #@! TF.FilePolarity,Positive*
G04*
G01*
G75*
G04:AMPARAMS|DCode=20|XSize=12mil|YSize=38mil|CornerRadius=3mil|HoleSize=0mil|Usage=FLASHONLY|Rotation=0.000|XOffset=0mil|YOffset=0mil|HoleType=Round|Shape=RoundedRectangle|*
%AMROUNDEDRECTD20*
21,1,0.01200,0.03200,0,0,0.0*
21,1,0.00600,0.03800,0,0,0.0*
1,1,0.00600,0.00300,-0.01600*
1,1,0.00600,-0.00300,-0.01600*
1,1,0.00600,-0.00300,0.01600*
1,1,0.00600,0.00300,0.01600*
%
%ADD20ROUNDEDRECTD20*%
G04:AMPARAMS|DCode=21|XSize=12mil|YSize=38mil|CornerRadius=3mil|HoleSize=0mil|Usage=FLASHONLY|Rotation=270.000|XOffset=0mil|YOffset=0mil|HoleType=Round|Shape=RoundedRectangle|*
%AMROUNDEDRECTD21*
21,1,0.01200,0.03200,0,0,270.0*
21,1,0.00600,0.03800,0,0,270.0*
1,1,0.00600,-0.01600,-0.00300*
1,1,0.00600,-0.01600,0.00300*
1,1,0.00600,0.01600,0.00300*
1,1,0.00600,0.01600,-0.00300*
%
%ADD21ROUNDEDRECTD21*%
%ADD22R,0.11024X0.10630*%
%ADD23R,0.03000X0.03000*%
%ADD24R,0.03500X0.05000*%
%ADD25R,0.03000X0.03000*%
%ADD26R,0.01700X0.03850*%
%ADD27R,0.03543X0.08268*%
%ADD28R,0.12598X0.08268*%
%ADD29R,0.02362X0.05118*%
G04:AMPARAMS|DCode=30|XSize=59.06mil|YSize=11.81mil|CornerRadius=2.95mil|HoleSize=0mil|Usage=FLASHONLY|Rotation=90.000|XOffset=0mil|YOffset=0mil|HoleType=Round|Shape=RoundedRectangle|*
%AMROUNDEDRECTD30*
21,1,0.05906,0.00591,0,0,90.0*
21,1,0.05315,0.01181,0,0,90.0*
1,1,0.00591,0.00295,0.02657*
1,1,0.00591,0.00295,-0.02657*
1,1,0.00591,-0.00295,-0.02657*
1,1,0.00591,-0.00295,0.02657*
%
%ADD30ROUNDEDRECTD30*%
%ADD31R,0.01968X0.01575*%
%ADD32R,0.03937X0.03150*%
G04:AMPARAMS|DCode=33|XSize=39.37mil|YSize=31.5mil|CornerRadius=0mil|HoleSize=0mil|Usage=FLASHONLY|Rotation=0.000|XOffset=0mil|YOffset=0mil|HoleType=Round|Shape=Octagon|*
%AMOCTAGOND33*
4,1,8,0.01968,-0.00787,0.01968,0.00787,0.01181,0.01575,-0.01181,0.01575,-0.01968,0.00787,-0.01968,-0.00787,-0.01181,-0.01575,0.01181,-0.01575,0.01968,-0.00787,0.0*
%
%ADD33OCTAGOND33*%

%ADD34R,0.03500X0.03500*%
%ADD35R,0.09843X0.05906*%
G04:AMPARAMS|DCode=36|XSize=20mil|YSize=20mil|CornerRadius=5mil|HoleSize=0mil|Usage=FLASHONLY|Rotation=90.000|XOffset=0mil|YOffset=0mil|HoleType=Round|Shape=RoundedRectangle|*
%AMROUNDEDRECTD36*
21,1,0.02000,0.01000,0,0,90.0*
21,1,0.01000,0.02000,0,0,90.0*
1,1,0.01000,0.00500,0.00500*
1,1,0.01000,0.00500,-0.00500*
1,1,0.01000,-0.00500,-0.00500*
1,1,0.01000,-0.00500,0.00500*
%
%ADD36ROUNDEDRECTD36*%
%ADD37R,0.01575X0.01968*%
%ADD38O,0.00984X0.02756*%
%ADD39O,0.02756X0.00984*%
%ADD40R,0.10630X0.11024*%
%ADD41R,0.03937X0.02756*%
%ADD42R,0.02362X0.01181*%
%ADD43R,0.02362X0.01575*%
%ADD44R,0.05118X0.04724*%
%ADD45O,0.07480X0.01575*%
%ADD46R,0.07480X0.01575*%
%ADD47O,0.07087X0.01181*%
%ADD48O,0.01181X0.07087*%
D20*
X95Y27531D02*
D03*
X2063D02*
D03*
X4032D02*
D03*
X6000D02*
D03*
X7969D02*
D03*
X9937D02*
D03*
X11906D02*
D03*
Y45831D02*
D03*
X9937D02*
D03*
X7969D02*
D03*
X6000D02*
D03*
X4032D02*
D03*
X2063D02*
D03*
X95D02*
D03*
D21*
X15150Y30776D02*
D03*
Y32744D02*
D03*
Y34713D02*
D03*
Y36681D02*
D03*
Y38650D02*
D03*
Y40618D02*
D03*
Y42587D02*
D03*
X-3150D02*
D03*
Y40618D02*
D03*
Y38650D02*
D03*
Y36681D02*
D03*
Y34713D02*
D03*
Y32744D02*
D03*
Y30776D02*
D03*
D22*
X6000Y36681D02*
D03*
D23*
X107559Y55000D02*
D03*
X102441D02*
D03*
X127059Y23000D02*
D03*
X121941D02*
D03*
X127059Y30000D02*
D03*
X121941D02*
D03*
X115941Y55000D02*
D03*
X121059D02*
D03*
X94559Y74000D02*
D03*
X89441D02*
D03*
X83559Y68500D02*
D03*
X78441D02*
D03*
X83559Y74000D02*
D03*
X78440D02*
D03*
X168941Y85500D02*
D03*
X174059D02*
D03*
X168941Y81000D02*
D03*
X174059D02*
D03*
X114441Y80000D02*
D03*
X119559D02*
D03*
X114441Y84500D02*
D03*
X119559D02*
D03*
D24*
X108760Y23000D02*
D03*
X116240D02*
D03*
X108760Y30000D02*
D03*
X116240D02*
D03*
D25*
X93500Y42559D02*
D03*
Y37441D02*
D03*
X103500Y42559D02*
D03*
Y37441D02*
D03*
X102500Y64559D02*
D03*
Y59441D02*
D03*
X107500Y64559D02*
D03*
Y59441D02*
D03*
X59900Y27421D02*
D03*
Y22303D02*
D03*
X78701D02*
D03*
Y27421D02*
D03*
X74000Y22303D02*
D03*
Y27421D02*
D03*
X64600Y22303D02*
D03*
Y27421D02*
D03*
D26*
X107661Y47875D02*
D03*
X110220D02*
D03*
X112780D02*
D03*
X115339D02*
D03*
Y37125D02*
D03*
X112780D02*
D03*
X110220D02*
D03*
X107661D02*
D03*
D27*
X58445Y37870D02*
D03*
X67500D02*
D03*
X76555D02*
D03*
D28*
X67500Y60311D02*
D03*
D29*
X29984Y64429D02*
D03*
X33725Y56161D02*
D03*
X26244D02*
D03*
X41744D02*
D03*
X49225D02*
D03*
X45484Y64429D02*
D03*
D30*
X19811Y16512D02*
D03*
X20992D02*
D03*
X22961D02*
D03*
X24142D02*
D03*
X26110D02*
D03*
X28079D02*
D03*
X30047D02*
D03*
X35953D02*
D03*
X37921D02*
D03*
X39890D02*
D03*
X41858D02*
D03*
X43039D02*
D03*
X45008D02*
D03*
X46189D02*
D03*
X32016D02*
D03*
X33984D02*
D03*
D31*
X27500Y29827D02*
D03*
Y33173D02*
D03*
X33500D02*
D03*
Y29827D02*
D03*
X21000Y33173D02*
D03*
Y29827D02*
D03*
X31485Y47559D02*
D03*
Y44213D02*
D03*
X35984D02*
D03*
Y47559D02*
D03*
X40485D02*
D03*
Y44213D02*
D03*
X26985Y47559D02*
D03*
Y44213D02*
D03*
X29634Y109346D02*
D03*
X29634Y112889D02*
D03*
X25500Y109417D02*
D03*
Y112764D02*
D03*
X21500Y109319D02*
D03*
X21500Y112862D02*
D03*
X49500Y112862D02*
D03*
X49500Y109319D02*
D03*
X54500Y109319D02*
D03*
X54500Y112862D02*
D03*
D32*
X26488Y38000D02*
D03*
D33*
X37512D02*
D03*
D34*
X84500Y27091D02*
D03*
Y20091D02*
D03*
D35*
X131500Y49890D02*
D03*
Y36110D02*
D03*
D36*
X4583Y126091D02*
D03*
X8583D02*
D03*
X4583Y120591D02*
D03*
X8583D02*
D03*
X4583Y115091D02*
D03*
X8583D02*
D03*
D37*
X5327Y108591D02*
D03*
X8673D02*
D03*
X-2772D02*
D03*
X771Y108590D02*
D03*
X756Y115091D02*
D03*
X-2591D02*
D03*
X756Y120591D02*
D03*
X-2591D02*
D03*
X756Y126091D02*
D03*
X-2591D02*
D03*
X50181Y100090D02*
D03*
X46638Y100091D02*
D03*
X63736Y81295D02*
D03*
X60193Y81295D02*
D03*
X60291Y85295D02*
D03*
X63637D02*
D03*
X63736Y89295D02*
D03*
X60193Y89295D02*
D03*
X27729Y80795D02*
D03*
X31075D02*
D03*
X27729Y85193D02*
D03*
X31075D02*
D03*
X31272Y89590D02*
D03*
X27729Y89591D02*
D03*
X174771Y96500D02*
D03*
X171228Y96500D02*
D03*
X171229Y99500D02*
D03*
X174772Y99500D02*
D03*
X120772D02*
D03*
X117229Y99500D02*
D03*
X120771Y96500D02*
D03*
X117228Y96500D02*
D03*
X73772Y137500D02*
D03*
X70229Y137500D02*
D03*
X73173Y155500D02*
D03*
X69827D02*
D03*
X73272Y163181D02*
D03*
X69729Y163181D02*
D03*
X28272Y177590D02*
D03*
X24729Y177591D02*
D03*
X7327Y141590D02*
D03*
X10673D02*
D03*
X7228Y133591D02*
D03*
X10771Y133590D02*
D03*
D38*
X40488Y78323D02*
D03*
X42457D02*
D03*
X44425D02*
D03*
X46394D02*
D03*
X48362D02*
D03*
X50331D02*
D03*
Y94858D02*
D03*
X48362D02*
D03*
X46394D02*
D03*
X44425D02*
D03*
X42457D02*
D03*
X40488D02*
D03*
D39*
X53677Y81669D02*
D03*
Y83638D02*
D03*
Y85606D02*
D03*
Y87575D02*
D03*
Y89543D02*
D03*
Y91512D02*
D03*
X37142D02*
D03*
Y89543D02*
D03*
Y87575D02*
D03*
Y85606D02*
D03*
Y83638D02*
D03*
Y81669D02*
D03*
D40*
X45409Y86591D02*
D03*
D41*
X11965Y56358D02*
D03*
X-4964D02*
D03*
X11965Y64823D02*
D03*
X-4964D02*
D03*
X11965Y73358D02*
D03*
X-4964D02*
D03*
X11965Y81823D02*
D03*
X-4964D02*
D03*
X11965Y90268D02*
D03*
X-4964D02*
D03*
X11965Y98732D02*
D03*
X-4964D02*
D03*
D42*
X168563Y109724D02*
D03*
Y107756D02*
D03*
X172500D02*
D03*
Y109724D02*
D03*
X117937D02*
D03*
Y107756D02*
D03*
X114000D02*
D03*
Y109724D02*
D03*
D43*
X168563Y111890D02*
D03*
Y105591D02*
D03*
X172500D02*
D03*
Y111890D02*
D03*
X117937D02*
D03*
Y105591D02*
D03*
X114000D02*
D03*
Y111890D02*
D03*
D44*
X43768Y114193D02*
D03*
X35500D02*
D03*
Y107500D02*
D03*
X43768D02*
D03*
D45*
X161567Y94720D02*
D03*
Y97280D02*
D03*
Y99839D02*
D03*
Y110075D02*
D03*
X132433Y87043D02*
D03*
Y89602D02*
D03*
Y92161D02*
D03*
Y94720D02*
D03*
Y97280D02*
D03*
Y99839D02*
D03*
Y102398D02*
D03*
Y104957D02*
D03*
Y107516D02*
D03*
Y84484D02*
D03*
Y81925D02*
D03*
X161567Y84484D02*
D03*
Y81925D02*
D03*
Y107516D02*
D03*
Y92161D02*
D03*
Y89602D02*
D03*
Y87043D02*
D03*
Y102398D02*
D03*
Y104957D02*
D03*
X107000Y94650D02*
D03*
Y97209D02*
D03*
Y99768D02*
D03*
Y110004D02*
D03*
X77866Y86972D02*
D03*
Y89531D02*
D03*
Y92091D02*
D03*
Y94650D02*
D03*
Y97209D02*
D03*
Y99768D02*
D03*
Y102327D02*
D03*
Y104886D02*
D03*
Y107445D02*
D03*
Y84413D02*
D03*
Y81854D02*
D03*
X107000Y84413D02*
D03*
Y81854D02*
D03*
Y107445D02*
D03*
Y92091D02*
D03*
Y89531D02*
D03*
Y86972D02*
D03*
Y102327D02*
D03*
Y104886D02*
D03*
D46*
X132433Y110075D02*
D03*
X77866Y110004D02*
D03*
D47*
X61850Y161295D02*
D03*
Y159327D02*
D03*
Y153421D02*
D03*
Y155390D02*
D03*
Y157358D02*
D03*
Y163264D02*
D03*
Y143579D02*
D03*
Y139642D02*
D03*
Y141610D02*
D03*
Y145547D02*
D03*
Y133736D02*
D03*
Y135705D02*
D03*
Y137673D02*
D03*
Y147516D02*
D03*
Y149484D02*
D03*
Y151453D02*
D03*
X18150Y163264D02*
D03*
Y161295D02*
D03*
Y159327D02*
D03*
Y157358D02*
D03*
Y155390D02*
D03*
Y153421D02*
D03*
Y151453D02*
D03*
Y149484D02*
D03*
Y147516D02*
D03*
Y145547D02*
D03*
Y143579D02*
D03*
Y141610D02*
D03*
Y139642D02*
D03*
Y137673D02*
D03*
Y135705D02*
D03*
Y133736D02*
D03*
D48*
X25236Y126650D02*
D03*
X27205D02*
D03*
X29173D02*
D03*
X31142D02*
D03*
X33110D02*
D03*
X35079D02*
D03*
X37047D02*
D03*
X39016D02*
D03*
X40984D02*
D03*
X42953D02*
D03*
X44921D02*
D03*
X46890D02*
D03*
X48858D02*
D03*
X50827D02*
D03*
X52795D02*
D03*
X54764D02*
D03*
Y170350D02*
D03*
X52795D02*
D03*
X50827D02*
D03*
X48858D02*
D03*
X46890D02*
D03*
X44921D02*
D03*
X42953D02*
D03*
X40984D02*
D03*
X39016D02*
D03*
X37047D02*
D03*
X35079D02*
D03*
X33110D02*
D03*
X31142D02*
D03*
X29173D02*
D03*
X27205D02*
D03*
X25236D02*
D03*
M02*
